<svg width="21" height="17" viewBox="0 0 21 17" fill="none" xmlns="http://www.w3.org/2000/svg">
<path d="M7.62105 0C7.10262 0 6.62148 0.208104 6.29661 0.564791C5.96508 0.400896 5.59437 0.315067 5.21226 0.315067C3.95931 0.315067 2.94003 1.24086 2.94003 2.37863C2.94003 2.47546 2.94739 2.57186 2.96212 2.66674C2.40712 2.7901 1.9039 3.06958 1.52677 3.46659C1.09527 3.9214 0.857549 4.50258 0.857549 5.10339C0.857549 5.41932 0.921432 5.72684 1.04706 6.01818C0.379497 6.54847 0 7.30454 0 8.11604C0 9.54149 1.18337 10.7207 2.70516 10.8861C2.53299 11.2108 2.44322 11.5693 2.44322 11.9382C2.44322 13.2753 3.64108 14.3628 5.11323 14.3628C5.21226 14.3628 5.31129 14.3581 5.40914 14.3479C5.40059 14.4163 5.39608 14.4853 5.39608 14.5545C5.39608 15.5424 6.28117 16.3462 7.36884 16.3462C7.89558 16.3462 8.39097 16.1598 8.76358 15.8215C9.13571 15.4833 9.34066 15.0335 9.34066 14.5547V1.56282C9.34113 0.701082 8.56955 0 7.62105 0Z" fill="#797979"/>
<path d="M20.2382 8.11625C20.2382 7.30454 19.8271 6.54868 19.1038 6.0184C19.2402 5.72684 19.3092 5.41932 19.3092 5.1036C19.3092 4.5028 19.0516 3.92162 18.5841 3.46681C18.1758 3.0698 17.6307 2.79031 17.0291 2.66696C17.0451 2.57186 17.0531 2.47546 17.0531 2.37885C17.0531 1.24107 15.9488 0.315282 14.5914 0.315282C14.1775 0.315282 13.7758 0.401111 13.4167 0.565006C13.0652 0.208103 12.544 0 11.9824 0C10.955 0 10.1191 0.701082 10.1191 1.56304V14.5547C10.1191 15.0333 10.3412 15.4833 10.7443 15.8215C11.148 16.1598 11.6844 16.3462 12.2553 16.3462C13.4337 16.3462 14.3925 15.5424 14.3925 14.5545C14.3925 14.4851 14.3877 14.4163 14.3784 14.3479C14.4847 14.3578 14.5917 14.3628 14.699 14.3628C16.2941 14.3628 17.5916 13.2751 17.5916 11.9382C17.5916 11.5693 17.4943 11.2108 17.3078 10.8861C18.9562 10.7209 20.2382 9.54171 20.2382 8.11625Z" fill="#797979"/>
<path d="M11.7949 6.72608H12.6081C12.7559 6.73836 13.0516 6.66727 13.0516 6.28496C13.0516 5.90265 13.0516 5.02285 13.0516 4.63074" stroke="#FAFAFA" stroke-width="0.4" stroke-linecap="round" stroke-linejoin="round"/>
<path d="M11.7949 8.96782H12.6081C12.7559 8.95561 13.0516 9.02663 13.0516 9.40894C13.0516 9.79125 13.0516 10.6711 13.0516 11.0632" stroke="#FAFAFA" stroke-width="0.4" stroke-linecap="round" stroke-linejoin="round"/>
<path d="M15.309 6.28296V7.34901C15.3214 7.49605 15.2499 7.79014 14.8655 7.79014C14.4811 7.79014 11.0461 7.79014 10.6519 7.79014" stroke="#FAFAFA" stroke-width="0.4" stroke-linecap="round" stroke-linejoin="round"/>
<path d="M13.0919 3.52727C13.4798 3.52727 13.7942 3.21456 13.7942 2.82882C13.7942 2.44308 13.4798 2.13037 13.0919 2.13037C12.7041 2.13037 12.3896 2.44308 12.3896 2.82882C12.3896 3.21456 12.7041 3.52727 13.0919 3.52727Z" stroke="#FAFAFA" stroke-width="0.4"/>
<path d="M15.3136 5.29131C15.7015 5.29131 16.0159 4.9786 16.0159 4.59286C16.0159 4.20712 15.7015 3.89441 15.3136 3.89441C14.9257 3.89441 14.6113 4.20712 14.6113 4.59286C14.6113 4.9786 14.9257 5.29131 15.3136 5.29131Z" stroke="#FAFAFA" stroke-width="0.4"/>
<path d="M13.0919 13.4485C13.4798 13.4485 13.7942 13.1358 13.7942 12.7501C13.7942 12.3643 13.4798 12.0516 13.0919 12.0516C12.7041 12.0516 12.3896 12.3643 12.3896 12.7501C12.3896 13.1358 12.7041 13.4485 13.0919 13.4485Z" stroke="#FAFAFA" stroke-width="0.4"/>
<path d="M16.6763 10.0332V10.6214M16.6763 9.26127V5.54846M15.3457 8.96718V11.5037" stroke="#FAFAFA" stroke-width="0.4" stroke-linecap="round" stroke-linejoin="round"/>
<path d="M4.26074 6.39099C4.48542 6.56439 4.93943 6.78327 5.44003 6.73412M5.44003 6.73412C5.70229 6.70836 5.97734 6.60898 6.2389 6.39099M5.44003 6.73412C5.73168 7.01612 6.3302 7.76827 6.39107 8.52132" stroke="#FAFAFA" stroke-width="0.4" stroke-linecap="round" stroke-linejoin="round"/>
<path d="M6.4126 1.63904C6.07385 1.13881 5.09628 0.360593 3.896 1.24961" stroke="#FAFAFA" stroke-width="0.4" stroke-linecap="round" stroke-linejoin="round"/>
<path d="M4.01172 3.31152C4.20535 3.88379 4.94096 4.89381 6.33434 4.35573" stroke="#FAFAFA" stroke-width="0.4" stroke-linecap="round" stroke-linejoin="round"/>
<path d="M3.72838 10.6516C4.02252 10.6516 4.26096 10.4131 4.26096 10.119C4.26096 9.82487 4.02252 9.58643 3.72838 9.58643C3.43425 9.58643 3.1958 9.82487 3.1958 10.119C3.1958 10.4131 3.43425 10.6516 3.72838 10.6516Z" stroke="#FAFAFA" stroke-width="0.4"/>
<path d="M4.26074 12.857C4.70032 12.9283 5.56859 12.904 6.35998 12.4669M6.35998 12.4669C6.67882 12.2908 6.98518 12.0477 7.246 11.7168M6.35998 12.4669C6.71138 12.4769 7.42259 12.767 7.45623 13.8471" stroke="#FAFAFA" stroke-width="0.4" stroke-linecap="round" stroke-linejoin="round"/>
<path d="M5.44907 10.4216C5.56548 10.4216 5.65986 10.3272 5.65986 10.2108C5.65986 10.0944 5.56548 10 5.44907 10C5.33265 10 5.23828 10.0944 5.23828 10.2108C5.23828 10.3272 5.33265 10.4216 5.44907 10.4216Z" fill="#FAFAFA"/>
<path d="M6.44907 10.4216C6.56548 10.4216 6.65986 10.3272 6.65986 10.2108C6.65986 10.0944 6.56548 10 6.44907 10C6.33265 10 6.23828 10.0944 6.23828 10.2108C6.23828 10.3272 6.33265 10.4216 6.44907 10.4216Z" fill="#FAFAFA"/>
<path d="M7.44907 10.4216C7.56548 10.4216 7.65986 10.3272 7.65986 10.2108C7.65986 10.0944 7.56548 10 7.44907 10C7.33265 10 7.23828 10.0944 7.23828 10.2108C7.23828 10.3272 7.33265 10.4216 7.44907 10.4216Z" fill="#FAFAFA"/>
<path d="M8.44907 10.4216C8.56548 10.4216 8.65986 10.3272 8.65986 10.2108C8.65986 10.0944 8.56548 10 8.44907 10C8.33265 10 8.23828 10.0944 8.23828 10.2108C8.23828 10.3272 8.33265 10.4216 8.44907 10.4216Z" fill="#FAFAFA"/>
</svg>
