<svg width="24" height="24" viewBox="0 0 24 24" fill="none" xmlns="http://www.w3.org/2000/svg">
<circle cx="12" cy="12" r="12" fill="#DEEBFF"/>
<path d="M10.6177 5H6.90149C6.40568 5 6 5.40566 6 5.90149V8.24026C6 8.73607 6.40566 9.14175 6.90149 9.14175H10.6177C11.1135 9.14175 11.5192 8.7361 11.5192 8.24026V5.90149C11.5192 5.40066 11.1135 5 10.6177 5ZM10.9182 8.24031C10.9182 8.40558 10.7829 8.54079 10.6177 8.54079H6.90149C6.73622 8.54079 6.60101 8.40557 6.60101 8.24031V5.90153C6.60101 5.73626 6.73623 5.60105 6.90149 5.60105H10.6177C10.7829 5.60105 10.9182 5.73627 10.9182 5.90153V8.24031Z" fill="currentColor"/>
<path d="M10.6177 10.0078H6.90149C6.40568 10.0078 6 10.4135 6 10.9093V16.7689C6 17.2648 6.40566 17.6704 6.90149 17.6704H10.6177C11.1135 17.6704 11.5192 17.2648 11.5192 16.7689V10.9093C11.5192 10.4085 11.1135 10.0078 10.6177 10.0078ZM10.9182 16.769C10.9182 16.9343 10.7829 17.0695 10.6177 17.0695H6.90149C6.73622 17.0695 6.60101 16.9343 6.60101 16.769V10.9093C6.60101 10.7441 6.73623 10.6089 6.90149 10.6089H10.6177C10.7829 10.6089 10.9182 10.7441 10.9182 10.9093V16.769Z" fill="currentColor"/>
<path d="M17.0989 13.5293H13.3827C12.8869 13.5293 12.4812 13.935 12.4812 14.4308V16.7696C12.4812 17.2654 12.8869 17.6711 13.3827 17.6711H17.0989C17.5947 17.6711 18.0004 17.2654 18.0004 16.7696V14.4308C18.0004 13.935 17.5997 13.5293 17.0989 13.5293ZM17.3994 16.7696C17.3994 16.9349 17.2641 17.0701 17.0989 17.0701H13.3827C13.2174 17.0701 13.0822 16.9349 13.0822 16.7696V14.4308C13.0822 14.2656 13.2174 14.1303 13.3827 14.1303H17.0989C17.2641 14.1303 17.3994 14.2656 17.3994 14.4308V16.7696Z" fill="currentColor"/>
<path d="M17.0989 5H13.3827C12.8869 5 12.4812 5.40566 12.4812 5.90149V11.7611C12.4812 12.2569 12.8869 12.6626 13.3827 12.6626H17.0989C17.5947 12.6626 18.0004 12.257 18.0004 11.7611V5.90149C18.0004 5.40066 17.5997 5 17.0989 5ZM17.3994 11.7612C17.3994 11.9265 17.2641 12.0617 17.0989 12.0617H13.3827C13.2174 12.0617 13.0822 11.9264 13.0822 11.7612V5.90153C13.0822 5.73626 13.2174 5.60105 13.3827 5.60105H17.0989C17.2641 5.60105 17.3994 5.73627 17.3994 5.90153V11.7612Z" fill="currentColor"/>
</svg>
