<svg width="24" height="24" viewBox="0 0 24 24" fill="none" xmlns="http://www.w3.org/2000/svg">
<g id="noun-lego-brick-981745 1">
<g id="Group">
<path id="Vector" fill-rule="evenodd" clip-rule="evenodd" d="M2.6001 20.16H22.2801V13.057V12.9636V12.96H2.6001V20.16Z" fill="#797979"/>
<path id="Vector_2" d="M22.3175 6.04919H10.8931V12.288H22.3175V6.04919Z" fill="#797979"/>
<path id="Vector_3" fill-rule="evenodd" clip-rule="evenodd" d="M20.7631 4.6514C20.7631 4.26284 20.4453 3.94556 20.0572 3.94556H18.7732C18.3851 3.94556 18.0674 4.26284 18.0674 4.6514V5.30156H20.7631V4.6514Z" fill="#797979"/>
<path id="Vector_4" fill-rule="evenodd" clip-rule="evenodd" d="M15.2269 4.6514C15.2269 4.26284 14.9096 3.94556 14.5211 3.94556H13.2371C12.849 3.94556 12.5312 4.26284 12.5312 4.6514V5.30156H15.2269V4.6514Z" fill="#797979"/>
<path id="Vector_5" fill-rule="evenodd" clip-rule="evenodd" d="M9.82068 11.6645C9.82068 11.2764 9.50316 10.9586 9.11484 10.9586H7.83084C7.44252 10.9586 7.125 11.2764 7.125 11.6645V12.2877H9.82068V11.6645Z" fill="#797979"/>
<path id="Vector_6" fill-rule="evenodd" clip-rule="evenodd" d="M5.245 11.6645C5.245 11.2764 4.92724 10.9586 4.53916 10.9586H3.25516C2.86684 10.9586 2.54932 11.2764 2.54932 11.6645V12.2877H5.245V11.6645Z" fill="#797979"/>
</g>
</g>
</svg>
