<svg width="20" height="20" viewBox="0 0 20 20" fill="none" xmlns="http://www.w3.org/2000/svg">
<path d="M3.55374 0.301636L0.305176 3.52779H3.55374V0.301636Z" fill="#797979"/>
<path d="M9.99948 9.8297C11.2684 8.56948 12.8927 7.91417 14.6693 7.91417C14.8723 7.91417 15.0754 7.91417 15.2276 7.91417V2.01635C15.2276 0.907357 14.314 0 13.1973 0H4.56829V4.0327C4.56829 4.28474 4.3145 4.53678 4.0607 4.53678H0V17.643C0 18.752 0.913658 19.6594 2.03035 19.6594H10.6086C10.4055 19.5082 10.2025 19.3065 9.99948 19.1049C7.41078 16.5845 7.41078 12.4005 9.99948 9.8297ZM3.04553 6.55313H10.6593C10.9131 6.55313 11.1669 6.80517 11.1669 7.05722C11.1669 7.30926 10.9131 7.5613 10.6593 7.5613H3.04553C2.79173 7.5613 2.53794 7.30926 2.53794 7.05722C2.53794 6.80517 2.79173 6.55313 3.04553 6.55313ZM7.10623 16.6349H3.04553C2.79173 16.6349 2.53794 16.3828 2.53794 16.1308C2.53794 15.8787 2.79173 15.6267 3.04553 15.6267H7.10623C7.36002 15.6267 7.61382 15.8787 7.61382 16.1308C7.61382 16.3828 7.41078 16.6349 7.10623 16.6349ZM7.10623 13.6103H3.04553C2.79173 13.6103 2.53794 13.3583 2.53794 13.1063C2.53794 12.8542 2.79173 12.6022 3.04553 12.6022H7.10623C7.36002 12.6022 7.61382 12.8542 7.61382 13.1063C7.61382 13.3583 7.41078 13.6103 7.10623 13.6103ZM7.10623 10.5858H3.04553C2.79173 10.5858 2.53794 10.3338 2.53794 10.0817C2.53794 9.8297 2.79173 9.57765 3.04553 9.57765H7.10623C7.36002 9.57765 7.61382 9.8297 7.61382 10.0817C7.61382 10.3338 7.41078 10.5858 7.10623 10.5858Z" fill="#797979"/>
<path d="M11.707 13.5396V14.8283C11.707 14.8706 11.7154 14.9125 11.7316 14.9516C11.7478 14.9907 11.7715 15.0262 11.8015 15.0562C11.8314 15.0861 11.867 15.1098 11.9061 15.126C11.9452 15.1422 11.9872 15.1505 12.0295 15.1505H12.2738L12.1011 15.3231C12.0711 15.353 12.0474 15.3885 12.0311 15.4276C12.0149 15.4667 12.0066 15.5086 12.0066 15.5509C12.0066 15.5932 12.0149 15.6351 12.0311 15.6742C12.0474 15.7133 12.0711 15.7488 12.1011 15.7787L13.0132 16.69C13.0431 16.72 13.0787 16.7437 13.1178 16.7599C13.1569 16.7761 13.1988 16.7844 13.2412 16.7844C13.2835 16.7844 13.3255 16.7761 13.3646 16.7599C13.4037 16.7437 13.4393 16.72 13.4692 16.69L13.6419 16.5175V16.7615C13.6419 16.8038 13.6502 16.8457 13.6665 16.8848C13.6827 16.9239 13.7064 16.9594 13.7364 16.9893C13.7663 17.0193 13.8019 17.043 13.841 17.0592C13.8801 17.0754 13.922 17.0837 13.9644 17.0837H15.2543C15.2967 17.0837 15.3386 17.0754 15.3777 17.0592C15.4168 17.043 15.4524 17.0193 15.4823 16.9893C15.5123 16.9594 15.536 16.9239 15.5522 16.8848C15.5684 16.8457 15.5768 16.8038 15.5768 16.7615V16.5175L15.7495 16.69C15.81 16.7505 15.892 16.7844 15.9775 16.7844C16.063 16.7844 16.145 16.7505 16.2055 16.69L17.1176 15.7787C17.1476 15.7488 17.1713 15.7133 17.1875 15.6742C17.2037 15.6351 17.2121 15.5932 17.2121 15.5509C17.2121 15.5086 17.2037 15.4667 17.1875 15.4276C17.1713 15.3885 17.1476 15.353 17.1176 15.3231L16.9449 15.1505H17.1892C17.2315 15.1505 17.2735 15.1422 17.3126 15.126C17.3517 15.1098 17.3873 15.0861 17.4172 15.0562C17.4472 15.0262 17.4709 14.9907 17.4871 14.9516C17.5033 14.9125 17.5117 14.8706 17.5117 14.8283V13.5396C17.5117 13.4972 17.5033 13.4553 17.4871 13.4163C17.4709 13.3772 17.4472 13.3416 17.4172 13.3117C17.3873 13.2818 17.3517 13.2581 17.3126 13.2419C17.2735 13.2257 17.2315 13.2174 17.1892 13.2174H16.9449L17.1176 13.0448C17.1476 13.0149 17.1713 12.9794 17.1875 12.9403C17.2037 12.9012 17.2121 12.8593 17.2121 12.817C17.2121 12.7747 17.2037 12.7328 17.1875 12.6937C17.1713 12.6546 17.1476 12.6191 17.1176 12.5891L16.2055 11.6779C16.1756 11.6479 16.14 11.6242 16.1009 11.608C16.0618 11.5918 16.0198 11.5835 15.9775 11.5835C15.9351 11.5835 15.8932 11.5918 15.8541 11.608C15.815 11.6242 15.7794 11.6479 15.7495 11.6779L15.5768 11.8504V11.6064C15.5768 11.5641 15.5684 11.5222 15.5522 11.4831C15.536 11.444 15.5123 11.4085 15.4823 11.3785C15.4524 11.3486 15.4168 11.3249 15.3777 11.3087C15.3386 11.2925 15.2967 11.2842 15.2543 11.2842H13.9644C13.922 11.2842 13.8801 11.2925 13.841 11.3087C13.8019 11.3249 13.7663 11.3486 13.7364 11.3785C13.7064 11.4085 13.6827 11.444 13.6665 11.4831C13.6502 11.5222 13.6419 11.5641 13.6419 11.6064V11.8504L13.4692 11.6779C13.4393 11.6479 13.4037 11.6242 13.3646 11.608C13.3255 11.5918 13.2835 11.5835 13.2412 11.5835C13.1988 11.5835 13.1569 11.5918 13.1178 11.608C13.0787 11.6242 13.0431 11.6479 13.0132 11.6779L12.1011 12.5891C12.0711 12.6191 12.0474 12.6546 12.0312 12.6937C12.0149 12.7328 12.0066 12.7747 12.0066 12.817C12.0066 12.8593 12.0149 12.9012 12.0312 12.9403C12.0474 12.9794 12.0711 13.0149 12.1011 13.0448L12.2738 13.2174H12.0295C11.9872 13.2174 11.9452 13.2257 11.9061 13.2419C11.867 13.2581 11.8314 13.2818 11.8015 13.3117C11.7715 13.3416 11.7478 13.3772 11.7316 13.4163C11.7154 13.4553 11.707 13.4972 11.707 13.5396ZM12.352 13.8617H12.7862C12.8529 13.8617 12.9179 13.8411 12.9723 13.8026C13.0268 13.7642 13.068 13.7098 13.0902 13.647C13.109 13.5937 13.1306 13.5414 13.1549 13.4904C13.1837 13.4303 13.1931 13.3627 13.1818 13.297C13.1706 13.2313 13.1392 13.1707 13.092 13.1236L12.7851 12.817L13.2412 12.3613L13.5481 12.6679C13.5952 12.7151 13.6559 12.7464 13.7216 12.7577C13.7874 12.7689 13.855 12.7595 13.9152 12.7308C13.9663 12.7065 14.0186 12.6849 14.072 12.6661C14.1348 12.6439 14.1892 12.6028 14.2277 12.5484C14.2662 12.494 14.2869 12.429 14.2869 12.3624V11.9286H14.9318V12.3624C14.9318 12.429 14.9525 12.494 14.991 12.5484C15.0295 12.6028 15.0839 12.6439 15.1467 12.6661C15.2001 12.6849 15.2524 12.7065 15.3035 12.7308C15.3637 12.7595 15.4313 12.7689 15.497 12.7577C15.5628 12.7464 15.6235 12.7151 15.6706 12.6679L15.9775 12.3613L16.4336 12.817L16.1267 13.1236C16.0795 13.1707 16.0481 13.2313 16.0369 13.297C16.0256 13.3627 16.035 13.4303 16.0638 13.4904C16.0881 13.5414 16.1097 13.5937 16.1285 13.647C16.1507 13.7098 16.1919 13.7642 16.2463 13.8026C16.3008 13.8411 16.3658 13.8617 16.4325 13.8617H16.8667V14.5061H16.4325C16.3658 14.5061 16.3008 14.5268 16.2463 14.5652C16.1919 14.6037 16.1507 14.6581 16.1285 14.7209C16.1097 14.7742 16.0881 14.8264 16.0638 14.8775C16.035 14.9376 16.0256 15.0052 16.0369 15.0709C16.0481 15.1366 16.0795 15.1972 16.1267 15.2443L16.4336 15.5509L15.9775 16.0066L15.6706 15.7C15.6235 15.6528 15.5628 15.6215 15.497 15.6102C15.4313 15.599 15.3637 15.6084 15.3035 15.6371C15.2524 15.6614 15.2001 15.683 15.1467 15.7018C15.0839 15.724 15.0295 15.7651 14.991 15.8195C14.9525 15.8739 14.9318 15.9389 14.9318 16.0055V16.4393H14.2869V16.0055C14.2869 15.9389 14.2662 15.8739 14.2277 15.8195C14.1892 15.7651 14.1348 15.724 14.072 15.7018C14.0186 15.683 13.9663 15.6614 13.9152 15.6371C13.855 15.6084 13.7874 15.599 13.7216 15.6102C13.6559 15.6215 13.5952 15.6528 13.5481 15.6999L13.2412 16.0065L12.7851 15.5509L13.092 15.2443C13.1392 15.1972 13.1706 15.1366 13.1818 15.0709C13.1931 15.0052 13.1837 14.9376 13.1549 14.8775C13.1306 14.8264 13.109 14.7742 13.0902 14.7209C13.068 14.6581 13.0268 14.6037 12.9723 14.5652C12.9179 14.5268 12.8529 14.5061 12.7862 14.5061H12.352V13.8617Z" fill="#797979"/>
<path d="M14.6023 15.1601C14.7936 15.1601 14.9807 15.1034 15.1398 14.9972C15.2989 14.891 15.4229 14.74 15.4961 14.5634C15.5693 14.3867 15.5885 14.1924 15.5511 14.0049C15.5138 13.8174 15.4217 13.6451 15.2864 13.5099C15.1511 13.3747 14.9787 13.2827 14.791 13.2454C14.6033 13.2081 14.4088 13.2272 14.232 13.3004C14.0552 13.3735 13.9041 13.4974 13.7978 13.6564C13.6915 13.8154 13.6348 14.0023 13.6348 14.1934C13.6351 14.4497 13.7371 14.6954 13.9185 14.8766C14.0998 15.0579 14.3458 15.1598 14.6023 15.1601ZM14.6023 13.8712C14.6661 13.8712 14.7284 13.8901 14.7814 13.9255C14.8345 13.9609 14.8758 14.0113 14.9002 14.0701C14.9246 14.129 14.931 14.1938 14.9186 14.2563C14.9061 14.3188 14.8754 14.3762 14.8303 14.4213C14.7852 14.4664 14.7277 14.4971 14.6652 14.5095C14.6026 14.5219 14.5378 14.5155 14.4788 14.4912C14.4199 14.4668 14.3695 14.4255 14.3341 14.3725C14.2986 14.3195 14.2797 14.2572 14.2797 14.1934C14.2798 14.108 14.3138 14.0261 14.3743 13.9657C14.4348 13.9053 14.5168 13.8713 14.6023 13.8712Z" fill="#797979"/>
<path d="M14.6124 9.67371C13.7206 9.67218 12.8484 9.93514 12.1063 10.4293C11.3643 10.9234 10.7857 11.6265 10.4438 12.4495L11.0391 12.6975C11.3788 11.8832 11.9869 11.2094 12.7626 10.7879C13.5383 10.3665 14.4349 10.2227 15.3036 10.3804C16.1723 10.5381 16.961 10.9879 17.5386 11.6551C18.1163 12.3223 18.4483 13.1667 18.4795 14.0484L18.0652 13.6344L17.6092 14.0901L18.5766 15.0567C18.6066 15.0866 18.6421 15.1103 18.6812 15.1265C18.7204 15.1427 18.7623 15.151 18.8046 15.151C18.847 15.151 18.8889 15.1427 18.9281 15.1265C18.9672 15.1103 19.0027 15.0866 19.0327 15.0567L20.0001 14.0901L19.5441 13.6344L19.1251 14.0531C19.0895 12.8805 18.5987 11.7677 17.7564 10.9503C16.9142 10.1329 15.7866 9.67509 14.6124 9.67371Z" fill="#797979"/>
<path d="M10.1196 14.6193C10.2135 15.5874 10.6181 16.4993 11.2731 17.219C11.928 17.9387 12.7982 18.4276 13.7539 18.6128C14.7097 18.7981 15.6997 18.6698 16.5765 18.247C17.4533 17.8242 18.1698 17.1296 18.6192 16.2668L18.0473 15.9689C17.6666 16.6999 17.0621 17.2903 16.3221 17.654C15.582 18.0177 14.745 18.1357 13.9331 17.9908C13.1212 17.8458 12.3769 17.4456 11.8086 16.8484C11.2403 16.2512 10.8779 15.4883 10.774 14.6708L11.1605 15.0569L11.6165 14.6012L10.6491 13.6346C10.5886 13.5742 10.5066 13.5403 10.421 13.5403C10.3355 13.5403 10.2535 13.5742 10.193 13.6346L9.22559 14.6012L9.68163 15.0569L10.1196 14.6193Z" fill="#797979"/>
</svg>
