<svg width="24" height="24" viewBox="0 0 24 24" fill="none" xmlns="http://www.w3.org/2000/svg">
<g id="Group 1000003853">
<g id="text_snippet">
<mask id="mask0_1654_6707" style="mask-type:alpha" maskUnits="userSpaceOnUse" x="4" y="3" width="20" height="21">
<rect id="Bounding box" x="4.13525" y="3.33154" width="19.8646" height="19.9927" fill="#D9D9D9"/>
</mask>
<g mask="url(#mask0_1654_6707)">
<path id="text_snippet_2" d="M8.27452 21.4465C7.81929 21.4465 7.42959 21.2831 7.10541 20.9561C6.78123 20.6292 6.61914 20.2363 6.61914 19.7772V8.09193C6.61914 7.63287 6.78123 7.23988 7.10541 6.91297C7.42959 6.58606 7.81929 6.42261 8.27452 6.42261H16.5514L21.5176 11.4306V19.7772C21.5176 20.2363 21.3555 20.6292 21.0313 20.9561C20.7071 21.2831 20.3174 21.4465 19.8622 21.4465H8.27452ZM9.92991 18.1079H18.2068V16.4385H9.92991V18.1079ZM9.92991 14.7692H18.2068V13.0999H9.92991V14.7692ZM9.92991 11.4306H15.7237V9.76125H9.92991V11.4306Z" fill="#797979"/>
</g>
</g>
<g id="verified_user">
<mask id="mask1_1654_6707" style="mask-type:alpha" maskUnits="userSpaceOnUse" x="0" y="0" width="12" height="12">
<rect id="Bounding box_2" width="11.5877" height="11.6624" fill="#D9D9D9"/>
</mask>
<g mask="url(#mask1_1654_6707)">
<path id="verified_user_2" d="M5.28675 8.15284L8.01468 5.40194L7.32666 4.70813L5.28675 6.76522L4.27283 5.74276L3.58481 6.43657L5.28675 8.15284ZM5.79371 11.2933C4.67518 11.0092 3.75179 10.3621 3.02353 9.3518C2.29528 8.34151 1.93115 7.21965 1.93115 5.9862V3.0162L5.79371 1.55554L9.65627 3.0162V5.9862C9.65627 7.21965 9.29214 8.34151 8.56389 9.3518C7.83564 10.3621 6.91224 11.0092 5.79371 11.2933Z" fill="#797979"/>
</g>
</g>
</g>
</svg>
