<svg width="14" height="14" viewBox="0 0 14 14" fill="none" xmlns="http://www.w3.org/2000/svg">
<path d="M8.14785 6.65C8.28785 6.496 8.27385 6.272 8.13385 6.132C7.97985 5.992 7.75585 6.006 7.61585 6.146L6.76185 7.056L6.38385 6.65C6.24385 6.496 6.01985 6.496 5.86585 6.636C5.71185 6.776 5.71185 7 5.85185 7.154L6.49585 7.854C6.56585 7.924 6.66385 7.966 6.76185 7.966C6.85985 7.966 6.95785 7.924 7.02785 7.854L8.14785 6.65Z" fill="current"/>
<path d="M13.538 6.566C13.398 6.426 13.16 6.426 13.02 6.566L12.46 7.126V7C12.46 3.99 10.01 1.526 6.98603 1.526C5.25003 1.526 3.59803 2.366 2.56203 3.78C2.43603 3.948 2.47803 4.172 2.64603 4.298C2.81403 4.424 3.03803 4.382 3.16403 4.214C4.06003 2.996 5.48803 2.268 7.00003 2.268C9.61803 2.268 11.732 4.396 11.732 7V7.112L11.172 6.552C11.032 6.412 10.794 6.412 10.654 6.552C10.514 6.692 10.514 6.93 10.654 7.07L11.83 8.246C11.9 8.316 11.998 8.358 12.096 8.358C12.194 8.358 12.278 8.316 12.362 8.246L13.538 7.07C13.692 6.93 13.692 6.706 13.538 6.566Z" fill="current"/>
<path d="M10.8219 9.78599C9.93993 11.004 8.51193 11.732 6.99993 11.732C4.38193 11.732 2.26793 9.60399 2.26793 6.99999V6.88799L2.82793 7.44799C2.89793 7.51799 2.99593 7.55999 3.09393 7.55999C3.19193 7.55999 3.27593 7.51799 3.35993 7.44799C3.49993 7.30799 3.49993 7.06999 3.35993 6.92999L2.15593 5.73999C2.01593 5.59999 1.77793 5.59999 1.63793 5.73999L0.461934 6.91599C0.321934 7.05599 0.321934 7.29399 0.461934 7.43399C0.601934 7.57399 0.839934 7.57399 0.979934 7.43399L1.53993 6.87399V6.99999C1.53993 10.01 3.98993 12.474 7.01393 12.474C8.74993 12.474 10.4019 11.634 11.4379 10.22C11.5639 10.052 11.5219 9.82799 11.3539 9.70199C11.1719 9.58999 10.9479 9.61799 10.8219 9.78599Z" fill="current"/>
<path d="M9.81403 7C9.81403 5.446 8.55404 4.186 7.00004 4.186C5.44604 4.186 4.18604 5.446 4.18604 7C4.18604 8.554 5.44604 9.814 7.00004 9.814C8.55404 9.814 9.81403 8.554 9.81403 7ZM4.91404 7C4.91404 5.852 5.85204 4.914 7.00004 4.914C8.14804 4.914 9.08604 5.852 9.08604 7C9.08604 8.148 8.14804 9.086 7.00004 9.086C5.85204 9.086 4.91404 8.148 4.91404 7Z" fill="current"/>
</svg>
