<svg width="12" height="12" viewBox="0 0 12 12" fill="none" xmlns="http://www.w3.org/2000/svg">
<path d="M1.49992 11.8333C1.17909 11.8333 0.904433 11.7191 0.67596 11.4906C0.447488 11.2622 0.333252 10.9875 0.333252 10.6667V1.33334C0.333252 1.01251 0.447488 0.737852 0.67596 0.50938C0.904433 0.280908 1.17909 0.166672 1.49992 0.166672H6.16659L9.66659 3.66667V6.00001H8.49992V4.25001H5.58325V1.33334H1.49992V10.6667H4.99992V11.8333H1.49992ZM8.67492 7.47292L9.302 8.10001L7.04159 10.3458V10.9583H7.65409L9.9145 8.71251L10.527 9.32501L8.01867 11.8333H6.16659V9.98126L8.67492 7.47292ZM10.527 9.32501L8.67492 7.47292L9.52075 6.62709C9.6277 6.52014 9.76381 6.46667 9.92909 6.46667C10.0944 6.46667 10.2305 6.52014 10.3374 6.62709L11.3728 7.66251C11.4798 7.76945 11.5333 7.90556 11.5333 8.07084C11.5333 8.23612 11.4798 8.37223 11.3728 8.47917L10.527 9.32501Z" fill="current"/>
</svg>
