<svg width="20" height="20" viewBox="0 0 20 20" fill="#434343" xmlns="http://www.w3.org/2000/svg">
<mask id="mask0_397_725" style="mask-type:alpha" maskUnits="userSpaceOnUse" x="0" y="0" width="20" height="20">
<rect x="0.400024" y="0.199997" width="19.2" height="19.2" fill="current"/>
</mask>
<g mask="url(#mask0_397_725)">
<path d="M10 16.2C9.56002 16.2 9.18336 16.0434 8.87002 15.73C8.55669 15.4167 8.40002 15.04 8.40002 14.6C8.40002 14.16 8.55669 13.7834 8.87002 13.47C9.18336 13.1567 9.56002 13 10 13C10.44 13 10.8167 13.1567 11.13 13.47C11.4434 13.7834 11.6 14.16 11.6 14.6C11.6 15.04 11.4434 15.4167 11.13 15.73C10.8167 16.0434 10.44 16.2 10 16.2ZM10 11.4C9.56002 11.4 9.18336 11.2434 8.87002 10.93C8.55669 10.6167 8.40002 10.24 8.40002 9.80004C8.40002 9.36004 8.55669 8.98337 8.87002 8.67004C9.18336 8.35671 9.56002 8.20004 10 8.20004C10.44 8.20004 10.8167 8.35671 11.13 8.67004C11.4434 8.98337 11.6 9.36004 11.6 9.80004C11.6 10.24 11.4434 10.6167 11.13 10.93C10.8167 11.2434 10.44 11.4 10 11.4ZM10 6.60004C9.56002 6.60004 9.18336 6.44337 8.87002 6.13004C8.55669 5.81671 8.40002 5.44004 8.40002 5.00004C8.40002 4.56004 8.55669 4.18337 8.87002 3.87004C9.18336 3.55671 9.56002 3.40004 10 3.40004C10.44 3.40004 10.8167 3.55671 11.13 3.87004C11.4434 4.18337 11.6 4.56004 11.6 5.00004C11.6 5.44004 11.4434 5.81671 11.13 6.13004C10.8167 6.44337 10.44 6.60004 10 6.60004Z" fill="current"/>
</g>
</svg>
