<svg width="23" height="18" viewBox="0 0 23 18" fill="none" xmlns="http://www.w3.org/2000/svg">
<path d="M5.54827 3.80308L8.26234 3.77831L8.34491 12.8252L5.63084 12.85M8.30364 8.30357L11.0177 8.2788M15.5164 5.52344L15.5659 10.9516L11.0425 10.9929L10.9929 5.56473L15.5164 5.52344ZM5.60609 10.1377L5.65563 15.5658L1.13218 15.6071L1.08264 10.179L5.60609 10.1377ZM5.52352 1.09083L5.57306 6.51896L1.04962 6.56024L1.00008 1.13211L5.52352 1.09083Z" stroke="#797979" stroke-linecap="round" stroke-linejoin="round"/>
<path d="M23.0002 16.4612L18.7249 12.1859C19.7523 10.9525 20.2646 9.37048 20.1553 7.76898C20.0459 6.16748 19.3234 4.66978 18.138 3.58743C16.9525 2.50509 15.3954 1.92145 13.7906 1.95791C12.1858 1.99437 10.6568 2.64814 9.52174 3.78321C8.38667 4.91828 7.7329 6.44725 7.69644 8.05207C7.65997 9.65688 8.24362 11.214 9.32596 12.3994C10.4083 13.5849 11.906 14.3074 13.5075 14.4167C15.109 14.5261 16.691 14.0137 17.9244 12.9864L22.1997 17.2617L23.0002 16.4612ZM8.8473 8.20381C8.8473 7.19611 9.14612 6.21104 9.70597 5.37316C10.2658 4.53529 11.0616 3.88224 11.9926 3.49661C12.9235 3.11098 13.948 3.01008 14.9363 3.20667C15.9247 3.40327 16.8325 3.88852 17.5451 4.60108C18.2576 5.31363 18.7429 6.22148 18.9395 7.20982C19.1361 8.19816 19.0352 9.2226 18.6495 10.1536C18.2639 11.0846 17.6109 11.8803 16.773 12.4402C15.9351 13 14.95 13.2989 13.9423 13.2989C12.5915 13.2974 11.2964 12.7601 10.3413 11.8049C9.38608 10.8497 8.8488 9.55464 8.8473 8.20381Z" fill="#797979"/>
<rect x="1" y="1" width="4.51721" height="5.42065" fill="#797979"/>
<rect x="1" y="10.0344" width="4.51721" height="5.42065" fill="#797979"/>
<rect x="10.938" y="5.51733" width="4.51721" height="5.42065" fill="#797979"/>
</svg>
