<svg width="16" height="16" viewBox="0 0 16 16" fill="none" xmlns="http://www.w3.org/2000/svg">
<mask id="mask0_234_204" style="mask-type:alpha" maskUnits="userSpaceOnUse" x="0" y="0" width="16" height="16">
<rect width="16" height="16" fill="current"/>
</mask>
<g mask="url(#mask0_234_204)">
<path d="M8.00001 15.3333C6.75556 15.3333 5.61112 15.05 4.56667 14.4833C3.52223 13.9167 2.66667 13.1611 2.00001 12.2167V14H0.666672V9.99999H4.66667V11.3333H3.01667C3.55001 12.1333 4.25278 12.7778 5.12501 13.2667C5.99723 13.7555 6.95556 14 8.00001 14C8.83334 14 9.61389 13.8417 10.3417 13.525C11.0694 13.2083 11.7028 12.7805 12.2417 12.2417C12.7806 11.7028 13.2083 11.0694 13.525 10.3417C13.8417 9.61388 14 8.83332 14 7.99999H15.3333C15.3333 9.0111 15.1417 9.9611 14.7583 10.85C14.375 11.7389 13.85 12.5167 13.1833 13.1833C12.5167 13.85 11.7389 14.375 10.85 14.7583C9.96112 15.1417 9.01112 15.3333 8.00001 15.3333ZM0.666672 7.99999C0.666672 6.98888 0.858338 6.03888 1.24167 5.14999C1.62501 4.2611 2.15001 3.48332 2.81667 2.81666C3.48334 2.14999 4.26112 1.62499 5.15001 1.24166C6.03889 0.858323 6.98889 0.666656 8.00001 0.666656C9.24445 0.666656 10.3889 0.94999 11.4333 1.51666C12.4778 2.08332 13.3333 2.83888 14 3.78332V1.99999H15.3333V5.99999H11.3333V4.66666H12.9833C12.45 3.86666 11.7472 3.22221 10.875 2.73332C10.0028 2.24443 9.04445 1.99999 8.00001 1.99999C7.16667 1.99999 6.38612 2.15832 5.65834 2.47499C4.93056 2.79166 4.29723 3.21943 3.75834 3.75832C3.21945 4.29721 2.79167 4.93055 2.47501 5.65832C2.15834 6.3861 2.00001 7.16666 2.00001 7.99999H0.666672ZM8.00001 12C8.23334 12 8.43056 11.9194 8.59167 11.7583C8.75278 11.5972 8.83334 11.4 8.83334 11.1667C8.83334 10.9333 8.75278 10.7333 8.59167 10.5667C8.43056 10.4 8.23334 10.3167 8.00001 10.3167C7.76667 10.3167 7.56945 10.3972 7.40834 10.5583C7.24723 10.7194 7.16667 10.9167 7.16667 11.15C7.16667 11.3833 7.24723 11.5833 7.40834 11.75C7.56945 11.9167 7.76667 12 8.00001 12ZM7.40001 9.46666H8.61667C8.61667 9.06666 8.66389 8.76666 8.75834 8.56666C8.85278 8.36666 9.04445 8.12221 9.33334 7.83332C9.72223 7.44443 9.98056 7.13055 10.1083 6.89166C10.2361 6.65277 10.3 6.36666 10.3 6.03332C10.3 5.4111 10.0778 4.91666 9.63334 4.54999C9.18889 4.18332 8.64445 3.99999 8.00001 3.99999C7.44445 3.99999 6.96667 4.14443 6.56667 4.43332C6.16667 4.72221 5.87778 5.13332 5.70001 5.66666L6.8 6.13332C6.87778 5.84443 7.02501 5.60555 7.24167 5.41666C7.45834 5.22777 7.71112 5.13332 8.00001 5.13332C8.30001 5.13332 8.55278 5.21943 8.75834 5.39166C8.96389 5.56388 9.06667 5.79443 9.06667 6.08332C9.06667 6.27221 9.02223 6.4611 8.93334 6.64999C8.84445 6.83888 8.65556 7.0611 8.36667 7.31666C8.00001 7.63888 7.74723 7.95277 7.60834 8.25832C7.46945 8.56388 7.40001 8.96666 7.40001 9.46666Z" fill="current"/>
</g>
</svg>
