<svg width="10" height="14" viewBox="0 0 10 14" fill="none" xmlns="http://www.w3.org/2000/svg">
<path d="M8.9375 2.1875H7.625V1.75C7.625 1.51794 7.53281 1.29538 7.36872 1.13128C7.20462 0.967187 6.98206 0.875 6.75 0.875H3.25C3.01794 0.875 2.79538 0.967187 2.63128 1.13128C2.46719 1.29538 2.375 1.51794 2.375 1.75V2.1875H1.0625C0.830436 2.1875 0.607876 2.27969 0.443782 2.44378C0.279687 2.60788 0.1875 2.83044 0.1875 3.0625V12.25C0.1875 12.4821 0.279687 12.7046 0.443782 12.8687C0.607876 13.0328 0.830436 13.125 1.0625 13.125H8.9375C9.16956 13.125 9.39212 13.0328 9.55622 12.8687C9.72031 12.7046 9.8125 12.4821 9.8125 12.25V3.0625C9.8125 2.83044 9.72031 2.60788 9.55622 2.44378C9.39212 2.27969 9.16956 2.1875 8.9375 2.1875ZM3.25 1.75H6.75V3.5H3.25V1.75ZM8.9375 12.25H1.0625V3.0625H2.375V4.375H7.625V3.0625H8.9375V12.25Z" fill="current"/>
</svg>
