<svg width="13" height="14" viewBox="0 0 13 14" fill="none" xmlns="http://www.w3.org/2000/svg">
<path d="M1.6026 1.97437V5.7593V5.7436V12.0256V1.97437ZM1.6026 13.2821C1.25709 13.2821 0.961309 13.159 0.715262 12.913C0.469215 12.6669 0.346191 12.3712 0.346191 12.0256V1.97437C0.346191 1.62885 0.469215 1.33307 0.715262 1.08703C0.961309 0.84098 1.25709 0.717957 1.6026 0.717957H6.62824L10.3975 4.48719V6.0577C10.1985 5.97394 9.99438 5.9085 9.78497 5.86139C9.57557 5.81427 9.36093 5.78024 9.14106 5.7593V5.11539H6.00004V1.97437H1.6026V12.0256H5.38754C5.55506 12.2769 5.74352 12.5099 5.95292 12.7245C6.16232 12.9392 6.39267 13.125 6.64395 13.2821H1.6026ZM8.82696 11.3974C9.2667 11.3974 9.63839 11.2456 9.94203 10.942C10.2457 10.6384 10.3975 10.2667 10.3975 9.82693C10.3975 9.38719 10.2457 9.0155 9.94203 8.71187C9.63839 8.40823 9.2667 8.25642 8.82696 8.25642C8.38722 8.25642 8.01553 8.40823 7.7119 8.71187C7.40826 9.0155 7.25645 9.38719 7.25645 9.82693C7.25645 10.2667 7.40826 10.6384 7.7119 10.942C8.01553 11.2456 8.38722 11.3974 8.82696 11.3974ZM12.0308 13.9103L10.3347 12.2141C10.1148 12.3607 9.87659 12.4706 9.62007 12.5439C9.36355 12.6172 9.09918 12.6539 8.82696 12.6539C8.0417 12.6539 7.37424 12.379 6.82456 11.8293C6.27488 11.2797 6.00004 10.6122 6.00004 9.82693C6.00004 9.04167 6.27488 8.37421 6.82456 7.82453C7.37424 7.27485 8.0417 7.00001 8.82696 7.00001C9.61222 7.00001 10.2797 7.27485 10.8294 7.82453C11.379 8.37421 11.6539 9.04167 11.6539 9.82693C11.6539 10.0992 11.6172 10.3635 11.5439 10.62C11.4707 10.8766 11.3607 11.1148 11.2141 11.3346L12.9103 13.0308L12.0308 13.9103Z" fill="current"/>
</svg>
