<svg width="24" height="24" viewBox="0 0 24 24" fill="none" xmlns="http://www.w3.org/2000/svg">
<circle cx="12" cy="12" r="12" fill="#ECF3FE"/>
<path d="M17.5749 7.12315C17.4632 7.12315 17.356 7.16753 17.277 7.24652C17.198 7.32551 17.1537 7.43265 17.1537 7.54436V14.609C17.1537 14.857 16.7604 15.1302 16.6205 15.1422H15.1662C14.7157 15.1422 14.4238 14.9343 14.4238 14.609V8.43344C14.4238 8.18818 14.5357 7.90026 14.8503 7.90026H15.3675C15.6821 7.90026 15.7941 8.18685 15.7941 8.43344V14.1025C15.7941 14.2142 15.8384 14.3214 15.9174 14.4003C15.9964 14.4793 16.1036 14.5237 16.2153 14.5237C16.327 14.5237 16.4341 14.4793 16.5131 14.4003C16.5921 14.3214 16.6365 14.2142 16.6365 14.1025V8.43344C16.6365 7.63367 16.1033 7.0605 15.3688 7.0605H14.8503C14.5444 7.05632 14.248 7.16716 14.0199 7.37108C13.7992 7.17048 13.5117 7.05928 13.2134 7.05917H11.8725C11.6841 7.05927 11.4984 7.10344 11.3301 7.18815C11.1618 7.27286 11.0157 7.39576 10.9034 7.54703C10.8042 7.48473 10.6964 7.43713 10.5835 7.40574L9.29056 7.0445C8.98159 6.95838 8.65108 6.99827 8.37148 7.15543C8.09188 7.3126 7.886 7.57422 7.79898 7.88293L6.04481 14.1452C5.95832 14.4541 5.99804 14.7848 6.15526 15.0645C6.31248 15.3442 6.57433 15.55 6.88324 15.6367L8.17488 15.9993C8.32787 16.0423 8.48784 16.0547 8.64563 16.0359C8.80343 16.017 8.95596 15.9672 9.0945 15.8893C9.23303 15.8115 9.35485 15.707 9.453 15.582C9.55114 15.457 9.62367 15.3139 9.66645 15.1609L10.6648 11.6112V14.773C10.6652 15.0939 10.7928 15.4015 11.0197 15.6284C11.2466 15.8553 11.5543 15.983 11.8752 15.9833H13.2134C13.3728 15.9839 13.5306 15.9527 13.6778 15.8916C13.825 15.8305 13.9585 15.7407 14.0705 15.6274C14.3845 15.8675 14.7711 15.9931 15.1662 15.9833H16.6231C17.1657 15.9833 17.9961 15.3675 17.9961 14.6104V7.5457C17.9963 7.49027 17.9855 7.43535 17.9644 7.3841C17.9433 7.33284 17.9123 7.28625 17.8732 7.24699C17.8341 7.20774 17.7876 7.17659 17.7364 7.15534C17.6852 7.13409 17.6303 7.12315 17.5749 7.12315ZM10.6115 8.67071L8.85735 14.9356C8.84387 14.9823 8.8213 15.0259 8.79093 15.0638C8.76057 15.1018 8.723 15.1334 8.6804 15.1568C8.6378 15.1802 8.59099 15.195 8.54267 15.2002C8.49435 15.2055 8.44546 15.2012 8.39881 15.1875L7.11118 14.8263C7.06446 14.8134 7.02076 14.7913 6.98258 14.7615C6.94441 14.7316 6.91251 14.6945 6.88873 14.6522C6.86495 14.61 6.84975 14.5635 6.844 14.5153C6.83826 14.4672 6.84208 14.4184 6.85525 14.3718L8.60942 8.10687C8.63668 8.01315 8.69994 7.93404 8.78536 7.88683C8.87079 7.83962 8.97144 7.82815 9.06529 7.85494L10.3569 8.21751C10.4036 8.23043 10.4473 8.25247 10.4855 8.28234C10.5237 8.31221 10.5556 8.34934 10.5794 8.39157C10.6032 8.43381 10.6184 8.48034 10.6241 8.52847C10.6298 8.5766 10.626 8.62539 10.6129 8.67204L10.6115 8.67071ZM13.5827 14.773C13.5823 14.8704 13.5435 14.9638 13.4745 15.0327C13.4056 15.1017 13.3122 15.1405 13.2148 15.1409H11.8725C11.775 15.1405 11.6817 15.1017 11.6127 15.0327C11.5438 14.9638 11.5049 14.8704 11.5046 14.773V8.26949C11.5049 8.17203 11.5438 8.07866 11.6127 8.00974C11.6817 7.94082 11.775 7.90195 11.8725 7.9016H13.2134C13.3109 7.90195 13.4043 7.94082 13.4732 8.00974C13.5421 8.07866 13.581 8.17203 13.5813 8.26949V14.773H13.5827Z" fill="#979797"/>
</svg>
