<svg width="24" height="24" viewBox="0 0 24 24" fill="none" xmlns="http://www.w3.org/2000/svg">
<g clip-path="url(#clip0_1654_6773)">
<path d="M17.999 1.99951C18.5295 1.99951 19.0382 2.21023 19.4132 2.5853C19.7883 2.96037 19.999 3.46908 19.999 3.99951V19.9995C19.999 20.5299 19.7883 21.0387 19.4132 21.4137C19.0382 21.7888 18.5295 21.9995 17.999 21.9995H5.99902C5.46859 21.9995 4.95988 21.7888 4.58481 21.4137C4.20974 21.0387 3.99902 20.5299 3.99902 19.9995V3.99951C3.99902 3.46908 4.20974 2.96037 4.58481 2.5853C4.95988 2.21023 5.46859 1.99951 5.99902 1.99951H17.999ZM11.999 12.9995H8.99902C8.73381 12.9995 8.47945 13.1049 8.29192 13.2924C8.10438 13.4799 7.99902 13.7343 7.99902 13.9995C7.99902 14.2647 8.10438 14.5191 8.29192 14.7066C8.47945 14.8942 8.73381 14.9995 8.99902 14.9995H11.999C12.2642 14.9995 12.5186 14.8942 12.7061 14.7066C12.8937 14.5191 12.999 14.2647 12.999 13.9995C12.999 13.7343 12.8937 13.4799 12.7061 13.2924C12.5186 13.1049 12.2642 12.9995 11.999 12.9995ZM14.999 7.99951H8.99902C8.74414 7.99979 8.49899 8.09739 8.31365 8.27236C8.12832 8.44733 8.01679 8.68646 8.00185 8.94091C7.98691 9.19535 8.0697 9.44589 8.23329 9.64134C8.39688 9.8368 8.62893 9.96241 8.88202 9.99251L8.99902 9.99951H14.999C15.2539 9.99923 15.4991 9.90163 15.6844 9.72666C15.8697 9.55169 15.9813 9.31256 15.9962 9.05812C16.0111 8.80368 15.9283 8.55313 15.7648 8.35768C15.6012 8.16223 15.3691 8.03662 15.116 8.00651L14.999 7.99951Z" fill="#797979"/>
</g>
<defs>
<clipPath id="clip0_1654_6773">
<rect width="24" height="24" fill="white"/>
</clipPath>
</defs>
</svg>
