<svg width="24" height="24" viewBox="0 0 24 24" fill="none" xmlns="http://www.w3.org/2000/svg">
<circle cx="12" cy="12" r="12" fill="#DEEBFF"/>
<mask id="mask0_4893_8387" style="mask-type:alpha" maskUnits="userSpaceOnUse" x="5" y="5" width="14" height="14">
<rect x="5" y="5" width="14" height="14" fill="#D9D9D9"/>
</mask>
<g mask="url(#mask0_4893_8387)">
<path d="M8.50016 17.8337C8.17933 17.8337 7.90468 17.7194 7.6762 17.491C7.44773 17.2625 7.3335 16.9878 7.3335 16.667V7.33366C7.3335 7.01283 7.44773 6.73817 7.6762 6.5097C7.90468 6.28123 8.17933 6.16699 8.50016 6.16699H13.1668L16.6668 9.66699V12.0003H15.5002V10.2503H12.5835V7.33366H8.50016V16.667H12.0002V17.8337H8.50016ZM15.6752 13.4732L16.3022 14.1003L14.0418 16.3462V16.9587H14.6543L16.9147 14.7128L17.5272 15.3253L15.0189 17.8337H13.1668V15.9816L15.6752 13.4732ZM17.5272 15.3253L15.6752 13.4732L16.521 12.6274C16.6279 12.5205 16.7641 12.467 16.9293 12.467C17.0946 12.467 17.2307 12.5205 17.3377 12.6274L18.3731 13.6628C18.48 13.7698 18.5335 13.9059 18.5335 14.0712C18.5335 14.2364 18.48 14.3725 18.3731 14.4795L17.5272 15.3253Z" fill="#979797"/>
</g>
</svg>
