<svg width="32" height="32" viewBox="0 0 32 32" fill="none" xmlns="http://www.w3.org/2000/svg">
<g id="apps">
<mask id="mask0_1226_5327" style="mask-type:alpha" maskUnits="userSpaceOnUse" x="0" y="0" width="32" height="32">
<rect id="Bounding box" width="32" height="32" fill="#D9D9D9"/>
</mask>
<g mask="url(#mask0_1226_5327)">
<path id="apps_2" d="M7.9987 26.6673C7.26536 26.6673 6.63759 26.4062 6.11536 25.884C5.59314 25.3618 5.33203 24.734 5.33203 24.0007C5.33203 23.2673 5.59314 22.6395 6.11536 22.1173C6.63759 21.5951 7.26536 21.334 7.9987 21.334C8.73203 21.334 9.35981 21.5951 9.88203 22.1173C10.4043 22.6395 10.6654 23.2673 10.6654 24.0007C10.6654 24.734 10.4043 25.3618 9.88203 25.884C9.35981 26.4062 8.73203 26.6673 7.9987 26.6673ZM15.9987 26.6673C15.2654 26.6673 14.6376 26.4062 14.1154 25.884C13.5931 25.3618 13.332 24.734 13.332 24.0007C13.332 23.2673 13.5931 22.6395 14.1154 22.1173C14.6376 21.5951 15.2654 21.334 15.9987 21.334C16.732 21.334 17.3598 21.5951 17.882 22.1173C18.4043 22.6395 18.6654 23.2673 18.6654 24.0007C18.6654 24.734 18.4043 25.3618 17.882 25.884C17.3598 26.4062 16.732 26.6673 15.9987 26.6673ZM23.9987 26.6673C23.2654 26.6673 22.6376 26.4062 22.1154 25.884C21.5931 25.3618 21.332 24.734 21.332 24.0007C21.332 23.2673 21.5931 22.6395 22.1154 22.1173C22.6376 21.5951 23.2654 21.334 23.9987 21.334C24.732 21.334 25.3598 21.5951 25.882 22.1173C26.4043 22.6395 26.6654 23.2673 26.6654 24.0007C26.6654 24.734 26.4043 25.3618 25.882 25.884C25.3598 26.4062 24.732 26.6673 23.9987 26.6673ZM7.9987 18.6673C7.26536 18.6673 6.63759 18.4062 6.11536 17.884C5.59314 17.3618 5.33203 16.734 5.33203 16.0007C5.33203 15.2673 5.59314 14.6395 6.11536 14.1173C6.63759 13.5951 7.26536 13.334 7.9987 13.334C8.73203 13.334 9.35981 13.5951 9.88203 14.1173C10.4043 14.6395 10.6654 15.2673 10.6654 16.0007C10.6654 16.734 10.4043 17.3618 9.88203 17.884C9.35981 18.4062 8.73203 18.6673 7.9987 18.6673ZM15.9987 18.6673C15.2654 18.6673 14.6376 18.4062 14.1154 17.884C13.5931 17.3618 13.332 16.734 13.332 16.0007C13.332 15.2673 13.5931 14.6395 14.1154 14.1173C14.6376 13.5951 15.2654 13.334 15.9987 13.334C16.732 13.334 17.3598 13.5951 17.882 14.1173C18.4043 14.6395 18.6654 15.2673 18.6654 16.0007C18.6654 16.734 18.4043 17.3618 17.882 17.884C17.3598 18.4062 16.732 18.6673 15.9987 18.6673ZM23.9987 18.6673C23.2654 18.6673 22.6376 18.4062 22.1154 17.884C21.5931 17.3618 21.332 16.734 21.332 16.0007C21.332 15.2673 21.5931 14.6395 22.1154 14.1173C22.6376 13.5951 23.2654 13.334 23.9987 13.334C24.732 13.334 25.3598 13.5951 25.882 14.1173C26.4043 14.6395 26.6654 15.2673 26.6654 16.0007C26.6654 16.734 26.4043 17.3618 25.882 17.884C25.3598 18.4062 24.732 18.6673 23.9987 18.6673ZM7.9987 10.6673C7.26536 10.6673 6.63759 10.4062 6.11536 9.88398C5.59314 9.36176 5.33203 8.73398 5.33203 8.00065C5.33203 7.26732 5.59314 6.63954 6.11536 6.11732C6.63759 5.5951 7.26536 5.33398 7.9987 5.33398C8.73203 5.33398 9.35981 5.5951 9.88203 6.11732C10.4043 6.63954 10.6654 7.26732 10.6654 8.00065C10.6654 8.73398 10.4043 9.36176 9.88203 9.88398C9.35981 10.4062 8.73203 10.6673 7.9987 10.6673ZM15.9987 10.6673C15.2654 10.6673 14.6376 10.4062 14.1154 9.88398C13.5931 9.36176 13.332 8.73398 13.332 8.00065C13.332 7.26732 13.5931 6.63954 14.1154 6.11732C14.6376 5.5951 15.2654 5.33398 15.9987 5.33398C16.732 5.33398 17.3598 5.5951 17.882 6.11732C18.4043 6.63954 18.6654 7.26732 18.6654 8.00065C18.6654 8.73398 18.4043 9.36176 17.882 9.88398C17.3598 10.4062 16.732 10.6673 15.9987 10.6673ZM23.9987 10.6673C23.2654 10.6673 22.6376 10.4062 22.1154 9.88398C21.5931 9.36176 21.332 8.73398 21.332 8.00065C21.332 7.26732 21.5931 6.63954 22.1154 6.11732C22.6376 5.5951 23.2654 5.33398 23.9987 5.33398C24.732 5.33398 25.3598 5.5951 25.882 6.11732C26.4043 6.63954 26.6654 7.26732 26.6654 8.00065C26.6654 8.73398 26.4043 9.36176 25.882 9.88398C25.3598 10.4062 24.732 10.6673 23.9987 10.6673Z" fill="#043365"/>
</g>
</g>
</svg>
