<svg width="24" height="18" viewBox="0 0 24 18" fill="none" xmlns="http://www.w3.org/2000/svg">
<g id="Group 1000003702">
<path id="Vector" d="M5.75546 3.9303L8.5927 3.90441L8.67902 13.3619L5.84177 13.3878M8.63588 8.63504L11.4731 8.60915M16.176 5.72874L16.2278 11.4032L11.499 11.4464L11.4472 5.7719L16.176 5.72874ZM5.81589 10.5524L5.86768 16.2269L1.13894 16.2701L1.08715 10.5956L5.81589 10.5524ZM5.72958 1.09495L5.78137 6.76944L1.05263 6.8126L1.00084 1.13811L5.72958 1.09495Z" stroke="#424242" stroke-linecap="round" stroke-linejoin="round"/>
<path id="Vector_2" d="M24 17.1632L19.5307 12.6938C20.6047 11.4045 21.1402 9.75068 21.026 8.07649C20.9117 6.40231 20.1564 4.83663 18.9171 3.70516C17.6778 2.5737 16.0501 1.96357 14.3724 2.00168C12.6948 2.0398 11.0964 2.72324 9.90983 3.90983C8.72324 5.09641 8.0398 6.69478 8.00168 8.37243C7.96357 10.0501 8.5737 11.6778 9.70516 12.9171C10.8366 14.1564 12.4023 14.9117 14.0765 15.026C15.7507 15.1402 17.4045 14.6047 18.6938 13.5307L23.1632 18L24 17.1632ZM9.20478 8.53106C9.20478 7.47762 9.51716 6.44784 10.1024 5.57194C10.6877 4.69604 11.5195 4.01335 12.4928 3.61022C13.466 3.20709 14.537 3.10161 15.5702 3.30712C16.6034 3.51264 17.5524 4.01992 18.2973 4.76481C19.0422 5.50971 19.5495 6.45876 19.755 7.49195C19.9605 8.52515 19.855 9.59609 19.4519 10.5693C19.0488 11.5426 18.3661 12.3744 17.4902 12.9597C16.6143 13.545 15.5845 13.8573 14.5311 13.8573C13.1189 13.8558 11.7651 13.2941 10.7665 12.2956C9.76801 11.297 9.20635 9.9432 9.20478 8.53106Z" fill="#424242"/>
</g>
</svg>
