<svg width="64" height="13" viewBox="0 0 64 13" fill="none" xmlns="http://www.w3.org/2000/svg">
<path d="M0.445188 0.799999H5.53319C6.74919 0.799999 7.82119 1.03467 8.74919 1.504C9.68786 1.96267 10.4132 2.61333 10.9252 3.456C11.4479 4.29867 11.7092 5.28 11.7092 6.4C11.7092 7.52 11.4479 8.50133 10.9252 9.344C10.4132 10.1867 9.68786 10.8427 8.74919 11.312C7.82119 11.7707 6.74919 12 5.53319 12H0.445188V0.799999ZM5.40519 9.872C6.52519 9.872 7.41585 9.56267 8.07719 8.944C8.74919 8.31467 9.08519 7.46667 9.08519 6.4C9.08519 5.33333 8.74919 4.49067 8.07719 3.872C7.41585 3.24267 6.52519 2.928 5.40519 2.928H3.03719V9.872H5.40519ZM16.9599 3.264C18.2933 3.264 19.3173 3.584 20.0319 4.224C20.7466 4.85333 21.1039 5.808 21.1039 7.088V12H18.7679V10.928C18.2986 11.728 17.4239 12.128 16.1439 12.128C15.4826 12.128 14.9066 12.016 14.4159 11.792C13.9359 11.568 13.5679 11.2587 13.3119 10.864C13.0559 10.4693 12.9279 10.0213 12.9279 9.52C12.9279 8.72 13.2266 8.09067 13.8239 7.632C14.4319 7.17333 15.3653 6.944 16.6239 6.944H18.6079C18.6079 6.4 18.4426 5.984 18.1119 5.696C17.7813 5.39733 17.2853 5.248 16.6239 5.248C16.1653 5.248 15.7119 5.32267 15.2639 5.472C14.8266 5.61067 14.4533 5.80267 14.1439 6.048L13.2479 4.304C13.7173 3.97333 14.2773 3.71733 14.9279 3.536C15.5893 3.35467 16.2666 3.264 16.9599 3.264ZM16.7679 10.448C17.1946 10.448 17.5733 10.352 17.9039 10.16C18.2346 9.95733 18.4693 9.664 18.6079 9.28V8.4H16.8959C15.8719 8.4 15.3599 8.736 15.3599 9.408C15.3599 9.728 15.4826 9.984 15.7279 10.176C15.9839 10.3573 16.3306 10.448 16.7679 10.448ZM28.9149 11.584C28.6696 11.7653 28.3656 11.904 28.0029 12C27.6509 12.0853 27.2776 12.128 26.8829 12.128C25.8589 12.128 25.0643 11.8667 24.4989 11.344C23.9443 10.8213 23.6669 10.0533 23.6669 9.04V5.504H22.3389V3.584H23.6669V1.488H26.1629V3.584H28.3069V5.504H26.1629V9.008C26.1629 9.37067 26.2536 9.65333 26.4349 9.856C26.6269 10.048 26.8936 10.144 27.2349 10.144C27.6296 10.144 27.9656 10.0373 28.2429 9.824L28.9149 11.584ZM33.7881 3.264C35.1214 3.264 36.1454 3.584 36.8601 4.224C37.5747 4.85333 37.9321 5.808 37.9321 7.088V12H35.5961V10.928C35.1267 11.728 34.2521 12.128 32.9721 12.128C32.3107 12.128 31.7347 12.016 31.2441 11.792C30.7641 11.568 30.3961 11.2587 30.1401 10.864C29.8841 10.4693 29.7561 10.0213 29.7561 9.52C29.7561 8.72 30.0547 8.09067 30.6521 7.632C31.2601 7.17333 32.1934 6.944 33.4521 6.944H35.4361C35.4361 6.4 35.2707 5.984 34.9401 5.696C34.6094 5.39733 34.1134 5.248 33.4521 5.248C32.9934 5.248 32.5401 5.32267 32.0921 5.472C31.6547 5.61067 31.2814 5.80267 30.9721 6.048L30.0761 4.304C30.5454 3.97333 31.1054 3.71733 31.7561 3.536C32.4174 3.35467 33.0947 3.264 33.7881 3.264ZM33.5961 10.448C34.0227 10.448 34.4014 10.352 34.7321 10.16C35.0627 9.95733 35.2974 9.664 35.4361 9.28V8.4H33.7241C32.7001 8.4 32.1881 8.736 32.1881 9.408C32.1881 9.728 32.3107 9.984 32.5561 10.176C32.8121 10.3573 33.1587 10.448 33.5961 10.448Z" fill="#EF4815"/>
<path d="M47.4231 12L44.7191 8.112L42.0631 12H39.0871L43.2311 6.304L39.2951 0.799999H42.2391L44.8151 4.432L47.3431 0.799999H50.1431L46.2391 6.208L50.4151 12H47.4231ZM59.5606 7.728C59.5606 7.76 59.5446 7.984 59.5126 8.4H53.0006C53.1179 8.93333 53.3952 9.35467 53.8326 9.664C54.2699 9.97333 54.8139 10.128 55.4646 10.128C55.9126 10.128 56.3072 10.064 56.6486 9.936C57.0006 9.79733 57.3259 9.584 57.6246 9.296L58.9526 10.736C58.1419 11.664 56.9579 12.128 55.4006 12.128C54.4299 12.128 53.5712 11.9413 52.8246 11.568C52.0779 11.184 51.5019 10.656 51.0966 9.984C50.6912 9.312 50.4886 8.54933 50.4886 7.696C50.4886 6.85333 50.6859 6.096 51.0806 5.424C51.4859 4.74133 52.0352 4.21333 52.7286 3.84C53.4326 3.456 54.2166 3.264 55.0806 3.264C55.9232 3.264 56.6859 3.44533 57.3686 3.808C58.0512 4.17067 58.5846 4.69333 58.9686 5.376C59.3632 6.048 59.5606 6.832 59.5606 7.728ZM55.0966 5.152C54.5312 5.152 54.0566 5.312 53.6726 5.632C53.2886 5.952 53.0539 6.38933 52.9686 6.944H57.2086C57.1232 6.4 56.8886 5.968 56.5046 5.648C56.1206 5.31733 55.6512 5.152 55.0966 5.152ZM61.2223 0.127999H63.7183V12H61.2223V0.127999Z" fill="#043365"/>
</svg>
