<svg width="664" height="77" viewBox="0 0 664 77" fill="none" xmlns="http://www.w3.org/2000/svg">
<path d="M5.66001 1.84999C3.81001 2.30999 2.17001 2.76999 0.76001 3.24999V14.65C2.17001 14.18 3.81001 13.71 5.66001 13.25C7.56001 12.78 9.81001 12.41 12.37 12.14V0.73999C9.81001 1.00999 7.56001 1.37999 5.66001 1.84999Z" fill="#1C3663"/>
<path d="M0.76001 75.22V24.01C2.17001 23.54 3.81001 23.07 5.66001 22.61C7.56001 22.14 9.81001 21.77 12.37 21.5V75.22H0.76001Z" fill="#EE4923"/>
<path d="M74.4 50.12C74.4 49.73 74.29 46.17 73.16 41.75C71.51 35.33 68.58 30.42 64.45 27.16C60.98 24.42 54.89 21.58 45.59 23.6C41.72 24.44 37.89 26.32 34.09 28.89V23.26C31.53 23.53 29.28 23.9 27.38 24.37C25.53 24.83 23.89 25.29 22.48 25.77V75.23H34.09V45.33C34.09 36.64 51.47 30.11 57.42 36.06C61.3 39.94 62.81 44.58 62.81 50.32V75.23H74.4V50.13V50.12Z" fill="#EE4923"/>
<path d="M113.01 76.18C112.26 76.18 111.48 76.16 110.67 76.13C109.88 76.09 109.06 76.04 108.24 75.97C104.8 75.63 101.46 74.77 98.34 73.43C95.24 72.1 92.49 70.24 90.17 67.92L90.15 67.9C87.75 65.57 85.81 62.78 84.37 59.61C82.95 56.47 82.23 53.02 82.23 49.36C82.23 45.7 82.95 42.26 84.37 39.12C85.81 35.95 87.75 33.16 90.15 30.82L90.17 30.8C92.5 28.47 95.25 26.62 98.35 25.28C101.48 23.93 104.81 23.08 108.25 22.74C109.08 22.67 109.9 22.62 110.69 22.58C111.49 22.55 112.28 22.53 113.02 22.53C115.71 22.53 118.19 22.69 120.38 22.99C121.83 23.19 123.15 23.41 124.34 23.63L121.73 34.88C120.88 34.72 119.96 34.57 118.96 34.42C117.16 34.16 115.16 34.03 113.01 34.03C112.41 34.03 111.78 34.05 111.14 34.09C110.51 34.13 109.89 34.18 109.3 34.26C107.04 34.42 104.93 34.94 103.04 35.81C101.15 36.68 99.51 37.76 98.16 39.03L98.12 39.07C96.75 40.44 95.69 41.98 94.95 43.64C94.21 45.33 93.83 47.25 93.83 49.35C93.83 51.45 94.21 53.37 94.95 55.03C95.68 56.66 96.74 58.17 98.11 59.54C99.47 60.9 101.13 62.03 103.03 62.91C104.92 63.78 107.03 64.3 109.29 64.46C109.88 64.53 110.5 64.59 111.13 64.63C111.75 64.67 112.38 64.69 113 64.69C115.16 64.69 117.16 64.56 118.95 64.3C119.95 64.15 120.88 64 121.72 63.84L124.33 75.09C123.15 75.31 121.82 75.52 120.37 75.73C118.18 76.04 115.7 76.19 113.01 76.19V76.18Z" fill="#EE4923"/>
<path d="M231.7 1.84999C229.85 2.30999 228.21 2.76999 226.8 3.24999V24.87L224.48 24.19C221.23 23.24 217.36 22.76 212.98 22.76C209.31 22.76 205.81 23.45 202.59 24.82C199.35 26.19 196.5 28.1 194.1 30.49C191.7 32.89 189.79 35.74 188.43 38.98C187.07 42.21 186.37 45.7 186.37 49.37V49.4C186.3 53.04 186.99 56.48 188.41 59.61C189.85 62.78 191.79 65.57 194.19 67.9L194.21 67.92C196.54 70.25 199.29 72.1 202.39 73.43C205.52 74.78 208.89 75.63 212.4 75.97C213.16 76.04 213.94 76.09 214.73 76.13C215.53 76.16 216.32 76.18 217.07 76.18C219.54 76.18 221.85 76.04 223.91 75.77C226.01 75.49 227.84 75.19 229.36 74.88C230.87 74.57 232.08 74.28 232.95 74.01C233.94 73.71 234.24 73.6 234.32 73.57L234.39 73.53L238.32 72.19V0.73999C235.82 1.00999 233.6 1.37999 231.72 1.84999H231.7ZM226.63 63.46L225.32 63.72C224.2 63.94 222.92 64.13 221.52 64.28C220.12 64.43 218.62 64.5 217.06 64.5C216.44 64.5 215.81 64.48 215.19 64.44C214.57 64.4 213.95 64.35 213.36 64.28C211.12 64.12 209.03 63.6 207.15 62.74C205.26 61.88 203.63 60.75 202.28 59.41C200.93 58.06 199.88 56.57 199.16 54.96C198.42 53.33 198.05 51.44 198.05 49.36C198.05 47.28 198.44 45.32 199.2 43.52C199.96 41.73 201.03 40.13 202.39 38.77C203.75 37.41 205.35 36.34 207.14 35.58C208.95 34.82 210.91 34.43 212.98 34.43C216.25 34.43 218.81 34.74 220.81 35.36C222.79 35.98 224.52 36.82 225.94 37.85L226.62 38.34V63.46H226.63Z" fill="#EE4923"/>
<path d="M297.88 39.03C296.51 35.82 294.63 32.97 292.3 30.57C289.97 28.18 287.16 26.26 283.92 24.86C280.7 23.46 277.2 22.76 273.54 22.76C269.88 22.76 266.4 23.45 263.21 24.81C260.01 26.18 257.17 28.09 254.77 30.48C252.37 32.88 250.44 35.74 249.04 38.98C247.64 42.2 246.94 45.7 246.94 49.36C246.94 53.02 247.63 56.51 248.99 59.69C250.36 62.89 252.26 65.73 254.66 68.13C257.06 70.53 259.91 72.46 263.11 73.86C266.3 75.25 269.77 75.96 273.43 75.96C277.09 75.96 280.56 75.25 283.75 73.86C286.96 72.46 289.8 70.53 292.2 68.13C294.6 65.73 296.51 62.89 297.87 59.69C299.23 56.5 299.92 53.02 299.92 49.36C299.92 45.7 299.23 42.22 297.87 39.03H297.88ZM287.11 55.2C286.35 57 285.28 58.6 283.92 59.95C282.56 61.31 280.96 62.38 279.17 63.14C277.37 63.9 275.44 64.29 273.44 64.29C271.44 64.29 269.41 63.9 267.65 63.14C265.89 62.38 264.32 61.31 262.96 59.95C261.6 58.59 260.53 56.99 259.77 55.2C259.01 53.4 258.62 51.44 258.62 49.37C258.62 47.3 259.03 45.32 259.83 43.51C260.62 41.74 261.68 40.15 262.99 38.8C264.32 37.43 265.9 36.35 267.71 35.59C269.52 34.83 271.48 34.44 273.55 34.44C275.62 34.44 277.47 34.83 279.28 35.59C281.08 36.35 282.66 37.41 283.98 38.73C285.3 40.05 286.36 41.66 287.12 43.49C287.88 45.33 288.26 47.31 288.26 49.37C288.26 51.43 287.87 53.4 287.11 55.2Z" fill="#EE4923"/>
<path d="M176.87 37.39C175.74 34.83 174.18 32.45 172.25 30.31C170.34 28.2 167.94 26.43 165.12 25.03C162.34 23.65 159.18 22.89 155.75 22.75H154.71C151.06 22.75 147.61 23.47 144.47 24.89C141.3 26.33 138.53 28.27 136.24 30.66C133.94 33.06 132.1 35.9 130.76 39.11C129.43 42.3 128.75 45.75 128.75 49.35V49.38C128.68 53.02 129.37 56.46 130.79 59.59C132.23 62.76 134.17 65.55 136.57 67.88L136.59 67.9C138.92 70.23 141.67 72.08 144.76 73.41C147.89 74.76 151.26 75.61 154.77 75.95C155.52 76.02 156.31 76.07 157.1 76.11C157.9 76.14 158.69 76.16 159.44 76.16C162.05 76.16 164.37 76.02 166.32 75.75C167.82 75.54 169.44 75.25 171.15 74.88L168.86 63.59C167.44 63.86 166.12 64.09 164.91 64.27C163.16 64.53 161.32 64.67 159.44 64.67C158.81 64.67 158.18 64.65 157.57 64.61C156.94 64.57 156.33 64.49 155.73 64.44C153.18 64.24 151.41 64.05 149.26 63.23C147.34 62.49 145.73 61.05 144.45 59.62C143.47 58.53 143.23 57.89 142.52 56.41C142.15 55.64 141.65 54.31 141.65 53.11H177.06C177.24 52.69 177.39 52.23 177.53 51.74V51.7L177.55 51.66C177.81 50.88 178.04 49.94 178.24 48.89C178.43 47.86 178.53 46.68 178.53 45.36C178.53 42.56 177.97 39.86 176.86 37.35L176.87 37.39ZM141.66 45.09C142.42 38.82 147.76 33.95 154.24 33.95C160.72 33.95 166.06 38.81 166.82 45.09H141.66Z" fill="#EE4923"/>
<path d="M319.36 12.1H347.72C368.76 12.1 383.12 25.07 383.12 44.53C383.12 63.99 368.76 76.96 347.72 76.96H319.36V12.09V12.1ZM347.16 66.78C361.62 66.78 370.98 57.98 370.98 44.54C370.98 31.1 361.62 22.3 347.16 22.3H331.41V66.78H347.16Z" fill="#1C3663"/>
<path d="M478.14 72.87C475.21 75.21 470.82 76.39 466.42 76.39C454.99 76.39 448.45 70.34 448.45 58.81V33.71H439.86V23.94H448.45V11.21H460.66V23.94H474.62V33.71H460.66V58.51C460.66 63.59 463.2 66.32 467.89 66.32C470.43 66.32 472.87 65.64 474.73 64.17L478.15 72.86L478.14 72.87Z" fill="#1C3663"/>
<path d="M411.41 23.35C403 23.35 394.9 25.51 389.32 29.81C391.71 33.23 394.34 35.78 396.11 37.29C399.92 34.92 405.01 33.51 409.95 33.51C418.64 33.51 422.96 37.73 422.96 44.85V45.62H409.46C393.62 45.62 387.75 52.46 387.75 61.18C387.75 69.9 395.29 76.82 407.22 76.82C415.04 76.82 420.72 74.27 423.66 69.77V76.12H435.21V45.54C435.18 30.49 426.46 23.34 411.42 23.34L411.41 23.35ZM422.96 59.85C420.9 65.23 415.73 67.98 409.77 67.98C403.81 67.98 399.79 65.15 399.79 60.75C399.79 56.94 402.05 53.81 410.36 53.81H422.99L422.96 59.85Z" fill="#1C3663"/>
<path d="M503.69 23.35C495.28 23.35 487.18 25.51 481.6 29.81C483.99 33.23 486.62 35.78 488.39 37.29C492.2 34.92 497.29 33.51 502.23 33.51C510.92 33.51 515.24 37.73 515.24 44.85V45.62H501.74C485.9 45.62 480.03 52.46 480.03 61.18C480.03 69.9 487.57 76.82 499.5 76.82C507.32 76.82 513 74.27 515.94 69.77V76.12H527.49V45.54C527.46 30.49 518.74 23.34 503.7 23.34L503.69 23.35ZM515.23 59.85C513.17 65.23 508 67.98 502.04 67.98C496.08 67.98 492.06 65.15 492.06 60.75C492.06 56.94 494.32 53.81 502.63 53.81H515.26L515.23 59.85Z" fill="#1C3663"/>
<path d="M641.6 37.39C640.47 34.83 638.91 32.45 636.98 30.31C635.07 28.2 632.67 26.43 629.85 25.03C627.07 23.65 623.91 22.89 620.48 22.75H619.44C615.79 22.75 612.34 23.47 609.2 24.89C606.03 26.33 603.26 28.27 600.97 30.66C598.67 33.06 596.83 35.9 595.49 39.11C594.16 42.3 593.48 45.75 593.48 49.35V49.38C593.41 53.02 594.1 56.46 595.52 59.59C596.96 62.76 598.9 65.55 601.3 67.88L601.32 67.9C603.65 70.23 606.4 72.08 609.49 73.41C612.62 74.76 615.99 75.61 619.5 75.95C620.25 76.02 621.04 76.07 621.83 76.11C622.63 76.14 623.42 76.16 624.17 76.16C626.78 76.16 629.1 76.02 631.05 75.75C632.55 75.54 634.17 75.25 635.88 74.88L633.59 63.59C632.17 63.86 630.85 64.09 629.64 64.27C627.89 64.53 626.05 64.67 624.17 64.67C623.54 64.67 622.91 64.65 622.3 64.61C621.67 64.57 621.06 64.49 620.46 64.44C617.91 64.24 616.14 64.05 613.99 63.23C612.07 62.49 610.46 61.05 609.18 59.62C608.2 58.53 607.96 57.89 607.25 56.41C606.88 55.64 606.38 54.31 606.38 53.11H641.79C641.97 52.69 642.12 52.23 642.26 51.74V51.7L642.28 51.66C642.54 50.88 642.77 49.94 642.97 48.89C643.16 47.86 643.26 46.68 643.26 45.36C643.26 42.56 642.7 39.86 641.59 37.35L641.6 37.39ZM606.39 45.09C607.15 38.82 612.49 33.95 618.97 33.95C625.45 33.95 630.79 38.81 631.55 45.09H606.39Z" fill="#1C3663"/>
<path d="M583.28 76.54L565.57 51.75L548.05 76.54H534.26L558.49 43.27L535.57 11.31H549.27L565.95 34.51L582.44 11.31H595.58L572.75 42.81L597.26 76.54H583.28Z" fill="#1C3663"/>
<path fill-rule="evenodd" clip-rule="evenodd" d="M652.21 76.67V14.56C653.56 13.99 655.14 13.42 656.91 12.87C658.73 12.3 660.89 11.85 663.35 11.52V76.68H652.2L652.21 76.67Z" fill="#1C3663"/>
</svg>
