<svg width="64" height="64" viewBox="0 0 64 64" fill="none" xmlns="http://www.w3.org/2000/svg">
<path d="M44 8.00003L52 16.0001V56H12V8L44 8.00003Z" fill="#E9EAEE"/>
<path d="M52 24L45 16H52V24Z" fill="#D3D6DD"/>
<path d="M45 16V8L52 16H45Z" fill="#A7ADBB"/>
<rect x="12" y="40" width="40" height="16" fill="#A066AA"/>
<path d="M26.936 51L25.792 49.28L24.784 51H23.232L25.032 48.144L23.192 45.384H24.784L25.912 47.08L26.904 45.384H28.456L26.672 48.216L28.528 51H26.936ZM35.3108 46.488C35.8654 46.488 36.3054 46.656 36.6308 46.992C36.9614 47.328 37.1268 47.7947 37.1268 48.392V51H35.7668V48.576C35.7668 48.288 35.6894 48.0667 35.5348 47.912C35.3854 47.752 35.1774 47.672 34.9108 47.672C34.6441 47.672 34.4334 47.752 34.2788 47.912C34.1294 48.0667 34.0548 48.288 34.0548 48.576V51H32.6948V48.576C32.6948 48.288 32.6174 48.0667 32.4628 47.912C32.3134 47.752 32.1054 47.672 31.8388 47.672C31.5721 47.672 31.3614 47.752 31.2068 47.912C31.0574 48.0667 30.9828 48.288 30.9828 48.576V51H29.6148V46.536H30.9828V47.096C31.1214 46.9093 31.3028 46.7627 31.5268 46.656C31.7508 46.544 32.0041 46.488 32.2868 46.488C32.6228 46.488 32.9214 46.56 33.1828 46.704C33.4494 46.848 33.6574 47.0533 33.8068 47.32C33.9614 47.0747 34.1721 46.8747 34.4388 46.72C34.7054 46.5653 34.9961 46.488 35.3108 46.488ZM39.8515 45.08V51H38.4835V45.08H39.8515Z" fill="white"/>
</svg>
