<svg width="16" height="16" viewBox="0 0 16 16" fill="none" xmlns="http://www.w3.org/2000/svg">
<mask id="mask0_1221_4718" style="mask-type:alpha" maskUnits="userSpaceOnUse" x="2" y="2" width="14" height="14">
<rect x="2.75781" y="2.2207" width="13.2416" height="13.327" fill="#D9D9D9"/>
</mask>
<g mask="url(#mask0_1221_4718)">
<path d="M5.51753 13.882C5.21408 13.882 4.9543 13.7733 4.73821 13.5558C4.52211 13.3383 4.41406 13.0768 4.41406 12.7714V4.99731C4.41406 4.69189 4.52211 4.43044 4.73821 4.21295C4.9543 3.99546 5.21408 3.88672 5.51753 3.88672H11.0349L14.3453 7.21848V12.7714C14.3453 13.0768 14.2372 13.3383 14.0211 13.5558C13.805 13.7733 13.5453 13.882 13.2418 13.882H5.51753ZM6.621 11.6608H12.1383V10.5502H6.621V11.6608ZM6.621 9.43965H12.1383V8.32906H6.621V9.43965ZM6.621 7.21848H10.4831V6.10789H6.621V7.21848Z" fill="#043365"/>
</g>
<mask id="mask1_1221_4718" style="mask-type:alpha" maskUnits="userSpaceOnUse" x="0" y="0" width="8" height="8">
<rect width="7.72427" height="7.77411" fill="#D9D9D9"/>
</mask>
<g mask="url(#mask1_1221_4718)">
<path d="M3.52588 5.03757L5.34431 3.20741L4.88568 2.74583L3.52588 4.11439L2.85001 3.43416L2.39138 3.89575L3.52588 5.03757ZM3.86382 7.12686C3.11821 6.9379 2.50269 6.50736 2.01724 5.83522C1.53179 5.16309 1.28906 4.41672 1.28906 3.59612V1.6202L3.86382 0.648438L6.43858 1.6202V3.59612C6.43858 4.41672 6.19585 5.16309 5.7104 5.83522C5.22495 6.50736 4.60943 6.9379 3.86382 7.12686Z" fill="#043365"/>
</g>
</svg>
