<svg width="14" height="14" viewBox="0 0 14 14" fill="none" xmlns="http://www.w3.org/2000/svg">
<g id="Group 1000003590">
<g id="Group 1000003594">
<g id="Group">
<path id="Vector" d="M2.51616 0.6875L0.328125 2.86044H2.51616V0.6875Z" fill="#043365"/>
<path id="Vector_2" d="M6.85614 7.10506C7.71084 6.25626 8.80485 5.81488 10.0014 5.81488C10.1382 5.81488 10.2749 5.81488 10.3775 5.81488V1.84247C10.3775 1.09552 9.76212 0.484375 9.00998 0.484375H3.19802V3.20056C3.19802 3.37032 3.02708 3.54008 2.85614 3.54008H0.121094V12.3677C0.121094 13.1146 0.736478 13.7258 1.48862 13.7258H7.26639C7.12964 13.6239 6.99289 13.4881 6.85614 13.3523C5.11255 11.6547 5.11255 8.83663 6.85614 7.10506ZM2.17238 4.89817H7.30058C7.47152 4.89817 7.64246 5.06793 7.64246 5.23769C7.64246 5.40745 7.47152 5.57721 7.30058 5.57721H2.17238C2.00144 5.57721 1.8305 5.40745 1.8305 5.23769C1.8305 5.06793 2.00144 4.89817 2.17238 4.89817ZM4.90742 11.6886H2.17238C2.00144 11.6886 1.8305 11.5189 1.8305 11.3491C1.8305 11.1793 2.00144 11.0096 2.17238 11.0096H4.90742C5.07836 11.0096 5.2493 11.1793 5.2493 11.3491C5.2493 11.5189 5.11255 11.6886 4.90742 11.6886ZM4.90742 9.65148H2.17238C2.00144 9.65148 1.8305 9.48172 1.8305 9.31196C1.8305 9.1422 2.00144 8.97244 2.17238 8.97244H4.90742C5.07836 8.97244 5.2493 9.1422 5.2493 9.31196C5.2493 9.48172 5.11255 9.65148 4.90742 9.65148ZM4.90742 7.61435H2.17238C2.00144 7.61435 1.8305 7.44459 1.8305 7.27483C1.8305 7.10506 2.00144 6.9353 2.17238 6.9353H4.90742C5.07836 6.9353 5.2493 7.10506 5.2493 7.27483C5.2493 7.44459 5.11255 7.61435 4.90742 7.61435Z" fill="#043365"/>
</g>
<g id="Group 1000003589">
<path id="Vector_3" d="M8.00781 9.60307V10.4711C8.00781 10.4996 8.01343 10.5278 8.02434 10.5542C8.03526 10.5805 8.05126 10.6044 8.07143 10.6246C8.0916 10.6447 8.11554 10.6607 8.14189 10.6716C8.16825 10.6825 8.19649 10.6881 8.22501 10.6881H8.38952L8.2732 10.8043C8.25303 10.8245 8.23703 10.8484 8.22612 10.8747C8.2152 10.9011 8.20958 10.9293 8.20958 10.9578C8.20958 10.9863 8.2152 11.0145 8.22612 11.0408C8.23703 11.0672 8.25303 11.0911 8.2732 11.1112L8.88755 11.725C8.90772 11.7452 8.93166 11.7612 8.95801 11.7721C8.98437 11.783 9.01261 11.7886 9.04113 11.7886C9.06966 11.7886 9.0979 11.783 9.12426 11.7721C9.15061 11.7612 9.17456 11.7452 9.19472 11.725L9.31103 11.6088V11.7732C9.31103 11.8017 9.31664 11.8299 9.32756 11.8562C9.33847 11.8826 9.35447 11.9065 9.37464 11.9266C9.39481 11.9468 9.41876 11.9628 9.44511 11.9737C9.47146 11.9846 9.49971 11.9902 9.52823 11.9902H10.397C10.4256 11.9902 10.4538 11.9846 10.4802 11.9737C10.5065 11.9628 10.5305 11.9468 10.5506 11.9266C10.5708 11.9065 10.5868 11.8826 10.5977 11.8562C10.6086 11.8299 10.6142 11.8017 10.6142 11.7732V11.6088L10.7306 11.725C10.7713 11.7657 10.8265 11.7886 10.8841 11.7886C10.9417 11.7886 10.997 11.7657 11.0377 11.725L11.6521 11.1112C11.6722 11.0911 11.6882 11.0672 11.6992 11.0408C11.7101 11.0145 11.7157 10.9863 11.7157 10.9578C11.7157 10.9293 11.7101 10.9011 11.6992 10.8747C11.6882 10.8484 11.6722 10.8245 11.6521 10.8043L11.5357 10.6881H11.7003C11.7288 10.6881 11.757 10.6825 11.7834 10.6716C11.8097 10.6607 11.8337 10.6447 11.8538 10.6246C11.874 10.6044 11.89 10.5805 11.9009 10.5542C11.9118 10.5278 11.9175 10.4996 11.9175 10.4711V9.60307C11.9175 9.57457 11.9118 9.54635 11.9009 9.52002C11.89 9.49369 11.874 9.46977 11.8538 9.44961C11.8337 9.42946 11.8097 9.41348 11.7834 9.40257C11.757 9.39167 11.7288 9.38605 11.7003 9.38606H11.5357L11.6521 9.26983C11.6722 9.24968 11.6882 9.22575 11.6991 9.19943C11.7101 9.1731 11.7157 9.14488 11.7157 9.11638C11.7157 9.08788 11.7101 9.05966 11.6991 9.03333C11.6882 9.00701 11.6722 8.98308 11.6521 8.96293L11.0377 8.34914C11.0176 8.32899 10.9936 8.313 10.9673 8.30209C10.9409 8.29119 10.9127 8.28557 10.8841 8.28557C10.8556 8.28557 10.8274 8.29119 10.801 8.30209C10.7747 8.313 10.7507 8.32899 10.7306 8.34914L10.6142 8.46536V8.301C10.6142 8.2725 10.6086 8.24428 10.5977 8.21795C10.5868 8.19162 10.5708 8.1677 10.5506 8.14754C10.5305 8.12739 10.5065 8.11141 10.4802 8.1005C10.4538 8.0896 10.4256 8.08398 10.397 8.08398H9.52823C9.49971 8.08398 9.47146 8.0896 9.44511 8.1005C9.41876 8.11141 9.39481 8.12739 9.37464 8.14754C9.35447 8.1677 9.33847 8.19162 9.32756 8.21795C9.31664 8.24428 9.31103 8.2725 9.31103 8.301V8.46536L9.19471 8.34914C9.17454 8.32899 9.1506 8.313 9.12425 8.3021C9.0979 8.29119 9.06965 8.28558 9.04113 8.28558C9.0126 8.28558 8.98436 8.29119 8.95801 8.3021C8.93166 8.313 8.90771 8.32899 8.88755 8.34914L8.2732 8.96293C8.25303 8.98308 8.23704 9.00701 8.22612 9.03334C8.2152 9.05966 8.20959 9.08788 8.20959 9.11638C8.20959 9.14488 8.2152 9.1731 8.22612 9.19943C8.23704 9.22576 8.25303 9.24968 8.2732 9.26983L8.38952 9.38606H8.22501C8.19649 9.38605 8.16825 9.39167 8.14189 9.40257C8.11554 9.41348 8.0916 9.42946 8.07143 9.44961C8.05126 9.46977 8.03526 9.49369 8.02434 9.52002C8.01343 9.54635 8.00781 9.57457 8.00781 9.60307ZM8.44222 9.82008H8.73467C8.77957 9.82008 8.82338 9.80617 8.86005 9.78027C8.89672 9.75437 8.92445 9.71775 8.93943 9.67545C8.95208 9.63955 8.96663 9.60434 8.98301 9.56998C9.0024 9.52948 9.00873 9.48396 9.00114 9.43971C8.99356 9.39546 8.97242 9.35465 8.94064 9.3229L8.73395 9.11638L9.04113 8.80949L9.24782 9.01599C9.27959 9.04774 9.32044 9.06886 9.36473 9.07645C9.40902 9.08403 9.45458 9.0777 9.49512 9.05833C9.52951 9.04196 9.56475 9.02743 9.60068 9.01479C9.64302 8.99982 9.67967 8.97211 9.70559 8.93547C9.73151 8.89883 9.74543 8.85507 9.74543 8.8102V8.51801H10.1798V8.8102C10.1798 8.85507 10.1938 8.89883 10.2197 8.93547C10.2456 8.97211 10.2823 8.99982 10.3246 9.01479C10.3605 9.02743 10.3958 9.04196 10.4302 9.05833C10.4707 9.07769 10.5162 9.08402 10.5605 9.07644C10.6048 9.06886 10.6457 9.04774 10.6775 9.01599L10.8841 8.80949L11.1913 9.11638L10.9846 9.3229C10.9529 9.35465 10.9317 9.39546 10.9241 9.43971C10.9165 9.48396 10.9229 9.52948 10.9423 9.56998C10.9586 9.60434 10.9732 9.63955 10.9858 9.67545C11.0008 9.71775 11.0286 9.75437 11.0652 9.78027C11.1019 9.80617 11.1457 9.82008 11.1906 9.82008H11.4831V10.2541H11.1906C11.1457 10.2541 11.1019 10.268 11.0652 10.2939C11.0286 10.3198 11.0008 10.3564 10.9858 10.3987C10.9732 10.4346 10.9586 10.4698 10.9423 10.5042C10.9229 10.5447 10.9165 10.5902 10.9241 10.6345C10.9317 10.6787 10.9529 10.7195 10.9846 10.7513L11.1913 10.9578L10.8841 11.2647L10.6774 11.0582C10.6457 11.0264 10.6048 11.0053 10.5605 10.9977C10.5162 10.9902 10.4707 10.9965 10.4302 11.0159C10.3958 11.0322 10.3605 11.0468 10.3246 11.0594C10.2823 11.0744 10.2456 11.1021 10.2197 11.1387C10.1938 11.1753 10.1798 11.2191 10.1798 11.264V11.5562H9.74543V11.264C9.74543 11.2191 9.73151 11.1753 9.70559 11.1387C9.67967 11.1021 9.64301 11.0744 9.60068 11.0594C9.56475 11.0468 9.52951 11.0322 9.49511 11.0159C9.45457 10.9965 9.40902 10.9902 9.36473 10.9977C9.32044 11.0053 9.2796 11.0264 9.24782 11.0582L9.04113 11.2647L8.73395 10.9578L8.94064 10.7513C8.97242 10.7195 8.99355 10.6787 9.00114 10.6345C9.00873 10.5902 9.0024 10.5447 8.98301 10.5042C8.96663 10.4698 8.95208 10.4346 8.93943 10.3987C8.92445 10.3564 8.89672 10.3198 8.86005 10.2939C8.82338 10.268 8.77957 10.2541 8.73467 10.2541H8.44222V9.82008Z" fill="#043365"/>
<path id="Vector_4" d="M9.95634 10.6947C10.0852 10.6947 10.2112 10.6565 10.3184 10.585C10.4255 10.5134 10.509 10.4118 10.5584 10.2928C10.6077 10.1738 10.6206 10.0429 10.5954 9.91663C10.5703 9.79033 10.5082 9.67433 10.4171 9.58327C10.326 9.49222 10.2099 9.43021 10.0835 9.40509C9.95705 9.37997 9.82603 9.39286 9.70696 9.44214C9.58789 9.49141 9.48612 9.57486 9.41451 9.68193C9.34291 9.78899 9.30469 9.91487 9.30469 10.0436C9.30488 10.2163 9.3736 10.3817 9.49576 10.5038C9.61793 10.6259 9.78357 10.6945 9.95634 10.6947ZM9.95634 9.8266C9.9993 9.8266 10.0413 9.83933 10.077 9.86318C10.1127 9.88703 10.1406 9.92093 10.157 9.96059C10.1735 10.0003 10.1778 10.0439 10.1694 10.086C10.161 10.1281 10.1403 10.1668 10.1099 10.1971C10.0796 10.2275 10.0408 10.2481 9.9987 10.2565C9.95656 10.2649 9.91289 10.2606 9.87319 10.2442C9.8335 10.2277 9.79957 10.1999 9.7757 10.1642C9.75183 10.1285 9.73909 10.0866 9.73909 10.0436C9.73916 9.9861 9.76207 9.93093 9.8028 9.89024C9.84352 9.84955 9.89874 9.82666 9.95634 9.8266Z" fill="#043365"/>
<path id="Vector_5" d="M9.96395 7C9.36329 6.99897 8.77584 7.17608 8.27601 7.50891C7.77618 7.84173 7.38647 8.31529 7.15625 8.86959L7.55719 9.03664C7.78597 8.48817 8.19556 8.03435 8.71801 7.75048C9.24046 7.46661 9.84435 7.36976 10.4295 7.476C11.0146 7.58223 11.5458 7.88516 11.9349 8.33453C12.324 8.7839 12.5476 9.35268 12.5686 9.9465L12.2896 9.66771L11.9824 9.97461L12.634 10.6256C12.6542 10.6458 12.6781 10.6618 12.7045 10.6727C12.7308 10.6836 12.7591 10.6892 12.7876 10.6892C12.8161 10.6892 12.8443 10.6836 12.8707 10.6727C12.897 10.6618 12.921 10.6458 12.9412 10.6256L13.5928 9.97461L13.2856 9.66771L13.0034 9.94967C12.9795 9.15987 12.6488 8.41038 12.0816 7.85984C11.5143 7.3093 10.7548 7.00093 9.96395 7Z" fill="#043365"/>
<path id="Vector_6" d="M6.9381 10.3303C7.00136 10.9824 7.27387 11.5966 7.715 12.0813C8.15612 12.566 8.74224 12.8953 9.38596 13.0201C10.0297 13.1449 10.6965 13.0584 11.2871 12.7737C11.8776 12.4889 12.3602 12.0211 12.6629 11.4399L12.2777 11.2393C12.0213 11.7316 11.6142 12.1293 11.1157 12.3742C10.6172 12.6192 10.0535 12.6987 9.50665 12.6011C8.9598 12.5035 8.45846 12.2339 8.07571 11.8317C7.69296 11.4294 7.44882 10.9155 7.37887 10.365L7.63915 10.625L7.94632 10.3181L7.29471 9.66707C7.25398 9.62638 7.19873 9.60352 7.14113 9.60352C7.08352 9.60352 7.02828 9.62638 6.98754 9.66707L6.33594 10.3181L6.6431 10.625L6.9381 10.3303Z" fill="#043365"/>
</g>
</g>
</g>
</svg>
