<svg width="16" height="16" viewBox="0 0 16 16" fill="none" xmlns="http://www.w3.org/2000/svg">
<g id="noun-lego-5568709 1" clip-path="url(#clip0_1291_4655)">
<g id="Group">
<g id="Group_2">
<g id="Group_3">
<path id="Vector" d="M9.66318 5.50368H15.399C15.5658 5.50368 15.7009 5.36681 15.7009 5.19797V2.14089C15.7009 1.97208 15.5658 1.83518 15.399 1.83518H15.0971V0.612349C15.0971 0.443506 14.962 0.306641 14.7953 0.306641H12.682C12.5153 0.306641 12.3802 0.443506 12.3802 0.612349V1.83518H11.7764V0.612349C11.7764 0.443506 11.6412 0.306641 11.4745 0.306641H9.36129C9.19456 0.306641 9.0594 0.443506 9.0594 0.612349V1.83518H8.45563V0.612349C8.45563 0.443506 8.32048 0.306641 8.15374 0.306641H6.04054C5.8738 0.306641 5.73865 0.443506 5.73865 0.612349V1.83518H5.43676C5.27003 1.83518 5.13488 1.97208 5.13488 2.14089V4.89226H4.51752V3.66943C4.51752 3.50062 4.38236 3.36372 4.21563 3.36372H2.11601C1.94928 3.36372 1.81412 3.50062 1.81412 3.66943C1.81412 4.26153 1.81412 7.96848 1.81412 8.56076C1.81412 8.72957 1.94928 8.86647 2.11601 8.86647H8.45563V11.6178H7.54997V10.395C7.54997 10.2262 7.41482 10.0893 7.24808 10.0893H5.13488C4.96814 10.0893 4.83299 10.2262 4.83299 10.395V11.6178H3.92733V10.395C3.92733 10.2262 3.79217 10.0893 3.62544 10.0893H1.51223C1.3455 10.0893 1.21035 10.2262 1.21035 10.395V11.6178H0.606574C0.439842 11.6178 0.304688 11.7547 0.304688 11.9235V15.592C0.304688 15.7609 0.439842 15.8978 0.606574 15.8978H3.6185C3.78523 15.8978 3.92039 15.7609 3.92039 15.592C3.92039 15.4232 3.78523 15.2863 3.6185 15.2863H0.908461V12.2293C5.07513 12.2293 8.32023 12.2293 12.0783 12.2293V15.2863H6.03359C5.86686 15.2863 5.73171 15.4232 5.73171 15.592C5.73171 15.7609 5.86686 15.8978 6.03359 15.8978H15.399C15.5658 15.8978 15.7009 15.7609 15.7009 15.592C15.7009 15.2776 15.7009 8.86411 15.7009 8.56076C15.7009 8.39195 15.5658 8.25505 15.399 8.25505H15.0971V7.03222C15.0971 6.86338 14.962 6.72651 14.7953 6.72651H12.682C12.5153 6.72651 12.3802 6.86338 12.3802 7.03222V8.25505H9.66291L9.66318 5.50368ZM3.32356 11.6178H1.81412V10.7007H3.32356V11.6178ZM6.9462 11.6178H5.43676V10.7007H6.9462V11.6178ZM12.9839 0.918057H14.4934V1.83518H12.9839V0.918057ZM9.66318 0.918057H11.1726V1.83518H9.66318V0.918057ZM6.34242 0.918057H7.85186V1.83518H6.34242V0.918057ZM5.73865 2.4466C6.8866 2.4466 13.9492 2.4466 15.0971 2.4466V4.89226H5.73865V2.4466ZM2.41789 3.97514H3.91374V4.89226H2.41789V3.97514ZM12.682 15.2863V12.2293H15.0971V15.2863H12.682ZM12.9839 7.33793H14.4934V8.25505H12.9839V7.33793ZM15.0971 8.86647V11.6178H9.0594V8.86647C9.33309 8.86647 14.8695 8.86647 15.0971 8.86647ZM2.41789 8.25505V5.50368C3.11939 5.50368 8.27595 5.50368 9.0594 5.50368V8.25505C8.68259 8.25505 2.67709 8.25505 2.41789 8.25505Z" fill="#043365"/>
</g>
</g>
</g>
<rect id="Rectangle 3421" x="5.5" y="2" width="10" height="3" fill="#043365"/>
<rect id="Rectangle 3422" x="9" y="8.5" width="6.5" height="3.5" fill="#043365"/>
<rect id="Rectangle 3424" x="5" y="5" width="4.5" height="3.5" fill="#043365"/>
<rect id="Rectangle 3423" x="0.5" y="12" width="8.5" height="3.5" fill="#043365"/>
<rect id="Rectangle 3425" x="2" y="15.5" width="5" height="0.4" fill="#043365"/>
</g>
<defs>
<clipPath id="clip0_1291_4655">
<rect width="16" height="16" fill="white"/>
</clipPath>
</defs>
</svg>
