<svg width="43" height="43" viewBox="0 0 43 43" fill="none" xmlns="http://www.w3.org/2000/svg">
<mask id="mask0_2249_23657" style="mask-type:alpha" maskUnits="userSpaceOnUse" x="0" y="0" width="43" height="43">
<rect width="43" height="43" fill="#D9D9D9"/>
</mask>
<g mask="url(#mask0_2249_23657)">
<path d="M11.6432 35.8327C8.92587 35.8327 6.60417 34.8921 4.67813 33.0108C2.75208 31.1296 1.78906 28.8303 1.78906 26.1129C1.78906 23.7837 2.4908 21.7084 3.89427 19.8868C5.29774 18.0653 7.1342 16.9007 9.40365 16.3931C10.1502 13.6459 11.6432 11.4212 13.8828 9.71914C16.1224 8.01706 18.6606 7.16602 21.4974 7.16602C24.9911 7.16602 27.9549 8.38286 30.3885 10.8165C32.8222 13.2502 34.0391 16.2139 34.0391 19.7077C36.0995 19.9466 37.809 20.8349 39.1677 22.3728C40.5264 23.9106 41.2057 25.7098 41.2057 27.7702C41.2057 30.0098 40.4219 31.9134 38.8542 33.4811C37.2865 35.0488 35.3828 35.8327 33.1432 35.8327H23.2891C22.3036 35.8327 21.4601 35.4818 20.7583 34.7801C20.0566 34.0783 19.7057 33.2348 19.7057 32.2493V23.0223L16.8391 25.7993L14.3307 23.291L21.4974 16.1243L28.6641 23.291L26.1557 25.7993L23.2891 23.0223V32.2493H33.1432C34.3974 32.2493 35.4575 31.8164 36.3234 30.9504C37.1894 30.0844 37.6224 29.0243 37.6224 27.7702C37.6224 26.516 37.1894 25.4559 36.3234 24.59C35.4575 23.724 34.3974 23.291 33.1432 23.291H30.4557V19.7077C30.4557 17.2292 29.5823 15.1165 27.8354 13.3697C26.0885 11.6228 23.9759 10.7493 21.4974 10.7493C19.0189 10.7493 16.9063 11.6228 15.1594 13.3697C13.4125 15.1165 12.5391 17.2292 12.5391 19.7077H11.6432C9.91129 19.7077 8.43316 20.3198 7.20885 21.5441C5.98455 22.7684 5.3724 24.2466 5.3724 25.9785C5.3724 27.7105 5.98455 29.1886 7.20885 30.4129C8.43316 31.6372 9.91129 32.2493 11.6432 32.2493H16.1224V35.8327H11.6432Z" fill="#979797"/>
</g>
</svg>
