<svg width="24" height="24" viewBox="0 0 24 24" fill="none" xmlns="http://www.w3.org/2000/svg">
<g id="folder">
<path id="folder_2" d="M4 19.5996C3.45 19.5996 2.97917 19.4038 2.5875 19.0121C2.19583 18.6204 2 18.1496 2 17.5996V5.59961C2 5.04961 2.19583 4.57878 2.5875 4.18711C2.97917 3.79544 3.45 3.59961 4 3.59961H10L12 5.59961H20C20.55 5.59961 21.0208 5.79544 21.4125 6.18711C21.8042 6.57878 22 7.04961 22 7.59961V17.5996C22 18.1496 21.8042 18.6204 21.4125 19.0121C21.0208 19.4038 20.55 19.5996 20 19.5996H4ZM4 17.5996H20V7.59961H11.175L9.175 5.59961H4V17.5996Z" fill="#72777F"/>
</g>
</svg>
