<svg width="17" height="17" viewBox="0 0 17 17" fill="none" xmlns="http://www.w3.org/2000/svg">
<g id="noun-liability-5718184 2">
<path id="Vector" fill-rule="evenodd" clip-rule="evenodd" d="M8.28167 10.1707C8.28225 10.1794 8.28225 10.1882 8.28167 10.1967C8.26314 10.4857 8.12966 10.8846 7.59739 11.1444C7.41569 11.2308 7.21961 11.2855 7.01238 11.3087V11.6644C7.01238 11.7858 6.91387 11.8839 6.79267 11.8839C6.67147 11.8839 6.57296 11.7858 6.57296 11.6644V11.3102C6.17078 11.2773 5.7843 11.1679 5.42145 10.9822C5.3133 10.9272 5.27057 10.7948 5.32559 10.6866C5.38099 10.5785 5.51335 10.5358 5.62112 10.5912C5.98983 10.7795 6.38709 10.8772 6.80155 10.8816C7.02202 10.8793 7.22547 10.8345 7.4068 10.7485C7.68267 10.614 7.82184 10.4333 7.84225 10.182C7.8241 9.93808 7.68513 9.75808 7.40529 9.61645C7.21729 9.52525 7.00786 9.48452 6.80231 9.4841C6.51812 9.48297 6.25152 9.42416 6.00741 9.30863C6.00515 9.3075 6.0025 9.30637 6.00023 9.30485C5.56118 9.07663 5.3324 8.75633 5.32068 8.35246C5.32068 8.34697 5.32068 8.34167 5.32087 8.336C5.3341 8.04142 5.46419 7.63735 6.00685 7.3836C6.17853 7.30022 6.36799 7.24633 6.5722 7.22232V6.86458C6.5722 6.74319 6.67052 6.64505 6.79172 6.64505C6.91292 6.64505 7.01143 6.74319 7.01143 6.86458V7.21986C7.43781 7.25617 7.81503 7.36432 8.15953 7.54848C8.26674 7.60559 8.30701 7.73851 8.24972 7.84572C8.19262 7.95254 8.05931 7.9932 7.95249 7.9361C7.61649 7.7561 7.23909 7.66193 6.79872 7.64718C6.58011 7.6449 6.36297 7.70001 6.19441 7.78105C5.9125 7.91227 5.77428 8.09247 5.75991 8.34773C5.76993 8.57879 5.91382 8.76389 6.19896 8.91326C6.37485 9.00055 6.60249 9.04487 6.81157 9.04487C7.53595 9.04487 8.24219 9.465 8.28167 10.1707ZM13.9195 12.5113C14.0477 12.6529 13.9445 12.8783 13.7565 12.8783C13.6966 12.8783 13.6368 12.8537 13.5935 12.8055L12.5407 11.6402C12.504 11.5999 12.4838 11.5473 12.4838 11.4929V10.2225C12.4838 10.1013 12.5823 10.0028 12.7035 10.0028C12.8247 10.0028 12.923 10.1013 12.923 10.2225V11.4086L13.9195 12.5113ZM12.923 14.0899C14.1851 13.9838 15.1943 12.9749 15.3 11.7126H14.9381C14.8169 11.7126 14.7184 11.6145 14.7184 11.4929C14.7184 11.3717 14.8169 11.2734 14.9381 11.2734H15.3C15.1943 10.0113 14.1851 9.00233 12.923 8.89625V9.25834C12.923 9.37991 12.8247 9.47805 12.7035 9.47805C12.5823 9.47805 12.4838 9.37991 12.4838 9.25834V8.89625C11.2219 9.00233 10.2126 10.0113 10.1069 11.2734H10.4688C10.5902 11.2734 10.6885 11.3717 10.6885 11.4929C10.6885 11.6145 10.5902 11.7126 10.4688 11.7126H10.1069C10.2126 12.9749 11.2219 13.9838 12.4838 14.0899V13.7278C12.4838 13.6062 12.5823 13.5083 12.7035 13.5083C12.8247 13.5083 12.923 13.6062 12.923 13.7278V14.0899ZM9.36284 12.6697C9.53244 12.6697 9.69997 12.6366 9.85615 12.5733C9.40242 11.3794 9.74529 10.0471 10.6868 9.21315V7.03683C10.6282 7.01962 10.5701 6.99826 10.513 6.97178L6.79172 5.26458L3.07043 6.97178C3.01408 6.99788 2.95603 7.01925 2.89723 7.03664V11.3462C2.89723 12.076 3.49075 12.6697 4.22061 12.6697H9.36284ZM1.76728 6.15704C1.96128 6.58058 2.46405 6.76683 2.88759 6.57263L6.70021 4.82327C6.75844 4.79661 6.82519 4.79661 6.88343 4.82327L10.6964 6.57263C10.9003 6.66604 11.1296 6.67437 11.3419 6.59552C12.0537 6.33174 12.0746 5.34618 11.4007 5.03673L6.79172 2.92225L2.18289 5.03673C1.76124 5.23028 1.57347 5.73538 1.76728 6.15704ZM12.7035 8.44756C12.1264 8.44756 11.5864 8.60904 11.126 8.88887V7.086C11.9803 7.03304 12.5533 6.17366 12.2512 5.35874C12.1317 5.03617 11.8948 4.78034 11.5842 4.63758L6.88343 2.48094C6.82519 2.45427 6.75844 2.45427 6.70021 2.48094L1.99947 4.63758C1.35727 4.93255 1.07308 5.69757 1.36813 6.34007C1.56716 6.77346 1.98628 7.05588 2.45781 7.086V11.3462C2.45781 12.3182 3.24854 13.109 4.22061 13.109H9.36284C9.59692 13.109 9.82798 13.0623 10.0424 12.9723C10.5631 13.9056 11.5607 14.5386 12.7035 14.5386C14.3827 14.5386 15.7487 13.1723 15.7487 11.4929C15.7487 9.81386 14.3827 8.44756 12.7035 8.44756Z" fill="#043365"/>
</g>
</svg>
