<svg width="24" height="24" viewBox="0 0 24 24" fill="none" xmlns="http://www.w3.org/2000/svg">
<g id="Group 1000005026">
<g id="Group 1000003641">
<g id="Group 1000003638">
<g id="Group 1000003599">
<circle id="Ellipse 383" cx="12" cy="12" r="12" fill="#DEEBFF"/>
</g>
</g>
</g>
<path id="Vector" d="M10.5577 14.7279C10.5186 14.6887 10.4877 14.6421 10.4667 14.5908C10.4458 14.5396 10.4351 14.4846 10.4355 14.4291C10.4358 14.3737 10.4472 14.3189 10.4688 14.2678C10.4904 14.2168 10.5219 14.1707 10.5615 14.132C10.601 14.0934 10.6478 14.063 10.6992 14.0428C10.7505 14.0225 10.8053 14.0127 10.8604 14.0139C10.9155 14.0152 10.9699 14.0274 11.0202 14.05C11.0706 14.0726 11.116 14.105 11.1538 14.1454C11.305 14.2813 11.4816 14.3856 11.6733 14.4522C11.865 14.5187 12.0679 14.5463 12.2703 14.5332C12.8082 14.5332 13.0964 14.3288 13.0964 13.9536C13.1013 13.8811 13.091 13.8084 13.0662 13.7402C13.0414 13.672 13.0026 13.6098 12.9523 13.5576C12.8363 13.4587 12.6911 13.401 12.5392 13.3934L11.9758 13.3145C11.6408 13.2846 11.324 13.1481 11.0713 12.9249C10.956 12.8021 10.8669 12.657 10.8094 12.4984C10.7519 12.3398 10.7272 12.171 10.7368 12.0024C10.7305 11.6701 10.8454 11.3468 11.0599 11.0939C11.2744 10.8409 11.5736 10.6757 11.9009 10.6294L11.8993 10.1435C11.9082 10.0437 11.9538 9.95071 12.0273 9.88293C12.1008 9.81515 12.1968 9.77742 12.2965 9.77714C12.397 9.77965 12.493 9.81945 12.566 9.88888C12.639 9.95831 12.6839 10.0525 12.692 10.1532V10.6003C13.127 10.6302 13.5382 10.8114 13.8548 11.1129C13.8967 11.1505 13.9302 11.1965 13.9533 11.248C13.9763 11.2994 13.9884 11.3552 13.9887 11.4116C13.9888 11.4926 13.9649 11.5718 13.9201 11.6391C13.8752 11.7063 13.8115 11.7586 13.7369 11.7893C13.6624 11.8199 13.5804 11.8275 13.5016 11.8111C13.4227 11.7947 13.3505 11.755 13.2942 11.6971L13.2932 11.6981C13.1632 11.5828 13.0114 11.4949 12.847 11.4396C12.6826 11.3843 12.5088 11.3627 12.3359 11.3761C11.8509 11.3761 11.6155 11.6467 11.6155 11.9686C11.6142 12.0312 11.6258 12.0934 11.6495 12.1513C11.6732 12.2092 11.7085 12.2615 11.7532 12.3051C11.8755 12.4091 12.0261 12.4736 12.1855 12.4902L12.7362 12.5691C13.064 12.592 13.3762 12.7188 13.6278 12.9314C13.753 13.0631 13.8496 13.2196 13.9116 13.3909C13.9736 13.5621 13.9996 13.7444 13.988 13.9263C13.984 14.2784 13.8485 14.6161 13.6084 14.8725C13.3684 15.1288 13.0412 15.2849 12.692 15.3099V15.7603H12.6897C12.6873 15.8636 12.6448 15.9619 12.5713 16.0341C12.4978 16.1063 12.3992 16.1467 12.2965 16.1467C12.1937 16.1467 12.0951 16.1063 12.0216 16.0341C11.9481 15.9619 11.9057 15.8636 11.9033 15.7603H11.9009V15.3288C11.3935 15.306 10.9131 15.0928 10.5543 14.7312L10.5577 14.7279ZM15.7346 8.39097L16.2148 7.18377C16.3109 6.94216 16.3466 6.68055 16.3189 6.42182C16.2912 6.1631 16.2009 5.91515 16.0558 5.69966C15.9108 5.48418 15.7154 5.30774 15.4868 5.18576C15.2583 5.06379 15.0035 5.00001 14.7448 5H9.922C9.66324 4.99999 9.40843 5.06376 9.17986 5.18573C8.95129 5.3077 8.75592 5.48415 8.61085 5.69964C8.46579 5.91512 8.37544 6.16308 8.34773 6.42182C8.32001 6.68055 8.35577 6.94217 8.45187 7.18379L8.93202 8.39097C8.03363 8.96509 7.29388 9.75799 6.78134 10.6962C6.26879 11.6344 6.00004 12.6876 6 13.7581V14.5543C6 15.6101 6.41704 16.6227 7.15937 17.3692C7.9017 18.1158 8.90852 18.5352 9.95833 18.5352H14.7083C15.7581 18.5352 16.765 18.1158 17.5073 17.3692C18.2496 16.6227 18.6667 15.6101 18.6667 14.5543V13.7581C18.6666 12.6876 18.3979 11.6344 17.8853 10.6962C17.3728 9.75799 16.633 8.96509 15.7346 8.39097ZM9.18696 6.88813C9.1389 6.76732 9.12101 6.63651 9.13486 6.50714C9.14872 6.37777 9.19388 6.25378 9.26641 6.14603C9.33895 6.03828 9.43663 5.95005 9.55092 5.88906C9.66521 5.82808 9.79262 5.79619 9.922 5.79619H14.7448C14.8741 5.79619 15.0015 5.82808 15.1158 5.88906C15.2301 5.95005 15.3278 6.03828 15.4003 6.14603C15.4729 6.25378 15.518 6.37777 15.5319 6.50714C15.5457 6.63651 15.5278 6.76732 15.4798 6.88813L15.0359 8.00408C14.192 7.59887 13.2686 7.38857 12.3334 7.38857C11.3982 7.38857 10.4748 7.59887 9.63085 8.00408L9.18696 6.88813ZM17.875 14.5543C17.874 15.3986 17.5401 16.2081 16.9465 16.8052C16.3528 17.4022 15.5479 17.7381 14.7083 17.739H9.95833C9.11878 17.7381 8.31388 17.4022 7.72022 16.8052C7.12656 16.2081 6.79263 15.3986 6.79167 14.5543V13.7581C6.79167 12.28 7.37552 10.8624 8.41478 9.81715C9.45405 8.77195 10.8636 8.18476 12.3333 8.18476C13.8031 8.18476 15.2126 8.77195 16.2519 9.81715C17.2911 10.8624 17.875 12.28 17.875 13.7581V14.5543Z" fill="#043365"/>
</g>
</svg>
