<svg width="16" height="16" viewBox="0 0 16 16" fill="none" xmlns="http://www.w3.org/2000/svg">
<mask id="mask0_8130_18632" style="mask-type:alpha" maskUnits="userSpaceOnUse" x="0" y="0" width="16" height="16">
<rect width="16" height="16" fill="#D9D9D9"/>
</mask>
<g mask="url(#mask0_8130_18632)">
<path d="M3.99935 14.6673C3.63268 14.6673 3.31879 14.5368 3.05768 14.2757C2.79657 14.0145 2.66602 13.7007 2.66602 13.334V2.66732C2.66602 2.30065 2.79657 1.98676 3.05768 1.72565C3.31879 1.46454 3.63268 1.33398 3.99935 1.33398H9.33268L13.3327 5.33398V8.23398C13.1216 8.15621 12.9049 8.09787 12.6827 8.05899C12.4605 8.0201 12.2327 8.00065 11.9993 8.00065V6.00065H8.66602V2.66732H3.99935V13.334H8.23268C8.32157 13.5895 8.43268 13.8284 8.56602 14.0507C8.69935 14.2729 8.8549 14.4784 9.03268 14.6673H3.99935Z" fill="#72777F"/>
</g>
<path d="M11.3152 14L15 10.0211L14.0543 9L11.2989 11.9754L9.92935 10.4965L9 11.5L11.3152 14Z" fill="#72777F"/>
</svg>
