<svg width="13" height="14" viewBox="0 0 13 14" fill="none" xmlns="http://www.w3.org/2000/svg">
<path d="M1.99935 13.6673C1.63268 13.6673 1.31879 13.5368 1.05768 13.2757C0.796571 13.0145 0.666016 12.7007 0.666016 12.334V1.66732C0.666016 1.30065 0.796571 0.986762 1.05768 0.725651C1.31879 0.46454 1.63268 0.333984 1.99935 0.333984H7.33268L11.3327 4.33398V7.23398C11.1216 7.15621 10.9049 7.09787 10.6827 7.05898C10.4605 7.0201 10.2327 7.00065 9.99935 7.00065V5.00065H6.66602V1.66732H1.99935V12.334H6.23268C6.32157 12.5895 6.43268 12.8284 6.56602 13.0507C6.69935 13.2729 6.8549 13.4784 7.03268 13.6673H1.99935ZM8.59935 13.334L7.66602 12.4007L9.06602 11.0007L7.66602 9.60065L8.59935 8.66732L9.99935 10.0673L11.3993 8.66732L12.3327 9.60065L10.9493 11.0007L12.3327 12.4007L11.3993 13.334L9.99935 11.9507L8.59935 13.334Z" fill="#72777F"/>
</svg>
