<svg width="24" height="24" viewBox="0 0 24 24" fill="none" xmlns="http://www.w3.org/2000/svg">
<g id="fluent:ios-arrow-24-filled">
<path id="Vector" d="M12.7273 20.3128C12.8176 20.4082 12.8881 20.5205 12.9349 20.6433C12.9817 20.766 13.0039 20.8967 13.0002 21.028C12.9965 21.1593 12.9669 21.2886 12.9132 21.4085C12.8596 21.5284 12.7828 21.6365 12.6873 21.7268C12.5919 21.817 12.4796 21.8875 12.3568 21.9343C12.2341 21.9811 12.1034 22.0033 11.972 21.9996C11.8407 21.9959 11.7115 21.9663 11.5916 21.9127C11.4717 21.859 11.3636 21.7822 11.2733 21.6868L2.77333 12.6868C2.5978 12.5011 2.49999 12.2553 2.49999 11.9998C2.49999 11.7442 2.5978 11.4984 2.77333 11.3127L11.2733 2.31175C11.363 2.21419 11.4711 2.13541 11.5914 2.07998C11.7117 2.02456 11.8419 1.9936 11.9743 1.98889C12.1067 1.98419 12.2387 2.00584 12.3626 2.05258C12.4866 2.09933 12.6 2.17024 12.6963 2.26119C12.7927 2.35215 12.8699 2.46133 12.9237 2.58241C12.9775 2.70349 13.0066 2.83404 13.0095 2.96649C13.0124 3.09893 12.989 3.23063 12.9405 3.35394C12.8921 3.47724 12.8196 3.58969 12.7273 3.68475L4.87533 11.9998L12.7273 20.3128Z" fill="#333333"/>
</g>
</svg>
