<svg width="15" height="9" viewBox="0 0 15 9" fill="none" xmlns="http://www.w3.org/2000/svg">
<g clip-path="url(#clip0_9997_6834)">
<path d="M4.22412 3.25788C4.22026 3.40779 4.23875 3.55744 4.27899 3.7019C4.32332 3.82543 4.3767 3.94553 4.43869 4.06121C4.46088 4.09542 4.47299 4.13519 4.47362 4.17596C4.47362 4.22584 4.44368 4.27577 4.37883 4.32562L4.06454 4.53517C4.02662 4.56248 3.98153 4.57808 3.93485 4.58005C3.87802 4.57615 3.82468 4.55125 3.78519 4.51021C3.71794 4.43798 3.65778 4.35947 3.60553 4.27575C3.55565 4.19094 3.50572 4.09609 3.45088 3.98139C3.06175 4.44029 2.57284 4.66974 1.98413 4.66974C1.56493 4.66974 1.23082 4.54997 0.986371 4.31042C0.741922 4.07088 0.617188 3.75177 0.617188 3.35267C0.617188 2.92862 0.766846 2.58439 1.07118 2.32497C1.37552 2.06555 1.77958 1.93583 2.29343 1.93583C2.4704 1.93727 2.64707 1.95061 2.82225 1.97575C3.00684 2.0007 3.19642 2.0406 3.39596 2.08551V1.72132C3.39596 1.34204 3.31611 1.07777 3.16149 0.923097C3.00179 0.768449 2.73245 0.69362 2.34829 0.69362C2.16675 0.693612 1.98585 0.715383 1.80949 0.758468C1.62609 0.80216 1.44604 0.858843 1.27069 0.928088C1.21395 0.953471 1.15563 0.975133 1.09608 0.992936C1.07024 1.00145 1.04339 1.00649 1.01623 1.00791C0.94639 1.00791 0.911456 0.958031 0.911456 0.853259V0.60881C0.911456 0.528962 0.921437 0.469076 0.94639 0.434199C0.984035 0.388725 1.03192 0.35282 1.08612 0.329427C1.28622 0.230422 1.49718 0.155084 1.71473 0.10494C1.96894 0.0397117 2.23055 0.00784707 2.49299 0.0101489C3.08677 0.0101489 3.52069 0.144835 3.80007 0.414237C4.07447 0.683639 4.21414 1.09272 4.21414 1.6415V3.25788H4.22412ZM2.19866 4.01618C2.37368 4.01426 2.54722 3.98393 2.71251 3.92638C2.89562 3.86304 3.059 3.75293 3.18644 3.60699C3.26686 3.51503 3.32491 3.40572 3.35606 3.2876C3.39034 3.1455 3.40709 2.99974 3.40594 2.85357V2.64425C3.25468 2.60743 3.10147 2.57912 2.94704 2.55944C2.79147 2.53973 2.63483 2.52978 2.47802 2.52964C2.14377 2.52964 1.89932 2.59449 1.73469 2.72926C1.57006 2.86403 1.49024 3.05353 1.49024 3.30297C1.49024 3.53744 1.55013 3.71205 1.67483 3.83179C1.7946 3.95652 1.96919 4.01638 2.19866 4.01638V4.01618ZM6.2047 4.55499C6.1149 4.55499 6.05504 4.54001 6.01512 4.50511C5.97519 4.47517 5.94029 4.4053 5.91034 4.31054L4.73792 0.454161C4.71519 0.389608 4.70013 0.322609 4.69303 0.254541C4.69303 0.174693 4.73296 0.129807 4.8128 0.129807H5.3017C5.39649 0.129807 5.4614 0.144778 5.49627 0.179683C5.5362 0.209626 5.56611 0.279494 5.59608 0.374256L6.4342 3.67686L7.21244 0.374342C7.23739 0.274532 7.2673 0.209712 7.30723 0.179769C7.34715 0.149826 7.41699 0.129892 7.50685 0.129892H7.90609C8.00088 0.129892 8.06579 0.144864 8.10571 0.179769C8.14563 0.209712 8.18054 0.279579 8.2005 0.374342L8.98874 3.71687L9.85153 0.374342C9.88147 0.274532 9.91638 0.209712 9.95134 0.179769C9.99126 0.149826 10.0561 0.129892 10.1459 0.129892H10.6099C10.6897 0.129892 10.7346 0.169817 10.7346 0.254627C10.7335 0.281468 10.7301 0.308172 10.7246 0.334475C10.7168 0.37703 10.7051 0.418782 10.6897 0.459209L9.48739 4.31558C9.45747 4.41536 9.42255 4.48021 9.38262 4.51016C9.32622 4.54626 9.2599 4.56371 9.19304 4.56003H8.76397C8.66918 4.56003 8.60427 4.54506 8.56435 4.51016C8.52443 4.47525 8.48952 4.41035 8.46956 4.31054L7.69635 1.09272L6.92804 4.30555C6.90308 4.40536 6.87317 4.47018 6.83324 4.50517C6.79332 4.54016 6.72348 4.55504 6.63362 4.55504L6.2047 4.55499ZM12.6154 4.68967C12.3566 4.68995 12.0988 4.65981 11.8471 4.59987C11.5976 4.53999 11.4031 4.47514 11.2734 4.40025C11.1935 4.35537 11.1387 4.30546 11.1187 4.26052C11.0993 4.21648 11.0891 4.16892 11.0888 4.12078V3.86652C11.0888 3.76175 11.1287 3.71188 11.2035 3.71188C11.2341 3.71198 11.2644 3.71704 11.2933 3.72685C11.3233 3.73683 11.3682 3.75679 11.4181 3.77672C11.5943 3.85423 11.7782 3.91276 11.9668 3.95133C12.1623 3.991 12.3611 4.01106 12.5605 4.01122C12.8748 4.01122 13.1193 3.95635 13.2889 3.84659C13.3702 3.79756 13.437 3.72787 13.4826 3.64463C13.5282 3.56138 13.5509 3.46754 13.5484 3.37266C13.5502 3.30844 13.5392 3.24451 13.516 3.18456C13.4929 3.12462 13.4581 3.06986 13.4137 3.02344C13.3239 2.92865 13.1542 2.84379 12.9099 2.76394L12.1863 2.53948C11.8221 2.42475 11.5527 2.25513 11.3881 2.03059C11.2275 1.82355 11.1398 1.56923 11.1387 1.30719C11.1346 1.11403 11.1811 0.923149 11.2734 0.75342C11.3625 0.59292 11.485 0.453418 11.6327 0.344342C11.7882 0.226626 11.9641 0.138647 12.1515 0.0848354C12.3557 0.0260528 12.5675 -0.00247298 12.78 0.000167899C12.8917 -0.000642137 13.0034 0.00602677 13.1142 0.0201299C13.229 0.0351014 13.3338 0.0550634 13.4385 0.0749969C13.5383 0.0999495 13.6331 0.124873 13.7229 0.154845C13.7957 0.177363 13.8659 0.207462 13.9324 0.244646C13.9912 0.274268 14.0424 0.316934 14.0821 0.36938C14.1145 0.417926 14.1303 0.475715 14.127 0.534009V0.768477C14.127 0.873249 14.087 0.928173 14.0122 0.928173C13.9723 0.928173 13.9074 0.908211 13.8226 0.868287C13.5383 0.738572 13.219 0.673715 12.8648 0.673715C12.5804 0.673715 12.3559 0.718601 12.2013 0.813449C12.0466 0.908297 11.9668 1.05299 11.9668 1.25746C11.9654 1.32371 11.978 1.3895 12.0038 1.45053C12.0296 1.51157 12.068 1.56648 12.1164 1.61167C12.2163 1.70646 12.4008 1.80126 12.6652 1.88607L13.3737 2.11044C13.733 2.22519 13.9923 2.38483 14.1469 2.58936C14.2992 2.79004 14.38 3.0359 14.3764 3.2878C14.379 3.48818 14.3346 3.68638 14.2467 3.8665C14.1582 4.03725 14.034 4.18697 13.8825 4.30552C13.7178 4.43373 13.5297 4.52865 13.3287 4.58499C13.0977 4.65606 12.8571 4.69139 12.6153 4.68976L12.6154 4.68967Z" fill="#252F3E"/>
<path d="M13.5612 7.11567C11.9199 8.32797 9.53523 8.97151 7.48482 8.97151C4.61123 8.97163 2.02202 7.90899 0.0664508 6.14295C-0.0881978 6.00322 0.0514792 5.81369 0.236071 5.92337C2.35133 7.15063 4.96051 7.89391 7.65946 7.89391C9.48039 7.89391 11.4809 7.51463 13.3218 6.73648C13.5962 6.61175 13.8307 6.91614 13.5613 7.11576L13.5612 7.11567Z" fill="#FF9900"/>
<path d="M14.2436 6.33746C14.0341 6.06806 12.8567 6.20776 12.3229 6.27261C12.1632 6.29257 12.1383 6.15284 12.283 6.04812C13.2209 5.3896 14.7624 5.57916 14.942 5.79868C15.1217 6.02317 14.8921 7.56472 14.0141 8.30309C13.8794 8.41784 13.7497 8.35796 13.8095 8.2083C14.0091 7.71438 14.4531 6.60187 14.2436 6.33746Z" fill="#FF9900"/>
</g>
<defs>
<clipPath id="clip0_9997_6834">
<rect width="15" height="8.96993" fill="white"/>
</clipPath>
</defs>
</svg>
