<svg width="20" height="20" viewBox="0 0 20 20" fill="none" xmlns="http://www.w3.org/2000/svg">
<g id="beenhere">
<mask id="mask0_218_3779" style="mask-type:alpha" maskUnits="userSpaceOnUse" x="0" y="0" width="20" height="20">
<rect id="Bounding box" width="20" height="20" fill="#D9D9D9"/>
</mask>
<g mask="url(#mask0_218_3779)">
<path id="beenhere_2" d="M10 19.1667L4.00001 14.6667C3.79168 14.5139 3.62848 14.3194 3.51043 14.0833C3.39237 13.8472 3.33334 13.5972 3.33334 13.3333V3.33333C3.33334 2.875 3.49654 2.48264 3.82293 2.15625C4.14932 1.82986 4.54168 1.66666 5.00001 1.66666H15C15.4583 1.66666 15.8507 1.82986 16.1771 2.15625C16.5035 2.48264 16.6667 2.875 16.6667 3.33333V13.3333C16.6667 13.5972 16.6076 13.8472 16.4896 14.0833C16.3715 14.3194 16.2083 14.5139 16 14.6667L10 19.1667ZM10 17.0833L15 13.3333V3.33333H5.00001V13.3333L10 17.0833ZM9.12501 12.5L13.8333 7.79166L12.6667 6.58333L9.12501 10.125L7.37501 8.375L6.16668 9.54166L9.12501 12.5Z" fill="#043365"/>
</g>
</g>
</svg>
