<svg width="22" height="22" viewBox="0 0 22 22" fill="none" xmlns="http://www.w3.org/2000/svg">
<g id="beenhere">
<mask id="mask0_409_596" style="mask-type:alpha" maskUnits="userSpaceOnUse" x="0" y="0" width="22" height="22">
<rect id="Bounding box" width="22" height="22" fill="#D9D9D9"/>
</mask>
<g mask="url(#mask0_409_596)">
<path id="beenhere_2" d="M11.0001 21.0833L4.40005 16.1333C4.17088 15.9653 3.99137 15.7514 3.86151 15.4916C3.73165 15.2319 3.66672 14.9569 3.66672 14.6666V3.66665C3.66672 3.16248 3.84623 2.73088 4.20526 2.37185C4.56429 2.01283 4.99588 1.83331 5.50005 1.83331H16.5001C17.0042 1.83331 17.4358 2.01283 17.7948 2.37185C18.1539 2.73088 18.3334 3.16248 18.3334 3.66665V14.6666C18.3334 14.9569 18.2685 15.2319 18.1386 15.4916C18.0087 15.7514 17.8292 15.9653 17.6 16.1333L11.0001 21.0833ZM11.0001 18.7916L16.5001 14.6666V3.66665H5.50005V14.6666L11.0001 18.7916ZM10.0376 13.75L15.2167 8.57081L13.9334 7.24165L10.0376 11.1375L8.11255 9.21248L6.78338 10.4958L10.0376 13.75Z" fill="#008CE6"/>
</g>
</g>
</svg>
