<svg width="312" height="56" viewBox="0 0 312 56" fill="none" xmlns="http://www.w3.org/2000/svg">
<path d="M80.6 42.32C78.7067 42.32 77.08 41.92 75.72 41.12C74.36 40.32 73.32 39.1067 72.6 37.48C71.88 35.8267 71.52 33.7467 71.52 31.24C71.52 28.7067 71.8933 26.6267 72.64 25C73.4133 23.3733 74.48 22.16 75.84 21.36C77.2 20.56 78.7867 20.16 80.6 20.16C82.6267 20.16 84.44 20.6133 86.04 21.52C87.6667 22.4267 88.9467 23.7067 89.88 25.36C90.84 27.0133 91.32 28.9733 91.32 31.24C91.32 33.48 90.84 35.4267 89.88 37.08C88.9467 38.7333 87.6667 40.0267 86.04 40.96C84.44 41.8667 82.6267 42.32 80.6 42.32ZM67.88 42V12.32H74.12V24.84L73.72 31.2L73.84 37.6V42H67.88ZM79.52 37.2C80.56 37.2 81.48 36.96 82.28 36.48C83.1067 36 83.76 35.32 84.24 34.44C84.7467 33.5333 85 32.4667 85 31.24C85 29.9867 84.7467 28.92 84.24 28.04C83.76 27.16 83.1067 26.48 82.28 26C81.48 25.52 80.56 25.28 79.52 25.28C78.48 25.28 77.5467 25.52 76.72 26C75.8933 26.48 75.24 27.16 74.76 28.04C74.28 28.92 74.04 29.9867 74.04 31.24C74.04 32.4667 74.28 33.5333 74.76 34.44C75.24 35.32 75.8933 36 76.72 36.48C77.5467 36.96 78.48 37.2 79.52 37.2ZM95.6972 42V20.48H101.657V26.56L100.817 24.8C101.457 23.28 102.484 22.1333 103.897 21.36C105.311 20.56 107.031 20.16 109.057 20.16V25.92C108.791 25.8933 108.551 25.88 108.337 25.88C108.124 25.8533 107.897 25.84 107.657 25.84C105.951 25.84 104.564 26.3333 103.497 27.32C102.457 28.28 101.937 29.7867 101.937 31.84V42H95.6972ZM170.354 20.16C172.06 20.16 173.58 20.5067 174.914 21.2C176.274 21.8667 177.34 22.9067 178.114 24.32C178.887 25.7067 179.274 27.4933 179.274 29.68V42H173.034V30.64C173.034 28.9067 172.647 27.6267 171.874 26.8C171.127 25.9733 170.06 25.56 168.674 25.56C167.687 25.56 166.794 25.7733 165.994 26.2C165.22 26.6 164.607 27.2267 164.154 28.08C163.727 28.9333 163.514 30.0267 163.514 31.36V42H157.274V20.48H163.234V26.44L162.114 24.64C162.887 23.2 163.994 22.0933 165.434 21.32C166.874 20.5467 168.514 20.16 170.354 20.16ZM203.898 42.32C202.058 42.32 200.285 42.1067 198.578 41.68C196.898 41.2267 195.565 40.6667 194.578 40L196.658 35.52C197.645 36.1333 198.805 36.64 200.138 37.04C201.498 37.4133 202.831 37.6 204.138 37.6C205.578 37.6 206.591 37.4267 207.178 37.08C207.791 36.7333 208.098 36.2533 208.098 35.64C208.098 35.1333 207.858 34.76 207.378 34.52C206.925 34.2533 206.311 34.0533 205.538 33.92C204.765 33.7867 203.911 33.6533 202.978 33.52C202.071 33.3867 201.151 33.2133 200.218 33C199.285 32.76 198.431 32.4133 197.658 31.96C196.885 31.5067 196.258 30.8933 195.778 30.12C195.325 29.3467 195.098 28.3467 195.098 27.12C195.098 25.76 195.485 24.56 196.258 23.52C197.058 22.48 198.205 21.6667 199.698 21.08C201.191 20.4667 202.978 20.16 205.058 20.16C206.525 20.16 208.018 20.32 209.538 20.64C211.058 20.96 212.325 21.4267 213.338 22.04L211.258 26.48C210.218 25.8667 209.165 25.4533 208.098 25.24C207.058 25 206.045 24.88 205.058 24.88C203.671 24.88 202.658 25.0667 202.018 25.44C201.378 25.8133 201.058 26.2933 201.058 26.88C201.058 27.4133 201.285 27.8133 201.738 28.08C202.218 28.3467 202.845 28.56 203.618 28.72C204.391 28.88 205.231 29.0267 206.138 29.16C207.071 29.2667 208.005 29.44 208.938 29.68C209.871 29.92 210.711 30.2667 211.458 30.72C212.231 31.1467 212.858 31.7467 213.338 32.52C213.818 33.2667 214.058 34.2533 214.058 35.48C214.058 36.8133 213.658 38 212.858 39.04C212.058 40.0533 210.898 40.8533 209.378 41.44C207.885 42.0267 206.058 42.32 203.898 42.32ZM230.828 42.32C229.015 42.32 227.428 41.92 226.068 41.12C224.708 40.32 223.641 39.1067 222.868 37.48C222.121 35.8267 221.748 33.7467 221.748 31.24C221.748 28.7067 222.108 26.6267 222.828 25C223.548 23.3733 224.588 22.16 225.948 21.36C227.308 20.56 228.935 20.16 230.828 20.16C232.855 20.16 234.668 20.6267 236.268 21.56C237.895 22.4667 239.175 23.7467 240.108 25.4C241.068 27.0533 241.548 29 241.548 31.24C241.548 33.5067 241.068 35.4667 240.108 37.12C239.175 38.7733 237.895 40.0533 236.268 40.96C234.668 41.8667 232.855 42.32 230.828 42.32ZM218.108 49.76V20.48H224.068V24.88L223.948 31.28L224.348 37.64V49.76H218.108ZM229.748 37.2C230.788 37.2 231.708 36.96 232.508 36.48C233.335 36 233.988 35.32 234.468 34.44C234.975 33.5333 235.228 32.4667 235.228 31.24C235.228 29.9867 234.975 28.92 234.468 28.04C233.988 27.16 233.335 26.48 232.508 26C231.708 25.52 230.788 25.28 229.748 25.28C228.708 25.28 227.775 25.52 226.948 26C226.121 26.48 225.468 27.16 224.988 28.04C224.508 28.92 224.268 29.9867 224.268 31.24C224.268 32.4667 224.508 33.5333 224.988 34.44C225.468 35.32 226.121 36 226.948 36.48C227.775 36.96 228.708 37.2 229.748 37.2ZM258.774 42V37.8L258.374 36.88V29.36C258.374 28.0267 257.96 26.9867 257.134 26.24C256.334 25.4933 255.094 25.12 253.414 25.12C252.267 25.12 251.134 25.3067 250.014 25.68C248.92 26.0267 247.987 26.5067 247.214 27.12L244.974 22.76C246.147 21.9333 247.56 21.2933 249.214 20.84C250.867 20.3867 252.547 20.16 254.254 20.16C257.534 20.16 260.08 20.9333 261.894 22.48C263.707 24.0267 264.614 26.44 264.614 29.72V42H258.774ZM252.214 42.32C250.534 42.32 249.094 42.04 247.894 41.48C246.694 40.8933 245.774 40.1067 245.134 39.12C244.494 38.1333 244.174 37.0267 244.174 35.8C244.174 34.52 244.48 33.4 245.094 32.44C245.734 31.48 246.734 30.7333 248.094 30.2C249.454 29.64 251.227 29.36 253.414 29.36H259.134V33H254.094C252.627 33 251.614 33.24 251.054 33.72C250.52 34.2 250.254 34.8 250.254 35.52C250.254 36.32 250.56 36.96 251.174 37.44C251.814 37.8933 252.68 38.12 253.774 38.12C254.814 38.12 255.747 37.88 256.574 37.4C257.4 36.8933 258 36.16 258.374 35.2L259.334 38.08C258.88 39.4667 258.054 40.52 256.854 41.24C255.654 41.96 254.107 42.32 252.214 42.32ZM270.461 42V20.48H276.421V26.56L275.581 24.8C276.221 23.28 277.248 22.1333 278.661 21.36C280.075 20.56 281.795 20.16 283.821 20.16V25.92C283.555 25.8933 283.315 25.88 283.101 25.88C282.888 25.8533 282.661 25.84 282.421 25.84C280.715 25.84 279.328 26.3333 278.261 27.32C277.221 28.28 276.701 29.7867 276.701 31.84V42H270.461ZM292.931 37.6L293.091 30L303.131 20.48H310.571L300.931 30.28L297.691 32.92L292.931 37.6ZM287.771 42V12.32H294.011V42H287.771ZM303.811 42L296.531 32.96L300.451 28.12L311.371 42H303.811Z" fill="#043365"/>
<path d="M109.884 42L122.364 14H128.764L141.284 42H134.484L124.244 17.28H126.804L116.524 42H109.884ZM116.124 36L117.844 31.08H132.244L134.004 36H116.124ZM144.389 42V14H150.869V42H144.389Z" fill="#DD552D"/>
<path d="M27.124 25.3634H29.2448C29.6304 25.3955 30.4016 25.21 30.4016 24.213C30.4016 23.2159 30.4016 20.9213 30.4016 19.8987" stroke="#4DA9E2" stroke-width="1.5" stroke-linecap="round" stroke-linejoin="round"/>
<path d="M27.124 31.215H29.2448C29.6304 31.1831 30.4016 31.3684 30.4016 32.3654C30.4016 33.3625 30.4016 35.6571 30.4016 36.6797" stroke="#4DA9E2" stroke-width="2" stroke-linecap="round" stroke-linejoin="round"/>
<path d="M36.2814 24.2131V26.9934C36.3136 27.3769 36.1272 28.1439 35.1246 28.1439C34.1221 28.1439 25.1634 28.1439 24.1353 28.1439" stroke="#4DA9E2" stroke-width="1.5" stroke-linecap="round" stroke-linejoin="round"/>
<path d="M30.4976 17.0226C31.5091 17.0226 32.3291 16.207 32.3291 15.201C32.3291 14.1949 31.5091 13.3794 30.4976 13.3794C29.486 13.3794 28.666 14.1949 28.666 15.201C28.666 16.207 29.486 17.0226 30.4976 17.0226Z" stroke="#2D66AA" stroke-width="1.5"/>
<path d="M36.2818 21.6244C37.2933 21.6244 38.1133 20.8088 38.1133 19.8028C38.1133 18.7968 37.2933 17.9812 36.2818 17.9812C35.2702 17.9812 34.4502 18.7968 34.4502 19.8028C34.4502 20.8088 35.2702 21.6244 36.2818 21.6244Z" stroke="#2D66AA" stroke-width="1.5"/>
<path d="M30.4976 42.9083C31.5091 42.9083 32.3291 42.0928 32.3291 41.0867C32.3291 40.0807 31.5091 39.2651 30.4976 39.2651C29.486 39.2651 28.666 40.0807 28.666 41.0867C28.666 42.0928 29.486 42.9083 30.4976 42.9083Z" stroke="#2D66AA" stroke-width="1.5"/>
<path fill-rule="evenodd" clip-rule="evenodd" d="M25.0995 9.5636C25.1101 9.40416 25.2131 9.09165 25.6027 8.85293C26.0085 8.60431 26.8196 8.38212 28.3292 8.66809C30.2325 9.02864 33.9596 10.3882 37.2329 13.2265C40.4823 16.0442 43.274 20.3065 43.4151 26.5236C43.4153 26.5347 43.4157 26.5458 43.4163 26.5569C43.4168 26.5681 43.4178 26.5792 43.419 26.5901C43.4457 26.8931 43.4882 27.8903 43.424 29.3693C43.419 29.4019 43.4161 29.435 43.4153 29.469C43.2763 35.6902 40.4836 39.9548 37.2329 42.7737C33.9596 45.6119 30.2325 46.9714 28.3292 47.332C26.8196 47.6179 26.0085 47.3957 25.6027 47.1472C25.2131 46.9085 25.1101 46.5959 25.0995 46.4364V30.253C25.0995 29.8295 24.7542 29.486 24.3283 29.486C23.9024 29.486 23.5571 29.8295 23.5571 30.253V46.4556C23.5571 46.4657 23.5573 46.4761 23.5577 46.4862C23.5835 47.1297 23.9385 47.9293 24.7939 48.4532C25.6428 48.9732 26.8883 49.1665 28.6176 48.8388C30.7631 48.4325 34.7478 46.9637 38.2464 43.9297C41.7397 40.9007 44.7587 36.2988 44.9532 29.6632C44.9548 29.6485 44.9559 29.6335 44.9565 29.6184C45.033 28.0203 44.9925 26.8919 44.9567 26.4718C44.7996 19.7636 41.7632 15.1198 38.2464 12.0703C34.7478 9.03633 30.7631 7.56762 28.6176 7.16119C26.8883 6.83358 25.6428 7.02682 24.7939 7.54679C23.9385 8.07076 23.5835 8.87036 23.5577 9.51382C23.5573 9.52404 23.5571 9.53426 23.5571 9.54448V25.747C23.5571 26.1706 23.9024 26.514 24.3283 26.514C24.7542 26.514 25.0995 26.1706 25.0995 25.747V9.5636Z" fill="url(#paint0_linear_4157_4878)"/>
<path d="M9.57959 21.6245C10.1489 21.9601 11.2994 22.3836 12.5679 22.2885M12.5679 22.2885C13.2325 22.2387 13.9295 22.0464 14.5923 21.6245M12.5679 22.2885C13.307 22.8342 14.8236 24.2898 14.9779 25.747" stroke="#DD552D" stroke-width="1.5" stroke-linecap="round" stroke-linejoin="round"/>
<path d="M16.9057 14.8174C16.3272 12.0371 12.7605 8.10633 7.74785 11.5578C5.33789 13.0917 3.7377 16.8308 6.97667 20.2822" stroke="#DD552D" stroke-width="1.5" stroke-linecap="round" stroke-linejoin="round"/>
<path d="M21.0508 25.5553V11.3661C21.0187 10.5991 20.7617 9.25689 19.5085 8.4899C18.1822 7.67815 14.5922 7.4353 13.7246 10.2156" stroke="#DD552D" stroke-width="1.5" stroke-linecap="round"/>
<path d="M11.3145 15.2969C11.9571 16.8948 14.2064 19.6495 18.0623 17.8854" stroke="#DD552D" stroke-width="1.5" stroke-linecap="round" stroke-linejoin="round"/>
<path d="M6.78387 20.2822C4.85592 20.5059 1 22.3914 1 28.1438C1 31.2879 2.45916 33.1624 4.18113 34.2208C3.21715 35.3908 1.80974 38.383 3.89194 40.9908C5.97413 43.5985 8.74397 43.4196 9.86861 43.0041M7.55506 34.5673C8.56286 34.7951 10.5535 34.7176 12.3679 33.3209M12.3679 33.3209C13.0989 32.7582 13.8013 31.9814 14.3993 30.9241M12.3679 33.3209C13.1736 33.353 14.8042 34.2797 14.8813 37.7311M10.447 39.2651C9.67581 42.0454 10.0036 47.7211 17.484 48.1812C18.673 48.2451 21.0508 47.8361 21.0508 45.6885C21.0508 44.5319 21.0508 41.4514 21.0508 38.2105M21.0508 38.2105C21.0508 35.4334 21.0508 32.5388 21.0508 30.6365M21.0508 38.2105C20.633 39.5207 19.0071 42.2563 15.8453 42.7165" stroke="#DD552D" stroke-width="1.5" stroke-linecap="round" stroke-linejoin="round"/>
<path d="M7.94045 30.253C8.95199 30.253 9.77201 29.4375 9.77201 28.4314C9.77201 27.4254 8.95199 26.6099 7.94045 26.6099C6.9289 26.6099 6.10889 27.4254 6.10889 28.4314C6.10889 29.4375 6.9289 30.253 7.94045 30.253Z" stroke="#DD552D" stroke-width="1.5"/>
<path d="M12.6849 28.5168C12.9625 28.5168 13.1876 28.293 13.1876 28.0168C13.1876 27.7407 12.9625 27.5168 12.6849 27.5168C12.4072 27.5168 12.1821 27.7407 12.1821 28.0168C12.1821 28.293 12.4072 28.5168 12.6849 28.5168Z" fill="#DD552D"/>
<path d="M15.3841 28.5168C15.6617 28.5168 15.8868 28.293 15.8868 28.0168C15.8868 27.7407 15.6617 27.5168 15.3841 27.5168C15.1064 27.5168 14.8813 27.7407 14.8813 28.0168C14.8813 28.293 15.1064 28.5168 15.3841 28.5168Z" fill="#DD552D"/>
<path d="M18.0833 28.5168C18.361 28.5168 18.586 28.293 18.586 28.0168C18.586 27.7407 18.361 27.5168 18.0833 27.5168C17.8056 27.5168 17.5806 27.7407 17.5806 28.0168C17.5806 28.293 17.8056 28.5168 18.0833 28.5168Z" fill="#DD552D"/>
<path d="M20.7825 28.5168C21.0602 28.5168 21.2853 28.293 21.2853 28.0168C21.2853 27.7407 21.0602 27.5168 20.7825 27.5168C20.5049 27.5168 20.2798 27.7407 20.2798 28.0168C20.2798 28.293 20.5049 28.5168 20.7825 28.5168Z" fill="#DD552D"/>
<path d="M39.8483 33.9922V35.5261M39.8483 31.9788V22.2957M36.3779 31.2118V37.8271" stroke="#2D66AA" stroke-width="1.5" stroke-linecap="round" stroke-linejoin="round"/>
<defs>
<linearGradient id="paint0_linear_4157_4878" x1="44.1863" y1="27.9521" x2="18.3516" y2="27.9521" gradientUnits="userSpaceOnUse">
<stop stop-color="#2D66AA"/>
<stop offset="1" stop-color="#2D66AA" stop-opacity="0"/>
</linearGradient>
</defs>
</svg>
