<svg width="45" height="42" viewBox="0 0 45 42" fill="none" xmlns="http://www.w3.org/2000/svg">
<path d="M27.1238 18.3635H29.2446C29.6302 18.3955 30.4014 18.2101 30.4014 17.213C30.4014 16.2159 30.4014 13.9214 30.4014 12.8987" stroke="#4DA9E2" stroke-width="1.5" stroke-linecap="round" stroke-linejoin="round"/>
<path d="M27.1238 24.215H29.2446C29.6302 24.1832 30.4014 24.3684 30.4014 25.3655C30.4014 26.3626 30.4014 28.6572 30.4014 29.6798" stroke="#4DA9E2" stroke-width="2" stroke-linecap="round" stroke-linejoin="round"/>
<path d="M36.2816 17.213V19.9933C36.3138 20.3768 36.1274 21.1438 35.1249 21.1438C34.1223 21.1438 25.1637 21.1438 24.1355 21.1438" stroke="#4DA9E2" stroke-width="1.5" stroke-linecap="round" stroke-linejoin="round"/>
<path d="M30.4978 10.0226C31.5093 10.0226 32.3293 9.20701 32.3293 8.20097C32.3293 7.19494 31.5093 6.37939 30.4978 6.37939C29.4862 6.37939 28.6662 7.19494 28.6662 8.20097C28.6662 9.20701 29.4862 10.0226 30.4978 10.0226Z" stroke="#2D66AA" stroke-width="1.5"/>
<path d="M36.2816 14.6245C37.2932 14.6245 38.1132 13.8089 38.1132 12.8029C38.1132 11.7968 37.2932 10.9813 36.2816 10.9813C35.2701 10.9813 34.4501 11.7968 34.4501 12.8029C34.4501 13.8089 35.2701 14.6245 36.2816 14.6245Z" stroke="#2D66AA" stroke-width="1.5"/>
<path d="M30.4978 35.9082C31.5093 35.9082 32.3293 35.0927 32.3293 34.0867C32.3293 33.0806 31.5093 32.2651 30.4978 32.2651C29.4862 32.2651 28.6662 33.0806 28.6662 34.0867C28.6662 35.0927 29.4862 35.9082 30.4978 35.9082Z" stroke="#2D66AA" stroke-width="1.5"/>
<path fill-rule="evenodd" clip-rule="evenodd" d="M25.0995 2.5636C25.1101 2.40416 25.213 2.09165 25.6027 1.85293C26.0085 1.60431 26.8196 1.38212 28.3292 1.66809C30.2325 2.02864 33.9596 3.38818 37.2329 6.22648C40.4823 9.0442 43.274 13.3065 43.4151 19.5236C43.4153 19.5347 43.4157 19.5458 43.4162 19.5569C43.4168 19.5681 43.4178 19.5792 43.4189 19.5901C43.4457 19.8931 43.4881 20.8903 43.4239 22.3693C43.4189 22.4019 43.416 22.435 43.4153 22.469C43.2763 28.6902 40.4836 32.9548 37.2329 35.7737C33.9596 38.6119 30.2325 39.9714 28.3292 40.332C26.8196 40.6179 26.0085 40.3957 25.6027 40.1472C25.213 39.9085 25.1101 39.5959 25.0995 39.4364V23.253C25.0995 22.8295 24.7542 22.486 24.3283 22.486C23.9024 22.486 23.5571 22.8295 23.5571 23.253V39.4556C23.5571 39.4657 23.5573 39.4761 23.5577 39.4862C23.5835 40.1297 23.9385 40.9293 24.7939 41.4532C25.6428 41.9732 26.8882 42.1665 28.6176 41.8388C30.763 41.4325 34.7478 39.9637 38.2464 36.9297C41.7397 33.9007 44.7587 29.2988 44.9532 22.6632C44.9547 22.6485 44.9559 22.6335 44.9565 22.6184C45.033 21.0203 44.9925 19.8919 44.9567 19.4718C44.7995 12.7636 41.7632 8.1198 38.2464 5.07025C34.7478 2.03633 30.763 0.567618 28.6176 0.161194C26.8882 -0.166423 25.6428 0.0268179 24.7939 0.546794C23.9385 1.07076 23.5835 1.87036 23.5577 2.51382C23.5573 2.52404 23.5571 2.53426 23.5571 2.54448V18.747C23.5571 19.1706 23.9024 19.514 24.3283 19.514C24.7542 19.514 25.0995 19.1706 25.0995 18.747V2.5636Z" fill="url(#paint0_linear_209_1038)"/>
<path d="M9.57941 14.6245C10.1487 14.96 11.2992 15.3836 12.5677 15.2885M12.5677 15.2885C13.2323 15.2386 13.9293 15.0463 14.5921 14.6245M12.5677 15.2885C13.3068 15.8342 14.8235 17.2897 14.9777 18.747" stroke="#DD552D" stroke-width="1.5" stroke-linecap="round" stroke-linejoin="round"/>
<path d="M16.9057 7.81749C16.3273 5.03718 12.7605 1.10639 7.74787 4.55781C5.3379 6.09178 3.73772 9.83083 6.97668 13.2823" stroke="#DD552D" stroke-width="1.5" stroke-linecap="round" stroke-linejoin="round"/>
<path d="M21.0508 18.5552V4.36605C21.0186 3.59907 20.7616 2.25684 19.5084 1.48986C18.1821 0.678106 14.5921 0.435259 13.7245 3.21557" stroke="#DD552D" stroke-width="1.5" stroke-linecap="round"/>
<path d="M11.3146 8.29685C11.9572 9.89472 14.2065 12.6495 18.0624 10.8854" stroke="#DD552D" stroke-width="1.5" stroke-linecap="round" stroke-linejoin="round"/>
<path d="M6.78387 13.2822C4.85592 13.5059 1 15.3914 1 21.1438C1 24.2879 2.45916 26.1624 4.18113 27.2208C3.21715 28.3908 1.80974 31.383 3.89194 33.9908C5.97413 36.5985 8.74397 36.4196 9.86861 36.0041M7.55506 27.5673C8.56286 27.7951 10.5535 27.7176 12.3679 26.321M12.3679 26.321C13.0989 25.7582 13.8013 24.9814 14.3993 23.9241M12.3679 26.321C13.1736 26.353 14.8042 27.2797 14.8813 30.7311M10.447 32.2651C9.67581 35.0454 10.0036 40.7211 17.484 41.1813C18.673 41.2451 21.0508 40.8361 21.0508 38.6886C21.0508 37.5319 21.0508 34.4514 21.0508 31.2105M21.0508 31.2105C21.0508 28.4334 21.0508 25.5388 21.0508 23.6365M21.0508 31.2105C20.633 32.5207 19.0071 35.2563 15.8453 35.7165" stroke="#DD552D" stroke-width="1.5" stroke-linecap="round" stroke-linejoin="round"/>
<path d="M7.94064 23.253C8.95219 23.253 9.7722 22.4375 9.7722 21.4314C9.7722 20.4254 8.95219 19.6099 7.94064 19.6099C6.9291 19.6099 6.10909 20.4254 6.10909 21.4314C6.10909 22.4375 6.9291 23.253 7.94064 23.253Z" stroke="#DD552D" stroke-width="1.5"/>
<path d="M12.6849 21.5168C12.9626 21.5168 13.1876 21.2929 13.1876 21.0168C13.1876 20.7407 12.9626 20.5168 12.6849 20.5168C12.4072 20.5168 12.1822 20.7407 12.1822 21.0168C12.1822 21.2929 12.4072 21.5168 12.6849 21.5168Z" fill="#DD552D"/>
<path d="M15.384 21.5168C15.6617 21.5168 15.8868 21.2929 15.8868 21.0168C15.8868 20.7407 15.6617 20.5168 15.384 20.5168C15.1064 20.5168 14.8813 20.7407 14.8813 21.0168C14.8813 21.2929 15.1064 21.5168 15.384 21.5168Z" fill="#DD552D"/>
<path d="M18.0832 21.5168C18.3608 21.5168 18.5859 21.2929 18.5859 21.0168C18.5859 20.7407 18.3608 20.5168 18.0832 20.5168C17.8055 20.5168 17.5804 20.7407 17.5804 21.0168C17.5804 21.2929 17.8055 21.5168 18.0832 21.5168Z" fill="#DD552D"/>
<path d="M20.7823 21.5168C21.06 21.5168 21.285 21.2929 21.285 21.0168C21.285 20.7407 21.06 20.5168 20.7823 20.5168C20.5047 20.5168 20.2796 20.7407 20.2796 21.0168C20.2796 21.2929 20.5047 21.5168 20.7823 21.5168Z" fill="#DD552D"/>
<path d="M39.8483 26.9921V28.526M39.8483 24.9787V15.2956M36.378 24.2118V30.827" stroke="#2D66AA" stroke-width="1.5" stroke-linecap="round" stroke-linejoin="round"/>
<defs>
<linearGradient id="paint0_linear_209_1038" x1="44.1863" y1="20.9521" x2="18.3516" y2="20.9521" gradientUnits="userSpaceOnUse">
<stop stop-color="#2D66AA"/>
<stop offset="1" stop-color="#2D66AA" stop-opacity="0"/>
</linearGradient>
</defs>
</svg>
