<svg width="31" height="29" viewBox="0 0 31 29" fill="none" xmlns="http://www.w3.org/2000/svg">
<path d="M18.8117 12.5206H20.2577C20.5206 12.5424 21.0464 12.416 21.0464 11.7362C21.0464 11.0563 21.0464 9.49185 21.0464 8.7946" stroke="#4DA9E2" stroke-linecap="round" stroke-linejoin="round"/>
<path d="M18.8117 16.5102H20.2577C20.5206 16.4885 21.0464 16.6148 21.0464 17.2947C21.0464 17.9745 21.0464 19.539 21.0464 20.2362" stroke="#4DA9E2" stroke-linecap="round" stroke-linejoin="round"/>
<path d="M25.0557 11.7362V13.6318C25.0776 13.8933 24.9505 14.4162 24.2669 14.4162C23.5834 14.4162 17.4752 14.4162 16.7742 14.4162" stroke="#4DA9E2" stroke-linecap="round" stroke-linejoin="round"/>
<path d="M21.1121 6.83356C21.8018 6.83356 22.3609 6.2775 22.3609 5.59157C22.3609 4.90564 21.8018 4.34958 21.1121 4.34958C20.4224 4.34958 19.8633 4.90564 19.8633 5.59157C19.8633 6.2775 20.4224 6.83356 21.1121 6.83356Z" fill="#2D66AA" stroke="#2D66AA"/>
<path d="M25.0556 9.97122C25.7453 9.97122 26.3044 9.41517 26.3044 8.72923C26.3044 8.0433 25.7453 7.48724 25.0556 7.48724C24.366 7.48724 23.8069 8.0433 23.8069 8.72923C23.8069 9.41517 24.366 9.97122 25.0556 9.97122Z" fill="#2D66AA" stroke="#2D66AA"/>
<path d="M21.1121 24.4829C21.8018 24.4829 22.3609 23.9268 22.3609 23.2409C22.3609 22.555 21.8018 21.9989 21.1121 21.9989C20.4224 21.9989 19.8633 22.555 19.8633 23.2409C19.8633 23.9268 20.4224 24.4829 21.1121 24.4829Z" fill="#2D66AA" stroke="#2D66AA"/>
<path fill-rule="evenodd" clip-rule="evenodd" d="M17.4315 1.74791C17.4387 1.6392 17.5089 1.42613 17.7746 1.26336C18.0513 1.09385 18.6043 0.942352 19.6335 1.13733C20.9312 1.38317 23.4725 2.31012 25.7042 4.24533C27.9197 6.1665 29.8232 9.07262 29.9194 13.3115C29.9195 13.3191 29.9198 13.3267 29.9202 13.3343C29.9206 13.3419 29.9212 13.3494 29.922 13.3569C29.9403 13.5635 29.9692 14.2434 29.9254 15.2518C29.922 15.274 29.92 15.2966 29.9195 15.3198C29.8247 19.5615 27.9207 22.4692 25.7042 24.3911C23.4725 26.3263 20.9312 27.2532 19.6335 27.4991C18.6043 27.694 18.0513 27.5425 17.7746 27.3731C17.5089 27.2103 17.4387 26.9972 17.4315 26.8884V15.8543C17.4315 15.5655 17.196 15.3314 16.9057 15.3314C16.6153 15.3314 16.3799 15.5655 16.3799 15.8543V26.9015C16.3799 26.9084 16.38 26.9155 16.3802 26.9224C16.3979 27.3612 16.6399 27.9063 17.2231 28.2635C17.8019 28.6181 18.6511 28.7499 19.8302 28.5264C21.293 28.2494 24.0098 27.248 26.3953 25.1793C28.7771 23.1141 30.8355 19.9764 30.9681 15.4522C30.9691 15.4421 30.9699 15.4319 30.9703 15.4216C31.0225 14.3321 30.9949 13.5627 30.9705 13.2762C30.8633 8.70246 28.7931 5.53622 26.3953 3.45699C24.0098 1.38841 21.293 0.387012 19.8302 0.109905C18.6511 -0.113471 17.8019 0.0182849 17.2231 0.372814C16.6399 0.730063 16.3979 1.27524 16.3802 1.71397C16.38 1.72094 16.3799 1.7279 16.3799 1.73487V12.782C16.3799 13.0708 16.6153 13.305 16.9057 13.305C17.196 13.305 17.4315 13.0708 17.4315 12.782V1.74791Z" fill="url(#paint0_linear_297_233)"/>
<path d="M6.84961 9.97122C7.23779 10.2 8.0222 10.4888 8.88711 10.424M8.88711 10.424C9.34022 10.39 9.81545 10.2588 10.2674 9.97122M8.88711 10.424C9.391 10.796 10.4251 11.7885 10.5303 12.782" stroke="#043365" stroke-linecap="round" stroke-linejoin="round"/>
<path d="M11.8448 5.33011C11.4504 3.43444 9.01856 0.754353 5.60083 3.1076C3.95767 4.15348 2.86663 6.70283 5.07502 9.05608" stroke="#043365" stroke-linecap="round" stroke-linejoin="round"/>
<path d="M14.671 12.6513V2.97685C14.649 2.45391 14.4738 1.53876 13.6194 1.01581C12.7151 0.462343 10.2673 0.296766 9.67581 2.19243" stroke="#043365" stroke-linecap="round"/>
<path d="M8.03265 5.65694C8.47082 6.7464 10.0044 8.62464 12.6335 7.42187" stroke="#043365" stroke-linecap="round" stroke-linejoin="round"/>
<path d="M4.94355 9.05608C3.62903 9.20861 1 10.4942 1 14.4162C1 16.5599 1.99488 17.838 3.16895 18.5597C2.51169 19.3574 1.5521 21.3975 2.97177 23.1755C4.39145 24.9535 6.27998 24.8316 7.04678 24.5483M5.46936 18.7959C6.15649 18.9512 7.51377 18.8984 8.75086 17.9461M8.75086 17.9461C9.24928 17.5624 9.72818 17.0328 10.1359 16.3119M8.75086 17.9461C9.30017 17.9679 10.4119 18.5998 10.4645 20.953M7.44113 21.9989C6.91532 23.8946 7.13879 27.7644 12.2391 28.0781C13.0498 28.1217 14.671 27.8428 14.671 26.3786C14.671 25.59 14.671 23.4896 14.671 21.2799M14.671 21.2799C14.671 19.3864 14.671 17.4128 14.671 16.1158M14.671 21.2799C14.3861 22.1732 13.2776 24.0384 11.1218 24.3522" stroke="#043365" stroke-linecap="round" stroke-linejoin="round"/>
<path d="M5.73225 15.8543C6.42194 15.8543 6.98104 15.2983 6.98104 14.6124C6.98104 13.9264 6.42194 13.3704 5.73225 13.3704C5.04256 13.3704 4.48346 13.9264 4.48346 14.6124C4.48346 15.2983 5.04256 15.8543 5.73225 15.8543Z" fill="#043365" stroke="#043365"/>
<path d="M8.96698 14.6706C9.15629 14.6706 9.30976 14.5179 9.30976 14.3296C9.30976 14.1414 9.15629 13.9887 8.96698 13.9887C8.77767 13.9887 8.62421 14.1414 8.62421 14.3296C8.62421 14.5179 8.77767 14.6706 8.96698 14.6706Z" fill="#043365"/>
<path d="M10.8073 14.6706C10.9966 14.6706 11.1501 14.5179 11.1501 14.3296C11.1501 14.1414 10.9966 13.9887 10.8073 13.9887C10.618 13.9887 10.4645 14.1414 10.4645 14.3296C10.4645 14.5179 10.618 14.6706 10.8073 14.6706Z" fill="#043365"/>
<path d="M12.6476 14.6706C12.8369 14.6706 12.9904 14.5179 12.9904 14.3296C12.9904 14.1414 12.8369 13.9887 12.6476 13.9887C12.4583 13.9887 12.3048 14.1414 12.3048 14.3296C12.3048 14.5179 12.4583 14.6706 12.6476 14.6706Z" fill="#043365"/>
<path d="M14.4879 14.6706C14.6773 14.6706 14.8307 14.5179 14.8307 14.3296C14.8307 14.1414 14.6773 13.9887 14.4879 13.9887C14.2986 13.9887 14.1452 14.1414 14.1452 14.3296C14.1452 14.5179 14.2986 14.6706 14.4879 14.6706Z" fill="#043365"/>
<path d="M27.4875 18.4037V19.4496M27.4875 17.031V10.4288M25.1214 16.508V21.0184" stroke="#2D66AA" stroke-linecap="round" stroke-linejoin="round"/>
<defs>
<linearGradient id="paint0_linear_297_233" x1="30.4452" y1="14.2855" x2="12.8307" y2="14.2855" gradientUnits="userSpaceOnUse">
<stop stop-color="#2D66AA"/>
<stop offset="1" stop-color="#2D66AA" stop-opacity="0"/>
</linearGradient>
</defs>
</svg>
