<svg width="117" height="100" viewBox="0 0 117 100" fill="none" xmlns="http://www.w3.org/2000/svg">
<g id="Group 1000004326">
<g id="Group 1000004325">
<g id="Group 1000004078">
<g id="Group 1000004323">
<g id="Group 1000004075">
<g id="Group 1000004062">
<path id="Ellipse 405" d="M112.752 54.6891C114.061 76.465 97.4718 95.2031 75.6976 96.5419C53.9235 97.8806 35.2103 81.3131 33.9006 59.5372C32.5908 37.7613 49.1805 19.0231 70.9546 17.6844C92.7288 16.3456 111.442 32.9132 112.752 54.6891Z" fill="#F0F0F0" stroke="#9CB6CA"/>
</g>
</g>
</g>
</g>
<mask id="mask0_4356_6440" style="mask-type:alpha" maskUnits="userSpaceOnUse" x="38" y="23" width="75" height="74">
<g id="Group 1000004062_2">
<path id="Ellipse 405_2" d="M112 63C109.96 72.0006 107.875 76.9827 103 82.5C100.79 85.0012 97.578 88.0741 94.5 90C88.8211 93.5532 84.2951 96 75.5 96C70.7457 96.5238 64.4725 95.2773 60.5 94C42.996 88.372 38 74.0028 38 57.5C38 37.2519 46.1232 23 70.2009 23C85.0343 23 101.625 31.982 109.5 41.5C109.5 41.5 113.557 52.614 112 63Z" fill="#F0F0F0"/>
</g>
</mask>
<g mask="url(#mask0_4356_6440)">
<g id="Group 1000004322">
<g id="Group">
<path id="Vector" d="M120.401 31.4609H103.504V97.7806H120.401V31.4609Z" fill="#40B4D3"/>
<path id="Vector_2" d="M103.507 97.7836L92.7109 92.8509V30.0312L103.507 31.4639V97.7836Z" fill="#1B89B0"/>
</g>
<g id="Group_2">
<path id="Vector_3" d="M90 60H78V99H90V60Z" fill="#40B4D3"/>
<path id="Vector_4" d="M78 99L70 96.0894V59L78 59.8446V99Z" fill="#1B89B0"/>
</g>
<g id="Group_3">
<path id="Vector_5" d="M65.9822 72.5106H54.4023V98.0032H65.9822V72.5106Z" fill="#40B4D3"/>
<g id="Group 1000004333">
<path id="Vector_6" d="M54.3995 98.0028L47 96.1064V71.9609L54.3995 72.5128V98.0028Z" fill="#1B89B0"/>
</g>
</g>
<path id="Vector_7" d="M47 72L56.0154 71L66 72.5L54.5 73.5L47 72Z" fill="#1B89B0"/>
</g>
</g>
</g>
<g id="Group 1000004315">
<g id="Group 1000004314">
<path id="Vector_8" d="M65.9117 13.1527H20.3291V43.0511H65.9117V13.1527Z" fill="#FAFAFA"/>
<path id="Vector_9" d="M65.9137 43.0516C65.9137 42.7638 65.9 31.3882 65.8777 13.1532L65.9137 13.1891L20.3329 13.2063L20.3774 13.1617C20.3774 23.7937 20.3774 33.9135 20.3774 43.0601L20.3363 43.019L65.9206 43.0601L20.3363 43.1013H20.2969V43.0601C20.2969 33.9135 20.2969 23.7937 20.2969 13.1617V13.1172H20.3448H65.9257H65.96V13.1532C65.9274 31.3882 65.9137 42.7638 65.9137 43.0516Z" fill="#263238"/>
<path id="Vector_10" d="M13.0005 46.5884C12.9831 45.1064 13.4051 43.6525 14.2133 42.4102C15.0215 41.1678 16.1797 40.1928 17.5415 39.6082C18.9034 39.0235 20.408 38.8555 21.8653 39.1253C23.3226 39.3951 24.6673 40.0906 25.7296 41.1241C26.7919 42.1575 27.5243 43.4825 27.8342 44.9318C28.1441 46.3812 28.0177 47.8898 27.4709 49.2674C26.9241 50.6449 25.9814 51.8295 24.7619 52.6717C23.5424 53.5139 22.1007 53.976 20.6188 53.9994C18.6268 54.0237 16.7063 53.2573 15.2783 51.8682C13.8503 50.479 13.0312 48.5804 13.0005 46.5884ZM24.0842 46.4169C24.0692 45.7087 23.8448 45.0209 23.4392 44.4401C23.0337 43.8593 22.4652 43.4117 21.8055 43.1537C21.1458 42.8957 20.4245 42.8388 19.7326 42.9904C19.0406 43.1419 18.4091 43.495 17.9176 44.0051C17.4262 44.5153 17.0968 45.1595 16.9711 45.8566C16.8454 46.5538 16.929 47.2725 17.2114 47.9221C17.4938 48.5718 17.9622 49.1232 18.5577 49.5069C19.1531 49.8905 19.8489 50.0892 20.5571 50.0779C21.5116 50.0585 22.4193 49.6609 23.0807 48.9725C23.7421 48.2841 24.103 47.3611 24.0842 46.4067V46.4169Z" fill="#C7C6C6"/>
<path id="Vector_11" d="M13.001 46.6218C12.9698 44.6385 13.6656 42.7226 14.9362 41.2939C16.2067 39.8653 17.9483 39.0404 19.7793 39L19.8361 42.9151C19.4013 42.9227 18.9723 43.023 18.5733 43.2102C18.1744 43.3974 17.8134 43.6679 17.511 44.0063C17.2086 44.3446 16.9707 44.7442 16.8108 45.1821C16.6509 45.62 16.5723 46.0878 16.5793 46.5586C16.5864 47.0295 16.679 47.4942 16.8518 47.9263C17.0247 48.3584 17.2744 48.7494 17.5868 49.077C17.8992 49.4045 18.268 49.6623 18.6724 49.8354C19.0767 50.0085 19.5085 50.0937 19.9433 50.0861L20 53.9995C18.1695 54.0232 16.405 53.26 15.093 51.8771C13.7811 50.4942 13.0288 48.6044 13.001 46.6218Z" fill="#D9D7D7"/>
<path id="Vector_12" d="M20 39.0011C24.4104 38.9294 27.9296 42.4167 28 46.9315L23.8257 47C23.7913 44.8414 22.1794 43.4825 20.0735 43.5175L20 39.0011Z" fill="#E3E1E1"/>
<path id="Vector_13" d="M34.2606 29.663L38.744 29.7264C38.7097 32.1145 36.6967 34.0624 34.2606 34.0624H34.2349L34.2606 29.663Z" fill="#455A64"/>
<path id="Vector_14" d="M41.6735 35.7343C41.6417 35.7384 41.6095 35.7384 41.5776 35.7343L41.3035 35.7429L40.3013 35.7531H40.2893L40.2807 35.7429C39.8816 35.2375 39.3659 34.5882 38.8023 33.8789L37.603 32.3576L37.6253 32.3696L36.3061 32.3576L35.9378 32.3491C35.8945 32.3527 35.8509 32.3527 35.8076 32.3491C35.8506 32.3412 35.8942 32.3378 35.9378 32.3388H36.3061L37.6253 32.3268H37.6407V32.3371L38.8399 33.8515L40.3081 35.724L40.2859 35.7155L41.2881 35.7257H41.5622C41.5995 35.7236 41.637 35.7265 41.6735 35.7343Z" fill="#263238"/>
<path id="Vector_15" d="M43.282 36.2517C43.282 36.2705 42.6327 36.2859 41.8309 36.2859C41.0292 36.2859 40.3799 36.2705 40.3799 36.2517C40.3799 36.2328 41.0292 36.2174 41.8309 36.2174C42.6327 36.2174 43.282 36.2328 43.282 36.2517Z" fill="#263238"/>
<path id="Vector_16" d="M43.282 36.788C43.282 36.8069 42.6327 36.8223 41.8309 36.8223C41.0292 36.8223 40.3799 36.8069 40.3799 36.788C40.3799 36.7692 41.0292 36.7538 41.8309 36.7538C42.6327 36.7538 43.282 36.7692 43.282 36.788Z" fill="#263238"/>
<path id="Vector_17" d="M33.5513 29.0258L33.4879 33.4218C31.0517 33.3893 29.0679 31.414 29.0679 29.0241C29.0679 26.6342 31.0911 24.6263 33.5513 24.6263C36.0114 24.6263 38.0347 26.6119 38.0347 29.0241L33.5513 29.0258Z" fill="#FF725E"/>
<path id="Vector_18" d="M31.8012 27.5863C31.7768 27.5971 31.7507 27.6035 31.7241 27.6052L31.4997 27.6411L30.6945 27.7542H30.6825L30.6722 27.7439L29.598 26.6989C29.0841 26.1849 28.6164 25.7327 28.284 25.3952L27.89 24.996C27.84 24.9485 27.7942 24.897 27.7529 24.8418C27.8088 24.8822 27.861 24.9275 27.9088 24.9771L28.3166 25.3609C28.6592 25.6881 29.1303 26.1438 29.646 26.6509L30.7116 27.7045H30.6876L31.4962 27.6154L31.7207 27.5949C31.7471 27.5894 31.7741 27.5865 31.8012 27.5863Z" fill="#263238"/>
<path id="Vector_19" d="M26.6172 24.6499C26.6172 24.6687 25.9679 24.6841 25.1661 24.6841C24.3644 24.6841 23.7168 24.6687 23.7168 24.6499C23.7168 24.631 24.3661 24.6156 25.1661 24.6156C25.9662 24.6156 26.6172 24.631 26.6172 24.6499Z" fill="#263238"/>
<path id="Vector_20" d="M26.6172 25.1884C26.6172 25.2073 25.9679 25.2227 25.1661 25.2227C24.3644 25.2227 23.7168 25.2073 23.7168 25.1884C23.7168 25.1696 24.3661 25.1542 25.1661 25.1542C25.9662 25.1542 26.6172 25.1696 26.6172 25.1884Z" fill="#263238"/>
<path id="Vector_21" d="M49.2377 20.337L49.2189 17.5959C48.383 17.6108 47.5803 17.9257 46.9575 18.4834C46.5591 18.8306 46.2519 19.2701 46.0625 19.7634C45.8732 20.2568 45.8075 20.789 45.8713 21.3135C45.8853 21.4471 45.9065 21.5797 45.9347 21.711C45.9355 21.7144 45.9355 21.7179 45.9347 21.7213L49.2274 20.9812L49.2377 20.337Z" fill="#FF725E"/>
<g id="Group_4" opacity="0.3">
<path id="Vector_22" d="M49.2382 20.3354L49.2194 17.5944C48.3835 17.6092 47.5808 17.9242 46.958 18.4818C46.5596 18.829 46.2523 19.2685 46.063 19.7618C45.8737 20.2552 45.808 20.7874 45.8718 21.312C45.8858 21.4455 45.907 21.5782 45.9352 21.7094C45.936 21.7128 45.936 21.7163 45.9352 21.7197L49.2279 20.9796L49.2382 20.3354Z" fill="white"/>
</g>
<path id="Vector_23" d="M52.6317 19.4958C52.3913 18.9796 52.0191 18.5359 51.5526 18.2092C51.0862 17.8826 50.5419 17.6847 49.9746 17.6353L49.8701 17.625H49.8033C49.7382 17.625 49.6713 17.625 49.6045 17.625H49.5874L49.6045 20.3661V21.0085L52.8973 21.7281C52.9469 21.4955 52.9715 21.2583 52.9709 21.0205C52.9726 20.4934 52.8568 19.9725 52.6317 19.4958Z" fill="#FF725E"/>
<g id="Group_5" opacity="0.3">
<path id="Vector_24" d="M52.6303 19.496C52.3898 18.9798 52.0176 18.5361 51.5512 18.2095C51.0847 17.8829 50.5404 17.6849 49.9731 17.6355L49.8686 17.6252H49.8018C49.7367 17.6252 49.6699 17.6252 49.6031 17.6252H49.5859L49.6031 20.3663V21.0088L52.8958 21.7283C52.9454 21.4957 52.9701 21.2586 52.9695 21.0208C52.9712 20.4936 52.8553 19.9727 52.6303 19.496Z" fill="black"/>
</g>
<path id="Vector_25" d="M49.4138 21.3196L46.1211 22.0614C46.2896 22.8112 46.7089 23.481 47.3097 23.9601C47.9105 24.4392 48.6569 24.6989 49.4253 24.6963C50.1938 24.6937 50.9384 24.429 51.5359 23.9458C52.1335 23.4626 52.5483 22.79 52.7117 22.0391L49.4172 21.3196" fill="#FF725E"/>
<path id="Vector_26" d="M62.234 20.8276C62.234 20.8516 60.5311 20.8722 58.4307 20.8722C56.3303 20.8722 54.6274 20.8516 54.6274 20.8276C54.6274 20.8036 56.3303 20.7831 58.4307 20.7831C60.5311 20.7831 62.234 20.8036 62.234 20.8276Z" fill="#263238"/>
<path id="Vector_27" d="M62.234 19.9617C62.234 19.9856 60.5311 20.0062 58.4307 20.0062C56.3303 20.0062 54.6274 19.9856 54.6274 19.9617C54.6274 19.9377 56.3303 19.9171 58.4307 19.9171C60.5311 19.9171 62.234 19.9377 62.234 19.9617Z" fill="#263238"/>
<path id="Vector_28" d="M62.234 19.0946C62.234 19.1186 60.5311 19.1391 58.4307 19.1391C56.3303 19.1391 54.6274 19.1186 54.6274 19.0946C54.6274 19.0706 56.3303 19.05 58.4307 19.05C60.5311 19.05 62.234 19.0706 62.234 19.0946Z" fill="#263238"/>
<path id="Vector_29" d="M62.234 21.6355C62.234 21.6595 60.5311 21.68 58.4307 21.68C56.3303 21.68 54.6274 21.6595 54.6274 21.6355C54.6274 21.6115 56.3303 21.5909 58.4307 21.5909C60.5311 21.5909 62.234 21.6098 62.234 21.6355Z" fill="#263238"/>
<path id="Vector_30" d="M59.8778 22.5123C59.8778 22.5363 58.7077 22.5569 57.2652 22.5569C55.8227 22.5569 54.6543 22.5363 54.6543 22.5123C54.6543 22.4883 55.8227 22.4678 57.2652 22.4678C58.7077 22.4678 59.8778 22.4883 59.8778 22.5123Z" fill="#263238"/>
<path id="Vector_31" d="M47.4338 28.7874H46.6509V37.5366H47.4338V28.7874Z" fill="#FF725E"/>
<path id="Vector_32" d="M48.9465 31.7581H48.1636V37.5349H48.9465V31.7581Z" fill="#FF725E"/>
<path id="Vector_33" d="M50.4587 29.8752H49.6758V37.5811H50.4587V29.8752Z" fill="#FF725E"/>
<path id="Vector_34" d="M51.9719 29.1255H51.189V37.5372H51.9719V29.1255Z" fill="#FF725E"/>
<path id="Vector_35" d="M53.4841 31.9369H52.7012V37.5356H53.4841V31.9369Z" fill="#FF725E"/>
<path id="Vector_36" d="M54.9953 33.0344H54.2124V37.5349H54.9953V33.0344Z" fill="#FF725E"/>
<path id="Vector_37" d="M56.509 29.6857H55.7261V37.5372H56.509V29.6857Z" fill="#FF725E"/>
<path id="Vector_38" d="M58.0212 31.0999H57.2383V37.5346H58.0212V31.0999Z" fill="#FF725E"/>
<path id="Vector_39" d="M59.5334 29.97H58.7505V37.5371H59.5334V29.97Z" fill="#FF725E"/>
<path id="Vector_40" d="M61.0466 32.3817H60.2637V37.5367H61.0466V32.3817Z" fill="#FF725E"/>
<path id="Vector_41" d="M62.5578 31.4004H61.7749V37.537H62.5578V31.4004Z" fill="#FF725E"/>
<path id="Vector_42" d="M62.878 38.145C62.878 38.1638 59.1622 38.1775 54.5794 38.1775C49.9966 38.1775 46.2808 38.1638 46.2808 38.145C46.2808 38.1261 49.9949 38.1141 54.5794 38.1141C59.1639 38.1141 62.878 38.1278 62.878 38.145Z" fill="#263238"/>
<path id="Vector_43" d="M47.7692 38.8333C47.3827 38.8767 46.9925 38.8767 46.606 38.8333C46.9926 38.7922 47.3825 38.7922 47.7692 38.8333Z" fill="#263238"/>
<path id="Vector_44" d="M49.698 38.8695C49.2359 38.9129 48.7707 38.9129 48.3086 38.8695C48.7707 38.8261 49.2359 38.8261 49.698 38.8695Z" fill="#263238"/>
<path id="Vector_45" d="M51.342 38.8695C50.8799 38.9129 50.4147 38.9129 49.9526 38.8695C50.4147 38.8261 50.8799 38.8261 51.342 38.8695Z" fill="#263238"/>
<path id="Vector_46" d="M52.9856 38.8695C52.5235 38.9129 52.0583 38.9129 51.5962 38.8695C52.0583 38.8261 52.5235 38.8261 52.9856 38.8695Z" fill="#263238"/>
<path id="Vector_47" d="M54.6318 38.8695C54.1691 38.9129 53.7034 38.9129 53.2407 38.8695C53.7034 38.8261 54.1691 38.8261 54.6318 38.8695Z" fill="#263238"/>
<path id="Vector_48" d="M56.2771 38.8695C55.815 38.9129 55.3498 38.9129 54.8877 38.8695C55.3498 38.8261 55.815 38.8261 56.2771 38.8695Z" fill="#263238"/>
<path id="Vector_49" d="M57.9221 38.8695C57.46 38.9129 56.9948 38.9129 56.5327 38.8695C56.9948 38.8261 57.46 38.8261 57.9221 38.8695Z" fill="#263238"/>
<path id="Vector_50" d="M59.5666 38.8695C59.1045 38.9129 58.6394 38.9129 58.1772 38.8695C58.6394 38.8261 59.1045 38.8261 59.5666 38.8695Z" fill="#263238"/>
<path id="Vector_51" d="M61.2107 38.8695C60.7486 38.9129 60.2834 38.9129 59.8213 38.8695C60.2834 38.8261 60.7486 38.8261 61.2107 38.8695Z" fill="#263238"/>
<path id="Vector_52" d="M62.8552 38.8695C62.3931 38.9129 61.9279 38.9129 61.4658 38.8695C61.9279 38.8261 62.3931 38.8261 62.8552 38.8695Z" fill="#263238"/>
<g id="Group_6" opacity="0.3">
<path id="Vector_53" d="M48.9465 31.7585H48.1636V37.5354H48.9465V31.7585Z" fill="white"/>
</g>
<g id="Group_7" opacity="0.3">
<path id="Vector_54" d="M51.9704 29.1263H51.1875V37.5381H51.9704V29.1263Z" fill="white"/>
</g>
<g id="Group_8" opacity="0.3">
<path id="Vector_55" d="M54.9943 33.0339H54.2114V37.5345H54.9943V33.0339Z" fill="white"/>
</g>
<g id="Group_9" opacity="0.3">
<path id="Vector_56" d="M58.0222 31.0985H57.2393V37.5332H58.0222V31.0985Z" fill="white"/>
</g>
<g id="Group_10" opacity="0.3">
<path id="Vector_57" d="M61.0461 32.3809H60.2632V37.5358H61.0461V32.3809Z" fill="white"/>
</g>
<path id="Vector_58" d="M25.1146 19.5258C25.5309 19.5258 25.8684 19.1883 25.8684 18.772C25.8684 18.3557 25.5309 18.0182 25.1146 18.0182C24.6983 18.0182 24.3608 18.3557 24.3608 18.772C24.3608 19.1883 24.6983 19.5258 25.1146 19.5258Z" fill="#FF725E"/>
<path id="Vector_59" d="M38.8318 18.1747C38.8318 18.1987 36.2894 18.2192 33.1543 18.2192C30.0192 18.2192 27.4751 18.1987 27.4751 18.1747C27.4751 18.1507 30.0175 18.1301 33.1543 18.1301C36.2911 18.1301 38.8318 18.1541 38.8318 18.1747Z" fill="#FF725E"/>
<path id="Vector_60" d="M32.0334 19.0892C31.9774 19.1028 31.9197 19.1086 31.8621 19.1064L31.3824 19.1218C30.9764 19.1218 30.4179 19.1338 29.7994 19.1338C29.181 19.1338 28.6225 19.1338 28.2164 19.1218L27.7367 19.1064C27.6791 19.1086 27.6215 19.1028 27.5654 19.0892C27.6216 19.0767 27.6792 19.0709 27.7367 19.0721C27.8498 19.0721 28.0143 19.0618 28.2164 19.0584C28.6225 19.0584 29.181 19.0447 29.7994 19.0447C30.4179 19.0447 30.9764 19.0447 31.3824 19.0584C31.5845 19.0584 31.749 19.0584 31.8621 19.0721C31.9197 19.0709 31.9772 19.0767 32.0334 19.0892Z" fill="#FF725E"/>
<g id="Charts">
<path id="Vector_61" d="M19.1869 72.4092C19.2336 72.4032 19.2797 72.394 19.325 72.3816C19.3894 72.3592 19.4479 72.3228 19.4965 72.275C19.545 72.2272 19.5824 72.1693 19.6059 72.1053C19.6338 72.0074 19.6424 71.905 19.6312 71.8038C19.6312 71.691 19.6312 71.5736 19.6312 71.4332C19.6312 71.1639 19.6312 70.8555 19.6312 70.5125C19.6312 69.1154 19.6197 67.099 19.6105 64.6131C19.6105 63.3656 19.6105 62.003 19.6105 60.539C19.6105 59.8048 19.6105 59.0475 19.6105 58.2672C19.6105 57.8782 19.6105 57.4823 19.6105 57.0818C19.6105 56.8862 19.6105 56.6698 19.6105 56.4857C19.5954 56.396 19.5503 56.314 19.4826 56.2534C19.4148 56.1927 19.3284 56.1569 19.2376 56.1519H8.50221C8.39796 56.1519 8.2978 56.1925 8.22301 56.2651C8.14822 56.3378 8.10471 56.4367 8.10171 56.5409C8.10171 56.7711 8.10171 57.0013 8.10171 57.2452V61.3769C8.10171 63.1699 8.10171 64.8986 8.10171 66.5466C8.10171 68.1947 8.10171 69.7691 8.10171 71.2215V71.767C8.0947 71.8535 8.0947 71.9405 8.10171 72.0271C8.11505 72.1053 8.15199 72.1776 8.20759 72.2342C8.26234 72.2921 8.3327 72.3329 8.41015 72.3516C8.4924 72.3639 8.57569 72.3677 8.65873 72.3631H11.1285L17.0279 72.3839L18.6391 72.3954H19.0557H19.1984C19.1984 72.3954 19.1501 72.3954 19.0557 72.3954H18.6391L17.0279 72.4069L11.1285 72.4253H9.17433H8.65873C8.56796 72.4307 8.47688 72.4261 8.38713 72.4115C8.29179 72.39 8.20516 72.3403 8.13854 72.2688C8.06938 72.198 8.0229 72.1083 8.00503 72.011C7.99832 71.919 7.99832 71.8267 8.00503 71.7348V71.1892C8.00503 69.7253 8.00503 68.1601 8.00503 66.5144C8.00503 64.8686 8.00503 63.1377 8.00503 61.3447C8.00503 60.45 8.00503 59.5386 8.00503 58.6102V57.213C8.00503 56.9828 8.00503 56.7527 8.00503 56.5041C8.00922 56.3689 8.06587 56.2407 8.16298 56.1466C8.26008 56.0525 8.39001 55.9999 8.52523 56H19.2445C19.3597 56.0073 19.469 56.0533 19.5547 56.1306C19.6404 56.2079 19.6973 56.312 19.7163 56.4258C19.7325 56.656 19.7163 56.8355 19.7163 57.0404V58.2258C19.7163 59.0061 19.7163 59.7634 19.7163 60.4976C19.7163 61.9615 19.7163 63.3242 19.7163 64.5717C19.7163 67.0576 19.7025 69.0739 19.6979 70.4711C19.6979 70.8187 19.6979 71.1271 19.6979 71.3918C19.6979 71.5253 19.6979 71.6496 19.6979 71.7624C19.7069 71.8663 19.6959 71.971 19.6657 72.0708C19.6407 72.1378 19.6005 72.1981 19.5481 72.2468C19.4958 72.2956 19.4328 72.3315 19.3642 72.3516C19.3115 72.3867 19.2502 72.4066 19.1869 72.4092Z" fill="#263238"/>
<path id="Vector_62" d="M14.6015 59.3164C13.0363 58.9689 11.3169 59.8182 10.8773 61.4317C10.4537 62.9808 11.478 64.79 13.0317 65.2112C13.798 65.3948 14.6051 65.2913 15.3002 64.9202C15.9954 64.5491 16.5305 63.9361 16.8043 63.1972C17.3613 61.5422 16.3002 59.7584 14.6982 59.2313C14.514 59.1691 14.4404 59.4615 14.6199 59.5213C15.9848 60.0208 16.9654 61.4939 16.5557 62.9739C16.169 64.378 14.5232 65.3171 13.1192 64.9442C11.768 64.5851 10.8957 63.135 11.0683 61.7839C11.2778 60.129 13.0294 59.1392 14.5877 59.4085C14.6452 59.4085 14.6705 59.3326 14.613 59.321L14.6015 59.3164Z" fill="#1B89B0"/>
<path id="Vector_63" d="M13.0446 65.1595C13.8382 65.3937 14.692 65.3081 15.4232 64.921C16.1545 64.5339 16.7052 63.8759 16.9576 63.0879C17.4456 61.4076 16.3569 59.5892 14.7203 59.0898C14.3428 58.9747 14.207 59.5317 14.5592 59.6698C15.9402 60.213 16.8609 61.7161 16.3177 63.1915C15.8298 64.5035 14.3935 65.1365 13.0607 64.9868C12.9549 64.973 12.9411 65.1388 13.0377 65.1664L13.0446 65.1595Z" fill="#FF725E"/>
<path id="Vector_64" d="M17.0339 67.9153C17.0339 67.9475 15.6114 67.9752 13.8529 67.9752C12.0944 67.9752 10.6719 67.9475 10.6719 67.9153C10.6719 67.8831 12.0967 67.8555 13.8529 67.8555C15.6091 67.8555 17.0339 67.8831 17.0339 67.9153Z" fill="#FF725E"/>
<path id="Vector_65" d="M17.0339 68.8802C17.0339 68.9147 15.6114 68.94 13.8529 68.94C12.0944 68.94 10.6719 68.9147 10.6719 68.8802C10.6719 68.8456 12.0967 68.8203 13.8529 68.8203C15.6091 68.8203 17.0339 68.8479 17.0339 68.8802Z" fill="#FF725E"/>
<path id="Vector_66" d="M28.7515 46.5931V67.8751C28.7521 68.102 28.8425 68.3194 29.0029 68.4799C29.1634 68.6403 29.3808 68.7307 29.6077 68.7314H57.9561C58.183 68.7307 58.4004 68.6403 58.5609 68.4799C58.7213 68.3194 58.8117 68.102 58.8123 67.8751V45.8566C58.8124 45.7422 58.7895 45.6289 58.745 45.5235C58.7006 45.4181 58.6354 45.3226 58.5534 45.2428C58.4715 45.163 58.3744 45.1004 58.2678 45.0588C58.1612 45.0171 58.0474 44.9972 57.9331 45.0003L29.5847 45.7369C29.3618 45.7434 29.1502 45.8365 28.9947 45.9963C28.8392 46.1561 28.752 46.3701 28.7515 46.5931Z" fill="#E0E0E0"/>
<path id="Vector_67" d="M56.2804 50.3167C56.2804 50.3397 55.919 50.1348 55.2331 49.9185C54.2606 49.6152 53.232 49.5365 52.2247 49.6883C51.5364 49.7972 50.8698 50.0147 50.2498 50.3328C49.5418 50.7134 48.8864 51.1846 48.3002 51.7346C47.6603 52.3008 47.025 52.9407 46.2931 53.5322C45.5466 54.1688 44.6734 54.6396 43.7312 54.9133C43.243 55.0393 42.7349 55.0698 42.2351 55.003C41.7558 54.9307 41.2902 54.7864 40.854 54.5749C40.0555 54.1582 39.2809 53.6972 38.5339 53.1939C37.8645 52.7498 37.1265 52.4193 36.3495 52.2156C35.6721 52.0513 34.9725 51.9976 34.2779 52.0568C33.2643 52.1412 32.2833 52.4561 31.41 52.9775C30.7954 53.355 30.5054 53.6358 30.4893 53.6174C30.5511 53.5422 30.6205 53.4736 30.6964 53.4125C30.9049 53.2253 31.1281 53.0552 31.3639 52.9038C32.1014 52.4277 32.927 52.1045 33.7917 51.9535C34.6564 51.8025 35.5427 51.8266 36.3979 52.0246C37.1965 52.224 37.9559 52.5562 38.6444 53.0074C39.3869 53.5008 40.1552 53.9541 40.9461 54.3655C41.7901 54.7954 42.7601 54.9089 43.6806 54.6854C44.5919 54.417 45.4366 53.9598 46.1596 53.3435C46.8823 52.7657 47.5199 52.1282 48.169 51.5619C48.7721 51.0056 49.4453 50.5304 50.1715 50.1486C50.8114 49.8385 51.4968 49.6326 52.2017 49.5387C53.2297 49.3949 54.2772 49.4967 55.2584 49.8356C55.5236 49.9259 55.7814 50.0367 56.0295 50.1671C56.118 50.2081 56.2021 50.2583 56.2804 50.3167Z" fill="#455A64"/>
<path id="Vector_68" d="M38.2204 55.3167H35.4468V62.8158H38.2204V55.3167Z" fill="#1B89B0"/>
<path id="Vector_69" d="M49.9884 55.3167H47.2148V62.8158H49.9884V55.3167Z" fill="#1B89B0"/>
<path id="Vector_70" d="M53.9074 50.913H51.1338V62.8153H53.9074V50.913Z" fill="#1B89B0"/>
<path id="Vector_71" d="M34.6315 60.453H31.8579V62.9757H34.6315V60.453Z" fill="#1B89B0"/>
<path id="Vector_72" d="M42.1423 58.7014H39.3687V62.8146H42.1423V58.7014Z" fill="#1B89B0"/>
<path id="Vector_73" d="M46.0666 57.7595H43.293V62.8165H46.0666V57.7595Z" fill="#1B89B0"/>
<path id="Vector_74" d="M38.3309 63.7003C38.3309 63.7625 37.6611 63.8108 36.8324 63.8108C36.0038 63.8108 35.334 63.7625 35.334 63.7003C35.334 63.6382 36.0061 63.5898 36.8324 63.5898C37.6588 63.5898 38.3309 63.6382 38.3309 63.7003Z" fill="#263238"/>
<path id="Vector_75" d="M34.8826 63.7003C34.8826 63.7625 34.2105 63.8108 33.3842 63.8108C32.5579 63.8108 31.8857 63.7625 31.8857 63.7003C31.8857 63.6382 32.5579 63.5898 33.3842 63.5898C34.2105 63.5898 34.8826 63.6382 34.8826 63.7003Z" fill="#263238"/>
<path id="Vector_76" d="M54.456 63.7003C54.456 63.7625 53.6965 63.8108 52.762 63.8108C51.8275 63.8108 51.0679 63.7625 51.0679 63.7003C51.0679 63.6382 51.8252 63.5898 52.762 63.5898C53.6988 63.5898 54.456 63.6382 54.456 63.7003Z" fill="#263238"/>
<path id="Vector_77" d="M48.6418 63.8108C49.5775 63.8108 50.3359 63.7613 50.3359 63.7003C50.3359 63.6393 49.5775 63.5898 48.6418 63.5898C47.7062 63.5898 46.9478 63.6393 46.9478 63.7003C46.9478 63.7613 47.7062 63.8108 48.6418 63.8108Z" fill="#263238"/>
<path id="Vector_78" d="M46.062 63.7003C46.062 63.7625 45.3922 63.8108 44.5635 63.8108C43.7349 63.8108 43.0674 63.7625 43.0674 63.7003C43.0674 63.6382 43.7372 63.5898 44.5635 63.5898C45.3898 63.5898 46.062 63.6382 46.062 63.7003Z" fill="#263238"/>
<path id="Vector_79" d="M42.013 63.7003C42.013 63.7625 41.3409 63.8108 40.5146 63.8108C39.6882 63.8108 39.0161 63.7625 39.0161 63.7003C39.0161 63.6382 39.6859 63.5898 40.5146 63.5898C41.3432 63.5898 42.013 63.6382 42.013 63.7003Z" fill="#263238"/>
<path id="Vector_80" d="M24.051 26.0579H24.097C24.1444 26.062 24.1905 26.0753 24.2328 26.097C24.3035 26.1332 24.3614 26.1903 24.3985 26.2605C24.4431 26.36 24.4598 26.4698 24.4469 26.5781C24.4469 27.0661 24.4469 27.7819 24.4584 28.7003C24.4699 29.6187 24.4584 30.7512 24.4699 32.0609C24.4699 32.7176 24.4699 33.4174 24.4699 34.1601V35.0048C24.4831 35.1094 24.4638 35.2154 24.4147 35.3086C24.3601 35.4049 24.27 35.4759 24.1638 35.5066C24.0613 35.5251 23.957 35.5312 23.853 35.525H23.25L23.2914 35.4836C23.2914 36.1465 23.2914 36.8646 23.2914 37.6058V37.7278L23.2108 37.6357L21.3303 35.5158L21.3671 35.5319H1.98181H0.626076C0.550118 35.5319 0.483368 35.5319 0.395901 35.5319C0.311736 35.5215 0.232082 35.488 0.165726 35.4352C0.099187 35.3799 0.049039 35.3075 0.0207149 35.2258C0.00803999 35.1839 0.00107265 35.1406 0 35.0969V30.1942C0 29.0548 0 27.9338 0 26.8382V26.4239C0.00269233 26.3468 0.025308 26.2717 0.0656464 26.206C0.105985 26.1402 0.16267 26.086 0.230175 26.0487C0.30175 26.0139 0.380815 25.9973 0.46035 26.0004H2.65622L13.7898 26.0142L21.2935 26.0326L23.3351 26.0441H21.2935L13.7898 26.0625L2.65622 26.0763H0.46265C0.403791 26.0721 0.344902 26.0841 0.29232 26.1108C0.240588 26.1374 0.196766 26.1772 0.165252 26.2261C0.133738 26.2749 0.115641 26.3313 0.112783 26.3894V30.1942C0.112783 31.3343 0.112783 32.4936 0.112783 33.6721V35.0048C0.10696 35.0735 0.112405 35.1427 0.128897 35.2097C0.147566 35.2695 0.183625 35.3224 0.232475 35.3616C0.281853 35.4017 0.341847 35.4264 0.405107 35.4329H1.9795H21.3648H21.3879L21.4017 35.449L23.2776 37.5759L23.197 37.6058C23.197 36.8623 23.197 36.1465 23.197 35.4836V35.4398H23.8507C23.9468 35.4468 24.0433 35.4429 24.1384 35.4283C24.2237 35.4031 24.2961 35.3463 24.341 35.2695C24.3871 35.1893 24.408 35.0971 24.4008 35.0048C24.4008 34.9081 24.4008 34.8115 24.4008 34.7171V34.1509C24.4008 33.4074 24.4008 32.7077 24.4008 32.0517C24.4008 30.742 24.4008 29.6141 24.4008 28.6911C24.4008 27.7681 24.4008 27.0569 24.4008 26.5689C24.4158 26.4644 24.4022 26.3579 24.3617 26.2605C24.3272 26.1928 24.2736 26.1367 24.2075 26.0993C24.158 26.0769 24.1051 26.0629 24.051 26.0579Z" fill="#263238"/>
<path id="Vector_81" d="M1.28906 33.8239C1.48241 33.1495 1.70798 32.4612 2.15682 31.9226C2.60566 31.384 3.33532 31.0226 4.01433 31.1976C5.08925 31.4738 5.60715 32.9055 6.70508 33.039C7.31274 33.1218 7.90429 32.7582 8.29559 32.2863C8.68689 31.8144 8.92857 31.2413 9.2278 30.7073C9.68815 29.904 10.2935 29.1605 11.1198 28.7577C11.9462 28.3549 13.0096 28.3526 13.7323 28.9211C14.9707 29.8971 14.798 32.0515 16.1169 32.9124C16.4377 33.1141 16.8111 33.2158 17.1898 33.2048C17.5685 33.1937 17.9354 33.0703 18.2438 32.8502C18.8307 32.4152 19.1299 31.6648 19.7468 31.2758C20.4603 30.8155 21.4501 31.0019 22.0969 31.5451C22.7437 32.0883 23.0797 32.9262 23.2017 33.7594" fill="#FF725E"/>
<path id="Vector_82" d="M22.7546 29.9542C22.736 29.9503 22.7181 29.9433 22.7017 29.9335L22.5498 29.8622C22.3512 29.7778 22.1466 29.7085 21.9375 29.655C21.1608 29.4883 20.3553 29.512 19.5897 29.7241C19.0617 29.8672 18.5478 30.0582 18.0545 30.2949C17.5182 30.5435 16.9634 30.8473 16.3719 31.1535C15.7552 31.487 15.1134 31.7718 14.4522 32.0051C13.7374 32.2581 12.9787 32.3638 12.2218 32.3158C11.469 32.2446 10.7315 32.0583 10.0352 31.7634C9.35617 31.4918 8.73239 31.1719 8.13854 30.8726C6.95544 30.265 5.83679 29.7793 4.85164 29.632C4.07029 29.4895 3.26552 29.5481 2.51306 29.8023C2.24039 29.9049 1.9783 30.0336 1.73047 30.1867C1.74417 30.1725 1.75964 30.1601 1.7765 30.1499L1.91461 30.0509C2.09738 29.9338 2.29175 29.8358 2.49465 29.7586C3.25311 29.4833 4.0702 29.4103 4.86545 29.5468C5.87592 29.6872 6.99917 30.1706 8.18688 30.7737C8.78303 31.0706 9.4068 31.3882 10.0789 31.6552C10.7645 31.9442 11.4903 32.1266 12.231 32.1961C12.9722 32.2435 13.7153 32.1402 14.4154 31.8923C15.0708 31.664 15.7073 31.3846 16.319 31.0568C16.9128 30.7506 17.4698 30.4514 18.013 30.2051C18.5131 29.9693 19.034 29.7805 19.569 29.6412C20.3474 29.4323 21.1657 29.422 21.949 29.6113C22.2348 29.68 22.507 29.7959 22.7546 29.9542Z" fill="#263238"/>
<path id="Vector_83" d="M12.487 28.4841C12.4893 28.5323 12.4771 28.5801 12.452 28.6213C12.4269 28.6626 12.39 28.6953 12.3461 28.7154C12.3021 28.7355 12.2532 28.7419 12.2056 28.7339C12.158 28.726 12.1139 28.7039 12.0789 28.6706C12.044 28.6373 12.0198 28.5943 12.0095 28.5471C11.9992 28.5 12.0032 28.4508 12.0211 28.406C12.039 28.3611 12.07 28.3227 12.1099 28.2956C12.1499 28.2685 12.197 28.254 12.2453 28.2539C12.3073 28.2544 12.3668 28.2785 12.4117 28.3212C12.4566 28.364 12.4835 28.4222 12.487 28.4841Z" fill="#455A64"/>
<path id="Vector_84" d="M21.07 29.5096C21.07 29.5579 21.0557 29.605 21.0289 29.6452C21.0021 29.6853 20.964 29.7166 20.9194 29.735C20.8748 29.7535 20.8257 29.7583 20.7784 29.7489C20.7311 29.7395 20.6876 29.7163 20.6535 29.6821C20.6194 29.648 20.5961 29.6045 20.5867 29.5572C20.5773 29.5099 20.5821 29.4608 20.6006 29.4162C20.6191 29.3717 20.6503 29.3336 20.6905 29.3067C20.7306 29.2799 20.7778 29.2656 20.826 29.2656C20.8907 29.2656 20.9528 29.2913 20.9985 29.3371C21.0443 29.3828 21.07 29.4449 21.07 29.5096Z" fill="#455A64"/>
</g>
<path id="Vector_85" d="M69.6469 7H62.3531C62.1581 7 62 7.15808 62 7.35307V14.6469C62 14.8419 62.1581 15 62.3531 15H69.6469C69.8419 15 70 14.8419 70 14.6469V7.35307C70 7.15808 69.8419 7 69.6469 7Z" fill="#D5F4FD"/>
<path id="Vector_86" d="M68.9417 9H68.9304C68.5889 9 68.3121 9.01687 68.3121 9.03892C68.4929 9.07504 68.6797 9.08818 68.8657 9.07785C68.8349 9.10379 68.7896 9.14142 68.7329 9.19202L68.2474 9.63315L66.6288 11.1226L65.9474 10.7528C65.826 10.6893 65.7062 10.6231 65.5946 10.5647L65.5573 10.5465L65.5298 10.5725C64.8096 11.2472 64.1718 11.8505 63.717 12.2864L63.1845 12.8054C63.1159 12.8657 63.0541 12.9309 63 13C63.0756 12.947 63.1465 12.8897 63.212 12.8287L63.7672 12.3279C64.2285 11.9063 64.8646 11.3185 65.5751 10.6555L65.8988 10.8255L66.6159 11.2069L66.6515 11.2264L66.679 11.2005L68.2975 9.66818L68.7653 9.21278C68.8268 9.1531 68.8689 9.10898 68.8948 9.08304H68.9029C68.8892 9.23329 68.905 9.38434 68.9498 9.53065C68.9773 9.53065 68.9984 9.31398 69 9.04411V9.00519L68.9417 9Z" fill="#1B89B0"/>
</g>
<g id="Group 1000004313">
<path id="Vector_87" d="M105.5 18.4991H110C110 19.3849 109.739 20.251 109.249 20.989C108.759 21.7269 108.062 22.3038 107.246 22.6475C106.429 22.9912 105.53 23.0862 104.66 22.9209C103.79 22.7555 102.988 22.3369 102.354 21.7177C101.721 21.0985 101.284 20.3062 101.099 19.4399C100.914 18.5737 100.989 17.6721 101.314 16.848C101.639 16.024 102.2 15.3142 102.926 14.8076C103.653 14.301 104.513 14.0201 105.398 14L105.5 18.4991Z" fill="#71CAEA"/>
<path id="Vector_88" d="M106.087 18L106 14C107.046 13.9996 108.052 14.4043 108.817 15.1325C109.55 15.8778 109.973 16.8825 110 17.9383L106.087 18Z" fill="#7DDDF7"/>
</g>
</g>
<g id="Group 1000004324">
<g id="Group 1000004067">
<path id="Vector_89" d="M68.3408 53.5027L69.7534 54.8069L69.6646 53.8168L68.3408 53.5027Z" fill="#002D44"/>
<path id="Vector_90" d="M92.6167 76.2426C92.8151 75.529 91.8284 74.6314 90.4127 74.2378C88.9971 73.8441 87.6886 74.1035 87.4902 74.8171C87.2917 75.5307 88.2785 76.4283 89.6941 76.8219C91.1098 77.2156 92.4182 76.9562 92.6167 76.2426Z" fill="#002D44"/>
<path id="Vector_91" d="M104.363 90.4477C105.814 90.4477 106.991 90.0869 106.991 89.6418C106.991 89.1967 105.814 88.8358 104.363 88.8358C102.911 88.8358 101.735 89.1967 101.735 89.6418C101.735 90.0869 102.911 90.4477 104.363 90.4477Z" fill="#002D44"/>
<path id="Vector_92" d="M88.6013 74.8846L87.8906 77.7011L91.2553 78.4399L91.5824 75.3504C91.5824 75.3504 89.6954 74.7481 88.6013 74.8846Z" fill="#F6CAA7"/>
<path id="Vector_93" d="M101.038 93.7599L101.016 95.2439L115.632 96.0001C115.632 96.0001 116.416 95.5711 115.883 94.6178C115.35 93.6645 101.036 93.7599 101.036 93.7599H101.038Z" fill="#D3D3D3"/>
<path id="Vector_94" d="M102.323 89.2343L102.146 91.1235L103.595 91.9013L104.609 92.8675H105.954L105.369 91.1278L106.598 90.3608L106.29 89.2343H102.323Z" fill="#F6CAA7"/>
<path id="Vector_95" d="M102.02 91.0022H103.617L104.906 92.7679L105.578 92.5989L105.355 91.143L106.7 90.3024L115.888 94.616C115.888 94.616 115.945 95.5411 115.132 95.4284C114.32 95.3158 101.041 94.5033 101.041 94.5033C101.041 94.5033 100.79 92.0378 102.023 91.0022H102.02Z" fill="#624040"/>
<path id="Vector_96" d="M85.5928 80.6486C85.5928 80.6486 88.7473 84.2689 92.5735 83.6341C92.5735 83.6341 92.7619 85.2568 92.1661 85.4561C91.6158 85.6403 87.7594 85.5341 85.6188 83.5886C85.3004 83.3004 85.1444 82.8714 85.192 82.4446C85.2549 81.8835 85.3784 81.0905 85.5928 80.6486Z" fill="#D3D3D3"/>
<path id="Vector_97" d="M79.5739 13.996L77.1235 22.9481L92.428 28.0764L93.767 14.1693L79.5739 13.996Z" fill="#643216"/>
<path id="Vector_98" d="M81.2319 21.185L83.4006 20.3141L88.0002 23.5986L87.4976 25.7218L81.2319 21.185Z" fill="#3D3C3B"/>
<path id="Vector_99" d="M79.9212 12.7646L79.4532 10.2535C79.4532 10.2535 77.9583 11.2025 78.1966 12.2966C78.435 13.3907 79.1781 14.1707 79.9212 14.1707C80.6643 14.1707 79.9212 12.7646 79.9212 12.7646Z" fill="#ECCEAE"/>
<path id="Vector_100" d="M92.3599 13.6027L92.869 11.0917C92.869 11.0917 94.4982 12.0406 94.2361 13.1347C93.9739 14.2288 93.1658 15.0088 92.3577 15.0088C91.5496 15.0088 92.3577 13.6027 92.3577 13.6027H92.3599Z" fill="#ECCEAE"/>
<path id="Vector_101" d="M82.696 19.018L82.0244 22.9568L85.649 26.3539L86.923 25.2013C86.923 25.2013 86.7822 23.3164 86.9555 22.686C87.1288 22.0555 88.4049 18.446 88.9422 18.2359C89.4795 18.0257 82.696 19.018 82.696 19.018Z" fill="#ECCEAE"/>
<path id="Vector_102" d="M79.5769 13.999C79.5769 13.999 80.6234 21.1096 86.2932 20.2365C91.9631 19.3634 93.8826 9.5511 93.8826 9.5511L90.1757 2.78931L81.7565 3.4436L79.0093 6.93391L79.5769 13.999Z" fill="#ECCEAE"/>
<path id="Vector_103" d="M87.5005 11.7844C87.5005 11.7844 89.1622 10.1659 90.7525 11.546C90.7525 11.546 90.5445 12.2957 90.0267 12.4733C89.5089 12.651 88.0898 12.7203 87.5005 11.7844Z" fill="white"/>
<path id="Vector_104" d="M84.069 10.9944C84.069 10.9944 82.6759 9.13986 80.8906 10.26C80.8906 10.26 80.9816 11.0334 81.4669 11.2869C81.9522 11.5404 83.3432 11.8285 84.069 10.9944Z" fill="white"/>
<path id="Vector_105" d="M87.0982 8.36598C87.0982 8.36598 88.6061 7.49286 90.0686 8.24899C91.531 9.00511 91.6003 9.8999 91.6003 9.8999C91.6003 9.8999 90.4694 8.7213 89.9256 8.67363C89.3818 8.62597 87.2845 8.92062 87.2845 8.92062C87.2845 8.92062 86.9552 8.79063 87.0961 8.36598H87.0982Z" fill="#643216"/>
<path id="Vector_106" d="M84.8668 8.05111C84.8668 8.05111 83.4413 7.05017 81.9182 7.67197C80.3951 8.29377 80.2456 9.18205 80.2456 9.18205C80.2456 9.18205 81.4762 8.10744 82.02 8.10744C82.5638 8.10744 84.6285 8.58625 84.6285 8.58625C84.6285 8.58625 84.9687 8.48659 84.8647 8.05111H84.8668Z" fill="#643216"/>
<path id="Vector_107" d="M82.2691 11.5972C82.7513 11.5972 83.1422 11.2063 83.1422 10.7241C83.1422 10.2419 82.7513 9.85095 82.2691 9.85095C81.7869 9.85095 81.396 10.2419 81.396 10.7241C81.396 11.2063 81.7869 11.5972 82.2691 11.5972Z" fill="#643216"/>
<path id="Vector_108" d="M89.3303 12.5823C89.7419 12.5823 90.0755 12.2486 90.0755 11.837C90.0755 11.4254 89.7419 11.0917 89.3303 11.0917C88.9186 11.0917 88.585 11.4254 88.585 11.837C88.585 12.2486 88.9186 12.5823 89.3303 12.5823Z" fill="#643216"/>
<path id="Vector_109" d="M92.234 6.57597C92.234 6.57597 88.8975 3.21349 85.2036 3.78329C81.5096 4.3531 78.8469 8.22471 79.5446 12.0313C79.5446 12.0313 76.5937 8.22038 79.4341 3.7183C82.2744 -0.78379 92.5525 -2.30687 94.2012 5.55986C94.2012 5.55986 97.6266 9.113 94.2012 12.4755L92.9317 11.5872L92.234 6.57597Z" fill="#643216"/>
<path id="Vector_110" d="M87.5005 11.7892C87.5005 11.7892 88.4754 10.3311 91.162 11.2822L90.7525 11.5508C90.7525 11.5508 88.7918 10.8012 87.5005 11.7892Z" fill="#161515"/>
<path id="Vector_111" d="M91.5982 3.65844C91.5982 3.65844 79.8101 -2.72637 77.1235 11.0897C77.1235 11.0897 82.3211 0.445455 91.5982 3.65844Z" fill="#874422"/>
<path id="Vector_112" d="M90.7538 1.98974C90.7538 1.98974 85.5498 -1.0131 80.0034 3.46515C80.0034 3.46515 83.2381 -2.08121 90.7538 1.98974Z" fill="#874422"/>
<path id="Vector_113" d="M91.1596 3.51869C91.1596 3.51869 82.9072 0.689182 77.4648 10.4668C77.4648 10.4668 84.9069 2.03461 91.1596 3.51869Z" fill="#4C2818"/>
<path id="Vector_114" d="M85.8262 10.0077C85.8262 10.0077 84.3797 13.4377 84.6397 13.6826C84.8997 13.9274 85.2766 13.7606 85.541 13.949C85.7554 14.1007 85.9743 14.144 86.1758 14.0769C86.2884 14.0379 86.4097 14.0335 86.5246 14.066C86.6221 14.0942 86.7521 14.131 86.9189 14.1852C87.3284 14.3152 87.0211 10.253 87.0211 10.253" fill="#E0BFA0"/>
<path id="Vector_115" d="M82.7324 15.2499L85.0246 15.5272L85.3366 15.7482L85.7266 15.6095L87.2237 16.0255H88.1943C88.1943 16.0255 87.9451 16.5801 85.6984 16.552C83.4517 16.5238 82.7324 15.2499 82.7324 15.2499Z" fill="#DF8D76"/>
<path id="Vector_116" d="M82.7324 15.2499C82.7324 15.2499 84.8015 16.6581 88.1943 16.0255C88.1943 16.0255 85.146 17.0091 82.7324 15.2499Z" fill="#A86C5E"/>
<path id="Vector_117" d="M84.0686 11.0014C84.0686 11.0014 83.2583 9.24436 80.4678 9.83149L80.8902 10.267C80.8902 10.267 82.9181 9.85315 84.0686 11.0014Z" fill="#161515"/>
<path id="Vector_118" d="M84.0718 10.9936L84.6329 8.5822C84.6329 8.5822 82.2432 8.06223 82.0244 8.1034C81.8056 8.14456 80.7765 8.63203 80.25 9.178L80.471 9.82363C80.471 9.82363 81.4048 9.64598 81.8142 9.70447C82.2237 9.76297 83.4652 9.93196 84.0718 10.9936Z" fill="#E0BFA0"/>
<path id="Vector_119" d="M87.2871 8.92628L87.5016 11.7926C87.5016 11.7926 88.2729 10.3215 91.1631 11.2856L91.6007 9.90556C91.6007 9.90556 90.5304 8.85262 90.0776 8.71612C89.6248 8.57963 87.2871 8.92844 87.2871 8.92844V8.92628Z" fill="#E0BFA0"/>
<path id="Vector_120" d="M97.2578 36.3393L96.4106 37.8364L98.9802 38.4408L100.163 37.3901L97.5611 35.3535L97.2578 36.3393Z" fill="#E5E5E5"/>
<path id="Vector_121" d="M70.3235 52.4988C70.3235 52.4988 65.0956 60.7729 70.3235 64.105L96.8095 61.9796L101.777 89.5554C101.777 89.5554 105.809 88.8101 106.994 89.5554C106.994 89.5554 105.246 62.2634 105.246 60.671C105.246 59.0786 104.904 46.244 80.8724 51.2487L70.3257 52.501L70.3235 52.4988Z" fill="#E47C93"/>
<path id="Vector_122" d="M88.057 50.6693L93.6619 44.8283L99.0046 44.3213L99.9557 44.5856L100.703 46.0372C100.703 46.0372 101.758 52.4112 99.999 56.7638C98.2398 61.1164 92.5244 76.5032 92.5244 76.5032C92.5244 76.5032 91.9438 74.8328 87.4634 74.8328L92.2601 50.5653L88.0548 50.6693H88.057Z" fill="#E47C93"/>
<path id="Vector_123" d="M100.522 42.1359C100.522 42.1359 99.5605 43.8279 99.9505 44.5884L100.189 44.6837C100.189 44.6837 101.627 47.2316 102.925 48.0007C104.223 48.7698 104.054 51.1487 103.718 51.582C103.382 52.0153 104.151 52.5201 104.463 51.9417C104.463 51.9417 104.078 52.7108 104.104 52.9274C104.13 53.1441 104.249 54.0324 105.042 53.0964C105.042 53.0964 104.825 53.9609 105.161 54.106C105.497 54.2512 106.002 53.7702 106.194 52.8559C106.387 51.9417 106.747 50.8844 106.194 49.4913C105.642 48.0982 102.565 42.7598 100.522 42.1359Z" fill="#F6CAA7"/>
<path id="Vector_124" d="M96.801 37.3404L94.8576 39.8233L94.3203 40.9477V42.7221C94.3203 42.7221 95.0071 43.1836 95.1956 42.5467C95.1956 42.5467 95.7091 43.3223 96.333 42.6095C96.333 42.6095 97.1325 43.0471 97.5701 42.5965C97.5701 42.5965 98.1703 43.058 98.5191 42.6333L99.0152 38.1139C99.0152 38.1139 98.6079 36.1683 96.801 37.3383V37.3404Z" fill="#F5D4B6"/>
<path id="Vector_125" d="M99.0019 41.9921L100.523 42.1394L99.9508 44.5919L98.7722 44.3493C98.7722 44.3493 98.2522 42.2975 98.9997 41.9921" fill="#E5E5E5"/>
<path id="Vector_126" d="M84.7857 24.952L87.9641 25.4287L93.7704 33.8024L89.0863 41.8468L81.8869 38.6988L81.5728 25.8988L84.7857 24.952Z" fill="#D7F0FF"/>
<path id="Vector_127" d="M94.562 41.4394L95.4763 39.5437L94.8263 41.4286L94.562 41.4394Z" fill="#CCA687"/>
<path id="Vector_128" d="M95.4658 41.4723L96.3801 39.5765L95.7301 41.4614L95.4658 41.4723Z" fill="#CCA687"/>
<path id="Vector_129" d="M96.6821 41.4436L97.5964 39.5479L96.9464 41.4327L96.6821 41.4436Z" fill="#CCA687"/>
<path id="Vector_130" d="M97.3433 41.7435L98.2554 39.8478L97.6076 41.7305L97.3433 41.7435Z" fill="#CCA687"/>
<path id="Vector_131" d="M104.543 51.6429C104.543 51.6429 104.996 49.875 104.385 48.4993C104.385 48.4993 105.288 50.0115 104.543 51.6429Z" fill="#CCA687"/>
<path id="Vector_132" d="M105.1 52.8978C105.1 52.8978 106.101 51.366 105.394 49.4399C105.394 49.4399 106.395 51.6607 105.1 52.8978Z" fill="#CCA687"/>
<path id="Vector_133" d="M102.228 47.4711L102.754 50.4068C102.754 50.4068 103.329 50.8531 103.417 50.2876C103.506 49.7221 103.008 47.1483 103.008 47.1483L102.505 46.663L102.23 47.4689L102.228 47.4711Z" fill="#F6CAA7"/>
<path id="Vector_134" d="M101.164 46.1823C101.164 46.1823 102.975 48.2036 103.952 48.2166C103.952 48.2166 102.305 48.0628 101.164 46.1823Z" fill="#CCA687"/>
<path id="Vector_135" d="M80.2394 22.4149C80.2394 22.4149 76.344 20.8983 74.2532 23.314C72.1625 25.7297 75.1394 30.8796 75.1394 30.8796C75.1394 30.8796 78.3177 37.4399 78.4802 39.6519C78.6427 41.864 78.9503 45.7291 82.6984 45.6489C86.4466 45.5688 99.0039 44.3209 99.0039 44.3209C99.0039 44.3209 98.6009 42.9126 99.0039 41.9875C99.4069 41.0624 87.285 40.8609 87.285 40.8609C87.285 40.8609 87.8288 36.7553 87.5017 35.1455C87.1745 33.5358 84.839 29.1095 84.7177 26.4533C84.5963 23.7972 80.2416 22.4171 80.2416 22.4171L80.2394 22.4149Z" fill="#E47C93"/>
<path id="Vector_136" d="M89.2419 29.388C89.2419 29.388 89.6037 29.791 90.3295 31.5199C91.0553 33.2488 93.6313 36.9882 88.5399 41.1957L90.7736 41.2802C90.7736 41.2802 93.549 39.2068 93.2673 34.9799L97.2516 36.3491C97.2516 36.3491 99.2232 35.3438 99.2643 38L112.222 38.403C112.222 38.403 113.269 35.6255 110.13 34.8607C106.99 34.0959 88.1001 25.7244 88.1001 25.7244L89.244 29.3858L89.2419 29.388Z" fill="#E47C93"/>
<path id="Vector_137" d="M75.3576 29.0272L84.6478 42.1717L88.97 42.4555L88.0514 50.671L73.828 54.807L69.6553 53.8169L68.3315 53.5027C68.3315 53.5027 68.208 50.8227 69.5729 48.8533C70.9379 46.8839 75.6826 40.2109 75.3576 29.0272Z" fill="#E47C93"/>
<path id="Vector_138" d="M80.9317 22.5817C80.9317 22.5817 84.3245 24.0831 84.9095 26.358C85.4945 28.6328 85.2453 29.1181 85.9148 30.0129C86.5842 30.9077 87.9253 32.9421 87.8408 34.2789C87.7563 35.6156 87.5635 40.8717 87.5635 40.8717L87.284 40.8673C87.284 40.8673 86.8421 35.0501 86.4217 34.7252C86.0014 34.4002 81.8655 27.959 82.1991 26.7024L84.5802 26.9061L82.7841 26.0546C82.7841 26.0546 82.158 23.8664 81.4473 23.5024C80.7367 23.1385 80.9317 22.5838 80.9317 22.5838V22.5817Z" fill="#EF92A7"/>
<path id="Vector_139" d="M79.8799 22.3703L81.2318 21.1809L86.9233 25.2042L85.3158 27.9102C85.3158 27.9102 82.9932 22.704 79.8799 22.3725V22.3703Z" fill="#D7F0FF"/>
<path id="Vector_140" d="M86.8228 22.7379C86.8228 22.7379 89.0976 24.534 86.8553 25.2403C86.8553 25.2403 86.9766 25.4093 87.1456 25.7213C87.4554 26.2932 87.9212 27.344 88.0772 28.7046C88.0772 28.7046 89.8386 23.7822 86.8228 22.7379Z" fill="#D7F0FF"/>
<path id="Vector_141" d="M82.7026 19.5294C82.7026 19.5294 84.8107 22.8746 88.0063 19.6616C88.0063 19.6616 84.9862 21.462 82.7026 19.5294Z" fill="#CCA687"/>
<path id="Vector_142" d="M69.9595 54.4597C69.9595 54.4597 77.8154 49.5828 87.6277 50.8502C97.44 52.1176 87.0969 50.6704 87.0969 50.6704C87.0969 50.6704 75.3412 48.571 69.9595 54.4597Z" fill="#AD5165"/>
<path id="Vector_143" d="M93.961 46.667C93.961 46.667 89.4633 53.9314 90.371 62.5196C90.371 62.5196 88.4255 52.2697 93.961 46.667Z" fill="#AD5165"/>
<path id="Vector_144" d="M100.524 55.0925C100.524 55.0925 100.771 60.7819 97.3433 63.6504L100.524 55.0925Z" fill="#AD5165"/>
<path id="Vector_145" d="M86.5699 25.8025L85.3154 27.9127L85.4476 28.0817L86.5699 25.8025Z" fill="#3D3C3B"/>
<path id="Vector_146" d="M87.133 25.9543C87.133 25.9543 87.7808 26.7538 87.9173 27.7894L88.0538 28.825C88.0538 28.825 88.2141 26.5111 87.1309 25.9565L87.133 25.9543Z" fill="#3D3C3B"/>
<path id="Vector_147" d="M88.0591 28.8258L88.4946 26.9691L88.5639 27.1879L88.0591 28.8258Z" fill="#3D3C3B"/>
<path id="Vector_148" d="M84.0786 25.7244L85.3135 27.9169L85.4457 27.6959L84.0786 25.7244Z" fill="#3D3C3B"/>
<path id="Vector_149" d="M88.9744 26.1045L90.2071 28.2385L89.9406 29.3564L90.7661 29.1701C90.7661 29.1701 95.24 38.8199 89.5182 40.9518L88.5605 40.8933C88.5605 40.8933 90.8853 39.1839 91.1474 37.4593C91.4096 35.7348 90.9741 31.5902 89.2452 29.3803L88.5605 27.1856L88.9744 26.1023V26.1045Z" fill="#EF92A7"/>
<path id="Vector_150" d="M79.8812 27.8975L86.448 41.0397L86.2617 41.1242L79.6992 27.9126L79.8812 27.8975Z" fill="#AD5165"/>
<path id="Vector_151" d="M76.8115 33.2914C76.8115 33.2914 78.0898 41.8406 83.6795 44.9431C83.6795 44.9431 76.9957 42.3735 76.8115 33.2914Z" fill="#AD5165"/>
<path id="Vector_152" d="M88.1881 76.5366C88.1881 76.5366 90.5128 76.3177 91.3599 77.466C91.3599 77.466 91.4162 80.38 91.8257 81.4178C92.2352 82.4556 93.2751 84.3166 91.8257 84.3708C90.3763 84.425 86.7668 83.4673 85.755 82.0461C84.9339 80.8913 86.2772 79.3747 86.8101 78.8461C86.951 78.7053 87.0723 78.5471 87.1698 78.3738L88.1881 76.5366Z" fill="#624040"/>
<path id="Vector_153" d="M88.605 74.8932C88.605 74.8932 90.9232 75.0318 91.5602 75.6103L91.5407 75.7836C91.5407 75.7836 89.5561 74.982 88.54 75.1467L88.605 74.8932Z" fill="#CCA687"/>
<path id="Vector_154" d="M102.305 89.4696C102.305 89.4696 105.3 89.0342 106.316 89.318L106.405 89.6451C106.405 89.6451 103.792 89.409 102.273 89.8098L102.305 89.4696Z" fill="#CCA687"/>
<path id="Vector_155" d="M102.154 91.0007L102.169 90.8382L103.627 90.8685L104.936 92.6256L105.484 92.4999L105.235 91.0527L106.563 90.2489L106.593 90.3616L105.365 91.1285L105.57 92.5974L104.897 92.7664L103.521 91.0289L102.154 91.0007Z" fill="#CCA687"/>
<path id="Vector_156" d="M79.1523 11.7859L79.4903 13.3718C79.4903 13.3718 78.0712 12.5832 79.1523 11.7859Z" fill="#E0BFA0"/>
<path id="Vector_157" d="M92.4507 14.2115L93.1331 12.4761C93.1331 12.4761 94.3464 13.789 92.4507 14.2115Z" fill="#E0BFA0"/>
<path id="Vector_158" d="M93.1367 5.95251C93.1367 5.95251 95.0563 9.50565 93.3794 11.2541C93.3794 11.2541 95.9294 9.37566 93.1367 5.95251Z" fill="#874422"/>
</g>
<path id="Vector_159" d="M93.3715 10.0887L93.3956 9.77047L93.203 9.49211C91.4215 8.54264 88.7573 8.81368 87.1407 9.67632L85.7984 9.61164L85.8131 9.59155C84.3735 8.23242 81.8084 7.78645 79.7359 8.53375L79.7677 8.75774C79.7667 8.77115 79.7773 8.8047 79.7831 8.85139L79.8134 9.04635C79.9913 10.2891 80.2123 11.6064 80.5047 11.9772C80.7013 12.2271 81.4089 12.4096 81.9965 12.5195C82.218 12.5631 82.4218 12.5939 82.5681 12.6165C82.7443 12.6414 84.3072 12.8614 84.5943 12.6326C84.8814 12.4038 85.5534 10.4506 85.7402 9.86159L87.1156 9.93454C87.2439 10.4201 87.3632 12.5641 87.9905 13.0411C88.6178 13.5181 91.519 13.6079 91.8839 13.1422C92.1432 12.8091 93.1071 10.7874 93.3393 10.144L93.3715 10.0887ZM84.4544 12.4255C84.144 12.641 81.0284 12.2383 80.688 11.808C80.4007 11.4433 80.1466 9.67074 80.0507 9.00453L80.0528 8.97771C81.8941 8.41336 84.2062 8.81133 85.4608 9.96383C85.1182 10.9785 84.6342 12.2772 84.4548 12.4198L84.4544 12.4255ZM91.7037 12.9725C91.4753 13.2674 88.7846 13.3187 88.1378 12.8268C87.6876 12.4864 87.5498 10.9847 87.4053 10.1183C88.9825 9.30468 91.5887 9.10825 93.1614 10.067C92.7614 11.077 92.2736 12.0482 91.704 12.9687L91.7037 12.9725Z" fill="#263238"/>
</g>
</g>
</svg>
