<svg width="14" height="13" viewBox="0 0 14 13" fill="none" xmlns="http://www.w3.org/2000/svg">
<path d="M13.5005 0.863281C13.3679 0.863281 13.2407 0.915138 13.1469 1.00744C13.0532 1.09975 13.0005 1.22494 13.0005 1.35548V11.1996C13.0004 11.3301 12.9477 11.4552 12.8539 11.5475C12.7602 11.6398 12.6331 11.6916 12.5005 11.6918H0.500488C0.36788 11.6918 0.240703 11.7436 0.146935 11.8359C0.0531667 11.9282 0.000488281 12.0534 0.000488281 12.184C0.000488281 12.3145 0.0531667 12.4397 0.146935 12.532C0.240703 12.6243 0.36788 12.6762 0.500488 12.6762H12.5005C12.8982 12.6757 13.2795 12.52 13.5607 12.2432C13.8419 11.9664 14.0001 11.591 14.0005 11.1996V1.35548C14.0005 1.22494 13.9478 1.09975 13.854 1.00744C13.7603 0.915138 13.6331 0.863281 13.5005 0.863281Z" fill="#595656"/>
<path d="M0.500218 10.7075C0.574982 10.7076 0.648804 10.6911 0.716242 10.6593C0.78368 10.6275 0.843013 10.5813 0.889868 10.5239L4.09202 6.60982L6.70727 8.47434C6.76119 8.51279 6.82238 8.54025 6.88723 8.55511C6.95209 8.56997 7.0193 8.57193 7.08493 8.56087C7.15057 8.54981 7.21329 8.52596 7.26944 8.49071C7.32558 8.45547 7.374 8.40954 7.41187 8.35562L9.69287 5.10294L11.3302 5.68645C11.3921 5.70894 11.4579 5.71917 11.5238 5.71653C11.5897 5.7139 11.6544 5.69846 11.7142 5.6711C11.774 5.64374 11.8277 5.605 11.8722 5.55711C11.9168 5.50923 11.9513 5.45314 11.9737 5.39209C11.9961 5.33103 12.006 5.26621 12.0029 5.20136C11.9998 5.13651 11.9836 5.07291 11.9554 5.01423C11.9272 4.95554 11.8875 4.90293 11.8386 4.85942C11.7896 4.81591 11.7324 4.78236 11.6702 4.76071L9.67022 4.04785C9.56634 4.01091 9.45297 4.00885 9.34777 4.04198C9.24258 4.07511 9.15148 4.14157 9.08867 4.231L6.87922 7.38179L4.29342 5.53839C4.18977 5.46396 4.06095 5.43176 3.93379 5.44852C3.80663 5.46527 3.69093 5.52967 3.61082 5.62832L0.110818 9.9067C0.0515685 9.97898 0.0143173 10.0663 0.00337329 10.1585C-0.00757068 10.2508 0.00823994 10.3442 0.0489761 10.428C0.0897122 10.5118 0.153709 10.5825 0.233564 10.6319C0.313419 10.6814 0.405868 10.7076 0.500218 10.7075Z" fill="#595656"/>
</svg>
