<svg width="13" height="13" viewBox="0 0 13 13" fill="none" xmlns="http://www.w3.org/2000/svg">
<g id="carbon:text-creation">
<path id="Vector" d="M10.6257 8.78756V4.18256C10.8826 4.11745 11.1177 3.98544 11.307 3.79996C11.4963 3.61447 11.6331 3.38214 11.7034 3.1266C11.7738 2.87107 11.7752 2.60146 11.7074 2.34522C11.6397 2.08898 11.5053 1.85527 11.3179 1.66786C11.1305 1.48045 10.8968 1.34604 10.6405 1.27831C10.3843 1.21059 10.1147 1.21197 9.85914 1.2823C9.6036 1.35264 9.37127 1.48943 9.18579 1.67875C9.0003 1.86806 8.86829 2.10314 8.80318 2.36006H4.19818C4.13308 2.10314 4.00107 1.86806 3.81558 1.67875C3.6301 1.48943 3.39776 1.35264 3.14223 1.2823C2.88669 1.21197 2.61709 1.21059 2.36085 1.27831C2.10461 1.34604 1.87089 1.48045 1.68348 1.66786C1.49607 1.85527 1.36166 2.08898 1.29394 2.34522C1.22621 2.60146 1.22759 2.87107 1.29793 3.1266C1.36827 3.38214 1.50506 3.61447 1.69437 3.79996C1.88369 3.98544 2.11877 4.11745 2.37568 4.18256V8.78756C2.11877 8.85266 1.88369 8.98467 1.69437 9.17016C1.50506 9.35565 1.36827 9.58798 1.29793 9.84351C1.22759 10.099 1.22621 10.3687 1.29394 10.6249C1.36166 10.8811 1.49607 11.1149 1.68348 11.3023C1.87089 11.4897 2.10461 11.6241 2.36085 11.6918C2.61709 11.7595 2.88669 11.7582 3.14223 11.6878C3.39776 11.6175 3.6301 11.4807 3.81558 11.2914C4.00107 11.1021 4.13308 10.867 4.19818 10.6101H8.80318C8.86829 10.867 9.0003 11.1021 9.18579 11.2914C9.37127 11.4807 9.6036 11.6175 9.85914 11.6878C10.1147 11.7582 10.3843 11.7595 10.6405 11.6918C10.8968 11.6241 11.1305 11.4897 11.3179 11.3023C11.5053 11.1149 11.6397 10.8811 11.7074 10.6249C11.7752 10.3687 11.7738 10.099 11.7034 9.84351C11.6331 9.58798 11.4963 9.35565 11.307 9.17016C11.1177 8.98467 10.8826 8.85266 10.6257 8.78756ZM10.2507 1.98506C10.399 1.98506 10.544 2.02904 10.6674 2.11146C10.7907 2.19387 10.8868 2.311 10.9436 2.44805C11.0004 2.58509 11.0152 2.73589 10.9863 2.88138C10.9573 3.02686 10.8859 3.1605 10.781 3.26539C10.6761 3.37028 10.5425 3.44171 10.397 3.47065C10.2515 3.49959 10.1007 3.48473 9.96367 3.42797C9.82663 3.3712 9.70949 3.27507 9.62708 3.15174C9.54467 3.0284 9.50068 2.88339 9.50068 2.73506C9.50068 2.53615 9.5797 2.34538 9.72035 2.20473C9.86101 2.06408 10.0518 1.98506 10.2507 1.98506ZM2.00068 2.73506C2.00068 2.58672 2.04467 2.44172 2.12708 2.31838C2.20949 2.19504 2.32663 2.09891 2.46367 2.04215C2.60071 1.98538 2.75151 1.97053 2.897 1.99947C3.04249 2.02841 3.17612 2.09984 3.28101 2.20473C3.3859 2.30962 3.45733 2.44325 3.48627 2.58874C3.51521 2.73423 3.50036 2.88503 3.44359 3.02207C3.38683 3.15912 3.2907 3.27625 3.16736 3.35866C3.04402 3.44107 2.89902 3.48506 2.75068 3.48506C2.55177 3.48506 2.36101 3.40604 2.22035 3.26539C2.0797 3.12474 2.00068 2.93397 2.00068 2.73506ZM2.75068 10.9851C2.60235 10.9851 2.45734 10.9411 2.33401 10.8587C2.21067 10.7762 2.11454 10.6591 2.05777 10.5221C2.00101 10.385 1.98615 10.2342 2.01509 10.0887C2.04403 9.94325 2.11546 9.80962 2.22035 9.70473C2.32524 9.59984 2.45888 9.52841 2.60437 9.49947C2.74985 9.47053 2.90065 9.48538 3.0377 9.54215C3.17474 9.59891 3.29187 9.69504 3.37428 9.81838C3.4567 9.94172 3.50068 10.0867 3.50068 10.2351C3.50068 10.434 3.42167 10.6247 3.28101 10.7654C3.14036 10.906 2.9496 10.9851 2.75068 10.9851ZM8.80318 9.86006H4.19818C4.13085 9.60211 3.99599 9.36677 3.80748 9.17826C3.61897 8.98976 3.38363 8.85489 3.12568 8.78756V4.18256C3.38363 4.11522 3.61897 3.98036 3.80748 3.79185C3.99599 3.60335 4.13085 3.368 4.19818 3.11006H8.80318C8.87052 3.368 9.00538 3.60335 9.19389 3.79185C9.3824 3.98036 9.61774 4.11522 9.87568 4.18256V8.78756C9.61774 8.85489 9.3824 8.98976 9.19389 9.17826C9.00538 9.36677 8.87052 9.60211 8.80318 9.86006ZM10.2507 10.9851C10.1023 10.9851 9.95734 10.9411 9.83401 10.8587C9.71067 10.7762 9.61454 10.6591 9.55777 10.5221C9.50101 10.385 9.48616 10.2342 9.51509 10.0887C9.54403 9.94325 9.61546 9.80962 9.72035 9.70473C9.82524 9.59984 9.95888 9.52841 10.1044 9.49947C10.2499 9.47053 10.4007 9.48538 10.5377 9.54215C10.6747 9.59891 10.7919 9.69504 10.8743 9.81838C10.9567 9.94172 11.0007 10.0867 11.0007 10.2351C11.0007 10.434 10.9217 10.6247 10.781 10.7654C10.6404 10.906 10.4496 10.9851 10.2507 10.9851Z" fill="#112664"/>
<path id="Vector_2" d="M8.375 4.61133H4.625V5.36133H6.125V8.73633H6.875V5.36133H8.375V4.61133Z" fill="#112664"/>
</g>
</svg>
