<svg width="24" height="24" viewBox="0 0 24 24" fill="none" xmlns="http://www.w3.org/2000/svg">
<circle cx="12" cy="12" r="12" fill="#DEEBFF"/>
<mask id="mask0_231_153" style="mask-type:alpha" maskUnits="userSpaceOnUse" x="4" y="4" width="16" height="16">
<rect x="4" y="4" width="16" height="16" fill="#D9D9D9"/>
</mask>
<g mask="url(#mask0_231_153)">
<path d="M8 11.6667V8H11.6667V11.6667H8ZM8 16V12.3333H11.6667V16H8ZM12.3333 11.6667V8H16V11.6667H12.3333ZM12.3333 16V12.3333H16V16H12.3333ZM9.33333 10.3333H10.3333V9.33333H9.33333V10.3333ZM13.6667 10.3333H14.6667V9.33333H13.6667V10.3333ZM9.33333 14.6667H10.3333V13.6667H9.33333V14.6667ZM13.6667 14.6667H14.6667V13.6667H13.6667V14.6667ZM7.33333 18C6.96667 18 6.65278 17.8694 6.39167 17.6083C6.13056 17.3472 6 17.0333 6 16.6667V7.33333C6 6.96667 6.13056 6.65278 6.39167 6.39167C6.65278 6.13056 6.96667 6 7.33333 6H16.6667C17.0333 6 17.3472 6.13056 17.6083 6.39167C17.8694 6.65278 18 6.96667 18 7.33333V16.6667C18 17.0333 17.8694 17.3472 17.6083 17.6083C17.3472 17.8694 17.0333 18 16.6667 18H7.33333ZM7.33333 16.6667H16.6667V7.33333H7.33333V16.6667Z" fill="#043365"/>
</g>
</svg>
