<svg width="52" height="52" viewBox="0 0 52 52" fill="none" xmlns="http://www.w3.org/2000/svg">
<g id="teenyicons:tick-circle-solid" clip-path="url(#clip0_129_14431)">
<path id="Vector" fill-rule="evenodd" clip-rule="evenodd" d="M0 26C0 19.1044 2.73928 12.4912 7.61522 7.61522C12.4912 2.73928 19.1044 0 26 0C32.8956 0 39.5088 2.73928 44.3848 7.61522C49.2607 12.4912 52 19.1044 52 26C52 32.8956 49.2607 39.5088 44.3848 44.3848C39.5088 49.2607 32.8956 52 26 52C19.1044 52 12.4912 49.2607 7.61522 44.3848C2.73928 39.5088 0 32.8956 0 26ZM24.5163 37.128L39.4853 18.4149L36.7813 16.2517L24.0171 32.2019L14.976 24.6688L12.7573 27.3312L24.5163 37.128Z" fill="#20FF79"/>
</g>
<defs>
<clipPath id="clip0_129_14431">
<rect width="52" height="52" fill="white"/>
</clipPath>
</defs>
</svg>
