<svg width="19" height="18" viewBox="0 0 19 18" fill="none" xmlns="http://www.w3.org/2000/svg">
<mask id="mask0_7529_70136" style="mask-type:alpha" maskUnits="userSpaceOnUse" x="0" y="0" width="19" height="18">
<rect width="18.6488" height="18" fill="#D9D9D9"/>
</mask>
<g mask="url(#mask0_7529_70136)">
<path d="M6.99423 13.5C6.56686 13.5 6.20101 13.3531 5.89667 13.0594C5.59233 12.7656 5.44016 12.4125 5.44016 12V3C5.44016 2.5875 5.59233 2.23438 5.89667 1.94063C6.20101 1.64688 6.56686 1.5 6.99423 1.5H13.9875C14.4149 1.5 14.7808 1.64688 15.0851 1.94063C15.3894 2.23438 15.5416 2.5875 15.5416 3V12C15.5416 12.4125 15.3894 12.7656 15.0851 13.0594C14.7808 13.3531 14.4149 13.5 13.9875 13.5H6.99423ZM6.99423 12H13.9875V3H6.99423V12ZM3.8861 16.5C3.45873 16.5 3.09288 16.3531 2.78854 16.0594C2.4842 15.7656 2.33203 15.4125 2.33203 15V4.5H3.8861V15H12.4335V16.5H3.8861Z" fill="#B0B0B0"/>
</g>
</svg>
