<svg width="40" height="40" viewBox="0 0 40 40" fill="none" xmlns="http://www.w3.org/2000/svg">
<circle cx="20" cy="20" r="20" fill="#EBF4FE"/>
<mask id="mask0_3094_3870" style="mask-type:alpha" maskUnits="userSpaceOnUse" x="8" y="9" width="24" height="25">
<rect x="8" y="9.36621" width="24" height="24" fill="#D9D9D9"/>
</mask>
<g mask="url(#mask0_3094_3870)">
<path d="M19.2932 29C18.9634 29 18.6869 28.9042 18.4638 28.7125C18.2407 28.5208 18.1292 28.2833 18.1292 28V22L11.3779 14.6C11.0869 14.2667 11.0432 13.9167 11.2469 13.55C11.4506 13.1833 11.8047 13 12.3091 13H28.6054C29.1098 13 29.4638 13.1833 29.6675 13.55C29.8713 13.9167 29.8276 14.2667 29.5366 14.6L22.7853 22V28C22.7853 28.2833 22.6737 28.5208 22.4506 28.7125C22.2275 28.9042 21.9511 29 21.6213 29H19.2932ZM20.4572 21.3L26.2191 15H14.6953L20.4572 21.3Z" fill="#0D82FF"/>
</g>
</svg>
