<svg width="24" height="24" viewBox="0 0 24 24" fill="none" xmlns="http://www.w3.org/2000/svg">
<g id="Group 1000003606">
<g id="Group 1000003599">
<circle id="Ellipse 383" cx="12" cy="12" r="12" fill="#DEEBFF"/>
</g>
<g id="dashboard">
<mask id="mask0_218_3757" style="mask-type:alpha" maskUnits="userSpaceOnUse" x="4" y="4" width="16" height="16">
<rect id="Bounding box" x="4" y="4" width="16" height="16" fill="#D9D9D9"/>
</mask>
<g mask="url(#mask0_218_3757)">
<path id="dashboard_2" d="M12.6667 10V6H18V10H12.6667ZM6 12.6667V6H11.3333V12.6667H6ZM12.6667 18V11.3333H18V18H12.6667ZM6 18V14H11.3333V18H6ZM7.33333 11.3333H10V7.33333H7.33333V11.3333ZM14 16.6667H16.6667V12.6667H14V16.6667ZM14 8.66667H16.6667V7.33333H14V8.66667ZM7.33333 16.6667H10V15.3333H7.33333V16.6667Z" fill="#043365"/>
</g>
</g>
</g>
</svg>
