<svg width="101" height="98" viewBox="0 0 101 98" fill="none" xmlns="http://www.w3.org/2000/svg">
<mask id="path-1-inside-1_5174_5716" fill="white">
<path d="M94.5207 49.0551C94.5207 38.5319 90.3163 28.4339 82.8209 20.9549C75.3256 13.4759 65.1449 9.22013 54.4908 9.11233C43.8367 9.00452 33.5699 13.0533 25.921 20.3791C18.2721 27.7049 13.8591 37.7158 13.6408 48.2367C13.4225 58.7576 17.4166 68.9387 24.7552 76.5678C32.0937 84.1969 42.184 88.6577 52.8337 88.9811C63.4833 89.3044 73.832 85.4642 81.6312 78.2948C89.4305 71.1253 94.0502 61.2058 94.4867 50.6915L54.0765 49.0551H94.5207Z"/>
</mask>
<path d="M94.5207 49.0551C94.5207 38.5319 90.3163 28.4339 82.8209 20.9549C75.3256 13.4759 65.1449 9.22013 54.4908 9.11233C43.8367 9.00452 33.5699 13.0533 25.921 20.3791C18.2721 27.7049 13.8591 37.7158 13.6408 48.2367C13.4225 58.7576 17.4166 68.9387 24.7552 76.5678C32.0937 84.1969 42.184 88.6577 52.8337 88.9811C63.4833 89.3044 73.832 85.4642 81.6312 78.2948C89.4305 71.1253 94.0502 61.2058 94.4867 50.6915L54.0765 49.0551H94.5207Z" fill="#F0F0F0" stroke="#9CB6CA" stroke-width="2" mask="url(#path-1-inside-1_5174_5716)"/>
<path d="M76.536 26.0563H31.1709V59.9682H76.536V26.0563Z" fill="white"/>
<path d="M76.392 26.0563H31.0269V30.2482H76.392V26.0563Z" fill="#E0E0E0"/>
<path d="M33.5123 28.7563C33.8459 28.7563 34.1164 28.4858 34.1164 28.1522C34.1164 27.8186 33.8459 27.5481 33.5123 27.5481C33.1787 27.5481 32.9082 27.8186 32.9082 28.1522C32.9082 28.4858 33.1787 28.7563 33.5123 28.7563Z" fill="white"/>
<path d="M35.5465 28.7563C35.8801 28.7563 36.1506 28.4858 36.1506 28.1522C36.1506 27.8186 35.8801 27.5481 35.5465 27.5481C35.2128 27.5481 34.9424 27.8186 34.9424 28.1522C34.9424 28.4858 35.2128 28.7563 35.5465 28.7563Z" fill="white"/>
<path d="M37.5836 28.7563C37.9172 28.7563 38.1877 28.4858 38.1877 28.1522C38.1877 27.8186 37.9172 27.5481 37.5836 27.5481C37.25 27.5481 36.9795 27.8186 36.9795 28.1522C36.9795 28.4858 37.25 28.7563 37.5836 28.7563Z" fill="white"/>
<path d="M76.392 59.9682C76.392 59.9682 76.392 59.7554 76.392 59.347C76.392 58.9386 76.392 58.3345 76.392 57.5445C76.392 55.9671 76.392 53.651 76.3798 50.6966C76.3798 44.7878 76.3627 36.3159 76.3529 26.0587L76.4043 26.1101L31.044 26.1223L31.1076 26.0587C31.1076 38.2456 31.1076 49.7819 31.1076 59.9707L31.0489 59.912L63.7943 59.9413L73.0879 59.956H75.5532H76.189H76.4067H75.5678H73.1221L63.8285 59.9707L31.0562 60H31V59.9438C31 49.7623 31 38.2187 31 26.0318V26H31.0685H76.4287H76.4801V26.0538C76.4801 36.3257 76.4605 44.8098 76.4532 50.7259C76.4532 53.6779 76.4532 55.9891 76.4532 57.5739C76.4532 58.3589 76.4532 58.9581 76.4532 59.3641C76.4532 59.7701 76.392 59.9682 76.392 59.9682Z" fill="#263238"/>
<path d="M73.8924 46.4924C73.8924 46.5291 64.8654 46.556 53.7326 46.556C42.5998 46.556 33.5679 46.5291 33.5679 46.4924C33.5679 46.4557 42.5925 46.4288 53.7326 46.4288C64.8727 46.4288 73.8924 46.4582 73.8924 46.4924Z" fill="#E0E0E0"/>
<path d="M73.8924 43.0122C73.8924 43.0464 64.8654 43.0758 53.7326 43.0758C42.5998 43.0758 33.5679 43.0464 33.5679 43.0122C33.5679 42.978 42.5925 42.9486 53.7326 42.9486C64.8727 42.9486 73.8924 42.9755 73.8924 43.0122Z" fill="#E0E0E0"/>
<path d="M73.8924 39.5295C73.8924 39.5662 64.8654 39.5931 53.7326 39.5931C42.5998 39.5931 33.5679 39.5662 33.5679 39.5295C33.5679 39.4928 42.5925 39.4659 53.7326 39.4659C64.8727 39.4659 73.8924 39.4953 73.8924 39.5295Z" fill="#E0E0E0"/>
<path d="M73.8924 36.0494C73.8924 36.0837 64.8654 36.113 53.7326 36.113C42.5998 36.113 33.5679 36.0837 33.5679 36.0494C33.5679 36.0152 42.5925 35.9858 53.7326 35.9858C64.8727 35.9858 73.8924 36.0127 73.8924 36.0494Z" fill="#E0E0E0"/>
<path d="M40.335 44.9149H36.9795V51.6626H40.335V44.9149Z" fill="#FF725E"/>
<path d="M52.378 44.9149H49.0225V51.6626H52.378V44.9149Z" fill="#455A64"/>
<path d="M70.6421 47.214H67.2866V51.6603H70.6421V47.214Z" fill="#455A64"/>
<path d="M64.418 41.7184H61.0625V51.6601H64.418V41.7184Z" fill="#E0E0E0"/>
<path d="M58.5618 37.9833H54.9668V51.1648H58.5618V37.9833Z" fill="#FF725E"/>
<path d="M46.1167 41.7184H42.7612V51.6601H46.1167V41.7184Z" fill="#E0E0E0"/>
<path d="M73.4133 51.6626H73.2617H72.8214H71.129L64.8998 51.6822L44.356 51.7017H33.5167H33.4434V51.643C33.4434 46.2992 33.4629 41.7429 33.4678 38.5194C33.4678 36.9126 33.48 35.6384 33.4849 34.7604C33.4849 34.3275 33.4849 33.9925 33.4849 33.7601C33.4849 33.6501 33.4849 33.5669 33.4849 33.5033C33.4829 33.474 33.4829 33.4446 33.4849 33.4153C33.4849 33.4153 33.4849 33.4471 33.4849 33.5033V33.7601C33.4849 33.9925 33.4849 34.3275 33.4849 34.7604C33.4849 35.6384 33.4849 36.9126 33.5021 38.5194C33.5021 41.7429 33.5167 46.2992 33.5265 51.643L33.4678 51.5819H44.3511L64.895 51.599L71.1241 51.6186L72.8165 51.6308H73.2568L73.4133 51.6626Z" fill="#263238"/>
<path d="M42.0377 55.0841H40.563V56.5589H42.0377V55.0841Z" fill="#FF725E"/>
<path d="M51.0475 55.0377H49.5728V56.5125H51.0475V55.0377Z" fill="#E0E0E0"/>
<path d="M60.7936 55.0841H59.3188V56.5589H60.7936V55.0841Z" fill="#455A64"/>
<path d="M46.9191 55.7738C46.2519 55.8382 45.5812 55.8594 44.9112 55.8374C44.2413 55.8594 43.5706 55.8382 42.9033 55.7738C43.5707 55.7109 44.2413 55.6897 44.9112 55.7102C45.5812 55.6897 46.2518 55.7109 46.9191 55.7738Z" fill="#263238"/>
<path d="M55.8606 55.7738C55.1933 55.8382 54.5226 55.8594 53.8526 55.8374C53.1827 55.8594 52.512 55.8382 51.8447 55.7738C52.5121 55.7109 53.1827 55.6897 53.8526 55.7102C54.5226 55.6897 55.1932 55.7109 55.8606 55.7738Z" fill="#263238"/>
<path d="M65.3791 55.7738C64.0426 55.8586 62.7022 55.8586 61.3657 55.7738C62.7022 55.689 64.0426 55.689 65.3791 55.7738Z" fill="#263238"/>
<path d="M37.8326 42.7765C38.9569 42.7765 39.8717 41.8696 39.8717 40.7552C39.8717 40.3598 39.7522 39.9932 39.5533 39.6813L44.3334 34.6042C44.613 34.7472 44.9252 34.8358 45.2609 34.8358C45.5965 34.8358 45.9087 34.7472 46.1882 34.6042L50.9685 39.6811C50.7696 39.9931 50.65 40.3597 50.65 40.7552C50.65 41.8696 51.5649 42.7765 52.6892 42.7765C53.8134 42.7765 54.7283 41.8696 54.7283 40.7552C54.7283 40.3598 54.6088 39.9932 54.4099 39.6813L59.19 34.6042C59.4696 34.7472 59.7818 34.8358 60.1175 34.8358C61.2417 34.8358 62.1566 33.9289 62.1566 32.8145C62.1566 31.7001 61.2417 30.7932 60.1175 30.7932C58.9932 30.7932 58.0783 31.7001 58.0783 32.8145C58.0783 33.1752 58.182 33.5094 58.3498 33.8029L53.5321 38.92C53.2744 38.8031 52.9905 38.7339 52.6892 38.7339C52.3879 38.7339 52.104 38.8031 51.8464 38.9199L47.0284 33.803C47.1963 33.5095 47.3 33.1753 47.3 32.8145C47.3 31.7001 46.3851 30.7932 45.2609 30.7932C44.1366 30.7932 43.2217 31.7001 43.2217 32.8145C43.2217 33.1752 43.3254 33.5094 43.4932 33.8029L38.6755 38.92C38.4178 38.8031 38.134 38.7339 37.8326 38.7339C36.7083 38.7339 35.7935 39.6408 35.7935 40.7552C35.7935 41.8696 36.7083 42.7765 37.8326 42.7765ZM60.1175 31.9482C60.5994 31.9482 60.9914 32.3368 60.9914 32.8145C60.9914 33.2922 60.5994 33.6807 60.1175 33.6807C59.6356 33.6807 59.2435 33.2922 59.2435 32.8145C59.2435 32.3368 59.6356 31.9482 60.1175 31.9482ZM53.5631 40.7552C53.5631 41.2329 53.1711 41.6214 52.6892 41.6214C52.2073 41.6214 51.8153 41.2329 51.8153 40.7552C51.8153 40.2775 52.2073 39.8889 52.6892 39.8889C53.1711 39.8889 53.5631 40.2775 53.5631 40.7552ZM45.2609 31.9482C45.7428 31.9482 46.1348 32.3368 46.1348 32.8145C46.1348 33.2922 45.7428 33.6807 45.2609 33.6807C44.779 33.6807 44.387 33.2922 44.387 32.8145C44.387 32.3368 44.779 31.9482 45.2609 31.9482ZM37.8326 39.8889C38.3145 39.8889 38.7065 40.2775 38.7065 40.7552C38.7065 41.2329 38.3145 41.6214 37.8326 41.6214C37.3507 41.6214 36.9587 41.2329 36.9587 40.7552C36.9587 40.2775 37.3507 39.8889 37.8326 39.8889Z" fill="#E0E0E0"/>
<path d="M28.9286 44.4314C29.4856 42.9755 28.2133 41.1977 26.0141 39.5377C26.1491 39.4319 26.284 39.3261 26.3915 39.2097C28.428 37.3436 29.2064 35.7204 28.6361 34.4946C28.0933 33.2793 26.3376 32.7651 23.6267 33.0192C23.4684 33.0216 23.2995 33.0514 23.1306 33.0813C23.3347 30.3252 22.8874 28.2017 21.4315 27.6448C19.9755 27.0878 18.1977 28.3601 16.5377 30.5592C16.4319 30.4243 16.3261 30.2893 16.2097 30.1819C14.3436 28.1454 12.7204 27.367 11.4946 27.9373C10.2793 28.48 9.76509 30.2357 10.0192 32.9466C10.0216 33.105 10.0514 33.2739 10.0813 33.4428C7.32524 33.2387 5.20174 33.686 4.64478 35.1419C4.08783 36.5978 5.36015 38.3757 7.55926 40.0357C7.42431 40.1415 7.28935 40.2473 7.18187 40.3636C5.1454 42.2298 4.36703 43.853 4.93728 45.0788C5.17474 45.6105 5.65059 46.013 6.30988 46.2652C7.18893 46.6014 8.41385 46.6921 9.94666 46.5542C10.105 46.5518 10.2739 46.5219 10.4428 46.4921C10.2387 49.2481 10.686 51.3716 12.1419 51.9286C13.5979 52.4856 15.3757 51.2132 17.0357 49.0141C17.1415 49.1491 17.2473 49.284 17.3637 49.3915C18.4026 50.5447 19.3858 51.2672 20.2648 51.6035C20.9241 51.8557 21.5471 51.8736 22.0788 51.6361C23.1042 51.1781 23.6466 49.8426 23.6154 47.7838C23.6018 47.2432 23.5607 46.6922 23.4751 46.0926C26.2482 46.3347 28.3717 45.8874 28.9286 44.4314ZM23.7381 33.8805C25.1125 33.745 26.2445 33.8316 26.9862 34.1154C27.4258 34.2835 27.7134 34.5195 27.8491 34.8233C28.2053 35.6209 27.456 37.0032 25.8075 38.5139C25.6515 38.6747 25.468 38.825 25.2846 38.9752C24.4177 38.3602 23.4644 37.8065 22.4456 37.2594C22.718 36.1355 22.9525 35.0285 23.0626 34C23.2695 33.9531 23.5038 33.9168 23.7381 33.8805ZM20.2754 41.1213C20.0863 41.6157 19.9076 42.0827 19.7015 42.5392C19.2353 42.7702 18.7795 42.9738 18.3133 43.2048C17.847 43.4358 17.3743 43.6014 16.8911 43.7944C16.4136 43.6432 15.9466 43.4646 15.4521 43.2754C14.9577 43.0863 14.4907 42.9076 14.0342 42.7015C13.8032 42.2353 13.5996 41.7795 13.3686 41.3133C13.1376 40.847 12.972 40.3743 12.779 39.8911C12.9302 39.4136 13.1088 38.9466 13.298 38.4521C13.4871 37.9576 13.6658 37.4906 13.8719 37.0341C14.3381 36.8031 14.7939 36.5996 15.2601 36.3686C15.7264 36.1376 16.1991 35.972 16.6823 35.779C17.1598 35.9301 17.6268 36.1088 18.1213 36.2979C18.6157 36.4871 19.0827 36.6657 19.5392 36.8719C19.7702 37.3381 19.9738 37.7939 20.2048 38.2601C20.4083 38.7159 20.6014 39.1991 20.7944 39.6823C20.6263 40.1218 20.4646 40.6268 20.2754 41.1213ZM21.0129 37.8764C20.945 37.7245 20.8772 37.5726 20.8093 37.4207C20.9911 37.5217 21.2109 37.6058 21.3927 37.7068C21.3466 37.9096 21.273 38.1019 21.2164 38.3322C21.1486 38.1803 21.0807 38.0284 21.0129 37.8764ZM20.1841 36.1738C19.9531 35.7076 19.6946 35.2308 19.4531 34.792C20.3775 34.5159 21.2809 34.2946 22.1253 34.1453C22.0233 34.988 21.8349 35.8921 21.6255 36.8512C21.1521 36.6071 20.6681 36.3905 20.1841 36.1738ZM18.8866 35.6145C18.7218 35.5514 18.5844 35.4989 18.4196 35.4359C18.2548 35.3728 18.1174 35.3203 17.9526 35.2572C18.1699 35.1829 18.3598 35.0981 18.5667 35.0513C18.679 35.2517 18.8018 35.4246 18.8866 35.6145ZM16.6405 34.8182C16.1355 34.6566 15.658 34.5054 15.1425 34.3712C15.5992 33.5067 16.0897 32.7182 16.5763 32.0225C17.1054 32.6973 17.6305 33.465 18.1345 34.2876C17.6344 34.4427 17.1237 34.6252 16.6405 34.8182ZM15.3427 35.3295C15.1908 35.3973 15.0389 35.4652 14.887 35.533C14.7351 35.6009 14.5831 35.6687 14.4312 35.7366C14.5323 35.5548 14.6163 35.335 14.7174 35.1533C14.9096 35.2268 15.1399 35.2834 15.3427 35.3295ZM13.1844 36.3618C12.7181 36.5928 12.2414 36.8513 11.8026 37.0928C11.5264 36.1684 11.3051 35.265 11.1558 34.4206C11.9985 34.5226 12.9026 34.711 13.8617 34.9204C13.6176 35.3939 13.401 35.8778 13.1844 36.3618ZM12.625 37.6593C12.562 37.8242 12.5094 37.9615 12.4464 38.1263C12.3833 38.2912 12.3308 38.4285 12.2677 38.5933C12.1934 38.376 12.1086 38.1861 12.0618 37.9792C12.2622 37.8669 12.4351 37.7441 12.625 37.6593ZM11.8288 39.9055C11.6671 40.4104 11.5159 40.8879 11.3817 41.4034C10.5172 40.9468 9.72868 40.4562 9.03307 39.9696C9.70784 39.4405 10.4755 38.9154 11.2982 38.4114C11.4532 38.9116 11.6357 39.4222 11.8288 39.9055ZM12.34 41.2032C12.4079 41.3551 12.4757 41.507 12.5436 41.6589C12.6114 41.8109 12.6793 41.9628 12.7471 42.1147C12.5653 42.0137 12.3456 41.9296 12.1638 41.8286C12.2373 41.6363 12.2939 41.406 12.34 41.2032ZM13.3723 43.3615C13.6033 43.8278 13.8618 44.3046 14.1033 44.7433C13.1789 45.0195 12.2755 45.2408 11.4311 45.3901C11.5501 44.5854 11.711 43.6707 11.9479 42.7222C12.4044 42.9283 12.8883 43.1449 13.3723 43.3615ZM14.6699 43.9209C14.8347 43.9839 14.972 44.0365 15.1369 44.0995C15.3017 44.1626 15.439 44.2151 15.6039 44.2782C15.3865 44.3525 15.1966 44.4373 14.9897 44.4841C14.8775 44.2837 14.7547 44.1108 14.6699 43.9209ZM16.916 44.7171C17.421 44.8788 17.8985 45.03 18.4139 45.1642C17.9573 46.0287 17.4667 46.8172 16.9802 47.5128C16.451 46.8381 15.926 46.0704 15.4219 45.2478C15.9221 45.0927 16.4328 44.9102 16.916 44.7171ZM18.2137 44.2059C18.3656 44.138 18.5176 44.0702 18.6695 44.0023C18.8214 43.9345 18.9733 43.8666 19.1252 43.7988C19.0242 43.9806 18.9401 44.2003 18.8391 44.3821C18.6468 44.3086 18.4165 44.252 18.2137 44.2059ZM20.3721 43.1736C20.8383 42.9426 21.3151 42.6841 21.7539 42.4426C22.0301 43.367 22.2513 44.2704 22.4006 45.1148C21.5579 45.0128 20.6538 44.8244 19.6947 44.615C19.9388 44.1415 20.1554 43.6576 20.3721 43.1736ZM20.9314 41.876C20.9945 41.7112 21.047 41.5739 21.1101 41.4091C21.1731 41.2442 21.2257 41.1069 21.2887 40.9421C21.363 41.1594 21.4203 41.3388 21.4946 41.5562C21.2942 41.6685 21.1213 41.7912 20.9314 41.876ZM21.7277 39.6299C21.8894 39.125 22.0405 38.6474 22.1747 38.132C23.0392 38.5886 23.8278 39.0792 24.5234 39.5657C23.8486 40.0949 23.0809 40.62 22.2583 41.124C22.1032 40.6238 21.9207 40.1131 21.7277 39.6299ZM21.1162 28.4689C22.0227 28.8157 22.4483 30.5844 22.2313 33.2096C21.218 33.3888 20.1353 33.6674 19.004 33.9904C18.4151 32.9779 17.7568 32.0648 17.1218 31.255C18.7123 29.1553 20.2097 28.1221 21.1162 28.4689ZM10.891 32.8078C10.6716 30.5825 11.0363 29.053 11.8338 28.6968C12.1377 28.5611 12.5093 28.5774 12.9489 28.7455C13.6906 29.0292 14.5639 29.7097 15.5245 30.7385C15.6852 30.8944 15.8355 31.0779 15.9857 31.2613C15.3707 32.1282 14.8171 33.0816 14.2699 34.1004C13.146 33.8279 12.0391 33.5934 11.0105 33.4833C10.9637 33.2765 10.9274 33.0421 10.891 32.8078ZM5.4689 35.4572C5.81568 34.5506 7.58447 34.1251 10.2096 34.3421C10.3888 35.3554 10.6674 36.4381 10.9904 37.5694C9.97792 38.1583 9.06477 38.8166 8.25505 39.4516C6.16582 37.8336 5.13262 36.3362 5.4689 35.4572ZM9.81833 45.6549C7.59305 45.8743 6.06356 45.5096 5.70736 44.7121C5.35117 43.9145 6.10041 42.5322 7.74898 41.0215C7.90495 40.8607 8.08839 40.7104 8.27184 40.5602C9.13872 41.1752 10.0921 41.7288 11.1109 42.276C10.8384 43.3999 10.6039 44.5068 10.4938 45.5354C10.287 45.5822 10.0527 45.6186 9.81833 45.6549ZM12.4677 51.077C11.5612 50.7302 11.1356 48.9614 11.3526 46.3363C12.3659 46.1571 13.4487 45.8785 14.5799 45.5555C15.1688 46.568 15.8272 47.4811 16.4621 48.2909C14.8441 50.3801 13.3468 51.4133 12.4677 51.077ZM22.7202 47.8192C22.7337 49.4304 22.3788 50.5227 21.7226 50.8385C20.925 51.1947 19.5427 50.4455 18.032 48.7969C17.8712 48.641 17.721 48.4575 17.5707 48.2741C18.1857 47.4072 18.7394 46.4538 19.2866 45.435C20.4104 45.7075 21.5174 45.942 22.5734 46.0626C22.659 46.6621 22.7065 47.2786 22.7202 47.8192ZM23.3468 45.1933C23.1676 44.18 22.9165 43.1078 22.566 41.966C23.5785 41.3771 24.4917 40.7188 25.3014 40.0838C27.4011 41.6743 28.4343 43.1717 28.0875 44.0782C27.7408 44.9847 25.972 45.4103 23.3468 45.1933Z" fill="#EC5F73"/>
<mask id="mask0_5174_5716" style="mask-type:alpha" maskUnits="userSpaceOnUse" x="14" y="9" width="80" height="79">
<path d="M54.9787 87.4522L54.9893 87.4518H55C76.9235 87.4518 92.5361 69.0999 92.5361 48.1914C92.5361 27.3451 74.7573 10.4036 52.7724 10.4036C30.8207 10.4036 14.5 27.7971 14.5 48.676C14.5 69.5547 32.0632 88.4273 54.9787 87.4522Z" fill="#F0F0F0" stroke="#9CB6CA"/>
</mask>
<g mask="url(#mask0_5174_5716)">
<path fill-rule="evenodd" clip-rule="evenodd" d="M78.001 57C86.6702 57 93.9947 59.8798 94 63.2902V63.2968C93.9947 66.7068 86.6702 69.5869 78.001 69.5869C69.3319 69.5869 62.0033 66.7057 62.002 63.2946V63.2924C62.0033 59.8813 69.3294 57 78.001 57ZM94 83.7069C94 85.2942 92.3484 86.8808 89.4694 88.0603C86.4149 89.3114 82.344 90 78.001 90C73.658 90 69.5871 89.3114 66.5327 88.0603C63.6536 86.8808 62.002 85.2942 62.002 83.7069V79.3146C62.8694 80.3123 64.2502 81.2161 66.089 81.9693C69.2798 83.2761 73.5097 83.9958 78.001 83.9958C82.4923 83.9958 86.7218 83.2761 89.9131 81.97C91.7519 81.2169 93.1322 80.313 94 79.3153V83.7069ZM94 76.7483V72.8195C93.1322 73.8164 91.7519 74.721 89.9131 75.4741C86.7218 76.7809 82.4919 77.5 78.001 77.5C73.5101 77.5 69.2798 76.7809 66.089 75.4741C64.2502 74.721 62.8694 73.8164 62.002 72.8195V76.7483C62.002 78.3356 63.6536 79.9218 66.5327 81.1017C69.5871 82.3521 73.6617 83.0414 78.001 83.0414C82.3403 83.0414 86.4149 82.3521 89.4694 81.1017C92.3484 79.9218 93.9996 78.3356 94 76.7483ZM94 70.2532V65.8532C93.131 66.8501 91.7466 67.7554 89.9028 68.5104C86.7071 69.8194 82.4788 70.5406 78.0002 70.5406C73.5216 70.5406 69.2942 69.8194 66.0972 68.5104C64.2534 67.7554 62.8702 66.8501 62 65.8532V70.2532C62 71.8405 63.6516 73.427 66.5306 74.6059C69.5851 75.8569 73.6597 76.5455 77.999 76.5455C82.3383 76.5455 86.4129 75.8569 89.4673 74.6059C92.3456 73.427 93.9975 71.8405 93.9979 70.2532H94ZM66.9035 65.774C66.8741 65.831 66.8577 65.8926 66.855 65.9553C66.8523 66.0181 66.8636 66.0806 66.888 66.1395C66.9124 66.1983 66.9496 66.2523 66.9974 66.2982C67.0452 66.3441 67.1027 66.3812 67.1665 66.4072C71.0252 67.9875 75.6107 68.2233 78.001 68.2233C78.1423 68.2233 78.2778 68.1731 78.3776 68.0837C78.4775 67.9943 78.5337 67.8731 78.5337 67.7466C78.5337 67.6202 78.4775 67.499 78.3776 67.4096C78.2778 67.3202 78.1423 67.27 78.001 67.27C75.698 67.27 71.285 67.0452 67.6106 65.54C67.547 65.5138 67.4782 65.4991 67.4081 65.4967C67.3381 65.4944 67.2682 65.5044 67.2026 65.5262C67.1369 65.548 67.0766 65.5813 67.0253 65.624C66.974 65.6667 66.9326 65.718 66.9035 65.7751V65.774ZM77.4684 58.841C77.4684 58.9675 77.5245 59.0887 77.6244 59.1781C77.7243 59.2675 77.8598 59.3177 78.001 59.3177C80.304 59.3177 84.7171 59.5421 88.3914 61.0476C88.461 61.0761 88.5366 61.0908 88.6131 61.0905C88.7351 61.0911 88.8536 61.0541 88.9489 60.9858C89.0441 60.9175 89.1102 60.822 89.1361 60.7153C89.1621 60.6086 89.1463 60.4971 89.0915 60.3996C89.0366 60.302 88.946 60.2243 88.8347 60.1794C84.9768 58.5994 80.3909 58.3636 78.001 58.3636C77.931 58.3636 77.8617 58.376 77.797 58.4C77.7323 58.424 77.6736 58.4592 77.6241 58.5035C77.5746 58.5478 77.5354 58.6005 77.5087 58.6584C77.482 58.7163 77.4683 58.7784 77.4684 58.841Z" fill="#4092D1"/>
<path d="M49.2441 79.0653C48.8908 79.3644 48.6506 79.5628 48.5933 79.6093C48.8273 79.4372 49.0442 79.2544 49.2441 79.0653Z" fill="#081D28"/>
</g>
<path d="M79.9585 66.2486L77.5088 66.3227C74.4648 66.4159 71.4227 66.0565 68.4831 65.2577L64.0244 64.0462C64.0244 64.0462 63.7091 70.1874 62.5071 74.2384C61.3051 78.2894 60.7373 85.6973 60.7373 85.6973L53.7833 84.7482C53.7833 84.7482 56.2481 72.0227 56.6279 69.807C57.0077 67.5913 55.3936 56.5584 59.201 55.8338C63.0084 55.1092 77.8677 59.261 77.8677 59.261C77.8677 59.261 77.8886 64.9724 79.9566 66.2505L79.9585 66.2486Z" fill="#224159"/>
<path d="M84.5279 23.2546L83.0106 23.945L86.8066 27.2011L85.3387 23.7929C85.3387 23.7929 84.8203 23.2451 84.5279 23.2546Z" fill="#2B1C17"/>
<path d="M83.7949 21.2577C83.7949 21.2577 84.093 24.1314 85.4318 25.3011L86.8066 26.0923L82.0289 36.2465L77.1485 37.9335L74.5375 29.0212C74.5375 29.0212 76.389 27.572 76.839 27.572C77.2891 27.572 83.0106 20.6187 83.0106 20.6187L83.7949 21.2558V21.2577Z" fill="#E7B399"/>
<path d="M83.3906 23.3019C83.3906 23.3019 80.2194 30.4492 76.7652 28.8497C76.7652 28.8497 79.9136 29.3993 83.3906 23.3019Z" fill="#DDA68E"/>
<path d="M81.8337 32.7052C81.8337 32.7052 78.708 34.6052 76.8394 31.914C74.8266 29.0155 74.9006 52.656 74.9006 52.656L84.4771 54.9592L81.8337 32.7052Z" fill="#E8E7E5"/>
<path d="M84.1011 52.7494L82.2876 52.5364C82.5249 53.008 82.8364 53.3352 83.1801 53.3352C83.5238 53.3352 83.8599 53.1146 84.1011 52.7494Z" fill="#2B1C17"/>
<path d="M81.8342 50.4135C81.8342 50.9822 81.9481 51.6231 82.1399 52.1671L84.2686 52.441C84.432 52.0492 84.5288 51.5661 84.5288 51.0431C84.5288 49.7346 84.1794 48.5002 83.435 48.5002C82.6906 48.5002 81.8342 49.105 81.8342 50.4135Z" fill="#2B1C17"/>
<path d="M84.5208 52.6554C84.5208 52.6554 78.7556 51.2747 77.8707 50.6737C76.9858 50.0727 76.3724 51.5257 76.3724 51.5257L76.0572 48.089C76.0572 48.089 78.4366 48.2202 79.1373 48.8383C79.838 49.4564 84.3214 49.3385 84.3214 49.3385C84.3214 49.3385 85.3184 51.0654 84.5208 52.6554Z" fill="#E7B399"/>
<path d="M81.4484 14.6492C81.4484 14.6492 80.7952 16.8649 81.4484 17.4469C82.1017 18.0289 80.2787 19.2347 80.461 20.1818C80.6433 21.1289 81.0781 20.7276 81.2965 20.1818C81.5149 19.636 80.9699 17.3822 82.2764 17.6732C83.5829 17.9642 84.8324 20.1818 83.0094 21.8193L83.5829 22.4374C83.5829 22.4374 81.1389 26.9849 80.328 27.5155C79.5172 28.0461 77.8233 29.9879 76.1314 28.4341C74.4394 26.8803 73.8735 25.1134 73.8735 25.1134C73.8735 25.1134 73.4861 24.8662 73.3095 24.6893C73.1329 24.5124 73.3095 23.9114 73.3095 23.9114C73.3095 23.9114 72.286 23.1697 72.286 21.8973L71.5815 20.1304L70.8769 19.3526C70.8769 19.3526 70.3813 15.9995 71.0156 15.2578C71.0156 15.2578 74.9597 15.1228 75.9813 14.2745C75.9813 14.2745 80.1761 13.877 81.4484 14.6511V14.6492Z" fill="#E7B399"/>
<path d="M83.6091 21.7541C83.6091 21.7541 85.6201 20.7651 84.5263 16.9499C83.4325 13.1347 83.6091 12.781 83.6091 12.781C83.6091 12.781 83.8559 11.4382 83.009 11.2271C83.009 11.2271 82.9729 9.56677 80.8575 10.2381C80.8575 10.2381 80.5043 9.3899 79.7295 9.85016C79.7295 9.85016 77.9312 8.05858 76.45 9.71322C76.45 9.71322 74.2624 9.21302 73.9453 10.8391C73.9453 10.8391 72.6749 10.415 72.147 11.7939C72.147 11.7939 70.6297 11.9004 70.0315 13.3839C70.0315 13.3839 67.8439 14.7608 69.3612 17.0583C69.3612 17.0583 70.6658 15.786 72.7831 16.1036C74.9004 16.4212 76.3095 15.3847 76.3095 15.3847C76.3095 15.3847 77.9502 15.5939 78.3205 16.037C78.3205 16.037 78.197 17.064 78.6737 17.5072C79.1503 17.9503 80.1074 18.9773 80.3372 20.3771C80.3372 20.3771 80.9391 21.7408 81.5221 20.1108C81.5221 20.1108 81.1575 17.4482 82.2779 17.6726C83.3983 17.897 84.889 20.2478 83.0109 21.8187C83.0109 21.8187 83.347 21.9405 83.611 21.756L83.6091 21.7541Z" fill="#533126"/>
<path d="M76.684 29.5923L78.1519 31.9583V33.0499C78.1519 33.0499 77.6771 34.8891 77.7113 35.8077C77.7455 36.7263 77.1245 41.114 77.4189 42.9169C77.7132 44.7199 76.9764 48.1738 76.9764 48.1738L75.2465 48.0387L74.3824 39.6172C74.3824 39.6172 74.4831 38.9116 73.057 38.9078L71.6308 38.904C71.6308 38.904 71.4694 33.1831 71.9119 32.1294C72.3543 31.0758 74.3255 28.2743 75.7972 28.1069L76.5169 28.8239L76.6821 29.5923H76.684Z" fill="#A95770"/>
<path d="M92.1485 53.6409L91.1724 61.4348L91.1382 61.703C91.1382 61.703 91.1269 62.1937 90.3122 62.1518C90.3122 62.1518 90.1242 64.0176 88.9317 63.6809C88.9317 63.6809 90.3502 62.0681 87.6651 60.1777C87.6651 60.1777 86.049 55.8604 84.2602 54.0897L92.1504 53.6409H92.1485Z" fill="#A95770"/>
<path d="M60.9849 51.2087C60.9849 51.2087 58.2466 50.4746 55.4209 52.1159C52.5953 53.7572 48.3701 55.1818 47.6371 57.1483C46.9041 59.1149 47.9182 61.5322 49.3405 61.7052C50.7628 61.8783 53.4365 61.2735 56.9306 57.407L60.098 55.1057L60.9849 51.2087Z" fill="#3E2424"/>
<path d="M79.6924 14.2121C79.6924 14.2121 82.1003 14.1379 83.27 17.181C83.27 17.181 82.894 13.2916 79.6924 14.2121Z" fill="#774335"/>
<path d="M78.705 15.6569C78.705 15.6569 79.5159 14.5729 81.4243 16.1476C81.4243 16.1476 80.2641 14.0023 78.705 15.6569Z" fill="#774335"/>
<path d="M74.8982 26.0145C74.8982 26.0145 75.8856 25.8851 76.1743 25.9232L78.1416 24.938C78.1416 24.938 77.9878 25.3925 77.1883 25.7349C76.3756 26.081 75.7337 26.3169 74.8982 26.0145Z" fill="#D29D7B"/>
<path d="M74.9238 26.223C74.9238 26.223 75.8049 27.1625 77.362 25.8388C77.362 25.8388 78.1767 25.0609 78.1748 24.9126C78.1748 24.9126 76.6594 28.2561 74.9219 26.223H74.9238Z" fill="#D29D7B"/>
<path d="M60.8013 51.8566L58.3516 51.6987C58.3516 51.6987 57.2711 52.2332 57.011 52.9977C56.7508 53.7623 55.036 53.7775 55.036 53.7775C55.036 53.7775 54.5024 54.253 55.8431 54.1807C55.8431 54.1807 58.006 55.3104 57.4249 56.9308C57.4249 56.9308 59.0011 55.1602 60.8013 54.9434V51.8566Z" fill="#E7B399"/>
<path d="M88.7149 64.0886C88.7149 64.0886 81.2805 70.6976 76.987 63.2517C76.987 63.2517 76.2711 60.7032 76.987 59.9063C76.987 59.9063 73.886 59.9634 71.1439 58.6796C68.4018 57.3958 60.2116 55.3684 60.2116 55.3684C60.2116 55.3684 59.5754 52.333 61.3244 50.7639L78.3048 51.9811C78.3048 51.9811 85.1373 52.4965 87.1236 57.1181C89.1099 61.7397 90.424 62.6127 88.713 64.0866L88.7149 64.0886Z" fill="#1E3F54"/>
<path opacity="0.7" d="M78.1416 24.938C78.1416 24.938 76.6832 26.5013 74.8982 26.0145C74.8982 26.0145 74.8279 26.2408 75.1223 26.4139C75.4166 26.5869 77.0668 27.3173 78.1416 24.938Z" fill="#532321"/>
<path d="M78.1416 24.938C78.1416 24.938 76.6946 27.1214 74.8982 26.0145C74.8982 26.0145 76.3908 26.625 78.1416 24.938Z" fill="white"/>
<path d="M66.8708 45.8183C66.4314 45.8183 66.0752 45.4615 66.0752 45.0214C66.0752 44.5813 66.4314 44.2245 66.8708 44.2245C67.3103 44.2245 67.6665 44.5813 67.6665 45.0214C67.6665 45.4615 67.3103 45.8183 66.8708 45.8183Z" fill="white"/>
<path d="M83.5805 53.1955L83.9869 53.2868C84.0287 53.2963 84.0685 53.2677 84.0723 53.2259L84.1027 52.9121C84.1065 52.8664 84.0761 52.8227 84.0305 52.8132L83.8445 52.7751C83.7685 52.9311 83.6811 53.0737 83.5805 53.1955Z" fill="#A95770"/>
<path d="M82.1393 52.1669C82.183 52.2981 82.2324 52.4217 82.2875 52.5377L84.101 52.7698C84.1636 52.6709 84.2187 52.5606 84.2681 52.4407L82.1393 52.1669Z" fill="#2B1C17"/>
<path d="M84.2684 52.4415C84.2191 52.561 84.1643 52.6709 84.1018 52.7695L84.1529 52.7752C84.2419 52.6444 84.2324 52.6065 84.293 52.4453L84.2684 52.4415Z" fill="#C6C6C6"/>
<path d="M76.1345 51.392L76.1725 51.7571L82.2871 52.5388C82.232 52.4228 82.1827 52.2992 82.139 52.1679L76.1345 51.392Z" fill="#C6C6C6"/>
<path d="M76.4702 51.7563L61.5653 50.7559C61.3754 50.7426 61.2235 50.5961 61.2064 50.4059L60.0727 38.6884C60.0499 38.4525 60.2417 38.2528 60.4772 38.2643L74.7061 38.9813C74.896 38.9908 75.0498 39.1372 75.0707 39.3255L76.4702 51.7544" fill="#C6C6C6"/>
<path d="M75.981 51.7558L61.4559 50.7554C61.2717 50.7421 61.1236 50.5956 61.1065 50.4054L60.0013 38.6879C59.9785 38.4521 60.1665 38.2524 60.3963 38.2638L74.2644 38.9808C74.4486 38.9903 74.5986 39.1367 74.6195 39.325L75.9829 51.7539" fill="#B4B4B4"/>
<path d="M78.0638 20.6206L78.7075 19.2646C78.7075 19.2646 74.4747 18.5856 74.3285 19.8275L75.5685 21.2578L78.0657 20.6206H78.0638Z" fill="#DDA68E"/>
<path d="M78.7061 19.2644C78.7061 19.2644 76.3798 18.3021 74.3271 19.3671V19.8255C74.3271 19.8255 77.2325 19.078 78.7061 19.2625V19.2644Z" fill="#533126"/>
<path d="M78.0649 20.6198C78.0649 20.6198 75.5982 19.9142 75.5697 21.1124C75.5412 22.3106 77.6073 22.3448 78.0649 20.6198Z" fill="white"/>
<path d="M77.3706 21.0332C77.3706 21.0332 76.9566 20.242 76.2958 20.5197C75.6349 20.7973 76.1477 21.9993 76.6851 21.967C77.2225 21.9347 77.6725 21.6228 77.3706 21.0332Z" fill="#533126"/>
<path d="M72.6479 19.3468L72.5986 20.0182L71.5807 20.1285L71.0148 19.5047L72.6479 19.3468Z" fill="#533126"/>
<path d="M73.565 21.3359L71.911 20.9574L71.5806 20.1301L72.5984 20.0198L72.756 20.2157C73.0466 20.5732 73.3808 20.8927 73.7492 21.1685L74.0454 21.3891C74.184 21.4918 74.2638 21.6497 74.2942 21.819C74.4081 22.439 75.7032 23.6771 75.8152 23.8255C75.9444 23.9928 75.8019 24.4664 75.274 24.3713C74.7461 24.2743 74.4575 24.7802 73.5783 24.8278C72.6991 24.8753 73.9163 22.2925 73.6884 21.6459C73.6466 21.528 73.6049 21.4272 73.5631 21.3359H73.565ZM73.1928 20.752L73.3504 20.946C73.2573 20.8091 73.1928 20.752 73.1928 20.752Z" fill="#DDA68E"/>
<path d="M73.6924 21.3637C73.6924 21.3637 73.1303 20.2663 71.9131 20.9548L72.2872 21.8924C72.2872 21.8924 73.6031 22.4725 73.6924 21.3618V21.3637Z" fill="white"/>
<path d="M73.5176 21.5967C73.5176 21.5967 72.8928 20.4252 72.3022 20.9862C72.2472 21.0395 72.2168 21.1136 72.2244 21.1916C72.2491 21.4712 72.3763 22.1654 73.0352 22.0456C73.0352 22.0456 73.4777 21.9372 73.5176 21.5967Z" fill="#533126"/>
<path d="M86.8059 26.3262C86.8059 26.3262 86.5818 30.7766 81.1812 34.006C81.1812 34.006 86.88 32.5644 86.8059 26.3262Z" fill="#47352F"/>
<path d="M78.7081 33.675C78.7081 33.675 81.2109 31.7123 84.1657 27.9675C87.1205 24.2207 84.5284 23.2546 84.5284 23.2546C85.6772 23.2413 85.9051 25.1108 85.9051 25.1108L90.1056 27.2143C97.8059 28.7929 97.3691 36.5925 98.4629 40.229C99.5567 43.8673 102.139 50.0902 100.432 52.9374C98.725 55.7864 92.9066 55.6114 91.4197 54.9971C89.9309 54.3847 87.7433 54.3847 86.1159 54.341C84.4885 54.2972 83.1801 53.3368 83.1801 53.3368C83.2238 53.2949 83.5409 53.2455 83.5808 53.196L83.9872 53.2873C84.029 53.2968 84.0688 53.2683 84.0726 53.2265L84.103 52.9127C84.1068 52.867 84.0764 52.8233 84.0308 52.8138L83.8448 52.7757C84.386 51.6384 84.2549 49.7422 83.6302 49.0822C82.8877 48.293 82.4927 48.8616 82.4927 48.8616C82.4927 48.8616 82.4927 43.4717 81.8376 42.245C81.1805 41.0182 81.1805 34.0079 81.1805 34.0079L79.8835 35.1243C78.6473 35.3658 78.7081 33.675 78.7081 33.675ZM93.4744 47.1005L92.3198 44.7859L91.0741 46.9788L93.4763 47.1005H93.4744Z" fill="#A95770"/>
<path d="M89.2643 29.2783C89.2643 29.2783 90.6353 31.0205 91.0664 32.2985C91.4974 33.5766 90.7531 41.8821 92.8799 44.1188C92.8799 44.1188 91.5487 42.4489 91.2999 41.555C91.0512 40.6611 91.0512 32.9528 90.6961 32.3841C90.341 31.8154 90.0315 30.3282 89.2643 29.2783Z" fill="#47352F"/>
<path d="M94.1846 48.6338C94.1846 48.6338 90.362 47.2169 84.8265 48.7878C84.8265 48.7878 90.9393 46.361 94.1846 48.6338Z" fill="#47352F"/>
<path d="M92.3185 44.7847L92.4951 47.0498L91.0728 46.9775L92.3185 44.7847Z" fill="#A95770"/>
<path d="M82.5108 48.825C82.5108 48.825 83.6027 47.9121 84.5996 49.5135C84.5996 49.5135 83.7546 48.1555 82.5108 48.825Z" fill="#47352F"/>
<path d="M74.8032 30.9463C74.8032 30.9463 73.0657 34.248 74.5393 38.2648C74.5393 38.2648 72.0459 34.674 74.8032 30.9463Z" fill="#47352F"/>
<path d="M86.8066 27.1995C86.8066 27.1995 85.2951 31.416 81.9415 33.0173C81.9415 33.0173 86.123 31.6195 86.8066 27.1995Z" fill="#47352F"/>
<path d="M77.7452 29.0753L79.2207 30.3134L78.4839 33.1986L78.1535 33.0502V31.9585L76.6856 29.5926L76.5204 28.8242C76.5204 28.8242 77.0882 29.2198 77.7471 29.0753H77.7452Z" fill="#DDA68E"/>
<path d="M80.9872 31.5739C80.9872 31.5739 85.1611 27.2338 85.3662 25.9652L80.9872 31.5739Z" fill="#DDA68E"/>
<path d="M90.3142 62.1525C90.3142 62.1525 90.4358 58.9231 88.0944 56.3689C88.0944 56.3689 90.8365 57.5728 90.3142 62.1525Z" fill="#2B1C17"/>
<path d="M89.0951 63.7133C89.0951 63.7133 89.9895 63.0952 89.0685 61.2143C88.1475 59.3333 86.8411 56.5432 86.8411 56.5432C86.8411 56.5432 89.906 63.2474 89.0932 63.7114L89.0951 63.7133Z" fill="#0B2533"/>
<path d="M80.1646 51.4805L76.454 51.3436C76.454 51.3436 76.6401 50.4991 77.5345 50.5238L80.1646 51.4824V51.4805Z" fill="#C99883"/>
<path d="M81.9392 18.8646C81.9392 18.8646 82.8374 18.6326 82.921 19.2564C83.0045 19.8802 83.2837 20.679 82.7387 20.9453C82.1937 21.2115 82.4216 20.0742 82.1101 19.884C81.7987 19.6938 81.9392 18.8646 81.9392 18.8646Z" fill="#DDA68E"/>
<path d="M76.3076 15.3795C76.3076 15.3795 74.8359 16.9656 71.9115 16.3418C71.9115 16.3418 70.9791 16.2753 70.6943 16.7412L70.719 16.2753C70.719 16.2753 71.2925 15.8683 73.3528 16.1516C73.3528 16.1516 75.3126 16.2315 76.3076 15.3776V15.3795Z" fill="#DDA68E"/>
<path d="M79.2203 33.2431C79.2203 33.2431 78.6202 33.2431 78.5196 33.0568L78.4835 33.1975C78.4835 33.1975 78.9487 33.3249 79.1158 33.3344L79.2222 33.2431H79.2203Z" fill="#DDA68E"/>
<path d="M73.7222 22.0586C73.7222 22.0586 73.2683 23.5269 73.274 24.0556L73.7222 22.0586Z" fill="#E5BFB3"/>
<path d="M76.9885 59.9077C76.9885 59.9077 75.6688 64.0919 79.9585 66.2505C79.9585 66.2505 74.4705 64.9839 76.9885 59.9077Z" fill="#0B2533"/>
<path d="M76.9888 59.908C76.9888 59.908 72.9061 59.7406 70.2532 58.3085C67.6004 56.8763 62.1105 55.8569 62.1105 55.8569C62.1105 55.8569 67.8662 57.367 70.0329 58.3712C72.1997 59.3754 75.3424 60.1153 76.9907 59.908H76.9888Z" fill="#0B2533"/>
<path d="M82.1401 52.1678L82.0984 52.0442L80.0703 51.4812L76.4243 51.3405L76.4338 51.4298L82.1401 52.1678Z" fill="#939292"/>
<path d="M76.3394 50.5678C76.3394 50.5678 76.5977 49.7005 77.4636 49.847C78.3295 49.9934 78.4473 50.3282 78.4473 50.3282C78.4473 50.3282 77.1427 49.3506 76.3375 50.5678H76.3394Z" fill="#C99883"/>
<path d="M76.1066 48.5864C76.1066 48.5864 76.53 48.3658 77.0067 48.4818C77.4833 48.5979 77.7966 48.8812 78.0112 49.1209C78.0112 49.1209 77.1909 48.2365 76.1066 48.5864Z" fill="#C99883"/>
<path d="M57.1762 85.8067C55.2426 85.5334 53.713 85.0422 53.7599 84.7093C53.8068 84.3765 55.4123 84.3282 57.346 84.6014C59.2796 84.8746 60.8092 85.3659 60.7623 85.6987C60.7154 86.0315 59.1099 86.0799 57.1762 85.8067Z" fill="#0D2230"/>
<path d="M58.6255 92.6052V94.5204C58.6255 94.5204 52.9153 97.6243 47.7862 96.9034C47.7862 96.9034 45.705 96.4698 46.0354 94.7201L58.6255 92.6033V92.6052Z" fill="#939292"/>
<path d="M59.0986 85.645L58.4683 90.0558L56.4289 90.1528L55.2249 92.2144H55.0502V89.9588L53.8653 88.85C53.8653 88.85 55.1281 85.7421 55.2249 84.8862L59.0986 85.645Z" fill="#E7B399"/>
<path d="M58.6255 90.3299V93.3254C58.6255 93.3254 54.839 95.2121 50.7011 95.4061C47.8603 95.5392 46.6963 95.3072 46.2443 95.1474C46.0696 95.0866 45.9784 94.8983 46.0354 94.7214C46.1342 94.4152 46.4152 93.9587 47.2109 93.7838C48.092 93.5898 48.9142 93.1885 49.6491 92.6655C51.1778 91.5776 53.3711 89.8906 53.8667 88.8522L55.0516 89.961V92.2166H55.2264L56.4303 90.155L58.4698 90.058L58.6255 90.3299Z" fill="#3E2424"/>
<path d="M77.7471 29.0753C77.7471 29.0753 76.9932 29.2959 76.5203 28.8242L76.6077 29.2274C76.6077 29.2274 77.6103 29.2388 77.7471 29.0753Z" fill="#C68A75"/>
<path d="M78.7061 14.8577C78.7061 14.8577 73.5998 12.4632 69.9993 15.4321C69.9993 15.4321 74.4904 10.4587 78.7061 14.8577Z" fill="#774335"/>
<path d="M79.7077 13.7073C79.7077 13.7073 79.0583 10.6795 75.98 10.4056C75.98 10.4056 79.9489 9.89022 79.7077 13.7073Z" fill="#774335"/>
<path d="M79.0415 13.7072C79.0415 13.7072 76.7912 10.9514 73.5155 11.6475C73.5155 11.6475 77.4996 10.0119 79.0415 13.7072Z" fill="#774335"/>
<path d="M80.3219 13.0419C80.3219 13.0419 82.2322 12.2317 83.269 13.8255C83.269 13.8255 82.5911 11.4843 80.3219 13.0419Z" fill="#774335"/>
<path d="M77.9873 49.4473C77.9873 49.4473 77.1632 48.8254 76.2004 49.3579C76.2004 49.3579 77.3208 48.6713 77.9873 49.4473Z" fill="#C99883"/>
<path d="M67.1941 45.8183C66.7547 45.8183 66.3984 45.4615 66.3984 45.0214C66.3984 44.5813 66.7547 44.2245 67.1941 44.2245C67.6335 44.2245 67.9897 44.5813 67.9897 45.0214C67.9897 45.4615 67.6335 45.8183 67.1941 45.8183Z" fill="white"/>
<path d="M24.8637 62.4592C25.1773 62.2703 25.5146 62.1237 25.8668 62.0231L26.0735 61.0306L27.7523 61L27.9935 61.9849C28.3491 62.0727 28.6915 62.2071 29.0119 62.3846L29.8599 61.83L31.0659 62.9946L30.5413 63.8686C30.7304 64.1826 30.8772 64.5202 30.9778 64.8726L31.9694 65.0792L32 66.7544L31.0142 66.9973C30.9266 67.3521 30.792 67.6936 30.6141 68.0128L31.1692 68.8619L30.0034 70.0667L29.1363 69.5427C28.8232 69.7322 28.4857 69.8782 28.1332 69.9769L27.9265 70.9694L26.2477 71L26.0065 70.0151C25.6504 69.9243 25.308 69.7866 24.9881 69.6059L24.1401 70.1605L22.9342 68.9958L23.4587 68.1295C23.2696 67.8161 23.1228 67.4792 23.0222 67.1274L22.0306 66.9285L22 65.2513L22.9858 65.0103C23.0731 64.6549 23.2076 64.3127 23.3859 63.9929L22.8308 63.1457L24.0042 61.9333L24.8714 62.4592H24.8637ZM25.7577 64.6929C25.5106 64.9487 25.345 65.2719 25.2818 65.6217C25.2186 65.9715 25.2607 66.3322 25.4026 66.6581C25.5445 66.984 25.78 67.2606 26.0792 67.4529C26.3784 67.6452 26.728 67.7446 27.0837 67.7384C27.4395 67.7323 27.7854 67.6209 28.0778 67.4184C28.3702 67.2159 28.5959 66.9313 28.7265 66.6007C28.857 66.27 28.8865 65.9081 28.8113 65.5607C28.736 65.2133 28.5593 64.896 28.3036 64.6489C27.96 64.3176 27.4989 64.1362 27.0215 64.1444C26.5441 64.1527 26.0895 64.3499 25.7577 64.6929Z" fill="#E0E0E0"/>
<path d="M33.0046 69.0214C33.2241 68.8892 33.4602 68.7866 33.7067 68.7162L33.8515 68.0214L35.0266 68L35.1954 68.6894C35.4444 68.7509 35.6841 68.845 35.9083 68.9692L36.5019 68.581L37.3461 69.3963L36.9789 70.008C37.1113 70.2278 37.214 70.4642 37.2845 70.7108L37.9786 70.8554L38 72.0281L37.3099 72.1981C37.2486 72.4465 37.1544 72.6855 37.0299 72.909L37.4185 73.5033L36.6024 74.3467L35.9954 73.9799C35.7762 74.1125 35.54 74.2147 35.2933 74.2838L35.1485 74.9786L33.9734 75L33.8046 74.3106C33.5553 74.247 33.3156 74.1506 33.0917 74.0241L32.4981 74.4123L31.6539 73.5971L32.0211 72.9906C31.8887 72.7713 31.786 72.5354 31.7155 72.2892L31.0214 72.1499L31 70.9759L31.6901 70.8072C31.7512 70.5584 31.8453 70.3189 31.9701 70.095L31.5815 69.502L32.4029 68.6533L33.01 69.0214H33.0046ZM33.6304 70.585C33.4574 70.7641 33.3415 70.9903 33.2973 71.2352C33.2531 71.48 33.2825 71.7325 33.3818 71.9607C33.4811 72.1888 33.646 72.3824 33.8554 72.5171C34.0649 72.6517 34.3096 72.7212 34.5586 72.7169C34.8076 72.7126 35.0498 72.6346 35.2545 72.4929C35.4591 72.3511 35.6171 72.1519 35.7085 71.9205C35.7999 71.689 35.8206 71.4357 35.7679 71.1925C35.7152 70.9493 35.5915 70.7272 35.4125 70.5542C35.172 70.3223 34.8492 70.1953 34.5151 70.2011C34.1809 70.2069 33.8627 70.345 33.6304 70.585Z" fill="#E0E0E0"/>
<path d="M60.9283 0H45V15.9283H60.9283V0Z" fill="white"/>
<path d="M53.305 9.2041L57.6961 9.26414C57.6627 11.5989 55.6948 13.5135 53.305 13.5135H53.2783L53.305 9.2041Z" fill="#455A64"/>
<path d="M52.6097 8.57706L52.548 12.8864C50.1615 12.8531 48.2119 10.9185 48.2119 8.57706C48.2119 6.2356 50.1948 4.2677 52.6047 4.2677C55.0145 4.2677 56.9974 6.21392 56.9974 8.57706H52.6097Z" fill="#FF725E"/>
<path d="M60.9133 0H45V3.13362H60.9133V0Z" fill="#E0E0E0"/>
<path d="M46.8567 2.01889C47.1066 2.01889 47.3092 1.81632 47.3092 1.56645C47.3092 1.31658 47.1066 1.11401 46.8567 1.11401C46.6069 1.11401 46.4043 1.31658 46.4043 1.56645C46.4043 1.81632 46.6069 2.01889 46.8567 2.01889Z" fill="white"/>
<path d="M48.3792 2.01889C48.6291 2.01889 48.8316 1.81632 48.8316 1.56645C48.8316 1.31658 48.6291 1.11401 48.3792 1.11401C48.1293 1.11401 47.9268 1.31658 47.9268 1.56645C47.9268 1.81632 48.1293 2.01889 48.3792 2.01889Z" fill="white"/>
<path d="M50.3546 1.57316C50.3546 1.66265 50.328 1.75012 50.2783 1.82453C50.2286 1.89893 50.158 1.95692 50.0753 1.99116C49.9926 2.0254 49.9016 2.03436 49.8139 2.01691C49.7261 1.99945 49.6455 1.95636 49.5822 1.89309C49.5189 1.82981 49.4759 1.7492 49.4584 1.66143C49.4409 1.57367 49.4499 1.4827 49.4841 1.40002C49.5184 1.31735 49.5764 1.24669 49.6508 1.19698C49.7252 1.14726 49.8127 1.12073 49.9021 1.12073C50.0221 1.12073 50.1372 1.1684 50.2221 1.25324C50.3069 1.33809 50.3546 1.45317 50.3546 1.57316Z" fill="white"/>
<path d="M36.1153 13H34.9614V15.3462H36.1153V13Z" fill="#297769"/>
<path d="M39.1919 13H38.0381V15.3462H39.1919V13Z" fill="#297769"/>
<path d="M33.0386 13H31.8848V15.3462H33.0386V13Z" fill="#297769"/>
<path d="M29.9615 13H28.8076V15.3462H29.9615V13Z" fill="#297769"/>
<path d="M27.3462 19.8846H25V21.0385H27.3462V19.8846Z" fill="#297769"/>
<path d="M27.3462 16.8077H25V17.9616H27.3462V16.8077Z" fill="#297769"/>
<path d="M27.3462 22.9615H25V24.1154H27.3462V22.9615Z" fill="#297769"/>
<path d="M27.3462 26.0385H25V27.1923H27.3462V26.0385Z" fill="#297769"/>
<path d="M33.0386 28.6538H31.8848V31H33.0386V28.6538Z" fill="#297769"/>
<path d="M29.9615 28.6538H28.8076V31H29.9615V28.6538Z" fill="#297769"/>
<path d="M36.1153 28.6538H34.9614V31H36.1153V28.6538Z" fill="#297769"/>
<path d="M39.1919 28.6538H38.0381V31H39.1919V28.6538Z" fill="#297769"/>
<path d="M43 22.9615H40.6538V24.1154H43V22.9615Z" fill="#297769"/>
<path d="M43 26.0385H40.6538V27.1923H43V26.0385Z" fill="#297769"/>
<path d="M43 19.8846H40.6538V21.0385H43V19.8846Z" fill="#297769"/>
<path d="M43 16.8077H40.6538V17.9616H43V16.8077Z" fill="#297769"/>
<path d="M30.3262 25.7015H37.6736V18.2987H30.3262V25.7015ZM36.2689 23.9935H35.4259V21.2879H36.2689V23.9935ZM35.8474 20.0067C36.1162 20.0067 36.3191 20.2108 36.3207 20.482C36.3242 20.6089 36.2793 20.7269 36.1942 20.815C36.1046 20.9077 35.9778 20.9587 35.837 20.9587C35.5744 20.9587 35.3688 20.7507 35.3688 20.4852C35.3687 20.2169 35.579 20.0067 35.8474 20.0067ZM32.7668 20.1084H33.5883L34.9141 23.9935H34.0231L33.6493 22.8929H32.6865L32.3231 23.9935H31.4467L32.7668 20.1084Z" fill="#297769"/>
<path d="M33.1683 21.4019C33.1675 21.3996 33.1668 21.3972 33.166 21.3949L32.9092 22.1537H33.4242L33.1683 21.4019Z" fill="#297769"/>
<path d="M27.3506 15.3077V28.6924H40.6487V15.3077H27.3506ZM38.8339 26.2817C38.8339 26.6021 38.574 26.8619 38.2536 26.8619H29.7457C29.4252 26.8619 29.1654 26.6021 29.1654 26.2817V17.7184C29.1654 17.398 29.4252 17.1382 29.7457 17.1382H38.2536C38.5741 17.1382 38.8339 17.398 38.8339 17.7184V26.2817H38.8339Z" fill="#297769"/>
</svg>
