<svg width="22" height="23" viewBox="0 0 22 23" fill="none" xmlns="http://www.w3.org/2000/svg">
<mask id="mask0_5480_4993" style="mask-type:alpha" maskUnits="userSpaceOnUse" x="0" y="0" width="22" height="23">
<rect y="0.5" width="22" height="22" fill="#D9D9D9"/>
</mask>
<g mask="url(#mask0_5480_4993)">
<path d="M6.41663 19.75C5.91246 19.75 5.48086 19.5705 5.12183 19.2115C4.76281 18.8524 4.58329 18.4208 4.58329 17.9167V6H3.66663V4.16667H8.24996V3.25H13.75V4.16667H18.3333V6H17.4166V17.9167C17.4166 18.4208 17.2371 18.8524 16.8781 19.2115C16.5191 19.5705 16.0875 19.75 15.5833 19.75H6.41663ZM15.5833 6H6.41663V17.9167H15.5833V6ZM8.24996 16.0833H10.0833V7.83333H8.24996V16.0833ZM11.9166 16.0833H13.75V7.83333H11.9166V16.0833Z" fill="#72777F"/>
</g>
</svg>
