<svg width="24" height="24" viewBox="0 0 24 24" fill="none" xmlns="http://www.w3.org/2000/svg">
<path d="M3.75 6.56981C4.1734 6.57256 4.59259 6.48566 4.98 6.31481L7.62 8.99981C8.00226 8.48934 8.46899 8.04798 9 7.69481L6.39 5.06981C6.62391 4.66909 6.74808 4.2138 6.75 3.74981C6.72261 2.98055 6.39154 2.25347 5.82928 1.72776C5.26702 1.20204 4.51937 0.920516 3.75 0.944811C2.98063 0.920516 2.23298 1.20204 1.67072 1.72776C1.10846 2.25347 0.777391 2.98055 0.75 3.74981C0.761638 4.13201 0.848488 4.50818 1.00559 4.8568C1.16268 5.20542 1.38695 5.51966 1.66556 5.78155C1.94418 6.04345 2.27167 6.24787 2.62934 6.38312C2.987 6.51838 3.36781 6.58181 3.75 6.56981ZM3.75 2.81981C4.02151 2.79867 4.29062 2.88384 4.50052 3.05736C4.71043 3.23088 4.8447 3.47917 4.875 3.74981C4.84833 4.02317 4.71562 4.27519 4.50531 4.45185C4.29501 4.62851 4.02386 4.71573 3.75 4.69481C3.47614 4.71573 3.20499 4.62851 2.99469 4.45185C2.78438 4.27519 2.65167 4.02317 2.625 3.74981C2.6553 3.47917 2.78957 3.23088 2.99948 3.05736C3.20938 2.88384 3.47849 2.79867 3.75 2.81981ZM20.25 17.4448C19.8266 17.4421 19.4074 17.529 19.02 17.6998L16.38 14.9998C15.9894 15.4955 15.5177 15.9215 14.985 16.2598L17.595 18.8698C17.3657 19.2717 17.2466 19.7271 17.25 20.1898C17.25 20.9855 17.5661 21.7485 18.1287 22.3111C18.6913 22.8737 19.4544 23.1898 20.25 23.1898C21.0456 23.1898 21.8087 22.8737 22.3713 22.3111C22.9339 21.7485 23.25 20.9855 23.25 20.1898C23.2073 19.4312 22.8696 18.7193 22.309 18.2064C21.7484 17.6934 21.0094 17.4201 20.25 17.4448ZM20.25 21.1948C19.9761 21.2157 19.705 21.1285 19.4947 20.9519C19.2844 20.7752 19.1517 20.5232 19.125 20.2498C19.1687 19.983 19.3059 19.7404 19.5119 19.5653C19.718 19.3902 19.9796 19.2941 20.25 19.2941C20.5204 19.2941 20.782 19.3902 20.9881 19.5653C21.1941 19.7404 21.3313 19.983 21.375 20.2498C21.3483 20.5232 21.2156 20.7752 21.0053 20.9519C20.795 21.1285 20.5239 21.2157 20.25 21.1948Z" fill="white"/>
</svg>
