<svg width="16" height="17" viewBox="0 0 16 17" fill="none" xmlns="http://www.w3.org/2000/svg">
<path d="M8.73136 4.48924C8.6933 4.39976 8.62921 4.32337 8.54714 4.26968C8.46508 4.21599 8.36871 4.1874 8.27018 4.1875H7.72966C7.63108 4.1874 7.53467 4.21603 7.45259 4.26979C7.37052 4.32356 7.30646 4.40004 7.26848 4.4896L5.32902 9.04705C5.31598 9.07767 5.30937 9.11058 5.30958 9.14378C5.30978 9.17699 5.31681 9.20981 5.33024 9.24027L6.14283 11.0799C6.13408 11.0931 6.12669 11.1072 6.12076 11.122L5.63224 12.5762C5.62021 12.6132 5.61717 12.6524 5.62336 12.6908C5.62956 12.7291 5.64482 12.7655 5.66791 12.7969C5.691 12.8284 5.72128 12.8541 5.7563 12.8719C5.79133 12.8897 5.83012 12.8992 5.86955 12.8996H10.039C10.0768 12.8993 10.1141 12.8905 10.148 12.8741C10.182 12.8576 10.2117 12.8338 10.235 12.8045C10.2584 12.7751 10.2747 12.741 10.2827 12.7046C10.2908 12.6682 10.2904 12.6305 10.2816 12.5943L9.91544 11.14C9.9066 11.1076 9.89101 11.0774 9.86965 11.0512L10.6696 9.24028C10.683 9.20982 10.69 9.177 10.6903 9.14379C10.6905 9.11058 10.6838 9.07768 10.6708 9.04705L8.73136 4.48924ZM6.21549 12.4074L6.53874 11.4453H9.47721L9.7194 12.4074H6.21549ZM9.36776 10.9531H6.63207L5.83121 9.1403L7.72965 4.67971C7.7819 4.63475 7.73447 7.8688 7.74994 7.86517C7.51894 7.92497 7.31796 8.06553 7.18457 8.26058C7.05117 8.45563 6.99449 8.69182 7.02512 8.92502C7.05575 9.15821 7.17158 9.37245 7.35098 9.52769C7.53038 9.68293 7.76107 9.76855 7.99993 9.76855C8.23879 9.76855 8.46947 9.68293 8.64887 9.52769C8.82827 9.37245 8.94411 9.15821 8.97474 8.92502C9.00536 8.69182 8.94868 8.45563 8.81529 8.26058C8.6819 8.06553 8.48092 7.92497 8.24991 7.86517V4.67971H8.27041L10.1686 9.1403L9.36776 10.9531ZM7.99991 8.32173C8.12706 8.32312 8.24851 8.37382 8.33792 8.46282C8.42732 8.55183 8.47746 8.67195 8.47746 8.79711C8.47746 8.92228 8.42731 9.0424 8.33791 9.1314C8.2485 9.2204 8.12704 9.27109 7.9999 9.27249C7.87276 9.27109 7.7513 9.22039 7.6619 9.13139C7.57249 9.04239 7.52235 8.92227 7.52235 8.7971C7.52235 8.67193 7.5725 8.55181 7.66191 8.46281C7.75131 8.37382 7.87277 8.32312 7.99991 8.32173Z" fill="#595656"/>
<path d="M14.4585 7.60002H14.1926C14.03 6.56266 13.6016 5.58321 12.9477 4.75414C12.2937 3.92506 11.436 3.27372 10.4554 2.8616H12.9594C13.0163 3.03725 13.1348 3.18725 13.2938 3.28477C13.4527 3.38228 13.6417 3.42095 13.827 3.39385C14.0122 3.36676 14.1817 3.27567 14.305 3.13687C14.4283 2.99808 14.4974 2.82064 14.4999 2.63628C14.5025 2.45193 14.4384 2.27268 14.319 2.13061C14.1996 1.98854 14.0328 1.8929 13.8484 1.86081C13.6639 1.82872 13.4739 1.86226 13.3123 1.95544C13.1507 2.04862 13.028 2.19536 12.9662 2.36941L9.11235 2.36939C9.05536 2.11837 8.91257 1.8942 8.70785 1.73437C8.50313 1.57453 8.24888 1.48872 7.9876 1.49127C7.72632 1.49381 7.47384 1.58457 7.27238 1.74836C7.07091 1.91215 6.93266 2.13905 6.88073 2.39114H3.00012C2.94078 2.21628 2.82018 2.06789 2.6599 1.97253C2.49961 1.87717 2.31009 1.84105 2.12524 1.87063C1.94038 1.90022 1.77224 1.99357 1.65089 2.13401C1.52955 2.27444 1.46291 2.45279 1.4629 2.63715C1.46289 2.82152 1.52951 2.99987 1.65084 3.14032C1.77217 3.28076 1.94029 3.37414 2.12515 3.40374C2.31 3.43335 2.49953 3.39725 2.65982 3.3019C2.82012 3.20656 2.94073 3.05819 3.00009 2.88333L5.49703 2.88335C4.52798 3.29967 3.68156 3.95037 3.03641 4.77499C2.39127 5.59961 1.96834 6.57139 1.80693 7.60002H1.54102C1.40845 7.60017 1.28136 7.65207 1.18763 7.74435C1.09389 7.83662 1.04117 7.96173 1.04102 8.09222V8.99516C1.04117 9.12565 1.09389 9.25076 1.18763 9.34303C1.28136 9.43531 1.40845 9.48721 1.54102 9.48736H1.80702C2.00493 10.7843 2.62009 11.9846 3.56214 12.912C4.5042 13.8394 5.72352 14.445 7.04102 14.6398V14.9016C7.04117 15.0321 7.09389 15.1572 7.18763 15.2495C7.28136 15.3418 7.40845 15.3937 7.54102 15.3938H8.45852C8.59108 15.3937 8.71817 15.3417 8.8119 15.2495C8.90564 15.1572 8.95836 15.0321 8.95852 14.9016V14.6398C10.276 14.445 11.4953 13.8394 12.4374 12.912C13.3794 11.9846 13.9946 10.7843 14.1925 9.48736H14.4585C14.5911 9.48721 14.7182 9.4353 14.8119 9.34303C14.9056 9.25076 14.9584 9.12565 14.9585 8.99516V8.09222C14.9584 7.96173 14.9056 7.83662 14.8119 7.74435C14.7182 7.65207 14.5911 7.60017 14.4585 7.60002ZM13.7092 2.34008C13.7856 2.34121 13.8585 2.37187 13.9121 2.42544C13.9657 2.47901 13.9958 2.55119 13.9958 2.62639C13.9958 2.70159 13.9657 2.77376 13.9121 2.82733C13.8585 2.8809 13.7856 2.91156 13.7092 2.91268C13.6328 2.91167 13.5598 2.88106 13.5061 2.82748C13.4524 2.77389 13.4223 2.70165 13.4223 2.62637C13.4223 2.5511 13.4524 2.47886 13.5061 2.42527C13.5598 2.37169 13.6328 2.34109 13.7092 2.34008ZM2.25367 2.92348C2.17729 2.92236 2.10443 2.8917 2.05082 2.83813C1.99721 2.78456 1.96716 2.71238 1.96716 2.63719C1.96716 2.56199 1.99721 2.48981 2.05082 2.43624C2.10443 2.38267 2.17729 2.35201 2.25367 2.35089C2.33005 2.35201 2.40292 2.38267 2.45653 2.43624C2.51014 2.48981 2.54019 2.56199 2.54019 2.63719C2.54019 2.71238 2.51014 2.78456 2.45653 2.83813C2.40292 2.8917 2.33005 2.92236 2.25367 2.92348ZM7.99977 1.98342C8.16882 1.98528 8.3303 2.05269 8.44918 2.17103C8.56805 2.28937 8.63472 2.44908 8.63472 2.6155C8.63472 2.78193 8.56804 2.94164 8.44916 3.05997C8.33028 3.17831 8.1688 3.24572 7.99975 3.24757C7.83069 3.24571 7.66921 3.1783 7.55033 3.05996C7.43146 2.94162 7.36479 2.78191 7.36479 2.61548C7.3648 2.44906 7.43147 2.28935 7.55035 2.17101C7.66923 2.05268 7.83071 1.98527 7.99977 1.98342ZM1.54102 8.99516V8.09222H2.00119C2.00939 8.09348 2.01773 8.09348 2.02592 8.09222H2.45852L2.45877 8.99516H1.54102ZM7.54102 14.9016V13.9987H8.45852L8.45877 14.9016H7.54102ZM8.9585 14.1419C8.97565 14.0669 8.97577 13.9892 8.95885 13.9142C8.94192 13.8393 8.90837 13.7689 8.86059 13.7082C8.81281 13.6475 8.75198 13.5979 8.68247 13.563C8.61295 13.5281 8.53647 13.5088 8.45848 13.5065H7.54102C7.40845 13.5066 7.28136 13.5585 7.18763 13.6508C7.09389 13.7431 7.04117 13.8682 7.04102 13.9987V14.1419C5.85715 13.9509 4.76402 13.399 3.91575 12.5639C3.06748 11.7289 2.50685 10.6528 2.31291 9.48736C2.38903 9.50427 2.468 9.5044 2.54418 9.48775C2.62036 9.4711 2.69185 9.43807 2.75355 9.39103C2.81524 9.344 2.86561 9.28411 2.90104 9.21567C2.93647 9.14723 2.9561 9.07193 2.95851 8.99515V8.09222C2.95835 7.96173 2.90563 7.83662 2.81189 7.74435C2.71816 7.65207 2.59107 7.60017 2.45851 7.60002H2.31272C2.50837 6.45694 3.05468 5.40017 3.87827 4.57168C4.70187 3.74318 5.76329 3.18264 6.91997 2.96535C6.99356 3.1903 7.13774 3.38647 7.33177 3.52563C7.52581 3.6648 7.75969 3.73977 7.99976 3.73977C8.23983 3.73977 8.47371 3.6648 8.66775 3.52563C8.86178 3.38647 9.00597 3.1903 9.07955 2.96535C10.2362 3.18264 11.2977 3.74318 12.1212 4.57168C12.9448 5.40017 13.4912 6.45694 13.6868 7.60002C13.6107 7.58309 13.5317 7.58294 13.4555 7.59958C13.3793 7.61622 13.3078 7.64924 13.2461 7.69628C13.1843 7.74331 13.134 7.8032 13.0985 7.87165C13.0631 7.94011 13.0434 8.01543 13.041 8.09222V8.99515C13.0412 9.12564 13.0939 9.25075 13.1876 9.34302C13.2814 9.4353 13.4085 9.4872 13.541 9.48735H13.6866C13.4927 10.6528 12.932 11.7289 12.0838 12.5639C11.2355 13.399 10.1424 13.9509 8.9585 14.1419ZM13.541 8.99516V8.09222H13.9736C13.9818 8.09348 13.9901 8.09348 13.9983 8.09222H14.4585L14.4588 8.99516H13.541Z" fill="#595656"/>
</svg>
