<svg width="95" height="94" viewBox="0 0 95 94" fill="none" xmlns="http://www.w3.org/2000/svg">
<g id="Group 1000004079">
<g id="Group 1000004041">
<circle id="Ellipse 404" cx="55" cy="53.1104" r="39.5" fill="#F0F0F0" stroke="#9CB6CA"/>
<g id="Mask group">
<mask id="mask0_4356_6762" style="mask-type:alpha" maskUnits="userSpaceOnUse" x="16" y="26" width="77" height="66">
<path id="Ellipse 405" d="M92.8679 43C92.8679 61.3663 93.7221 75.1621 80.3679 84C73.4429 88.5829 64.5432 92 55.8678 92C42.0759 92 29.3679 85.5 22.0557 74.2194C14.9565 65.2189 16.3761 72.2492 16.3761 59.5C27.3761 36.7805 30.9711 29.2805 56.3762 29.2805C81.7813 29.2805 84.3679 18.2805 92.8679 43Z" fill="#D5C1EC"/>
</mask>
<g mask="url(#mask0_4356_6762)">
<g id="Layer 2">
<g id="Group">
<path id="Vector" d="M74.5189 78.5184C74.5189 77.5932 73.7689 76.8431 72.8437 76.8431C71.9185 76.8431 71.1685 77.5932 71.1685 78.5184V94.7076C71.1685 95.6328 71.9185 96.3828 72.8437 96.3828C73.7689 96.3828 74.5189 95.6328 74.5189 94.7076V78.5184Z" fill="#AF7D61"/>
<g id="Group_2">
<g id="Group_3">
<g id="Group_4">
<path id="Vector_2" d="M86.8938 72.562C86.8938 72.562 86.7779 72.9055 86.782 72.8974C86.8877 72.6839 88.2946 70.3317 88.5264 66.5461C88.9777 59.2068 90.1081 53.7013 92.4176 48.8606C92.9361 47.7749 92.9157 46.486 92.2692 45.4715C91.8504 44.8169 91.1795 44.27 90.102 44.2435C90.0979 44.2435 90.0939 44.2456 90.0918 44.2517L83.9683 64.0516C83.9683 64.0516 83.9683 64.0557 83.9683 64.0577L86.8959 72.5599L86.8938 72.562Z" fill="#BF8C73"/>
<path id="Vector_3" d="M86.9576 44.8078C86.9942 44.8017 87.3297 44.7448 87.8075 44.7366C90.2248 44.6899 91.9773 47.036 91.2718 49.3497C90.3691 52.3098 88.6837 58.0552 88.3889 60.6311C87.9965 64.0751 87.2707 72.2154 87.2402 72.5509C87.2402 72.557 87.2341 72.5611 87.228 72.559L72.2058 68.6759C72.2058 68.6759 72.1956 68.6677 72.1997 68.6616L86.9495 44.8139C86.9495 44.8139 86.9515 44.8098 86.9556 44.8098L86.9576 44.8078Z" fill="#43454B"/>
</g>
<path id="Vector_4" d="M76.8803 72.1112C80.3296 72.1112 83.1259 69.315 83.1259 65.8657C83.1259 62.4163 80.3296 59.6201 76.8803 59.6201C73.431 59.6201 70.6348 62.4163 70.6348 65.8657C70.6348 69.315 73.431 72.1112 76.8803 72.1112Z" fill="#2A2D33"/>
<path id="Vector_5" d="M58.9044 75.7495C58.9044 75.7495 74.7785 71.8115 75.9353 68.4529C75.9353 68.4529 75.4881 74.3833 71.7208 75.3897C67.9536 76.396 58.2925 77.8517 58.2925 77.8517L58.9044 75.7475V75.7495Z" fill="#AF7D61"/>
<path id="Vector_6" d="M58.9497 65.4535C58.9497 65.4535 63.0255 75.6119 71.0947 69.8665C79.1639 64.121 86.2633 68.057 86.2633 68.057C86.2633 68.057 69.7874 76.7158 59.6811 75.683L57.7417 68.4735L58.9497 65.4535Z" fill="#43454B"/>
<path id="Vector_7" d="M55.0753 77.2579C55.0753 77.2579 64.7242 79.7321 74.6048 70.6626C84.4855 61.5952 88.9318 70.8741 87.4497 72.9437C85.9676 75.0134 80.9845 84.6948 55.0732 77.2579H55.0753Z" fill="#D29D7B"/>
<path id="Vector_8" d="M58.6772 68.754C58.6772 68.754 67.1144 81.914 73.3132 67.8351C73.3132 67.8351 65.2704 75.951 58.6772 68.754Z" fill="#2A2D33"/>
<path id="Vector_9" d="M43.5492 60.4787C43.5492 60.4787 30.7735 63.8617 28.893 65.9273C27.0124 67.9929 11.6079 92.7962 11.6079 92.7962L19.6873 96.3825C19.6873 96.3825 35.4699 82.8383 35.2828 74.1958L59.3319 70.2496L57.8294 58.5636L43.5492 60.4787Z" fill="#182942"/>
<path id="Vector_10" d="M72.0485 57.7085C72.0485 57.7085 76.2043 59.2377 77.3388 64.4207C77.3388 64.4207 69.0272 74.2754 65.8157 74.2754C62.6043 74.2754 59.2028 70.6864 59.2028 70.6864C59.2028 70.6864 61.0221 77.405 58.8205 83.5327C58.0049 85.8039 57.4284 88.1613 56.9992 90.549L56.6292 92.6131L47.8657 95.6025L49.0002 60.122L72.0485 57.7085Z" fill="#22324D"/>
<path id="Vector_11" d="M47.8657 93.0889L48.8213 64.7238C48.8213 64.7238 49.2055 82.6939 47.8657 93.0889Z" fill="#667A96"/>
</g>
<path id="Vector_12" d="M70.9431 32.6798C71.1935 32.6798 71.3965 32.4768 71.3965 32.2264C71.3965 31.9761 71.1935 31.7731 70.9431 31.7731C70.6927 31.7731 70.4897 31.9761 70.4897 32.2264C70.4897 32.4768 70.6927 32.6798 70.9431 32.6798Z" fill="#E8E7E5"/>
<path id="Vector_13" d="M54.2744 53.186C54.2744 53.186 54.9961 52.3281 57.5212 52.2142C57.5212 52.2142 54.7258 52.9644 54.2744 53.186Z" fill="#C48B72"/>
</g>
<path id="Vector_14" d="M37.7147 64.394C37.7147 63.4688 36.9647 62.7188 36.0395 62.7188C35.1143 62.7188 34.3643 63.4688 34.3643 64.394V94.5645C34.3643 95.4897 35.1143 96.2398 36.0395 96.2398C36.9647 96.2398 37.7147 95.4897 37.7147 94.5645V64.394Z" fill="#AF7D61"/>
</g>
</g>
</g>
</g>
<g id="Files">
<g id="Group_5" opacity="0.2">
<path id="Vector_15" d="M28.8095 10.7118L39.9264 10.7118C39.987 10.7118 40.0451 10.7359 40.088 10.7787C40.1308 10.8216 40.1549 10.8797 40.1549 10.9403L40.1549 14.1097C40.1549 14.4264 40.0291 14.7301 39.8052 14.954C39.5812 15.1779 39.2775 15.3037 38.9608 15.3037L29.7751 15.3037C29.4584 15.3037 29.1547 15.1779 28.9308 14.954C28.7069 14.7301 28.5811 14.4264 28.5811 14.1097L28.5811 10.9403C28.5811 10.8797 28.6051 10.8216 28.648 10.7787C28.6908 10.7359 28.7489 10.7118 28.8095 10.7118Z" fill="black"/>
</g>
<g id="Group_6" opacity="0.2">
<path id="Vector_16" d="M35.6541 4.09045C35.6541 4.09045 35.6099 4.96941 36.6049 5.25318C36.6425 5.26372 36.6807 5.27233 36.7192 5.27898C37.1725 5.36006 40.1539 5.8889 40.1539 5.82072V4.85148L36.6842 4.85148C36.6842 4.85148 35.8181 4.822 35.6541 4.09045Z" fill="black"/>
</g>
<g id="Group 1000003809">
<path id="Vector_17" d="M39.0051 15.3028L29.7401 15.3028C29.4327 15.3028 29.1379 15.1807 28.9205 14.9633C28.7032 14.746 28.5811 14.4512 28.5811 14.1438L28.5811 1.32615C28.5811 1.17403 28.611 1.0234 28.6693 0.882879C28.7276 0.742361 28.813 0.61471 28.9206 0.50723C29.0283 0.39975 29.1561 0.314551 29.2967 0.256504C29.4373 0.198458 29.588 0.168705 29.7401 0.168947L35.6127 0.168947L40.1586 4.85302L40.1586 14.1438C40.1586 14.4502 40.0372 14.7442 39.821 14.9614C39.6049 15.1786 39.3115 15.3014 39.0051 15.3028Z" fill="#22324D"/>
<g id="Group_7" opacity="0.2">
<path id="Vector_18" d="M35.6138 0.169556L35.6138 3.77567C35.6135 3.91714 35.6412 4.05727 35.6952 4.18805C35.7491 4.31882 35.8284 4.43767 35.9283 4.53779C36.0283 4.63791 36.147 4.71734 36.2777 4.77154C36.4083 4.82573 36.5484 4.85363 36.6899 4.85363L40.1596 4.85363L35.6138 0.169556Z" fill="white"/>
</g>
<path id="Vector_19" d="M31.8984 12.7156C31.9098 12.5212 31.978 12.3345 32.0948 12.1787C32.2115 12.023 32.3715 11.905 32.5549 11.8395C32.7382 11.7741 32.9368 11.7641 33.1258 11.8108C33.3148 11.8574 33.4858 11.9587 33.6177 12.102L33.3505 12.347C33.2952 12.2806 33.2259 12.2273 33.1475 12.1909C33.0691 12.1546 32.9836 12.1362 32.8972 12.137C32.8188 12.1325 32.7404 12.1442 32.6666 12.1711C32.5929 12.198 32.5255 12.2397 32.4684 12.2936C32.4114 12.3475 32.366 12.4125 32.3349 12.4846C32.3038 12.5567 32.2878 12.6343 32.2878 12.7128C32.2878 12.7913 32.3038 12.869 32.3349 12.941C32.366 13.0131 32.4114 13.0781 32.4684 13.132C32.5255 13.1859 32.5929 13.2276 32.6666 13.2545C32.7404 13.2815 32.8188 13.2931 32.8972 13.2887C32.984 13.2896 33.0698 13.2708 33.1483 13.2338C33.2268 13.1968 33.2959 13.1424 33.3505 13.0749L33.6177 13.3218C33.4866 13.4657 33.3159 13.5677 33.1271 13.6151C32.9384 13.6625 32.7398 13.6532 32.5563 13.5882C32.3728 13.5233 32.2125 13.4058 32.0955 13.2502C31.9785 13.0947 31.9099 12.908 31.8984 12.7137V12.7156Z" fill="#FAFAFA"/>
<path id="Vector_20" d="M33.7295 13.431L33.8714 13.1177C34.0467 13.2376 34.2541 13.3018 34.4666 13.302C34.7135 13.302 34.813 13.2209 34.813 13.1177C34.813 12.7805 33.7663 13.0127 33.7663 12.3438C33.7663 12.0361 34.0133 11.791 34.5255 11.791C34.7444 11.787 34.9603 11.8424 35.1502 11.9513L35.0212 12.2682C34.8699 12.1783 34.6978 12.1294 34.5218 12.1263C34.2749 12.1263 34.1809 12.2185 34.1809 12.3309C34.1809 12.6626 35.2276 12.4341 35.2276 13.0956C35.2276 13.3959 34.977 13.6484 34.4629 13.6484C34.2021 13.6517 33.9463 13.5759 33.7295 13.431Z" fill="#FAFAFA"/>
<path id="Vector_21" d="M35.3813 13.431L35.5214 13.1177C35.697 13.2371 35.9042 13.3012 36.1166 13.302C36.3635 13.302 36.463 13.2209 36.463 13.1177C36.463 12.7805 35.4164 13.0127 35.4164 12.3438C35.4164 12.0361 35.6633 11.791 36.1755 11.791C36.3944 11.787 36.6103 11.8424 36.8002 11.9513L36.6712 12.2682C36.52 12.1781 36.3479 12.1291 36.1719 12.1263C35.9249 12.1263 35.831 12.2185 35.831 12.3309C35.831 12.6626 36.8776 12.4341 36.8776 13.0956C36.8776 13.3959 36.6288 13.6484 36.1129 13.6484C35.8526 13.6523 35.5973 13.5764 35.3813 13.431Z" fill="#FAFAFA"/>
<path id="Vector_22" d="M32.4871 6.88316C32.6714 6.94212 32.7654 7.06743 32.7654 7.34751V8.00903C32.76 8.05014 32.7642 8.09193 32.7774 8.13121C32.7907 8.17049 32.8127 8.20623 32.8418 8.23572C32.871 8.26521 32.9064 8.28767 32.9455 8.30139C32.9847 8.31512 33.0264 8.31974 33.0676 8.31492L33.1413 8.31492V8.81981L32.9017 8.81981C32.3839 8.81981 32.1204 8.55446 32.1204 8.08274V7.33093C32.1245 7.30531 32.1226 7.2791 32.115 7.25431C32.1074 7.22953 32.0941 7.20683 32.0763 7.18796C32.0585 7.16909 32.0366 7.15456 32.0123 7.14548C31.988 7.13641 31.962 7.13303 31.9362 7.1356L31.7998 7.1356V6.62887L31.9362 6.62887C31.9619 6.63176 31.9879 6.62866 32.0122 6.61982C32.0365 6.61097 32.0585 6.59662 32.0763 6.57788C32.0942 6.55914 32.1075 6.53653 32.1151 6.51181C32.1227 6.48709 32.1246 6.46093 32.1204 6.43539V5.68726C32.1204 5.21185 32.3839 4.9502 32.9017 4.9502L33.1413 4.9502V5.45324L33.0676 5.45324C33.0262 5.44836 32.9843 5.45301 32.945 5.46683C32.9058 5.48066 32.8702 5.50329 32.841 5.53299C32.8118 5.5627 32.7898 5.59869 32.7767 5.63821C32.7636 5.67772 32.7597 5.71972 32.7654 5.76097V6.42249C32.7654 6.70626 32.6788 6.82604 32.4871 6.88316Z" fill="#FAFAFA"/>
<path id="Vector_23" d="M36.9413 6.63071L36.9413 7.1356L36.8031 7.1356C36.6926 7.1356 36.6189 7.19826 36.6189 7.33093V8.07905C36.6189 8.55446 36.3535 8.81612 35.8357 8.81612L35.5962 8.81612V8.31676L35.6717 8.31676C35.7129 8.32158 35.7546 8.31696 35.7938 8.30323C35.8329 8.28951 35.8684 8.26705 35.8975 8.23756C35.9266 8.20807 35.9486 8.17233 35.9619 8.13305C35.9751 8.09377 35.9793 8.05198 35.9739 8.01087V7.34935C35.9739 7.06374 36.0605 6.94397 36.2503 6.885C36.0661 6.82788 35.9739 6.70073 35.9739 6.42249V5.76097C35.9796 5.71972 35.9757 5.67772 35.9626 5.63821C35.9495 5.59869 35.9275 5.5627 35.8983 5.53299C35.8691 5.50329 35.8336 5.48066 35.7943 5.46683C35.755 5.45301 35.7131 5.44836 35.6717 5.45324L35.5962 5.45324V4.9502L35.8357 4.9502C36.3535 4.9502 36.6189 5.2137 36.6189 5.68726V6.44644C36.6189 6.57912 36.6889 6.63993 36.8031 6.63993L36.9413 6.63071Z" fill="#FAFAFA"/>
</g>
<path id="Vector_24" d="M51.9653 24.6116L42.5677 24.6116C42.4132 24.6116 42.2602 24.5812 42.1174 24.522C41.9746 24.4628 41.845 24.376 41.7358 24.2667C41.6266 24.1573 41.54 24.0275 41.4811 23.8846C41.4221 23.7418 41.3918 23.5887 41.3921 23.4342L41.3921 10.4231C41.3921 10.1113 41.516 9.81224 41.7364 9.59177C41.9569 9.3713 42.2559 9.24744 42.5677 9.24744L48.5288 9.24744L53.1354 14.0034L53.1354 23.4342C53.1359 23.7453 53.013 24.044 52.7937 24.2647C52.5744 24.4854 52.2765 24.6102 51.9653 24.6116Z" fill="#22324D"/>
<g id="Group_8" opacity="0.2">
<path id="Vector_25" d="M41.3977 19.9489L53.1503 19.9489L53.1503 23.3394C53.1503 23.6766 53.0163 24 52.7779 24.2384C52.5395 24.4769 52.2161 24.6108 51.8788 24.6108L42.6655 24.6108C42.3283 24.6108 42.0049 24.4769 41.7664 24.2384C41.528 24 41.394 23.6766 41.394 23.3394L41.394 19.9489H41.3977Z" fill="black"/>
</g>
<g id="Group_9" opacity="0.2">
<path id="Vector_26" d="M48.5356 9.24878L48.5356 12.9102C48.5356 13.2005 48.651 13.4789 48.8562 13.6841C49.0615 13.8894 49.3399 14.0047 49.6302 14.0047L53.1497 14.0047L48.5356 9.24878Z" fill="white"/>
</g>
<g id="Group_10" opacity="0.2">
<path id="Vector_27" d="M48.5721 13.2332C48.5721 13.2332 48.526 14.1213 49.5377 14.4125C49.5758 14.4232 49.6146 14.4318 49.6537 14.4383C50.1126 14.5212 53.1382 15.0592 53.1382 14.9911V14.0052L49.6187 14.0052C49.6187 14.0052 48.7398 13.9758 48.5721 13.2332Z" fill="black"/>
</g>
<path id="Vector_28" d="M46.2213 16.0956L44.8099 16.6116L46.2213 17.1238L46.2213 17.6545L44.2036 16.888V16.3352L46.2213 15.5686V16.0956Z" fill="#FAFAFA"/>
<path id="Vector_29" d="M47.7324 14.53L48.3202 14.53L46.9272 18.5213L46.3394 18.5213L47.7324 14.53Z" fill="#FAFAFA"/>
<path id="Vector_30" d="M50.415 16.3368V16.8896L48.4028 17.6543L48.4028 17.131L49.8143 16.6187L48.4028 16.1028V15.5776L50.415 16.3368Z" fill="#FAFAFA"/>
<path id="Vector_31" d="M45.738 21.6796L45.738 23.2587L45.3695 23.2587V22.612L44.6527 22.612V23.2587L44.2842 23.2587L44.2842 21.6796L44.6527 21.6796V22.3024L45.3695 22.3024V21.6796L45.738 21.6796Z" fill="#FAFAFA"/>
<path id="Vector_32" d="M46.4458 21.9781L45.9409 21.9781V21.6796L47.3174 21.6796V21.9781L46.8107 21.9781L46.8107 23.2587L46.4421 23.2587L46.4458 21.9781Z" fill="#FAFAFA"/>
<path id="Vector_33" d="M48.9476 23.2597L48.9476 22.3126L48.4833 23.0939H48.3175L47.8549 22.3329V23.2542L47.5122 23.2542L47.5122 21.675L47.8144 21.675L48.4077 22.6609L48.99 21.6787L49.2904 21.6787L49.2904 23.2579L48.9476 23.2597Z" fill="#FAFAFA"/>
<path id="Vector_34" d="M49.6567 21.6796L50.0253 21.6796L50.0253 22.9694L50.8176 22.9694V23.2661L49.6586 23.2661L49.6567 21.6796Z" fill="#FAFAFA"/>
</g>
<g id="Group 1000003815">
<path id="Vector_35" d="M1.11436 17.3578L33.1213 17.3578C33.3188 17.3578 33.5082 17.4299 33.6479 17.5582C33.7875 17.6865 33.866 17.8606 33.866 18.0421L33.866 32.8352C33.866 33.0522 33.7722 33.2603 33.6052 33.4137C33.4382 33.5671 33.2118 33.6533 32.9756 33.6533L1.11436 33.6533C0.916843 33.6533 0.727418 33.5812 0.587754 33.4529C0.44809 33.3246 0.369629 33.1505 0.369629 32.969L0.369629 18.0421C0.369629 17.8606 0.44809 17.6865 0.587754 17.5582C0.727418 17.4299 0.916843 17.3578 1.11436 17.3578Z" fill="white"/>
<path id="Vector_36" d="M1.18489 17.3578L33.0508 17.3578C33.267 17.3578 33.4743 17.4395 33.6272 17.5848C33.7801 17.7302 33.866 17.9274 33.866 18.133L33.866 20.979L0.369683 20.979L0.369683 18.1419C0.36844 18.0394 0.388607 17.9376 0.429018 17.8425C0.469429 17.7474 0.529281 17.6609 0.605104 17.588C0.680927 17.5151 0.771214 17.4571 0.870737 17.4176C0.97026 17.3781 1.07704 17.3578 1.18489 17.3578Z" fill="#E0E0E0"/>
<path id="Vector_37" d="M3.53517 20.0762C3.78517 20.0762 3.98783 19.8735 3.98783 19.6236C3.98783 19.3736 3.78517 19.1709 3.53517 19.1709C3.28518 19.1709 3.08252 19.3736 3.08252 19.6236C3.08252 19.8735 3.28518 20.0762 3.53517 20.0762Z" fill="white"/>
<path id="Vector_38" d="M6.70511 19.6236C6.70511 19.7132 6.67852 19.8007 6.6287 19.8752C6.57889 19.9497 6.5081 20.0077 6.42528 20.0419C6.34247 20.0761 6.25137 20.085 6.16352 20.0674C6.07567 20.0498 5.99502 20.0065 5.93178 19.943C5.86855 19.8795 5.82557 19.7987 5.8083 19.7108C5.79102 19.6229 5.80023 19.5318 5.83475 19.4491C5.86927 19.3665 5.92756 19.2959 6.00222 19.2464C6.07688 19.1968 6.16456 19.1706 6.25416 19.1709C6.31352 19.1709 6.3723 19.1826 6.42713 19.2054C6.48195 19.2282 6.53174 19.2615 6.57363 19.3036C6.61553 19.3456 6.64871 19.3956 6.67127 19.4505C6.69383 19.5054 6.70533 19.5642 6.70511 19.6236Z" fill="white"/>
<path id="Vector_39" d="M8.97023 20.0762C9.22023 20.0762 9.42289 19.8735 9.42289 19.6236C9.42289 19.3736 9.22023 19.1709 8.97023 19.1709C8.72024 19.1709 8.51758 19.3736 8.51758 19.6236C8.51758 19.8735 8.72024 20.0762 8.97023 20.0762Z" fill="white"/>
<path id="Vector_40" d="M9.75843 26.4109L4.55236 26.4109C4.47824 26.4112 4.40477 26.3998 4.33618 26.3773C4.26758 26.3548 4.20521 26.3216 4.15265 26.2796C4.1001 26.2377 4.05839 26.1878 4.02993 26.1329C4.00147 26.0779 3.98682 26.019 3.98683 25.9595C3.98641 25.8998 4.00075 25.8407 4.02902 25.7854C4.0573 25.7302 4.09894 25.68 4.15154 25.6378C4.20413 25.5956 4.26665 25.5622 4.33545 25.5395C4.40425 25.5168 4.47797 25.5053 4.55236 25.5056L9.75843 25.5056C9.90842 25.5056 10.0523 25.5534 10.1583 25.6386C10.2644 25.7237 10.324 25.8391 10.324 25.9595C10.3231 26.0795 10.2632 26.1943 10.1572 26.2789C10.0513 26.3634 9.90788 26.4109 9.75843 26.4109Z" fill="#263238"/>
<path id="Vector_41" d="M9.75843 28.224L4.55235 28.224C4.47808 28.224 4.40454 28.2123 4.33593 28.1896C4.26731 28.1668 4.20497 28.1335 4.15246 28.0915C4.09994 28.0494 4.05828 27.9995 4.02986 27.9446C4.00144 27.8897 3.98682 27.8308 3.98682 27.7714C3.98682 27.6513 4.0464 27.5362 4.15246 27.4513C4.25852 27.3664 4.40236 27.3187 4.55235 27.3187L9.75843 27.3187C9.90816 27.3194 10.0515 27.3673 10.1574 27.452C10.2633 27.5368 10.3231 27.6515 10.324 27.7714C10.3231 27.8912 10.2633 28.006 10.1574 28.0907C10.0515 28.1755 9.90816 28.2234 9.75843 28.224Z" fill="#E0E0E0"/>
<path id="Vector_42" d="M31.6157 26.4109L19.8243 26.4109C19.7076 26.4109 19.5957 26.3634 19.513 26.2789C19.4303 26.1943 19.3835 26.0795 19.3828 25.9595C19.3828 25.8391 19.4293 25.7237 19.5121 25.6386C19.5949 25.5534 19.7072 25.5056 19.8243 25.5056L31.6157 25.5056C31.7328 25.5056 31.845 25.5534 31.9278 25.6386C32.0106 25.7237 32.0571 25.8391 32.0571 25.9595C32.0565 26.0795 32.0097 26.1943 31.927 26.2789C31.8442 26.3634 31.7323 26.4109 31.6157 26.4109Z" fill="#E0E0E0"/>
<path id="Vector_43" d="M9.75843 30.0326L4.55236 30.0326C4.40237 30.0326 4.25852 29.9849 4.15247 29.9C4.04641 29.8152 3.98683 29.7 3.98683 29.58C3.98641 29.5204 4.00075 29.4614 4.02902 29.4064C4.0573 29.3513 4.09894 29.3013 4.15154 29.2592C4.20413 29.2171 4.26665 29.1837 4.33545 29.1611C4.40425 29.1385 4.47797 29.127 4.55236 29.1273L9.75843 29.1273C9.90842 29.1273 10.0523 29.175 10.1583 29.2599C10.2644 29.3448 10.324 29.4599 10.324 29.58C10.3231 29.6998 10.2633 29.8146 10.1574 29.8993C10.0515 29.9841 9.90817 30.032 9.75843 30.0326Z" fill="#8E8E8E"/>
<path id="Vector_44" d="M31.4889 28.224L26.2797 28.224C26.1302 28.2234 25.9872 28.1754 25.8818 28.0906C25.7764 28.0058 25.7173 27.891 25.7173 27.7714C25.7173 27.6518 25.7764 27.537 25.8818 27.4522C25.9872 27.3674 26.1302 27.3194 26.2797 27.3187L31.4889 27.3187C31.6386 27.3194 31.782 27.3673 31.8879 27.452C31.9938 27.5368 32.0536 27.6515 32.0544 27.7714C32.0536 27.8912 31.9938 28.006 31.8879 28.0907C31.782 28.1755 31.6386 28.2234 31.4889 28.224Z" fill="#8E8E8E"/>
<path id="Vector_45" d="M17.9139 26.4109L12.7047 26.4109C12.5553 26.4109 12.4119 26.3634 12.3059 26.2789C12.1999 26.1943 12.14 26.0795 12.1392 25.9595C12.1392 25.8391 12.1987 25.7237 12.3048 25.6386C12.4109 25.5534 12.5547 25.5056 12.7047 25.5056L17.9139 25.5056C17.988 25.5056 18.0614 25.5174 18.1299 25.5402C18.1983 25.5631 18.2604 25.5965 18.3127 25.6387C18.365 25.6809 18.4063 25.731 18.4344 25.786C18.4625 25.8411 18.4767 25.9 18.4763 25.9595C18.4763 26.0792 18.4171 26.1941 18.3116 26.2787C18.2061 26.3634 18.0631 26.4109 17.9139 26.4109Z" fill="#22324D"/>
<path id="Vector_46" d="M24.2641 28.224L12.6885 28.224C12.543 28.2234 12.4038 28.1755 12.3009 28.0907C12.1981 28.006 12.14 27.8912 12.1392 27.7714C12.14 27.6515 12.1981 27.5368 12.3009 27.452C12.4038 27.3673 12.543 27.3194 12.6885 27.3187L24.2641 27.3187C24.4098 27.3187 24.5495 27.3664 24.6526 27.4513C24.7556 27.5362 24.8135 27.6513 24.8135 27.7714C24.8135 27.8308 24.7993 27.8897 24.7716 27.9446C24.744 27.9995 24.7036 28.0494 24.6526 28.0915C24.6016 28.1335 24.541 28.1668 24.4744 28.1896C24.4077 28.2123 24.3363 28.224 24.2641 28.224Z" fill="#263238"/>
<path id="Vector_47" d="M30.7371 30.0326L12.555 30.0326C12.4992 30.0313 12.4441 30.0186 12.3929 29.9951C12.3418 29.9717 12.2956 29.9379 12.257 29.8959C12.2184 29.8539 12.1881 29.8043 12.1679 29.7501C12.1477 29.6959 12.138 29.6381 12.1393 29.58C12.138 29.5218 12.1477 29.464 12.1679 29.4098C12.1881 29.3556 12.2184 29.3061 12.257 29.264C12.2956 29.222 12.3418 29.1883 12.3929 29.1648C12.4441 29.1414 12.4992 29.1286 12.555 29.1273L30.7371 29.1273C30.7929 29.1286 30.8478 29.1414 30.8988 29.1649C30.9498 29.1884 30.9959 29.2221 31.0343 29.2642C31.0727 29.3063 31.1027 29.3558 31.1227 29.41C31.1426 29.4642 31.152 29.522 31.1504 29.58C31.153 29.6969 31.111 29.8102 31.0336 29.895C30.9561 29.9799 30.8495 30.0293 30.7371 30.0326Z" fill="#E0E0E0"/>
<path id="Vector_48" d="M24.2535 31.8413L12.6991 31.8413C12.5509 31.8407 12.4089 31.7928 12.3041 31.708C12.1992 31.6233 12.14 31.5085 12.1392 31.3887C12.14 31.2688 12.1992 31.1541 12.3041 31.0693C12.4089 30.9846 12.5509 30.9367 12.6991 30.936L24.2535 30.936C24.327 30.936 24.3998 30.9477 24.4678 30.9705C24.5357 30.9932 24.5974 31.0266 24.6494 31.0686C24.7014 31.1106 24.7427 31.1605 24.7708 31.2155C24.799 31.2704 24.8135 31.3292 24.8135 31.3887C24.8135 31.4481 24.799 31.507 24.7708 31.5619C24.7427 31.6168 24.7014 31.6667 24.6494 31.7088C24.5974 31.7508 24.5357 31.7841 24.4678 31.8069C24.3998 31.8296 24.327 31.8413 24.2535 31.8413Z" fill="#E0E0E0"/>
<path id="Vector_49" d="M2.18363 25.9583C2.18363 26.0478 2.15708 26.1353 2.10734 26.2098C2.0576 26.2842 1.98691 26.3422 1.9042 26.3765C1.82148 26.4107 1.73047 26.4197 1.64266 26.4022C1.55486 26.3848 1.47421 26.3416 1.4109 26.2783C1.3476 26.215 1.30448 26.1344 1.28702 26.0466C1.26955 25.9588 1.27852 25.8678 1.31278 25.785C1.34704 25.7023 1.40506 25.6316 1.47949 25.5819C1.55393 25.5322 1.64145 25.5056 1.73097 25.5056C1.79042 25.5056 1.84928 25.5173 1.9042 25.5401C1.95911 25.5628 2.00902 25.5962 2.05105 25.6382C2.09308 25.6802 2.12642 25.7301 2.14917 25.785C2.17192 25.84 2.18363 25.8988 2.18363 25.9583Z" fill="#22324D"/>
<path id="Vector_50" d="M2.18362 23.2453C2.18362 23.3348 2.15707 23.4223 2.10734 23.4967C2.0576 23.5712 1.9869 23.6292 1.90419 23.6635C1.82148 23.6977 1.73047 23.7067 1.64266 23.6892C1.55486 23.6717 1.4742 23.6286 1.4109 23.5653C1.3476 23.502 1.30448 23.4214 1.28702 23.3336C1.26955 23.2458 1.27852 23.1547 1.31278 23.072C1.34704 22.9893 1.40506 22.9186 1.47949 22.8689C1.55393 22.8192 1.64145 22.7926 1.73097 22.7926C1.79051 22.7923 1.84951 22.8038 1.90458 22.8264C1.95965 22.849 2.00967 22.8824 2.05177 22.9245C2.09387 22.9666 2.1272 23.0166 2.14983 23.0716C2.17246 23.1267 2.18395 23.1857 2.18362 23.2453Z" fill="#22324D"/>
<path id="Vector_51" d="M1.73097 30.0326C1.98097 30.0326 2.18363 29.83 2.18363 29.58C2.18363 29.33 1.98097 29.1273 1.73097 29.1273C1.48098 29.1273 1.27832 29.33 1.27832 29.58C1.27832 29.83 1.48098 30.0326 1.73097 30.0326Z" fill="#22324D"/>
<path id="Vector_52" d="M7.32122 22.7926L4.27364 22.7926C4.11523 22.7926 3.98682 22.9047 3.98682 23.0431L3.98682 23.4474C3.98682 23.5858 4.11523 23.6979 4.27364 23.6979L7.32122 23.6979C7.47963 23.6979 7.60805 23.5858 7.60805 23.4474L7.60805 23.0431C7.60805 22.9047 7.47963 22.7926 7.32122 22.7926Z" fill="#22324D"/>
</g>
</g>
<g id="Layer 5">
<g id="Group_11">
<g id="Group_12">
<path id="Vector_53" d="M70.3218 55.5791L70.5215 58.414L69.2437 59.5329C69.2437 59.5329 75.8327 62.6878 75.2742 67.7992C75.2742 67.7992 80.4733 64.1246 79.7702 59.4127C79.0671 54.7007 70.3218 55.5791 70.3218 55.5791Z" fill="#505F2A"/>
<path id="Vector_54" d="M70.0304 24.7228L80.5508 20.3308L82.3851 23.9259L71.4652 31.858L68.4692 29.926L70.0304 24.7228Z" fill="#3A3F29"/>
<path id="Vector_55" d="M79.7152 15.5284L82.1731 31.8573L68.4692 36.1026L70.1934 28.307C70.1934 28.307 72.6941 26.5747 72.4414 24.877C72.1887 23.1793 78.2926 11.7845 78.2926 11.7845L79.7172 15.5284H79.7152Z" fill="#E7B399"/>
<path id="Vector_56" d="M72.3774 25.028C72.3774 25.028 76.8102 22.4601 77.2993 18.0253C77.2993 18.0253 77.6519 24.1843 72.3774 25.028Z" fill="#CE957C"/>
<path id="Vector_57" d="M52.1403 46.9814C52.1403 46.9814 51.5799 47.76 52.3156 48.0494C53.0513 48.3388 54.4352 47.0854 54.4352 47.0854L52.1403 46.9814Z" fill="#3A3F29"/>
<path id="Vector_58" d="M53.5211 46.5964L49.6528 49.574L52.2187 53.4402L57.1549 50.2914L53.5211 46.5964Z" fill="#E7B399"/>
<path id="Vector_59" d="M68.3435 30.7036C68.3435 30.7036 69.2198 32.6296 72.6845 31.8307C76.1492 31.0317 71.5208 52.7472 71.5208 52.7472L58.4141 47.3321L68.3435 30.7036Z" fill="#E8E7E5"/>
<path id="Vector_60" d="M68.367 27.8246C68.367 27.8246 65.3568 29.4428 64.5661 31.0651C63.7753 32.6874 56.6115 44.2819 56.6115 44.2819L52.1421 46.9721C52.1421 46.9721 55.5171 47.5652 56.4281 50.8893L62.2896 50.6406L69.4329 28.648L68.367 27.8206V27.8246Z" fill="#586536"/>
<path id="Vector_61" d="M69.8839 25.2374C69.8839 25.2374 69.3499 26.9637 70.0775 28.0561C70.8051 29.1484 70.6828 31.2864 70.6828 31.2864L62.5795 48.9685L61.2344 47.069L64.5197 39.946C64.5197 39.946 67.8927 26.8332 69.8859 25.2374" fill="#586536"/>
<path id="Vector_62" d="M52.7915 47.1605C52.7915 47.1605 55.5205 48.043 56.3112 50.5355C56.3112 50.5355 56.0809 47.4112 52.7915 47.1605Z" fill="#CE957C"/>
<path id="Vector_63" d="M62.5707 9.01676C62.5707 9.01676 60.8118 9.38565 60.6895 8.28103C60.5673 7.1764 59.3404 6.3999 60.3614 5.21376C61.3825 4.02761 62.2425 4.23142 62.5707 3.74025C62.5707 3.74025 62.161 3.37136 61.8757 3.53644C61.5904 3.70152 62.4484 1.89988 64.943 2.06293C64.943 2.06293 64.6148 0.836021 67.9287 0.917543C67.9287 0.917543 70.3418 -0.767926 74.0653 0.913467C74.0653 0.913467 79.6292 -0.227843 80.3241 5.25452C80.3241 5.25452 82.4111 12.2491 80.7746 15.1533C80.7746 15.1533 80.4057 16.3802 79.4661 16.1357C78.5266 15.8911 62.5707 9.0188 62.5707 9.0188V9.01676Z" fill="#533126"/>
<path id="Vector_64" d="M74.8486 3.25717C74.8486 3.25717 79.0083 3.7728 80.2107 9.30611C80.2107 9.30611 80.598 2.52959 74.8486 3.25717Z" fill="#774335"/>
<path id="Vector_65" d="M72.7534 5.48058C72.7534 5.48058 74.4368 3.83383 77.3003 7.0458C77.3003 7.0458 75.8778 3.05326 72.7534 5.48058Z" fill="#774335"/>
<path id="Vector_66" d="M72.0237 5.34201C72.0237 5.34201 64.0773 1.5818 60.1602 6.91539C60.1602 6.91539 63.26 -0.0669827 72.0237 5.34201Z" fill="#774335"/>
<path id="Vector_67" d="M72.7551 3.62775C72.7551 3.62775 70.6254 0.169175 65.9175 1.38385C65.9175 1.38385 70.5092 1.23711 72.7551 3.62775Z" fill="#774335"/>
<path id="Vector_68" d="M70.1063 50.9299C70.1063 50.9299 69.9902 54.5597 68.6797 54.6759C68.6797 54.6759 70.1654 52.7458 70.1063 50.9299Z" fill="#CE957C"/>
<path id="Vector_69" d="M62.9717 8.89925V12.4292L64.3514 13.974L64.9588 17.3388C64.9588 17.3388 68.6538 26.1086 71.3012 25.3912C73.9486 24.6738 77.3134 19.9312 77.3134 19.9312V16.4563C77.3134 16.4563 80.8434 14.5263 79.8508 11.9889C79.3535 10.7213 78.6096 10.4991 77.9901 10.5969C77.3705 10.6948 76.8508 11.1819 76.6715 11.7974L76.1008 13.7539H75.2734L73.9507 10.7763C73.9507 10.7763 71.6905 9.17642 71.9656 6.97125C71.9656 6.97125 70.3657 6.86119 69.3182 6.1438C69.3182 6.1438 69.043 7.19136 66.8358 6.91622C64.6286 6.64108 62.9758 8.90128 62.9758 8.90128L62.9717 8.89925Z" fill="#E7B399"/>
<path id="Vector_70" opacity="0.7" d="M66.9034 20.4511C66.879 20.3859 66.9401 20.3207 67.0074 20.337C67.203 20.388 67.5393 20.4634 67.7554 20.4634C68.0753 20.4634 70.1338 19.7276 70.737 19.1427C71.3403 18.5578 71.4361 19.104 71.379 19.3119C71.3219 19.5198 70.1154 21.2562 69.3776 21.6332C68.6399 22.0103 67.4007 21.7473 66.9034 20.4491V20.4511Z" fill="#532321"/>
<path id="Vector_71" d="M67.4637 11.7066C67.7735 11.407 68.9127 10.4981 70.5778 11.4397C70.641 11.4743 70.6675 11.5517 70.641 11.619C70.5228 11.9247 70.1519 12.7277 69.4834 12.8357C68.6865 12.9641 68.014 12.746 67.4413 11.8941C67.4026 11.835 67.4107 11.7576 67.4617 11.7087L67.4637 11.7066Z" fill="white"/>
<path id="Vector_72" d="M62.9644 12.4425C62.9644 12.4425 64.1832 11.7577 64.8761 12.3712C65.5691 12.9846 64.3646 14.1137 64.3646 14.1137C64.3646 14.1137 63.1764 14.0688 62.9624 12.4425H62.9644Z" fill="white"/>
<path id="Vector_73" d="M67.0005 20.3321L68.101 20.3647C68.101 20.3647 69.8864 19.737 70.5976 19.252C70.5976 19.252 69.0182 21.6935 67.0005 20.3321Z" fill="white"/>
<path id="Vector_74" d="M69.2994 12.8368C69.6953 12.7268 69.9316 12.3334 69.8273 11.9582C69.7231 11.583 69.3176 11.368 68.9218 11.478C68.526 11.588 68.2896 11.9813 68.3939 12.3565C68.4982 12.7318 68.9036 12.9468 69.2994 12.8368Z" fill="#533126"/>
<path id="Vector_75" d="M63.0166 12.6997C63.0166 12.6997 63.1063 13.2198 63.3291 13.479C63.6417 13.8426 64.3919 14.0938 64.3919 14.0938C64.3919 14.0938 65.1562 13.0645 64.3919 12.6997C63.6277 12.3349 63.0166 12.6997 63.0166 12.6997Z" fill="#533126"/>
<path id="Vector_76" d="M66.3237 11.2832C65.7061 11.3158 66.0302 12.8117 65.6654 13.3131C65.0417 14.1711 63.4256 17.0855 65.0316 17.1406C65.0316 17.1406 65.9263 17.432 66.5886 17.1834C67.251 16.9347 67.6341 16.7431 67.6341 16.7431" fill="#CE957C"/>
<path id="Vector_77" d="M67.4747 11.69L66.8979 10.3612C66.8979 10.3612 68.1371 8.92032 71.1249 10.3612L70.5909 11.4231C70.5909 11.4231 68.8158 10.2919 67.4768 11.69H67.4747Z" fill="#CE957C"/>
<path id="Vector_78" d="M62.9717 12.4521V11.2619C62.9717 11.2619 63.7828 10.1043 64.9853 11.1702L65.0994 12.6682C65.0994 12.6682 64.6143 11.6063 62.9717 12.4521Z" fill="#CE957C"/>
<path id="Vector_79" d="M76.5968 13.6106L77.1267 11.6765C77.1267 11.6765 79.0975 10.8144 79.0975 12.5488C79.0975 14.2832 77.5282 14.5237 77.5282 14.5237L76.5947 13.6106H76.5968Z" fill="#CE957C"/>
<path id="Vector_80" d="M67.0025 20.3367C67.0025 20.3367 67.6506 20.139 67.9991 20.2083L71.0358 18.9161C71.0358 18.9161 70.0943 19.5479 69.1078 19.982C68.1051 20.4243 68.2091 20.4345 67.0005 20.3346L67.0025 20.3367Z" fill="#D29D7B"/>
<path id="Vector_81" d="M67.0142 20.7355C67.0142 20.7355 68.182 22.8836 70.165 20.9638C70.165 20.9638 71.3695 19.5331 71.3736 19.3191C71.3736 19.3191 69.2193 24.3633 67.0142 20.7335V20.7355Z" fill="#D29D7B"/>
<path id="Vector_82" d="M65.7832 50.2239L66.6147 54.463L71.983 55.2089V48.9521C71.983 48.9521 66.3926 48.8706 65.7832 50.2218V50.2239Z" fill="#3A3F29"/>
<path id="Vector_83" d="M70.2017 31.7427L71.4979 33.4099L72.9958 32.3908L73.3362 32.8229C73.3362 32.8229 82.9334 25.6632 82.9945 24.2753C83.0557 22.8874 81.4965 20.6619 80.447 20.3398C80.447 20.3398 81.4211 21.6707 81.144 22.4105C80.8668 23.1503 70.2017 31.7427 70.2017 31.7427Z" fill="#586536"/>
<g id="Group_13">
<path id="Vector_84" d="M4.82113 57.5293C4.83324 57.7695 4.86554 57.9936 4.914 58.1915C4.84536 58.0219 4.81104 57.8483 4.81104 57.6747C4.81104 57.6262 4.81305 57.5777 4.82113 57.5293Z" fill="#CE957C"/>
<g id="Group_14">
<path id="Vector_85" d="M72.5944 58.6215C70.2101 61.8275 56.0255 64.2925 38.8812 64.2925C21.7369 64.2925 8.73136 62.0273 5.52539 59.0132C5.87667 58.9667 6.15528 58.2238 6.16335 57.3011C9.82156 59.4997 23.1603 61.1289 39.0589 61.1289C54.9575 61.1289 67.7814 59.5603 71.7324 57.4263C71.8111 58.1672 72.0715 58.7123 72.3804 58.7123C72.4551 58.7123 72.5278 58.68 72.5944 58.6215Z" fill="#AF7D61"/>
<path id="Vector_86" d="M72.6449 56.7742C72.441 56.9983 72.1362 57.2183 71.7405 57.4323C67.7895 59.5663 54.6588 61.135 39.067 61.135C23.4752 61.135 9.82965 59.5057 6.17145 57.3072C6.17347 57.291 6.17347 57.2728 6.17347 57.2567C6.17347 56.7479 6.0907 56.2897 5.95947 55.9687C9.56316 53.3239 21.3594 51.3273 35.748 51.0688C35.9761 51.0648 36.2042 51.0608 36.4344 51.0588C36.6686 51.0547 36.9028 51.0527 37.1369 51.0507C37.7749 51.0446 38.4189 51.0426 39.067 51.0426C39.3012 51.0426 39.5354 51.0426 39.7675 51.0426C55.1796 51.1173 68.0479 53.1866 71.8273 55.9727C72.1826 56.2331 72.4551 56.4996 72.6449 56.7722V56.7742Z" fill="#CE957C"/>
</g>
<path id="Vector_87" d="M6.1612 57.3101C6.15313 58.2327 5.87452 58.9756 5.52324 59.0221C5.23252 58.7515 5.02861 58.475 4.91758 58.1903C4.86912 57.9924 4.83682 57.7684 4.82471 57.5281C4.85903 57.195 5.02256 56.8679 5.3052 56.549C5.46267 56.8074 5.75137 57.0617 6.1612 57.3101Z" fill="#AF7D61"/>
<path id="Vector_88" d="M6.16173 57.255C6.16173 57.2711 6.16173 57.2893 6.15971 57.3054C5.74988 57.0571 5.46118 56.8027 5.30371 56.5443C5.4733 56.3485 5.68932 56.1567 5.94773 55.9669C6.07896 56.2879 6.16173 56.7462 6.16173 57.255Z" fill="#CE957C"/>
<path id="Vector_89" d="M72.9458 57.6647C72.9458 57.9897 72.8247 58.3087 72.5925 58.6216C72.5259 58.6802 72.4532 58.7125 72.3785 58.7125C72.0696 58.7125 71.8092 58.1674 71.7305 57.4265C72.1262 57.2125 72.431 56.9924 72.6349 56.7683C72.8408 57.061 72.9458 57.3598 72.9458 57.6647Z" fill="#AF7D61"/>
<path id="Vector_90" d="M72.6343 56.7798C72.4304 57.0039 72.1256 57.224 71.7299 57.438C71.7117 57.2866 71.7036 57.125 71.7036 56.9595C71.7036 56.5981 71.746 56.261 71.8167 55.9803C72.172 56.2408 72.4445 56.5073 72.6343 56.7798Z" fill="#CE957C"/>
<g id="Group_15">
<g id="Group_16">
<path id="Vector_91" d="M54.0508 52.0389L66.6162 55.2187L55.1834 56.4078L54.0508 52.0389Z" fill="#8E8E8E"/>
<path id="Vector_92" d="M53.7569 52.9891L62.6117 54.687C62.6884 54.7011 62.6824 54.8142 62.6036 54.8202L54.1042 55.3855C54.0698 55.3875 54.0396 55.3633 54.0335 55.329L53.6802 53.0658C53.6721 53.0194 53.7145 52.981 53.7589 52.9891H53.7569Z" fill="#424242"/>
<path id="Vector_93" d="M54.9768 56.4247L66.4683 55.2315C66.547 55.2235 66.6157 55.286 66.6157 55.3648V55.7686C66.6157 55.8372 66.5632 55.8937 66.4965 55.9018L55.1707 57.0707C55.1121 57.0768 55.0576 57.0445 55.0334 56.99L54.8678 56.6104C54.8315 56.5277 54.886 56.4328 54.9768 56.4247Z" fill="#C6C6C6"/>
<path id="Vector_94" d="M30.2471 35.6993L50.1108 37.4052C50.1976 37.4133 50.2703 37.4739 50.2925 37.5587L55.2872 56.8288C55.3235 56.9681 55.2105 57.0993 55.0671 57.0852L34.6402 54.9997C34.5534 54.9916 34.4807 54.927 34.4605 54.8423L30.0291 35.9516C29.9968 35.8144 30.1078 35.6872 30.2471 35.6993Z" fill="#C6C6C6"/>
<path id="Vector_95" d="M30.2406 35.6985L49.5854 37.36C49.6702 37.3681 49.7409 37.4266 49.7631 37.5094L54.6266 56.2769C54.6609 56.4121 54.5519 56.5413 54.4126 56.5272L34.5206 54.4962C34.4358 54.4881 34.3651 54.4256 34.345 54.3428L30.0286 35.9468C29.9983 35.8136 30.1053 35.6904 30.2406 35.7005V35.6985Z" fill="#E8E7E5"/>
</g>
<path id="Vector_96" d="M41.2664 47.7108C42.0903 47.7108 42.7583 47.0429 42.7583 46.2189C42.7583 45.3949 42.0903 44.7269 41.2664 44.7269C40.4424 44.7269 39.7744 45.3949 39.7744 46.2189C39.7744 47.0429 40.4424 47.7108 41.2664 47.7108Z" fill="white"/>
</g>
</g>
<path id="Vector_97" d="M70.4698 50.9803L69.5506 50.854L66.3061 50.4056L64.3271 49.7391C64.3271 49.7391 61.7755 50.3465 60.4222 50.4056C59.0689 50.4647 55.7367 50.2568 55.0601 50.9803C54.3835 51.7038 53.395 52.2215 53.6029 52.4803C53.8108 52.7391 57.092 51.6529 57.092 51.6529C57.092 51.6529 54.0207 52.4803 53.8128 52.7392C53.7782 52.782 53.7598 52.837 53.7517 52.8981C53.7027 53.3037 54.1307 53.6053 54.5159 53.4647C55.5044 53.0999 57.6178 52.1848 58.2904 52.3784L55.9996 53.3098C55.9996 53.3098 55.1151 54.0333 55.4269 54.447C55.7388 54.8608 56.8332 54.2412 57.7177 54.447C58.6022 54.6529 63.8604 55.1196 65.2667 54.1373C65.2667 54.1373 65.7864 53.9314 66.6199 54.5C67.4535 55.0686 71.0303 54.3472 71.0303 54.3472L70.4718 50.9844L70.4698 50.9803Z" fill="#E7B399"/>
<path id="Vector_98" d="M72.2466 31.2864C72.2466 31.2864 72.589 46.0765 69.5747 48.7036C69.5747 48.7036 71.1603 48.8972 71.9715 49.747C71.9715 49.747 78.3485 49.476 81.7888 50.9067L82.3818 25.2374" fill="#586536"/>
<path id="Vector_99" d="M82.3933 23.1512C82.3933 23.1512 84.6984 24.9101 86.1678 25.44C87.6372 25.9699 95.1332 27.959 92.928 37.9312C90.7249 47.9034 88.9049 51.4863 88.8499 55.7825C88.7948 60.0808 82.1284 62.2289 74.4694 58.0407L68.7832 54.6718C68.7832 54.6718 71.0923 51.042 69.5862 49.7193C68.0801 48.3966 65.7832 50.2288 65.7832 50.2288C65.7832 50.2288 67.1895 47.6507 69.5862 48.6942" fill="#586536"/>
<path id="Vector_100" d="M82.9988 47.333C82.9988 47.333 81.1809 36.9186 87.1911 28.2772C87.1911 28.2772 79.528 36.3622 82.9988 47.333Z" fill="#3A3F29"/>
<path id="Vector_101" d="M72.2476 33.2856C72.2476 33.2856 81.4657 29.7129 82.7945 23.2543C82.7945 23.2543 83.7157 32.9309 72.2476 33.2856Z" fill="#3A3F29"/>
<path id="Vector_102" d="M54.2236 52.4568C54.2236 52.4568 55.4567 52.0675 57.617 51.7047C57.617 51.7047 55.4526 51.5009 54.2236 52.4568Z" fill="#C48B72"/>
<path id="Vector_103" d="M71.6054 32.7632C71.8564 32.7632 72.0598 32.5597 72.0598 32.3087C72.0598 32.0577 71.8564 31.8542 71.6054 31.8542C71.3544 31.8542 71.1509 32.0577 71.1509 32.3087C71.1509 32.5597 71.3544 32.7632 71.6054 32.7632Z" fill="#E8E7E5"/>
<path id="Vector_104" d="M54.8955 53.3188C54.8955 53.3188 55.619 52.4587 58.1503 52.3446C58.1503 52.3446 55.348 53.0966 54.8955 53.3188Z" fill="#C48B72"/>
<path id="Vector_105" d="M70.0867 50.932C70.0867 50.932 69.944 52.4218 69.4997 53.2778C69.0819 54.0848 68.7681 54.6738 68.7681 54.6738H68.4868L70.0887 50.9299L70.0867 50.932Z" fill="#CE957C"/>
<path id="Vector_106" d="M66.8979 10.3686C66.8979 10.3686 68.5182 8.17562 71.1249 10.3686C71.1249 10.3686 69.0726 9.06013 66.8979 10.3686Z" fill="#533126"/>
<path id="Vector_107" d="M62.9717 11.2403C62.9717 11.2403 63.7319 9.70768 64.9853 11.1486C64.9853 11.1486 63.8154 10.2355 62.9717 11.2403Z" fill="#533126"/>
<path id="Vector_108" d="M56.5967 44.2909C56.5967 44.2909 59.7577 44.3174 62.2869 47.9533C62.2869 47.9533 60.9724 43.8303 56.5967 44.2909Z" fill="#3A3F29"/>
<path id="Vector_109" d="M73.022 48.0903C73.022 48.0903 79.8454 46.949 84.4779 50.0203C84.4779 50.0203 80.094 45.129 73.022 48.0903Z" fill="#3A3F29"/>
<path id="Vector_110" d="M68.3643 27.834C68.3643 27.834 68.0871 30.1268 69.5871 31.8591C69.5871 31.8591 67.6061 30.4488 68.3643 27.834Z" fill="#3A3F29"/>
<path id="Vector_111" d="M70.8962 30.8439L80.7543 22.4349L80.8236 22.8935L70.8555 31.2006L70.8962 30.8439Z" fill="#CE957C"/>
</g>
</g>
</g>
</g>
</svg>
