<svg width="15" height="13" viewBox="0 0 15 13" fill="none" xmlns="http://www.w3.org/2000/svg">
<g clip-path="url(#clip0_9997_6818)">
<path d="M1.13402 11.1418L1.79553 12.2502C1.93299 12.4835 2.13058 12.6668 2.36254 12.8002L4.72509 8.8335H0C0 9.09183 0.0687285 9.35016 0.206186 9.5835L1.13402 11.1418Z" fill="#0066DA"/>
<path d="M7.5 4.16686L5.13746 0.200195C4.9055 0.333529 4.7079 0.516862 4.57045 0.750195L0.206186 8.08353C0.0712565 8.31183 0.00017965 8.57037 0 8.83353H4.72509L7.5 4.16686Z" fill="#00AC47"/>
<path d="M12.6373 12.8002C12.8693 12.6668 13.0669 12.4835 13.2043 12.2502L13.4792 11.7918L14.7937 9.5835C14.9311 9.35016 14.9998 9.09183 14.9998 8.8335H10.2744L11.2799 10.7502L12.6373 12.8002Z" fill="#EA4335"/>
<path d="M7.50024 4.16667L9.86278 0.2C9.63082 0.0666667 9.3645 0 9.08959 0H5.91089C5.63598 0 5.36965 0.075 5.1377 0.2L7.50024 4.16667Z" fill="#00832D"/>
<path d="M10.2747 8.8335H4.72485L2.3623 12.8002C2.59426 12.9335 2.86059 13.0002 3.1355 13.0002H11.864C12.1389 13.0002 12.4053 12.9252 12.6372 12.8002L10.2747 8.8335Z" fill="#2684FC"/>
<path d="M12.6117 4.41686L10.4296 0.750195C10.2921 0.516862 10.0945 0.333529 9.86254 0.200195L7.5 4.16686L10.2749 8.83353H14.9914C14.9914 8.5752 14.9227 8.31686 14.7852 8.08353L12.6117 4.41686Z" fill="#FFBA00"/>
</g>
<defs>
<clipPath id="clip0_9997_6818">
<rect width="15" height="13" fill="white"/>
</clipPath>
</defs>
</svg>
