<svg width="15" height="14" viewBox="0 0 15 14" fill="none" xmlns="http://www.w3.org/2000/svg">
<g clip-path="url(#clip0_9997_6779)">
<path d="M4.36046 0L0 2.82558L3.03488 5.26744L7.39535 2.54651L4.36046 0ZM0 7.63954L4.36046 10.5L7.39535 7.95349L3.03488 5.26744L0 7.63954ZM7.39535 7.95349L10.4651 10.5L14.7907 7.67442L11.7907 5.26744L7.39535 7.95349ZM14.7907 2.82558L10.4651 0L7.39535 2.54651L11.7907 5.26744L14.7907 2.82558ZM7.43023 8.51163L4.36046 11.0581L3.06977 10.186V11.1628L7.43023 13.7791L11.7907 11.1628V10.186L10.4651 11.0581L7.43023 8.51163Z" fill="#007EE5"/>
</g>
<defs>
<clipPath id="clip0_9997_6779">
<rect width="15" height="13.9535" fill="white"/>
</clipPath>
</defs>
</svg>
