<svg width="22" height="23" viewBox="0 0 22 23" fill="none" xmlns="http://www.w3.org/2000/svg">
<g id="edit">
<mask id="mask0_5480_4985" style="mask-type:alpha" maskUnits="userSpaceOnUse" x="0" y="0" width="22" height="23">
<rect id="Bounding box" y="0.5" width="22" height="22" fill="#D9D9D9"/>
</mask>
<g mask="url(#mask0_5480_4985)">
<path id="edit_2" d="M4.58333 17.9163H5.86667L13.7729 10.0101L12.4896 8.72676L4.58333 16.633V17.9163ZM17.6917 8.68092L13.7958 4.83092L15.0792 3.54759C15.4306 3.1962 15.8622 3.02051 16.374 3.02051C16.8858 3.02051 17.3174 3.1962 17.6687 3.54759L18.9521 4.83092C19.3035 5.18231 19.4868 5.60627 19.5021 6.1028C19.5174 6.59933 19.3493 7.02329 18.9979 7.37467L17.6917 8.68092ZM16.3625 10.033L6.64583 19.7497H2.75V15.8538L12.4667 6.13717L16.3625 10.033Z" fill="#72777F"/>
</g>
</g>
</svg>
