<svg width="24" height="24" viewBox="0 0 24 24" fill="none" xmlns="http://www.w3.org/2000/svg">
<circle cx="12" cy="12" r="12" fill="#DEEBFF"/>
<mask id="mask0_231_154" style="mask-type:alpha" maskUnits="userSpaceOnUse" x="4" y="4" width="16" height="16">
<rect x="4" y="4" width="16" height="16" fill="#D9D9D9"/>
</mask>
<g mask="url(#mask0_231_154)">
<path d="M12 19.3333C10.7556 19.3333 9.61113 19.05 8.56669 18.4833C7.52224 17.9167 6.66669 17.1611 6.00002 16.2167V18H4.66669V14H8.66669V15.3333H7.01669C7.55002 16.1333 8.2528 16.7778 9.12502 17.2667C9.99724 17.7555 10.9556 18 12 18C12.8334 18 13.6139 17.8417 14.3417 17.525C15.0695 17.2083 15.7028 16.7805 16.2417 16.2417C16.7806 15.7028 17.2084 15.0694 17.525 14.3417C17.8417 13.6139 18 12.8333 18 12H19.3334C19.3334 13.0111 19.1417 13.9611 18.7584 14.85C18.375 15.7389 17.85 16.5167 17.1834 17.1833C16.5167 17.85 15.7389 18.375 14.85 18.7583C13.9611 19.1417 13.0111 19.3333 12 19.3333ZM4.66669 12C4.66669 10.9889 4.85835 10.0389 5.24169 9.14999C5.62502 8.2611 6.15002 7.48332 6.81669 6.81666C7.48335 6.14999 8.26113 5.62499 9.15002 5.24166C10.0389 4.85832 10.9889 4.66666 12 4.66666C13.2445 4.66666 14.3889 4.94999 15.4334 5.51666C16.4778 6.08332 17.3334 6.83888 18 7.78332V5.99999H19.3334V9.99999H15.3334V8.66666H16.9834C16.45 7.86666 15.7472 7.22221 14.875 6.73332C14.0028 6.24443 13.0445 5.99999 12 5.99999C11.1667 5.99999 10.3861 6.15832 9.65835 6.47499C8.93058 6.79166 8.29724 7.21943 7.75835 7.75832C7.21947 8.29721 6.79169 8.93055 6.47502 9.65832C6.15835 10.3861 6.00002 11.1667 6.00002 12H4.66669ZM12 16C12.2334 16 12.4306 15.9194 12.5917 15.7583C12.7528 15.5972 12.8334 15.4 12.8334 15.1667C12.8334 14.9333 12.7528 14.7333 12.5917 14.5667C12.4306 14.4 12.2334 14.3167 12 14.3167C11.7667 14.3167 11.5695 14.3972 11.4084 14.5583C11.2472 14.7194 11.1667 14.9167 11.1667 15.15C11.1667 15.3833 11.2472 15.5833 11.4084 15.75C11.5695 15.9167 11.7667 16 12 16ZM11.4 13.4667H12.6167C12.6167 13.0667 12.6639 12.7667 12.7584 12.5667C12.8528 12.3667 13.0445 12.1222 13.3334 11.8333C13.7222 11.4444 13.9806 11.1305 14.1084 10.8917C14.2361 10.6528 14.3 10.3667 14.3 10.0333C14.3 9.4111 14.0778 8.91666 13.6334 8.54999C13.1889 8.18332 12.6445 7.99999 12 7.99999C11.4445 7.99999 10.9667 8.14443 10.5667 8.43332C10.1667 8.72221 9.8778 9.13332 9.70002 9.66666L10.8 10.1333C10.8778 9.84443 11.025 9.60555 11.2417 9.41666C11.4584 9.22777 11.7111 9.13332 12 9.13332C12.3 9.13332 12.5528 9.21943 12.7584 9.39166C12.9639 9.56388 13.0667 9.79443 13.0667 10.0833C13.0667 10.2722 13.0222 10.4611 12.9334 10.65C12.8445 10.8389 12.6556 11.0611 12.3667 11.3167C12 11.6389 11.7472 11.9528 11.6084 12.2583C11.4695 12.5639 11.4 12.9667 11.4 13.4667Z" fill="#043365"/>
</g>
</svg>
