<svg width="15" height="17" viewBox="0 0 15 17" fill="none" xmlns="http://www.w3.org/2000/svg">
<path d="M11.3333 1.08083e-05L14.1667 2.83335V17H0V0L11.3333 1.08083e-05Z" fill="#E9EAEE"/>
<path d="M14.1667 5.66732L11.6875 2.83398H14.1667V5.66732Z" fill="#D3D6DD"/>
<path d="M11.6875 2.83333V0L14.1667 2.83333H11.6875Z" fill="#A7ADBB"/>
<rect y="11.334" width="14.1667" height="5.66667" fill="#A066AA"/>
<path d="M4.3291 14.4382C4.3291 14.2738 4.36216 14.1303 4.42827 14.0075C4.49627 13.8847 4.58977 13.7903 4.70877 13.7242C4.82966 13.6581 4.96755 13.625 5.12244 13.625C5.32077 13.625 5.48605 13.6769 5.61827 13.7808C5.75238 13.8847 5.84021 14.0311 5.88177 14.22H5.3661C5.32266 14.0991 5.2386 14.0387 5.11393 14.0387C5.02516 14.0387 4.95432 14.0736 4.90143 14.1435C4.84855 14.2115 4.8221 14.3097 4.8221 14.4382C4.8221 14.5666 4.84855 14.6658 4.90143 14.7357C4.95432 14.8037 5.02516 14.8377 5.11393 14.8377C5.2386 14.8377 5.32266 14.7772 5.3661 14.6563H5.88177C5.84021 14.8414 5.75238 14.9869 5.61827 15.0927C5.48416 15.1984 5.31888 15.2513 5.12244 15.2513C4.96755 15.2513 4.82966 15.2183 4.70877 15.1522C4.58977 15.0861 4.49627 14.9916 4.42827 14.8688C4.36216 14.7461 4.3291 14.6025 4.3291 14.4382Z" fill="white"/>
<path d="M6.92576 15.2513C6.78787 15.2513 6.6651 15.2277 6.55743 15.1805C6.44976 15.1333 6.36476 15.0691 6.30243 14.9878C6.2401 14.9047 6.20515 14.8122 6.1976 14.7102H6.67643C6.6821 14.7649 6.7076 14.8093 6.75293 14.8433C6.79826 14.8773 6.85399 14.8943 6.9201 14.8943C6.98054 14.8943 7.02682 14.883 7.05893 14.8603C7.09293 14.8358 7.10993 14.8046 7.10993 14.7668C7.10993 14.7215 7.08632 14.6884 7.0391 14.6677C6.99187 14.645 6.91537 14.6204 6.8096 14.594C6.69626 14.5676 6.60182 14.5402 6.52626 14.5118C6.45071 14.4816 6.38554 14.4353 6.33076 14.373C6.27599 14.3088 6.2486 14.2228 6.2486 14.1152C6.2486 14.0245 6.27315 13.9423 6.32226 13.8687C6.37326 13.7931 6.44693 13.7336 6.54326 13.6902C6.64149 13.6467 6.75765 13.625 6.89176 13.625C7.0901 13.625 7.24593 13.6741 7.35926 13.7723C7.47449 13.8706 7.5406 14.0009 7.5576 14.1633H7.10993C7.10237 14.1086 7.07782 14.0651 7.03626 14.033C6.9966 14.0009 6.94371 13.9848 6.8776 13.9848C6.82093 13.9848 6.77749 13.9962 6.74726 14.0188C6.71704 14.0396 6.70193 14.0689 6.70193 14.1067C6.70193 14.152 6.72554 14.186 6.77276 14.2087C6.82187 14.2313 6.89743 14.254 6.99943 14.2767C7.11654 14.3069 7.21193 14.3371 7.2856 14.3673C7.35926 14.3957 7.42349 14.4429 7.47826 14.509C7.53493 14.5732 7.56421 14.6601 7.5661 14.7697C7.5661 14.8622 7.53965 14.9453 7.48676 15.019C7.43576 15.0908 7.36115 15.1474 7.26293 15.189C7.1666 15.2306 7.05421 15.2513 6.92576 15.2513Z" fill="white"/>
<path d="M8.71535 14.7753L9.05818 13.6477H9.57385L9.01285 15.2287H8.41501L7.85401 13.6477H8.37251L8.71535 14.7753Z" fill="white"/>
</svg>
