<svg width="16" height="18" viewBox="0 0 16 18" fill="none" xmlns="http://www.w3.org/2000/svg">
<g id="Group 1000004433">
<path id="Vector" d="M11.6369 9.70499C12.8059 9.70499 13.8952 9.25334 14.7188 8.42972C15.9675 7.18102 16.3394 5.32125 15.6752 3.67402C15.5955 3.51461 15.4627 3.38177 15.2767 3.3552C15.0907 3.32863 14.9313 3.38177 14.7985 3.48804L12.6199 5.66663C12.2745 6.01202 11.6634 6.01202 11.2915 5.66663C11.1055 5.48066 11.0258 5.26811 11.0258 5.00243C11.0258 4.76332 11.1321 4.5242 11.2915 4.33822L13.4701 2.15964C13.6029 2.02679 13.656 1.86739 13.6029 1.68141C13.5763 1.49543 13.4435 1.36259 13.2841 1.28289C12.7527 1.07034 12.1948 0.9375 11.6103 0.9375C10.4413 0.9375 9.35199 1.38916 8.52838 2.21277C7.35938 3.38177 6.96086 5.08213 7.46565 6.62309L0.611068 13.5308C0.212546 13.9293 0 14.4341 0 14.9921C0 15.55 0.212546 16.0548 0.611068 16.4533C1.00959 16.8518 1.51439 17.0644 2.07232 17.0644C2.63025 17.0644 3.13504 16.8518 3.53357 16.4533L10.4413 9.54558C10.8398 9.65186 11.2383 9.70499 11.6369 9.70499ZM9.85679 8.64227C9.83022 8.6954 9.77708 8.72197 9.75052 8.77511L2.78966 15.736C2.4177 16.1079 1.7535 16.1079 1.35498 15.736C1.169 15.55 1.06273 15.2843 1.06273 15.0186C1.06273 14.7529 1.169 14.4873 1.35498 14.3013L8.31584 7.34043C8.3424 7.31386 8.36897 7.28729 8.39554 7.26072C8.58152 7.10131 8.63465 6.8622 8.55495 6.64966C8.02359 5.40095 8.31584 3.99284 9.27229 3.03639C9.88336 2.42532 10.7335 2.07993 11.6103 2.07993C11.7697 2.07993 11.9025 2.07993 12.0619 2.1065L10.521 3.64745C10.149 4.01941 9.93649 4.5242 9.93649 5.05557C9.93649 5.58693 10.149 6.09172 10.521 6.46368C10.8929 6.83563 11.3977 7.04818 11.9291 7.04818C12.4605 7.04818 12.9653 6.83563 13.3372 6.46368L14.8782 4.92272C15.011 5.93231 14.6922 6.96847 13.9483 7.71238C13.3372 8.32345 12.487 8.66884 11.6103 8.66884C11.2118 8.66884 10.8398 8.58913 10.4679 8.45629C10.2553 8.37659 10.0162 8.42972 9.85679 8.64227Z" fill="#043365"/>
<path id="Vector_2" d="M2.63034 13.716L2.01927 14.3271C1.80673 14.5397 1.80673 14.8585 2.01927 15.071C2.12554 15.1773 2.25839 15.2304 2.39123 15.2304C2.52407 15.2304 2.65691 15.1773 2.76318 15.071L3.37425 14.46C3.58679 14.2474 3.58679 13.9286 3.37425 13.716C3.1617 13.5035 2.81632 13.5035 2.63034 13.716Z" fill="#043365"/>
</g>
</svg>
