<svg width="60" height="42" viewBox="0 0 60 42" fill="none" xmlns="http://www.w3.org/2000/svg">
<path d="M1.5 40L9.5 1.5H51L59 40H1.5Z" fill="white" fill-opacity="0.4"/>
<path d="M8.2717 1.11064L8.27172 1.11055C8.37432 0.61377 8.81837 0.25 9.33354 0.25H50.6665C50.9155 0.249995 51.1569 0.335601 51.3502 0.492461C51.5435 0.649242 51.677 0.867679 51.7284 1.11117C51.7284 1.11129 51.7285 1.11141 51.7285 1.11154L59.7281 39.7761C59.7281 39.7763 59.7281 39.7766 59.7282 39.7768C59.7933 40.0977 59.7109 40.4335 59.507 40.6804L59.5053 40.6824C59.2996 40.9368 58.9912 41.0829 58.6664 41.0829H1.33362C1.00881 41.0829 0.700376 40.9368 0.494705 40.6824C0.288069 40.4268 0.206972 40.0962 0.271873 39.7765C0.271899 39.7764 0.271925 39.7762 0.271951 39.7761L8.2717 1.11064ZM53.0264 19.5831H53.3334L53.2713 19.2825L49.8246 2.61601L49.7834 2.41664H49.5798H31.3333H31.0833V2.66664V19.3331V19.5831H31.3333H53.0264ZM10.4202 2.41664H10.2166L10.1754 2.61601L6.72874 19.2825L6.66657 19.5831H6.97356H28.6667H28.9167V19.3331V2.66664V2.41664H28.6667H10.4202ZM6.55509 21.6477L6.26684 21.5094L6.20208 21.8225L2.72879 38.6156L2.66661 38.9163H2.9736H28.6667H28.9167V38.6663V21.9998V21.7498H28.6667H7.00023C6.83982 21.7498 6.68997 21.7125 6.55509 21.6477ZM31.0833 38.6663V38.9163H31.3333H57.0264H57.3334L57.2712 38.6156L53.7979 21.8225L53.7332 21.5094L53.4449 21.6477C53.31 21.7125 53.1602 21.7498 52.9998 21.7498H31.3333H31.0833V21.9998V38.6663Z" fill="white" stroke="#B9B9B9" stroke-width="0.5"/>
</svg>
