<svg width="20" height="17" viewBox="0 0 20 17" fill="none" xmlns="http://www.w3.org/2000/svg">
<path d="M2 16.5996C1.45 16.5996 0.979167 16.4038 0.5875 16.0121C0.195833 15.6204 0 15.1496 0 14.5996V2.59961C0 2.04961 0.195833 1.57878 0.5875 1.18711C0.979167 0.795443 1.45 0.599609 2 0.599609H8L10 2.59961H18C18.55 2.59961 19.0208 2.79544 19.4125 3.18711C19.8042 3.57878 20 4.04961 20 4.59961V14.5996C20 15.1496 19.8042 15.6204 19.4125 16.0121C19.0208 16.4038 18.55 16.5996 18 16.5996H2ZM2 14.5996H18V4.59961H9.175L7.175 2.59961H2V14.5996Z" fill="#72777F"/>
</svg>
