<svg width="18" height="17" viewBox="0 0 18 17" fill="none" xmlns="http://www.w3.org/2000/svg">
<path d="M9 16.515L7.695 15.345C6.18 13.98 4.9275 12.8025 3.9375 11.8125C2.9475 10.8225 2.16 9.93375 1.575 9.14625C0.99 8.35875 0.58125 7.635 0.34875 6.975C0.11625 6.315 0 5.64 0 4.95C0 3.54 0.4725 2.3625 1.4175 1.4175C2.3625 0.4725 3.54 0 4.95 0C5.73 0 6.4725 0.165 7.1775 0.495C7.8825 0.825 8.49 1.29 9 1.89C9.51 1.29 10.1175 0.825 10.8225 0.495C11.5275 0.165 12.27 0 13.05 0C14.46 0 15.6375 0.4725 16.5825 1.4175C17.5275 2.3625 18 3.54 18 4.95C18 5.64 17.8838 6.315 17.6513 6.975C17.4188 7.635 17.01 8.35875 16.425 9.14625C15.84 9.93375 15.0525 10.8225 14.0625 11.8125C13.0725 12.8025 11.82 13.98 10.305 15.345L9 16.515ZM9 14.085C10.44 12.795 11.625 11.6888 12.555 10.7663C13.485 9.84375 14.22 9.04125 14.76 8.35875C15.3 7.67625 15.675 7.06875 15.885 6.53625C16.095 6.00375 16.2 5.475 16.2 4.95C16.2 4.05 15.9 3.3 15.3 2.7C14.7 2.1 13.95 1.8 13.05 1.8C12.345 1.8 11.6925 1.99875 11.0925 2.39625C10.4925 2.79375 10.08 3.3 9.855 3.915H8.145C7.92 3.3 7.5075 2.79375 6.9075 2.39625C6.3075 1.99875 5.655 1.8 4.95 1.8C4.05 1.8 3.3 2.1 2.7 2.7C2.1 3.3 1.8 4.05 1.8 4.95C1.8 5.475 1.905 6.00375 2.115 6.53625C2.325 7.06875 2.7 7.67625 3.24 8.35875C3.78 9.04125 4.515 9.84375 5.445 10.7663C6.375 11.6888 7.56 12.795 9 14.085Z" fill="#043365"/>
</svg>
