<svg width="20" height="20" viewBox="0 0 20 20" fill="none" xmlns="http://www.w3.org/2000/svg">
<g id="info">
<mask id="mask0_3840_17130" style="mask-type:alpha" maskUnits="userSpaceOnUse" x="0" y="0" width="20" height="20">
<rect id="Bounding box" width="20" height="20" fill="#D9D9D9"/>
</mask>
<g mask="url(#mask0_3840_17130)">
<path id="info_2" d="M9.16797 14.167H10.8346V9.16699H9.16797V14.167ZM10.0013 7.50033C10.2374 7.50033 10.4353 7.42046 10.5951 7.26074C10.7548 7.10102 10.8346 6.9031 10.8346 6.66699C10.8346 6.43088 10.7548 6.23296 10.5951 6.07324C10.4353 5.91352 10.2374 5.83366 10.0013 5.83366C9.76519 5.83366 9.56727 5.91352 9.40755 6.07324C9.24783 6.23296 9.16797 6.43088 9.16797 6.66699C9.16797 6.9031 9.24783 7.10102 9.40755 7.26074C9.56727 7.42046 9.76519 7.50033 10.0013 7.50033ZM10.0013 18.3337C8.84852 18.3337 7.76519 18.1149 6.7513 17.6774C5.73741 17.2399 4.85547 16.6462 4.10547 15.8962C3.35547 15.1462 2.76172 14.2642 2.32422 13.2503C1.88672 12.2364 1.66797 11.1531 1.66797 10.0003C1.66797 8.84755 1.88672 7.76421 2.32422 6.75033C2.76172 5.73644 3.35547 4.85449 4.10547 4.10449C4.85547 3.35449 5.73741 2.76074 6.7513 2.32324C7.76519 1.88574 8.84852 1.66699 10.0013 1.66699C11.1541 1.66699 12.2374 1.88574 13.2513 2.32324C14.2652 2.76074 15.1471 3.35449 15.8971 4.10449C16.6471 4.85449 17.2409 5.73644 17.6784 6.75033C18.1159 7.76421 18.3346 8.84755 18.3346 10.0003C18.3346 11.1531 18.1159 12.2364 17.6784 13.2503C17.2409 14.2642 16.6471 15.1462 15.8971 15.8962C15.1471 16.6462 14.2652 17.2399 13.2513 17.6774C12.2374 18.1149 11.1541 18.3337 10.0013 18.3337ZM10.0013 16.667C11.8624 16.667 13.4388 16.0212 14.7305 14.7295C16.0221 13.4378 16.668 11.8614 16.668 10.0003C16.668 8.13921 16.0221 6.56283 14.7305 5.27116C13.4388 3.97949 11.8624 3.33366 10.0013 3.33366C8.14019 3.33366 6.5638 3.97949 5.27214 5.27116C3.98047 6.56283 3.33464 8.13921 3.33464 10.0003C3.33464 11.8614 3.98047 13.4378 5.27214 14.7295C6.5638 16.0212 8.14019 16.667 10.0013 16.667Z" fill="#979797"/>
</g>
</g>
</svg>
