<svg width="17" height="17" viewBox="0 0 17 17" fill="none" xmlns="http://www.w3.org/2000/svg">
<mask id="mask0_3126_13605" style="mask-type:luminance" maskUnits="userSpaceOnUse" x="1" y="1" width="15" height="15">
<path fill-rule="evenodd" clip-rule="evenodd" d="M1.41699 8.50008C1.41699 4.59008 4.59033 1.41675 8.50033 1.41675C12.4103 1.41675 15.5837 4.59008 15.5837 8.50008C15.5837 12.4101 12.4103 15.5834 8.50033 15.5834C4.59033 15.5834 1.41699 12.4101 1.41699 8.50008ZM9.20866 7.79175V12.0417H7.79199V7.79175H9.20866ZM8.50033 14.1667C5.37658 14.1667 2.83366 11.6238 2.83366 8.50008C2.83366 5.37633 5.37658 2.83341 8.50033 2.83341C11.6241 2.83341 14.167 5.37633 14.167 8.50008C14.167 11.6238 11.6241 14.1667 8.50033 14.1667ZM9.20866 4.95842V6.37508H7.79199V4.95842H9.20866Z" fill="white"/>
</mask>
<g mask="url(#mask0_3126_13605)">
<rect width="17" height="17" fill="#7D7D7E"/>
</g>
</svg>
