<svg width="362" height="108" viewBox="0 0 362 108" fill="none" xmlns="http://www.w3.org/2000/svg">
<mask id="mask0_165_14797" style="mask-type:alpha" maskUnits="userSpaceOnUse" x="0" y="0" width="362" height="108">
<rect width="362" height="107.597" fill="#D9D9D9"/>
</mask>
<g mask="url(#mask0_165_14797)">
<path fill-rule="evenodd" clip-rule="evenodd" d="M27.8704 16.3957C24.699 19.5671 22.9483 25.9634 24.1118 29.2931L16.7747 35.8071C15.5541 34.9743 13.9171 34.8528 12.545 35.6309C10.6236 36.7206 9.94943 39.1614 11.039 41.0827L15.293 48.5836C16.7138 51.0888 19.3717 52.6368 22.2516 52.6365L27.9371 52.6357L24.1118 59.2608C23.521 60.2844 23.308 61.4223 23.4296 62.5133L23.4293 73.3068L11.5768 80.1704C9.66534 81.2775 9.01302 83.7243 10.1198 85.636C11.2265 87.5474 13.6733 88.1998 15.5848 87.0931L28.7676 79.4607C30.4143 78.5073 31.4283 76.7486 31.4283 74.8457L31.4283 70.6448L38.4007 72.5117L38.4015 85.605C38.4018 87.814 40.1925 89.6044 42.4012 89.6044C44.6102 89.6044 46.4005 87.8137 46.4005 85.605L46.4005 70.468C46.4005 68.0546 44.7795 65.9421 42.4484 65.3174L39.5376 64.5375L43.2928 58.0338L43.3344 57.961L59.6688 67.4483L60.0111 67.6258C61.862 68.4769 64.0918 67.7962 65.1359 65.9986C66.2451 64.0885 65.5961 61.6409 63.686 60.5315L41.288 47.5227C38.0352 45.6334 34.3403 44.6381 30.5785 44.6373L22.2487 44.6363L18.4376 37.9149L25.875 31.3007C29.0617 32.7768 35.8753 31.0146 39.1822 27.7075C42.8315 24.0584 42.5004 19.9508 39.0638 16.5143C35.6271 13.0777 31.5195 12.7466 27.8704 16.3957ZM26.7082 28.5821C26.7951 28.669 26.8674 28.7649 26.9253 28.8668C28.4141 29.9372 34.596 28.5231 37.2969 25.8222C39.8312 23.288 39.6352 20.8564 37.1783 18.3996C34.7216 15.9428 32.29 15.7468 29.7557 18.281C27.1391 20.8977 25.7303 26.7818 26.6184 28.5C26.6493 28.5258 26.6792 28.5532 26.7082 28.5821Z" fill="url(#paint0_linear_165_14797)"/>
<path d="M49.9201 44.1132C47.1596 46.8734 42.6845 46.8734 39.9241 44.1132C37.1637 41.3528 37.1637 36.8774 39.9241 34.117C42.6845 31.3567 47.1596 31.3567 49.9201 34.117C52.6805 36.8774 52.6805 41.3528 49.9201 44.1132Z" fill="url(#paint1_linear_165_14797)"/>
<path d="M305.061 86.498C303.526 86.498 302.133 86.1142 300.881 85.3468C299.629 84.5794 298.619 83.5697 297.852 82.3176C297.084 81.0655 296.7 79.672 296.7 78.1372L296.7 59.7192C296.7 58.1844 297.084 56.7909 297.852 55.5388C298.619 54.2867 299.629 53.2769 300.881 52.5095C302.133 51.7421 303.526 51.3584 305.061 51.3584L324.024 51.3584C325.559 51.3584 326.953 51.7421 328.205 52.5095C329.497 53.2769 330.507 54.2867 331.234 55.5388C332.002 56.7909 332.385 58.1844 332.385 59.7192L332.385 72.9268L304.637 72.9268L304.637 77.8342C304.637 78.0362 304.698 78.2179 304.819 78.3795C304.98 78.5007 305.162 78.5613 305.364 78.5613L332.385 78.5613L332.385 86.498L305.061 86.498ZM304.637 65.7777L324.449 65.7777L324.449 60.0221C324.449 59.8202 324.368 59.6586 324.206 59.5374C324.085 59.3759 323.924 59.2951 323.722 59.2951L305.364 59.2951C305.162 59.2951 304.98 59.3759 304.819 59.5374C304.698 59.6586 304.637 59.8202 304.637 60.0221L304.637 65.7777Z" fill="url(#paint2_linear_165_14797)"/>
<path d="M264.415 86.498C262.88 86.498 261.486 86.1142 260.234 85.3468C258.982 84.5794 257.972 83.5697 257.205 82.3176C256.437 81.0655 256.054 79.672 256.054 78.1372L256.054 59.7192C256.054 58.1844 256.437 56.7909 257.205 55.5388C257.972 54.2867 258.982 53.2769 260.234 52.5095C261.486 51.7421 262.88 51.3584 264.415 51.3584L283.378 51.3584C284.913 51.3584 286.306 51.7421 287.558 52.5095C288.851 53.2769 289.86 54.2867 290.587 55.5388C291.355 56.7909 291.739 58.1844 291.739 59.7192L291.739 72.9268L263.99 72.9268L263.99 77.8342C263.99 78.0362 264.051 78.2179 264.172 78.3795C264.334 78.5007 264.515 78.5613 264.717 78.5613L291.739 78.5613L291.739 86.498L264.415 86.498ZM263.99 65.7777L283.802 65.7777L283.802 60.0221C283.802 59.8202 283.721 59.6586 283.56 59.5374C283.438 59.3759 283.277 59.2951 283.075 59.2951L264.717 59.2951C264.515 59.2951 264.334 59.3759 264.172 59.5374C264.051 59.6586 263.99 59.8202 263.99 60.0221L263.99 65.7777Z" fill="url(#paint3_linear_165_14797)"/>
<path d="M224.047 86.498L224.047 59.7192C224.047 58.1844 224.43 56.7909 225.198 55.5388C225.965 54.2867 226.975 53.2769 228.227 52.5095C229.519 51.7421 230.913 51.3584 232.407 51.3584L251.916 51.3584L251.916 59.2951L232.71 59.2951C232.508 59.2951 232.327 59.3759 232.165 59.5374C232.044 59.6586 231.983 59.8202 231.983 60.0221L231.983 86.498L224.047 86.498Z" fill="url(#paint4_linear_165_14797)"/>
<path d="M190.753 86.498C189.219 86.498 187.825 86.1142 186.573 85.3468C185.321 84.5794 184.311 83.5697 183.544 82.3176C182.776 81.0655 182.393 79.672 182.393 78.1372L182.393 59.7192C182.393 58.1844 182.776 56.7909 183.544 55.5388C184.311 54.2867 185.321 53.2769 186.573 52.5095C187.825 51.7421 189.219 51.3584 190.753 51.3584L209.717 51.3584C211.252 51.3584 212.645 51.7421 213.897 52.5095C215.19 53.2769 216.199 54.2867 216.926 55.5388C217.694 56.7909 218.078 58.1844 218.078 59.7192L218.078 72.9268L190.329 72.9268L190.329 77.8342C190.329 78.0362 190.39 78.2179 190.511 78.3795C190.673 78.5007 190.854 78.5613 191.056 78.5613L218.078 78.5613L218.078 86.498L190.753 86.498ZM190.329 65.7777L210.141 65.7777L210.141 60.0221C210.141 59.8202 210.06 59.6586 209.898 59.5374C209.777 59.3759 209.616 59.2951 209.414 59.2951L191.056 59.2951C190.854 59.2951 190.673 59.3759 190.511 59.5374C190.39 59.6586 190.329 59.8202 190.329 60.0221L190.329 65.7777Z" fill="url(#paint5_linear_165_14797)"/>
<path d="M156.481 86.4981L156.481 48.2081C156.481 46.6733 156.865 45.2798 157.632 44.0277C158.4 42.7756 159.409 41.7658 160.662 40.9984C161.914 40.231 163.307 39.8473 164.842 39.8473L178.11 39.8473L178.11 47.8446L165.145 47.8446C164.943 47.8446 164.761 47.9254 164.6 48.0869C164.478 48.2081 164.418 48.3696 164.418 48.5716L164.418 51.3585L178.11 51.3585L178.11 59.2952L164.418 59.2952L164.418 86.4981L156.481 86.4981Z" fill="url(#paint6_linear_165_14797)"/>
<path d="M122.772 86.498C121.237 86.498 119.844 86.1142 118.592 85.3468C117.34 84.5794 116.33 83.5697 115.563 82.3176C114.795 81.0655 114.411 79.672 114.411 78.1372L114.411 59.7192C114.411 58.1844 114.795 56.7909 115.563 55.5388C116.33 54.2867 117.34 53.2769 118.592 52.5095C119.844 51.7421 121.237 51.3584 122.772 51.3584L141.736 51.3584C143.27 51.3584 144.664 51.7421 145.916 52.5095C147.208 53.2769 148.218 54.2867 148.945 55.5388C149.713 56.7909 150.096 58.1844 150.096 59.7192L150.096 72.9268L122.348 72.9268L122.348 77.8342C122.348 78.0362 122.409 78.2179 122.53 78.3795C122.692 78.5007 122.873 78.5613 123.075 78.5613L150.096 78.5613L150.096 86.498L122.772 86.498ZM122.348 65.7777L142.16 65.7777L142.16 60.0221C142.16 59.8202 142.079 59.6586 141.917 59.5374C141.796 59.3759 141.635 59.2951 141.433 59.2951L123.075 59.2951C122.873 59.2951 122.692 59.3759 122.53 59.5374C122.409 59.6586 122.348 59.8202 122.348 60.0221L122.348 65.7777Z" fill="url(#paint7_linear_165_14797)"/>
<path d="M82.4045 86.498L82.4045 59.7192C82.4045 58.1844 82.7882 56.7909 83.5557 55.5388C84.3231 54.2867 85.3328 53.2769 86.5849 52.5095C87.8774 51.7421 89.2709 51.3584 90.7653 51.3584L110.274 51.3584L110.274 59.2951L91.0683 59.2951C90.8663 59.2951 90.6846 59.3759 90.523 59.5374C90.4018 59.6586 90.3412 59.8202 90.3412 60.0221L90.3412 86.498L82.4045 86.498Z" fill="url(#paint8_linear_165_14797)"/>
<path d="M175.988 33.9903L175.988 17.0264L179.139 17.0264L179.139 33.9903L175.988 33.9903Z" fill="url(#paint9_linear_165_14797)"/>
<path d="M160.269 33.9903L160.269 17.0264L163.42 17.0264L163.42 31.3245L172.29 31.3245L172.29 33.9903L160.269 33.9903Z" fill="url(#paint10_linear_165_14797)"/>
<path d="M144.55 33.9903L144.55 17.0264L147.701 17.0264L147.701 31.3245L156.571 31.3245L156.571 33.9903L144.55 33.9903Z" fill="url(#paint11_linear_165_14797)"/>
<path d="M130.012 24.0785L138.445 24.0785L138.445 26.6716L130.012 26.6716L130.012 24.0785ZM130.254 31.3488L139.827 31.3488L139.827 33.9903L127.104 33.9903L127.104 17.0264L139.487 17.0264L139.487 19.6679L130.254 19.6679L130.254 31.3488Z" fill="url(#paint12_linear_165_14797)"/>
<path d="M114.755 33.9903L114.755 19.6921L109.132 19.6921L109.132 17.0264L123.528 17.0264L123.528 19.6921L117.905 19.6921L117.905 33.9903L114.755 33.9903Z" fill="url(#paint13_linear_165_14797)"/>
<path d="M90.4825 33.9903L90.4825 17.0264L93.0756 17.0264L103.714 30.0886L102.43 30.0886L102.43 17.0264L105.556 17.0264L105.556 33.9903L102.963 33.9903L92.3243 20.9281L93.6088 20.9281L93.6088 33.9903L90.4825 33.9903Z" fill="url(#paint14_linear_165_14797)"/>
<path d="M81.5321 33.9904L81.5321 17.0265L84.6825 17.0265L84.6825 33.9904L81.5321 33.9904Z" fill="url(#paint15_linear_165_14797)"/>
<path d="M342.813 45.0981L342.812 33.7888L343.798 33.7888L348.968 42.6101L348.451 42.6101L353.572 33.7888L354.558 33.7888L354.558 45.0981L353.411 45.0981L353.411 35.5821L353.686 35.5821L348.968 43.6602L348.403 43.6602L343.653 35.5821L343.96 35.5821L343.96 45.0981L342.813 45.0981Z" fill="url(#paint16_linear_165_14797)"/>
<path d="M335.732 45.098L335.732 34.8227L331.758 34.8227L331.758 33.7887L340.902 33.7887L340.902 34.8227L336.928 34.8227L336.928 45.098L335.732 45.098Z" fill="url(#paint17_linear_165_14797)"/>
<path d="M68.1467 13.2903C68.1467 14.6844 67.0165 15.8147 65.6223 15.8147C64.2281 15.8147 63.0979 14.6844 63.0979 13.2903C63.0979 11.8961 64.2281 10.7659 65.6223 10.7659C67.0165 10.7659 68.1467 11.8961 68.1467 13.2903Z" fill="url(#paint18_linear_165_14797)"/>
<path fill-rule="evenodd" clip-rule="evenodd" d="M52.35 18.2959C52.3316 18.2432 52.3594 18.1856 52.412 18.1672L60.4996 15.3384C60.5523 15.32 60.6099 15.3477 60.6283 15.4004C60.6467 15.453 60.6189 15.5106 60.5663 15.529L52.4787 18.3579C52.426 18.3763 52.3684 18.3485 52.35 18.2959Z" fill="#20FF79"/>
<path fill-rule="evenodd" clip-rule="evenodd" d="M52.7714 16.2573C52.753 16.2047 52.7807 16.1471 52.8334 16.1287L60.921 13.2998C60.9736 13.2814 61.0312 13.3092 61.0497 13.3618C61.0681 13.4144 61.0403 13.472 60.9877 13.4905L52.9001 16.3193C52.8474 16.3377 52.7898 16.3099 52.7714 16.2573Z" fill="#20FF79"/>
</g>
<defs>
<linearGradient id="paint0_linear_165_14797" x1="37.3845" y1="27.4238" x2="37.3845" y2="120.695" gradientUnits="userSpaceOnUse">
<stop stop-color="#20FF79"/>
<stop offset="1" stop-color="#0E592C"/>
</linearGradient>
<linearGradient id="paint1_linear_165_14797" x1="44.8604" y1="34.5882" x2="44.8604" y2="51.9809" gradientUnits="userSpaceOnUse">
<stop stop-color="#20FF79"/>
<stop offset="1" stop-color="#0E592C"/>
</linearGradient>
<linearGradient id="paint2_linear_165_14797" x1="206.375" y1="38.5175" x2="206.375" y2="131.693" gradientUnits="userSpaceOnUse">
<stop stop-color="#20FF79"/>
<stop offset="1" stop-color="#0E592C"/>
</linearGradient>
<linearGradient id="paint3_linear_165_14797" x1="206.375" y1="38.5175" x2="206.375" y2="131.693" gradientUnits="userSpaceOnUse">
<stop stop-color="#20FF79"/>
<stop offset="1" stop-color="#0E592C"/>
</linearGradient>
<linearGradient id="paint4_linear_165_14797" x1="206.375" y1="38.5175" x2="206.375" y2="131.693" gradientUnits="userSpaceOnUse">
<stop stop-color="#20FF79"/>
<stop offset="1" stop-color="#0E592C"/>
</linearGradient>
<linearGradient id="paint5_linear_165_14797" x1="206.375" y1="38.5175" x2="206.375" y2="131.693" gradientUnits="userSpaceOnUse">
<stop stop-color="#20FF79"/>
<stop offset="1" stop-color="#0E592C"/>
</linearGradient>
<linearGradient id="paint6_linear_165_14797" x1="206.375" y1="38.5176" x2="206.375" y2="131.693" gradientUnits="userSpaceOnUse">
<stop stop-color="#20FF79"/>
<stop offset="1" stop-color="#0E592C"/>
</linearGradient>
<linearGradient id="paint7_linear_165_14797" x1="206.375" y1="38.5175" x2="206.375" y2="131.693" gradientUnits="userSpaceOnUse">
<stop stop-color="#20FF79"/>
<stop offset="1" stop-color="#0E592C"/>
</linearGradient>
<linearGradient id="paint8_linear_165_14797" x1="206.375" y1="38.5175" x2="206.375" y2="131.693" gradientUnits="userSpaceOnUse">
<stop stop-color="#20FF79"/>
<stop offset="1" stop-color="#0E592C"/>
</linearGradient>
<linearGradient id="paint9_linear_165_14797" x1="130.302" y1="16.0302" x2="130.302" y2="52.0581" gradientUnits="userSpaceOnUse">
<stop stop-color="#20FF79"/>
<stop offset="1" stop-color="#0E592C"/>
</linearGradient>
<linearGradient id="paint10_linear_165_14797" x1="130.303" y1="16.0302" x2="130.303" y2="52.0581" gradientUnits="userSpaceOnUse">
<stop stop-color="#20FF79"/>
<stop offset="1" stop-color="#0E592C"/>
</linearGradient>
<linearGradient id="paint11_linear_165_14797" x1="130.303" y1="16.0302" x2="130.303" y2="52.0581" gradientUnits="userSpaceOnUse">
<stop stop-color="#20FF79"/>
<stop offset="1" stop-color="#0E592C"/>
</linearGradient>
<linearGradient id="paint12_linear_165_14797" x1="130.303" y1="16.0302" x2="130.303" y2="52.0581" gradientUnits="userSpaceOnUse">
<stop stop-color="#20FF79"/>
<stop offset="1" stop-color="#0E592C"/>
</linearGradient>
<linearGradient id="paint13_linear_165_14797" x1="130.302" y1="16.0302" x2="130.302" y2="52.0581" gradientUnits="userSpaceOnUse">
<stop stop-color="#20FF79"/>
<stop offset="1" stop-color="#0E592C"/>
</linearGradient>
<linearGradient id="paint14_linear_165_14797" x1="130.302" y1="16.0302" x2="130.302" y2="52.0581" gradientUnits="userSpaceOnUse">
<stop stop-color="#20FF79"/>
<stop offset="1" stop-color="#0E592C"/>
</linearGradient>
<linearGradient id="paint15_linear_165_14797" x1="130.303" y1="16.0303" x2="130.303" y2="52.0582" gradientUnits="userSpaceOnUse">
<stop stop-color="#20FF79"/>
<stop offset="1" stop-color="#0E592C"/>
</linearGradient>
<linearGradient id="paint16_linear_165_14797" x1="344.205" y1="32.5726" x2="344.205" y2="57.4194" gradientUnits="userSpaceOnUse">
<stop stop-color="#20FF79"/>
<stop offset="1" stop-color="#0E592C"/>
</linearGradient>
<linearGradient id="paint17_linear_165_14797" x1="344.205" y1="32.5724" x2="344.205" y2="57.4193" gradientUnits="userSpaceOnUse">
<stop stop-color="#20FF79"/>
<stop offset="1" stop-color="#0E592C"/>
</linearGradient>
<linearGradient id="paint18_linear_165_14797" x1="65.6003" y1="11.6735" x2="65.6003" y2="17.8852" gradientUnits="userSpaceOnUse">
<stop stop-color="#20FF79"/>
<stop offset="1" stop-color="#0E592C"/>
</linearGradient>
</defs>
</svg>
