<svg width="73" height="77" viewBox="0 0 73 77" fill="none" xmlns="http://www.w3.org/2000/svg">
<mask id="mask0_90_6504" style="mask-type:alpha" maskUnits="userSpaceOnUse" x="0" y="0" width="73" height="77">
<path fill-rule="evenodd" clip-rule="evenodd" d="M17.6712 4.08201C14.2487 5.82674 11.0378 8.13076 8.17454 10.9941L10.5927 13.412C-3.58281 28.1057 -3.42234 51.5094 11.0741 66.0059C21.424 76.3558 36.3141 79.3981 49.3331 75.1329C44.7245 69.789 38.5049 64.1053 30.1116 60.7989C29.1673 60.4268 27.611 60.064 25.749 59.6299C20.5829 58.4256 13.0635 56.6726 9.73029 52.6521C3.68423 45.3593 7.54699 37.5713 10.2341 34.5889C12.5854 31.8879 19.0345 27.4987 26.021 31.5503C32.7403 35.4468 34.9574 44.0098 36.4834 49.9042C36.9408 51.6708 37.3362 53.1978 37.772 54.2875C40.7424 61.7133 47.3942 68.6092 52.9677 73.7283C57.0257 71.9111 60.8271 69.337 64.1582 66.0059L61.74 63.588C75.9156 48.8943 75.7551 25.4906 61.2586 10.9941C50.5191 0.254593 34.891 -2.6168 21.5375 2.37989C26.2823 8.26501 32.9895 15.0325 42.4698 18.7672C43.4142 19.1392 44.9704 19.502 46.8325 19.9361C51.9985 21.1405 59.5179 22.8935 62.8511 26.9139C68.8972 34.2068 65.0344 41.9947 62.3473 44.9771C59.996 47.6782 53.5469 52.0673 46.5603 48.0158C39.8411 44.1192 37.624 35.5562 36.098 29.6619C35.6406 27.8952 35.2452 26.3683 34.8093 25.2786C31.4843 16.966 23.546 9.31744 17.6712 4.08201Z" fill="white"/>
</mask>
<g mask="url(#mask0_90_6504)">
<path fill-rule="evenodd" clip-rule="evenodd" d="M-56.6078 73.2218L125.91 73.2218L125.91 74.0807L-56.6078 74.0807L-56.6078 73.2218Z" fill="#20FF79"/>
<path fill-rule="evenodd" clip-rule="evenodd" d="M-56.6078 69.3567L125.91 69.3567L125.91 70.2156L-56.6078 70.2156L-56.6078 69.3567Z" fill="#20FF79"/>
<path fill-rule="evenodd" clip-rule="evenodd" d="M-56.6078 65.4917L125.91 65.4917L125.91 66.3506L-56.6078 66.3506L-56.6078 65.4917Z" fill="#20FF79"/>
<path fill-rule="evenodd" clip-rule="evenodd" d="M-56.6078 61.6266L125.91 61.6266L125.91 62.4855L-56.6078 62.4855L-56.6078 61.6266Z" fill="#20FF79"/>
<path fill-rule="evenodd" clip-rule="evenodd" d="M-56.6078 57.7614L125.91 57.7615L125.91 58.6204L-56.6078 58.6203L-56.6078 57.7614Z" fill="#20FF79"/>
<path fill-rule="evenodd" clip-rule="evenodd" d="M-56.6078 53.8963L125.91 53.8963L125.91 54.7552L-56.6078 54.7552L-56.6078 53.8963Z" fill="#20FF79"/>
<path fill-rule="evenodd" clip-rule="evenodd" d="M-56.6078 50.0313L125.91 50.0314L125.91 50.8903L-56.6078 50.8902L-56.6078 50.0313Z" fill="#20FF79"/>
<path fill-rule="evenodd" clip-rule="evenodd" d="M-56.6078 46.1662L125.91 46.1662L125.91 47.0251L-56.6078 47.0251L-56.6078 46.1662Z" fill="#20FF79"/>
<path fill-rule="evenodd" clip-rule="evenodd" d="M-56.6078 42.3011L125.91 42.3011L125.91 43.16L-56.6078 43.16L-56.6078 42.3011Z" fill="#20FF79"/>
<path fill-rule="evenodd" clip-rule="evenodd" d="M-56.6078 38.436L125.91 38.436L125.91 39.2949L-56.6078 39.2949L-56.6078 38.436Z" fill="#20FF79"/>
<path fill-rule="evenodd" clip-rule="evenodd" d="M-56.6078 34.571L125.91 34.571L125.91 35.4299L-56.6078 35.4299L-56.6078 34.571Z" fill="#20FF79"/>
<path fill-rule="evenodd" clip-rule="evenodd" d="M-56.6078 30.7059L125.91 30.7059L125.91 31.5648L-56.6078 31.5648L-56.6078 30.7059Z" fill="#20FF79"/>
<path fill-rule="evenodd" clip-rule="evenodd" d="M-56.6078 26.8408L125.91 26.8408L125.91 27.6997L-56.6078 27.6997L-56.6078 26.8408Z" fill="#20FF79"/>
<path fill-rule="evenodd" clip-rule="evenodd" d="M-56.6078 22.9758L125.91 22.9758L125.91 23.8347L-56.6078 23.8347L-56.6078 22.9758Z" fill="#20FF79"/>
<path fill-rule="evenodd" clip-rule="evenodd" d="M-56.6078 19.1107L125.91 19.1107L125.91 19.9696L-56.6078 19.9696L-56.6078 19.1107Z" fill="#20FF79"/>
<path fill-rule="evenodd" clip-rule="evenodd" d="M-56.6078 15.2456L125.91 15.2456L125.91 16.1045L-56.6078 16.1045L-56.6078 15.2456Z" fill="#20FF79"/>
<path fill-rule="evenodd" clip-rule="evenodd" d="M-56.6078 11.3805L125.91 11.3805L125.91 12.2394L-56.6078 12.2394L-56.6078 11.3805Z" fill="#20FF79"/>
<path fill-rule="evenodd" clip-rule="evenodd" d="M-56.6078 7.51547L125.91 7.51548L125.91 8.37439L-56.6078 8.37437L-56.6078 7.51547Z" fill="#20FF79"/>
<path fill-rule="evenodd" clip-rule="evenodd" d="M-56.6078 3.65035L125.91 3.65037L125.91 4.50928L-56.6078 4.50926L-56.6078 3.65035Z" fill="#20FF79"/>
<path fill-rule="evenodd" clip-rule="evenodd" d="M-56.6078 -0.214758L125.91 -0.214742L125.91 0.644165L-56.6078 0.644149L-56.6078 -0.214758Z" fill="#20FF79"/>
<path fill-rule="evenodd" clip-rule="evenodd" d="M0.294966 -52.3933L0.294942 130.124L-0.563965 130.124L-0.563941 -52.3933L0.294966 -52.3933Z" fill="#20FF79"/>
<path fill-rule="evenodd" clip-rule="evenodd" d="M4.15996 -52.3933L4.15993 130.124L3.30103 130.124L3.30105 -52.3933L4.15996 -52.3933Z" fill="#20FF79"/>
<path fill-rule="evenodd" clip-rule="evenodd" d="M8.02495 -52.3933L8.02492 130.124L7.16602 130.124L7.16604 -52.3933L8.02495 -52.3933Z" fill="#20FF79"/>
<path fill-rule="evenodd" clip-rule="evenodd" d="M11.8902 -52.3933L11.8902 130.124L11.0312 130.124L11.0313 -52.3933L11.8902 -52.3933Z" fill="#20FF79"/>
<path fill-rule="evenodd" clip-rule="evenodd" d="M15.7552 -52.3933L15.7551 130.124L14.8962 130.124L14.8963 -52.3933L15.7552 -52.3933Z" fill="#20FF79"/>
<path fill-rule="evenodd" clip-rule="evenodd" d="M19.6204 -52.3933L19.6204 130.124L18.7615 130.124L18.7615 -52.3933L19.6204 -52.3933Z" fill="#20FF79"/>
<path fill-rule="evenodd" clip-rule="evenodd" d="M23.4854 -52.3933L23.4854 130.124L22.6265 130.124L22.6265 -52.3933L23.4854 -52.3933Z" fill="#20FF79"/>
<path fill-rule="evenodd" clip-rule="evenodd" d="M27.3504 -52.3933L27.3504 130.124L26.4915 130.124L26.4915 -52.3933L27.3504 -52.3933Z" fill="#20FF79"/>
<path fill-rule="evenodd" clip-rule="evenodd" d="M31.2156 -52.3933L31.2156 130.124L30.3567 130.124L30.3567 -52.3933L31.2156 -52.3933Z" fill="#20FF79"/>
<path fill-rule="evenodd" clip-rule="evenodd" d="M35.0806 -52.3933L35.0806 130.124L34.2217 130.124L34.2217 -52.3933L35.0806 -52.3933Z" fill="#20FF79"/>
<path fill-rule="evenodd" clip-rule="evenodd" d="M38.9456 -52.3933L38.9456 130.124L38.0867 130.124L38.0867 -52.3933L38.9456 -52.3933Z" fill="#20FF79"/>
<path fill-rule="evenodd" clip-rule="evenodd" d="M42.8108 -52.3933L42.8108 130.124L41.9519 130.124L41.9519 -52.3933L42.8108 -52.3933Z" fill="#20FF79"/>
<path fill-rule="evenodd" clip-rule="evenodd" d="M46.6758 -52.3933L46.6758 130.124L45.8169 130.124L45.8169 -52.3933L46.6758 -52.3933Z" fill="#20FF79"/>
<path fill-rule="evenodd" clip-rule="evenodd" d="M50.5411 -52.3933L50.541 130.124L49.6821 130.124L49.6822 -52.3933L50.5411 -52.3933Z" fill="#20FF79"/>
<path fill-rule="evenodd" clip-rule="evenodd" d="M54.406 -52.3933L54.406 130.124L53.5471 130.124L53.5471 -52.3933L54.406 -52.3933Z" fill="#20FF79"/>
<path fill-rule="evenodd" clip-rule="evenodd" d="M58.271 -52.3933L58.271 130.124L57.4121 130.124L57.4121 -52.3933L58.271 -52.3933Z" fill="#20FF79"/>
<path fill-rule="evenodd" clip-rule="evenodd" d="M62.1363 -52.3933L62.1363 130.124L61.2773 130.124L61.2774 -52.3933L62.1363 -52.3933Z" fill="#20FF79"/>
<path fill-rule="evenodd" clip-rule="evenodd" d="M66.0013 -52.3933L66.0012 130.124L65.1423 130.124L65.1424 -52.3933L66.0013 -52.3933Z" fill="#20FF79"/>
<path fill-rule="evenodd" clip-rule="evenodd" d="M69.8663 -52.3933L69.8662 130.124L69.0073 130.124L69.0073 -52.3933L69.8663 -52.3933Z" fill="#20FF79"/>
</g>
<path fill-rule="evenodd" clip-rule="evenodd" d="M61.7401 63.5879C75.9156 48.8942 75.7551 25.4905 61.2586 10.9941C50.9789 0.714356 36.2202 -2.35652 23.2644 1.78142C22.685 1.96649 22.1091 2.16598 21.5375 2.37989C21.9114 2.84366 22.2975 3.31291 22.6962 3.78572C27.3567 9.31279 33.7366 15.3268 42.4698 18.7672C43.4142 19.1392 44.9704 19.502 46.8325 19.9361C51.9985 21.1405 59.5179 22.8935 62.8511 26.9139C68.8972 34.2067 65.0344 41.9947 62.3473 44.9771C59.996 47.6782 53.5469 52.0673 46.5603 48.0158C39.8411 44.1192 37.624 35.5562 36.098 29.6619C35.6406 27.8952 35.2452 26.3683 34.8093 25.2786C31.4843 16.966 23.546 9.31744 17.6712 4.08201C14.7353 5.57868 11.9551 7.4869 9.41652 9.80669C8.99576 10.1912 8.58163 10.587 8.17454 10.9941L10.5927 13.412C-3.58281 28.1057 -3.42234 51.5094 11.0741 66.0059C20.9482 75.88 34.9548 79.103 47.5266 75.6747C48.1323 75.5096 48.7347 75.329 49.3331 75.1329C48.9302 74.6657 48.515 74.1959 48.087 73.7253C43.6203 68.8133 37.7711 63.8162 30.1116 60.7989C29.1673 60.4268 27.611 60.064 25.749 59.6299C20.5829 58.4256 13.0635 56.6726 9.73029 52.6521C3.68423 45.3593 7.54699 37.5713 10.2341 34.5889C12.5854 31.8879 19.0345 27.4987 26.021 31.5503C32.7403 35.4468 34.9574 44.0098 36.4834 49.9042C36.9408 51.6707 37.3362 53.1979 37.772 54.2875C40.7424 61.7133 47.3942 68.6092 52.9677 73.7283C56.5298 72.1332 59.8941 69.9549 62.9162 67.1933C63.3341 66.8114 63.7455 66.4183 64.15 66.0141C64.1527 66.0114 64.1554 66.0087 64.1582 66.0059L61.7401 63.5879C61.7401 63.5879 61.7401 63.588 61.7401 63.5879ZM61.7002 65.9774L60.5254 64.8028C59.863 64.1404 59.8534 63.0695 60.5037 62.3953C74.0301 48.3745 73.8769 26.0417 60.0439 12.2087C50.4141 2.57894 36.6629 -0.42354 24.4617 3.20963C28.9788 8.46653 35.0066 13.9809 43.0994 17.1689C43.8962 17.4828 45.2961 17.8141 47.2225 18.2632L47.263 18.2726C49.8243 18.8697 53.0824 19.6292 56.1265 20.7584C59.1504 21.88 62.2129 23.4526 64.1736 25.8176C67.5468 29.8864 68.1886 34.174 67.568 37.8481C66.9607 41.4432 65.1568 44.421 63.6333 46.1161C62.2872 47.6584 59.8431 49.6202 56.7363 50.658C53.5637 51.7178 49.6817 51.8117 45.6986 49.5018C41.9267 47.3145 39.4958 43.8613 37.8277 40.32C36.174 36.8095 35.2049 33.0664 34.449 30.1465L34.435 30.0924C33.9662 28.2818 33.6001 26.8807 33.2144 25.9166C30.2151 18.4183 23.1722 11.3563 17.417 6.16139C15.0191 7.48513 12.7398 9.10522 10.6326 11.0226L11.8073 12.1972C12.4698 12.8596 12.4794 13.9305 11.829 14.6047C-1.69735 28.6255 -1.54412 50.9583 12.2888 64.7913C21.4875 73.9899 34.4463 77.1415 46.2239 74.2383C41.95 69.6627 36.4889 65.1574 29.482 62.3971C28.6852 62.0832 27.2853 61.752 25.359 61.3029L25.3186 61.2935C22.7573 60.6964 19.4991 59.9369 16.4549 58.8077C13.431 57.686 10.3685 56.1134 8.40784 53.7485C5.03464 49.6797 4.39284 45.3921 5.01344 41.718C5.62072 38.1228 7.42467 35.1449 8.94814 33.4499C10.2943 31.9076 12.7383 29.9458 15.8451 28.9081C19.0177 27.8483 22.8997 27.7544 26.8828 30.0642C30.6547 32.2516 33.0856 35.7048 34.7537 39.246C36.4074 42.7566 37.3765 46.4997 38.1324 49.4195L38.1464 49.4736C38.6152 51.2842 38.9813 52.6854 39.367 53.6495C42.0389 60.3292 47.9329 66.6816 53.2876 71.6833C56.2845 70.2254 59.1213 68.3239 61.7002 65.9774Z" fill="#20FF79"/>
</svg>
