<svg width="95" height="95" viewBox="0 0 95 95" fill="none" xmlns="http://www.w3.org/2000/svg">
<circle cx="47.1738" cy="47.873" r="47" fill="#D6D9FF" fill-opacity="0.33"/>
<path d="M56.8543 32.4007C56.7878 32.1357 56.6311 31.902 56.4112 31.7397C56.1913 31.5775 55.9218 31.4968 55.6489 31.5115L47.5204 32.4459C47.203 32.5097 46.9236 32.6962 46.7428 32.9648C46.562 33.2334 46.4944 33.5624 46.5547 33.8805L48.9863 54.9868C48.999 55.3102 49.139 55.6155 49.3759 55.8361C49.6128 56.0567 49.9273 56.1747 50.2508 56.1644L76.0327 53.2048C76.3501 53.141 76.6295 52.9545 76.8103 52.6859C76.9911 52.4173 77.0587 52.0883 76.9984 51.7702L74.9628 34.0542C74.9483 33.7314 74.8077 33.4272 74.5713 33.207C74.3348 32.9867 74.0213 32.8681 73.6983 32.8766L59.6645 34.4884C58.4522 34.6135 57.2746 33.7555 56.8543 32.4007Z" fill="#263238"/>
<path d="M60.7492 24.7073C62.5457 32.5686 63.6936 40.5642 64.1813 48.6134C57.7711 49.373 51.3621 49.9716 44.9543 50.4093C44.4728 41.6213 43.0829 32.9068 40.8066 24.4051C45.334 23.187 49.8441 21.882 54.3368 20.4902C56.5044 21.8288 58.6418 23.2345 60.7492 24.7073Z" fill="#9CA1D6"/>
<path opacity="0.7" d="M60.7492 24.7073C62.5457 32.5686 63.6936 40.5642 64.1813 48.6134C57.7711 49.373 51.3621 49.9716 44.9543 50.4093C44.4728 41.6213 43.0829 32.9068 40.8066 24.4051C45.334 23.187 49.8441 21.882 54.3368 20.4902C56.5044 21.8288 58.6418 23.2345 60.7492 24.7073Z" fill="#FAFAFA"/>
<path d="M59.6648 28.732C54.6558 29.9895 49.6316 31.1474 44.5924 32.2057C44.5402 32.2158 44.4864 32.2154 44.4343 32.2045C44.3822 32.1937 44.3328 32.1727 44.2889 32.1426C44.245 32.1126 44.2074 32.0742 44.1784 32.0295C44.1494 31.9849 44.1296 31.935 44.12 31.8827C44.0981 31.7773 44.1181 31.6676 44.1759 31.5767C44.2336 31.4859 44.3244 31.4212 44.4291 31.3963C49.4637 30.3195 54.4809 29.1373 59.4807 27.8497C59.5355 27.8387 59.5918 27.8392 59.6464 27.851C59.7009 27.8628 59.7524 27.8857 59.7977 27.9183C59.843 27.9509 59.8811 27.9925 59.9097 28.0404C59.9382 28.0884 59.9566 28.1417 59.9636 28.197C59.9885 28.3074 59.9718 28.423 59.9167 28.5217C59.8615 28.6205 59.7719 28.6954 59.6648 28.732Z" fill="#9CA1D6"/>
<path d="M60.2072 31.5558C55.1726 32.7137 50.1276 33.7697 45.0722 34.7238C45.0197 34.7333 44.9659 34.7323 44.9138 34.7207C44.8617 34.7092 44.8124 34.6875 44.7688 34.6568C44.7251 34.6261 44.688 34.5871 44.6596 34.5419C44.6312 34.4968 44.6121 34.4464 44.6032 34.3938C44.5827 34.2875 44.6046 34.1774 44.6644 34.0871C44.7241 33.9968 44.8169 33.9336 44.9228 33.911C49.9736 32.9268 55.0128 31.8395 60.0404 30.6492C60.0946 30.6393 60.1503 30.6405 60.204 30.6528C60.2577 30.6651 60.3084 30.6882 60.3529 30.7207C60.3974 30.7532 60.4349 30.7944 60.463 30.8418C60.4911 30.8893 60.5092 30.9419 60.5163 30.9965C60.5459 31.1116 60.5304 31.2336 60.4729 31.3376C60.4154 31.4416 60.3203 31.5196 60.2072 31.5558Z" fill="#9CA1D6"/>
<path d="M60.6953 34.404C55.6399 35.4692 50.5752 36.4303 45.5012 37.2871C45.448 37.2955 45.3936 37.293 45.3413 37.28C45.289 37.2669 45.2399 37.2435 45.1968 37.2111C45.1537 37.1787 45.1176 37.138 45.0905 37.0914C45.0635 37.0448 45.046 36.9932 45.0392 36.9398C45.0298 36.8854 45.0314 36.8297 45.0439 36.776C45.0564 36.7222 45.0795 36.6715 45.1118 36.6268C45.1442 36.5822 45.1852 36.5444 45.2324 36.5158C45.2796 36.4873 45.332 36.4684 45.3866 36.4604C50.4536 35.5758 55.5125 34.5846 60.5633 33.4869C60.6187 33.4786 60.6753 33.4818 60.7295 33.4963C60.7837 33.5108 60.8343 33.5362 60.8783 33.5711C60.9223 33.6059 60.9586 33.6494 60.9851 33.6989C61.0116 33.7483 61.0276 33.8027 61.0322 33.8586C61.0575 33.9754 61.0366 34.0975 60.9737 34.1992C60.9109 34.3009 60.8111 34.3743 60.6953 34.404Z" fill="#9CA1D6"/>
<path d="M61.1251 37.2588C56.0512 38.2291 50.968 39.0941 45.8755 39.8537C45.8228 39.861 45.7691 39.8578 45.7177 39.8443C45.6662 39.8307 45.6179 39.8071 45.5756 39.7748C45.5333 39.7425 45.4978 39.7022 45.4711 39.6561C45.4445 39.61 45.4273 39.5591 45.4205 39.5063C45.4045 39.3977 45.432 39.2871 45.497 39.1987C45.5621 39.1102 45.6594 39.051 45.7678 39.0339C50.8626 38.2419 55.94 37.3456 61.0001 36.3452C61.0558 36.338 61.1125 36.3423 61.1665 36.3579C61.2205 36.3734 61.2708 36.4 61.3141 36.4358C61.3575 36.4717 61.393 36.516 61.4184 36.5662C61.4439 36.6163 61.4587 36.6712 61.4621 36.7273C61.4843 36.8422 61.4618 36.9612 61.3992 37.06C61.3365 37.1588 61.2385 37.2299 61.1251 37.2588Z" fill="#9CA1D6"/>
<path d="M55.4224 41.1205C52.3516 41.5952 49.2786 42.034 46.2032 42.437C46.1498 42.4428 46.0957 42.4379 46.0442 42.4226C45.9927 42.4074 45.9447 42.382 45.903 42.3481C45.8613 42.3142 45.8268 42.2724 45.8014 42.225C45.776 42.1777 45.7603 42.1257 45.7551 42.0723C45.7419 41.9649 45.7707 41.8566 45.8354 41.7699C45.9001 41.6832 45.9958 41.6248 46.1024 41.6068C49.1732 41.1876 52.2428 40.7302 55.3112 40.2347C55.3661 40.2289 55.4216 40.2342 55.4744 40.2503C55.5272 40.2663 55.5762 40.2927 55.6186 40.328C55.661 40.3633 55.6959 40.4067 55.7213 40.4557C55.7467 40.5047 55.762 40.5583 55.7663 40.6133C55.7841 40.7257 55.7585 40.8407 55.6946 40.9348C55.6307 41.029 55.5334 41.0954 55.4224 41.1205Z" fill="#9CA1D6"/>
<path d="M60.7465 24.7086C59.0768 25.1718 57.4024 25.6349 55.7235 26.0981C55.2997 24.22 54.8365 22.3546 54.334 20.502C56.5016 21.8335 58.6391 23.2358 60.7465 24.7086Z" fill="#9CA1D6"/>
<path d="M61.2342 36.1428C61.2219 36.0225 61.1853 35.9059 61.1267 35.8001C61.0681 35.6943 60.9888 35.6014 60.8933 35.5271C60.7979 35.4527 60.6884 35.3985 60.5715 35.3676C60.4546 35.3367 60.3326 35.3298 60.2129 35.3473L52.0844 36.2783C51.7662 36.3329 51.4753 36.492 51.2576 36.7304C51.04 36.9688 50.908 37.273 50.8825 37.5948L49.6285 55.0606C49.6082 55.2022 49.6211 55.3466 49.6663 55.4823C49.7114 55.618 49.7876 55.7414 49.8888 55.8425C49.9899 55.9436 50.1132 56.0198 50.2489 56.065C50.3847 56.1102 50.529 56.1231 50.6706 56.1028L76.456 53.164C76.7741 53.1107 77.0653 52.9525 77.2831 52.7145C77.5009 52.4765 77.6329 52.1726 77.6579 51.8509L78.7 37.4524C78.7226 37.3096 78.7114 37.1636 78.6673 37.0259C78.6232 36.8883 78.5475 36.7629 78.4461 36.6599C78.3448 36.5568 78.2207 36.479 78.0838 36.4326C77.9469 36.3863 77.801 36.3727 77.6579 36.3929L63.6241 38.0047C63.3437 38.0476 63.0576 38.0328 62.7831 37.9613C62.5087 37.8897 62.2518 37.7629 62.028 37.5886C61.8043 37.4143 61.6185 37.1962 61.482 36.9476C61.3455 36.699 61.2612 36.4251 61.2342 36.1428Z" fill="#9CA1D6"/>
<path d="M41.4917 49.6904C40.7692 56.8879 39.8799 64.0472 38.8239 71.1684C32.4856 70.1633 26.1426 69.1918 19.7949 68.2539C21.0547 59.7155 22.069 51.1146 22.8379 42.4512C27.4996 42.8773 32.1671 43.3219 36.8404 43.7851C38.4036 45.7304 39.954 47.6988 41.4917 49.6904Z" fill="#9CA1D6"/>
<path opacity="0.7" d="M41.4917 49.6904C40.7692 56.8879 39.8799 64.0472 38.8239 71.1684C32.4856 70.1633 26.1426 69.1918 19.7949 68.2539C21.0547 59.7155 22.069 51.1146 22.8379 42.4512C27.4996 42.8773 32.1671 43.3219 36.8404 43.7851C38.4036 45.7304 39.954 47.6988 41.4917 49.6904Z" fill="#FAFAFA"/>
<path d="M39.2517 52.74C34.1569 52.1356 29.0471 51.5566 23.9222 51.0032C23.8176 50.9893 23.7226 50.9349 23.6577 50.8518C23.5927 50.7687 23.563 50.6634 23.5748 50.5585C23.5887 50.4546 23.6425 50.3602 23.7249 50.2953C23.8073 50.2305 23.9117 50.2003 24.016 50.2112C29.1293 50.7623 34.2403 51.3355 39.3489 51.9306C39.4553 51.9478 39.5509 52.0055 39.6157 52.0917C39.6805 52.1778 39.7094 52.2857 39.6963 52.3926C39.6808 52.4965 39.626 52.5904 39.5433 52.655C39.4605 52.7196 39.3562 52.7501 39.2517 52.74Z" fill="#9CA1D6"/>
<path d="M38.9601 55.3412C33.8653 54.7113 28.7589 54.1023 23.641 53.514C23.5358 53.4985 23.4408 53.4427 23.376 53.3585C23.3112 53.2742 23.2817 53.1681 23.2936 53.0625C23.3083 52.9583 23.3629 52.8638 23.4458 52.799C23.5288 52.7343 23.6336 52.7042 23.7383 52.7151C28.8492 53.2964 33.9568 53.8973 39.0608 54.5179C39.1679 54.5351 39.264 54.5933 39.3289 54.6802C39.3937 54.7671 39.4222 54.8759 39.4082 54.9834C39.3959 55.0902 39.3419 55.1878 39.258 55.2548C39.174 55.3219 39.0669 55.3529 38.9601 55.3412Z" fill="#9CA1D6"/>
<path d="M38.6606 57.9398C33.5658 57.2798 28.4629 56.6418 23.3519 56.0258C23.2468 56.0103 23.1518 55.9545 23.087 55.8702C23.0221 55.786 22.9926 55.6798 23.0046 55.5742C23.0201 55.4697 23.0754 55.3753 23.1589 55.3105C23.2423 55.2458 23.3476 55.2158 23.4527 55.2268C28.5474 55.8359 33.6515 56.4658 38.7648 57.1165C38.8719 57.1337 38.968 57.1919 39.0329 57.2788C39.0977 57.3657 39.1262 57.4745 39.1122 57.582C39.0991 57.6891 39.0444 57.7867 38.9598 57.8536C38.8753 57.9206 38.7678 57.9516 38.6606 57.9398Z" fill="#9CA1D6"/>
<path d="M38.3437 60.5356C33.2489 59.8409 28.1541 59.1751 23.0593 58.5382C22.9538 58.5235 22.8582 58.468 22.7933 58.3835C22.7283 58.299 22.6991 58.1924 22.712 58.0866C22.7258 57.9814 22.7807 57.8859 22.8646 57.8208C22.9485 57.7558 23.0547 57.7265 23.1601 57.7393C28.2548 58.3738 33.3554 59.0315 38.4618 59.7123C38.5695 59.7295 38.6663 59.7882 38.7312 59.8759C38.7962 59.9636 38.8241 60.0732 38.8091 60.1813C38.8023 60.2353 38.7848 60.2875 38.7576 60.3346C38.7304 60.3818 38.6941 60.4231 38.6507 60.4561C38.6074 60.4891 38.5579 60.5131 38.5052 60.5268C38.4525 60.5404 38.3976 60.5434 38.3437 60.5356Z" fill="#9CA1D6"/>
<path d="M31.9365 62.2822C28.8658 61.8631 25.795 61.4497 22.7242 61.0421C22.6716 61.0357 22.6207 61.0189 22.5747 60.9926C22.5286 60.9664 22.4882 60.9312 22.4559 60.8892C22.4236 60.8471 22.3999 60.7991 22.3863 60.7478C22.3728 60.6965 22.3696 60.6431 22.3769 60.5906C22.3907 60.4853 22.4456 60.3898 22.5295 60.3247C22.6134 60.2597 22.7196 60.2304 22.825 60.2432C25.9004 60.6438 28.9711 61.0514 32.0373 61.4659C32.1447 61.4822 32.2414 61.5403 32.3065 61.6274C32.3715 61.7145 32.3996 61.8237 32.3846 61.9314C32.3707 62.0369 32.316 62.1328 32.2322 62.1984C32.1484 62.264 32.0423 62.2941 31.9365 62.2822Z" fill="#9CA1D6"/>
<path d="M41.4885 49.6942L36.3301 49.1245C36.5107 47.3413 36.6798 45.557 36.8372 43.7715C38.4004 45.7283 39.9508 47.7026 41.4885 49.6942Z" fill="#9CA1D6"/>
</svg>
