<svg width="22" height="20" viewBox="0 0 22 20" fill="none" xmlns="http://www.w3.org/2000/svg">
<g id="Group">
<path id="Vector" d="M20.6951 8.75021H15.5781C15.0755 6.68981 13.2189 5.15924 10.991 5.15924C8.7721 5.15924 6.92001 6.68531 6.41737 8.74567H1.30493C1.34117 8.41962 1.57662 8.14793 1.89814 8.07547L3.37437 7.71321C3.63699 7.65434 3.84077 7.45962 3.94041 7.21057C3.99021 7.05209 4.05815 6.89359 4.12605 6.74414C4.23926 6.49509 4.23926 6.2053 4.09888 5.98339L3.29737 4.68377C3.11172 4.36678 3.15699 3.96832 3.41964 3.71474L4.85963 2.27471C5.11322 2.01662 5.51624 1.97133 5.82416 2.16151L7.11925 2.95849C7.35473 3.09434 7.64002 3.1034 7.88907 2.99019C8.03851 2.92229 8.18795 2.85435 8.34643 2.80001C8.59548 2.70491 8.7902 2.50113 8.8536 2.23851L9.21586 0.753213C9.29737 0.400019 9.61435 0.15094 9.98114 0.15094H12.0098C12.3766 0.15094 12.6936 0.400019 12.7796 0.753213L13.1329 2.23851C13.2008 2.50113 13.3955 2.70491 13.6536 2.79548C13.8121 2.85435 13.9615 2.92229 14.111 2.99019C14.36 3.1034 14.6453 3.09434 14.8808 2.95849L16.1759 2.16151C16.4838 1.97133 16.8823 2.01662 17.1404 2.27471L18.5804 3.71474C18.834 3.96832 18.8793 4.36678 18.6936 4.67924L17.9011 5.97435C17.7563 6.2053 17.7517 6.48605 17.8649 6.7351C17.9374 6.88455 18.0008 7.04302 18.0596 7.21057C18.1592 7.45962 18.363 7.65434 18.6257 7.71321L20.1019 8.07547C20.4234 8.14793 20.6589 8.41962 20.6951 8.75021Z" fill="#008CE6"/>
<path id="Vector_2" d="M21.8679 9.73285C21.8679 9.9004 21.7321 10.0362 21.5645 10.0362H18.3087C18.4149 11.3032 17.967 12.5157 19.0287 13.5774L19.6943 14.2476H19.6989C19.871 14.1298 20.0702 14.0664 20.2876 14.0664C20.8808 14.0664 21.3608 14.5464 21.3608 15.1396C21.3608 15.7238 20.8808 16.2038 20.2876 16.2038C19.7034 16.2038 19.2234 15.7238 19.2234 15.1396C19.2234 14.9902 19.2551 14.8498 19.3094 14.7231C19.3094 14.7185 19.3094 14.7185 19.3094 14.7185L18.5985 14.0076C17.3137 12.7228 17.8141 11.2372 17.7019 10.0362H15.4423V16.2491C15.4423 16.5253 15.6687 16.7472 15.9449 16.7472H17.1404C17.2853 16.3261 17.6838 16.0227 18.1502 16.0227C18.7389 16.0227 19.2234 16.5027 19.2234 17.0959C19.2234 17.68 18.7389 18.16 18.1502 18.16C17.6521 18.16 17.2309 17.8159 17.1132 17.3585H15.9449C15.3336 17.3585 14.8355 16.8604 14.8355 16.2491V10.0362H12.6483V17.1366C13.0921 17.268 13.4136 17.68 13.4136 18.1645C13.4136 18.7487 12.9336 19.2287 12.3404 19.2287C11.7562 19.2287 11.2762 18.7487 11.2762 18.1645C11.2762 17.6755 11.6023 17.2634 12.0415 17.1321V10.0362H9.92226V15.2438C9.92226 15.8325 9.69585 16.3804 9.27925 16.797L7.75775 18.3185C7.82566 18.4589 7.86642 18.6174 7.86642 18.7849C7.86642 19.3691 7.38642 19.8491 6.79322 19.8491C6.20908 19.8491 5.72907 19.3691 5.72907 18.7849C5.72907 18.1917 6.20908 17.7117 6.79322 17.7117C6.997 17.7117 7.18718 17.7706 7.34566 17.8702L8.84906 16.3668C9.15247 16.0679 9.31549 15.6695 9.31549 15.2438V10.0362H7.06037V12.7125C7.06037 13.3012 6.82945 13.8536 6.41736 14.2657L5.20378 15.4793C5.26718 15.6151 5.29889 15.7645 5.29889 15.923C5.29889 16.5072 4.81889 16.9872 4.22568 16.9872C3.64151 16.9872 3.16151 16.5072 3.16151 15.923C3.16151 15.3298 3.64151 14.8498 4.22568 14.8498C4.43396 14.8498 4.63321 14.9132 4.80076 15.0219L5.98717 13.8355C6.28605 13.5366 6.44907 13.1381 6.44907 12.7125V10.0362H4.29812V11.9336C4.29812 12.5268 3.81359 13.0113 3.22039 13.0113H2.5502C2.40983 13.437 2.00227 13.7449 1.53133 13.7449C0.94266 13.7449 0.46266 13.2649 0.46266 12.6808C0.46266 12.0876 0.94266 11.6076 1.53133 11.6076C2.02491 11.6076 2.44606 11.9472 2.56831 12.4045H3.22038C3.4785 12.4045 3.69134 12.1917 3.69134 11.9336V10.0362H0.435494C0.26792 10.0362 0.13208 9.90038 0.13208 9.72831C0.132076 9.64681 0.163778 9.57435 0.222646 9.52001C0.236245 9.50644 0.249816 9.49284 0.26792 9.47927C0.313221 9.44303 0.372089 9.42493 0.435494 9.42493C1.56508 9.42522 20.4358 9.42928 21.5645 9.42946C21.7321 9.42946 21.8679 9.56531 21.8679 9.73285Z" fill="#008CE6"/>
</g>
</svg>
