<svg width="95" height="95" viewBox="0 0 95 95" fill="none" xmlns="http://www.w3.org/2000/svg">
<g id="Group 1000005242">
<g id="Group 1000005241">
<g id="Group 1000004614">
<circle id="Ellipse 411" cx="47.1738" cy="47.873" r="47" fill="#EEEBFF"/>
<g id="Group 1000005281">
<path id="Union" fill-rule="evenodd" clip-rule="evenodd" d="M21.0015 48.2818C21.0005 48.188 21 48.094 21 48C21 47.906 21.0005 47.812 21.0015 47.7182V47.6232L21.0027 47.6243C21.2036 33.4381 32.766 22 47 22C61.3594 22 73 33.6406 73 48C73 62.1109 61.7588 73.5963 47.7431 73.9896L47.7536 74H47H24.0015C22.3446 74 21.0015 72.6569 21.0015 71V48.2818Z" fill="url(#paint0_linear_8970_5650)"/>
<g id="Group 1000005280">
<rect id="Rectangle 3713" x="29.7812" y="42.8418" width="34.4348" height="13.3333" rx="6.66667" fill="url(#paint1_linear_8970_5650)" stroke="#261293" stroke-width="4"/>
<circle id="Ellipse 522" cx="36.4471" cy="49.5076" r="5.65217" fill="white"/>
<circle id="Ellipse 521" cx="57.5487" cy="49.5076" r="5.65217" fill="white"/>
</g>
</g>
</g>
</g>
</g>
<defs>
<linearGradient id="paint0_linear_8970_5650" x1="47" y1="22" x2="47" y2="74" gradientUnits="userSpaceOnUse">
<stop stop-color="#816DF8"/>
<stop offset="1" stop-color="#AB9EFF"/>
</linearGradient>
<linearGradient id="paint1_linear_8970_5650" x1="33.63" y1="58.1751" x2="52.5689" y2="58.1751" gradientUnits="userSpaceOnUse">
<stop offset="0.335955" stop-color="#3F2ABE"/>
<stop offset="1" stop-color="#5E39FB"/>
</linearGradient>
</defs>
</svg>
