<svg width="94" height="94" viewBox="0 0 94 94" fill="none" xmlns="http://www.w3.org/2000/svg">
<circle cx="47.0005" cy="47" r="47" fill="#E7F8FB"/>
<path d="M29.9482 24.3108L26.4771 75L68.8027 75L72.6364 19L35.6239 19L29.9482 24.3108Z" fill="#51A8BF"/>
<path opacity="0.8" d="M29.9482 24.3108L26.4771 75L68.8027 75L72.6364 19L35.6239 19L29.9482 24.3108Z" fill="white" fill-opacity="0.75"/>
<path opacity="0.3" d="M33.6415 30.6327L49.6837 30.6327C49.833 30.6304 49.9761 30.5724 50.085 30.4702C50.1938 30.368 50.2606 30.2288 50.2723 30.0799C50.2783 30.0092 50.2693 29.9379 50.2461 29.8708C50.2228 29.8037 50.1857 29.7422 50.1372 29.6904C50.0887 29.6385 50.0298 29.5974 49.9644 29.5696C49.8991 29.5419 49.8286 29.5282 49.7576 29.5294L33.7176 29.5294C33.5684 29.5316 33.4254 29.5892 33.3162 29.6909C33.207 29.7926 33.1395 29.9313 33.1268 30.0799C33.1208 30.1508 33.1298 30.2221 33.1531 30.2893C33.1763 30.3566 33.2134 30.4182 33.2618 30.4702C33.3103 30.5223 33.3691 30.5636 33.4345 30.5916C33.4999 30.6196 33.5704 30.6336 33.6415 30.6327Z" fill="#51A8BF"/>
<path opacity="0.3" d="M38.0766 33.0585L49.5152 33.0585C49.6646 33.0557 49.8076 32.9977 49.9168 32.8956C50.0259 32.7935 50.0933 32.6546 50.106 32.5057C50.1119 32.4349 50.103 32.3637 50.0797 32.2966C50.0564 32.2295 50.0194 32.168 49.9709 32.1162C49.9223 32.0643 49.8635 32.0231 49.7981 31.9954C49.7327 31.9677 49.6623 31.954 49.5913 31.9551L38.1527 31.9551C38.0035 31.9574 37.8604 32.0149 37.7512 32.1167C37.6421 32.2184 37.5746 32.357 37.5618 32.5057C37.5559 32.5766 37.5649 32.6479 37.5881 32.7151C37.6114 32.7823 37.6484 32.844 37.6969 32.896C37.7454 32.9481 37.8042 32.9894 37.8696 33.0174C37.9349 33.0454 38.0055 33.0594 38.0766 33.0585Z" fill="#51A8BF"/>
<path d="M40.7462 28.2049L49.8461 28.2049C49.9952 28.2032 50.1382 28.1457 50.2472 28.0438C50.3561 27.9419 50.4229 27.803 50.4347 27.6544C50.4406 27.5837 50.4317 27.5125 50.4086 27.4455C50.3854 27.3784 50.3486 27.3169 50.3004 27.2649C50.2521 27.2129 50.1936 27.1715 50.1285 27.1434C50.0634 27.1153 49.9931 27.101 49.9222 27.1016L40.8223 27.1016C40.673 27.1039 40.5299 27.1619 40.4211 27.2641C40.3122 27.3663 40.2454 27.5055 40.2337 27.6544C40.2278 27.725 40.2367 27.796 40.2598 27.8629C40.283 27.9299 40.3199 27.9912 40.3681 28.0431C40.4164 28.0949 40.4749 28.1361 40.5401 28.164C40.6052 28.1919 40.6754 28.2058 40.7462 28.2049Z" fill="white"/>
<path opacity="0.3" d="M40.766 66.0801L47.2562 66.0801C47.3273 66.079 47.3977 66.0927 47.4631 66.1204C47.5285 66.1481 47.5873 66.1893 47.6358 66.2411C47.6843 66.293 47.7214 66.3545 47.7447 66.4216C47.768 66.4887 47.7769 66.5599 47.771 66.6307C47.7593 66.78 47.6922 66.9194 47.5828 67.0217C47.4735 67.124 47.3299 67.1817 47.1802 67.1835L40.6899 67.1835C40.6187 67.1844 40.5482 67.1704 40.4828 67.1424C40.4175 67.1144 40.3586 67.0731 40.3102 67.021C40.2617 66.9689 40.2247 66.9073 40.2014 66.8401C40.1781 66.7729 40.1692 66.7016 40.1751 66.6307C40.1874 66.4818 40.2547 66.3429 40.364 66.2411C40.4733 66.1393 40.6166 66.0819 40.766 66.0801Z" fill="#51A8BF"/>
<path opacity="0.3" d="M31.9769 66.0801L38.4672 66.0801C38.5382 66.079 38.6087 66.0927 38.674 66.1204C38.7394 66.1481 38.7983 66.1893 38.8468 66.2411C38.8953 66.293 38.9324 66.3545 38.9557 66.4216C38.9789 66.4887 38.9879 66.5599 38.9819 66.6307C38.9692 66.7796 38.9018 66.9185 38.7927 67.0206C38.6836 67.1227 38.5405 67.1807 38.3911 67.1835L31.9008 67.1835C31.8297 67.1844 31.7592 67.1704 31.6938 67.1424C31.6284 67.1144 31.5696 67.0731 31.5211 67.021C31.4726 66.9689 31.4356 66.9073 31.4123 66.8401C31.3891 66.7729 31.3801 66.7016 31.3861 66.6307C31.3978 66.4817 31.465 66.3424 31.5744 66.2405C31.6838 66.1386 31.8274 66.0814 31.9769 66.0801Z" fill="#51A8BF"/>
<path opacity="0.3" d="M35.9783 63.6524L47.4169 63.6524C47.4879 63.6512 47.5583 63.6649 47.6237 63.6927C47.6891 63.7204 47.7479 63.7615 47.7965 63.8134C47.845 63.8653 47.882 63.9268 47.9053 63.9939C47.9286 64.061 47.9376 64.1322 47.9316 64.203C47.9199 64.3518 47.8531 64.491 47.7443 64.5933C47.6354 64.6955 47.4923 64.7534 47.343 64.7558L35.9022 64.7558C35.8312 64.7567 35.7607 64.7427 35.6954 64.7147C35.6302 64.6866 35.5715 64.6453 35.5232 64.5932C35.4749 64.5411 35.438 64.4794 35.415 64.4122C35.3921 64.345 35.3834 64.2737 35.3897 64.203C35.4014 64.0543 35.4683 63.9154 35.5772 63.8135C35.6861 63.7116 35.8292 63.6542 35.9783 63.6524Z" fill="#51A8BF"/>
<path d="M34.4668 61.2266L47.5816 61.2266C47.6527 61.2257 47.7231 61.2397 47.7884 61.2677C47.8537 61.2957 47.9123 61.3371 47.9606 61.3892C48.0089 61.4413 48.0458 61.5029 48.0688 61.5701C48.0918 61.6373 48.1004 61.7086 48.0941 61.7794C48.0824 61.9281 48.0155 62.067 47.9066 62.1688C47.7977 62.2707 47.6547 62.3282 47.5055 62.33L34.3974 62.33C34.3264 62.3311 34.2559 62.3174 34.1905 62.2897C34.1251 62.262 34.0663 62.2208 34.0178 62.1689C33.9693 62.1171 33.9322 62.0556 33.9089 61.9885C33.8856 61.9214 33.8767 61.8502 33.8826 61.7794C33.8943 61.6313 33.9604 61.4927 34.0683 61.3906C34.1763 61.2885 34.3182 61.23 34.4668 61.2266Z" fill="white"/>
<path opacity="0.3" d="M61.729 49.6231L49.7779 49.6231C49.6286 49.6254 49.4855 49.6834 49.3766 49.7856C49.2678 49.8878 49.201 50.027 49.1893 50.1759C49.1834 50.2465 49.1922 50.3175 49.2154 50.3844C49.2385 50.4514 49.2754 50.5128 49.3237 50.5646C49.3719 50.6164 49.4305 50.6576 49.4956 50.6855C49.5607 50.7134 49.631 50.7273 49.7018 50.7264L61.6529 50.7264C61.802 50.7247 61.9451 50.6672 62.054 50.5653C62.1629 50.4635 62.2298 50.3245 62.2415 50.1759C62.2477 50.1051 62.2391 50.0338 62.2161 49.9666C62.1931 49.8994 62.1563 49.8378 62.108 49.7857C62.0597 49.7336 62.001 49.6922 61.9357 49.6642C61.8704 49.6362 61.8 49.6222 61.729 49.6231Z" fill="#51A8BF"/>
<path opacity="0.3" d="M55.5798 47.1973L49.94 47.1973C49.7907 47.1996 49.6476 47.2576 49.5387 47.3598C49.4299 47.462 49.3631 47.6012 49.3514 47.7501C49.3454 47.8209 49.3544 47.8921 49.3777 47.9592C49.401 48.0263 49.438 48.0878 49.4865 48.1397C49.535 48.1915 49.5939 48.2327 49.6593 48.2604C49.7247 48.2881 49.7951 48.3018 49.8661 48.3007L55.5037 48.3007C55.6529 48.2984 55.796 48.2409 55.9052 48.1391C56.0143 48.0374 56.0818 47.8988 56.0946 47.7501C56.1005 47.6792 56.0916 47.6079 56.0683 47.5407C56.045 47.4735 56.008 47.4119 55.9595 47.3598C55.9111 47.3078 55.8522 47.2664 55.7869 47.2384C55.7215 47.2104 55.651 47.1964 55.5798 47.1973Z" fill="#51A8BF"/>
<path d="M58.8813 44.7657L50.1082 44.7657C49.959 44.7679 49.816 44.8255 49.7068 44.9272C49.5976 45.0289 49.5301 45.1676 49.5174 45.3163C49.5115 45.3871 49.5204 45.4585 49.5437 45.5257C49.5669 45.5929 49.604 45.6545 49.6525 45.7065C49.7009 45.7586 49.7597 45.7999 49.8251 45.8279C49.8905 45.8559 49.961 45.8699 50.0321 45.869L58.8075 45.869C58.9569 45.8672 59.1003 45.8094 59.2093 45.7071C59.3182 45.6048 59.3849 45.4653 59.3961 45.3163C59.402 45.2455 59.3931 45.1742 59.3698 45.1071C59.3465 45.04 59.3094 44.9786 59.2609 44.9267C59.2124 44.8748 59.1536 44.8337 59.0882 44.806C59.0228 44.7782 58.9523 44.7645 58.8813 44.7657Z" fill="white"/>
<path opacity="0.3" d="M65.9788 47.1973L57.9667 47.1973C57.8173 47.2001 57.6742 47.2581 57.5651 47.3602C57.4559 47.4623 57.3885 47.6012 57.3758 47.7501C57.3699 47.8209 57.3788 47.8921 57.4021 47.9592C57.4254 48.0263 57.4625 48.0878 57.511 48.1397C57.5595 48.1915 57.6183 48.2327 57.6837 48.2604C57.7491 48.2881 57.8196 48.3018 57.8906 48.3007L65.9027 48.3007C66.0519 48.2984 66.195 48.2409 66.3041 48.1391C66.4133 48.0374 66.4808 47.8988 66.4936 47.7501C66.4995 47.6792 66.4905 47.6079 66.4673 47.5407C66.444 47.4735 66.407 47.4119 66.3585 47.3598C66.31 47.3078 66.2512 47.2664 66.1858 47.2384C66.1204 47.2104 66.0499 47.1964 65.9788 47.1973Z" fill="#51A8BF"/>
<path opacity="0.3" d="M29.9492 24.3108L35.9427 24.3108L35.6249 19L29.9492 24.3108Z" fill="#51A8BF"/>
<path d="M29.9492 24.3108L36.3657 23.5432L35.6249 19L29.9492 24.3108Z" fill="#51A8BF"/>
<path d="M18.4071 63.0236L19.2865 63.4607L18.0494 64.6176C18.0494 64.6176 17.4964 64.1129 17.561 63.4749L18.4071 63.0236Z" fill="#E4897B"/>
<path d="M20.1379 64.2564L19.0684 65.1584L18.0464 64.6084L19.284 63.459L20.1379 64.2564Z" fill="#E4897B"/>
<path opacity="0.4" d="M44.8778 55.4899C42.3646 56.0012 39.7563 55.7558 37.3826 54.7849C35.0089 53.814 32.9763 52.1611 31.5419 50.0352C30.1074 47.9093 29.3355 45.4058 29.3236 42.8413C29.3117 40.2767 30.0605 37.7662 31.4752 35.6271C32.89 33.488 34.9072 31.8164 37.2718 30.8236C39.6364 29.8308 42.2423 29.5613 44.7601 30.0493C47.2778 30.5373 49.5944 31.7608 51.4168 33.5652C53.2393 35.3695 54.4859 37.6737 54.9991 40.1865C55.34 41.8559 55.3486 43.5762 55.0244 45.249C54.7001 46.9218 54.0495 48.5143 53.1095 49.9355C52.1696 51.3567 50.9588 52.5787 49.5463 53.5318C48.1339 54.4848 46.5475 55.1502 44.8778 55.4899Z" fill="#FAFAFA"/>
<path opacity="0.4" d="M46.7501 30.6002L32.8269 51.6599C32.6927 51.514 32.5601 51.3675 32.4328 51.2193C31.6007 50.2522 30.9174 49.1663 30.4056 47.9976L42.4317 29.8072C43.9061 29.8212 45.367 30.0894 46.7501 30.6002Z" fill="#FAFAFA"/>
<path opacity="0.4" d="M53.2042 35.7724L40.1134 55.5712C38.1547 55.2389 36.2988 54.4603 34.6894 53.2955L48.9824 31.6753C50.6849 32.6996 52.1293 34.1013 53.2042 35.7724Z" fill="#FAFAFA"/>
<path d="M26.8759 42.5513L26.6953 42.5491C26.7085 41.6258 26.8026 40.7055 26.9765 39.7987L27.1522 39.8328C26.9811 40.7292 26.8886 41.6388 26.8759 42.5513ZM27.6642 37.8785L27.4926 37.8223C28.2859 35.4626 29.6317 33.3267 31.418 31.5927L31.545 31.722C29.7793 33.4374 28.4493 35.55 27.6658 37.8837L27.6642 37.8785ZM45.0894 27.6052C44.4323 27.4857 43.7679 27.4102 43.1007 27.3789L43.1103 27.1979C43.7851 27.2325 44.4568 27.3114 45.1212 27.434L45.0894 27.6052Z" fill="#51A8BF"/>
<path opacity="0.3" d="M26.8759 42.5513L26.6953 42.5491C26.7085 41.6258 26.8026 40.7055 26.9765 39.7987L27.1522 39.8328C26.9811 40.7292 26.8886 41.6388 26.8759 42.5513ZM27.6642 37.8785L27.4926 37.8223C28.2859 35.4626 29.6317 33.3267 31.418 31.5927L31.545 31.722C29.7793 33.4374 28.4493 35.55 27.6658 37.8837L27.6642 37.8785ZM45.0894 27.6052C44.4323 27.4857 43.7679 27.4102 43.1007 27.3789L43.1103 27.1979C43.7851 27.2325 44.4568 27.3114 45.1212 27.434L45.0894 27.6052Z" fill="black"/>
<path d="M53.0121 32.3536C50.3615 29.5747 46.7432 27.9224 42.9072 27.7392C39.0713 27.556 35.3119 28.8559 32.4085 31.3696C29.5051 33.8832 27.6803 37.4177 27.3125 41.2403C26.9446 45.063 28.0618 48.8806 30.4326 51.9018C29.4173 52.6728 28.425 53.4685 27.4441 54.2757C26.0305 55.4429 24.641 56.6339 23.2755 57.8486C21.9126 59.067 20.5609 60.2969 19.2351 61.5543C18.5675 62.177 17.9167 62.8169 17.2553 63.4471C16.9043 63.7538 16.617 64.1264 16.4095 64.5438C16.2985 64.7736 16.2133 65.0151 16.1556 65.2637C16.0827 65.5593 16.0535 65.864 16.0692 66.1681C16.1032 66.7141 16.3315 67.23 16.7127 67.6224C17.094 68.0147 17.6031 68.2577 18.1479 68.3074C18.4499 68.333 18.7539 68.3151 19.0507 68.2542C19.3016 68.2035 19.546 68.1245 19.7792 68.0189C20.2018 67.8234 20.5819 67.5469 20.898 67.205C21.5477 66.5616 22.2069 65.9303 22.848 65.2783C24.1364 63.9932 25.4138 62.6738 26.6684 61.3484C27.923 60.0231 29.1665 58.6578 30.3652 57.2824C31.1926 56.328 32.0258 55.3565 32.8291 54.3625C35.7813 56.8172 39.5647 58.042 43.3954 57.7831C47.226 57.5243 50.8102 55.8016 53.4054 52.972C56.0005 50.1425 57.4075 46.423 57.335 42.5843C57.2624 38.7456 55.7158 35.082 53.0156 32.3525L53.0121 32.3536ZM50.5106 51.2449C48.8364 52.8717 46.7174 53.9655 44.4215 54.388C42.1257 54.8105 39.7561 54.5428 37.6124 53.6187C35.4687 52.6946 33.6472 51.1556 32.3781 49.1962C31.1091 47.2369 30.4495 44.9453 30.4828 42.6112C30.5161 40.277 31.2407 38.0051 32.5651 36.0828C33.8895 34.1605 35.7542 32.674 37.9234 31.8114C40.0926 30.9488 42.4688 30.7487 44.7517 31.2365C47.0345 31.7243 49.1215 32.8781 50.7486 34.552C51.8293 35.6636 52.6803 36.9772 53.2532 38.4177C53.826 39.8583 54.1095 41.3976 54.0874 42.9478C54.0653 44.4979 53.7381 46.0285 53.1243 47.4521C52.5106 48.8758 51.6225 50.1646 50.5106 51.2449Z" fill="#51A8BF"/>
<path opacity="0.3" d="M53.0121 32.3536C50.3615 29.5747 46.7432 27.9224 42.9072 27.7392C39.0713 27.556 35.3119 28.8559 32.4085 31.3696C29.5051 33.8832 27.6803 37.4177 27.3125 41.2403C26.9446 45.063 28.0618 48.8806 30.4326 51.9018C29.4173 52.6728 28.425 53.4685 27.4441 54.2757C26.0305 55.4429 24.641 56.6339 23.2755 57.8486C21.9126 59.067 20.5609 60.2969 19.2351 61.5543C18.5675 62.177 17.9167 62.8169 17.2553 63.4471C16.9043 63.7538 16.617 64.1264 16.4095 64.5438C16.2985 64.7736 16.2133 65.0151 16.1556 65.2637C16.0827 65.5593 16.0535 65.864 16.0692 66.1681C16.1032 66.7141 16.3315 67.23 16.7127 67.6224C17.094 68.0147 17.6031 68.2577 18.1479 68.3074C18.4499 68.333 18.7539 68.3151 19.0507 68.2542C19.3016 68.2035 19.546 68.1245 19.7792 68.0189C20.2018 67.8234 20.5819 67.5469 20.898 67.205C21.5477 66.5616 22.2069 65.9303 22.848 65.2783C24.1364 63.9932 25.4138 62.6738 26.6684 61.3484C27.923 60.0231 29.1665 58.6578 30.3652 57.2824C31.1926 56.328 32.0258 55.3565 32.8291 54.3625C35.7813 56.8172 39.5647 58.042 43.3954 57.7831C47.226 57.5243 50.8102 55.8016 53.4054 52.972C56.0005 50.1425 57.4075 46.423 57.335 42.5843C57.2624 38.7456 55.7158 35.082 53.0156 32.3525L53.0121 32.3536ZM50.5106 51.2449C48.8364 52.8717 46.7174 53.9655 44.4215 54.388C42.1257 54.8105 39.7561 54.5428 37.6124 53.6187C35.4687 52.6946 33.6472 51.1556 32.3781 49.1962C31.1091 47.2369 30.4495 44.9453 30.4828 42.6112C30.5161 40.277 31.2407 38.0051 32.5651 36.0828C33.8895 34.1605 35.7542 32.674 37.9234 31.8114C40.0926 30.9488 42.4688 30.7487 44.7517 31.2365C47.0345 31.7243 49.1215 32.8781 50.7486 34.552C51.8293 35.6636 52.6803 36.9772 53.2532 38.4177C53.826 39.8583 54.1095 41.3976 54.0874 42.9478C54.0653 44.4979 53.7381 46.0285 53.1243 47.4521C52.5106 48.8758 51.6225 50.1646 50.5106 51.2449Z" fill="black"/>
</svg>
