<svg width="94" height="94" viewBox="0 0 94 94" fill="none" xmlns="http://www.w3.org/2000/svg">
<circle cx="47.0005" cy="47" r="47" fill="#FAE6E2"/>
<path d="M56.681 31.5277C56.6144 31.2626 56.4578 31.0289 56.2379 30.8667C56.018 30.7045 55.7485 30.6237 55.4756 30.6384L47.3471 31.5728C47.0297 31.6367 46.7502 31.8231 46.5694 32.0917C46.3886 32.3603 46.3211 32.6894 46.3814 33.0075L48.813 54.1138C48.8257 54.4372 48.9657 54.7425 49.2026 54.9631C49.4394 55.1837 49.7539 55.3017 50.0774 55.2914L75.8593 52.3317C76.1767 52.2679 76.4562 52.0815 76.637 51.8129C76.8178 51.5443 76.8853 51.2152 76.825 50.8971L74.7894 33.1812C74.775 32.8584 74.6344 32.5541 74.3979 32.3339C74.1615 32.1137 73.848 31.9951 73.525 32.0036L59.4912 33.6154C58.2789 33.7404 57.1013 32.8824 56.681 31.5277Z" fill="#263238"/>
<path d="M60.5759 23.8343C62.3724 31.6956 63.5203 39.6911 64.0079 47.7404C57.5978 48.4999 51.1888 49.0986 44.7809 49.5363C44.2995 40.7483 42.9096 32.0338 40.6333 23.5321C45.1607 22.3139 49.6707 21.009 54.1634 19.6172C56.331 20.9557 58.4685 22.3614 60.5759 23.8343Z" fill="#E97364"/>
<path opacity="0.7" d="M60.5759 23.8343C62.3724 31.6956 63.5203 39.6911 64.0079 47.7404C57.5978 48.4999 51.1888 49.0986 44.7809 49.5363C44.2995 40.7483 42.9096 32.0338 40.6333 23.5321C45.1607 22.3139 49.6707 21.009 54.1634 19.6172C56.331 20.9557 58.4685 22.3614 60.5759 23.8343Z" fill="#FAFAFA"/>
<path d="M59.4915 27.859C54.4824 29.1164 49.4583 30.2743 44.4191 31.3327C44.3668 31.3427 44.3131 31.3423 44.261 31.3315C44.2089 31.3207 44.1595 31.2996 44.1155 31.2696C44.0716 31.2395 44.0341 31.2011 44.0051 31.1565C43.9761 31.1119 43.9562 31.062 43.9466 31.0096C43.9247 30.9043 43.9448 30.7945 44.0025 30.7037C44.0602 30.6129 44.1511 30.5482 44.2558 30.5233C49.2904 29.4464 54.3076 28.2642 59.3074 26.9766C59.3621 26.9657 59.4185 26.9661 59.473 26.978C59.5276 26.9898 59.5791 27.0127 59.6244 27.0453C59.6697 27.0778 59.7078 27.1194 59.7363 27.1674C59.7649 27.2153 59.7832 27.2686 59.7902 27.324C59.8152 27.4343 59.7985 27.55 59.7433 27.6487C59.6882 27.7474 59.5985 27.8223 59.4915 27.859Z" fill="#E97364"/>
<path d="M60.0338 30.6828C54.9993 31.8407 49.9543 32.8967 44.8989 33.8508C44.8464 33.8603 44.7925 33.8592 44.7404 33.8477C44.6883 33.8362 44.639 33.8145 44.5954 33.7838C44.5518 33.7531 44.5147 33.714 44.4863 33.6689C44.4579 33.6237 44.4387 33.5734 44.4299 33.5208C44.4093 33.4145 44.4313 33.3043 44.491 33.2141C44.5508 33.1238 44.6436 33.0605 44.7495 33.0379C49.8003 32.0537 54.8395 30.9664 59.8671 29.7761C59.9213 29.7662 59.977 29.7675 60.0307 29.7798C60.0844 29.7921 60.1351 29.8152 60.1796 29.8477C60.2241 29.8802 60.2615 29.9214 60.2896 29.9688C60.3177 30.0162 60.3359 30.0688 60.343 30.1235C60.3726 30.2386 60.357 30.3606 60.2995 30.4646C60.2421 30.5685 60.147 30.6466 60.0338 30.6828Z" fill="#E97364"/>
<path d="M60.5219 33.5309C55.4665 34.5962 50.4018 35.5572 45.3279 36.4141C45.2746 36.4224 45.2203 36.42 45.168 36.4069C45.1157 36.3939 45.0666 36.3704 45.0235 36.3381C44.9804 36.3057 44.9443 36.265 44.9172 36.2184C44.8901 36.1718 44.8727 36.1202 44.8659 36.0667C44.8565 36.0124 44.8581 35.9567 44.8706 35.9029C44.883 35.8492 44.9061 35.7985 44.9385 35.7538C44.9709 35.7091 45.0119 35.6714 45.0591 35.6428C45.1062 35.6142 45.1587 35.5954 45.2133 35.5874C50.2803 34.7027 55.3391 33.7115 60.3899 32.6139C60.4454 32.6056 60.502 32.6088 60.5562 32.6233C60.6104 32.6377 60.661 32.6632 60.705 32.698C60.7489 32.7329 60.7853 32.7764 60.8117 32.8258C60.8382 32.8753 60.8543 32.9296 60.8589 32.9855C60.8842 33.1024 60.8632 33.2245 60.8004 33.3262C60.7375 33.4279 60.6377 33.5013 60.5219 33.5309Z" fill="#E97364"/>
<path d="M60.9518 36.3858C55.8778 37.3561 50.7946 38.221 45.7022 38.9806C45.6495 38.9879 45.5958 38.9847 45.5443 38.9712C45.4928 38.9577 45.4445 38.9341 45.4022 38.9018C45.3599 38.8695 45.3244 38.8291 45.2978 38.783C45.2712 38.7369 45.254 38.686 45.2471 38.6332C45.2311 38.5246 45.2586 38.4141 45.3237 38.3256C45.3887 38.2372 45.486 38.1779 45.5945 38.1608C50.6893 37.3688 55.7667 36.4726 60.8267 35.4722C60.8825 35.4649 60.9391 35.4692 60.9932 35.4848C61.0472 35.5004 61.0974 35.5269 61.1408 35.5628C61.1841 35.5986 61.2196 35.643 61.2451 35.6931C61.2705 35.7433 61.2854 35.7981 61.2887 35.8543C61.311 35.9691 61.2885 36.0881 61.2258 36.1869C61.1632 36.2857 61.0651 36.3569 60.9518 36.3858Z" fill="#E97364"/>
<path d="M55.2491 40.2474C52.1783 40.7222 49.1052 41.161 46.0298 41.5639C45.9764 41.5697 45.9224 41.5648 45.8709 41.5496C45.8193 41.5343 45.7714 41.509 45.7297 41.4751C45.688 41.4412 45.6535 41.3993 45.6281 41.352C45.6027 41.3046 45.5869 41.2527 45.5817 41.1992C45.5686 41.0918 45.5974 40.9835 45.6621 40.8968C45.7268 40.8101 45.8224 40.7517 45.9291 40.7337C48.9999 40.3146 52.0695 39.8572 55.1379 39.3616C55.1928 39.3559 55.2482 39.3612 55.301 39.3772C55.3538 39.3933 55.4029 39.4197 55.4453 39.455C55.4877 39.4903 55.5226 39.5337 55.548 39.5827C55.5733 39.6317 55.5886 39.6852 55.593 39.7402C55.6108 39.8526 55.5851 39.9676 55.5212 40.0618C55.4574 40.156 55.3601 40.2223 55.2491 40.2474Z" fill="#E97364"/>
<path d="M60.5731 23.8356C58.9034 24.2987 57.2291 24.7619 55.5501 25.2251C55.1263 23.3469 54.6632 21.4816 54.1606 19.6289C56.3282 20.9605 58.4657 22.3627 60.5731 23.8356Z" fill="#E97364"/>
<path d="M61.0608 35.2698C61.0485 35.1494 61.012 35.0329 60.9534 34.927C60.8948 34.8212 60.8154 34.7283 60.72 34.654C60.6246 34.5797 60.5151 34.5255 60.3982 34.4946C60.2812 34.4637 60.1592 34.4568 60.0396 34.4743L51.9111 35.4052C51.5929 35.4598 51.302 35.6189 51.0843 35.8573C50.8666 36.0958 50.7346 36.3999 50.7092 36.7218L49.4552 54.1876C49.4348 54.3292 49.4477 54.4736 49.4929 54.6093C49.5381 54.745 49.6143 54.8683 49.7154 54.9695C49.8166 55.0706 49.9399 55.1468 50.0756 55.192C50.2113 55.2371 50.3557 55.2501 50.4973 55.2297L76.2826 52.291C76.6008 52.2376 76.892 52.0794 77.1098 51.8415C77.3276 51.6035 77.4595 51.2995 77.4845 50.9779L78.5267 36.5794C78.5493 36.4366 78.5381 36.2905 78.494 36.1529C78.4499 36.0152 78.3741 35.8898 78.2728 35.7868C78.1714 35.6838 78.0473 35.6059 77.9104 35.5596C77.7735 35.5132 77.6277 35.4996 77.4845 35.5199L63.4508 37.1317C63.1704 37.1746 62.8842 37.1598 62.6098 37.0882C62.3354 37.0167 62.0784 36.8899 61.8547 36.7156C61.631 36.5413 61.4452 36.3231 61.3087 36.0745C61.1722 35.8259 61.0878 35.5521 61.0608 35.2698Z" fill="#E97364"/>
<path d="M41.3184 48.8173C40.5959 56.0149 39.7066 63.1742 38.6506 70.2953C32.3122 69.2902 25.9692 68.3188 19.6216 67.3809C20.8814 58.8425 21.8957 50.2416 22.6646 41.5781C27.3263 42.0042 31.9938 42.4489 36.6671 42.912C38.2303 44.8573 39.7807 46.8257 41.3184 48.8173Z" fill="#E97364"/>
<path opacity="0.7" d="M41.3184 48.8173C40.5959 56.0149 39.7066 63.1742 38.6506 70.2953C32.3122 69.2902 25.9692 68.3188 19.6216 67.3809C20.8814 58.8425 21.8957 50.2416 22.6646 41.5781C27.3263 42.0042 31.9938 42.4489 36.6671 42.912C38.2303 44.8573 39.7807 46.8257 41.3184 48.8173Z" fill="#FAFAFA"/>
<path d="M39.0783 51.867C33.9836 51.2625 28.8737 50.6836 23.7488 50.1301C23.6443 50.1162 23.5493 50.0619 23.4843 49.9787C23.4194 49.8956 23.3896 49.7903 23.4015 49.6855C23.4154 49.5816 23.4692 49.4872 23.5516 49.4223C23.6339 49.3574 23.7384 49.3272 23.8426 49.3381C28.9559 49.8893 34.0669 50.4624 39.1756 51.0576C39.282 51.0748 39.3776 51.1325 39.4424 51.2186C39.5071 51.3048 39.536 51.4126 39.523 51.5196C39.5074 51.6234 39.4527 51.7173 39.3699 51.782C39.2872 51.8466 39.1828 51.877 39.0783 51.867Z" fill="#E97364"/>
<path d="M38.7867 54.4682C33.6919 53.8383 28.5856 53.2292 23.4676 52.641C23.3625 52.6255 23.2675 52.5697 23.2027 52.4854C23.1379 52.4012 23.1083 52.295 23.1203 52.1894C23.135 52.0852 23.1896 51.9908 23.2725 51.926C23.3554 51.8612 23.4602 51.8311 23.5649 51.842C28.6759 52.4233 33.7834 53.0243 38.8875 53.6449C38.9945 53.6621 39.0907 53.7203 39.1556 53.8072C39.2204 53.8941 39.2488 54.0028 39.2348 54.1104C39.2226 54.2171 39.1686 54.3147 39.0846 54.3818C39.0007 54.4488 38.8935 54.4799 38.7867 54.4682Z" fill="#E97364"/>
<path d="M38.4872 57.0668C33.3925 56.4068 28.2896 55.7688 23.1786 55.1527C23.0734 55.1372 22.9784 55.0814 22.9136 54.9972C22.8488 54.9129 22.8193 54.8068 22.8312 54.7012C22.8468 54.5967 22.902 54.5022 22.9855 54.4375C23.069 54.3728 23.1743 54.3428 23.2793 54.3538C28.3741 54.9628 33.4781 55.5927 38.5914 56.2435C38.6985 56.2607 38.7947 56.3189 38.8595 56.4058C38.9244 56.4927 38.9528 56.6014 38.9388 56.709C38.9258 56.816 38.871 56.9136 38.7865 56.9806C38.702 57.0476 38.5944 57.0785 38.4872 57.0668Z" fill="#E97364"/>
<path d="M38.1703 59.6626C33.0755 58.9678 27.9808 58.302 22.886 57.6652C22.7804 57.6505 22.6849 57.5949 22.6199 57.5104C22.555 57.426 22.5258 57.3194 22.5386 57.2136C22.5525 57.1083 22.6073 57.0128 22.6912 56.9478C22.7752 56.8827 22.8813 56.8534 22.9867 56.8662C28.0815 57.5008 33.1821 58.1584 38.2884 58.8393C38.3962 58.8564 38.4929 58.9152 38.5579 59.0028C38.6228 59.0905 38.6508 59.2002 38.6358 59.3082C38.629 59.3623 38.6115 59.4144 38.5843 59.4616C38.5571 59.5088 38.5207 59.5501 38.4774 59.5831C38.4341 59.6161 38.3846 59.6401 38.3319 59.6537C38.2791 59.6674 38.2242 59.6704 38.1703 59.6626Z" fill="#E97364"/>
<path d="M31.7632 61.4092C28.6924 60.99 25.6216 60.5767 22.5509 60.1691C22.4982 60.1627 22.4474 60.1458 22.4013 60.1196C22.3553 60.0933 22.3149 60.0581 22.2825 60.0161C22.2502 59.9741 22.2266 59.926 22.213 59.8748C22.1994 59.8235 22.1962 59.77 22.2035 59.7175C22.2174 59.6122 22.2722 59.5167 22.3561 59.4517C22.44 59.3866 22.5462 59.3573 22.6516 59.3701C25.727 59.7708 28.7978 60.1783 31.8639 60.5929C31.9714 60.6092 32.0681 60.6672 32.1331 60.7543C32.1981 60.8414 32.2262 60.9507 32.2113 61.0584C32.1974 61.1639 32.1427 61.2597 32.0589 61.3253C31.9751 61.3909 31.8689 61.421 31.7632 61.4092Z" fill="#E97364"/>
<path d="M41.3152 48.8211L36.1567 48.2514C36.3374 46.4683 36.5064 44.6839 36.6639 42.8984C38.2271 44.8553 39.7775 46.8295 41.3152 48.8211Z" fill="#E97364"/>
</svg>
