<svg width="94" height="94" viewBox="0 0 94 94" fill="none" xmlns="http://www.w3.org/2000/svg">
<circle cx="47.0005" cy="47" r="47" fill="#FFE8EE"/>
<path d="M34.0747 32.3497C33.9804 31.9405 33.7502 31.5754 33.4216 31.3139C33.093 31.0525 32.6854 30.9101 32.2655 30.9102L18.7642 30.9102C18.2718 30.9102 17.7996 31.1057 17.4515 31.4539C17.1033 31.802 16.9077 32.2742 16.9077 32.7666L16.9077 62.7768C16.9077 63.2691 17.1033 63.7413 17.4515 64.0895C17.7996 64.4376 18.2718 64.6332 18.7642 64.6332L61.631 64.6332C62.1234 64.6332 62.5955 64.4376 62.9437 64.0895C63.2918 63.7413 63.4874 63.2691 63.4874 62.7768L63.4874 37.568C63.4874 37.0757 63.2918 36.6035 62.9437 36.2553C62.5955 35.9072 62.1234 35.7116 61.631 35.7116L38.2989 35.7116C37.3184 35.7117 36.3667 35.3794 35.5994 34.7687C34.8322 34.1581 34.2946 33.3053 34.0747 32.3497Z" fill="#FD5F85"/>
<path opacity="0.6" d="M34.0747 32.3497C33.9804 31.9405 33.7502 31.5754 33.4216 31.3139C33.093 31.0525 32.6854 30.9101 32.2655 30.9102L18.7642 30.9102C18.2718 30.9102 17.7996 31.1057 17.4515 31.4539C17.1033 31.802 16.9077 32.2742 16.9077 32.7666L16.9077 62.7768C16.9077 63.2691 17.1033 63.7413 17.4515 64.0895C17.7996 64.4376 18.2718 64.6332 18.7642 64.6332L61.631 64.6332C62.1234 64.6332 62.5955 64.4376 62.9437 64.0895C63.2918 63.7413 63.4874 63.2691 63.4874 62.7768L63.4874 37.568C63.4874 37.0757 63.2918 36.6035 62.9437 36.2553C62.5955 35.9072 62.1234 35.7116 61.631 35.7116L38.2989 35.7116C37.3184 35.7117 36.3667 35.3794 35.5994 34.7687C34.8322 34.1581 34.2946 33.3053 34.0747 32.3497Z" fill="black"/>
<path opacity="0.22" d="M29.3042 23L30.5075 26.8968C30.6611 27.3928 31.0053 27.8075 31.4644 28.0499C31.9236 28.2923 32.4602 28.3425 32.9563 28.1896L36.8515 26.9863L29.3042 23Z" fill="#FD5F85"/>
<path d="M29.3054 23L15.3821 27.3019C15.1363 27.3774 14.9078 27.5006 14.7097 27.6645C14.5116 27.8284 14.3477 28.0298 14.2275 28.257C14.1073 28.4843 14.033 28.7331 14.009 28.9891C13.985 29.2451 14.0117 29.5033 14.0876 29.749L22.0366 55.4826C22.1124 55.7283 22.236 55.9566 22.4001 56.1546C22.5642 56.3525 22.7658 56.5162 22.9932 56.6363C23.2206 56.7563 23.4694 56.8304 23.7254 56.8543C23.9815 56.8781 24.2397 56.8513 24.4854 56.7754L42.3055 51.2702C42.5511 51.1945 42.7794 51.0711 42.9774 50.9072C43.1753 50.7432 43.339 50.5418 43.4591 50.3145C43.5791 50.0873 43.6532 49.8386 43.6771 49.5826C43.701 49.3267 43.6742 49.0686 43.5983 48.8231L36.8476 26.9863L29.3054 23Z" fill="#FBCBD7"/>
<g opacity="0.28">
<path d="M36.787 50.144L25.2029 53.7218C24.9862 53.7884 24.752 53.7664 24.5515 53.6608C24.351 53.5552 24.2005 53.3744 24.1329 53.1581C24.0669 52.9415 24.0894 52.7076 24.1953 52.5074C24.3012 52.3073 24.482 52.1571 24.6982 52.0898L36.2824 48.5103C36.4993 48.4438 36.7336 48.466 36.9342 48.572C37.1347 48.6779 37.2851 48.8591 37.3524 49.0757C37.4184 49.2923 37.3959 49.5262 37.29 49.7264C37.1841 49.9265 37.0033 50.0767 36.787 50.144Z" fill="#FD5F85"/>
</g>
<g opacity="0.28">
<path d="M24.3326 29.1465L18.2063 31.0384C17.9897 31.1044 17.7557 31.0823 17.5553 30.9767C17.3549 30.8712 17.2044 30.6907 17.1363 30.4747C17.0703 30.2578 17.0927 30.0237 17.1986 29.8232C17.3045 29.6228 17.4854 29.4724 17.7017 29.4047L23.828 27.5128C24.0446 27.4458 24.279 27.4675 24.4796 27.5732C24.6802 27.6789 24.8307 27.8599 24.8979 28.0765C24.9639 28.2934 24.9416 28.5275 24.8357 28.7279C24.7298 28.9284 24.5489 29.0788 24.3326 29.1465Z" fill="#FD5F85"/>
</g>
<g opacity="0.28">
<path d="M29.3302 31.1558L19.2042 34.2831C18.988 34.348 18.755 34.3251 18.5556 34.2192C18.3562 34.1134 18.2066 33.9332 18.1393 33.7177C18.0728 33.5013 18.0948 33.2674 18.2004 33.0671C18.3061 32.8669 18.4868 32.7167 18.703 32.6494L28.829 29.5222C29.0456 29.4556 29.2798 29.4776 29.4803 29.5832C29.6808 29.6888 29.8313 29.8695 29.899 30.0858C29.9644 30.3032 29.9413 30.5375 29.8348 30.7379C29.7283 30.9383 29.547 31.0885 29.3302 31.1558Z" fill="#FD5F85"/>
</g>
<g opacity="0.28">
<path d="M34.9869 32.9659L20.2097 37.5226C19.9933 37.5891 19.7593 37.5671 19.5591 37.4615C19.3588 37.3558 19.2086 37.1751 19.1414 36.9589C19.0753 36.7423 19.0975 36.5083 19.203 36.3079C19.3086 36.1076 19.489 35.957 19.7051 35.8889L34.4823 31.3322C34.6987 31.2662 34.9325 31.2884 35.1326 31.394C35.3327 31.4996 35.4829 31.68 35.5506 31.8959C35.6171 32.1126 35.5952 32.3467 35.4896 32.5472C35.3839 32.7477 35.2032 32.8983 34.9869 32.9659Z" fill="#FD5F85"/>
</g>
<g opacity="0.28">
<path d="M35.9864 36.1959L27.3961 38.8506C27.1795 38.9165 26.9456 38.8941 26.7454 38.7882C26.5453 38.6822 26.3951 38.5014 26.3278 38.2852C26.2618 38.0688 26.284 37.835 26.3896 37.6349C26.4952 37.4348 26.6756 37.2846 26.8915 37.2169L35.4818 34.5622C35.6986 34.4967 35.9326 34.5193 36.1329 34.6251C36.3332 34.7309 36.4837 34.9115 36.5518 35.1276C36.6177 35.3442 36.5953 35.5781 36.4893 35.7783C36.3834 35.9785 36.2026 36.1286 35.9864 36.1959Z" fill="#FD5F85"/>
</g>
<g opacity="0.28">
<path d="M23.4472 40.0714L21.2009 40.7651C20.9842 40.8316 20.7501 40.8097 20.5496 40.704C20.3491 40.5984 20.1985 40.4177 20.1309 40.2014C20.0644 39.9845 20.0866 39.7502 20.1926 39.5496C20.2985 39.3491 20.4797 39.1987 20.6963 39.1314L22.9426 38.4378C23.1592 38.3717 23.3932 38.3938 23.5936 38.4994C23.7939 38.605 23.9445 38.7854 24.0125 39.0014C24.0781 39.2183 24.0555 39.4523 23.9496 39.6526C23.8438 39.8529 23.6633 40.0034 23.4472 40.0714Z" fill="#FD5F85"/>
</g>
<g opacity="0.28">
<path d="M36.9931 39.4386L22.2159 44.0037C21.9993 44.0697 21.7653 44.0472 21.5652 43.9413C21.365 43.8354 21.2149 43.6546 21.1476 43.4383C21.0811 43.2219 21.1031 42.988 21.2087 42.7877C21.3144 42.5875 21.4951 42.4373 21.7113 42.37L36.4885 37.8049C36.7049 37.7389 36.9387 37.7611 37.1388 37.8667C37.3389 37.9722 37.4892 38.1527 37.5568 38.3686C37.6234 38.5852 37.6014 38.8194 37.4958 39.0199C37.3902 39.2204 37.2094 39.3709 36.9931 39.4386Z" fill="#FD5F85"/>
</g>
<g opacity="0.28">
<path d="M32.2882 44.4424L23.2136 47.2456C22.9972 47.3116 22.7634 47.2894 22.5633 47.1838C22.3632 47.0782 22.2129 46.8978 22.1453 46.6819C22.0792 46.4653 22.1014 46.2313 22.2069 46.0309C22.3125 45.8305 22.4929 45.6799 22.709 45.6119L31.7836 42.8087C32.0004 42.7427 32.2346 42.7651 32.435 42.871C32.6354 42.9769 32.7859 43.1577 32.8536 43.3741C32.92 43.5907 32.8977 43.8249 32.7918 44.0251C32.6858 44.2254 32.5047 44.3755 32.2882 44.4424Z" fill="#FD5F85"/>
</g>
<g opacity="0.28">
<path d="M37.9811 42.687L35.5593 43.4347C35.3424 43.5007 35.1083 43.4783 34.9079 43.3724C34.7074 43.2665 34.557 43.0856 34.4893 42.8693C34.4234 42.6527 34.4458 42.4187 34.5517 42.2186C34.6577 42.0184 34.8385 41.8683 35.0547 41.801L37.4765 41.0534C37.6929 40.9869 37.9269 41.0089 38.1271 41.1145C38.3273 41.2202 38.4775 41.4009 38.5448 41.617C38.6113 41.8337 38.5894 42.0678 38.4838 42.2684C38.3781 42.4689 38.1974 42.6194 37.9811 42.687Z" fill="#FD5F85"/>
</g>
<g opacity="0.28">
<path d="M38.9923 45.9289L24.2184 50.4856C24.0015 50.5521 23.7672 50.5299 23.5666 50.424C23.3661 50.318 23.2157 50.1369 23.1484 49.9203C23.082 49.7036 23.1042 49.4695 23.2102 49.2692C23.3162 49.0689 23.4973 48.9189 23.7138 48.852L38.4894 44.2868C38.7062 44.2213 38.9402 44.2439 39.1405 44.3497C39.3408 44.4555 39.4913 44.6361 39.5593 44.8522C39.5932 44.9601 39.6054 45.0737 39.5953 45.1863C39.5851 45.299 39.5527 45.4085 39.5 45.5086C39.4473 45.6087 39.3753 45.6974 39.2881 45.7695C39.201 45.8416 39.1004 45.8958 38.9923 45.9289Z" fill="#FD5F85"/>
</g>
<path d="M45.3214 24.873L30.7771 25.7709C30.5201 25.7862 30.2687 25.852 30.0372 25.9645C29.8057 26.0771 29.5987 26.2342 29.428 26.4268C29.2573 26.6195 29.1263 26.8439 29.0424 27.0872C28.9585 27.3306 28.9235 27.5881 28.9392 27.845L30.5982 54.7263C30.6137 54.9834 30.6797 55.2349 30.7926 55.4664C30.9055 55.698 31.0629 55.9049 31.2559 56.0755C31.4489 56.2461 31.6736 56.3769 31.9173 56.4605C32.1609 56.544 32.4187 56.5787 32.6757 56.5624L51.2907 55.4131C51.5474 55.3977 51.7985 55.3317 52.0296 55.219C52.2607 55.1063 52.4673 54.9491 52.6376 54.7564C52.8079 54.5638 52.9384 54.3394 53.0218 54.0961C53.1052 53.8529 53.1398 53.5956 53.1235 53.339L51.7228 30.5267L45.3214 24.873Z" fill="#FBCBD7"/>
<g opacity="0.22">
<path d="M46.1958 53.0202L34.0935 53.7679C33.8674 53.7808 33.6454 53.7038 33.4759 53.5536C33.3064 53.4034 33.2033 53.1922 33.1889 52.9662C33.1759 52.7402 33.2527 52.5183 33.4025 52.3486C33.5523 52.1789 33.763 52.0751 33.9889 52.06L46.0912 51.314C46.3173 51.3006 46.5395 51.3772 46.7093 51.5271C46.8791 51.677 46.9827 51.8879 46.9974 52.114C47.0108 52.3403 46.934 52.5628 46.7838 52.7326C46.6335 52.9025 46.4221 53.0059 46.1958 53.0202Z" fill="#FD5F85"/>
</g>
<g opacity="0.22">
<path d="M39.0375 29.672L32.6362 30.0636C32.4102 30.0766 32.1882 29.9998 32.0185 29.85C31.8488 29.7002 31.7451 29.4895 31.7299 29.2636C31.717 29.0374 31.794 28.8152 31.9441 28.6454C32.0943 28.4757 32.3054 28.3721 32.5316 28.3574L38.9329 27.9624C39.1588 27.949 39.3809 28.0257 39.5504 28.1756C39.7199 28.3255 39.8232 28.5365 39.8375 28.7624C39.8518 28.9891 39.7756 29.2121 39.6257 29.3827C39.4757 29.5532 39.2642 29.6573 39.0375 29.672Z" fill="#FD5F85"/>
</g>
<g opacity="0.22">
<path d="M43.4248 32.8055L32.8482 33.4569C32.622 33.4708 32.3995 33.3944 32.2296 33.2444C32.0597 33.0944 31.9563 32.8832 31.9419 32.657C31.9285 32.4306 32.0054 32.2082 32.1556 32.0383C32.3058 31.8684 32.5173 31.765 32.7436 31.7507L43.3185 31.0993C43.5447 31.0854 43.7672 31.1618 43.9371 31.3118C44.107 31.4618 44.2105 31.673 44.2248 31.8992C44.2382 32.1253 44.1616 32.3475 44.0117 32.5173C43.8618 32.6871 43.6509 32.7907 43.4248 32.8055Z" fill="#FD5F85"/>
</g>
<g opacity="0.22">
<path d="M48.4862 35.8871L33.0508 36.8389C32.824 36.8528 32.6009 36.7762 32.4304 36.626C32.2599 36.4757 32.1559 36.264 32.1412 36.0373C32.1278 35.8113 32.2044 35.5893 32.3543 35.4198C32.5043 35.2502 32.7152 35.147 32.9411 35.1327L48.3782 34.1791C48.6043 34.1662 48.8263 34.2432 48.9958 34.3934C49.1653 34.5436 49.2685 34.7548 49.2828 34.9808C49.2963 35.2063 49.2201 35.4281 49.071 35.5978C48.9218 35.7675 48.7117 35.8714 48.4862 35.8871Z" fill="#FD5F85"/>
</g>
<g opacity="0.22">
<path d="M48.705 39.2762L39.7316 39.8298C39.5055 39.8432 39.2833 39.7666 39.1135 39.6167C38.9437 39.4668 38.8401 39.2558 38.8253 39.0298C38.8115 38.8036 38.8879 38.5811 39.0379 38.4112C39.1879 38.2413 39.3991 38.1378 39.6253 38.1235L48.5986 37.57C48.8248 37.5561 49.0473 37.6325 49.2172 37.7825C49.3871 37.9325 49.4906 38.1437 49.5049 38.3699C49.5183 38.596 49.4417 38.8182 49.2918 38.988C49.142 39.1578 48.931 39.2614 48.705 39.2762Z" fill="#FD5F85"/>
</g>
<g opacity="0.22">
<path d="M35.6101 40.0768L33.2625 40.2219C33.0366 40.2353 32.8146 40.1587 32.6451 40.0087C32.4755 39.8588 32.3723 39.6478 32.358 39.422C32.3445 39.1959 32.4211 38.9737 32.571 38.8039C32.7209 38.634 32.9319 38.5304 33.1579 38.5157L35.5055 38.3705C35.7317 38.3576 35.9539 38.4346 36.1237 38.5847C36.2934 38.7349 36.397 38.946 36.4117 39.1722C36.4247 39.3983 36.3476 39.6203 36.1974 39.7898C36.0472 39.9593 35.8361 40.0624 35.6101 40.0768Z" fill="#FD5F85"/>
</g>
<g opacity="0.22">
<path d="M48.9044 42.6589L33.4673 43.6108C33.2412 43.6242 33.0189 43.5476 32.8491 43.3977C32.6793 43.2478 32.5757 43.0368 32.561 42.8108C32.548 42.5845 32.625 42.3623 32.7752 42.1926C32.9253 42.0228 33.1365 41.9193 33.3626 41.9045L48.7981 40.9527C49.0244 40.9393 49.2469 41.0161 49.4167 41.1663C49.5866 41.3166 49.69 41.528 49.7043 41.7543C49.7177 41.9802 49.6411 42.2023 49.4912 42.3718C49.3412 42.5413 49.1302 42.6446 48.9044 42.6589Z" fill="#FD5F85"/>
</g>
<g opacity="0.22">
<path d="M43.1549 46.4088L33.6753 46.9944C33.449 47.0074 33.2268 46.9304 33.057 46.7802C32.8873 46.6301 32.7837 46.4189 32.769 46.1928C32.756 45.9667 32.8331 45.7447 32.9833 45.5752C33.1335 45.4057 33.3446 45.3025 33.5706 45.2882L43.0503 44.7026C43.2764 44.6896 43.4984 44.7667 43.6679 44.9169C43.8373 45.0671 43.9405 45.2782 43.9549 45.5042C43.9687 45.7302 43.8922 45.9525 43.7422 46.1222C43.5922 46.2918 43.3809 46.3949 43.1549 46.4088Z" fill="#FD5F85"/>
</g>
<g opacity="0.22">
<path d="M49.1184 46.0516L46.5869 46.2069C46.3609 46.2203 46.1389 46.1436 45.9694 45.9937C45.7998 45.8437 45.6966 45.6328 45.6823 45.4069C45.6684 45.1807 45.7448 44.9582 45.8948 44.7883C46.0448 44.6184 46.256 44.5149 46.4822 44.5006L49.0137 44.3454C49.2399 44.3315 49.4624 44.4079 49.6323 44.5579C49.8022 44.7079 49.9057 44.9191 49.92 45.1453C49.933 45.3716 49.856 45.5938 49.7058 45.7635C49.5557 45.9333 49.3445 46.0368 49.1184 46.0516Z" fill="#FD5F85"/>
</g>
<g opacity="0.22">
<path d="M49.3227 49.4304L33.8873 50.3822C33.6612 50.3957 33.439 50.3191 33.2692 50.1692C33.0994 50.0193 32.9958 49.8083 32.981 49.5823C32.9676 49.3562 33.0442 49.134 33.1941 48.9642C33.344 48.7944 33.5549 48.6908 33.781 48.676L49.2181 47.7242C49.444 47.7108 49.666 47.7874 49.8356 47.9373C50.0051 48.0873 50.1083 48.2983 50.1227 48.5241C50.1365 48.7503 50.0601 48.9728 49.9101 49.1427C49.7601 49.3126 49.5489 49.4161 49.3227 49.4304Z" fill="#FD5F85"/>
</g>
<path opacity="0.22" d="M45.3198 24.873L45.5713 28.9437C45.587 29.2004 45.6531 29.4514 45.7658 29.6825C45.8786 29.9136 46.0357 30.1203 46.2283 30.2906C46.421 30.461 46.6452 30.5917 46.8884 30.6754C47.1315 30.759 47.3888 30.794 47.6454 30.7782L51.7212 30.5267L45.3198 24.873Z" fill="#FD5F85"/>
<path opacity="0.5" d="M40.5587 35.0267C40.5561 34.8317 40.5145 34.6391 40.4363 34.4604C40.358 34.2816 40.2448 34.1204 40.1032 33.9862C39.9616 33.852 39.7945 33.7476 39.6119 33.679C39.4292 33.6105 39.2347 33.5792 39.0398 33.5871L25.5215 33.5871C24.4971 33.5871 23.4963 34.4192 23.3039 35.4436L17.9692 62.7754C17.77 63.7998 18.4384 64.6318 19.4628 64.6318L62.3296 64.6318C63.354 64.6318 64.3464 63.8015 64.5472 62.7754L68.947 40.245C69.1461 39.2189 68.4778 38.3886 67.4534 38.3886L44.1281 38.3886C42.1029 38.3886 40.6279 36.9945 40.5587 35.0267Z" fill="#FD5F85"/>
<path d="M78.1045 66.6249C83.5874 61.142 83.5874 52.2525 78.1045 46.7697C72.6217 41.2868 63.7322 41.2868 58.2494 46.7697C52.7665 52.2525 52.7665 61.142 58.2494 66.6249C63.7322 72.1077 72.6217 72.1077 78.1045 66.6249Z" fill="#FD5F85"/>
<path d="M77.2955 65.7341C82.2939 60.7356 82.2939 52.6316 77.2955 47.6331C72.297 42.6347 64.1929 42.6347 59.1945 47.6331C54.1961 52.6316 54.1961 60.7356 59.1945 65.7341C64.1929 70.7325 72.297 70.7325 77.2955 65.7341Z" fill="white" fill-opacity="0.75"/>
<path opacity="0.3" d="M72.1437 57.459C72.1201 57.729 72.0982 57.9957 72.0796 58.2606C72.0965 57.9957 72.1201 57.7273 72.1437 57.459Z" fill="black"/>
<path d="M67.7979 51.3965C67.7979 51.4319 67.8097 51.4674 67.8164 51.5028C67.8164 51.4674 67.8046 51.4319 67.7979 51.3965Z" fill="#7F3E3B"/>
<path opacity="0.2" d="M67.8459 51.7523C67.8459 51.6713 67.8307 51.5835 67.8188 51.5059C67.8307 51.5886 67.8408 51.6713 67.8459 51.7523Z" fill="black"/>
<path d="M68.5653 55.918C64.7948 55.918 61.6068 57.3603 61.3355 60.4905L61.0332 63.969L74.6967 63.969L74.9991 60.4905C75.2703 57.3603 72.3402 55.918 68.5653 55.918Z" fill="#FD5F85"/>
<path d="M68.7976 54.649C70.6092 54.649 71.446 53.2271 71.6023 51.471C71.7587 49.7148 71.1839 48.293 69.3724 48.293C67.5608 48.293 66.7286 49.7193 66.5676 51.471C66.4067 53.2227 66.986 54.649 68.7976 54.649Z" fill="#FD5F85"/>
</svg>
