<svg width="228" height="73" viewBox="0 0 228 73" fill="none" xmlns="http://www.w3.org/2000/svg">
<g id="Group 49">
<g id="INTELLI REFREE">
<path id="Vector" d="M212.082 58.1128H225.48V60.394H212.082V58.1128ZM212.372 69.8085H227.616V72.1259H209.692V46.7792H227.073V49.0966H212.372V69.8085Z" fill="#20FF79"/>
<path id="Vector_2" d="M187.86 58.1128H201.258V60.394H187.86V58.1128ZM188.15 69.8085H203.394V72.1259H185.47V46.7792H202.851V49.0966H188.15V69.8085Z" fill="#20FF79"/>
<path id="Vector_3" d="M159.303 72.1259V46.7792H168.79C170.939 46.7792 172.785 47.1292 174.33 47.8293C175.875 48.5052 177.058 49.4949 177.879 50.7984C178.724 52.0778 179.146 53.6349 179.146 55.4695C179.146 57.2558 178.724 58.8008 177.879 60.1043C177.058 61.3837 175.875 62.3734 174.33 63.0735C172.785 63.7494 170.939 64.0874 168.79 64.0874H160.788L161.983 62.8562V72.1259H159.303ZM176.611 72.1259L170.094 62.9286H172.99L179.544 72.1259H176.611ZM161.983 63.0735L160.788 61.8062H168.718C171.252 61.8062 173.171 61.2509 174.475 60.1405C175.803 59.0301 176.467 57.4731 176.467 55.4695C176.467 53.4417 175.803 51.8727 174.475 50.7622C173.171 49.6518 171.252 49.0966 168.718 49.0966H160.788L161.983 47.8293V63.0735Z" fill="#20FF79"/>
<path id="Vector_4" d="M138.779 59.0542H152.177V61.3716H138.779V59.0542ZM139.069 72.1259H136.389V46.7792H153.77V49.0966H139.069V72.1259Z" fill="#20FF79"/>
<path id="Vector_5" d="M114.557 58.1128H127.954V60.394H114.557V58.1128ZM114.847 69.8085H130.091V72.1259H112.167V46.7792H129.548V49.0966H114.847V69.8085Z" fill="#20FF79"/>
<path id="Vector_6" d="M86 72.1259V46.7792H95.4869C97.6353 46.7792 99.482 47.1292 101.027 47.8293C102.572 48.5052 103.755 49.4949 104.576 50.7984C105.42 52.0778 105.843 53.6349 105.843 55.4695C105.843 57.2558 105.42 58.8008 104.576 60.1043C103.755 61.3837 102.572 62.3734 101.027 63.0735C99.482 63.7494 97.6353 64.0874 95.4869 64.0874H87.4846L88.6795 62.8562V72.1259H86ZM103.308 72.1259L96.7905 62.9286H99.6872L106.241 72.1259H103.308ZM88.6795 63.0735L87.4846 61.8062H95.4145C97.9492 61.8062 99.8683 61.2509 101.172 60.1405C102.499 59.0301 103.163 57.4731 103.163 55.4695C103.163 53.4417 102.499 51.8727 101.172 50.7622C99.8683 49.6518 97.9492 49.0966 95.4145 49.0966H87.4846L88.6795 47.8293V63.0735Z" fill="#20FF79"/>
<path id="Vector_7" d="M223.483 28.1572V1H226.354V28.1572H223.483Z" fill="#20FF79"/>
<path id="Vector_8" d="M200.637 28.1572V1H203.508V25.6742H218.716V28.1572H200.637Z" fill="#20FF79"/>
<path id="Vector_9" d="M177.791 28.1572V1H180.662V25.6742H195.87V28.1572H177.791Z" fill="#20FF79"/>
<path id="Vector_10" d="M154.399 13.1431H168.754V15.5873H154.399V13.1431ZM154.71 25.6742H171.043V28.1572H151.839V1H170.461V3.48294H154.71V25.6742Z" fill="#20FF79"/>
<path id="Vector_11" d="M134.838 28.1572V3.48294H125.294V1H147.252V3.48294H137.709V28.1572H134.838Z" fill="#20FF79"/>
<path id="Vector_12" d="M98.002 28.1572V1H100.369L119.107 24.588H117.865V1H120.698V28.1572H118.331L99.6314 4.56923H100.873V28.1572H98.002Z" fill="#20FF79"/>
<path id="Vector_13" d="M86.2949 28.1572V1H89.1658V28.1572H86.2949Z" fill="#20FF79"/>
</g>
<g id="Group">
<path id="Vector_14" d="M43.8495 12.3479L40.2671 15.9303L43.5552 19.2184L47.1376 15.636L43.8495 12.3479Z" fill="#20FF79"/>
<path id="Vector_15" d="M39.4346 16.7628L35.5583 20.639L38.8465 23.9272L42.7227 20.0509L39.4346 16.7628Z" fill="#20FF79"/>
<path id="Vector_16" d="M34.7265 21.472L30.8499 25.3486L34.138 28.6368L38.0146 24.7601L34.7265 21.472Z" fill="#20FF79"/>
<path id="Vector_17" d="M52.3851 12.0536L48.8027 15.636L52.0909 18.9241L55.6732 15.3417L52.3851 12.0536Z" fill="#20FF79"/>
<path id="Vector_18" d="M34.1378 30.3004L30.5554 33.8828L33.8435 37.1709L37.4259 33.5885L34.1378 30.3004Z" fill="#20FF79"/>
<path id="Vector_19" d="M48.2645 7.93348L44.6821 11.5159L47.9698 14.8036L51.5522 11.2212L48.2645 7.93348Z" fill="#20FF79"/>
<path id="Vector_20" d="M47.6756 25.0039L43.7993 28.8801L47.0874 32.1682L50.9637 28.292L47.6756 25.0039Z" fill="#20FF79"/>
<path id="Vector_21" d="M56.2108 24.7091L52.6284 28.2915L55.9165 31.5796L59.4989 27.9972L56.2108 24.7091Z" fill="#20FF79"/>
<path id="Vector_22" d="M51.7963 29.1235L47.9197 33.0001L51.2078 36.2882L55.0845 32.4116L51.7963 29.1235Z" fill="#20FF79"/>
<path id="Vector_23" d="M42.967 29.7116L39.0903 33.5883L42.3785 36.8764L46.2551 32.9997L42.967 29.7116Z" fill="#20FF79"/>
<path id="Vector_24" d="M56.7999 7.63856L53.2175 11.2209L56.5057 14.5091L60.088 10.9267L56.7999 7.63856Z" fill="#20FF79"/>
<path id="Vector_25" d="M38.2579 34.4214L34.6755 38.0038L37.9637 41.2919L41.546 37.7095L38.2579 34.4214Z" fill="#20FF79"/>
<path id="Vector_26" d="M38.8464 25.5923L34.9697 29.469L38.2578 32.7571L42.1345 28.8805L38.8464 25.5923Z" fill="#20FF79"/>
<path id="Vector_27" d="M21.4185 53.0035L23.2308 54.8159C25.367 52.6892 28.6409 50.493 32.3328 48.6907C31.0443 48.4935 29.8729 48.1574 28.8328 47.6782C25.9733 49.2134 23.3745 51.0823 21.4185 53.0035Z" fill="#20FF79"/>
<path id="Vector_28" d="M15.4943 48.7447C14.5773 48.1078 13.7414 48.242 13.3135 48.6617C12.8014 49.1638 12.8326 50.0226 13.3882 50.8591L20.9803 58.4518C21.9074 59.0981 22.7533 58.9644 23.183 58.5406C23.5886 58.1415 23.7722 57.3551 23.0876 56.3374L15.4943 48.7447Z" fill="#20FF79"/>
<path id="Vector_29" d="M24.1737 43.0044C23.6946 41.9637 23.3591 40.7918 23.1619 39.5027C21.3589 43.1999 19.1604 46.4779 17.0308 48.6158L18.8431 50.4282C20.7668 48.471 22.6374 45.8681 24.1737 43.0044Z" fill="#20FF79"/>
<path id="Vector_30" d="M0.406166 65.7991C0.140695 66.0333 0.0100201 66.2547 0.00060204 66.473C-0.013525 66.7909 0.223692 67.1117 0.425591 67.3248L3.97678 71.4669C4.17338 71.7148 4.38116 71.8372 4.60896 71.8496C4.8762 71.859 5.18699 71.7177 5.46541 71.4363L18.8826 58.0186L13.7933 52.9293L0.406166 65.7991Z" fill="#20FF79"/>
<path id="Vector_31" d="M60.9203 11.759L57.3379 15.3414L60.626 18.6296L64.2084 15.0472L60.9203 11.759Z" fill="#20FF79"/>
<path id="Vector_32" d="M61.4585 19.4618L64.7466 22.7498L68.2754 19.221C68.273 19.1828 68.2701 19.1445 68.2677 19.1062L65.0409 15.8794L61.4585 19.4618Z" fill="#20FF79"/>
<path id="Vector_33" d="M56.5052 16.1737L52.9229 19.7561L56.211 23.0442L59.7934 19.4618L56.5052 16.1737Z" fill="#20FF79"/>
<path id="Vector_34" d="M52.0907 20.5895L48.5083 24.1719L51.7964 27.46L55.3788 23.8776L52.0907 20.5895Z" fill="#20FF79"/>
<path id="Vector_35" d="M43.5552 20.8832L39.679 24.7594L42.9671 28.0475L46.8433 24.1713L43.5552 20.8832Z" fill="#20FF79"/>
<path id="Vector_36" d="M47.9701 16.4686L44.3877 20.051L47.6758 23.3391L51.2582 19.7568L47.9701 16.4686Z" fill="#20FF79"/>
<path id="Vector_37" d="M60.6258 20.2941L57.0435 23.8765L60.3316 27.1646L63.914 23.5822L60.6258 20.2941Z" fill="#20FF79"/>
<path id="Vector_38" d="M33.3058 29.4685L30.0177 26.1804L29.551 26.6472C29.5427 26.6554 29.5315 26.6584 29.5227 26.666C29.0035 28.3548 28.5909 30.0306 28.3154 31.6429L29.7234 33.0509L33.3058 29.4685Z" fill="#20FF79"/>
<path id="Vector_39" d="M38.7964 42.1239L40.1443 43.4719C41.7589 43.1799 43.506 42.7355 45.3672 42.1374C45.3743 42.1298 45.3766 42.1198 45.3837 42.1127L45.6663 41.8302L42.3782 38.5421L38.7964 42.1239Z" fill="#20FF79"/>
<path id="Vector_40" d="M47.0873 33.8326L43.2107 37.7092L46.4988 40.9974L50.3755 37.1207L47.0873 33.8326Z" fill="#20FF79"/>
<path id="Vector_41" d="M37.0615 43.8587C37.5883 43.8269 38.1387 43.771 38.705 43.6974L37.9639 42.9563L37.0615 43.8587Z" fill="#20FF79"/>
<path id="Vector_42" d="M47.9106 41.2504C49.4658 40.6629 51.0221 39.9984 52.5343 39.2791L51.2081 37.9529L47.9106 41.2504Z" fill="#20FF79"/>
<path id="Vector_43" d="M68.0506 17.2244C67.8552 16.0583 67.5509 14.9046 67.1353 13.785L65.8733 15.047L68.0506 17.2244Z" fill="#20FF79"/>
<path id="Vector_44" d="M65.5791 23.5821L67.5445 25.5476C68.0037 24.0407 68.2562 22.4602 68.3015 20.8597L65.5791 23.5821Z" fill="#20FF79"/>
<path id="Vector_45" d="M29.7232 34.7155L27.9397 36.499C28.0239 38.6881 28.5342 40.3822 29.4589 41.5559L33.0113 38.0035L29.7232 34.7155Z" fill="#20FF79"/>
<path id="Vector_46" d="M71.9061 19.958C71.8961 14.4896 69.8336 9.44511 66.0987 5.75383C62.2173 1.91775 57.0015 0 51.7886 0C46.5758 0 41.3664 1.91716 37.4956 5.75265C33.5436 9.66761 29.1059 17.3839 26.4524 24.9537C23.229 34.1504 23.3927 41.4364 26.9021 44.9452C30.4115 48.4552 37.6993 48.6165 46.893 45.3949C54.262 42.8114 62.1591 38.2702 66.0976 34.3493C69.7989 30.6645 71.9161 25.4193 71.9061 19.958ZM46.6899 42.9444C43.8333 43.921 39.6429 45.0818 35.8569 45.0818C33.1621 45.0818 30.6722 44.4943 29.0129 42.835C27.4566 41.2792 26.6955 38.8129 26.7496 35.5048C26.905 26.0838 33.5965 12.35 39.0337 7.25953C46.0048 0.73284 57.6961 0.734606 64.5636 7.26248C64.576 7.27366 64.5866 7.28543 64.5977 7.29721C71.1144 14.6003 71.1044 26.2916 64.5748 32.8277C60.9435 36.4619 53.7564 40.5275 46.6899 42.9444Z" fill="#20FF79"/>
<path id="Vector_47" d="M56.7495 32.4116L59.6214 35.2835C61.2048 34.2181 62.5693 33.1421 63.617 32.1143L60.3319 28.8292L56.7495 32.4116Z" fill="#20FF79"/>
<path id="Vector_48" d="M61.1643 27.9969L64.4247 31.2573C65.579 29.9294 66.4767 28.4137 67.1165 26.7844L64.7467 24.4146L61.1643 27.9969Z" fill="#20FF79"/>
<path id="Vector_49" d="M52.0405 37.1206L53.6522 38.7323C55.4139 37.8505 57.0939 36.9063 58.6143 35.941L55.9172 33.2439L52.0405 37.1206Z" fill="#20FF79"/>
<path id="Vector_50" d="M33.8436 38.8358L30.2913 42.3882C31.4773 43.3159 33.2061 43.8121 35.3735 43.8821L37.1317 42.1239L33.8436 38.8358Z" fill="#20FF79"/>
<path id="Vector_51" d="M58.1295 4.64497C56.9776 4.21939 55.7809 3.9186 54.5642 3.7373L56.801 5.97409L58.1295 4.64497Z" fill="#20FF79"/>
<path id="Vector_52" d="M52.3855 10.3886L55.9679 6.80619L52.7151 3.55344C52.6927 3.55226 52.671 3.54991 52.6486 3.54932L49.0974 7.1005L52.3855 10.3886Z" fill="#20FF79"/>
<path id="Vector_53" d="M65.041 14.2148L66.6485 12.6072C65.9975 11.168 65.1564 9.80183 64.1227 8.55688L61.7529 10.9267L65.041 14.2148Z" fill="#20FF79"/>
<path id="Vector_54" d="M50.9814 3.55188C49.415 3.62369 47.8575 3.89505 46.3589 4.36242L48.2649 6.26839L50.9814 3.55188Z" fill="#20FF79"/>
<path id="Vector_55" d="M60.9207 10.0945L63.3035 7.71173C62.0956 6.64926 60.7453 5.79045 59.3055 5.13354L57.6321 6.80701L60.9207 10.0945Z" fill="#20FF79"/>
<path id="Vector_56" d="M47.4328 7.10054L45.1295 4.79724C43.5085 5.43708 41.9792 6.31825 40.6118 7.4443L43.8504 10.6829L47.4328 7.10054Z" fill="#20FF79"/>
<path id="Vector_57" d="M32.4499 19.1938C31.6829 20.8067 30.9748 22.4837 30.3579 24.1754L33.8944 20.6389L32.4499 19.1938Z" fill="#20FF79"/>
<path id="Vector_58" d="M38.6034 15.9298L35.8127 13.1392C34.838 14.6378 33.8856 16.3089 32.9973 18.0766L34.7273 19.8065L38.6034 15.9298Z" fill="#20FF79"/>
<path id="Vector_59" d="M43.0179 11.5153L39.7287 8.22607C38.6727 9.23439 37.5708 10.5741 36.4824 12.1446L39.4356 15.0977L43.0179 11.5153Z" fill="#20FF79"/>
<path id="Vector_60" d="M28.1029 33.095C28.0322 33.6824 27.981 34.2587 27.9534 34.8208L28.8911 33.8831L28.1029 33.095Z" fill="#20FF79"/>
<path id="Vector_61" d="M61.2149 53.0135C56.6707 53.0135 52.9741 56.7101 52.9741 61.2543C52.9741 65.7985 56.6707 69.4951 61.2149 69.4951C65.7591 69.4951 69.4557 65.7985 69.4557 61.2543C69.4557 56.7101 65.7591 53.0135 61.2149 53.0135ZM60.0376 57.7226C59.7127 57.7226 59.449 57.4589 59.449 57.1339C59.449 56.809 59.7127 56.5453 60.0376 56.5453C60.3626 56.5453 60.6263 56.809 60.6263 57.1339C60.6263 57.4589 60.3626 57.7226 60.0376 57.7226ZM62.9808 57.7226C62.6559 57.7226 62.3922 57.4589 62.3922 57.1339C62.3922 56.809 62.6559 56.5453 62.9808 56.5453C63.3057 56.5453 63.5694 56.809 63.5694 57.1339C63.5694 57.4589 63.3057 57.7226 62.9808 57.7226Z" fill="#20FF79"/>
</g>
</g>
</svg>
