<svg width="94" height="94" viewBox="0 0 94 94" fill="none" xmlns="http://www.w3.org/2000/svg">
<circle cx="47.0005" cy="47" r="47" fill="#407BFF" fill-opacity="0.11"/>
<path d="M41.5936 25.1393C42.0669 32.3575 42.3695 39.5655 42.5013 46.7633C36.084 46.8164 29.6676 46.9034 23.2522 47.0243C23.0878 38.395 22.6711 29.7445 22.0019 21.0728C26.6701 20.7249 31.3471 20.3944 36.0328 20.0812C37.8951 21.7423 39.7487 23.4283 41.5936 25.1393Z" fill="#407BFF"/>
<path opacity="0.7" d="M41.5936 25.1393C42.0669 32.3575 42.3695 39.5655 42.5013 46.7633C36.084 46.8164 29.6676 46.9034 23.2522 47.0243C23.0878 38.395 22.6711 29.7445 22.0019 21.0728C26.6701 20.7249 31.3471 20.3944 36.0328 20.0812C37.8951 21.7423 39.7487 23.4283 41.5936 25.1393Z" fill="#FAFAFA"/>
<path d="M39.8865 28.5163C34.7618 28.7597 29.6264 29.0306 24.4804 29.3292C24.3749 29.3327 24.2723 29.2948 24.1946 29.2235C24.1168 29.1522 24.0701 29.0532 24.0645 28.9479C24.0611 28.8431 24.0986 28.7411 24.1692 28.6635C24.2397 28.586 24.3377 28.539 24.4424 28.5325C29.5766 28.2336 34.7122 27.9568 39.8491 27.702C39.9569 27.7014 40.0607 27.7426 40.1388 27.8169C40.2168 27.8912 40.2631 27.9928 40.2678 28.1005C40.2696 28.2054 40.2311 28.3071 40.1601 28.3845C40.0892 28.4618 39.9913 28.509 39.8865 28.5163Z" fill="#407BFF"/>
<path d="M40.0276 31.1296C34.8987 31.3478 29.7618 31.5885 24.6168 31.8517C24.5106 31.8537 24.4077 31.8143 24.3299 31.7419C24.2521 31.6695 24.2054 31.5697 24.1998 31.4635C24.1972 31.3583 24.2354 31.2562 24.3065 31.1786C24.3777 31.101 24.4761 31.0541 24.5811 31.0476C29.718 30.7788 34.8548 30.5299 39.9913 30.301C40.0997 30.3003 40.2042 30.3419 40.2825 30.4169C40.3608 30.4919 40.4067 30.5945 40.4106 30.7029C40.4162 30.8102 40.379 30.9154 40.3072 30.9953C40.2354 31.0753 40.1349 31.1236 40.0276 31.1296Z" fill="#407BFF"/>
<path d="M40.1605 33.7424C35.0267 33.9309 29.8884 34.1425 24.7458 34.3771C24.6395 34.3791 24.5366 34.3397 24.4588 34.2673C24.381 34.1949 24.3343 34.0951 24.3287 33.9889C24.3268 33.8833 24.3658 33.781 24.4375 33.7034C24.5092 33.6258 24.608 33.5789 24.7135 33.5725C29.839 33.3337 34.977 33.114 40.1277 32.9132C40.2361 32.9125 40.3406 32.9541 40.4188 33.0291C40.4971 33.1042 40.5431 33.2067 40.547 33.3151C40.5517 33.4229 40.5138 33.5281 40.4415 33.6081C40.3692 33.6881 40.2682 33.7364 40.1605 33.7424Z" fill="#407BFF"/>
<path d="M40.2758 36.3547C35.1362 36.509 30.0013 36.6918 24.8712 36.9031C24.7647 36.906 24.6613 36.867 24.5833 36.7943C24.5053 36.7217 24.459 36.6214 24.4542 36.515C24.4505 36.4089 24.4889 36.3056 24.5609 36.2276C24.633 36.1496 24.7329 36.1032 24.839 36.0985C29.9687 35.8849 35.1079 35.6931 40.2566 35.5232C40.3657 35.5224 40.4708 35.5644 40.5493 35.6401C40.6278 35.7159 40.6735 35.8195 40.6765 35.9285C40.6787 35.9829 40.67 36.0373 40.6509 36.0883C40.6319 36.1393 40.6029 36.186 40.5656 36.2257C40.5283 36.2654 40.4834 36.2972 40.4337 36.3194C40.3839 36.3415 40.3302 36.3535 40.2758 36.3547Z" fill="#407BFF"/>
<path d="M34.2438 39.1336C31.146 39.2261 28.0491 39.3244 24.9531 39.4284C24.9001 39.4307 24.8472 39.4225 24.7975 39.4042C24.7477 39.3859 24.7021 39.3578 24.6632 39.3217C24.6244 39.2856 24.5932 39.2421 24.5714 39.1937C24.5495 39.1454 24.5375 39.0932 24.5361 39.0402C24.5324 38.9341 24.5708 38.8308 24.6428 38.7529C24.7149 38.6749 24.8148 38.6285 24.9208 38.6238C28.0202 38.5122 31.1162 38.4082 34.2087 38.3118C34.3174 38.3102 34.4223 38.3515 34.5008 38.4267C34.5793 38.5019 34.625 38.605 34.628 38.7137C34.6317 38.82 34.5935 38.9236 34.5217 39.0021C34.4498 39.0806 34.3501 39.1278 34.2438 39.1336Z" fill="#407BFF"/>
<path d="M41.5912 25.1441L36.4094 25.4322C36.2937 23.6436 36.1665 21.8558 36.0276 20.0688C37.8918 21.7413 39.7464 23.4331 41.5912 25.1441Z" fill="#407BFF"/>
<path d="M70.5936 25.1393C71.0669 32.3575 71.3695 39.5655 71.5013 46.7633C65.084 46.8164 58.6676 46.9034 52.2522 47.0243C52.0878 38.395 51.6711 29.7445 51.0019 21.0728C55.6701 20.7249 60.3471 20.3944 65.0328 20.0812C66.8951 21.7423 68.7487 23.4283 70.5936 25.1393Z" fill="#407BFF"/>
<path opacity="0.7" d="M70.5936 25.1393C71.0669 32.3575 71.3695 39.5655 71.5013 46.7633C65.084 46.8164 58.6676 46.9034 52.2522 47.0243C52.0878 38.395 51.6711 29.7445 51.0019 21.0728C55.6701 20.7249 60.3471 20.3944 65.0328 20.0812C66.8951 21.7423 68.7487 23.4283 70.5936 25.1393Z" fill="#FAFAFA"/>
<path d="M68.8865 28.5163C63.7618 28.7597 58.6264 29.0306 53.4804 29.3292C53.3749 29.3327 53.2723 29.2948 53.1946 29.2235C53.1168 29.1522 53.0701 29.0532 53.0645 28.9479C53.0611 28.8431 53.0986 28.7411 53.1692 28.6635C53.2397 28.586 53.3377 28.539 53.4424 28.5325C58.5766 28.2336 63.7122 27.9568 68.8491 27.702C68.9569 27.7014 69.0607 27.7426 69.1388 27.8169C69.2168 27.8912 69.2631 27.9928 69.2678 28.1005C69.2696 28.2054 69.2311 28.3071 69.1601 28.3845C69.0892 28.4618 68.9913 28.509 68.8865 28.5163Z" fill="#407BFF"/>
<path d="M69.0276 31.1296C63.8987 31.3478 58.7618 31.5885 53.6168 31.8517C53.5106 31.8537 53.4077 31.8143 53.3299 31.7419C53.2521 31.6695 53.2054 31.5697 53.1998 31.4635C53.1972 31.3583 53.2354 31.2562 53.3065 31.1786C53.3777 31.101 53.4761 31.0541 53.5811 31.0476C58.718 30.7788 63.8548 30.5299 68.9913 30.301C69.0997 30.3003 69.2042 30.3419 69.2825 30.4169C69.3608 30.4919 69.4067 30.5945 69.4106 30.7029C69.4162 30.8102 69.379 30.9154 69.3072 30.9953C69.2354 31.0753 69.1349 31.1236 69.0276 31.1296Z" fill="#407BFF"/>
<path d="M69.1605 33.7424C64.0267 33.9309 58.8884 34.1425 53.7458 34.3771C53.6395 34.3791 53.5366 34.3397 53.4588 34.2673C53.381 34.1949 53.3343 34.0951 53.3287 33.9889C53.3268 33.8833 53.3658 33.781 53.4375 33.7034C53.5092 33.6258 53.608 33.5789 53.7135 33.5725C58.839 33.3337 63.977 33.114 69.1277 32.9132C69.2361 32.9125 69.3406 32.9541 69.4188 33.0291C69.4971 33.1042 69.5431 33.2067 69.547 33.3151C69.5517 33.4229 69.5138 33.5281 69.4415 33.6081C69.3692 33.6881 69.2682 33.7364 69.1605 33.7424Z" fill="#407BFF"/>
<path d="M69.2758 36.3547C64.1362 36.509 59.0013 36.6918 53.8712 36.9031C53.7647 36.906 53.6613 36.867 53.5833 36.7943C53.5053 36.7217 53.459 36.6214 53.4542 36.515C53.4505 36.4089 53.4889 36.3056 53.5609 36.2276C53.633 36.1496 53.7329 36.1032 53.839 36.0985C58.9687 35.8849 64.1079 35.6931 69.2566 35.5232C69.3657 35.5224 69.4708 35.5644 69.5493 35.6401C69.6278 35.7159 69.6735 35.8195 69.6765 35.9285C69.6787 35.9829 69.67 36.0373 69.6509 36.0883C69.6319 36.1393 69.6029 36.186 69.5656 36.2257C69.5283 36.2654 69.4834 36.2972 69.4337 36.3194C69.3839 36.3415 69.3302 36.3535 69.2758 36.3547Z" fill="#407BFF"/>
<path d="M63.2438 39.1336C60.146 39.2261 57.0491 39.3244 53.9531 39.4284C53.9001 39.4307 53.8472 39.4225 53.7975 39.4042C53.7477 39.3859 53.7021 39.3578 53.6632 39.3217C53.6244 39.2856 53.5932 39.2421 53.5714 39.1937C53.5495 39.1454 53.5375 39.0932 53.5361 39.0402C53.5324 38.9341 53.5708 38.8308 53.6428 38.7529C53.7149 38.6749 53.8148 38.6285 53.9208 38.6238C57.0202 38.5122 60.1162 38.4082 63.2087 38.3118C63.3174 38.3102 63.4223 38.3515 63.5008 38.4267C63.5793 38.5019 63.625 38.605 63.628 38.7137C63.6317 38.82 63.5935 38.9236 63.5217 39.0021C63.4498 39.0806 63.3501 39.1278 63.2438 39.1336Z" fill="#407BFF"/>
<path d="M70.5912 25.1441L65.4094 25.4322C65.2937 23.6436 65.1665 21.8558 65.0276 20.0688C66.8918 21.7413 68.7464 23.4331 70.5912 25.1441Z" fill="#407BFF"/>
<path d="M59.5936 57.1393C60.0669 64.3575 60.3695 71.5655 60.5013 78.7633C54.084 78.8164 47.6676 78.9034 41.2522 79.0243C41.0878 70.395 40.6711 61.7445 40.0019 53.0728C44.6701 52.7249 49.3471 52.3944 54.0328 52.0812C55.8951 53.7423 57.7487 55.4283 59.5936 57.1393Z" fill="#407BFF"/>
<path opacity="0.7" d="M59.5936 57.1393C60.0669 64.3575 60.3695 71.5655 60.5013 78.7633C54.084 78.8164 47.6676 78.9034 41.2522 79.0243C41.0878 70.395 40.6711 61.7445 40.0019 53.0728C44.6701 52.7249 49.3471 52.3944 54.0328 52.0812C55.8951 53.7423 57.7487 55.4283 59.5936 57.1393Z" fill="#FAFAFA"/>
<path d="M57.8865 60.5163C52.7618 60.7597 47.6264 61.0306 42.4804 61.3292C42.3749 61.3327 42.2723 61.2948 42.1946 61.2235C42.1168 61.1522 42.0701 61.0532 42.0645 60.9479C42.0611 60.8431 42.0986 60.7411 42.1692 60.6635C42.2397 60.586 42.3377 60.539 42.4424 60.5325C47.5766 60.2336 52.7122 59.9568 57.8491 59.702C57.9569 59.7014 58.0607 59.7426 58.1388 59.8169C58.2168 59.8912 58.2631 59.9928 58.2678 60.1005C58.2696 60.2054 58.2311 60.3071 58.1601 60.3845C58.0892 60.4618 57.9913 60.509 57.8865 60.5163Z" fill="#407BFF"/>
<path d="M58.0276 63.1296C52.8987 63.3478 47.7618 63.5885 42.6168 63.8517C42.5106 63.8537 42.4077 63.8143 42.3299 63.7419C42.2521 63.6695 42.2054 63.5697 42.1998 63.4635C42.1972 63.3583 42.2354 63.2562 42.3065 63.1786C42.3777 63.101 42.4761 63.0541 42.5811 63.0476C47.718 62.7788 52.8548 62.5299 57.9913 62.301C58.0997 62.3003 58.2042 62.3419 58.2825 62.4169C58.3608 62.4919 58.4067 62.5945 58.4106 62.7029C58.4162 62.8102 58.379 62.9154 58.3072 62.9953C58.2354 63.0753 58.1349 63.1236 58.0276 63.1296Z" fill="#407BFF"/>
<path d="M58.1605 65.7424C53.0267 65.9309 47.8884 66.1425 42.7458 66.3771C42.6395 66.3791 42.5366 66.3397 42.4588 66.2673C42.381 66.1949 42.3343 66.0951 42.3287 65.9889C42.3268 65.8833 42.3658 65.781 42.4375 65.7034C42.5092 65.6258 42.608 65.5789 42.7135 65.5725C47.839 65.3337 52.977 65.114 58.1277 64.9132C58.2361 64.9125 58.3406 64.9541 58.4188 65.0291C58.4971 65.1042 58.5431 65.2067 58.547 65.3151C58.5517 65.4229 58.5138 65.5281 58.4415 65.6081C58.3692 65.6881 58.2682 65.7364 58.1605 65.7424Z" fill="#407BFF"/>
<path d="M58.2758 68.3547C53.1362 68.509 48.0013 68.6918 42.8712 68.9031C42.7647 68.906 42.6613 68.867 42.5833 68.7943C42.5053 68.7217 42.459 68.6214 42.4542 68.515C42.4505 68.4089 42.4889 68.3056 42.5609 68.2276C42.633 68.1496 42.7329 68.1032 42.839 68.0985C47.9687 67.8849 53.1079 67.6931 58.2566 67.5232C58.3657 67.5224 58.4708 67.5644 58.5493 67.6401C58.6278 67.7159 58.6735 67.8195 58.6765 67.9285C58.6787 67.9829 58.67 68.0373 58.6509 68.0883C58.6319 68.1393 58.6029 68.186 58.5656 68.2257C58.5283 68.2654 58.4834 68.2972 58.4337 68.3194C58.3839 68.3415 58.3302 68.3535 58.2758 68.3547Z" fill="#407BFF"/>
<path d="M52.2438 71.1336C49.146 71.2261 46.0491 71.3244 42.9531 71.4284C42.9001 71.4307 42.8472 71.4225 42.7975 71.4042C42.7477 71.3859 42.7021 71.3578 42.6632 71.3217C42.6244 71.2856 42.5932 71.2421 42.5714 71.1937C42.5495 71.1454 42.5375 71.0932 42.5361 71.0402C42.5324 70.9341 42.5708 70.8308 42.6428 70.7529C42.7149 70.6749 42.8148 70.6285 42.9208 70.6238C46.0202 70.5122 49.1162 70.4082 52.2087 70.3118C52.3174 70.3102 52.4223 70.3515 52.5008 70.4267C52.5793 70.5019 52.625 70.605 52.628 70.7137C52.6317 70.82 52.5935 70.9236 52.5217 71.0021C52.4498 71.0806 52.3501 71.1278 52.2438 71.1336Z" fill="#407BFF"/>
<path d="M59.5912 57.1441L54.4094 57.4322C54.2937 55.6436 54.1665 53.8558 54.0276 52.0688C55.8918 53.7413 57.7464 55.4331 59.5912 57.1441Z" fill="#407BFF"/>
</svg>
