<svg width="24" height="24" viewBox="0 0 24 24" fill="none" xmlns="http://www.w3.org/2000/svg">
<path d="M9.68495 1.56989C10.6735 -0.281109 13.3255 -0.281109 14.314 1.56989L23.437 18.6369C23.6507 19.0368 23.7573 19.4853 23.7462 19.9386C23.7351 20.3919 23.6067 20.8347 23.3736 21.2237C23.1406 21.6126 22.8107 21.9346 22.4162 22.1582C22.0216 22.3817 21.5759 22.4993 21.1225 22.4994H2.87645C2.42299 22.4993 1.97727 22.3817 1.58275 22.1582C1.18823 21.9346 0.858349 21.6126 0.625263 21.2237C0.392178 20.8347 0.263834 20.3919 0.252739 19.9386C0.241644 19.4853 0.348176 19.0368 0.561955 18.6369L9.68495 1.56989ZM12.3295 2.63039C12.2973 2.57086 12.2497 2.52113 12.1916 2.48647C12.1335 2.45181 12.0671 2.43351 11.9995 2.43351C11.9318 2.43351 11.8654 2.45181 11.8073 2.48647C11.7492 2.52113 11.7016 2.57086 11.6695 2.63039L2.54645 19.6974C2.51589 19.7545 2.50063 19.8185 2.50216 19.8832C2.50369 19.948 2.52196 20.0112 2.55519 20.0668C2.58841 20.1224 2.63547 20.1684 2.69177 20.2004C2.74807 20.2324 2.8117 20.2493 2.87645 20.2494H21.1225C21.1872 20.2493 21.2508 20.2324 21.3071 20.2004C21.3634 20.1684 21.4105 20.1224 21.4437 20.0668C21.477 20.0112 21.4952 19.948 21.4967 19.8832C21.4983 19.8185 21.483 19.7545 21.4525 19.6974L12.3295 2.63039ZM13.1245 8.62439V12.3744C13.1245 12.6728 13.0059 12.9589 12.7949 13.1699C12.584 13.3809 12.2978 13.4994 11.9995 13.4994C11.7011 13.4994 11.4149 13.3809 11.204 13.1699C10.993 12.9589 10.8745 12.6728 10.8745 12.3744V8.62439C10.8745 8.32602 10.993 8.03987 11.204 7.82889C11.4149 7.61792 11.7011 7.49939 11.9995 7.49939C12.2978 7.49939 12.584 7.61792 12.7949 7.82889C13.0059 8.03987 13.1245 8.32602 13.1245 8.62439ZM13.4995 16.4994C13.4995 16.8972 13.3414 17.2787 13.0601 17.56C12.7788 17.8414 12.3973 17.9994 11.9995 17.9994C11.6016 17.9994 11.2201 17.8414 10.9388 17.56C10.6575 17.2787 10.4995 16.8972 10.4995 16.4994C10.4995 16.1016 10.6575 15.72 10.9388 15.4387C11.2201 15.1574 11.6016 14.9994 11.9995 14.9994C12.3973 14.9994 12.7788 15.1574 13.0601 15.4387C13.3414 15.72 13.4995 16.1016 13.4995 16.4994Z" fill="#E2AB0D"/>
</svg>
