<svg width="24" height="24" viewBox="0 0 24 24" fill="none" xmlns="http://www.w3.org/2000/svg">
<mask id="mask0_408_525" style="mask-type:alpha" maskUnits="userSpaceOnUse" x="0" y="0" width="24" height="24">
<rect width="24" height="24" fill="#D9D9D9"/>
</mask>
<g mask="url(#mask0_408_525)">
<path d="M7.81043 12.763C7.24605 12.763 6.76291 12.5686 6.361 12.1798C5.95909 11.791 5.75814 11.3237 5.75814 10.7778C5.75814 10.2318 5.95909 9.7645 6.361 9.37574C6.76291 8.98697 7.24605 8.79259 7.81043 8.79259C8.37481 8.79259 8.85795 8.98697 9.25986 9.37574C9.66176 9.7645 9.86271 10.2318 9.86271 10.7778C9.86271 11.3237 9.66176 11.791 9.25986 12.1798C8.85795 12.5686 8.37481 12.763 7.81043 12.763ZM7.81043 16.7333C6.10019 16.7333 4.64648 16.1543 3.44932 14.9963C2.25215 13.8383 1.65356 12.4321 1.65356 10.7778C1.65356 9.12345 2.25215 7.71728 3.44932 6.55926C4.64648 5.40123 6.10019 4.82222 7.81043 4.82222C8.95629 4.82222 9.99526 5.09518 10.9273 5.64111C11.8594 6.18703 12.5991 6.90666 13.1464 7.8H22.1764L25.2549 10.7778L20.6372 15.2444L18.5849 13.7556L16.5326 15.2444L14.3521 13.7556H13.1464C12.5991 14.6489 11.8594 15.3685 10.9273 15.9144C9.99526 16.4604 8.95629 16.7333 7.81043 16.7333ZM7.81043 14.7481C8.76816 14.7481 9.61046 14.4669 10.3373 13.9044C11.0642 13.342 11.5473 12.6306 11.7867 11.7704H14.9934L16.4813 12.7878L18.5849 11.2741L20.4063 12.6389L22.3304 10.7778L21.3042 9.78518H11.7867C11.5473 8.92494 11.0642 8.21358 10.3373 7.65111C9.61046 7.08864 8.76816 6.8074 7.81043 6.8074C6.68167 6.8074 5.71538 7.19617 4.91157 7.9737C4.10776 8.75123 3.70585 9.68592 3.70585 10.7778C3.70585 11.8696 4.10776 12.8043 4.91157 13.5818C5.71538 14.3594 6.68167 14.7481 7.81043 14.7481Z" fill="#8F8F8F"/>
</g>
</svg>
