<svg width="60" height="56" viewBox="0 0 60 56" fill="none" xmlns="http://www.w3.org/2000/svg">
<g id="Group 2">
<g id="Group 74">
<path id="Polygon 1" d="M23.9105 3.39394C26.5232 -1.13132 33.0548 -1.13131 35.6675 3.39394L58.4466 42.8485C61.0592 47.3737 57.7934 53.0303 52.5681 53.0303H7.00991C1.7846 53.0303 -1.48121 47.3737 1.13144 42.8485L23.9105 3.39394Z" fill="white" fill-opacity="0.4"/>
<path id="Polygon 1 (Stroke)" fill-rule="evenodd" clip-rule="evenodd" d="M56.977 43.697L34.1979 4.24243C32.2384 0.848485 27.3396 0.848485 25.3802 4.24242L2.60106 43.697C0.641571 47.0909 3.09093 51.3333 7.00992 51.3333H52.5681C56.4871 51.3333 58.9365 47.0909 56.977 43.697ZM35.6675 3.39394C33.0548 -1.13131 26.5232 -1.13132 23.9105 3.39394L1.13145 42.8485C-1.48121 47.3737 1.7846 53.0303 7.00992 53.0303H52.5681C57.7934 53.0303 61.0592 47.3737 58.4466 42.8485L35.6675 3.39394Z" fill="white" fill-opacity="0.7"/>
<path id="Ellipse 1" d="M32.9002 34.505C32.9002 36.0671 31.634 37.3333 30.0719 37.3333C28.5099 37.3333 27.2437 36.0671 27.2437 34.505C27.2437 32.943 28.5099 31.6768 30.0719 31.6768C31.634 31.6768 32.9002 32.943 32.9002 34.505Z" fill="white"/>
<path id="Ellipse 2" d="M14.7991 23.7576C14.7991 25.3196 13.5329 26.5859 11.9709 26.5859C10.4088 26.5859 9.14258 25.3196 9.14258 23.7576C9.14258 22.1956 10.4088 20.9293 11.9709 20.9293C13.5329 20.9293 14.7991 22.1956 14.7991 23.7576Z" fill="white"/>
<path id="Ellipse 3" d="M50.4354 23.7576C50.4354 25.3196 49.1691 26.5859 47.6071 26.5859C46.0451 26.5859 44.7788 25.3196 44.7788 23.7576C44.7788 22.1956 46.0451 20.9293 47.6071 20.9293C49.1691 20.9293 50.4354 22.1956 50.4354 23.7576Z" fill="white"/>
<path id="Ellipse 4" d="M32.9002 53.1717C32.9002 54.7337 31.634 55.9999 30.0719 55.9999C28.5099 55.9999 27.2437 54.7337 27.2437 53.1717C27.2437 51.6096 28.5099 50.3434 30.0719 50.3434C31.634 50.3434 32.9002 51.6096 32.9002 53.1717Z" fill="white"/>
<path id="Vector 2 (Stroke)" fill-rule="evenodd" clip-rule="evenodd" d="M11.5293 24.4822L12.4123 23.0331L30.0647 33.79L47.1554 23.0394L48.059 24.4758L30.0789 35.7859L11.5293 24.4822Z" fill="white" fill-opacity="0.7"/>
<path id="Vector 3 (Stroke)" fill-rule="evenodd" clip-rule="evenodd" d="M29.2234 53.4545V34.7878H30.9204V53.4545H29.2234Z" fill="white" fill-opacity="0.7"/>
</g>
</g>
</svg>
