<svg width="643" height="56" viewBox="0 0 643 56" fill="none" xmlns="http://www.w3.org/2000/svg">
<path d="M16.403 30.5386C16.7741 30.5386 17.0549 30.2477 17.0549 29.8866C17.0549 29.5255 16.754 29.2346 16.403 29.2346C16.0519 29.2346 15.751 29.5255 15.751 29.8866C15.751 30.2477 16.0519 30.5386 16.403 30.5386Z" fill="#DD552D"/>
<path d="M19.6925 30.5386C20.0636 30.5386 20.3445 30.2477 20.3445 29.8866C20.3445 29.5255 20.0436 29.2346 19.6925 29.2346C19.3414 29.2346 19.0405 29.5255 19.0405 29.8866C19.0405 30.2477 19.3314 30.5386 19.6925 30.5386Z" fill="#DD552D"/>
<path d="M22.9825 30.5686C23.3537 30.5686 23.6345 30.2777 23.6345 29.9166C23.6345 29.5555 23.3336 29.2646 22.9825 29.2646C22.6315 29.2646 22.3306 29.5555 22.3306 29.9166C22.3306 30.2777 22.6315 30.5686 22.9825 30.5686Z" fill="#DD552D"/>
<path d="M26.2828 30.4382C26.654 30.4382 26.9348 30.1473 26.9348 29.7862C26.9348 29.4251 26.6339 29.1343 26.2828 29.1343C25.9318 29.1343 25.6309 29.4251 25.6309 29.7862C25.6309 30.1473 25.9318 30.4382 26.2828 30.4382Z" fill="#DD552D"/>
<mask id="path-5-outside-1_3542_3009" maskUnits="userSpaceOnUse" x="29.2202" y="3.00021" width="28" height="50" fill="black">
<rect fill="white" x="29.2202" y="3.00021" width="28" height="50"/>
<path d="M32.2202 31.8926V48.122C32.2202 49.4761 33.3838 50.5794 34.7379 50.429C45.8918 49.1752 54.5681 39.7164 54.5681 28.2215C54.5681 16.7265 45.8918 7.26778 34.7379 6.01397C33.3938 5.86352 32.2202 6.96687 32.2202 8.32099V27.1783"/>
</mask>
<path d="M34.7379 50.429L35.0139 52.9137L35.0171 52.9133L34.7379 50.429ZM34.7379 6.01397L35.0171 3.52962L35.016 3.52949L34.7379 6.01397ZM29.7202 31.8926V48.122H34.7202V31.8926H29.7202ZM29.7202 48.122C29.7202 50.8797 32.0943 53.2381 35.0139 52.9137L34.4618 47.9443C34.5008 47.9399 34.5469 47.9447 34.5893 47.9594C34.6286 47.9729 34.6546 47.9912 34.6703 48.0057C34.6982 48.0316 34.7202 48.0726 34.7202 48.122H29.7202ZM35.0171 52.9133C47.4201 51.5191 57.0681 41.0047 57.0681 28.2215H52.0681C52.0681 38.4281 44.3634 46.8312 34.4586 47.9446L35.0171 52.9133ZM57.0681 28.2215C57.0681 15.4382 47.4201 4.92384 35.0171 3.52962L34.4586 8.49833C44.3634 9.61173 52.0681 18.0148 52.0681 28.2215H57.0681ZM35.016 3.52949C32.1103 3.20423 29.7202 5.55767 29.7202 8.32099H34.7202C34.7202 8.37705 34.6955 8.4174 34.6715 8.43951C34.6576 8.45241 34.6333 8.46985 34.5947 8.48319C34.553 8.49763 34.5045 8.50347 34.4598 8.49846L35.016 3.52949ZM29.7202 8.32099V27.1783H34.7202V8.32099H29.7202Z" fill="#2D66AA" mask="url(#path-5-outside-1_3542_3009)"/>
<path d="M38.6903 15.7335C40.0142 15.7335 41.0875 14.6602 41.0875 13.3362C41.0875 12.0122 40.0142 10.9389 38.6903 10.9389C37.3663 10.9389 36.293 12.0122 36.293 13.3362C36.293 14.6602 37.3663 15.7335 38.6903 15.7335Z" stroke="#2D66AA" stroke-width="2"/>
<path d="M45.2298 20.9897C46.5538 20.9897 47.6271 19.9164 47.6271 18.5924C47.6271 17.2684 46.5538 16.1951 45.2298 16.1951C43.9058 16.1951 42.8325 17.2684 42.8325 18.5924C42.8325 19.9164 43.9058 20.9897 45.2298 20.9897Z" stroke="#2D66AA" stroke-width="2"/>
<path d="M39.9241 44.1196C41.2481 44.1196 42.3214 43.0463 42.3214 41.7223C42.3214 40.3984 41.2481 39.3251 39.9241 39.3251C38.6002 39.3251 37.5269 40.3984 37.5269 41.7223C37.5269 43.0463 38.6002 44.1196 39.9241 44.1196Z" stroke="#2D66AA" stroke-width="2"/>
<path d="M32.2202 29.6154H45.7313C46.5538 29.6154 47.2258 28.9434 47.2258 28.1209V26.2251" stroke="#4DA9E2" stroke-width="2" stroke-linecap="round" stroke-linejoin="round"/>
<path d="M40.6963 19.9459V24.7204C40.6963 25.5429 40.0242 26.215 39.2017 26.215H36.2227" stroke="#4DA9E2" stroke-width="2" stroke-linecap="round" stroke-linejoin="round"/>
<path d="M36.2124 32.5746H38.4191C39.2416 32.5746 39.9137 33.2467 39.9137 34.0692V37.3291" stroke="#4DA9E2" stroke-width="2" stroke-linecap="round" stroke-linejoin="round"/>
<path d="M47.2363 32.5746V40.579" stroke="#2D66AA" stroke-width="2" stroke-linecap="round" stroke-linejoin="round"/>
<path d="M50.5664 20.0763V28.2411" stroke="#2D66AA" stroke-width="2" stroke-linecap="round" stroke-linejoin="round"/>
<path d="M50.5664 30.538V32.5742" stroke="#2D66AA" stroke-width="2" stroke-linecap="round" stroke-linejoin="round"/>
<mask id="path-16-outside-2_3542_3009" maskUnits="userSpaceOnUse" x="0" y="3.1104" width="29" height="50" fill="black">
<rect fill="white" y="3.1104" width="29" height="50"/>
<path d="M26.2726 32.7251L26.413 44.4608C26.413 45.2131 26.3528 45.9654 26.092 46.6675C25.0488 49.5061 22.1901 50.9606 18.9704 50.459C15.7105 49.9575 14.5469 47.49 14.4366 44.3204C13.3633 44.511 12.1998 44.4107 11.0563 43.8991C9.1806 43.0565 7.86661 41.221 7.67603 39.1848C7.55567 37.9009 7.85658 36.7474 8.40826 35.7644C4.81734 34.5908 2.5003 30.9698 3.0921 27.1281C3.49332 24.5403 5.11826 22.4539 7.29487 21.3506C7.0742 20.498 7.01402 19.5852 7.15445 18.6524C7.71615 15.0314 11.1065 12.5538 14.7275 13.1155C14.7676 13.1155 14.7977 13.1356 14.8278 13.1356C14.587 12.1225 14.6171 11.0292 14.9883 9.93588C15.8408 7.45835 18.3986 5.85347 21.0065 6.14436C24.2865 6.50545 26.082 9.50457 26.0318 12.7043L26.0619 27.2987"/>
</mask>
<path d="M26.413 44.4608H28.913V44.4459L28.9128 44.4309L26.413 44.4608ZM26.092 46.6675L23.7484 45.7971L23.7454 45.8052L26.092 46.6675ZM18.9704 50.459L19.3551 47.9888L19.3505 47.9881L18.9704 50.459ZM14.4366 44.3204L16.9351 44.2334L16.8349 41.3554L13.9995 41.8589L14.4366 44.3204ZM11.0563 43.8991L10.0319 46.1796L10.0354 46.1812L11.0563 43.8991ZM7.67603 39.1848L10.1652 38.9518L10.1651 38.9514L7.67603 39.1848ZM8.40826 35.7644L10.5884 36.9879L12.0781 34.3336L9.18487 33.3881L8.40826 35.7644ZM3.0921 27.1281L0.621614 26.7451L0.621245 26.7475L3.0921 27.1281ZM7.29487 21.3506L8.42522 23.5804L10.219 22.6711L9.71512 20.7242L7.29487 21.3506ZM7.15445 18.6524L4.68397 18.2691L4.6823 18.2802L7.15445 18.6524ZM14.7275 13.1155L14.3442 15.586L14.5347 15.6155H14.7275V13.1155ZM14.8278 13.1356V15.6356H17.9914L17.26 12.5576L14.8278 13.1356ZM14.9883 9.93588L12.6243 9.12237L12.6209 9.13229L14.9883 9.93588ZM21.0065 6.14436L20.7294 8.62895L20.733 8.62934L21.0065 6.14436ZM26.0318 12.7043L23.5321 12.6651L23.5318 12.6873L23.5318 12.7094L26.0318 12.7043ZM23.7727 32.7551L23.9132 44.4907L28.9128 44.4309L28.7724 32.6952L23.7727 32.7551ZM23.913 44.4608C23.913 45.1075 23.8553 45.5094 23.7484 45.7971L28.4356 47.538C28.8503 46.4214 28.913 45.3187 28.913 44.4608H23.913ZM23.7454 45.8052C23.1826 47.3366 21.6085 48.3398 19.3551 47.9888L18.5856 52.9293C22.7718 53.5813 26.915 51.6757 28.4386 47.5299L23.7454 45.8052ZM19.3505 47.9881C18.3572 47.8353 17.8979 47.4498 17.607 47.0102C17.2502 46.4713 16.982 45.5823 16.9351 44.2334L11.9381 44.4074C12.0015 46.2281 12.3702 48.1577 13.4378 49.7703C14.5711 51.4823 16.3236 52.5813 18.5902 52.93L19.3505 47.9881ZM13.9995 41.8589C13.3908 41.967 12.738 41.9127 12.0772 41.6171L10.0354 46.1812C11.6616 46.9087 13.3358 47.055 14.8737 46.7819L13.9995 41.8589ZM12.0807 41.6186C11.0232 41.1436 10.2715 40.0882 10.1652 38.9518L5.18691 39.4178C5.46171 42.3538 7.33796 44.9695 10.0319 46.1796L12.0807 41.6186ZM10.1651 38.9514C10.0964 38.2181 10.2623 37.5689 10.5884 36.9879L6.22813 34.5408C5.45085 35.9258 5.01496 37.5836 5.18695 39.4181L10.1651 38.9514ZM9.18487 33.3881C6.73273 32.5867 5.16147 30.115 5.56295 27.5088L0.621245 26.7475C-0.160866 31.8246 2.90196 36.595 7.63164 38.1407L9.18487 33.3881ZM5.56258 27.5112C5.83477 25.7556 6.93273 24.337 8.42522 23.5804L6.16453 19.1207C3.30379 20.5708 1.15187 23.325 0.621615 26.7451L5.56258 27.5112ZM9.71512 20.7242C9.57575 20.1857 9.53808 19.6125 9.62659 19.0245L4.6823 18.2802C4.48996 19.5579 4.57266 20.8103 4.87463 21.977L9.71512 20.7242ZM9.6249 19.0356C9.97477 16.7802 12.0864 15.2358 14.3442 15.586L15.1107 10.6451C10.1265 9.87192 5.45754 13.2825 4.68399 18.2691L9.6249 19.0356ZM14.7275 15.6155C14.5268 15.6155 14.3599 15.5901 14.2408 15.5651C14.1824 15.5528 14.1348 15.5404 14.1027 15.5315C14.0718 15.523 14.0488 15.5158 14.0462 15.515C14.0452 15.5147 14.0446 15.5146 14.0455 15.5148C14.0459 15.5149 14.0483 15.5157 14.0506 15.5164C14.0553 15.5178 14.0656 15.521 14.0783 15.5248C14.1026 15.5321 14.1503 15.546 14.2104 15.5607C14.2713 15.5756 14.3559 15.5941 14.4575 15.6088C14.5601 15.6237 14.6852 15.6356 14.8278 15.6356V10.6356C14.9628 10.6356 15.0804 10.6469 15.1754 10.6606C15.2695 10.6743 15.3465 10.6912 15.3997 10.7042C15.4521 10.7171 15.492 10.7288 15.5085 10.7337C15.5172 10.7363 15.5236 10.7383 15.5243 10.7385C15.5246 10.7386 15.5249 10.7387 15.5233 10.7382C15.5222 10.7379 15.5196 10.737 15.5166 10.7361C15.5058 10.7328 15.4745 10.7232 15.4351 10.7123C15.3944 10.7011 15.3382 10.6865 15.2709 10.6723C15.1339 10.6435 14.9482 10.6155 14.7275 10.6155V15.6155ZM17.26 12.5576C17.1259 11.9932 17.1385 11.379 17.3556 10.7395L12.6209 9.13229C12.0958 10.6794 12.0482 12.2519 12.3955 13.7136L17.26 12.5576ZM17.3522 10.7494C17.8205 9.38841 19.2738 8.46659 20.7294 8.62895L21.2837 3.65976C17.5234 3.24035 13.8611 5.52829 12.6243 9.12238L17.3522 10.7494ZM20.733 8.62934C22.2964 8.80146 23.5697 10.2655 23.5321 12.6651L28.5315 12.7435C28.5942 8.74362 26.2767 4.20945 21.2801 3.65937L20.733 8.62934ZM23.5318 12.7094L23.5619 27.3038L28.5619 27.2935L28.5318 12.6991L23.5318 12.7094Z" fill="#DD552D" mask="url(#path-16-outside-2_3542_3009)"/>
<path d="M11.347 31.8324C12.4771 31.8324 13.3932 30.9163 13.3932 29.7862C13.3932 28.6561 12.4771 27.74 11.347 27.74C10.2169 27.74 9.30078 28.6561 9.30078 29.7862C9.30078 30.9163 10.2169 31.8324 11.347 31.8324Z" stroke="#DD552D" stroke-width="2" stroke-miterlimit="10"/>
<path d="M11.939 38.1313C11.939 38.1313 18.2983 38.5626 20.2342 32.7449" stroke="#DD552D" stroke-width="2" stroke-miterlimit="10" stroke-linecap="round"/>
<path d="M8.38818 24.5001C8.38818 24.5001 10.7554 25.1922 12.7013 22.3736" stroke="#DD552D" stroke-width="2" stroke-miterlimit="10" stroke-linecap="round"/>
<path d="M11.4375 23.7277C11.4375 23.7277 13.7445 24.0386 14.3162 25.9544" stroke="#DD552D" stroke-width="2" stroke-miterlimit="10" stroke-linecap="round"/>
<path d="M27.1525 39.7889C27.1525 39.7889 26.0491 44.3327 22.8394 44.5935" stroke="#DD552D" stroke-width="2" stroke-miterlimit="10" stroke-linecap="round"/>
<path d="M17.6665 36.9378C17.6665 36.9378 20.2343 37.4493 19.6927 41.2108" stroke="#DD552D" stroke-width="2" stroke-miterlimit="10" stroke-linecap="round"/>
<path d="M14.0562 12.3176C14.0562 12.3176 18.2308 13.378 18.7944 17.0559" stroke="#DD552D" stroke-width="2" stroke-miterlimit="10" stroke-linecap="round"/>
<path d="M14.0562 17.8456C14.0562 17.8456 15.3275 22.8004 20.3739 21.6093" stroke="#DD552D" stroke-width="2" stroke-miterlimit="10" stroke-linecap="round"/>
<path d="M199.231 42.4807L211.081 19.7288L216.057 10.7447L211.903 3.32768C210.896 1.52907 208.294 1.56497 207.337 3.3923L187.374 41.5688C186.495 43.2508 187.716 45.263 189.611 45.263H207.594V43.6026L196.262 43.6528V42.5561L199.229 42.4807H199.231ZM190.252 39.1222H191.857V40.727H190.252V39.1222ZM192.742 43.1502H191.571V41.9799H192.742V43.1502ZM195.45 41.5275H193.846V39.9228H195.45V41.5275Z" fill="url(#paint0_linear_3542_3009)"/>
<path d="M232.234 42.1725L216.057 10.7452L209.583 22.2118L216.896 36.5469H220.504V37.7118L208.969 37.8249V39.7007H218.459L221.385 45.4107H230.258C231.922 45.4107 232.995 43.6498 232.234 42.1725ZM223.756 38.2809H222.151V36.6761H223.756V38.2809ZM224.341 34.9942H223.171V33.8238H224.341V34.9942ZM226.824 38.017H225.219V36.4123H226.824V38.017Z" fill="url(#paint1_linear_3542_3009)"/>
<path d="M207.786 40.2893C208.633 40.2893 209.319 39.603 209.319 38.7564C209.319 37.9097 208.633 37.2234 207.786 37.2234C206.939 37.2234 206.253 37.9097 206.253 38.7564C206.253 39.603 206.939 40.2893 207.786 40.2893Z" stroke="#E26A1A" stroke-miterlimit="10"/>
<path d="M209.222 45.8533C210.069 45.8533 210.755 45.1669 210.755 44.3203C210.755 43.4737 210.069 42.7874 209.222 42.7874C208.376 42.7874 207.689 43.4737 207.689 44.3203C207.689 45.1669 208.376 45.8533 209.222 45.8533Z" stroke="#E26A1A" stroke-miterlimit="10"/>
<path d="M241.821 12.0672H249.409V43.1538C249.409 44.2337 248.352 45.1098 247.049 45.1098H241.821V12.0672Z" fill="url(#paint2_linear_3542_3009)"/>
<path d="M245.541 12.0675C248.321 12.0675 250.574 9.8138 250.574 7.03374C250.574 4.25368 248.321 2 245.541 2C242.761 2 240.507 4.25368 240.507 7.03374C240.507 9.8138 242.761 12.0675 245.541 12.0675Z" stroke="url(#paint3_linear_3542_3009)" stroke-width="3" stroke-miterlimit="10"/>
<path d="M84.0559 6.56807V33.344C84.0559 34.5153 84.665 35.1243 85.8831 35.1712H110.48C111.371 35.1243 112.144 34.7495 112.8 34.0467C113.455 33.2971 113.924 32.4538 114.205 31.5167C114.533 30.5329 114.697 29.549 114.697 28.5651C114.697 27.628 114.533 26.691 114.205 25.754C113.924 24.7701 113.455 23.9267 112.8 23.2239C112.144 22.4743 111.371 22.0995 110.48 22.0995H92.4892C91.1774 22.0995 90.0529 21.6544 89.1159 20.7642C88.2257 19.8272 87.7806 18.7027 87.7806 17.3909C87.7806 16.079 88.2491 14.978 89.1862 14.0878C90.0764 13.1508 91.1774 12.6823 92.4892 12.6823H110.199C113.479 12.7291 116.173 13.6661 118.281 15.4934C120.436 17.2737 121.959 19.3118 122.849 21.6075C123.786 23.8564 124.255 26.199 124.255 28.6353C124.255 30.9779 123.786 33.2971 122.849 35.5929C121.912 37.8418 120.39 39.8798 118.281 41.707C116.173 43.4874 113.057 44.4479 108.934 44.5884H79.4175C78.1057 44.5884 76.9812 44.1668 76.0442 43.3234C75.1072 42.4333 74.6152 41.3322 74.5684 40.0204V6.56807C74.5684 5.25621 75.0369 4.17862 75.9739 3.33528C76.9578 2.44509 78.1057 2 79.4175 2C82.2287 2.23426 83.7748 3.75695 84.0559 6.56807Z" fill="#06478D"/>
<path d="M135.839 21.5373C136.73 19.2884 138.229 17.2737 140.337 15.4934C142.492 13.6661 145.21 12.7291 148.49 12.6823H174.914C176.226 12.6823 177.327 13.1508 178.217 14.0878C179.154 14.978 179.623 16.079 179.623 17.3909C179.623 18.7027 179.154 19.8272 178.217 20.7642C177.327 21.6544 176.226 22.0995 174.914 22.0995H148.208C147.318 22.0995 146.545 22.4743 145.889 23.2239C145.233 23.9267 144.718 24.7701 144.343 25.754C144.015 26.7378 143.851 27.6749 143.851 28.5651V40.8637C143.57 43.6748 142.024 45.1975 139.213 45.4318C137.901 45.4318 136.753 45.0101 135.769 44.1668C134.832 43.2766 134.364 42.1756 134.364 40.8637V28.6353H134.434C134.434 26.199 134.902 23.833 135.839 21.5373Z" fill="#06478D"/>
<path d="M292.455 11.6281C294.892 11.6281 297.281 11.9092 299.624 12.4714C302.013 13.0336 304.285 13.877 306.441 15.0014C308.596 16.079 310.493 17.5314 312.133 19.3587C313.82 21.1859 314.733 23.3645 314.874 25.8945V40.8637C314.593 43.6748 313.047 45.1975 310.236 45.4318C308.924 45.4318 307.776 45.0101 306.792 44.1668C305.855 43.2766 305.386 42.1756 305.386 40.8637V28.0731C305.293 26.6207 304.731 25.426 303.7 24.4889C302.716 23.5051 301.591 22.732 300.326 22.1698C299.108 21.6075 297.82 21.1859 296.461 20.9048C295.149 20.6237 293.814 20.4831 292.455 20.4831C291.097 20.4831 289.738 20.6237 288.379 20.9048C287.067 21.1859 285.779 21.6075 284.514 22.1698C283.296 22.732 282.171 23.5051 281.141 24.4889C280.157 25.426 279.618 26.6207 279.524 28.0731V40.8637C279.29 43.6748 277.767 45.1975 274.956 45.4318C273.644 45.4318 272.496 45.0101 271.513 44.1668C270.575 43.2766 270.107 42.1756 270.107 40.8637V25.8945C270.247 23.3645 271.138 21.1859 272.778 19.3587C274.417 17.5314 276.315 16.079 278.47 15.0014C280.625 13.877 282.874 13.0336 285.217 12.4714C287.606 11.9092 290.019 11.6281 292.455 11.6281Z" fill="#06478D"/>
<path d="M409.446 16.7584C409.446 17.9297 408.977 18.9136 408.04 19.71C407.15 20.4597 406.049 20.8345 404.737 20.8345H375.009C374.4 20.8345 373.908 20.9516 373.534 21.1859C373.159 21.4201 372.878 21.6778 372.69 21.9589C372.503 22.1932 372.409 22.404 372.409 22.5914C372.409 22.8257 372.503 23.0834 372.69 23.3645C372.878 23.5988 373.159 23.833 373.534 24.0673C373.908 24.2547 374.4 24.3718 375.009 24.4187H397.99C400.942 24.4655 403.378 25.0512 405.299 26.1756C407.22 27.2532 408.579 28.5416 409.375 30.0409C410.219 31.4933 410.64 32.9692 410.64 34.4684C410.64 35.9208 410.219 37.3967 409.375 38.8959C408.532 40.3483 407.15 41.6368 405.229 42.7612C403.355 43.8388 400.942 44.3776 397.99 44.3776C397.475 44.4245 397.1 44.4479 396.866 44.4479H369.598C368.286 44.4479 367.162 44.0731 366.225 43.3234C365.335 42.527 364.889 41.5665 364.889 40.442C364.889 39.2707 365.358 38.2869 366.295 37.4904C367.185 36.7407 368.286 36.3659 369.598 36.3659H398.553C399.255 36.4128 399.818 36.3191 400.239 36.0848C400.708 35.8506 401.059 35.5929 401.293 35.3118C401.528 35.0306 401.645 34.7495 401.645 34.4684C401.645 34.3279 401.528 34.0936 401.293 33.7656C401.059 33.3908 400.708 33.1097 400.239 32.9223C399.818 32.688 399.255 32.5475 398.553 32.5006H375.501C372.784 32.4538 370.535 31.8916 368.755 30.814C366.974 29.6895 365.709 28.4011 364.96 26.9487C364.21 25.4963 363.835 24.0439 363.835 22.5914C363.835 21.139 364.21 19.71 364.96 18.3045C365.756 16.8521 367.021 15.6105 368.755 14.5798C370.535 13.5022 372.784 12.9165 375.501 12.8228C375.97 12.776 376.321 12.7525 376.556 12.7525H404.737C406.049 12.7525 407.15 13.1508 408.04 13.9473C408.977 14.6969 409.446 15.6339 409.446 16.7584Z" fill="#06478D"/>
<path d="M430.448 50.7026C430.166 53.5137 428.62 55.0364 425.809 55.2707C424.497 55.2707 423.349 54.8256 422.366 53.9354C421.428 53.0921 420.96 52.0145 420.96 50.7026V17.2503C421.007 15.9385 421.499 14.8609 422.436 14.0175C423.373 13.1273 424.497 12.6823 425.809 12.6823H455.326C459.449 12.8228 462.565 13.8067 464.673 15.6339C466.781 17.4143 468.304 19.4524 469.241 21.7481C470.178 23.997 470.646 26.2927 470.646 28.6353C470.646 31.0716 470.178 33.4377 469.241 35.7334C468.351 37.9823 466.828 40.0204 464.673 41.8476C462.565 43.628 459.871 44.5416 456.591 44.5884H438.881C437.569 44.5884 436.468 44.1199 435.578 43.1829C434.641 42.2927 434.172 41.1917 434.172 39.8798C434.172 38.568 434.617 37.4669 435.508 36.5768C436.445 35.6397 437.569 35.1712 438.881 35.1712H456.872C457.762 35.1712 458.535 34.8198 459.191 34.117C459.847 33.3674 460.316 32.5241 460.597 31.587C460.925 30.6031 461.089 29.6427 461.089 28.7056C461.089 27.7217 460.925 26.7613 460.597 25.8242C460.316 24.8403 459.847 23.997 459.191 23.2942C458.535 22.5446 457.762 22.1463 456.872 22.0995H432.275C431.057 22.1463 430.448 22.7554 430.448 23.9267V50.7026Z" fill="#06478D"/>
<path d="M521.025 40.8637V23.9267C521.025 22.7554 520.415 22.1463 519.197 22.0995H494.6C493.71 22.1463 492.937 22.5446 492.281 23.2942C491.625 23.997 491.133 24.8403 490.805 25.8242C490.524 26.7613 490.383 27.7217 490.383 28.7056C490.383 29.6427 490.524 30.6031 490.805 31.587C491.133 32.5241 491.625 33.3674 492.281 34.117C492.937 34.8198 493.71 35.1712 494.6 35.1712H512.591C513.903 35.1712 515.004 35.6397 515.894 36.5768C516.831 37.4669 517.3 38.568 517.3 39.8798C517.3 41.1917 516.831 42.2927 515.894 43.1829C515.004 44.1199 513.903 44.5884 512.591 44.5884H494.881C491.602 44.5416 488.884 43.628 486.729 41.8476C484.621 40.0204 483.098 37.9823 482.161 35.7334C481.271 33.4377 480.826 31.0716 480.826 28.6353C480.826 26.2927 481.294 23.997 482.231 21.7481C483.168 19.4524 484.691 17.4143 486.799 15.6339C488.908 13.8067 492.023 12.8228 496.146 12.6823H525.663C526.975 12.6823 528.099 13.1273 529.036 14.0175C529.973 14.8609 530.465 15.9385 530.512 17.2503V40.8637C530.512 42.1756 530.02 43.2766 529.036 44.1668C528.099 45.0101 526.975 45.4318 525.663 45.4318C522.852 45.1975 521.306 43.6748 521.025 40.8637Z" fill="#06478D"/>
<path d="M543.573 21.5373C544.463 19.2884 545.962 17.2737 548.07 15.4934C550.226 13.6661 552.943 12.7291 556.223 12.6823H582.647C583.959 12.6823 585.06 13.1508 585.95 14.0878C586.887 14.978 587.356 16.079 587.356 17.3909C587.356 18.7027 586.887 19.8272 585.95 20.7642C585.06 21.6544 583.959 22.0995 582.647 22.0995H555.941C555.051 22.0995 554.278 22.4743 553.622 23.2239C552.966 23.9267 552.451 24.7701 552.076 25.754C551.748 26.7378 551.584 27.6749 551.584 28.5651V40.8637C551.303 43.6748 549.757 45.1975 546.946 45.4318C545.634 45.4318 544.486 45.0101 543.502 44.1668C542.565 43.2766 542.097 42.1756 542.097 40.8637V28.6353H542.167C542.167 26.199 542.635 23.833 543.573 21.5373Z" fill="#06478D"/>
<path d="M601.681 2C602.946 2.04685 604.024 2.51537 604.914 3.40556C605.804 4.24889 606.273 5.30306 606.32 6.56807V41.0043C606.038 43.8154 604.492 45.3381 601.681 45.5723C600.369 45.5723 599.221 45.1507 598.238 44.3073C597.3 43.4171 596.832 42.3161 596.832 41.0043V6.56807C596.879 5.25621 597.371 4.17862 598.308 3.33528C599.245 2.44509 600.369 2 601.681 2ZM610.606 21.6075C611.965 19.4055 614.565 17.7891 618.407 16.7584L636.469 11.9092C637.734 11.5344 638.928 11.6515 640.053 12.2606C641.224 12.8228 641.997 13.7364 642.372 15.0014C642.794 16.2196 642.7 17.4143 642.091 18.5856C641.529 19.71 640.615 20.4831 639.35 20.9048L620.094 25.8945C618.735 26.4099 618.079 27.3001 618.126 28.5651C618.079 29.8301 618.735 30.7203 620.094 31.2356L639.35 36.2254C640.615 36.647 641.529 37.4435 642.091 38.6148C642.7 39.7393 642.794 40.9106 642.372 42.1287C641.997 43.3937 641.224 44.3073 640.053 44.8696C638.928 45.4786 637.734 45.5958 636.469 45.2209L618.407 40.3718C614.519 39.2942 611.895 37.6544 610.536 35.4523C609.224 33.2503 608.568 30.9545 608.568 28.5651C608.568 26.1756 609.248 23.8564 610.606 21.6075Z" fill="#06478D"/>
<defs>
<linearGradient id="paint0_linear_3542_3009" x1="210.428" y1="13.466" x2="198.931" y2="40.061" gradientUnits="userSpaceOnUse">
<stop stop-color="#F86F26"/>
<stop offset="1" stop-color="#E35A2C"/>
</linearGradient>
<linearGradient id="paint1_linear_3542_3009" x1="208.969" y1="28.078" x2="232.484" y2="28.078" gradientUnits="userSpaceOnUse">
<stop stop-color="#E35A2C"/>
<stop offset="0.88" stop-color="#F86F26"/>
</linearGradient>
<linearGradient id="paint2_linear_3542_3009" x1="253.312" y1="41.9198" x2="235.181" y2="-8.98057" gradientUnits="userSpaceOnUse">
<stop stop-color="#DD552D"/>
<stop offset="1" stop-color="#F86F26"/>
</linearGradient>
<linearGradient id="paint3_linear_3542_3009" x1="245.539" y1="0.716291" x2="245.539" y2="13.3528" gradientUnits="userSpaceOnUse">
<stop stop-color="#E35A2C"/>
<stop offset="1" stop-color="#F86F26"/>
</linearGradient>
</defs>
</svg>
