<svg width="40" height="40" viewBox="0 0 40 40" fill="none" xmlns="http://www.w3.org/2000/svg">
<circle cx="20" cy="20" r="20" fill="#EBF4FE"/>
<g clip-path="url(#clip0_3094_3832)">
<path d="M26.5621 12C25.2181 12 24.1246 13.0935 24.1246 14.4375C24.1246 14.8365 24.2229 15.2126 24.3939 15.5453L22.3355 17.6036C21.6706 17.145 20.8666 16.875 19.9996 16.875C19.28 16.875 18.6031 17.0614 18.0136 17.3865L17.2325 16.4321C17.5569 15.9735 17.7496 15.4155 17.7496 14.8125C17.7496 13.2615 16.4881 12 14.9371 12C13.3861 12 12.1246 13.2615 12.1246 14.8125C12.1246 16.3635 13.3861 17.625 14.9371 17.625C15.3414 17.625 15.725 17.5376 16.073 17.3835L16.8541 18.3379C16.2444 19.0571 15.875 19.9856 15.875 21C15.875 21.6244 16.0183 22.2142 16.2676 22.7452L14.8865 23.7323C14.4808 23.4307 13.9805 23.25 13.4375 23.25C12.0935 23.25 11 24.3435 11 25.6875C11 27.0315 12.0935 28.125 13.4375 28.125C14.7815 28.125 15.875 27.0315 15.875 25.6875C15.875 25.431 15.8345 25.1835 15.7606 24.951L17.1395 23.9655C17.882 24.6818 18.8893 25.125 20 25.125C20.7196 25.125 21.3965 24.9386 21.986 24.6135L22.7671 25.5679C22.4428 26.0265 22.25 26.5845 22.25 27.1875C22.25 28.7385 23.5115 30 25.0625 30C26.6135 30 27.875 28.7385 27.875 27.1875C27.875 25.6365 26.6135 24.375 25.0625 24.375C24.6583 24.375 24.2746 24.4624 23.9266 24.6165L23.1455 23.6621C23.7553 22.9429 24.1246 22.0144 24.1246 21C24.1246 20.133 23.8546 19.329 23.396 18.6641L25.4544 16.6058C25.7874 16.7764 26.1631 16.875 26.5621 16.875C27.9061 16.875 28.9996 15.7815 28.9996 14.4375C28.9996 13.0935 27.9061 12 26.5621 12ZM13.6246 14.8125C13.6246 14.0888 14.2134 13.5 14.9371 13.5C15.6609 13.5 16.2496 14.0888 16.2496 14.8125C16.2496 15.5362 15.6609 16.125 14.9371 16.125C14.2134 16.125 13.6246 15.5362 13.6246 14.8125ZM13.4371 26.625C12.92 26.625 12.4996 26.2046 12.4996 25.6875C12.4996 25.1704 12.92 24.75 13.4371 24.75C13.9543 24.75 14.3746 25.1704 14.3746 25.6875C14.3746 26.2046 13.9543 26.625 13.4371 26.625ZM17.3746 21C17.3746 19.5529 18.5525 18.375 19.9996 18.375C21.4468 18.375 22.6246 19.5529 22.6246 21C22.6246 22.4471 21.4468 23.625 19.9996 23.625C18.5525 23.625 17.3746 22.4471 17.3746 21ZM26.3746 27.1875C26.3746 27.9113 25.7859 28.5 25.0621 28.5C24.3384 28.5 23.7496 27.9113 23.7496 27.1875C23.7496 26.4637 24.3384 25.875 25.0621 25.875C25.7859 25.875 26.3746 26.4637 26.3746 27.1875ZM26.5621 15.375C26.045 15.375 25.6246 14.9546 25.6246 14.4375C25.6246 13.9204 26.045 13.5 26.5621 13.5C27.0793 13.5 27.4996 13.9204 27.4996 14.4375C27.4996 14.9546 27.0793 15.375 26.5621 15.375Z" fill="#0D82FF"/>
</g>
<defs>
<clipPath id="clip0_3094_3832">
<rect width="24" height="24" fill="white" transform="translate(8 9)"/>
</clipPath>
</defs>
</svg>
