<svg width="19" height="18" viewBox="0 0 19 18" fill="none" xmlns="http://www.w3.org/2000/svg">
<path d="M5.736 3C5.736 2.60218 5.89973 2.22064 6.19117 1.93934C6.48262 1.65804 6.8779 1.5 7.29006 1.5H11.9523C12.3644 1.5 12.7597 1.65804 13.0512 1.93934C13.3426 2.22064 13.5063 2.60218 13.5063 3V4.5H16.6145C16.8205 4.5 17.0182 4.57902 17.1639 4.71967C17.3096 4.86032 17.3915 5.05109 17.3915 5.25C17.3915 5.44891 17.3096 5.63968 17.1639 5.78033C17.0182 5.92098 16.8205 6 16.6145 6H15.7838L15.1101 15.1065C15.0822 15.4849 14.9068 15.8391 14.6191 16.0977C14.3315 16.3563 13.953 16.5 13.5599 16.5H5.6816C5.28853 16.5 4.91006 16.3563 4.62242 16.0977C4.33477 15.8391 4.15933 15.4849 4.13142 15.1065L3.45929 6H2.62786C2.42178 6 2.22414 5.92098 2.07842 5.78033C1.9327 5.63968 1.85083 5.44891 1.85083 5.25C1.85083 5.05109 1.9327 4.86032 2.07842 4.71967C2.22414 4.57902 2.42178 4.5 2.62786 4.5H5.736V3ZM7.29006 4.5H11.9523V3H7.29006V4.5ZM5.01646 6L5.68238 15H13.5607L14.2266 6H5.01646ZM8.0671 7.5C8.27318 7.5 8.47082 7.57902 8.61654 7.71967C8.76226 7.86032 8.84413 8.05109 8.84413 8.25V12.75C8.84413 12.9489 8.76226 13.1397 8.61654 13.2803C8.47082 13.421 8.27318 13.5 8.0671 13.5C7.86101 13.5 7.66337 13.421 7.51765 13.2803C7.37193 13.1397 7.29006 12.9489 7.29006 12.75V8.25C7.29006 8.05109 7.37193 7.86032 7.51765 7.71967C7.66337 7.57902 7.86101 7.5 8.0671 7.5ZM11.1752 7.5C11.3813 7.5 11.579 7.57902 11.7247 7.71967C11.8704 7.86032 11.9523 8.05109 11.9523 8.25V12.75C11.9523 12.9489 11.8704 13.1397 11.7247 13.2803C11.579 13.421 11.3813 13.5 11.1752 13.5C10.9691 13.5 10.7715 13.421 10.6258 13.2803C10.4801 13.1397 10.3982 12.9489 10.3982 12.75V8.25C10.3982 8.05109 10.4801 7.86032 10.6258 7.71967C10.7715 7.57902 10.9691 7.5 11.1752 7.5Z" fill="#72777F"/>
</svg>
