<svg width="25" height="25" viewBox="0 0 25 25" fill="none" xmlns="http://www.w3.org/2000/svg">
<mask id="mask0_244_177" style="mask-type:alpha" maskUnits="userSpaceOnUse" x="0" y="0" width="25" height="25">
<rect x="0.172852" y="0.0153809" width="24" height="24" fill="#D9D9D9"/>
</mask>
<g mask="url(#mask0_244_177)">
<path d="M12.1729 14.0154C11.3395 14.0154 10.6312 13.7237 10.0479 13.1404C9.46452 12.557 9.17285 11.8487 9.17285 11.0154V5.01538C9.17285 4.18205 9.46452 3.47371 10.0479 2.89038C10.6312 2.30705 11.3395 2.01538 12.1729 2.01538C13.0062 2.01538 13.7145 2.30705 14.2979 2.89038C14.8812 3.47371 15.1729 4.18205 15.1729 5.01538V11.0154C15.1729 11.8487 14.8812 12.557 14.2979 13.1404C13.7145 13.7237 13.0062 14.0154 12.1729 14.0154ZM11.1729 21.0154V17.9404C9.43952 17.707 8.00619 16.932 6.87285 15.6154C5.73952 14.2987 5.17285 12.7654 5.17285 11.0154H7.17285C7.17285 12.3987 7.66035 13.5779 8.63535 14.5529C9.61035 15.5279 10.7895 16.0154 12.1729 16.0154C13.5562 16.0154 14.7354 15.5279 15.7104 14.5529C16.6854 13.5779 17.1729 12.3987 17.1729 11.0154H19.1729C19.1729 12.7654 18.6062 14.2987 17.4729 15.6154C16.3395 16.932 14.9062 17.707 13.1729 17.9404V21.0154H11.1729ZM12.1729 12.0154C12.4562 12.0154 12.6937 11.9195 12.8854 11.7279C13.077 11.5362 13.1729 11.2987 13.1729 11.0154V5.01538C13.1729 4.73205 13.077 4.49455 12.8854 4.30288C12.6937 4.11121 12.4562 4.01538 12.1729 4.01538C11.8895 4.01538 11.652 4.11121 11.4604 4.30288C11.2687 4.49455 11.1729 4.73205 11.1729 5.01538V11.0154C11.1729 11.2987 11.2687 11.5362 11.4604 11.7279C11.652 11.9195 11.8895 12.0154 12.1729 12.0154Z" fill="#919191"/>
</g>
</svg>
