<svg width="880" height="191" viewBox="0 0 880 191" fill="none" xmlns="http://www.w3.org/2000/svg">
<path d="M782.748 15.9789C768.503 11.049 751.204 14.9989 741.632 26.6378C735.452 34.1405 732.824 43.8387 729.319 52.8958C725.814 61.953 720.659 71.2336 711.837 75.3108C705.17 78.3901 697.484 77.9938 690.307 79.5386C674.595 82.9256 661.64 96.6261 659.144 112.506C656.648 128.385 664.758 145.399 678.675 153.443C692.591 161.488 708.873 160.391 724.813 152.14L776.722 125.697C788.972 116.919 799.724 105.72 806.461 92.2438C813.198 78.7673 815.677 62.9001 811.74 48.3509C807.804 33.8017 796.98 20.9151 782.748 15.9789Z" fill="#F3F9FF"/>
<path d="M767.336 73.0584C766.233 55.4686 775.806 43.6045 781.893 60.1447C785.775 70.6957 788.88 83.9397 790.625 100.56C799.01 180.438 827.253 186.691 827.253 186.691C827.253 186.691 818.173 184.058 812.399 182.916C808.557 182.156 809.894 185.671 805.03 184.928C799.072 184.018 797.12 186.652 791.678 186.465C788.077 186.342 785.909 186.139 783.204 185.716C778.784 185.025 773.979 186.319 769.595 185.435C764.006 184.308 757.685 179.735 755.095 175.33C752.898 171.592 756.126 168.963 755.349 164.663C754.038 157.408 769.78 112.03 767.336 73.0584Z" fill="#DC433E"/>
<path d="M784.738 110.524C784.738 110.524 786.455 155.066 807.8 170.05C807.8 170.05 781.265 158.938 784.738 110.524Z" fill="#C73632"/>
<path d="M759.89 121.235C759.89 121.235 761.607 165.777 782.952 180.761C782.952 180.761 756.416 169.649 759.89 121.235Z" fill="#C73632"/>
<path d="M781.363 147.578C781.363 147.578 765.925 126.384 773.779 98.6057C776.433 72.7738 760.961 54.327 752.644 48.0791C752.644 48.0791 782.632 59.5012 771.672 95.8016C760.713 132.102 781.363 147.582 781.363 147.582L781.363 147.578Z" fill="#C73632"/>
<path d="M880 188.347C880 188.412 683 188.467 440.02 188.467C197.04 188.467 0 188.412 0 188.347C0 188.282 196.973 188.227 440.02 188.227C683.067 188.227 880 188.282 880 188.347Z" fill="#263238"/>
<path d="M721.271 171C721.094 171.194 720.9 171.372 720.692 171.533C720.498 171.695 720.266 171.894 720.012 172.149C719.757 172.404 719.442 172.663 719.141 172.996C718.84 173.33 718.483 173.673 718.14 174.08C717.797 174.488 717.445 174.923 717.079 175.391C715.52 177.454 714.304 179.755 713.48 182.205C713.299 182.775 713.119 183.312 713.017 183.827C712.915 184.341 712.776 184.818 712.683 185.262C712.591 185.707 712.535 186.106 712.475 186.458C712.415 186.81 712.378 187.115 712.354 187.384C712.336 187.646 712.299 187.906 712.243 188.162C712.221 187.9 712.221 187.637 712.243 187.375C712.243 187.12 712.276 186.81 712.322 186.448C712.368 186.087 712.405 185.684 712.498 185.239C712.591 184.795 712.669 184.313 712.808 183.785C712.947 183.257 713.096 182.719 713.272 182.145C713.687 180.91 714.197 179.708 714.796 178.55C715.412 177.403 716.117 176.305 716.903 175.266C717.283 174.803 717.631 174.34 717.996 173.955C718.362 173.571 718.696 173.2 719.025 172.885C719.354 172.57 719.655 172.297 719.923 172.056C720.192 171.815 720.433 171.621 720.637 171.468C720.836 171.296 721.048 171.14 721.271 171Z" fill="#263238"/>
<path d="M709.899 177.99C710.118 178.419 710.289 178.871 710.409 179.338C710.75 180.45 710.992 181.589 711.132 182.743C711.276 183.898 711.319 185.064 711.261 186.226C711.26 186.708 711.204 187.188 711.095 187.658C711.066 187.179 711.066 186.7 711.095 186.222C711.117 183.915 710.834 181.616 710.251 179.385C710.108 178.927 709.99 178.461 709.899 177.99Z" fill="#263238"/>
<path d="M707 181.557C707.292 181.772 707.549 182.029 707.764 182.321C708.317 183.001 708.777 183.752 709.131 184.554C709.483 185.354 709.725 186.199 709.849 187.064C709.925 187.42 709.941 187.787 709.895 188.148C709.691 186.951 709.36 185.778 708.908 184.651C708.381 183.556 707.741 182.519 707 181.557Z" fill="#263238"/>
<path d="M339.497 169.508C339.669 169.689 339.824 169.886 339.96 170.096C340.233 170.481 340.604 171.055 341.034 171.782C342.148 173.685 343.079 175.689 343.814 177.767C344.534 179.851 345.054 182 345.366 184.183C345.481 185.021 345.555 185.702 345.583 186.17C345.607 186.415 345.607 186.661 345.583 186.906C345.524 186.669 345.485 186.427 345.467 186.184C345.412 185.72 345.315 185.04 345.171 184.21C344.804 182.051 344.255 179.927 343.531 177.86C342.803 175.796 341.902 173.797 340.84 171.884C340.428 171.148 340.085 170.559 339.835 170.161C339.704 169.953 339.591 169.735 339.497 169.508Z" fill="#263238"/>
<path d="M348.118 177.059C348.133 177.557 348.113 178.055 348.058 178.55C348.007 179.477 347.951 180.741 347.956 182.14C347.96 183.539 348.03 184.813 348.095 185.73C348.152 186.225 348.177 186.723 348.169 187.222C348.041 186.739 347.959 186.246 347.923 185.749C347.658 183.352 347.645 180.935 347.886 178.536C347.914 178.037 347.992 177.542 348.118 177.059Z" fill="#263238"/>
<path d="M352.796 177.738C352.654 178.212 352.481 178.677 352.278 179.128C351.939 179.98 351.495 181.166 351.064 182.496C350.633 183.825 350.309 185.043 350.082 185.933C349.986 186.42 349.856 186.9 349.693 187.369C349.721 186.872 349.795 186.379 349.915 185.896C350.162 184.722 350.471 183.562 350.842 182.421C351.207 181.279 351.636 180.158 352.125 179.063C352.304 178.6 352.529 178.156 352.796 177.738Z" fill="#263238"/>
<path d="M337.001 180.773C337.142 180.778 337.281 180.807 337.413 180.857C337.784 180.955 338.145 181.085 338.493 181.246C339.013 181.477 339.511 181.756 339.979 182.08C340.552 182.49 341.082 182.955 341.564 183.469C342.036 183.983 342.456 184.541 342.819 185.137C343.111 185.626 343.358 186.141 343.555 186.675C343.693 187.033 343.8 187.401 343.875 187.777C343.916 187.912 343.934 188.053 343.931 188.194C343.889 188.194 343.764 187.62 343.398 186.74C343.182 186.224 342.925 185.727 342.629 185.253C342.262 184.677 341.845 184.134 341.383 183.631C340.914 183.138 340.401 182.688 339.85 182.288C339.389 181.953 338.901 181.657 338.391 181.403C337.552 180.977 336.973 180.815 337.001 180.773Z" fill="#263238"/>
<path d="M827.889 180.192C821.076 175.972 819.121 167.546 818.959 159.885C818.935 158.606 818.718 157.268 819.264 156.114C819.811 154.961 821.187 154.118 822.359 154.59C823.331 154.984 823.804 156.068 824.383 156.948C825.159 158.126 826.253 159.061 827.537 159.644C828.371 160.019 829.39 160.223 830.169 159.737C831.239 159.07 831.285 157.541 831.206 156.272C831.064 153.906 830.919 151.541 830.771 149.175C830.625 147.909 830.684 146.628 830.947 145.381C831.276 144.159 832.086 142.991 833.263 142.602C834.439 142.213 835.982 142.811 836.306 144.043C836.383 144.566 836.425 145.094 836.431 145.622C836.436 145.886 836.52 146.142 836.67 146.358C836.821 146.574 837.033 146.74 837.279 146.836C837.793 146.956 838.284 146.567 838.641 146.174C839.882 144.821 840.679 143.121 841.42 141.435C842.161 139.749 842.875 138.021 843.986 136.557C845.098 135.093 846.682 133.894 848.498 133.69C850.314 133.486 852.31 134.505 852.866 136.265C853.422 138.026 852.482 139.902 851.426 141.412C849.857 143.652 847.974 145.655 845.835 147.359C845.417 147.626 845.094 148.016 844.908 148.476C844.681 149.337 845.529 150.134 846.377 150.366C847.34 150.63 848.364 150.477 849.36 150.537C850.356 150.597 851.453 150.977 851.88 151.894C852.468 153.164 851.458 154.581 850.439 155.531C848.401 157.433 846.051 158.971 843.491 160.075C842.564 160.468 841.61 160.821 840.897 161.52C840.183 162.219 839.785 163.373 840.29 164.253C840.795 165.133 841.976 165.342 842.944 165.11C843.912 164.878 844.76 164.295 845.672 163.892C847.382 163.137 849.642 163.132 850.842 164.577C851.206 165.074 851.452 165.647 851.559 166.254C851.667 166.86 851.634 167.483 851.463 168.075C851.104 169.262 850.508 170.365 849.712 171.317C847.13 174.792 843.673 177.519 839.692 179.22C835.722 180.845 831.994 181.429 827.889 180.178" fill="#B0DBA1"/>
<path d="M828.103 185.866C828.26 182.301 828.761 178.76 829.599 175.291C830.64 171.052 831.924 166.876 833.444 162.784C833.836 161.694 834.228 160.613 834.621 159.542C835.005 158.486 835.389 157.439 835.83 156.433C836.68 154.512 837.634 152.638 838.688 150.819C839.683 149.078 840.693 147.461 841.648 145.96C842.602 144.459 843.524 143.07 844.427 141.847C845.824 139.903 847.373 138.074 849.059 136.376C849.652 135.779 850.129 135.329 850.449 135.028L850.824 134.685L850.954 134.574C850.92 134.622 850.881 134.665 850.838 134.704L850.481 135.061C850.161 135.371 849.698 135.834 849.091 136.45C847.435 138.168 845.91 140.008 844.529 141.953C843.649 143.181 842.741 144.566 841.791 146.071C840.842 147.577 839.846 149.198 838.859 150.94C837.811 152.751 836.864 154.619 836.024 156.535C835.589 157.536 835.204 158.574 834.82 159.634C834.435 160.695 834.041 161.77 833.643 162.877C832.128 166.957 830.841 171.119 829.789 175.342C828.947 178.797 828.431 182.324 828.247 185.876" fill="#263238"/>
<path d="M835.898 156.452C835.827 156.279 835.776 156.099 835.745 155.914C835.657 155.567 835.551 155.062 835.426 154.432C835.176 153.181 834.893 151.435 834.587 149.513C834.282 147.59 833.971 145.853 833.703 144.607C833.573 143.982 833.457 143.477 833.378 143.13C833.324 142.952 833.289 142.769 833.276 142.583C833.359 142.75 833.422 142.926 833.466 143.106C833.573 143.449 833.712 143.95 833.865 144.57C834.175 145.812 834.509 147.549 834.791 149.476C835.074 151.403 835.361 153.093 835.565 154.404L835.81 155.896C835.858 156.078 835.887 156.264 835.898 156.452Z" fill="#263238"/>
<path d="M852.051 152.501C851.841 152.561 851.625 152.6 851.407 152.617C850.99 152.677 850.383 152.761 849.642 152.89C848.155 153.131 846.117 153.539 843.884 154.09C841.652 154.641 839.655 155.229 838.219 155.693C837.501 155.924 836.927 156.124 836.524 156.258C836.321 156.341 836.112 156.406 835.898 156.452C836.086 156.336 836.286 156.243 836.496 156.174C836.885 156.008 837.455 155.785 838.168 155.535C839.59 155.03 841.591 154.414 843.829 153.858C845.738 153.38 847.67 153.001 849.619 152.723C850.365 152.617 850.976 152.557 851.398 152.524C851.614 152.499 851.833 152.491 852.051 152.501Z" fill="#263238"/>
<path d="M829.784 174.981C829.734 174.922 829.692 174.857 829.659 174.787L829.349 174.212C829.08 173.712 828.714 172.976 828.269 172.063C827.375 170.238 826.226 167.676 824.994 164.832C823.762 161.988 822.637 159.417 821.789 157.574L820.774 155.392C820.663 155.156 820.575 154.961 820.501 154.799C820.464 154.732 820.438 154.661 820.422 154.586C820.47 154.644 820.51 154.708 820.543 154.776L820.853 155.35C821.122 155.851 821.492 156.587 821.937 157.5C822.826 159.329 823.975 161.891 825.207 164.735C826.44 167.579 827.565 170.15 828.418 171.989L829.432 174.171C829.539 174.407 829.631 174.606 829.705 174.764C829.741 174.833 829.767 174.906 829.784 174.981Z" fill="#263238"/>
<path d="M851.093 166.796C851.026 166.838 850.955 166.872 850.88 166.898L850.264 167.143L847.98 168.023C846.053 168.769 843.408 169.825 840.481 170.997C837.553 172.169 834.894 173.207 832.953 173.911C831.981 174.263 831.193 174.541 830.637 174.722L830.007 174.925C829.933 174.951 829.857 174.969 829.78 174.981C829.844 174.937 829.915 174.903 829.989 174.879L830.609 174.634L832.888 173.753C834.815 173.008 837.465 171.952 840.393 170.78C843.32 169.608 845.951 168.57 847.92 167.866C848.888 167.514 849.68 167.236 850.236 167.055L850.871 166.851C850.942 166.823 851.017 166.804 851.093 166.796Z" fill="#263238"/>
<path d="M366.62 176.19C366.069 176.982 364.999 176.718 364.498 176.236C364.043 175.707 363.733 175.068 363.6 174.383C363.164 172.864 362.72 171.27 363.049 169.723C363.126 169.254 363.331 168.815 363.641 168.454C363.799 168.276 364.001 168.144 364.226 168.069C364.451 167.994 364.692 167.98 364.925 168.028C365.184 168.133 365.418 168.293 365.611 168.496C365.804 168.699 365.952 168.94 366.046 169.204C366.761 170.693 367.137 172.323 367.143 173.975C367.194 174.746 367.012 175.515 366.62 176.18" fill="#B0DBA1"/>
<g opacity="0.2">
<path d="M366.792 176.19C366.241 176.982 365.171 176.718 364.67 176.236C364.214 175.707 363.905 175.068 363.772 174.383C363.336 172.864 362.892 171.27 363.22 169.723C363.298 169.254 363.503 168.815 363.813 168.454C363.971 168.276 364.173 168.144 364.398 168.069C364.623 167.994 364.864 167.98 365.096 168.028C365.356 168.133 365.59 168.293 365.783 168.496C365.976 168.699 366.124 168.94 366.217 169.204C366.933 170.693 367.308 172.323 367.315 173.975C367.366 174.746 367.184 175.515 366.792 176.18" fill="black"/>
</g>
<path d="M364.726 180.182C363.799 179.751 362.76 179.624 361.757 179.821C361.209 179.871 360.694 180.102 360.293 180.479C360.105 180.676 360 180.938 360 181.21C360 181.483 360.105 181.745 360.293 181.942C360.566 182.124 360.893 182.206 361.219 182.174C362.002 182.174 362.873 182.026 363.503 182.498C363.86 182.771 364.096 183.216 364.522 183.35C364.736 183.4 364.96 183.378 365.161 183.289C365.362 183.2 365.528 183.047 365.634 182.855C365.838 182.462 365.885 182.007 365.764 181.581C365.71 181.284 365.589 181.003 365.409 180.76C365.229 180.517 364.995 180.319 364.726 180.182Z" fill="#B0DBA1"/>
<path d="M368.312 177.325C368.026 176.956 367.834 176.522 367.753 176.062C367.672 175.602 367.705 175.129 367.849 174.684C368.152 173.798 368.694 173.013 369.414 172.415C370.224 171.687 371.168 171.126 372.194 170.761C372.594 170.601 373.023 170.529 373.453 170.548C373.668 170.561 373.877 170.626 374.061 170.737C374.245 170.848 374.399 171.003 374.51 171.187C374.806 171.752 374.51 172.433 374.218 172.989C373.675 173.963 373.055 174.892 372.365 175.768C371.861 176.52 371.161 177.119 370.341 177.501C369.502 177.825 368.627 177.783 368.182 177.204" fill="#B0DBA1"/>
<path d="M366.829 188.085C366.803 187.966 366.788 187.845 366.782 187.724C366.755 187.464 366.722 187.135 366.685 186.746C366.648 186.357 366.579 185.848 366.467 185.315C366.338 184.737 366.163 184.17 365.944 183.619C365.729 183.071 365.437 182.557 365.078 182.091C364.79 181.703 364.418 181.386 363.989 181.164C363.698 181.02 363.385 180.923 363.063 180.877C362.942 180.872 362.823 180.855 362.706 180.826C362.826 180.811 362.947 180.811 363.067 180.826C363.399 180.852 363.724 180.937 364.026 181.076C364.477 181.292 364.872 181.609 365.18 182.003C365.555 182.476 365.858 183.002 366.078 183.564C366.3 184.122 366.472 184.699 366.592 185.287C366.688 185.766 366.753 186.25 366.787 186.737C366.815 187.154 366.829 187.487 366.833 187.724C366.848 187.844 366.846 187.965 366.829 188.085Z" fill="#263238"/>
<path d="M366.764 187.329C366.757 187.274 366.757 187.218 366.764 187.163V186.699C366.764 186.287 366.764 185.69 366.741 184.953C366.708 183.475 366.579 181.442 366.333 179.205C366.088 176.967 365.759 174.957 365.462 173.512C365.393 173.15 365.319 172.821 365.254 172.539C365.189 172.256 365.133 172.006 365.082 171.807C365.031 171.608 364.999 171.464 364.971 171.344C364.956 171.291 364.946 171.237 364.943 171.182C364.968 171.23 364.987 171.281 364.999 171.334L365.138 171.798C365.198 171.992 365.263 172.238 365.332 172.525C365.402 172.812 365.485 173.132 365.564 173.493C365.975 175.376 366.284 177.279 366.491 179.195C366.736 181.437 366.847 183.475 366.856 184.953C366.856 185.694 366.856 186.292 366.829 186.704C366.829 186.899 366.829 187.056 366.801 187.167C366.793 187.222 366.781 187.277 366.764 187.329Z" fill="#263238"/>
<path d="M366.755 183.393C366.743 183.228 366.743 183.062 366.755 182.897C366.755 182.577 366.82 182.119 366.908 181.554C367.018 180.893 367.165 180.239 367.348 179.594C367.566 178.804 367.84 178.03 368.167 177.278C368.735 175.893 369.549 174.623 370.572 173.531C370.749 173.342 370.94 173.165 371.141 173.003C371.225 172.928 371.303 172.859 371.382 172.799L371.6 172.646C371.731 172.546 371.871 172.458 372.017 172.382C371.537 172.76 371.081 173.167 370.65 173.6C369.66 174.703 368.866 175.967 368.302 177.338C367.976 178.091 367.701 178.865 367.477 179.654C367.29 180.293 367.136 180.941 367.014 181.595C366.908 182.151 366.852 182.61 366.815 182.925C366.805 183.082 366.785 183.238 366.755 183.393Z" fill="#263238"/>
<path d="M723.67 5.27114C731.416 6.02794 731.848 10.6537 731.848 10.6537C732.381 3.9815 723.67 5.27114 723.67 5.27114Z" fill="#70493C"/>
<path d="M726.883 65.8019C726.883 65.8019 726.511 67.0712 725.862 67.5891C725.862 67.5891 728.218 67.3848 729.049 65.8676C729.881 64.3503 726.883 65.8019 726.883 65.8019Z" fill="#E5E5E5"/>
<path d="M723.054 62.0464L722.31 62.681C722.31 62.681 728.203 61.937 726.934 65.803L729.101 65.8687L730.326 64.3077L727.416 60.9668L723.054 62.0464Z" fill="#E5E5E5"/>
<path d="M746.163 174.103C746.163 174.103 751.188 177.138 756.28 175.263L753.771 172.987L746.163 174.111V174.103Z" fill="#002D44"/>
<path d="M731.231 183.556C731.231 183.556 730.953 185.723 732.93 185.847C734.907 185.971 757.585 185.336 757.585 185.336L757.367 181.478L738.613 182.105L735.381 181.988L732.741 182.543C732.741 182.543 731.515 182.739 731.245 183.571L731.231 183.556Z" fill="#D3D3D3"/>
<path d="M747.702 173.396L745.754 177.247L746.294 179.625L749.103 179.975L752.086 178.217L756.594 177.867L756.171 173.731L747.702 173.396Z" fill="#E3B396"/>
<path d="M731.785 182.886C731.785 182.886 732.536 181.902 734.747 181.588C736.957 181.274 745.71 177.882 746.345 175.869H747.527C747.527 175.869 746.542 177.999 746.425 178.634C746.308 179.268 747.213 180.406 748.832 178.911C750.452 177.416 750.685 177.058 750.685 177.058L756.564 177.292L757.593 182.617L731.8 182.894L731.785 182.886Z" fill="#6B4F47"/>
<path d="M760.205 175.883C762.433 175.883 764.239 175.556 764.239 175.153C764.239 174.75 762.433 174.424 760.205 174.424C757.977 174.424 756.171 174.75 756.171 175.153C756.171 175.556 757.977 175.883 760.205 175.883Z" fill="#002D44"/>
<path d="M756.805 174.533L757.243 179.151L759.986 180.362L761.328 179.421L762.531 177.444V173.396L756.805 174.533Z" fill="#E3B396"/>
<path d="M756.747 182.652L756.375 183.731C755.93 185.037 756.769 186.474 758.133 186.627C758.155 186.627 758.17 186.627 758.192 186.627C759.279 186.729 762.619 186.715 765.224 186.678C766.967 186.656 768.309 185.139 768.134 183.403C768.127 183.301 768.119 183.221 768.119 183.177C768.119 182.754 765.304 182.119 765.304 182.119L756.747 182.644V182.652Z" fill="#D3D3D3"/>
<path d="M757.061 176.875C757.061 176.875 758.33 176.138 758.155 178.881H758.542C758.542 178.881 758.082 175.635 760.125 175.635C762.167 175.635 762.59 175.919 763.327 178.137C764.064 180.354 768.083 182.12 768.119 183.177C768.156 184.235 762.203 184.446 759.176 184.235C756.149 184.023 756.324 182.929 756.324 182.929L757.061 176.868V176.875Z" fill="#6B4F47"/>
<path d="M742.136 25.7481L741.735 32.2985L744.769 31.0147L743.909 25.4053L742.136 25.7481Z" fill="#E5E5E5"/>
<path d="M730.918 34.3846L732.705 32.0723L736.352 36.5292L735.892 40.1399L729.984 37.6598L730.918 34.3846Z" fill="#C4C4C4"/>
<path d="M730.706 33.7939C730.706 33.7939 732.93 36.916 734.192 37.1421H735.797L734.411 37.5725L734.601 41.8252C734.601 41.8252 730.348 36.3543 730.698 33.7939H730.706Z" fill="#E5E5E5"/>
<path d="M399.012 186.115C399.573 185.255 399.188 184.01 398.151 183.334C397.115 182.659 395.821 182.809 395.26 183.67C394.699 184.531 395.084 185.776 396.12 186.451C397.157 187.126 398.451 186.976 399.012 186.115Z" fill="#161514"/>
<path d="M762.254 57.7559C762.254 57.7559 761.503 65.0941 764.917 64.5981C768.331 64.102 768.659 62.4754 768.659 62.4754L762.247 57.7559H762.254Z" fill="#EBC2A4"/>
<path d="M765.011 59.4854C766.193 62.4542 768.673 62.5053 768.673 62.5053C767.025 62.0457 765.011 59.4854 765.011 59.4854Z" fill="#CE957C"/>
<path d="M745.31 23.7129C745.31 23.7129 751.597 23.939 753.231 24.0411C754.865 24.1433 760.387 25.7991 761.868 27.258C763.349 28.7169 776.566 39.2866 776.566 39.2866C776.566 39.2866 782.847 43.0724 783.117 44.4948C783.387 45.9172 784.517 49.0247 780.454 52.0373C776.391 55.0499 771.256 62.4246 771.256 62.4246C771.256 62.4246 768.623 63.0082 767.499 62.0307C766.376 61.0532 765.056 60.0466 764.56 58.3251C764.56 58.3251 769.848 51.2787 772.117 47.9451C772.117 47.9451 765.814 43.8091 761.802 42.8098C757.79 41.8105 746.01 40.8841 745.31 23.7129Z" fill="#014F7E"/>
<path d="M732.077 39.579L742.836 30.0159L745.856 27.3389L755.74 54.6785L749.029 74.5559L741.968 56.7137L732.077 39.579Z" fill="#E5E5E5"/>
<path d="M740.159 83.3239C740.159 83.3239 739.801 100.955 741.537 110.058C743.274 119.162 744.287 121.481 744.426 123.794C744.565 126.106 744.856 128.207 745.44 132.43C746.024 136.654 747.752 170.055 746.162 174.103L756.28 175.263H764.231C764.231 175.263 765.39 149.528 765.821 144.612C766.251 139.695 765.244 132.43 765.244 132.43C765.244 132.43 771.459 99.6489 769.723 93.1422L766.689 79.5526L753.675 71.0254L745.002 75.2197L740.159 83.3239Z" fill="#014F7E"/>
<path d="M724.024 31.0151C724.024 31.0151 722.026 35.1438 724.367 42.5841C726.709 50.0245 725.855 55.8746 725.855 55.8746C725.855 55.8746 723.966 61.6154 723.047 62.0458C723.047 62.0458 727.745 60.441 728.912 65.8024C728.941 65.941 728.897 66.0796 728.788 66.1744C728.35 66.5683 727.066 67.5239 725.301 67.2029C725.301 67.2029 726.782 68.3628 729.466 65.9045C729.466 65.9045 731.071 64.3581 732.566 63.2639C734.062 62.1698 734.864 58.2162 734.973 56.553C735.083 54.8899 735.768 51.1041 735.768 51.1041C735.768 51.1041 739.481 58.435 739.241 64.9125C739 71.39 738.497 80.9019 740.007 84.3595C740.007 84.3595 745.565 81.8356 745.565 78.0498C745.565 78.0498 748.935 84.1115 753.224 84.3595C757.513 84.6075 768.375 84.4471 770.563 81.9159C770.563 81.9159 763.662 58.5152 764.166 45.6405L764.253 43.1531C764.253 43.1531 756.003 41.5118 754.406 39.3235C752.808 37.1352 748.92 32.6709 748.92 32.6709L743.077 23.7061C743.077 23.7061 745.178 56.8521 742.939 59.2374C742.939 59.2374 737.942 46.3845 736.454 45.1226L729.415 32.3281L724.024 31.0005V31.0151Z" fill="#014F7E"/>
<path d="M712.55 18.6948C714.242 17.907 716.708 16.7763 717.444 16.5137C719.421 15.8207 720.114 15.4779 720.61 14.7339C721.106 13.9898 723.134 13.202 723.973 14.1868C724.812 15.1715 724.965 16.5429 726.643 16.6012C728.32 16.6596 729.312 18.4905 729.852 19.2783C730.392 20.0661 730.429 20.0734 730.429 18.9792C730.429 17.8851 730.837 14.9235 731.333 14.6317C731.829 14.34 732.026 14.7776 732.274 14.8287C732.522 14.8797 734.842 13.9898 735.338 16.5064C735.834 19.0303 736.33 20.1464 735.243 21.1384C735.243 21.1384 735.039 26.9886 734.353 27.7253C733.667 28.462 733.66 33.2107 730.698 34.8447C727.737 36.4787 722.988 32.226 721.952 30.84C721.952 30.84 720.515 30.8911 720.173 29.5562C720.173 29.5562 717.846 27.6305 717.649 26.0986C717.649 26.0986 716.708 25.1576 717.102 23.8228C717.102 23.8228 715.352 23.1356 714.514 23.1356C714.514 23.1356 713.235 19.1543 713.199 18.7823C713.163 18.4103 712.557 18.6875 712.557 18.6875L712.55 18.6948Z" fill="#E3B396"/>
<path d="M720.749 14.9454C720.749 14.9454 717.189 17.2723 714.271 18.257C712.389 18.8917 711.616 19.2418 711.31 19.5992C711.076 19.8691 710.69 19.9129 710.427 19.6722C709.938 19.2126 709.311 18.4905 708.983 17.5933C708.392 15.9885 710.121 14.1065 710.121 14.1065C710.121 14.1065 709.034 12.1297 712.003 10.6927C712.003 10.6927 711.536 8.86178 714.811 7.97186C714.811 7.97186 714.724 5.49903 718.429 4.85712C718.429 4.85712 720.107 2.68337 721.792 3.66812C723.477 4.65287 723.127 4.80606 723.127 4.80606L724.702 2.66149C724.929 2.35512 725.271 2.17276 725.651 2.15087C726.57 2.09981 728.284 2.27488 729.364 4.01096C729.364 4.01096 730.801 3.9599 731.392 6.87769C731.392 6.87769 738.759 15.332 735.739 20.5183C735.739 20.5183 735.739 15.1277 732.967 15.1788C732.967 15.1788 732.865 15.8718 731.53 15.1788C731.53 15.1788 730.837 15.4268 731.034 17.1556C731.231 18.8844 731.136 20.1244 731.136 20.1244C731.136 20.1244 730.99 21.1602 729.553 19.7305C728.116 18.3008 727.722 18.0017 727.722 18.0017L726.242 17.5568C726.242 17.5568 724.958 16.3678 724.411 14.7849C724.411 14.7849 723.076 14.2378 722.186 14.5879C722.186 14.5879 721.887 15.0329 720.749 14.9308V14.9454Z" fill="#5C3A2C"/>
<path d="M734.827 19.5625C734.827 19.5625 736.563 21.6049 737.957 22.0426C739.35 22.4803 739.518 22.349 739.518 22.349C739.518 22.349 741.356 25.4783 739.685 30.6136C738.015 35.7489 735.776 36.5294 735.776 36.5294C735.776 36.5294 732.748 34.0785 731.559 31.1899C731.559 31.1899 729.619 21.0943 734.82 19.5625H734.827Z" fill="#E3B396"/>
<path d="M737.956 22.0421H740.896C740.896 22.0421 742.887 21.6118 742.705 24.5077C742.523 27.4036 741.706 40.0011 741.706 40.0011L735.775 36.5289L737.949 22.0421H737.956Z" fill="#E5E5E5"/>
<path d="M719.028 23.8076C719.028 23.8076 720.224 25.478 719.94 26.3972C719.765 26.9734 719.823 28.6803 719.998 29.7526C720.093 30.3143 721.384 30.9708 721.938 30.8541C722.639 30.7009 722.894 30.0444 723.047 29.0013C723.047 29.0013 723.733 28.673 723.696 28.2645" fill="#D3A185"/>
<path d="M724.126 24.4421L720.085 23.4646C720.085 23.4646 723.718 20.5687 726.942 20.5322L726.11 22.2172L724.119 24.4421H724.126Z" fill="#CE957C"/>
<path d="M719.779 22.4649L720.093 23.4643C720.093 23.4643 725.681 20.4954 726.95 20.5319C726.95 20.5319 726.848 19.9848 725.637 20.0869C724.426 20.189 719.779 22.4649 719.779 22.4649Z" fill="#5C3A2C"/>
<path d="M724.418 24.4715C724.418 24.4715 722.674 24.4934 722.528 22.8741C722.528 22.8741 724.119 21.4735 726.117 22.2103C726.117 22.2103 726.373 24.6028 724.41 24.4642L724.418 24.4715Z" fill="#E5E5E5"/>
<path d="M725.104 23.7712C725.549 22.5603 722.879 22.3706 722.704 23.2022C722.529 24.0338 724.061 24.4422 724.061 24.4422C724.557 24.4568 725.104 23.7712 725.104 23.7712Z" fill="#523F34"/>
<path d="M715.799 23.3503C715.799 23.3503 717.006 23.7277 717.094 23.8372C717.094 23.8372 716.97 24.2894 717.014 24.5885C717.014 24.5885 719.428 24.6396 719.698 24.997C719.698 24.997 719.202 23.8153 718.867 23.7277C718.531 23.6402 715.37 22.9219 715.37 22.9219L715.799 23.3503Z" fill="#CE957C"/>
<path d="M714.373 22.8124C714.373 22.8124 718.747 22.6623 718.798 23.7784C718.798 23.7784 716.19 23.2574 714.942 23.5856C714.942 23.5856 714.308 23.1552 714.373 22.8124Z" fill="#5C3A2C"/>
<path d="M719.37 26.0832C719.37 26.0832 716.649 26.5938 716.933 24.617C716.933 24.617 719.807 23.4864 719.37 26.0832Z" fill="#E5E5E5"/>
<path d="M718.502 26.1347C718.138 26.0326 717.729 25.3834 717.904 25.0041C718.079 24.6248 718.59 24.6102 719.115 24.829C719.64 25.0478 719.37 26.0764 719.37 26.0764C719.239 26.1201 718.867 26.2295 718.502 26.1274V26.1347Z" fill="#523F34"/>
<path d="M732.537 32.9627C732.537 32.9627 734.907 29.5853 735.104 23.5674C735.104 23.5674 736.001 30.023 732.537 32.9627Z" fill="#CE957C"/>
<path d="M734.579 37.7334L734.747 42.0225L734.608 41.8256C734.608 41.8256 734.324 38.3242 734.579 37.7334Z" fill="#111111"/>
<path d="M734.747 37.6596C734.747 37.6596 735.388 37.273 736.213 37.5721C736.213 37.5721 735.337 37.0906 734.747 37.6596Z" fill="#111111"/>
<path d="M736.512 37.0326L739.254 38.7833L738.744 39.9504L736.519 39.7899L734.775 37.7985C734.608 37.6089 734.622 37.3171 734.819 37.142L735.643 36.4053L736.512 37.0326Z" fill="#E4425C"/>
<path d="M735.782 36.5293L741.486 40.5048L741.581 40.2932L735.782 36.5293Z" fill="#111111"/>
<path d="M741.414 40.1842L742.581 26.5654L741.582 40.2936L741.414 40.1842Z" fill="#111111"/>
<path d="M735.476 36.1062L737.628 21.9111L737.956 22.0424L735.783 36.5292L735.396 36.1937L735.476 36.1062Z" fill="#CE957C"/>
<path d="M743.23 58.8363C743.23 58.8363 733.725 37.427 730.691 34.8594C730.691 34.8594 730.341 39.5862 731.822 40.7387L732.536 40.819L731.931 41.8402C731.865 41.9569 731.858 42.1028 731.931 42.2195C733.164 44.2838 744.12 62.7169 744.332 65.1825C744.332 65.1825 745.076 61.1486 743.23 58.8436V58.8363Z" fill="#3582AB"/>
<path d="M736.52 39.79L739.488 50.7099L743.53 59.4851C743.53 59.4851 745.944 51.4174 743.931 49.7105L738.744 39.9505L736.52 39.79Z" fill="#E4425C"/>
<path d="M744.478 65.8018C744.478 65.8018 747.578 70.4921 745.579 78.0419C745.579 78.0419 746.834 73.9789 744.478 65.8018Z" fill="#002D44"/>
<path d="M754.369 95.9062L756.491 174.227H757.162L754.369 95.9062Z" fill="#002D44"/>
<path d="M767.55 83.3966C767.55 83.3966 753.369 87.6274 747.497 81.6387C747.497 81.6387 752.333 89.0207 767.55 83.3966Z" fill="#002D44"/>
<path d="M740.021 84.3519C740.021 84.3519 744.047 83.9362 745.681 80.9746C745.681 80.9746 744.514 84.527 740.021 84.3519Z" fill="#002D44"/>
<path d="M756.893 175.409H762.531V175.263H756.878L756.893 175.409Z" fill="#CE957C"/>
<path d="M747.176 174.424L756.17 175.57V175.249L747.278 174.228L747.176 174.424Z" fill="#CE957C"/>
<path d="M756.361 182.623C756.361 182.623 755.317 183.411 756.404 185.256C756.404 185.256 756.186 183.849 756.499 183.382L756.368 182.63L756.361 182.623Z" fill="#9B9B9B"/>
<path d="M756.834 178.742L755.748 182.623H756.36L756.834 178.742Z" fill="#5B3D37"/>
<path d="M746.534 175.693H747.76L747.519 175.868H746.337L746.534 175.693Z" fill="#CE957C"/>
<path d="M747.76 175.693C747.76 175.693 746.622 178.545 746.666 178.837C746.709 179.129 747.081 179.53 747.461 179.377C747.774 179.246 749.627 177.656 750.291 177.079C750.444 176.948 750.641 176.875 750.845 176.882L756.499 176.992L756.55 177.284L751.042 177.065C750.809 177.057 750.583 177.152 750.43 177.32C749.824 177.991 748.241 179.654 747.49 179.632C746.549 179.603 746.235 179.027 746.483 178.363C746.731 177.699 747.519 175.868 747.519 175.868L747.76 175.701V175.693Z" fill="#CE957C"/>
<path d="M723.571 32.459C723.571 32.459 725.446 31.6202 725.628 31.5764C725.811 31.5326 725.942 31.3867 725.942 31.3867L728.604 29.957L727.051 31.2044L725.271 32.1235L723.571 32.4517V32.459Z" fill="#D29D7B"/>
<path d="M723.704 32.4735C723.704 32.4735 726.038 33.1081 728.554 30.0518C728.554 30.0518 726.111 32.3568 723.704 32.4735Z" fill="#D29D7B"/>
<path d="M723.571 32.4588C723.571 32.4588 725.512 32.1597 728.692 29.8984C728.692 29.8984 726.314 32.8089 723.571 32.4588Z" fill="#532321"/>
<path d="M731.99 17.2569C731.99 17.2569 732.522 15.7543 733.492 16.0752C734.463 16.3962 734.616 19.5036 733.492 20.7364C732.369 21.9692 732.369 19.934 732.42 19.2337C732.471 18.5335 731.413 18.176 731.99 17.2496V17.2569Z" fill="#CE957C"/>
<path d="M735.732 20.5322C735.732 20.5322 735.674 22.0203 734.047 22.0203C734.047 22.0203 735.929 22.5309 735.732 20.5322Z" fill="#CE957C"/>
<path d="M415 160C415 160 672.652 116.795 738 72C738 72 596.822 136.222 415 160Z" fill="#997756"/>
<path d="M456.342 171.63L457.312 181.062C457.348 181.42 457.166 181.77 456.838 181.93C455.867 182.419 453.993 183.608 454.926 185.198C455.313 185.855 456.035 186.219 456.794 186.263C458.019 186.336 459.981 186.212 460.514 184.709C461.309 182.485 464.212 171.032 464.212 171.032L456.342 171.63Z" fill="#C6A987"/>
<path d="M454.992 185.257C454.992 185.257 455.152 184.046 456.728 183.528C456.728 183.528 455.065 183.951 454.992 185.257Z" fill="#997756"/>
<path d="M457.415 186.285C457.415 186.285 456.86 183.791 459.362 182.959C459.362 182.959 457.101 183.761 457.415 186.285Z" fill="#997756"/>
<path d="M456.962 173.001L462.177 178.895L462.951 175.948L462.652 170.726L456.729 172.031L456.962 173.001Z" fill="#AF8F6E"/>
<path d="M413.027 172.505V181.492C413.027 181.908 412.801 182.287 412.421 182.47C411.407 182.958 409.533 184.104 410.131 185.65C410.941 187.736 415.361 186.584 415.915 185.65C416.47 184.716 421.189 171.579 421.189 171.579L413.027 172.505Z" fill="#C6A987"/>
<path d="M410.182 185.796C410.182 185.796 410.343 184.585 411.918 184.067C411.918 184.067 410.255 184.49 410.182 185.796Z" fill="#997756"/>
<path d="M412.597 186.825C412.597 186.825 412.042 184.331 414.544 183.499C414.544 183.499 412.283 184.301 412.597 186.825Z" fill="#997756"/>
<path d="M414.822 173.783L417.579 181.472L418.104 180.056L415.456 173.842L414.822 173.783Z" fill="#AF8F6E"/>
<path d="M467.604 158.713C467.604 158.713 475.738 156.349 475.957 146.239C475.957 146.239 481.894 157.721 469.8 161.514L467.604 158.713Z" fill="#F7E2C8"/>
<path d="M471.456 169.274C470.887 171.47 470.099 173.213 469.858 173.724C469.815 173.834 469.778 173.936 469.763 174.052C469.691 174.497 469.508 175.745 469.282 177.328C468.983 179.363 468.604 181.96 468.29 184.133C467.677 188.452 466.488 188.277 466.488 188.277L463.658 188.474C463.381 188.488 463.096 188.415 462.878 188.247C459.828 185.95 461.98 184.199 463.257 183.462C463.709 183.2 463.943 182.696 463.848 182.193L462.761 176.656L462.557 175.592C462.484 175.219 462.236 174.92 461.907 174.745C460.988 174.264 459.821 173.308 459.135 172.717C458.778 172.404 458.275 172.353 457.844 172.55C457.407 172.754 456.954 172.944 456.495 173.119C454.496 173.906 452.301 174.475 450.01 174.877C440.863 176.474 430.3 175.395 425.53 174.745C425.041 174.672 424.603 174.614 424.246 174.556C423.509 174.446 422.867 175.023 422.875 175.767C422.897 178.947 424.078 182.777 424.64 185.14C425.296 187.861 420.716 189.604 418.323 187.7C416.653 186.373 418.017 184.885 419.001 184.104C419.446 183.754 419.592 183.149 419.351 182.638L418.104 180.056L415.325 174.315C415.215 174.089 415.04 173.899 414.822 173.782L414.223 173.462L413.589 173.111C413.45 173.038 413.304 172.995 413.151 172.973L413.027 172.958L411.313 172.769C411.123 172.747 410.926 172.776 410.751 172.856C410.635 172.893 410.584 172.929 410.584 172.929C410.314 173.082 410.102 173.345 410.022 173.666C409.92 174.06 409.774 174.439 409.584 174.796C409.489 174.993 409.38 175.176 409.263 175.358C408.337 176.824 406.958 177.904 406.513 178.137C406.127 178.342 405.054 179.436 403.924 180.771C403.894 180.807 403.858 180.851 403.822 180.887C402.975 181.894 402.107 183.017 401.473 183.987C400.969 184.761 400.437 185.249 399.963 185.548C399.467 185.862 398.89 185.702 398.54 185.286C398.424 185.147 398.329 184.987 398.278 184.797C398.059 184.038 397.402 183.732 396.768 183.615C396.491 183.564 396.257 183.426 396.082 183.236C395.834 182.981 395.71 182.623 395.776 182.244C396.243 179.691 395.338 176.226 394.667 174.76C393.865 173.002 394.062 171.251 394.062 171.251C393.252 165.277 400.663 162.286 402.647 162.367C403.238 162.389 404.267 162.119 405.419 161.732C405.842 161.586 406.287 161.426 406.725 161.258C406.798 161.236 406.849 161.221 406.849 161.221C408.774 160.477 410.7 159.617 411.328 159.325C411.473 159.259 411.597 159.164 411.707 159.048C415.617 154.78 423.086 157.275 423.086 157.275C431.73 159.959 443.117 159.23 451.009 158.18C455.999 157.516 459.595 156.721 460.215 156.582C460.281 156.568 460.346 156.56 460.412 156.553C461.36 156.495 462.236 156.487 463.045 156.531C465.657 156.648 467.568 157.246 468.932 158.158C470.07 158.909 470.836 159.872 471.317 160.959C472.484 163.505 472.12 166.7 471.456 169.274Z" fill="#F7E2C8"/>
<path d="M397.314 171.645C397.314 171.645 398.438 168.727 400.247 168.501C400.247 168.501 397.606 168.53 396.694 172.068L397.314 171.645Z" fill="#523F34"/>
<path d="M450.01 174.877C440.863 176.474 430.3 175.395 425.53 174.745C426.011 172.243 431.3 170.281 437.755 170.281C444.211 170.281 449.682 172.316 450.01 174.877Z" fill="#C6A987"/>
<path d="M463.665 158.34C463.665 160.645 460.835 162.513 457.334 162.513C453.832 162.513 451.002 160.645 451.002 158.34C451.002 158.289 451.002 158.231 451.009 158.18C455.999 157.516 459.595 156.721 460.215 156.582C460.281 156.568 460.346 156.56 460.412 156.553C461.36 156.495 462.235 156.487 463.045 156.531C463.446 157.078 463.665 157.698 463.665 158.34Z" fill="#C6A987"/>
<path d="M471.456 169.275C470.887 171.471 470.099 173.214 469.858 173.725C469.814 173.834 469.778 173.937 469.763 174.053C469.69 174.498 469.508 175.746 469.282 177.328C466.926 176.723 465.255 175.213 465.255 173.448C465.255 171.165 468.02 169.319 471.456 169.275Z" fill="#C6A987"/>
<path d="M418.076 187.482C418.076 187.482 418.236 186.271 419.812 185.753C419.812 185.753 418.149 186.176 418.076 187.482Z" fill="#997756"/>
<path d="M420.496 188.503C420.496 188.503 419.942 186.008 422.444 185.177C422.444 185.177 420.182 185.979 420.496 188.503Z" fill="#997756"/>
<path d="M462.031 187.394C462.031 187.394 462.191 186.183 463.767 185.665C463.767 185.665 462.104 186.088 462.031 187.394Z" fill="#997756"/>
<path d="M464.454 188.423C464.454 188.423 463.899 185.928 466.401 185.097C466.401 185.097 464.14 185.899 464.454 188.423Z" fill="#997756"/>
<path d="M399.292 174.381L400.247 177.094L402.465 173.826L403.194 170.843L402.078 170.857L399.292 174.381Z" fill="#E0CAB1"/>
<path d="M399.292 174.381C399.292 174.381 397.323 172.106 398.789 171.15C400.255 170.194 402.079 170.858 402.079 170.858C402.079 170.858 401.823 174.199 399.292 174.381Z" fill="#FCFCFC"/>
<path d="M399.292 174.381C399.292 174.381 398.672 173.681 398.482 173.097C398.292 172.513 401.064 171.901 400.816 173.739C400.816 173.739 399.941 174.439 399.292 174.381Z" fill="#523F34"/>
<path d="M409.825 177.095C409.825 179.108 407.76 180.757 405.12 180.925C404.704 180.917 404.303 180.859 403.923 180.771C401.793 180.297 400.24 178.831 400.24 177.095C400.24 176.38 400.502 175.716 400.962 175.14C401.494 174.469 401.815 173.616 401.779 172.718C401.779 172.631 401.779 172.543 401.779 172.456C401.779 170.063 403.15 168.094 404.923 167.846C405.047 167.824 405.171 167.816 405.302 167.816C407.25 167.816 408.825 169.895 408.825 172.456V172.47C408.825 173.324 408.76 174.71 409.27 175.359C409.175 175.556 409.387 175.177 409.27 175.359C409.635 175.884 409.832 176.475 409.832 177.095H409.825Z" fill="#B79777"/>
<path d="M406.849 161.222C406.849 161.222 415.216 162.768 411.313 172.776C411.313 172.776 414.151 164.424 406.849 161.222Z" fill="#E0CAB1"/>
<path d="M405.419 161.74C405.419 161.74 412.093 163.337 410.591 172.937C410.591 172.937 410.788 172.798 411.32 172.776C411.853 172.754 413.654 163.695 406.856 161.222C406.856 161.222 405.506 161.601 405.426 161.74H405.419Z" fill="#595959"/>
<path d="M409.825 177.095C409.825 179.108 407.761 180.757 405.12 180.925C404.967 180.939 404.806 180.946 404.653 180.946C404.369 180.946 404.092 180.932 403.822 180.888C401.363 180.596 399.481 179.013 399.481 177.095C399.481 176.387 399.744 175.716 400.204 175.147C400.743 174.469 401.057 173.623 401.021 172.726C401.021 172.638 401.013 172.551 401.013 172.456C401.013 169.895 402.596 167.816 404.537 167.816C404.668 167.816 404.792 167.816 404.916 167.846C406.688 168.094 408.067 170.063 408.067 172.456V172.478C408.06 173.411 408.366 174.308 408.964 174.972C409.074 175.096 409.176 175.228 409.263 175.359C409.628 175.884 409.825 176.475 409.825 177.095Z" fill="#C6A987"/>
<path d="M712.834 13.267C720.172 9.48121 725.132 14.0257 725.132 14.0257C719.487 7.34393 712.834 13.267 712.834 13.267Z" fill="#70493C"/>
<path d="M725.257 10.5394C725.257 10.5394 722.595 7.49036 716.234 9.24103C716.234 9.24103 721.61 6.04606 725.257 10.5394Z" fill="#70493C"/>
<path d="M728.466 10.1821C728.466 10.1821 732.106 9.50372 734.273 13.7345C734.273 13.7345 732.836 8.78156 728.466 10.1821Z" fill="#70493C"/>
<path d="M727.146 12.8665C727.146 12.8665 730.326 11.466 733.047 13.7273C733.047 13.7273 730.516 10.2551 727.146 12.8665Z" fill="#70493C"/>
<path d="M712.966 61.3826C715.628 63.0311 718.655 63.0895 720.158 61.6306C720.304 61.492 720.435 61.3388 720.545 61.171C720.574 61.1346 720.596 61.0981 720.618 61.0543C721.872 59.0265 720.472 55.8971 717.496 54.0516C714.519 52.2061 711.091 52.352 709.836 54.3799C709.705 54.5914 709.603 54.8176 709.53 55.051C708.888 57.0497 710.281 59.734 712.951 61.3826H712.966Z" stroke="#231F20" stroke-width="0.5" stroke-miterlimit="10"/>
<path d="M712.199 62.6292C714.242 63.8984 716.503 64.2267 718.123 63.6504C718.509 63.5191 718.859 63.3295 719.158 63.0815C719.436 62.8626 719.669 62.6073 719.859 62.301C719.99 62.0894 720.092 61.8633 720.165 61.6299C718.655 63.0888 715.635 63.0304 712.973 61.3819C710.31 59.7333 708.91 57.0417 709.552 55.043C709.376 55.2107 709.216 55.4077 709.085 55.6192C707.83 57.6471 709.223 60.7837 712.199 62.6219V62.6292Z" stroke="#231F20" stroke-width="0.5" stroke-miterlimit="10"/>
<path d="M712.966 61.3894C715.629 63.0379 718.656 63.0963 720.159 61.6374C720.8 59.6387 719.4 56.9543 716.737 55.3058C714.075 53.6573 711.048 53.5989 709.545 55.0578C708.903 57.0565 710.296 59.7408 712.966 61.3894Z" stroke="#231F20" stroke-width="0.5" stroke-miterlimit="10"/>
<path d="M709.07 55.6268L710.098 54.0293" stroke="#231F20" stroke-width="0.5" stroke-miterlimit="10"/>
<path d="M719.859 62.3015L720.552 61.1709" stroke="#231F20" stroke-width="0.5" stroke-miterlimit="10"/>
<path d="M719.05 68.1365C719.531 68.8075 720.355 68.6179 721.158 68.1729C721.8 67.8155 722.42 67.2976 722.821 66.9256C722.894 66.8672 722.952 66.8089 723.003 66.7578C722.784 66.4077 722.609 66.0867 722.463 65.7949C720.756 62.4249 722.916 62.5124 722.916 62.5124C730.312 62.1258 726.949 67.1517 726.949 67.1517L725.41 69.0264C725.352 68.9316 725.264 68.8513 725.14 68.8075C725.046 68.7784 724.732 68.793 724.353 68.8367L723.82 68.1729C723.66 68.4136 723.441 68.7346 723.171 69.0628C722.959 69.3182 722.726 69.5735 722.463 69.7996C721.887 70.3102 721.201 70.7041 720.479 70.6458C718.794 70.2227 719.057 68.1365 719.057 68.1365H719.05ZM723.543 66.8964L724.017 67.6113C724.09 67.7207 724.229 67.7717 724.353 67.728C724.484 67.6915 724.564 67.5748 724.564 67.4508C724.564 67.4362 724.564 67.4289 724.564 67.4143L724.484 66.5827C724.469 66.4004 724.28 66.2691 724.105 66.3274L723.711 66.4441C723.521 66.5025 723.433 66.7286 723.543 66.8964Z" fill="#E9B194"/>
<path d="M719.049 67.2901L722.032 63.5918L723.374 65.4373L721.463 67.2828H719.049V67.2901Z" fill="#E9B194"/>
<path d="M719.049 68.1364C719.53 68.8075 720.354 68.6179 721.157 68.1729C721.799 67.8155 722.419 67.2976 722.82 66.9256C722.893 66.8672 722.951 66.8089 723.002 66.7578C722.783 66.4077 722.608 66.0867 722.462 65.7949C722.331 65.8752 722.214 65.9554 722.098 66.021C721.047 66.6411 720.238 67.0131 719.975 66.6848C719.756 66.415 719.676 66.1888 719.661 65.9919C719.661 65.9189 719.297 65.9773 719.238 66.0138C718.903 66.218 718.144 66.8599 719.056 68.1291L719.049 68.1364Z" fill="#E9B194"/>
<path d="M720.472 70.6391C720.472 70.6391 720.523 72.346 721.785 71.9448C721.916 71.901 722.062 71.8426 722.215 71.7697C722.594 71.5873 723.032 71.332 723.455 71.0475C723.594 70.96 723.725 70.8652 723.856 70.7777C724.367 70.4275 724.834 70.0701 725.14 69.8367C725.184 69.8002 725.22 69.771 725.257 69.7418C725.49 69.5595 725.527 69.2458 725.395 69.027C725.337 68.9322 725.249 68.8519 725.125 68.8081C725.031 68.779 724.717 68.7936 724.338 68.8373C723.958 68.8884 723.513 68.9686 723.149 69.0562C722.937 69.3115 722.704 69.5668 722.441 69.7929C721.865 70.3035 721.179 70.6974 720.457 70.6391H720.472Z" fill="#E9B194"/>
<path d="M723.185 72.7761C723.623 72.5938 724.024 72.3749 724.352 72.1707C724.943 71.7987 725.315 71.4704 725.315 71.4704C725.315 71.4704 726.154 70.0626 723.864 70.7702C723.732 70.865 723.601 70.9525 723.463 71.0401C723.039 71.3245 722.602 71.5871 722.222 71.7622C722.222 71.7622 721.96 73.2795 723.2 72.7688L723.185 72.7761Z" fill="#E9B194"/>
<path d="M724.235 63.3955C724.447 64.7304 724.695 66.0799 724.761 67.4293C724.753 67.7576 724.812 68.1734 724.615 68.436C724.6 68.4433 724.593 68.4433 724.564 68.436C724.352 68.3703 724.068 68.0713 723.944 67.8305C723.302 66.554 722.58 65.1608 721.865 63.9207C722.361 65.1316 722.974 66.4665 723.528 67.6555C723.666 67.9764 723.856 68.312 724.141 68.5381C724.287 68.6694 724.564 68.8299 724.775 68.684C725.563 67.991 724.513 64.3876 724.235 63.3955Z" fill="#CC7C59"/>
<path d="M719.056 68.1291C720.172 69.1941 721.865 68.2312 722.667 67.2173C722.784 67.0568 722.908 66.9109 723.01 66.7432C722.849 66.8599 722.711 66.9839 722.565 67.1079C721.609 67.8884 720.311 68.7783 719.056 68.1218V68.1291Z" fill="#CC7C59"/>
<path d="M719.283 69.6691C720.071 71.573 722.018 70.6174 722.966 69.3846C723.295 69.0126 723.557 68.5823 723.813 68.1592C723.462 68.5093 723.149 68.8813 722.791 69.2169C721.807 70.2454 720.311 71.2156 719.283 69.6618V69.6691Z" fill="#CC7C59"/>
<path d="M720.588 71.2664C720.574 71.7552 721.07 72.1272 721.544 72.0761C722.908 71.9448 723.98 70.9601 724.899 70.0264C723.973 70.588 723.127 71.2664 722.127 71.6749C721.573 71.9229 720.792 71.9886 720.595 71.2664H720.588Z" fill="#CC7C59"/>
<path d="M722.353 72.6879C722.682 73.4611 724.294 72.4326 724.695 72.0752C724.921 71.8928 725.133 71.6886 725.322 71.4697C725.052 71.5864 724.812 71.7396 724.556 71.8782C724.111 72.0898 722.726 73.1547 722.346 72.6879H722.353Z" fill="#CC7C59"/>
<path d="M723.171 69.0555C723.528 68.9607 723.973 68.8804 724.36 68.8367L723.827 68.1729C723.667 68.4136 723.448 68.7345 723.178 69.0628L723.171 69.0555Z" fill="#231F20"/>
<path d="M725.33 71.4694C725.33 71.4694 724.958 71.7976 724.367 72.1696L725.519 73.614C725.702 73.8328 726.03 73.862 726.241 73.6723L727.058 72.9429C727.255 72.7678 727.277 72.4687 727.117 72.2572L725.162 69.8281C724.855 70.0688 724.389 70.419 723.878 70.7691C726.176 70.0543 725.33 71.4694 725.33 71.4694Z" fill="#231F20"/>
<path d="M718.13 63.6432L718.772 64.3872L719.597 63.7015L719.166 63.0742C718.867 63.3149 718.517 63.5046 718.13 63.6432Z" fill="#231F20"/>
<path d="M718.699 65.0876L719.975 66.685C720.384 66.7653 721.055 66.6486 722.098 66.0212L720.296 63.7746C720.121 63.5557 719.8 63.5265 719.589 63.7016L718.764 64.3873C718.56 64.5624 718.524 64.8687 718.691 65.0803L718.699 65.0876Z" fill="#231F20"/>
<mask id="mask0_4893_8205" style="mask-type:luminance" maskUnits="userSpaceOnUse" x="707" y="51" width="16" height="16">
<path d="M722.791 51.2139H707.327V66.6781H722.791V51.2139Z" fill="white"/>
</mask>
<g mask="url(#mask0_4893_8205)">
<path d="M718.283 63.3144L719.012 64.1313L719.946 63.38L719.457 62.6943C719.114 62.9642 718.72 63.1685 718.283 63.3144Z" fill="#231F20"/>
<path d="M709.909 54.8239C711.419 53.3432 714.46 53.4015 717.138 55.0792C719.815 56.757 721.222 59.4924 720.58 61.5203C720.726 61.3817 720.858 61.2212 720.974 61.0534C721.004 61.0169 721.025 60.9732 721.047 60.9367C722.309 58.8797 720.901 55.692 717.911 53.81C715.11 52.052 711.9 52.0739 710.478 53.7808L710.062 54.4373C710.004 54.5613 709.952 54.6853 709.916 54.8166L709.909 54.8239Z" fill="#BCBEC0" stroke="#231F20" stroke-width="0.5" stroke-miterlimit="10"/>
<path d="M712.213 62.7821C714.27 64.0732 716.539 64.4014 718.166 63.8179C718.552 63.6793 718.902 63.4896 719.209 63.2416C719.486 63.0228 719.719 62.7529 719.909 62.4538C720.04 62.2423 720.143 62.0088 720.215 61.7754C718.698 63.2562 715.664 63.1978 712.987 61.5201C710.31 59.8424 708.909 57.107 709.551 55.0791C709.376 55.2542 709.215 55.4438 709.084 55.6627C707.822 57.7197 709.223 60.9074 712.213 62.7821Z" fill="#BCBEC0" stroke="#231F20" stroke-width="0.5" stroke-miterlimit="10"/>
<path d="M718.932 64.9049L720.384 66.6556C720.851 66.7431 721.602 66.6118 722.798 65.9261L720.756 63.4679C720.559 63.2272 720.194 63.1907 719.953 63.3877L719.02 64.139C718.786 64.3286 718.75 64.6715 718.939 64.9049H718.932Z" fill="#231F20"/>
</g>
<path d="M748.927 32.6709C748.927 32.6709 751.809 38.8712 763.399 42.9634C763.399 42.9634 751.378 40.6219 748.927 32.6709Z" fill="#002D44"/>
<path d="M742.939 29.8397C742.939 29.8397 745.186 57.5879 742.939 59.2437C742.939 59.2437 744.595 62.5554 744.332 65.1741C744.332 65.1741 748.235 58.7039 748.928 45.3405V40.3146C748.928 40.1468 748.782 40.0228 748.614 40.0447L745.93 40.424L747.637 39.6581C747.819 39.5779 747.914 39.3736 747.856 39.184C747.411 37.6959 745.653 31.5758 745.93 28.0453C746.244 24.0042 745.492 21.5824 742.72 21.2687C739.948 20.9551 737.957 22.042 737.957 22.042L741.984 23.8072C741.984 23.8072 743.005 26.4551 742.939 29.8397Z" fill="#3582AB"/>
<path d="M743.384 59.04C743.384 59.04 744.632 61.3451 744.289 63.7012C744.289 63.7012 744.909 61.294 743.384 59.04Z" fill="#014F7E"/>
<path d="M747.413 24.9782C749.077 26.2054 752.49 29.6689 752.828 33.7059C754.712 31.0963 758.752 26.9185 762.495 27.8487C760.063 26.2204 755.345 21.5436 751.647 23.7126C748.951 22.4031 747.833 21.4911 745.573 23.3505L745.787 23.993L747.413 24.9782Z" fill="#DC433E"/>
<path d="M751.238 24.8647C752.002 25.476 752.978 26.5908 753.528 28.0093C753.939 30.02 753.376 32.3532 752.828 33.7059C754.227 31.6112 754.15 29.6155 753.528 28.0093C753.262 26.7085 752.588 25.5427 751.238 24.8647Z" fill="#C73632"/>
</svg>
