<svg width="10" height="12" viewBox="0 0 10 12" fill="none" xmlns="http://www.w3.org/2000/svg">
<g id="Group">
<g id="Group_2">
<path id="Vector" d="M5.0024 11.4868C3.7207 11.4868 2.7168 9.07723 2.7168 6.00134C2.7168 2.92522 3.7207 0.515625 5.0024 0.515625C6.2841 0.515625 7.288 2.92522 7.288 6.00134C7.288 9.07723 6.2841 11.4868 5.0024 11.4868ZM5.0024 0.972768C4.13756 0.972768 3.17394 3.03795 3.17394 6.00134C3.17394 8.96451 4.13756 11.0297 5.0024 11.0297C5.86724 11.0297 6.83086 8.96451 6.83086 6.00134C6.83086 3.03795 5.86724 0.972768 5.0024 0.972768Z" fill="#043365"/>
</g>
<g id="Group_3">
<path id="Vector_2" d="M1.81964 9.39836C1.06763 9.39836 0.505907 9.18564 0.251331 8.74479C-0.0736688 8.18185 0.148541 7.36979 0.876889 6.45819C1.55993 5.6035 2.61908 4.73854 3.85926 4.02247C5.09943 3.3064 6.37812 2.8218 7.4597 2.65752C8.61372 2.48185 9.42767 2.69591 9.75278 3.25908C10.3934 4.36912 8.8087 6.44323 6.14486 7.9814C4.53917 8.90819 2.96059 9.39836 1.81964 9.39836ZM8.20033 3.05439C7.99664 3.05439 7.77164 3.07247 7.52834 3.10953C6.50167 3.26533 5.27979 3.73006 4.08783 4.41845C2.89586 5.10662 1.88236 5.93229 1.23403 6.74345C0.639947 7.48698 0.426108 8.13319 0.647313 8.51622C1.07946 9.26488 3.34977 9.06711 5.91629 7.58542C8.48258 6.10372 9.78917 4.23653 9.3568 3.48765C9.19285 3.20372 8.78414 3.05439 8.20033 3.05439Z" fill="#043365"/>
</g>
<g id="Group_4">
<path id="Vector_3" d="M8.18439 9.39818C7.04343 9.39818 5.46497 8.90823 3.85928 7.98122C1.19533 6.44305 -0.389379 4.36872 0.251358 3.2589C0.576581 2.69573 1.3912 2.48211 2.54433 2.65733C3.62602 2.82162 4.90471 3.30622 6.14488 4.02229C8.80884 5.56024 10.3935 7.63457 9.75281 8.74461C9.49823 9.18546 8.93629 9.39818 8.18439 9.39818ZM1.8037 3.05421C1.21988 3.05421 0.811291 3.20332 0.64734 3.48747C0.214862 4.23635 1.52156 6.10354 4.08785 7.58524C6.65437 9.06693 8.92479 9.2647 9.35683 8.51604C9.7893 7.76693 8.48261 5.89974 5.91631 4.41827C4.72435 3.72988 3.50247 3.26515 2.4758 3.10934C2.2325 3.07229 2.00738 3.05421 1.8037 3.05421Z" fill="#043365"/>
</g>
</g>
</svg>
