<svg width="24" height="24" viewBox="0 0 24 24" fill="none" xmlns="http://www.w3.org/2000/svg">
<g id="Group 1000003906">
<g id="Group 1000003905">
<g id="more_vert">
<mask id="mask0_2606_8662" style="mask-type:alpha" maskUnits="userSpaceOnUse" x="0" y="0" width="24" height="24">
<rect id="Bounding box" width="24" height="24" fill="#D9D9D9"/>
</mask>
<g mask="url(#mask0_2606_8662)">
<path id="more_vert_2" d="M12.0039 20.001C11.4539 20.001 10.9831 19.8051 10.5914 19.4135C10.1997 19.0218 10.0039 18.551 10.0039 18.001C10.0039 17.451 10.1997 16.9801 10.5914 16.5885C10.9831 16.1968 11.4539 16.001 12.0039 16.001C12.5539 16.001 13.0247 16.1968 13.4164 16.5885C13.8081 16.9801 14.0039 17.451 14.0039 18.001C14.0039 18.551 13.8081 19.0218 13.4164 19.4135C13.0247 19.8051 12.5539 20.001 12.0039 20.001ZM12.0039 14.001C11.4539 14.001 10.9831 13.8051 10.5914 13.4135C10.1997 13.0218 10.0039 12.551 10.0039 12.001C10.0039 11.451 10.1997 10.9801 10.5914 10.5885C10.9831 10.1968 11.4539 10.001 12.0039 10.001C12.5539 10.001 13.0247 10.1968 13.4164 10.5885C13.8081 10.9801 14.0039 11.451 14.0039 12.001C14.0039 12.551 13.8081 13.0218 13.4164 13.4135C13.0247 13.8051 12.5539 14.001 12.0039 14.001ZM12.0039 8.00098C11.4539 8.00098 10.9831 7.80514 10.5914 7.41348C10.1997 7.02181 10.0039 6.55098 10.0039 6.00098C10.0039 5.45098 10.1997 4.98014 10.5914 4.58848C10.9831 4.19681 11.4539 4.00098 12.0039 4.00098C12.5539 4.00098 13.0247 4.19681 13.4164 4.58848C13.8081 4.98014 14.0039 5.45098 14.0039 6.00098C14.0039 6.55098 13.8081 7.02181 13.4164 7.41348C13.0247 7.80514 12.5539 8.00098 12.0039 8.00098Z" fill="#989898"/>
</g>
</g>
</g>
</g>
</svg>
