<svg width="24" height="24" viewBox="0 0 24 24" fill="none" xmlns="http://www.w3.org/2000/svg">
<g id="move_item">
<mask id="mask0_397_682" style="mask-type:alpha" maskUnits="userSpaceOnUse" x="0" y="0" width="24" height="24">
<rect id="Bounding box" width="24" height="24" fill="#D9D9D9"/>
</mask>
<g mask="url(#mask0_397_682)">
<path id="move_item_2" d="M7.28571 11H17.7L16.3714 9.45L17.5714 8L21 12L17.5714 16L16.3714 14.55L17.7 13H7.28571V11ZM13.2857 9V5H4.71429V19H13.2857V15H15V19C15 19.55 14.8321 20.0208 14.4964 20.4125C14.1607 20.8042 13.7571 21 13.2857 21H4.71429C4.24286 21 3.83929 20.8042 3.50357 20.4125C3.16786 20.0208 3 19.55 3 19V5C3 4.45 3.16786 3.97917 3.50357 3.5875C3.83929 3.19583 4.24286 3 4.71429 3H13.2857C13.7571 3 14.1607 3.19583 14.4964 3.5875C14.8321 3.97917 15 4.45 15 5V9H13.2857Z" fill="#A4A4A4"/>
</g>
</g>
</svg>
