<svg width="14" height="14" viewBox="0 0 14 14" fill="none" xmlns="http://www.w3.org/2000/svg">
<path d="M13.5 1.70738C13.5 2.08875 13.2649 2.40397 12.8582 2.40397C12.4515 2.40397 12.2158 2.08875 12.2158 1.70738C12.2158 1.3254 12.4515 1.0107 12.8582 1.0107C13.2649 1.0107 13.5 1.3254 13.5 1.70738ZM13.3717 1.70738C13.3717 1.39268 13.158 1.14593 12.8582 1.14593C12.5584 1.14593 12.3446 1.37025 12.3446 1.70677C12.3446 2.0214 12.5584 2.26883 12.8582 2.26883C13.1788 2.26883 13.3717 2.0214 13.3717 1.70738ZM12.6011 1.39267H12.8796C13.0292 1.39267 13.1361 1.48245 13.1361 1.617C13.1361 1.70737 13.0933 1.75222 13.0292 1.79707L13.1361 1.95412V1.97655H12.9865L12.8796 1.8195H12.7507V1.97655H12.6011V1.39267ZM12.8796 1.5273H12.7507V1.68495H12.8796C12.9437 1.68495 12.9651 1.66245 12.9651 1.6176C12.9865 1.57215 12.9437 1.5273 12.8796 1.5273ZM4.2761 6.98587C4.30078 6.89827 4.3151 6.8079 4.31885 6.71662C4.31885 6.64935 4.29748 6.58208 4.29748 6.51473C4.23335 6.31223 4.12648 6.13275 3.9341 6.02003L1.19473 4.38052C0.809452 4.1562 0.317227 4.29082 0.103477 4.69522C-0.110798 5.09962 0.0174526 5.61622 0.402728 5.84055L1.92208 6.76147L0.402728 7.68248C0.0174526 7.9068 -0.110798 8.424 0.102952 8.8278C0.316702 9.2322 0.809452 9.36743 1.1942 9.1425L3.9122 7.503C4.1051 7.34542 4.23335 7.18837 4.2761 6.98587ZM5.02535 8.5362C4.87573 8.5137 4.70473 8.55862 4.55458 8.64832L1.83658 10.2878C1.45123 10.5122 1.32298 11.0293 1.53733 11.4332C1.75108 11.8381 2.24323 11.9727 2.62858 11.7478L4.14785 10.8268V12.6688C4.14785 13.1411 4.51183 13.5 4.96123 13.5C5.4107 13.5 5.7527 13.118 5.7527 12.6688V9.36742C5.7527 8.9181 5.43208 8.55862 5.02535 8.5362ZM7.80748 4.94198C7.9571 4.9644 8.1281 4.91955 8.27833 4.82985L10.9963 3.19035C11.3816 2.96602 11.5099 2.44882 11.2956 2.04502C11.0818 1.64002 10.5896 1.50548 10.2043 1.7304L8.68498 2.65132V0.831224C8.68498 0.359549 8.32108 0 7.8716 0C7.4222 0 7.05823 0.359549 7.05823 0.831224V4.11075C7.05823 4.5594 7.40083 4.92015 7.80748 4.94198ZM1.83658 3.18975L4.55458 4.82925C4.7042 4.91895 4.85435 4.94138 5.02535 4.94138C5.43208 4.91895 5.77408 4.53757 5.77408 4.11075V0.831224C5.77408 0.359549 5.4107 0 4.9826 0C4.5332 0 4.16923 0.381974 4.16923 0.831224V2.67323L2.64995 1.75222C2.2646 1.5279 1.77245 1.66245 1.5587 2.06685C1.32298 2.4483 1.45183 2.96482 1.83658 3.18975ZM6.95135 6.73845C6.9488 6.67972 6.926 6.62392 6.88723 6.58147L6.5666 6.24435C6.5477 6.22237 6.52453 6.20497 6.49858 6.19335C6.47263 6.18172 6.44458 6.17617 6.41645 6.17707C6.36043 6.17977 6.30725 6.20362 6.26683 6.24435L5.9456 6.58087C5.90668 6.62347 5.88388 6.6795 5.88148 6.73845C5.88148 6.78337 5.90285 6.85065 5.9456 6.8961L6.26623 7.23263C6.28513 7.2546 6.3083 7.27208 6.33425 7.2837C6.3602 7.29533 6.38825 7.30088 6.41645 7.2999C6.4724 7.29735 6.52565 7.27343 6.56608 7.23263L6.88723 6.8961C6.92615 6.8535 6.94895 6.79747 6.95135 6.73845ZM7.85023 7.05315L6.71623 8.24332C6.69433 8.26575 6.6302 8.31068 6.58745 8.31068H6.24545C6.1892 8.30813 6.1358 8.2842 6.09523 8.24332L4.96123 7.05315C4.9343 7.01362 4.91945 6.96653 4.91848 6.91792V6.55905C4.91848 6.51412 4.93985 6.44685 4.9826 6.4014L6.1166 5.21123C6.15718 5.17028 6.21058 5.14635 6.26683 5.14387H6.60883C6.665 5.14635 6.7184 5.17028 6.75898 5.21123L7.89298 6.4014C7.9139 6.42128 7.93048 6.44565 7.9415 6.4728C7.9526 6.50003 7.95793 6.52942 7.9571 6.55905V6.91792C7.91435 6.96345 7.89298 7.03012 7.85023 7.05315ZM10.9963 10.2648L8.27833 8.6253C8.1287 8.5356 7.9577 8.51317 7.80748 8.5356C7.40083 8.55802 7.05823 8.9394 7.05823 9.36682V12.6458C7.05823 13.118 7.4222 13.477 7.85023 13.477C8.2997 13.477 8.6636 13.095 8.6636 12.6458V10.8037L10.1824 11.7248C10.5682 11.9491 11.0605 11.8145 11.2742 11.4101C11.5099 11.0287 11.3811 10.5122 10.9963 10.2648ZM12.4301 5.81752L10.9108 6.73845L12.4296 7.65945C12.8155 7.88378 12.9437 8.40098 12.7294 8.80478C12.5156 9.20918 12.0235 9.3438 11.6381 9.11948L8.9201 7.47938C8.75398 7.36718 8.6264 7.2021 8.5562 7.0083C8.53535 6.91792 8.51345 6.82822 8.51345 6.73845C8.51345 6.67117 8.53535 6.6039 8.53535 6.53655C8.59948 6.33405 8.72773 6.15458 8.89873 6.04245L11.6167 4.40242C12.0021 4.17802 12.4942 4.31265 12.708 4.71705C12.9651 5.0766 12.8149 5.5932 12.4301 5.81752Z" fill="#032951"/>
</svg>
