<svg width="48" height="56" viewBox="0 0 48 56" fill="none" xmlns="http://www.w3.org/2000/svg">
<g id="Group 64">
<g id="Group 76">
<path id="Rectangle 11" d="M0 7.30435C0 3.27027 3.27027 0 7.30435 0H40.1739C44.208 0 47.4783 3.27027 47.4783 7.30435V48.6956C47.4783 52.7297 44.208 56 40.1739 56H7.30435C3.27027 56 0 52.7297 0 48.6956V7.30435Z" fill="white" fill-opacity="0.4"/>
<path id="Vector" fill-rule="evenodd" clip-rule="evenodd" d="M36.0419 19.967C32.7515 19.967 30.0839 17.2685 30.0839 13.94C30.0839 10.6115 32.7515 7.91309 36.0419 7.91309C39.3324 7.91309 41.9999 10.6115 41.9999 13.94C41.9999 17.2685 39.3324 19.967 36.0419 19.967ZM26.7927 15.4053H24.2798V17.9473C24.2798 18.1942 24.0821 18.3942 23.8383 18.3942H21.7891C21.5449 18.3942 21.3472 18.1942 21.3472 17.9473V15.0323C21.343 15.0074 21.3326 14.9845 21.3326 14.9587V12.8858C21.3326 12.7585 21.3861 12.6452 21.4705 12.564C21.5508 12.4785 21.6633 12.424 21.7891 12.424H23.8383C23.8647 12.424 23.8873 12.4346 23.9123 12.4392H26.7931C27.0372 12.4392 27.235 12.6392 27.235 12.8862V14.9592C27.2345 15.2053 27.0368 15.4053 26.7927 15.4053ZM23.8379 27.3154H21.7887C21.5445 27.3154 21.3468 27.1154 21.3468 26.8684V21.7917C21.3468 21.5447 21.5445 21.3447 21.7887 21.3447H23.8379C24.0816 21.3447 24.2794 21.5447 24.2794 21.7917V26.8684C24.2798 27.1154 24.0821 27.3154 23.8379 27.3154ZM24.2798 35.79C24.2798 36.0369 24.0821 36.237 23.8383 36.237H21.7891C21.5449 36.237 21.3472 36.0369 21.3472 35.79V30.7137C21.3472 30.4667 21.5449 30.2667 21.7891 30.2667H23.8383C24.0821 30.2667 24.2798 30.4667 24.2798 30.7137V35.79ZM21.3468 39.6348C21.3468 39.3879 21.5445 39.1878 21.7887 39.1878H23.8379C24.0816 39.1878 24.2794 39.3879 24.2794 39.6348V42.5502C24.2836 42.5751 24.294 42.598 24.294 42.6238V44.6967C24.294 44.824 24.2401 44.9374 24.1556 45.019C24.0754 45.104 23.9633 45.1585 23.8375 45.1585H21.7882C21.7627 45.1585 21.7406 45.148 21.7163 45.1437H18.8335C18.5898 45.1437 18.3916 44.9437 18.3916 44.6967V42.6238C18.3916 42.3772 18.5894 42.1768 18.8335 42.1768H21.3464L21.3468 39.6348ZM11.1093 48.087C8.67166 48.087 6.69556 46.088 6.69556 43.6222C6.69556 41.1564 8.67166 39.1574 11.1093 39.1574C13.5469 39.1574 15.523 41.1564 15.523 43.6222C15.523 46.088 13.5465 48.087 11.1093 48.087Z" fill="white"/>
</g>
</g>
</svg>
