<svg width="94" height="94" viewBox="0 0 94 94" fill="none" xmlns="http://www.w3.org/2000/svg">
<circle cx="47" cy="47" r="47" fill="#E3F1FE"/>
<path d="M56.6805 31.5277C56.6139 31.2626 56.4573 31.0289 56.2374 30.8667C56.0175 30.7045 55.748 30.6237 55.4751 30.6384L47.3466 31.5728C47.0292 31.6367 46.7497 31.8231 46.5689 32.0917C46.3882 32.3603 46.3206 32.6894 46.3809 33.0075L48.8125 54.1138C48.8252 54.4372 48.9652 54.7425 49.2021 54.9631C49.4389 55.1837 49.7534 55.3017 50.0769 55.2914L75.8588 52.3317C76.1762 52.2679 76.4557 52.0815 76.6365 51.8129C76.8173 51.5443 76.8848 51.2152 76.8245 50.8971L74.7889 33.1812C74.7745 32.8584 74.6339 32.5541 74.3974 32.3339C74.161 32.1137 73.8475 31.9951 73.5245 32.0036L59.4907 33.6154C58.2784 33.7404 57.1008 32.8824 56.6805 31.5277Z" fill="#263238"/>
<path d="M60.5754 23.8343C62.3719 31.6956 63.5198 39.6911 64.0074 47.7404C57.5973 48.4999 51.1883 49.0986 44.7804 49.5363C44.299 40.7483 42.9091 32.0338 40.6328 23.5321C45.1602 22.3139 49.6703 21.009 54.1629 19.6172C56.3305 20.9557 58.468 22.3614 60.5754 23.8343Z" fill="#A0C2E6"/>
<path d="M59.491 27.859C54.4819 29.1164 49.4578 30.2743 44.4186 31.3327C44.3663 31.3427 44.3126 31.3423 44.2605 31.3315C44.2084 31.3207 44.159 31.2996 44.1151 31.2696C44.0711 31.2395 44.0336 31.2011 44.0046 31.1565C43.9756 31.1119 43.9557 31.062 43.9462 31.0096C43.9243 30.9043 43.9443 30.7945 44.002 30.7037C44.0598 30.6129 44.1506 30.5482 44.2553 30.5233C49.2899 29.4464 54.3071 28.2642 59.3069 26.9766C59.3616 26.9657 59.418 26.9661 59.4726 26.978C59.5271 26.9898 59.5786 27.0127 59.6239 27.0453C59.6692 27.0778 59.7073 27.1194 59.7358 27.1674C59.7644 27.2153 59.7827 27.2686 59.7898 27.324C59.8147 27.4343 59.798 27.55 59.7429 27.6487C59.6877 27.7474 59.598 27.8223 59.491 27.859Z" fill="#5FA2E9"/>
<path d="M60.0333 30.6828C54.9988 31.8407 49.9538 32.8967 44.8984 33.8508C44.8459 33.8603 44.792 33.8592 44.7399 33.8477C44.6878 33.8362 44.6386 33.8145 44.5949 33.7838C44.5513 33.7531 44.5142 33.714 44.4858 33.6689C44.4574 33.6237 44.4382 33.5734 44.4294 33.5208C44.4088 33.4145 44.4308 33.3043 44.4905 33.2141C44.5503 33.1238 44.6431 33.0605 44.749 33.0379C49.7998 32.0537 54.839 30.9664 59.8666 29.7761C59.9208 29.7662 59.9765 29.7675 60.0302 29.7798C60.0839 29.7921 60.1346 29.8152 60.1791 29.8477C60.2236 29.8802 60.261 29.9214 60.2891 29.9688C60.3172 30.0162 60.3354 30.0688 60.3425 30.1235C60.3721 30.2386 60.3565 30.3606 60.299 30.4646C60.2416 30.5685 60.1465 30.6466 60.0333 30.6828Z" fill="#5FA2E9"/>
<path d="M60.5214 33.5309C55.466 34.5962 50.4013 35.5572 45.3274 36.4141C45.2742 36.4224 45.2198 36.42 45.1675 36.4069C45.1152 36.3939 45.0661 36.3704 45.023 36.3381C44.9799 36.3057 44.9438 36.265 44.9167 36.2184C44.8896 36.1718 44.8722 36.1202 44.8654 36.0667C44.856 36.0124 44.8576 35.9567 44.8701 35.9029C44.8825 35.8492 44.9056 35.7985 44.938 35.7538C44.9704 35.7091 45.0114 35.6714 45.0586 35.6428C45.1058 35.6142 45.1582 35.5954 45.2128 35.5874C50.2798 34.7027 55.3387 33.7115 60.3894 32.6139C60.4449 32.6056 60.5015 32.6088 60.5557 32.6233C60.6099 32.6377 60.6605 32.6632 60.7045 32.698C60.7484 32.7329 60.7848 32.7764 60.8113 32.8258C60.8377 32.8753 60.8538 32.9296 60.8584 32.9855C60.8837 33.1024 60.8627 33.2245 60.7999 33.3262C60.7371 33.4279 60.6372 33.5013 60.5214 33.5309Z" fill="#5FA2E9"/>
<path d="M60.9513 36.3858C55.8773 37.3561 50.7941 38.221 45.7017 38.9806C45.649 38.9879 45.5953 38.9847 45.5438 38.9712C45.4923 38.9577 45.4441 38.9341 45.4017 38.9018C45.3594 38.8695 45.3239 38.8291 45.2973 38.783C45.2707 38.7369 45.2535 38.686 45.2466 38.6332C45.2306 38.5246 45.2582 38.4141 45.3232 38.3256C45.3882 38.2372 45.4856 38.1779 45.594 38.1608C50.6888 37.3688 55.7662 36.4726 60.8262 35.4722C60.882 35.4649 60.9387 35.4692 60.9927 35.4848C61.0467 35.5004 61.097 35.5269 61.1403 35.5628C61.1836 35.5986 61.2191 35.643 61.2446 35.6931C61.27 35.7433 61.2849 35.7981 61.2882 35.8543C61.3105 35.9691 61.288 36.0881 61.2253 36.1869C61.1627 36.2857 61.0646 36.3569 60.9513 36.3858Z" fill="#5FA2E9"/>
<path d="M55.2486 40.2474C52.1778 40.7222 49.1047 41.161 46.0293 41.5639C45.9759 41.5697 45.9219 41.5648 45.8704 41.5496C45.8188 41.5343 45.7709 41.509 45.7292 41.4751C45.6875 41.4412 45.653 41.3993 45.6276 41.352C45.6022 41.3046 45.5864 41.2527 45.5812 41.1992C45.5681 41.0918 45.5969 40.9835 45.6616 40.8968C45.7263 40.8101 45.8219 40.7517 45.9286 40.7337C48.9994 40.3146 52.069 39.8572 55.1374 39.3616C55.1923 39.3559 55.2477 39.3612 55.3005 39.3772C55.3533 39.3933 55.4024 39.4197 55.4448 39.455C55.4872 39.4903 55.5221 39.5337 55.5475 39.5827C55.5728 39.6317 55.5881 39.6852 55.5925 39.7402C55.6103 39.8526 55.5846 39.9676 55.5208 40.0618C55.4569 40.156 55.3596 40.2223 55.2486 40.2474Z" fill="#5FA2E9"/>
<path d="M60.5726 23.8356C58.9029 24.2987 57.2286 24.7619 55.5496 25.2251C55.1258 23.3469 54.6627 21.4816 54.1602 19.6289C56.3278 20.9605 58.4652 22.3627 60.5726 23.8356Z" fill="#5FA2E9"/>
<path d="M61.0603 35.2698C61.048 35.1494 61.0115 35.0329 60.9529 34.927C60.8943 34.8212 60.8149 34.7283 60.7195 34.654C60.6241 34.5797 60.5146 34.5255 60.3977 34.4946C60.2807 34.4637 60.1588 34.4568 60.0391 34.4743L51.9106 35.4052C51.5924 35.4598 51.3015 35.6189 51.0838 35.8573C50.8661 36.0958 50.7341 36.3999 50.7087 36.7218L49.4547 54.1876C49.4343 54.3292 49.4473 54.4736 49.4924 54.6093C49.5376 54.745 49.6138 54.8683 49.7149 54.9695C49.8161 55.0706 49.9394 55.1468 50.0751 55.192C50.2108 55.2371 50.3552 55.2501 50.4968 55.2297L76.2822 52.291C76.6003 52.2376 76.8915 52.0794 77.1093 51.8415C77.3271 51.6035 77.459 51.2995 77.4841 50.9779L78.5262 36.5794C78.5488 36.4366 78.5376 36.2905 78.4935 36.1529C78.4494 36.0152 78.3737 35.8898 78.2723 35.7868C78.1709 35.6838 78.0468 35.6059 77.9099 35.5596C77.773 35.5132 77.6272 35.4996 77.4841 35.5199L63.4503 37.1317C63.1699 37.1746 62.8838 37.1598 62.6093 37.0882C62.3349 37.0167 62.0779 36.8899 61.8542 36.7156C61.6305 36.5413 61.4447 36.3231 61.3082 36.0745C61.1717 35.8259 61.0873 35.5521 61.0603 35.2698Z" fill="#5FA2E9"/>
<path d="M41.3179 48.8173C40.5954 56.0149 39.7061 63.1742 38.6501 70.2953C32.3117 69.2902 25.9687 68.3188 19.6211 67.3809C20.8809 58.8425 21.8952 50.2416 22.6641 41.5781C27.3258 42.0042 31.9933 42.4489 36.6666 42.912C38.2298 44.8573 39.7802 46.8257 41.3179 48.8173Z" fill="#5FA2E9"/>
<path opacity="0.7" d="M41.3179 48.8173C40.5954 56.0149 39.7061 63.1742 38.6501 70.2953C32.3117 69.2902 25.9687 68.3188 19.6211 67.3809C20.8809 58.8425 21.8952 50.2416 22.6641 41.5781C27.3258 42.0042 31.9933 42.4489 36.6666 42.912C38.2298 44.8573 39.7802 46.8257 41.3179 48.8173Z" fill="#BCD0E5"/>
<path d="M39.0778 51.867C33.9831 51.2625 28.8732 50.6836 23.7484 50.1301C23.6438 50.1162 23.5488 50.0619 23.4839 49.9787C23.4189 49.8956 23.3891 49.7903 23.401 49.6855C23.4149 49.5816 23.4687 49.4872 23.5511 49.4223C23.6335 49.3574 23.7379 49.3272 23.8421 49.3381C28.9554 49.8893 34.0664 50.4624 39.1751 51.0576C39.2815 51.0748 39.3771 51.1325 39.4419 51.2186C39.5066 51.3048 39.5355 51.4126 39.5225 51.5196C39.5069 51.6234 39.4522 51.7173 39.3694 51.782C39.2867 51.8466 39.1823 51.877 39.0778 51.867Z" fill="#5FA2E9"/>
<path d="M38.7862 54.4682C33.6915 53.8383 28.5851 53.2292 23.4672 52.641C23.362 52.6255 23.267 52.5697 23.2022 52.4854C23.1374 52.4012 23.1078 52.295 23.1198 52.1894C23.1345 52.0852 23.1891 51.9908 23.272 51.926C23.3549 51.8612 23.4598 51.8311 23.5644 51.842C28.6754 52.4233 33.7829 53.0243 38.887 53.6449C38.994 53.6621 39.0902 53.7203 39.1551 53.8072C39.2199 53.8941 39.2484 54.0028 39.2343 54.1104C39.2221 54.2171 39.1681 54.3147 39.0841 54.3818C39.0002 54.4488 38.8931 54.4799 38.7862 54.4682Z" fill="#5FA2E9"/>
<path d="M38.4867 57.0668C33.392 56.4068 28.2891 55.7688 23.1781 55.1527C23.0729 55.1372 22.9779 55.0814 22.9131 54.9972C22.8483 54.9129 22.8188 54.8068 22.8307 54.7012C22.8463 54.5967 22.9015 54.5022 22.985 54.4375C23.0685 54.3728 23.1738 54.3428 23.2788 54.3538C28.3736 54.9628 33.4777 55.5927 38.591 56.2435C38.698 56.2607 38.7942 56.3189 38.8591 56.4058C38.9239 56.4927 38.9523 56.6014 38.9383 56.709C38.9253 56.816 38.8705 56.9136 38.786 56.9806C38.7015 57.0476 38.594 57.0785 38.4867 57.0668Z" fill="#5FA2E9"/>
<path d="M38.1698 59.6626C33.0751 58.9678 27.9803 58.302 22.8855 57.6652C22.78 57.6505 22.6844 57.5949 22.6194 57.5104C22.5545 57.426 22.5253 57.3194 22.5381 57.2136C22.552 57.1083 22.6068 57.0128 22.6908 56.9478C22.7747 56.8827 22.8808 56.8534 22.9862 56.8662C28.081 57.5008 33.1816 58.1584 38.2879 58.8393C38.3957 58.8564 38.4924 58.9152 38.5574 59.0028C38.6223 59.0905 38.6503 59.2002 38.6353 59.3082C38.6285 59.3623 38.611 59.4144 38.5838 59.4616C38.5566 59.5088 38.5203 59.5501 38.4769 59.5831C38.4336 59.6161 38.3841 59.6401 38.3314 59.6537C38.2787 59.6674 38.2237 59.6704 38.1698 59.6626Z" fill="#5FA2E9"/>
<path d="M31.7627 61.4092C28.6919 60.99 25.6212 60.5767 22.5504 60.1691C22.4978 60.1627 22.4469 60.1458 22.4008 60.1196C22.3548 60.0933 22.3144 60.0581 22.2821 60.0161C22.2497 59.9741 22.2261 59.926 22.2125 59.8748C22.1989 59.8235 22.1957 59.77 22.203 59.7175C22.2169 59.6122 22.2717 59.5167 22.3556 59.4517C22.4396 59.3866 22.5457 59.3573 22.6511 59.3701C25.7265 59.7708 28.7973 60.1783 31.8634 60.5929C31.9709 60.6092 32.0676 60.6672 32.1326 60.7543C32.1976 60.8414 32.2257 60.9507 32.2108 61.0584C32.1969 61.1639 32.1422 61.2597 32.0584 61.3253C31.9746 61.3909 31.8684 61.421 31.7627 61.4092Z" fill="#5FA2E9"/>
<path d="M41.3147 48.8211L36.1563 48.2514C36.3369 46.4683 36.5059 44.6839 36.6634 42.8984C38.2266 44.8553 39.777 46.8295 41.3147 48.8211Z" fill="#5FA2E9"/>
</svg>
