<svg width="16" height="16" viewBox="0 0 16 16" fill="none" xmlns="http://www.w3.org/2000/svg">
<path d="M6.56415 5.57279H4.88992V3.92699C4.88992 3.80394 4.7885 3.7041 4.6635 3.7041L4.66262 3.70428L4.66173 3.7041C3.48897 3.7041 2.53467 4.64353 2.53467 5.798C2.53467 6.95247 3.48897 7.8919 4.66173 7.8919C5.83162 7.8919 6.78371 6.95697 6.78837 5.80642C6.78856 5.80264 6.79056 5.79949 6.79056 5.79568C6.79056 5.67263 6.68915 5.57279 6.56415 5.57279ZM4.66173 7.44613C3.73868 7.44613 2.9875 6.70666 2.9875 5.798C2.9875 4.9645 3.62009 4.27517 4.43709 4.16649V5.79568C4.43709 5.91873 4.5385 6.01856 4.6635 6.01856H6.31916C6.20905 6.82307 5.50863 7.44613 4.66173 7.44613Z" fill="#595656"/>
<path d="M5.46372 3.30566C5.40358 3.30566 5.34609 3.32917 5.30364 3.37096C5.26118 3.41275 5.2373 3.46964 5.2373 3.52855L5.23819 5.00777C5.23819 5.13082 5.3396 5.23066 5.4646 5.23066L6.96726 5.23153C7.0274 5.23153 7.08489 5.20802 7.12734 5.16623C7.16979 5.12444 7.19367 5.06785 7.19367 5.00864C7.19367 4.06951 6.41773 3.30566 5.46372 3.30566ZM5.69102 4.78489L5.69013 3.77117C6.21342 3.86375 6.62675 4.27063 6.7208 4.78576L5.69102 4.78489Z" fill="#595656"/>
<path d="M11.1245 9.7227C11.8817 9.30755 12.3956 8.51218 12.3956 7.60007C12.3956 6.31304 11.3701 5.25982 10.0807 5.18178V2.30576C10.3571 2.24227 10.5642 1.999 10.5642 1.70785V1.11232C10.5642 0.773064 10.2838 0.49707 9.93919 0.49707H1.38818C1.04355 0.49707 0.763184 0.773064 0.763184 1.11232V1.70785C0.763184 1.99893 0.970104 2.24209 1.24638 2.30569V8.11752C1.24638 8.67299 1.7057 9.12515 2.26996 9.12515H5.43712V9.45686H5.26878C5.14378 9.45686 5.04237 9.55669 5.04237 9.67975C5.04237 9.8028 5.14378 9.90263 5.26878 9.90263H6.05858C6.18358 9.90263 6.285 9.8028 6.285 9.67975C6.285 9.55669 6.18358 9.45686 6.05858 9.45686H5.88995V9.12515H8.01315C8.21144 9.3666 8.45547 9.56968 8.73241 9.72197C6.39176 10.2565 4.63352 12.3201 4.62315 14.7829C4.62285 14.8421 4.64673 14.899 4.68919 14.941C4.73164 14.9831 4.78942 15.0066 4.84956 15.0066H15.0102C15.0704 15.0066 15.1282 14.9831 15.1706 14.941C15.2131 14.899 15.2369 14.8421 15.2366 14.7829C15.2263 12.3211 13.467 10.2583 11.1245 9.7227ZM9.92975 11.9591L10.3504 13.2952L9.92975 13.9079L9.50906 13.2952L9.92975 11.9591ZM9.92975 10.8014L9.42938 10.0546C9.59286 10.0381 9.75845 10.0289 9.92621 10.0289C10.0963 10.0289 10.2641 10.0386 10.4298 10.0555L9.92975 10.8014ZM1.21601 1.11232C1.21601 1.01888 1.29325 0.94284 1.38818 0.94284H9.93919C10.0341 0.94284 10.1114 1.01888 10.1114 1.11232V1.70785C10.1114 1.80129 10.0341 1.87733 9.93919 1.87733H9.85428H1.47279H1.38818C1.29325 1.87733 1.21601 1.80129 1.21601 1.70785V1.11232ZM2.26996 8.67938C1.95511 8.67938 1.69921 8.42747 1.69921 8.11752V2.3231H9.62786V5.19408C8.41057 5.34068 7.46424 6.36278 7.46424 7.60007C7.46424 7.98805 7.55936 8.35376 7.72414 8.67938H2.26996ZM7.91707 7.60007C7.91707 6.50828 8.8192 5.61994 9.92828 5.61994C11.0391 5.61994 11.9427 6.50828 11.9427 7.60007C11.9427 8.6936 11.0391 9.58311 9.92828 9.58311C8.8192 9.58311 7.91707 8.6936 7.91707 7.60007ZM5.08217 14.5609C5.1949 12.3718 6.81697 10.5664 8.93793 10.1308L9.68172 11.2409L9.04414 13.2656C9.0238 13.3301 9.03441 13.4003 9.07303 13.4563L9.74225 14.4306C9.78441 14.4918 9.85457 14.5286 9.92975 14.5286C10.0049 14.5286 10.0751 14.4918 10.1173 14.4306L10.7865 13.4563C10.8251 13.4003 10.8357 13.3301 10.8154 13.2656L10.1778 11.2409L10.921 10.132C13.0426 10.5695 14.6647 12.3736 14.7776 14.5609H5.08217Z" fill="#595656"/>
</svg>
