<svg width="24" height="24" viewBox="0 0 24 24" fill="none" xmlns="http://www.w3.org/2000/svg">
<circle cx="12" cy="12" r="12" fill="#DEEBFF"/>
<mask id="mask0_3879_4316" style="mask-type:alpha" maskUnits="userSpaceOnUse" x="5" y="5" width="14" height="14">
<rect x="5" y="5" width="14" height="14" fill="#D9D9D9"/>
</mask>
<g mask="url(#mask0_3879_4316)">
<path d="M9.66675 13.75H14.3334V13.4292C14.3334 12.9917 14.1195 12.6441 13.6917 12.3865C13.264 12.1288 12.7001 12 12.0001 12C11.3001 12 10.7362 12.1288 10.3084 12.3865C9.88064 12.6441 9.66675 12.9917 9.66675 13.4292V13.75ZM12.0001 11.4167C12.3209 11.4167 12.5956 11.3024 12.824 11.074C13.0525 10.8455 13.1667 10.5708 13.1667 10.25C13.1667 9.92917 13.0525 9.65451 12.824 9.42604C12.5956 9.19757 12.3209 9.08333 12.0001 9.08333C11.6792 9.08333 11.4046 9.19757 11.1761 9.42604C10.9477 9.65451 10.8334 9.92917 10.8334 10.25C10.8334 10.5708 10.9477 10.8455 11.1761 11.074C11.4046 11.3024 11.6792 11.4167 12.0001 11.4167ZM9.66675 17.25V16.0833H7.33341C7.01258 16.0833 6.73793 15.9691 6.50946 15.7406C6.28098 15.5122 6.16675 15.2375 6.16675 14.9167V7.91667C6.16675 7.59583 6.28098 7.32118 6.50946 7.09271C6.73793 6.86424 7.01258 6.75 7.33341 6.75H16.6667C16.9876 6.75 17.2622 6.86424 17.4907 7.09271C17.7192 7.32118 17.8334 7.59583 17.8334 7.91667V14.9167C17.8334 15.2375 17.7192 15.5122 17.4907 15.7406C17.2622 15.9691 16.9876 16.0833 16.6667 16.0833H14.3334V17.25H9.66675ZM7.33341 14.9167H16.6667V7.91667H7.33341V14.9167Z" fill="#112664"/>
</g>
</svg>
