<svg width="40" height="40" viewBox="0 0 40 40" fill="none" xmlns="http://www.w3.org/2000/svg">
<rect width="39.7367" height="40" rx="4" fill="#0B1941"/>
<g clip-path="url(#clip0_4035_10781)">
<path d="M31.9246 22.8885L21.0209 19.2541C20.8034 19.1813 20.5635 19.2382 20.4011 19.4006C20.2387 19.563 20.1822 19.8029 20.2546 20.0205L23.8894 30.9241C23.9717 31.1713 24.203 31.3381 24.4641 31.3381C24.7251 31.3381 24.9565 31.1713 25.0387 30.9241L26.7605 25.7596L31.925 24.0378C32.1723 23.9555 32.339 23.7242 32.339 23.4632C32.3385 23.2021 32.1718 22.9708 31.9246 22.8885ZM26.0894 24.7055C25.9085 24.7658 25.7667 24.9075 25.7064 25.0885L24.4637 28.8163L21.7869 20.7859L29.8173 23.4627L26.0894 24.7055ZM19.8092 23.9878H15.2965V23.3822C15.2965 23.0475 15.0255 22.7765 14.6908 22.7765H14.0851V14.296H14.6908C15.0255 14.296 15.2965 14.025 15.2965 13.6903V13.0846H23.777V13.6903C23.777 14.025 24.048 14.296 24.3827 14.296H24.9883V18.8091C24.9883 19.1438 25.2593 19.4148 25.594 19.4148C25.9287 19.4148 26.1997 19.1438 26.1997 18.8091V14.296H26.8053C27.14 14.296 27.411 14.025 27.411 13.6903V11.2668C27.411 10.9321 27.14 10.6611 26.8053 10.6611H24.3822C24.0475 10.6611 23.7766 10.9321 23.7766 11.2668V11.8725H15.2965V11.2668C15.2965 10.9321 15.0255 10.6611 14.6908 10.6611H12.2673C11.9326 10.6611 11.6616 10.9321 11.6616 11.2668V13.6899C11.6616 14.0246 11.9326 14.2955 12.2673 14.2955H12.8729V22.7761H12.2673C11.9326 22.7761 11.6616 23.047 11.6616 23.3817V25.8048C11.6616 26.1395 11.9326 26.4105 12.2673 26.4105H14.6904C15.0251 26.4105 15.296 26.1395 15.296 25.8048V25.1996H19.8092C20.1439 25.1996 20.4149 24.9286 20.4149 24.5939C20.4149 24.2592 20.1439 23.9878 19.8092 23.9878ZM24.9888 11.8725H26.2001V13.0838H24.9888V11.8725ZM12.8734 11.8725H14.0847V13.0838H12.8734V11.8725ZM14.0847 25.1996H12.8734V23.9883H14.0847V25.1996Z" fill="#FAFAFA"/>
</g>
<defs>
<clipPath id="clip0_4035_10781">
<rect width="24" height="26" fill="white" transform="translate(8 7)"/>
</clipPath>
</defs>
</svg>
