<svg width="16" height="16" viewBox="0 0 16 16" fill="none" xmlns="http://www.w3.org/2000/svg">
<path d="M12.6667 2C13.0203 2 13.3594 2.14048 13.6095 2.39052C13.8595 2.64057 14 2.97971 14 3.33333V12.6667C14 13.0203 13.8595 13.3594 13.6095 13.6095C13.3594 13.8595 13.0203 14 12.6667 14H3.33333C2.97971 14 2.64057 13.8595 2.39052 13.6095C2.14048 13.3594 2 13.0203 2 12.6667V3.33333C2 2.97971 2.14048 2.64057 2.39052 2.39052C2.64057 2.14048 2.97971 2 3.33333 2H12.6667ZM12.6667 3.33333H3.33333V12.6667H12.6667V3.33333ZM8.02467 5.15267C8.20533 4.574 8.98467 4.51933 9.258 5.03L9.29267 5.10333L10.4513 8H11.3333C11.5033 8.00019 11.6667 8.06525 11.7902 8.1819C11.9138 8.29854 11.9882 8.45797 11.9981 8.6276C12.0081 8.79722 11.9529 8.96425 11.8438 9.09455C11.7348 9.22486 11.5801 9.3086 11.4113 9.32867L11.3333 9.33333H10.0047C9.88394 9.33341 9.76541 9.30102 9.66149 9.23956C9.55757 9.1781 9.47209 9.08983 9.414 8.984L9.37933 8.91067L8.744 7.32133L7.64133 10.85C7.46867 11.402 6.738 11.4853 6.43667 11.02L6.39667 10.95L5.58733 9.33333H4.66667C4.49675 9.33315 4.33331 9.26808 4.20975 9.15143C4.0862 9.03479 4.01184 8.87536 4.00189 8.70574C3.99193 8.53611 4.04712 8.36908 4.15618 8.23878C4.26524 8.10848 4.41994 8.02474 4.58867 8.00467L4.66667 8H5.996C6.22267 8 6.432 8.11333 6.556 8.29933L6.598 8.37267L6.85667 8.89L8.02467 5.15267Z" fill="#043365"/>
</svg>
