<svg width="24" height="24" viewBox="0 0 24 24" fill="none" xmlns="http://www.w3.org/2000/svg">
<g clip-path="url(#clip0_1342_1976)">
<path d="M7.86672 17.5333L7.86665 8H6L6.00008 17.5333C6.00008 18.4527 6.29507 19.3345 6.82017 19.9846C7.34526 20.6348 8.05745 21 8.80005 21H13V18.6889H8.80005C8.55251 18.6889 8.31512 18.5671 8.14009 18.3504C7.96505 18.1337 7.86672 17.8398 7.86672 17.5333Z" fill="#008CE6"/>
<path d="M17.48 7.08515L6 7.08507L6 5L17.48 5.00009C18.4135 5.00009 19.3089 5.3296 19.969 5.91614C20.6291 6.50268 21 7.2982 21 8.12769L21 13L18.6533 13L18.6533 8.12769C18.6533 7.85119 18.5297 7.58602 18.3097 7.3905C18.0896 7.19499 17.7912 7.08515 17.48 7.08515Z" fill="#008CE6"/>
<path d="M20.2683 20.1916C20.4099 20.0498 20.4894 19.8575 20.4893 19.6571L20.4893 14.6249L18.9782 14.6249L18.9782 17.8324L14.3114 13.1655C14.6376 12.5814 14.7414 11.8989 14.6038 11.2441C14.4661 10.5894 14.0963 10.0065 13.5626 9.60303C13.0289 9.19957 12.3672 9.00276 11.6998 9.04893C11.0323 9.0951 10.404 9.38112 9.93093 9.85422C9.45783 10.3273 9.17181 10.9556 9.12564 11.6231C9.07947 12.2905 9.27628 12.9522 9.67974 13.4859C10.0832 14.0196 10.6661 14.3894 11.3209 14.5271C11.9756 14.6647 12.6581 14.5608 13.2423 14.2347L17.9091 18.9015L14.7016 18.9015L14.7016 20.4126L19.7338 20.4126C19.9342 20.4127 20.1265 20.3332 20.2683 20.1916ZM11.0024 12.7076C10.8262 12.5314 10.7062 12.3069 10.6576 12.0625C10.6089 11.818 10.6339 11.5647 10.7293 11.3345C10.8246 11.1042 10.9861 10.9074 11.1933 10.769C11.4005 10.6305 11.6441 10.5566 11.8934 10.5566C12.1426 10.5566 12.3862 10.6305 12.5934 10.769C12.8006 10.9074 12.9621 11.1042 13.0574 11.3345C13.1528 11.5647 13.1778 11.818 13.1291 12.0625C13.0805 12.3069 12.9605 12.5314 12.7843 12.7076C12.548 12.9439 12.2275 13.0766 11.8934 13.0766C11.5592 13.0766 11.2387 12.9439 11.0024 12.7076Z" fill="#008CE6"/>
</g>
<defs>
<clipPath id="clip0_1342_1976">
<rect width="24" height="24" fill="white"/>
</clipPath>
</defs>
</svg>
