<svg width="18" height="19" viewBox="0 0 18 19" fill="none" xmlns="http://www.w3.org/2000/svg">
<path d="M15.2954 5.55214L15.2955 15.0854L17.1621 15.0854L17.162 5.55214C17.162 4.63272 16.867 3.75095 16.3419 3.10082C15.8168 2.45069 15.1047 2.08545 14.3621 2.08545L10.1621 2.08545L10.1621 4.39658L14.3621 4.39658C14.6096 4.39658 14.847 4.51832 15.022 4.73503C15.1971 4.95174 15.2954 5.24567 15.2954 5.55214Z" fill="#008CE6"/>
<path d="M5.68214 16.0003L17.1621 16.0004L17.1621 18.0854L5.68214 18.0854C4.74857 18.0854 3.85323 17.7558 3.1931 17.1693C2.53297 16.5828 2.16211 15.7873 2.16211 14.9578L2.16211 10.0854L4.50879 10.0854L4.50879 14.9578C4.50879 15.2343 4.63241 15.4994 4.85245 15.6949C5.0725 15.8905 5.37095 16.0003 5.68214 16.0003Z" fill="#008CE6"/>
<path d="M2.89377 2.89382C2.75217 3.03568 2.67269 3.22796 2.67282 3.42839L2.67282 8.46051L4.18388 8.46051L4.18388 5.25307L8.8507 9.9199C8.52456 10.5041 8.42073 11.1865 8.55834 11.8413C8.69596 12.4961 9.06576 13.079 9.59949 13.4824C10.1332 13.8859 10.7949 14.0827 11.4623 14.0365C12.1298 13.9903 12.7581 13.7043 13.2312 13.2312C13.7043 12.7581 13.9903 12.1299 14.0365 11.4624C14.0826 10.7949 13.8858 10.1333 13.4824 9.59954C13.0789 9.06581 12.496 8.69601 11.8413 8.55839C11.1865 8.42078 10.504 8.52461 9.91985 8.85075L5.25302 4.18393L8.46047 4.18393L8.46046 2.67287L3.42835 2.67286C3.22791 2.67274 3.03563 2.75222 2.89377 2.89382ZM12.1597 10.3779C12.3359 10.5541 12.4559 10.7786 12.5045 11.023C12.5532 11.2674 12.5282 11.5208 12.4328 11.751C12.3375 11.9812 12.176 12.178 11.9688 12.3165C11.7616 12.4549 11.518 12.5288 11.2688 12.5288C11.0196 12.5288 10.7759 12.4549 10.5687 12.3165C10.3615 12.178 10.2 11.9812 10.1047 11.751C10.0093 11.5208 9.98434 11.2674 10.033 11.023C10.0816 10.7786 10.2016 10.5541 10.3778 10.3779C10.6141 10.1416 10.9346 10.0088 11.2688 10.0088C11.6029 10.0088 11.9234 10.1416 12.1597 10.3779Z" fill="#008CE6"/>
</svg>
