<svg width="24" height="24" viewBox="0 0 24 24" fill="none" xmlns="http://www.w3.org/2000/svg">
<g id="Group 1000003599">
<circle id="Ellipse 383" cx="12" cy="12" r="12" fill="#DEEBFF"/>
<g id="question_mark">
<mask id="mask0_218_3726" style="mask-type:alpha" maskUnits="userSpaceOnUse" x="4" y="4" width="16" height="16">
<rect id="Bounding box" x="4" y="4" width="16" height="16" fill="#D9D9D9"/>
</mask>
<g mask="url(#mask0_218_3726)">
<path id="question_mark_2" d="M11.0667 14.6667C11.0667 13.7667 11.1473 13.1194 11.3084 12.725C11.4695 12.3306 11.8111 11.9 12.3334 11.4333C12.7889 11.0333 13.1361 10.6861 13.375 10.3917C13.6139 10.0972 13.7334 9.76111 13.7334 9.38333C13.7334 8.92778 13.5806 8.55 13.275 8.25C12.9695 7.95 12.5445 7.8 12 7.8C11.4334 7.8 11.0028 7.97222 10.7084 8.31667C10.4139 8.66111 10.2056 9.01111 10.0834 9.36667L8.3667 8.63333C8.60003 7.92222 9.02781 7.30556 9.65003 6.78333C10.2723 6.26111 11.0556 6 12 6C13.1667 6 14.0639 6.325 14.6917 6.975C15.3195 7.625 15.6334 8.40556 15.6334 9.31667C15.6334 9.87222 15.5139 10.3472 15.275 10.7417C15.0361 11.1361 14.6611 11.5833 14.15 12.0833C13.6056 12.6056 13.275 13.0028 13.1584 13.275C13.0417 13.5472 12.9834 14.0111 12.9834 14.6667H11.0667ZM12 18.6667C11.6334 18.6667 11.3195 18.5361 11.0584 18.275C10.7973 18.0139 10.6667 17.7 10.6667 17.3333C10.6667 16.9667 10.7973 16.6528 11.0584 16.3917C11.3195 16.1306 11.6334 16 12 16C12.3667 16 12.6806 16.1306 12.9417 16.3917C13.2028 16.6528 13.3334 16.9667 13.3334 17.3333C13.3334 17.7 13.2028 18.0139 12.9417 18.275C12.6806 18.5361 12.3667 18.6667 12 18.6667Z" fill="#043365"/>
</g>
</g>
</g>
</svg>
