<svg width="15" height="14" viewBox="0 0 15 14" fill="none" xmlns="http://www.w3.org/2000/svg">
<path d="M14.4998 12.9295L10.7238 9.21236C11.6312 8.14 12.0837 6.76455 11.9871 5.37214C11.8906 3.97973 11.2524 2.67757 10.2054 1.73653C9.15843 0.795502 7.78318 0.288057 6.36579 0.31976C4.9484 0.351464 3.59799 0.919876 2.59548 1.90675C1.59298 2.89362 1.01556 4.22298 0.983357 5.61827C0.951151 7.01356 1.46663 8.36736 2.42257 9.39804C3.37851 10.4287 4.7013 11.0569 6.11577 11.152C7.53023 11.247 8.92747 10.8016 10.0168 9.90834L13.7928 13.6255L14.4998 12.9295ZM1.99981 5.7502C1.99981 4.87406 2.26373 4.0176 2.7582 3.28912C3.25267 2.56064 3.95547 1.99285 4.77774 1.65757C5.60001 1.32229 6.50481 1.23456 7.37772 1.40549C8.25063 1.57641 9.05246 1.99831 9.68179 2.61784C10.3111 3.23736 10.7397 4.02668 10.9133 4.88598C11.087 5.74529 10.9979 6.63598 10.6573 7.44543C10.3167 8.25487 9.7399 8.94672 8.99988 9.43347C8.25986 9.92023 7.38983 10.18 6.49981 10.18C5.30675 10.1787 4.16292 9.7116 3.31929 8.88113C2.47567 8.05066 2.00114 6.92467 1.99981 5.7502Z" fill="#595656"/>
</svg>
