<svg width="64" height="64" viewBox="0 0 64 64" fill="none" xmlns="http://www.w3.org/2000/svg">
<path id="Subtract" fill-rule="evenodd" clip-rule="evenodd" d="M19.0216 2.75065C7.82466 7.73799 0 18.9719 0 32C0 49.6457 14.3543 64 32 64C35.5426 64 38.9525 63.4214 42.1403 62.3538L37.4893 57.5308L36.7451 58.2749C36.2401 58.6104 35.7216 58.6293 35.4184 58.3201C35.165 58.0617 35.084 57.557 35.4686 57.0033L35.8919 56.5799C34.5944 55.3279 31.591 52.8866 29.4453 51.7075C27.2112 51.9651 24.3555 51.5267 21.1041 50.3872C16.5337 48.785 11.8748 46.1057 9.51108 43.7196C7.19531 41.3825 6.03778 38.2372 6.03778 35.0898C6.03778 31.9424 7.19566 28.7932 9.51179 26.4497C11.7405 24.1947 14.7862 22.9494 18.0879 22.9434C21.3853 22.9373 24.5522 24.2157 26.777 26.4505C29.1443 28.8284 31.8862 33.5964 33.446 38.0456C34.5971 41.3305 35.0329 44.2124 34.7577 46.457C35.9728 48.5738 38.3906 51.5219 39.6397 52.8319L40.0528 52.4187C40.6673 52.0054 41.1421 52.1162 41.3831 52.3611C41.639 52.6206 41.7196 53.1313 41.3294 53.691L40.5653 54.455L46.5881 60.4776C56.9181 55.1647 64 44.3943 64 32C64 14.3543 49.6457 0 32 0C29.0945 0 26.2782 0.389175 23.6006 1.11814L25.2126 2.78982L25.9568 2.04571C26.4618 1.71021 26.9803 1.69138 27.2835 2.00057C27.5369 2.25895 27.6179 2.76361 27.2334 3.31732L26.81 3.74073C28.1076 4.99273 31.1109 7.43408 33.2567 8.61318C35.4907 8.35549 38.3465 8.79392 41.5978 9.93346C46.1682 11.5356 50.8271 14.2149 53.1909 16.6011C55.5066 18.9382 56.6642 22.0834 56.6642 25.2308C56.6642 28.3782 55.5063 31.5274 53.1902 33.8709C50.9615 36.1259 47.9157 37.3712 44.6141 37.3772C41.3167 37.3833 38.1497 36.1049 35.925 33.8702C33.5577 31.4922 30.8158 26.7242 29.2559 22.275C28.1049 18.9901 27.6691 16.1082 27.9443 13.8636C26.7292 11.7469 24.3113 8.79872 23.0623 7.48875L22.6491 7.90195C22.0346 8.31527 21.5598 8.20439 21.3189 7.95952C21.063 7.70008 20.9823 7.18937 21.3725 6.62962L22.1366 5.86559L19.0216 2.75065ZM31.0912 9.16407C29.3897 8.09964 26.8692 5.94116 25.7164 4.83439L24.1557 6.3952C25.2642 7.55953 27.4029 10.0398 28.5026 11.7321C28.764 11.1387 29.1057 10.6267 29.5274 10.205C29.9578 9.7746 30.4822 9.42756 31.0912 9.16407ZM36.9855 55.4862C35.8327 54.3795 33.3123 52.221 31.6107 51.1566C32.2198 50.8931 32.7442 50.546 33.1745 50.1157C33.5962 49.694 33.9379 49.182 34.1993 48.5885C35.299 50.2808 37.4377 52.7611 38.5462 53.9254L36.9855 55.4862Z" fill="#20FF79"/>
</svg>
