<svg width="16" height="17" viewBox="0 0 16 17" fill="none" xmlns="http://www.w3.org/2000/svg">
<g id="noun-release-management-2714801 2" clip-path="url(#clip0_3470_12071)">
<g id="Group">
<g id="Group_2">
<g id="Group_3">
<g id="Group_4">
<path id="Vector" d="M5.673 12.5716H0.8125C0.6745 12.5716 0.5625 12.4613 0.5625 12.3255C0.5625 12.1897 0.6745 12.0794 0.8125 12.0794H5.423V7.72364C5.423 7.58779 5.535 7.47754 5.673 7.47754C5.811 7.47754 5.923 7.58779 5.923 7.72364V12.3255C5.923 12.4615 5.811 12.5716 5.673 12.5716Z" fill="#595656"/>
</g>
<g id="Group_5">
<path id="Vector_2" d="M14.8338 12.5716H9.64258C9.50458 12.5716 9.39258 12.4613 9.39258 12.3255V7.72364C9.39258 7.58779 9.50458 7.47754 9.64258 7.47754C9.78058 7.47754 9.89258 7.58779 9.89258 7.72364V12.0794H14.8338C14.9718 12.0794 15.0838 12.1897 15.0838 12.3255C15.0838 12.4613 14.972 12.5716 14.8338 12.5716Z" fill="#595656"/>
</g>
<path id="Vector_3" d="M7.65771 16.0476C7.51971 16.0476 7.40771 15.9373 7.40771 15.8014V7.78419C7.40771 7.64834 7.51971 7.53809 7.65771 7.53809C7.79571 7.53809 7.90771 7.64834 7.90771 7.78419V15.8014C7.90771 15.9374 7.79584 16.0476 7.65771 16.0476Z" fill="#595656"/>
<path id="Vector_4" d="M1.60838 13.3147C1.54513 13.3147 1.48175 13.2912 1.43313 13.2441L0.637252 12.4738C0.589752 12.4279 0.562877 12.365 0.562502 12.2995C0.562252 12.2339 0.588502 12.1708 0.635502 12.1244L1.362 11.4081C1.45963 11.3118 1.61788 11.312 1.71563 11.4079C1.81338 11.5039 1.8135 11.6598 1.71588 11.7559L1.16738 12.2967L1.78363 12.8932C1.88213 12.9885 1.88338 13.1443 1.78663 13.2412C1.73775 13.2902 1.67313 13.3147 1.60838 13.3147Z" fill="#595656"/>
<path id="Vector_5" d="M14.3916 13.3148C14.3268 13.3148 14.2622 13.2903 14.2133 13.2412C14.1166 13.1442 14.1178 12.9884 14.2163 12.8932L14.8326 12.2966L14.2841 11.7558C14.1866 11.6597 14.1867 11.5038 14.2843 11.4078C14.3821 11.312 14.5403 11.3119 14.638 11.4081L15.3645 12.1244C15.4115 12.1708 15.4378 12.2339 15.4375 12.2995C15.4372 12.3649 15.4102 12.4278 15.3627 12.4737L14.5668 13.244C14.5182 13.2913 14.4548 13.3148 14.3916 13.3148Z" fill="#595656"/>
<path id="Vector_6" d="M7.62564 16.2023C7.56214 16.2023 7.49864 16.1787 7.45002 16.1313L6.71839 15.4201C6.62014 15.3246 6.61914 15.1688 6.71614 15.0721C6.81314 14.9753 6.97139 14.9745 7.06964 15.0699L7.62477 15.6096L8.23952 15.0064C8.33739 14.9103 8.49564 14.9108 8.59314 15.0069C8.69064 15.1031 8.69039 15.259 8.59264 15.3549L7.80227 16.1306C7.75339 16.1785 7.68952 16.2023 7.62564 16.2023Z" fill="#595656"/>
</g>
<g id="Group_6">
<g id="Group_7">
<path id="Vector_7" d="M10.7255 7.96968H4.86895C3.72745 7.96968 2.79883 7.08002 2.79883 5.98647C2.79883 5.26416 3.21558 4.59956 3.87283 4.25367C3.96508 3.30322 4.80333 2.55396 5.81195 2.55396C5.96745 2.55396 6.13033 2.57451 6.29258 2.61414C6.46358 2.22739 6.74358 1.87029 7.0987 1.59084C7.58833 1.21308 8.20233 1.00586 8.82983 1.00586C10.2622 1.00586 11.4348 2.03161 11.5758 3.37188C11.9887 3.51647 12.3625 3.77057 12.6422 4.09948C13.0026 4.51478 13.2011 5.04747 13.2011 5.59935C13.2011 6.90627 12.0905 7.96968 10.7255 7.96968ZM5.81208 3.04617C5.02195 3.04617 4.37258 3.6597 4.36458 4.41375C4.36358 4.51023 4.30533 4.59735 4.2157 4.63635C3.65883 4.87876 3.29895 5.40862 3.29895 5.98647C3.29895 6.8087 4.00333 7.47748 4.86908 7.47748H10.7256C11.815 7.47748 12.7012 6.63495 12.7012 5.59935C12.7012 5.16412 12.545 4.74476 12.2613 4.41818C12.2607 4.41745 12.2602 4.41683 12.2596 4.41609C12.0063 4.11794 11.6557 3.89682 11.2725 3.79333C11.1671 3.76503 11.0927 3.6725 11.0887 3.56495C11.046 2.40593 10.0538 1.49794 8.82995 1.49794C8.31383 1.49794 7.8092 1.66787 7.40933 1.97661C7.06358 2.2488 6.80483 2.60971 6.68245 2.99104C6.66183 3.05527 6.61545 3.10831 6.55408 3.13796C6.49258 3.1675 6.42158 3.17119 6.35745 3.14781C6.17408 3.08136 5.98545 3.04617 5.81208 3.04617Z" fill="#595656"/>
</g>
</g>
</g>
</g>
</g>
<defs>
<clipPath id="clip0_3470_12071">
<rect width="16" height="15.7505" fill="white" transform="translate(0 0.758789)"/>
</clipPath>
</defs>
</svg>
