<svg width="82" height="98" viewBox="0 0 82 98" fill="none" xmlns="http://www.w3.org/2000/svg">
<g id="Group 1000004144">
<path id="Ellipse 406" d="M81.3898 47.334C81.3898 68.8471 63.7303 86.2975 41.933 86.2975C20.1356 86.2975 2.47607 68.8471 2.47607 47.334C2.47607 25.8208 20.1356 8.37036 41.933 8.37036C63.7303 8.37036 81.3898 25.8208 81.3898 47.334Z" fill="#F0F0F0" stroke="#9CB6CA"/>
<g id="Group 1000004140">
<g id="Group 1000004137">
<path id="Vector" d="M66.2074 18.7621H18.7896V47.3641H66.2074V18.7621Z" fill="white"/>
<path id="Vector_2" d="M66.2073 47.3641C66.2073 47.2048 66.1995 36.2862 66.1879 18.7621L66.2073 18.7825L18.7924 18.7883L18.8176 18.763C18.8176 28.896 18.8176 38.5657 18.8176 47.3651L18.7943 47.3418L66.2122 47.3651L18.7943 47.3884H18.771V47.3651C18.771 38.5657 18.771 28.896 18.771 18.763V18.7378H18.7992L66.2141 18.7436H66.2335V18.763C66.2151 36.2862 66.2073 47.2048 66.2073 47.3641Z" fill="#263238"/>
<path id="Vector_3" d="M24.9927 23.6143C24.9927 23.6143 24.7382 25.9452 25.0655 27.2234L28.1822 27.0874C28.1822 27.0874 27.515 24.7865 27.9249 23.7667L24.9927 23.6143Z" fill="#E0E0E0"/>
<path id="Vector_4" d="M27.631 24.6744C27.631 24.6879 27.158 24.7278 26.5733 24.7627C25.9886 24.7977 25.5127 24.8152 25.5117 24.8016C25.5107 24.788 25.9847 24.7482 26.5694 24.7122C27.1541 24.6763 27.63 24.6598 27.631 24.6744Z" fill="white"/>
<path id="Vector_5" d="M27.6324 25.2073C27.6324 25.2209 27.1594 25.2607 26.5738 25.2966C25.9881 25.3326 25.5142 25.3491 25.5132 25.3345C25.5122 25.3199 25.9862 25.2811 26.5709 25.2461C27.1556 25.2111 27.6315 25.1985 27.6324 25.2073Z" fill="white"/>
<path id="Vector_6" d="M27.0949 25.7308C26.8963 25.768 26.6949 25.7888 26.4928 25.793C26.2917 25.8129 26.0893 25.8165 25.8877 25.8037C26.0864 25.7665 26.2878 25.7461 26.4899 25.7425C26.6909 25.722 26.8933 25.7181 27.0949 25.7308Z" fill="white"/>
<path id="Vector_7" d="M24.9155 27.3817C24.9155 27.3817 24.9369 29.9001 25.0651 30.6684L28.2236 30.5188C28.2236 30.5188 27.9458 28.0431 28.0526 27.3817H24.9155Z" fill="#E47C93"/>
<path id="Vector_8" d="M27.5802 28.4394C27.5802 28.453 27.1072 28.4928 26.5225 28.5288C25.9378 28.5647 25.4619 28.5812 25.4609 28.5667C25.46 28.5521 25.9339 28.5132 26.5196 28.4783C27.1052 28.4433 27.5802 28.4258 27.5802 28.4394Z" fill="white"/>
<path id="Vector_9" d="M27.5802 28.9728C27.5802 28.9873 27.1072 29.0271 26.5225 29.0621C25.9378 29.0971 25.4619 29.1146 25.4609 29.1C25.46 29.0854 25.9339 29.0466 26.5186 29.0116C27.1033 28.9766 27.5802 28.9592 27.5802 28.9728Z" fill="white"/>
<path id="Vector_10" d="M27.0398 29.4964C26.8412 29.5341 26.6397 29.5549 26.4376 29.5585C26.2362 29.5791 26.0335 29.5826 25.8315 29.5692C26.0302 29.5321 26.2316 29.5116 26.4337 29.508C26.6351 29.4875 26.8378 29.4836 27.0398 29.4964Z" fill="white"/>
<path id="Vector_11" d="M27.5802 32.705C27.5802 32.7186 27.1072 32.7584 26.5225 32.7934C25.9378 32.8283 25.4619 32.8458 25.4609 32.8322C25.46 32.8186 25.9339 32.7788 26.5196 32.7429C27.1052 32.7069 27.5802 32.6904 27.5802 32.705Z" fill="white"/>
<path id="Vector_12" d="M27.5802 33.2385C27.5802 33.2521 27.1072 33.2919 26.5225 33.3269C25.9378 33.3618 25.4619 33.3793 25.4609 33.3657C25.46 33.3521 25.9339 33.3123 26.5186 33.2774C27.1033 33.2424 27.5802 33.2249 27.5802 33.2385Z" fill="white"/>
<path id="Vector_13" d="M27.0403 33.7623C26.8416 33.7994 26.6402 33.8199 26.4381 33.8235C26.2371 33.844 26.0347 33.8479 25.833 33.8352C26.0317 33.798 26.2331 33.7776 26.4352 33.774C26.6362 33.7535 26.8386 33.7496 27.0403 33.7623Z" fill="white"/>
<path id="Vector_14" d="M24.5474 36.6359C24.5474 36.6359 24.5687 39.1543 24.6969 39.9225L27.8554 39.773C27.8554 39.773 27.5776 37.2973 27.6845 36.6359H24.5474Z" fill="#455A64"/>
<path id="Vector_15" d="M27.2081 37.6933C27.2081 37.7069 26.7351 37.7468 26.1495 37.7827C25.5638 37.8186 25.0889 37.8351 25.0879 37.8206C25.0869 37.806 25.5609 37.7672 26.1465 37.7322C26.7322 37.6972 27.2071 37.6797 27.2081 37.6933Z" fill="white"/>
<path id="Vector_16" d="M27.2086 38.2267C27.2086 38.2412 26.7356 38.2811 26.1499 38.316C25.5643 38.351 25.0894 38.3685 25.0884 38.3549C25.0874 38.3413 25.5614 38.3005 26.147 38.2655C26.7327 38.2305 27.2076 38.2131 27.2086 38.2267Z" fill="white"/>
<path id="Vector_17" d="M26.6726 38.7511C26.4738 38.7877 26.2725 38.8082 26.0704 38.8123C25.8694 38.8334 25.667 38.837 25.4653 38.823C25.6641 38.7864 25.8655 38.7659 26.0675 38.7618C26.2685 38.7407 26.471 38.7372 26.6726 38.7511Z" fill="white"/>
<path id="Vector_18" d="M31.3961 37.7158C31.3961 37.7294 30.9231 37.7693 30.3374 37.8042C29.7518 37.8392 29.2769 37.8567 29.2759 37.8431C29.2749 37.8295 29.7489 37.7887 30.3345 37.7537C30.9202 37.7188 31.3951 37.7013 31.3961 37.7158Z" fill="white"/>
<path id="Vector_19" d="M31.3966 38.2487C31.3966 38.2623 30.9236 38.3021 30.3379 38.3371C29.7523 38.372 29.2773 38.3895 29.2764 38.3759C29.2754 38.3623 29.7494 38.3225 30.335 38.2866C30.9207 38.2506 31.3956 38.2341 31.3966 38.2487Z" fill="white"/>
<path id="Vector_20" d="M30.8591 38.7726C30.6604 38.8098 30.459 38.8302 30.2569 38.8338C30.0556 38.8543 29.8529 38.8582 29.6509 38.8455C29.8498 38.8078 30.0516 38.787 30.254 38.7833C30.4551 38.7634 30.6574 38.7598 30.8591 38.7726Z" fill="white"/>
<path id="Vector_21" d="M32.2363 36.838C32.2363 36.838 32.2577 39.3564 32.3859 40.1247L35.5444 39.9761C35.5444 39.9761 35.2666 37.5004 35.3734 36.838H32.2363Z" fill="#E47C93"/>
<path id="Vector_22" d="M34.8976 37.8957C34.8976 37.9103 34.4246 37.9501 33.8389 37.9851C33.2533 38.02 32.7783 38.0375 32.7773 38.0239C32.7764 38.0103 33.2503 37.9695 33.836 37.9346C34.4217 37.8996 34.8966 37.8821 34.8976 37.8957Z" fill="white"/>
<path id="Vector_23" d="M34.8981 38.4296C34.8981 38.4432 34.4251 38.483 33.8394 38.518C33.2537 38.5529 32.7788 38.5704 32.7778 38.5568C32.7769 38.5432 33.2508 38.5034 33.8365 38.4675C34.4221 38.4315 34.8971 38.415 34.8981 38.4296Z" fill="white"/>
<path id="Vector_24" d="M34.3615 38.9529C34.1629 38.9901 33.9614 39.0105 33.7594 39.0141C33.558 39.0346 33.3553 39.0385 33.1533 39.0258C33.3523 38.9881 33.554 38.9673 33.7565 38.9636C33.9575 38.9437 34.1599 38.9401 34.3615 38.9529Z" fill="white"/>
<path id="Vector_25" d="M28.1436 41.1442C28.1436 41.1442 28.1649 43.6626 28.2931 44.4308L31.4516 44.2813C31.4516 44.2813 31.1738 41.8066 31.2807 41.1442H28.1436Z" fill="#455A64"/>
<path id="Vector_26" d="M30.8048 42.2018C30.8048 42.2154 30.3318 42.2552 29.7471 42.2911C29.1624 42.327 28.6865 42.3436 28.6855 42.329C28.6846 42.3144 29.1585 42.2756 29.7442 42.2406C30.3299 42.2056 30.8038 42.1882 30.8048 42.2018Z" fill="white"/>
<path id="Vector_27" d="M30.8063 42.7351C30.8063 42.7497 30.3333 42.7895 29.7486 42.8244C29.1639 42.8594 28.688 42.8769 28.687 42.8623C28.686 42.8477 29.16 42.8089 29.7447 42.7739C30.3294 42.739 30.8053 42.7215 30.8063 42.7351Z" fill="white"/>
<path id="Vector_28" d="M30.2683 43.2634C30.0697 43.3013 29.8682 43.3221 29.6661 43.3256C29.4651 43.3461 29.2627 43.3496 29.061 43.3363C29.2597 43.2991 29.4611 43.2787 29.6632 43.2751C29.8642 43.2546 30.0666 43.2507 30.2683 43.2634Z" fill="white"/>
<path id="Vector_29" d="M38.2817 35.3606C38.2817 35.3606 38.3031 37.879 38.4313 38.6473L41.5898 38.4977C41.5898 38.4977 41.312 36.022 41.4188 35.3606H38.2817Z" fill="#263238"/>
<path id="Vector_30" d="M40.943 36.4181C40.943 36.4317 40.47 36.4715 39.8843 36.5065C39.2987 36.5415 38.8247 36.559 38.8237 36.5454C38.8228 36.5318 39.2967 36.4919 39.8814 36.456C40.4661 36.4201 40.942 36.4036 40.943 36.4181Z" fill="white"/>
<path id="Vector_31" d="M40.9435 36.9508C40.9435 36.9643 40.4705 37.0042 39.8848 37.0401C39.2992 37.076 38.8242 37.0926 38.8242 37.078C38.8242 37.0634 39.2962 37.0246 39.8819 36.9896C40.4676 36.9546 40.9425 36.9381 40.9435 36.9508Z" fill="white"/>
<path id="Vector_32" d="M40.4065 37.475C40.2079 37.5127 40.0064 37.5335 39.8043 37.5371C39.6032 37.557 39.4009 37.5606 39.1992 37.5478C39.3979 37.5107 39.5993 37.4902 39.8014 37.4866C40.0024 37.4661 40.2048 37.4622 40.4065 37.475Z" fill="white"/>
<path id="Vector_33" d="M47.7999 42.3293C47.7999 42.3439 47.3269 42.3837 46.7422 42.4187C46.1575 42.4536 45.6816 42.4711 45.6807 42.4575C45.6797 42.4439 46.1537 42.4031 46.7393 42.3682C47.325 42.3332 47.7989 42.3157 47.7999 42.3293Z" fill="white"/>
<path id="Vector_34" d="M47.8009 42.8638C47.8009 42.8774 47.3279 42.9172 46.7432 42.9522C46.1585 42.9872 45.6826 43.0046 45.6816 42.991C45.6807 42.9774 46.1546 42.9376 46.7403 42.9017C47.326 42.8657 47.7999 42.8492 47.8009 42.8638Z" fill="white"/>
<path id="Vector_35" d="M47.2639 43.3865C47.0652 43.4237 46.8638 43.4442 46.6617 43.4477C46.4607 43.4682 46.2583 43.4721 46.0566 43.4594C46.2552 43.4216 46.4567 43.4008 46.6588 43.3972C46.8599 43.3773 47.0622 43.3737 47.2639 43.3865Z" fill="white"/>
<path id="Vector_36" d="M49.0371 41.3258C49.0371 41.3258 49.0585 43.8442 49.1867 44.6125L52.3471 44.4629C52.3471 44.4629 52.0693 41.9872 52.1762 41.3258H49.0371Z" fill="#455A64"/>
<path id="Vector_37" d="M51.6983 42.3833C51.6983 42.3969 51.2254 42.4368 50.6397 42.4717C50.054 42.5067 49.5801 42.5242 49.5791 42.5106C49.5781 42.497 50.0521 42.4571 50.6368 42.4212C51.2215 42.3853 51.6974 42.3688 51.6983 42.3833Z" fill="white"/>
<path id="Vector_38" d="M51.6993 42.9168C51.6993 42.9304 51.2263 42.9703 50.6407 43.0062C50.055 43.0421 49.5801 43.0586 49.5801 43.0441C49.5801 43.0295 50.0521 42.9907 50.6378 42.9557C51.2234 42.9207 51.6983 42.9032 51.6993 42.9168Z" fill="white"/>
<path id="Vector_39" d="M51.1618 43.4404C50.9632 43.4782 50.7618 43.499 50.5597 43.5026C50.3586 43.5225 50.1562 43.5261 49.9546 43.5133C50.1532 43.4761 50.3547 43.4556 50.5568 43.4521C50.7578 43.4316 50.9602 43.4277 51.1618 43.4404Z" fill="white"/>
<path id="Vector_40" d="M55.5968 42.437C55.5968 42.4506 55.1238 42.4904 54.5381 42.5263C53.9525 42.5623 53.4775 42.5788 53.4766 42.5642C53.4756 42.5497 53.9496 42.5108 54.5352 42.4758C55.1209 42.4409 55.5958 42.4234 55.5968 42.437Z" fill="white"/>
<path id="Vector_41" d="M55.5978 42.9721C55.5978 42.9867 55.1248 43.0265 54.5391 43.0614C53.9534 43.0964 53.4785 43.1139 53.4775 43.0993C53.4766 43.0848 53.9505 43.0459 54.5362 43.0109C55.1218 42.976 55.5968 42.9566 55.5978 42.9721Z" fill="white"/>
<path id="Vector_42" d="M55.0612 43.4938C54.8627 43.5316 54.6612 43.5524 54.4591 43.556C54.2577 43.5765 54.055 43.58 53.853 43.5666C54.2531 43.5094 54.6572 43.4851 55.0612 43.4938Z" fill="white"/>
<path id="Vector_43" d="M60.2823 42.2921C60.2823 42.3057 59.8093 42.3455 59.2247 42.3805C58.64 42.4154 58.1641 42.4329 58.1631 42.4193C58.1621 42.4057 58.6361 42.3649 59.2217 42.33C59.8074 42.295 60.2814 42.2756 60.2823 42.2921Z" fill="white"/>
<path id="Vector_44" d="M60.2838 42.8232C60.2838 42.8368 59.8108 42.8766 59.2261 42.9115C58.6414 42.9465 58.1655 42.964 58.1646 42.9504C58.1636 42.9368 58.6375 42.897 59.2222 42.861C59.8069 42.8251 60.2828 42.8086 60.2838 42.8232Z" fill="white"/>
<path id="Vector_45" d="M59.7468 43.347C59.5481 43.3842 59.3467 43.4046 59.1446 43.4082C58.9436 43.4286 58.7412 43.4325 58.5396 43.4198C58.7395 43.3828 58.9423 43.363 59.1456 43.3606C59.3453 43.3399 59.5464 43.3353 59.7468 43.347Z" fill="white"/>
<path id="Vector_46" d="M47.7828 37.7529C47.7828 37.7675 47.3098 37.8073 46.7242 37.8423C46.1385 37.8772 45.6636 37.8947 45.6626 37.8801C45.6616 37.8656 46.1356 37.8267 46.7213 37.7918C47.3069 37.7568 47.7828 37.7393 47.7828 37.7529Z" fill="white"/>
<path id="Vector_47" d="M47.7867 38.286C47.7867 38.3006 47.3137 38.3404 46.7281 38.3753C46.1424 38.4103 45.6675 38.4278 45.6665 38.4142C45.6655 38.4006 46.1395 38.3598 46.7252 38.3248C47.3108 38.2899 47.7819 38.2724 47.7867 38.286Z" fill="white"/>
<path id="Vector_48" d="M47.2502 38.8106C47.0515 38.8471 46.8501 38.8676 46.648 38.8718C46.4467 38.8929 46.2439 38.8965 46.042 38.8825C46.2411 38.846 46.4428 38.8255 46.6451 38.8213C46.8461 38.8002 47.0486 38.7966 47.2502 38.8106Z" fill="white"/>
<path id="Vector_49" d="M49.2476 36.7078C49.2476 36.7078 49.2689 39.2262 49.3971 39.9944L52.5556 39.8449C52.5556 39.8449 52.2788 37.3692 52.3856 36.7078H49.2476Z" fill="#E47C93"/>
<path id="Vector_50" d="M51.9088 37.7653C51.9088 37.7789 51.4358 37.8187 50.8511 37.8537C50.2664 37.8886 49.7905 37.9061 49.7896 37.8925C49.7886 37.8789 50.2625 37.8391 50.8482 37.8032C51.4339 37.7672 51.9088 37.7507 51.9088 37.7653Z" fill="white"/>
<path id="Vector_51" d="M51.9093 38.2984C51.9093 38.312 51.4363 38.3519 50.8516 38.3878C50.2669 38.4237 49.791 38.4402 49.79 38.4257C49.7891 38.4111 50.263 38.3723 50.8487 38.3373C51.4343 38.3023 51.9083 38.2848 51.9093 38.2984Z" fill="white"/>
<path id="Vector_52" d="M51.3757 38.8223C51.1768 38.86 50.975 38.8808 50.7726 38.8844C50.5715 38.9043 50.3691 38.9079 50.1675 38.8951C50.3661 38.858 50.5676 38.8375 50.7697 38.8339C50.971 38.8134 51.1737 38.8095 51.3757 38.8223Z" fill="white"/>
<path id="Vector_53" d="M60.0362 37.7662C60.0362 37.7808 59.5632 37.8206 58.9776 37.8556C58.3919 37.8905 57.917 37.908 57.917 37.8944C57.917 37.8808 58.39 37.84 58.9747 37.8051C59.5594 37.7701 60.0353 37.7526 60.0362 37.7662Z" fill="white"/>
<path id="Vector_54" d="M60.0372 38.3007C60.0372 38.3143 59.5642 38.3541 58.9786 38.3891C58.3929 38.424 57.918 38.4415 57.917 38.4279C57.916 38.4143 58.39 38.3735 58.9756 38.3386C59.5613 38.3036 60.0362 38.2861 60.0372 38.3007Z" fill="white"/>
<path id="Vector_55" d="M59.4997 38.8242C59.3011 38.8613 59.0996 38.8818 58.8976 38.8854C58.6965 38.9059 58.4942 38.9098 58.2925 38.897C58.4911 38.8592 58.6925 38.8384 58.8947 38.8349C59.0957 38.8144 59.2981 38.8108 59.4997 38.8242Z" fill="white"/>
<path id="Vector_56" d="M32.4801 32.705C32.4801 32.7186 32.0071 32.7584 31.4214 32.7934C30.8358 32.8283 30.3608 32.8458 30.3608 32.8322C30.3608 32.8186 30.8329 32.7788 31.4185 32.7429C32.0042 32.7069 32.4791 32.6904 32.4801 32.705Z" fill="white"/>
<path id="Vector_57" d="M32.4811 33.2385C32.4811 33.2521 32.0081 33.2919 31.4224 33.3269C30.8367 33.3618 30.3618 33.3793 30.3608 33.3657C30.3599 33.3521 30.8338 33.3123 31.4195 33.2774C32.0051 33.2424 32.4801 33.2249 32.4811 33.2385Z" fill="white"/>
<path id="Vector_58" d="M31.2257 24.6744C31.2257 24.6879 30.7527 24.7278 30.167 24.7627C29.5814 24.7977 29.1064 24.8152 29.1055 24.8016C29.1045 24.788 29.5785 24.7482 30.1641 24.7122C30.7498 24.6763 31.2247 24.6598 31.2257 24.6744Z" fill="white"/>
<path id="Vector_59" d="M31.2262 25.2073C31.2262 25.2209 30.7532 25.2607 30.1675 25.2966C29.5819 25.3326 29.1069 25.3491 29.106 25.3345C29.105 25.3199 29.579 25.2811 30.1646 25.2461C30.7503 25.2111 31.2252 25.1985 31.2262 25.2073Z" fill="white"/>
<path id="Vector_60" d="M30.6882 25.7308C30.4895 25.768 30.2881 25.7888 30.086 25.793C29.8846 25.8129 29.682 25.8165 29.48 25.8037C29.679 25.7666 29.8807 25.7461 30.0831 25.7425C30.2842 25.722 30.4865 25.7181 30.6882 25.7308Z" fill="white"/>
<path id="Vector_61" d="M28.6333 27.3954C28.6333 27.3954 28.6547 29.9138 28.7829 30.6821L31.9413 30.5335C31.9413 30.5335 31.6636 28.0578 31.7704 27.3954H28.6333Z" fill="#E47C93"/>
<path id="Vector_62" d="M31.2945 28.4531C31.2945 28.4677 30.8215 28.5075 30.2359 28.5425C29.6502 28.5774 29.1753 28.5949 29.1753 28.5813C29.1753 28.5677 29.6483 28.5269 30.233 28.492C30.8177 28.457 31.2936 28.4395 31.2945 28.4531Z" fill="white"/>
<path id="Vector_63" d="M31.2955 28.9864C31.2955 29 30.8225 29.0399 30.2369 29.0748C29.6512 29.1098 29.1763 29.1273 29.1753 29.1137C29.1743 29.1001 29.6483 29.0603 30.2339 29.0243C30.8196 28.9884 31.2945 28.9728 31.2955 28.9864Z" fill="white"/>
<path id="Vector_64" d="M30.758 29.511C30.5594 29.5482 30.3579 29.5686 30.1559 29.5722C29.9548 29.5927 29.7525 29.5966 29.5508 29.5839C29.7494 29.546 29.9508 29.5252 30.1529 29.5217C30.354 29.5018 30.5564 29.4982 30.758 29.511Z" fill="white"/>
<path id="Vector_65" d="M35.1617 24.6744C35.1617 24.6879 34.6887 24.7278 34.1031 24.7627C33.5174 24.7977 33.0425 24.8152 33.0415 24.8016C33.0405 24.788 33.5145 24.7482 34.1002 24.7122C34.6858 24.6763 35.1607 24.6598 35.1617 24.6744Z" fill="white"/>
<path id="Vector_66" d="M35.1627 25.2073C35.1627 25.2209 34.6897 25.2607 34.104 25.2966C33.5184 25.3326 33.0435 25.3491 33.0425 25.3345C33.0415 25.3199 33.5155 25.2811 34.1011 25.2461C34.6868 25.2111 35.1617 25.1985 35.1627 25.2073Z" fill="white"/>
<path id="Vector_67" d="M34.6252 25.7308C34.4265 25.768 34.2251 25.7888 34.023 25.793C33.8216 25.8129 33.619 25.8165 33.417 25.8037C33.616 25.7666 33.8177 25.7461 34.0201 25.7425C34.2212 25.722 34.4235 25.7181 34.6252 25.7308Z" fill="white"/>
<path id="Vector_68" d="M36.437 23.6161C36.437 23.6161 36.4584 26.1335 36.5856 26.9028L39.7451 26.7522C39.7451 26.7522 39.4673 24.2765 39.5741 23.6151L36.437 23.6161Z" fill="#E47C93"/>
<path id="Vector_69" d="M39.0982 24.6744C39.0982 24.6879 38.6253 24.7278 38.0396 24.7627C37.4539 24.7977 36.979 24.8152 36.978 24.8016C36.9771 24.788 37.451 24.7482 38.0367 24.7122C38.6223 24.6763 39.0973 24.6598 39.0982 24.6744Z" fill="white"/>
<path id="Vector_70" d="M39.0987 25.2073C39.0987 25.2209 38.6257 25.2607 38.0401 25.2966C37.4544 25.3326 36.9795 25.3491 36.9785 25.3345C36.9775 25.3199 37.4515 25.2811 38.0372 25.2461C38.6228 25.2111 39.0978 25.1985 39.0987 25.2073Z" fill="white"/>
<path id="Vector_71" d="M38.5627 25.7309C38.364 25.768 38.1626 25.7888 37.9605 25.793C37.7591 25.8129 37.5565 25.8165 37.3545 25.8037C37.7546 25.7465 38.1587 25.7221 38.5627 25.7309Z" fill="white"/>
<path id="Vector_72" d="M40.374 23.6161C40.374 23.6161 40.3954 26.1335 40.5226 26.9028L43.6821 26.7522C43.6821 26.7522 43.4043 24.2765 43.5111 23.6151L40.374 23.6161Z" fill="#E47C93"/>
<path id="Vector_73" d="M43.0338 24.6744C43.0338 24.6879 42.5608 24.7278 41.9751 24.7627C41.3895 24.7977 40.9145 24.8152 40.9136 24.8016C40.9126 24.788 41.3866 24.7482 41.9722 24.7122C42.5579 24.6763 43.0328 24.6598 43.0338 24.6744Z" fill="white"/>
<path id="Vector_74" d="M43.0357 25.2073C43.0357 25.2209 42.5628 25.2607 41.9771 25.2966C41.3914 25.3326 40.9165 25.3491 40.9155 25.3345C40.9146 25.3199 41.3885 25.2811 41.9742 25.2461C42.5598 25.2111 43.0348 25.1985 43.0357 25.2073Z" fill="white"/>
<path id="Vector_75" d="M42.4992 25.7308C42.3006 25.768 42.0992 25.7888 41.8971 25.793C41.6957 25.8129 41.493 25.8165 41.291 25.8037C41.49 25.7665 41.6918 25.746 41.8942 25.7425C42.0952 25.722 42.2976 25.7181 42.4992 25.7308Z" fill="white"/>
<path id="Vector_76" d="M45.6343 24.1738C45.6343 24.1738 45.6556 26.6923 45.7838 27.4605L48.9472 27.3109C48.9472 27.3109 48.6694 24.8352 48.7762 24.1738H45.6343Z" fill="#E47C93"/>
<path id="Vector_77" d="M48.296 25.2318C48.296 25.2454 47.823 25.2852 47.2374 25.3211C46.6517 25.3571 46.1777 25.3736 46.1768 25.359C46.1758 25.3445 46.6498 25.3056 47.2344 25.2706C47.8191 25.2357 48.295 25.2182 48.296 25.2318Z" fill="white"/>
<path id="Vector_78" d="M48.2975 25.7647C48.2975 25.7793 47.8245 25.8191 47.2388 25.8541C46.6532 25.8891 46.1782 25.9065 46.1782 25.892C46.1782 25.8774 46.6502 25.8386 47.2359 25.8036C47.8216 25.7686 48.2965 25.7511 48.2975 25.7647Z" fill="white"/>
<path id="Vector_79" d="M47.76 26.2883C47.5614 26.3261 47.3599 26.3469 47.1578 26.3505C46.9568 26.371 46.7544 26.3745 46.5527 26.3612C46.7514 26.324 46.9528 26.3036 47.1549 26.3C47.3559 26.2795 47.5583 26.2756 47.76 26.2883Z" fill="white"/>
<path id="Vector_80" d="M49.1592 24.2273C49.1592 24.2273 49.1805 26.7457 49.3088 27.514L52.4672 27.3654C52.4672 27.3654 52.1894 24.8897 52.2963 24.2273H49.1592Z" fill="#E47C93"/>
<path id="Vector_81" d="M51.8209 25.2846C51.8209 25.2992 51.3479 25.339 50.7622 25.374C50.1766 25.409 49.7017 25.4264 49.7007 25.4128C49.6997 25.3993 50.1737 25.3585 50.7593 25.3235C51.345 25.2885 51.8199 25.271 51.8209 25.2846Z" fill="white"/>
<path id="Vector_82" d="M51.8219 25.819C51.8219 25.8326 51.3489 25.8724 50.7632 25.9074C50.1776 25.9424 49.7026 25.9598 49.7017 25.9462C49.7007 25.9326 50.1747 25.8928 50.7603 25.8569C51.346 25.8209 51.8209 25.8044 51.8219 25.819Z" fill="white"/>
<path id="Vector_83" d="M51.2839 26.3428C51.0852 26.38 50.8838 26.4004 50.6817 26.404C50.4804 26.4245 50.2777 26.4284 50.0757 26.4157C50.2746 26.378 50.4764 26.3572 50.6788 26.3535C50.8799 26.3336 51.0823 26.33 51.2839 26.3428Z" fill="white"/>
<path id="Vector_84" d="M55.7135 25.3986C55.7135 25.4122 55.2405 25.452 54.6548 25.487C54.0692 25.5219 53.5942 25.5394 53.5933 25.5258C53.5923 25.5122 54.0663 25.4724 54.6519 25.4365C55.2376 25.4005 55.7125 25.384 55.7135 25.3986Z" fill="white"/>
<path id="Vector_85" d="M55.714 25.9316C55.714 25.9452 55.241 25.985 54.6553 26.02C54.0697 26.055 53.5947 26.0734 53.5938 26.0588C53.5928 26.0443 54.0667 26.0054 54.6524 25.9705C55.2381 25.9355 55.713 25.918 55.714 25.9316Z" fill="white"/>
<path id="Vector_86" d="M55.177 26.4553C54.9783 26.4925 54.7769 26.5129 54.5748 26.5165C54.3734 26.537 54.1707 26.5409 53.9688 26.5282C54.3688 26.471 54.7729 26.4466 55.177 26.4553Z" fill="white"/>
<path id="Vector_87" d="M57.6787 24.2097C57.6787 24.2097 57.7001 26.7281 57.8283 27.4964L60.9916 27.3468C60.9916 27.3468 60.7148 24.8711 60.8207 24.2097H57.6787Z" fill="#E47C93"/>
<path id="Vector_88" d="M60.34 25.2674C60.34 25.282 59.867 25.3218 59.2823 25.3568C58.6976 25.3918 58.2217 25.4092 58.2207 25.3956C58.2197 25.382 58.6937 25.3412 59.2794 25.3063C59.865 25.2713 60.339 25.2538 60.34 25.2674Z" fill="white"/>
<path id="Vector_89" d="M60.3404 25.8013C60.3404 25.8149 59.8674 25.8547 59.2828 25.8897C58.6981 25.9246 58.2222 25.9421 58.2212 25.9285C58.2202 25.9149 58.6942 25.8741 59.2789 25.8392C59.8636 25.8042 60.3395 25.7867 60.3404 25.8013Z" fill="white"/>
<path id="Vector_90" d="M59.8034 26.3252C59.6048 26.3624 59.4034 26.3829 59.2013 26.3864C59.0002 26.4069 58.7979 26.4108 58.5962 26.398C58.7948 26.3603 58.9962 26.3395 59.1984 26.3359C59.3994 26.3154 59.6018 26.3118 59.8034 26.3252Z" fill="white"/>
<path id="Vector_91" d="M58.063 28.3153C58.063 28.3153 58.0844 30.8337 58.2126 31.602L61.371 31.4524C61.371 31.4524 61.0942 28.9767 61.2011 28.3153H58.063Z" fill="#E47C93"/>
<path id="Vector_92" d="M60.7237 29.3747C60.7237 29.3892 60.2507 29.4291 59.6661 29.464C59.0814 29.499 58.6055 29.5165 58.6045 29.5029C58.6035 29.4893 59.0775 29.4485 59.6631 29.4135C60.2488 29.3786 60.7237 29.3591 60.7237 29.3747Z" fill="white"/>
<path id="Vector_93" d="M60.7247 29.907C60.7247 29.9206 60.2517 29.9604 59.667 29.9954C59.0823 30.0304 58.6064 30.0478 58.6055 30.0342C58.6045 30.0206 59.0785 29.9799 59.6641 29.9449C60.2498 29.9099 60.7247 29.8924 60.7247 29.907Z" fill="white"/>
<path id="Vector_94" d="M60.1887 30.4307C59.7886 30.4879 59.3845 30.5122 58.9805 30.5035C59.1791 30.4657 59.3805 30.4449 59.5826 30.4413C59.784 30.4208 59.9867 30.4173 60.1887 30.4307Z" fill="white"/>
<path id="Vector_95" d="M49.1495 27.2878C49.1495 27.3014 48.6765 27.3422 48.0909 27.3772C47.5052 27.4121 47.0303 27.4296 47.0293 27.4151C47.0283 27.4005 47.5023 27.3616 48.0879 27.3267C48.6736 27.2917 49.1485 27.2742 49.1495 27.2878Z" fill="white"/>
<path id="Vector_96" d="M49.15 27.8207C49.15 27.8352 48.677 27.875 48.0914 27.91C47.5057 27.945 47.0308 27.9625 47.0298 27.9489C47.0288 27.9353 47.5028 27.8945 48.0884 27.8595C48.6741 27.8245 49.149 27.8071 49.15 27.8207Z" fill="white"/>
<path id="Vector_97" d="M48.614 28.3451C48.4152 28.3817 48.2139 28.4022 48.0118 28.4063C47.8105 28.4274 47.6077 28.431 47.4058 28.417C47.6048 28.3805 47.8065 28.36 48.0089 28.3558C48.2099 28.3347 48.4124 28.3312 48.614 28.3451Z" fill="white"/>
<path id="Vector_98" d="M46.0913 31.8192C46.0913 31.8192 46.1117 34.3376 46.2399 35.1059L49.3994 34.9563C49.3994 34.9563 49.1216 32.4806 49.2284 31.8192H46.0913Z" fill="#E47C93"/>
<path id="Vector_99" d="M48.753 32.8774C48.753 32.891 48.28 32.9308 47.6944 32.9657C47.1087 33.0007 46.6338 33.0182 46.6328 33.0046C46.6318 32.991 47.1058 32.9512 47.6915 32.9152C48.2771 32.8793 48.753 32.8628 48.753 32.8774Z" fill="white"/>
<path id="Vector_100" d="M48.7535 33.4106C48.7535 33.4242 48.2805 33.464 47.6958 33.5C47.1112 33.5359 46.6353 33.5524 46.6343 33.5379C46.6333 33.5233 47.1073 33.4844 47.6929 33.4495C48.2786 33.4145 48.7535 33.397 48.7535 33.4106Z" fill="white"/>
<path id="Vector_101" d="M48.2165 33.9338C48.0179 33.9716 47.8165 33.9924 47.6144 33.996C47.413 34.0159 47.2103 34.0195 47.0083 34.0067C47.207 33.9695 47.4084 33.9491 47.6105 33.9455C47.8118 33.925 48.0145 33.9211 48.2165 33.9338Z" fill="white"/>
<path id="Vector_102" d="M36.1915 26.3496C36.1915 26.3496 36.4469 28.6806 36.1187 29.9587L33.002 29.8228C33.002 29.8228 33.6702 27.5219 33.2603 26.5021L36.1915 26.3496Z" fill="#EBEBEB"/>
<path id="Vector_103" d="M32.9858 25.9531C32.9858 25.9531 32.7915 28.5988 32.6187 29.132L35.4576 29.4311L35.884 29.0252C35.884 29.0252 36.186 26.6942 36.1433 26.0308L32.9858 25.9531Z" fill="#455A64"/>
<path id="Vector_104" d="M35.5211 29.0038L35.457 29.4302L35.8834 29.0252L35.5211 29.0038Z" fill="#263238"/>
<path id="Vector_105" d="M35.5531 27.2896C35.4462 27.2844 35.3397 27.2718 35.2345 27.2517L34.476 27.141L33.7097 27.0438C33.6032 27.0355 33.4974 27.0199 33.3931 26.9972C33.5 26.9914 33.6073 26.995 33.7136 27.0079C33.9078 27.0225 34.1827 27.0497 34.4818 27.0885C34.781 27.1274 35.051 27.174 35.2452 27.2119C35.3499 27.2287 35.4529 27.2547 35.5531 27.2896Z" fill="white"/>
<path id="Vector_106" d="M35.4295 27.8726C35.3271 27.8784 35.2244 27.8749 35.1226 27.8619C34.9342 27.8483 34.6729 27.8231 34.3864 27.7861C34.0999 27.7492 33.8406 27.7094 33.6541 27.6764C33.5523 27.6635 33.4518 27.6414 33.354 27.6104C33.4563 27.6131 33.5582 27.6235 33.659 27.6414L34.3923 27.7386L35.1265 27.8279C35.2285 27.835 35.3298 27.85 35.4295 27.8726Z" fill="white"/>
<path id="Vector_107" d="M35.2532 28.4094C34.9334 28.3918 34.6147 28.3574 34.2985 28.3064C33.9804 28.2723 33.6643 28.2214 33.3516 28.1539C33.6711 28.1715 33.9894 28.2059 34.3053 28.2569C34.6238 28.2909 34.9402 28.3418 35.2532 28.4094Z" fill="white"/>
<path id="Vector_108" d="M28.7702 32.1912L28.7061 32.6185L29.1324 32.2125L28.7702 32.1912Z" fill="#263238"/>
<path id="Vector_109" d="M28.8021 30.477C28.6951 30.473 28.5885 30.4604 28.4835 30.4391L27.7201 30.3313L26.9538 30.2342C26.8472 30.227 26.7413 30.2114 26.6372 30.1875C26.7442 30.1817 26.8514 30.1853 26.9577 30.1982C27.152 30.2128 27.4268 30.24 27.726 30.2798C28.0251 30.3196 28.2951 30.3643 28.4894 30.4022C28.5955 30.4184 28.7001 30.4434 28.8021 30.477Z" fill="white"/>
<path id="Vector_110" d="M28.679 31.0609C28.5763 31.0661 28.4733 31.0622 28.3712 31.0493C28.1827 31.0357 27.9215 31.0104 27.635 30.9745C27.3485 30.9386 27.0891 30.8978 26.9027 30.8638C26.801 30.8503 26.7006 30.8285 26.6025 30.7987C26.7049 30.8001 26.8069 30.8102 26.9075 30.8288L27.6408 30.9259L28.3751 31.0163C28.4774 31.0229 28.5791 31.0378 28.679 31.0609Z" fill="white"/>
<path id="Vector_111" d="M28.5008 31.5968C28.1811 31.5809 27.8624 31.5485 27.5461 31.4996C27.2279 31.4656 26.9118 31.4143 26.5991 31.3462C26.9186 31.3637 27.237 31.3981 27.5529 31.4491C27.8712 31.4816 28.1877 31.5309 28.5008 31.5968Z" fill="white"/>
<path id="Vector_112" d="M23.2502 24.1309H20.8784V24.6728H23.2502V24.1309Z" fill="#E47C93"/>
<path id="Vector_113" d="M23.2502 37.0785H20.8784V37.6204H23.2502V37.0785Z" fill="#263238"/>
<path id="Vector_114" d="M23.2502 41.46H20.8784V42.0019H23.2502V41.46Z" fill="#263238"/>
<path id="Vector_115" d="M38.1153 20.9299H29.9277V21.4719H38.1153V20.9299Z" fill="#E0E0E0"/>
<path id="Vector_116" d="M54.4244 20.9299H46.2368V21.4719H54.4244V20.9299Z" fill="#E0E0E0"/>
<path id="Vector_117" d="M62.3043 20.9299H58.394V21.4719H62.3043V20.9299Z" fill="#E0E0E0"/>
<path id="Vector_118" d="M63.349 23.256C63.349 23.2705 53.7502 23.2822 41.9108 23.2822C30.0714 23.2822 20.4707 23.2686 20.4707 23.256C20.4707 23.2433 30.0685 23.2307 41.9108 23.2307C53.7531 23.2307 63.349 23.2404 63.349 23.256Z" fill="#263238"/>
<path id="Vector_119" d="M63.349 36.1428C63.349 36.1574 53.7502 36.1681 41.9108 36.1681C30.0714 36.1681 20.4707 36.1574 20.4707 36.1428C20.4707 36.1282 30.0685 36.1176 41.9108 36.1176C53.7531 36.1176 63.349 36.1292 63.349 36.1428Z" fill="#263238"/>
<path id="Vector_120" d="M63.349 44.9885C63.349 45.0031 53.7502 45.0138 41.9108 45.0138C30.0714 45.0138 20.4707 45.0031 20.4707 44.9885C20.4707 44.9739 30.0685 44.9633 41.9108 44.9633C53.7531 44.9633 63.349 44.9749 63.349 44.9885Z" fill="#263238"/>
<path id="Vector_121" d="M63.349 40.676C63.349 40.6896 53.7502 40.7013 41.9108 40.7013C30.0714 40.7013 20.4707 40.6896 20.4707 40.676C20.4707 40.6624 30.0685 40.6508 41.9108 40.6508C53.7531 40.6508 63.349 40.6614 63.349 40.676Z" fill="#263238"/>
<path id="Vector_122" d="M24.1058 45.1088C24.0912 45.1088 24.0806 39.632 24.0806 32.876C24.0806 26.1201 24.0912 20.6384 24.1058 20.6384C24.1204 20.6384 24.1311 26.1152 24.1311 32.876C24.1311 39.6369 24.1194 45.1088 24.1058 45.1088Z" fill="#263238"/>
<path id="Vector_123" d="M43.9164 45.232C43.9028 45.232 43.8911 39.7629 43.8911 33.0186C43.8911 26.2743 43.9028 20.8053 43.9164 20.8053C43.93 20.8053 43.9416 26.2724 43.9416 33.0186C43.9416 39.7649 43.93 45.232 43.9164 45.232Z" fill="#263238"/>
<path id="Vector_124" d="M56.7445 45.3605C56.7309 45.3605 56.7192 39.8914 56.7192 33.1462C56.7192 26.4009 56.7309 20.9299 56.7445 20.9299C56.7581 20.9299 56.7697 26.399 56.7697 33.1462C56.7697 39.8934 56.7591 45.3605 56.7445 45.3605Z" fill="#263238"/>
<path id="Vector_125" d="M49.8864 31.5832C49.8776 31.5715 50.2661 31.2481 50.7537 30.8596C51.2413 30.4711 51.6443 30.1662 51.6531 30.1798C51.6618 30.1934 51.2733 30.5139 50.7857 30.9024C50.2982 31.2909 49.8951 31.5939 49.8864 31.5832Z" fill="#263238"/>
<path id="Vector_126" d="M51.4197 31.6427C51.379 31.6528 51.3373 31.6586 51.2954 31.6602L50.9535 31.6893C50.6622 31.7126 50.264 31.7408 49.8191 31.769H49.7822L49.7929 31.734C49.7929 31.7204 49.8017 31.7058 49.8065 31.6913C49.9206 31.3175 50.0839 30.9605 50.2921 30.6297C50.3727 30.5034 50.4436 30.4054 50.4951 30.3383C50.52 30.303 50.5487 30.2704 50.5806 30.2412C50.5608 30.2797 50.5378 30.3165 50.5116 30.351C50.465 30.4199 50.399 30.52 50.3222 30.6482C50.1244 30.9815 49.9664 31.3368 49.8512 31.7068L49.8386 31.7486L49.8133 31.7156C50.2581 31.6874 50.6583 31.665 50.9487 31.6515L51.2915 31.6379C51.3343 31.6346 51.3773 31.6363 51.4197 31.6427Z" fill="#263238"/>
<path id="Vector_127" d="M38.4919 31.2523C38.4919 31.2659 37.5274 31.5242 36.3299 31.8292C35.1323 32.1342 34.1582 32.3692 34.1543 32.3556C34.1504 32.342 35.1188 32.0846 36.3173 31.7797C37.5158 31.4747 38.489 31.2387 38.4919 31.2523Z" fill="#263238"/>
<path id="Vector_128" d="M39.1184 31.7671C39.1184 31.7807 38.0578 32.0885 36.7418 32.4557C35.4258 32.8228 34.3545 33.1093 34.3516 33.0957C34.3487 33.0821 35.4112 32.7742 36.7282 32.4071C38.0452 32.04 39.1155 31.7535 39.1184 31.7671Z" fill="#263238"/>
<path id="Vector_129" d="M39.5009 32.6175C39.5009 32.6311 38.486 32.8865 37.2272 33.1886C35.9685 33.4907 34.9458 33.7228 34.9419 33.7092C34.938 33.6956 35.9569 33.4411 37.2156 33.1391C38.4743 32.837 39.498 32.6039 39.5009 32.6175Z" fill="#263238"/>
<path id="Vector_130" d="M34.1182 41.5116L34.8903 45.5928L42.6049 44.132L41.2636 40.1587L34.1182 41.5116Z" fill="#EBEBEB"/>
<path id="Vector_131" d="M37.626 41.7483L39.3742 41.4171L37.626 41.7483Z" fill="white"/>
<path id="Vector_132" d="M39.3791 41.4182C39.0916 41.4994 38.7997 41.5642 38.5049 41.6125C38.2142 41.6758 37.9201 41.7229 37.624 41.7533C37.9115 41.672 38.2033 41.6071 38.4981 41.559C38.7887 41.4945 39.0829 41.4475 39.3791 41.4182Z" fill="#263238"/>
<path id="Vector_133" d="M37.7041 42.1553L38.0586 42.0883L37.7041 42.1553Z" fill="white"/>
<path id="Vector_134" d="M38.0587 42.0886C38.0587 42.1022 37.9839 42.1284 37.8868 42.1468C37.7896 42.1653 37.7071 42.1692 37.7042 42.1556C37.7013 42.142 37.779 42.1158 37.8771 42.0973C37.9752 42.0788 38.0558 42.075 38.0587 42.0886Z" fill="#263238"/>
<path id="Vector_135" d="M39.5543 41.6521C39.237 41.7262 38.9161 41.7839 38.5928 41.825C38.2714 41.8825 37.9472 41.9237 37.6216 41.9483C37.9388 41.8736 38.2598 41.8156 38.5831 41.7745C38.9044 41.7164 39.2286 41.6755 39.5543 41.6521Z" fill="#E47C93"/>
<path id="Vector_136" d="M37.3642 40.8749C37.3807 40.9621 37.371 41.0522 37.3363 41.1339C37.3016 41.2156 37.2434 41.2851 37.1692 41.3337C37.0949 41.3823 37.0079 41.4079 36.9192 41.407C36.8305 41.4062 36.744 41.3791 36.6706 41.3292C36.5973 41.2792 36.5404 41.2086 36.5072 41.1263C36.474 41.044 36.4659 40.9537 36.484 40.8668C36.5021 40.78 36.5456 40.7004 36.6089 40.6382C36.6722 40.576 36.7526 40.534 36.8397 40.5175C36.8976 40.5065 36.9571 40.5071 37.0148 40.5191C37.0725 40.5311 37.1273 40.5544 37.176 40.5876C37.2247 40.6208 37.2664 40.6632 37.2987 40.7125C37.331 40.7618 37.3532 40.817 37.3642 40.8749Z" fill="#E47C93"/>
<path id="Vector_137" d="M64.3685 38.8649L62.9423 38.5299L62.9276 38.526L62.9369 38.5133L62.9515 38.5276C62.7519 38.6876 62.5345 38.8226 62.3039 38.9299C62.0294 39.0566 61.7386 39.1421 61.4405 39.1839C61.2753 39.2072 61.1084 39.2159 60.9417 39.2101C60.8561 39.2045 60.7682 39.203 60.6804 39.195L60.4144 39.1537C59.6227 38.9921 58.9205 38.5265 58.45 37.8513C58.1879 37.4778 58.0065 37.0507 57.9181 36.5989C57.8269 36.1213 57.8395 35.6288 57.9551 35.1569C58.0736 34.6633 58.3052 34.2061 58.6304 33.8235L58.7584 33.6775C58.8008 33.6283 58.8517 33.5878 58.8972 33.5433C58.9427 33.4989 58.9881 33.4529 59.0398 33.4148L59.194 33.2989C59.243 33.2596 59.2945 33.2238 59.3482 33.1917L59.5085 33.0925L59.6758 33.0084C59.7304 32.9782 59.7868 32.9517 59.8447 32.929C60.2929 32.7464 60.7754 32.6701 61.2562 32.706C61.711 32.7387 62.1533 32.8742 62.5514 33.1029C63.267 33.5136 63.8021 34.1914 64.0463 34.9965C64.1436 35.3389 64.1899 35.6946 64.1835 36.0513C64.1747 36.3608 64.1228 36.6674 64.0293 36.9616C63.9506 37.206 63.8445 37.4402 63.7132 37.6593V37.649L64.3724 38.8657L63.6924 37.6585V37.6529V37.6482C63.98 37.1663 64.1395 36.6151 64.155 36.0497C64.1601 35.6964 64.1134 35.3442 64.0162 35.0053C63.7723 34.2096 63.2414 33.5405 62.5329 33.1354C62.1388 32.9112 61.7016 32.779 61.2524 32.7481C60.7775 32.7132 60.3011 32.7889 59.8585 32.9695C59.8014 32.9922 59.7458 33.0187 59.692 33.0489L59.5263 33.1283L59.3721 33.2267C59.3184 33.2583 59.2669 33.2935 59.2179 33.3322L59.0691 33.4473C59.0182 33.4846 58.975 33.5322 58.928 33.5735C58.881 33.6148 58.8332 33.6584 58.7916 33.7068L58.6574 33.8545C58.3362 34.2309 58.1065 34.6806 57.9875 35.1664C57.8732 35.6326 57.8603 36.1191 57.9497 36.591C58.0368 37.0374 58.2156 37.4595 58.4739 37.8291C58.9396 38.4978 59.6345 38.9593 60.4182 39.1204L60.6811 39.1617C60.7682 39.1696 60.8554 39.172 60.9402 39.1776C61.1052 39.1842 61.2706 39.1762 61.4343 39.1537C61.73 39.1129 62.0186 39.0293 62.2916 38.9053C62.521 38.7995 62.7376 38.6663 62.9369 38.5085L62.997 38.4609L62.9508 38.5228L62.9446 38.5061L64.3685 38.8649Z" fill="#263238"/>
<path id="Vector_138" d="M29.9349 37.0038L28.5087 36.6688L28.494 36.6649L28.5033 36.6522L28.5179 36.6665C28.3183 36.8265 28.1009 36.9615 27.8704 37.0689C27.5958 37.1955 27.305 37.2811 27.0069 37.3228C26.8417 37.3461 26.6748 37.3549 26.5081 37.349C26.4225 37.3435 26.3346 37.3419 26.2468 37.3339L25.9808 37.2927C25.1891 37.131 24.4869 36.6654 24.0164 35.9903C23.7543 35.6167 23.5729 35.1896 23.4845 34.7379C23.3933 34.2602 23.4059 33.7678 23.5215 33.2958C23.64 32.8022 23.8716 32.345 24.1968 31.9624L24.3248 31.8164C24.3672 31.7672 24.4181 31.7267 24.4636 31.6823C24.5091 31.6378 24.5545 31.5918 24.6062 31.5537L24.7604 31.4378C24.8094 31.3986 24.8609 31.3628 24.9146 31.3307L25.0749 31.2315L25.2422 31.1473C25.2968 31.1172 25.3532 31.0906 25.4111 31.068C25.8593 30.8853 26.3418 30.8091 26.8226 30.8449C27.2775 30.8776 27.7197 31.0131 28.1178 31.2418C28.8334 31.6525 29.3685 32.3304 29.6127 33.1355C29.71 33.4779 29.7563 33.8335 29.7499 34.1902C29.7411 34.4997 29.6892 34.8063 29.5957 35.1006C29.517 35.345 29.4109 35.5791 29.2796 35.7982V35.7879L29.9388 37.0046L29.2588 35.7974V35.7918V35.7871C29.5464 35.3052 29.7059 34.754 29.7214 34.1886C29.7265 33.8353 29.6798 33.4831 29.5826 33.1442C29.3387 32.3485 28.8078 31.6794 28.0993 31.2743C27.7052 31.0501 27.2681 30.9179 26.8188 30.887C26.3439 30.8522 25.8675 30.9278 25.4249 31.1084C25.3678 31.1311 25.3122 31.1576 25.2584 31.1878L25.0927 31.2672L24.9385 31.3656C24.8848 31.3972 24.8333 31.4324 24.7843 31.4711L24.6355 31.5862C24.5846 31.6235 24.5414 31.6711 24.4944 31.7124C24.4474 31.7537 24.3996 31.7973 24.358 31.8458L24.2238 31.9934C23.9026 32.3698 23.673 32.8195 23.5539 33.3053C23.4396 33.7715 23.4267 34.258 23.5161 34.7299C23.6032 35.1763 23.782 35.5985 24.0403 35.968C24.506 36.6367 25.2009 37.0982 25.9846 37.2593L26.2475 37.3006C26.3346 37.3085 26.4218 37.3109 26.5066 37.3165C26.6716 37.3231 26.837 37.3151 27.0007 37.2927C27.2964 37.2519 27.5851 37.1682 27.858 37.0443C28.0874 36.9384 28.304 36.8052 28.5033 36.6474L28.5634 36.5998L28.5172 36.6617L28.511 36.645L29.9349 37.0038Z" fill="#263238"/>
<path id="Vector_139" d="M59.7192 36.4678L60.0844 36.1338L60.7889 36.7063L62.1719 35.4894L62.5112 35.8234L60.7371 37.3507L59.7192 36.4678Z" fill="#1D7E6D"/>
<path id="Vector_140" d="M25.2852 34.6065L25.6503 34.2724L26.3548 34.845L27.7378 33.6281L28.0771 33.9621L26.303 35.4893L25.2852 34.6065Z" fill="#1D7E6D"/>
<path id="Vector_141" d="M38.3145 42.9824L38.6796 42.6484L39.3841 43.2209L40.7671 42.004L41.1064 42.3381L39.3323 43.8653L38.3145 42.9824Z" fill="#1D7E6D"/>
</g>
</g>
<g id="Group 1000004141">
<path id="Vector_142" d="M42.398 26.5854L43.7314 24.8608L42.5715 23.4049L40.5918 24.3233C40.7289 24.8008 40.9591 25.2465 41.2691 25.6347C41.5791 26.0229 41.9627 26.346 42.398 26.5854Z" fill="#263238"/>
<path id="Vector_143" opacity="0.2" d="M42.5715 23.4049L42.1055 23.6192C42.3785 24.2812 42.8338 24.8521 43.4185 25.2656L43.7314 24.8608L42.5715 23.4049Z" fill="white"/>
<path id="Vector_144" opacity="0.4" d="M41.609 23.8503L41.2383 24.0238C41.5563 24.8352 42.1125 25.5313 42.8336 26.0205L43.0819 25.6974C42.4762 25.1827 41.976 24.5555 41.609 23.8503Z" fill="white"/>
<g id="Group 1000004139">
<path id="Vector_145" d="M40.871 18.4794L62.2701 15.0065C62.3451 14.9953 62.4217 15.004 62.4922 15.0317C62.5627 15.0595 62.6247 15.1053 62.6719 15.1646C62.7191 15.2238 62.7499 15.2945 62.7612 15.3694C62.7725 15.4444 62.7638 15.521 62.7362 15.5915L54.5963 35.6845C54.5688 35.7543 54.5233 35.8156 54.4645 35.8622C54.4056 35.9088 54.3355 35.939 54.2612 35.9497C54.187 35.9604 54.1112 35.9513 54.0415 35.9232C53.9719 35.8951 53.911 35.8491 53.8649 35.7899L40.5989 19.1699C40.5521 19.1111 40.5216 19.0409 40.5105 18.9665C40.4995 18.8921 40.5081 18.8161 40.5357 18.7462C40.5633 18.6762 40.6088 18.6147 40.6676 18.5679C40.7265 18.5211 40.7966 18.4906 40.871 18.4794Z" fill="#008DFF"/>
<path id="Vector_146" opacity="0.2" d="M40.871 18.4794L62.2701 15.0065C62.3451 14.9953 62.4217 15.004 62.4922 15.0317C62.5627 15.0595 62.6247 15.1053 62.6719 15.1646C62.7191 15.2238 62.7499 15.2945 62.7612 15.3694C62.7725 15.4444 62.7638 15.521 62.7362 15.5915L54.5963 35.6845C54.5688 35.7543 54.5233 35.8156 54.4645 35.8622C54.4056 35.9088 54.3355 35.939 54.2612 35.9497C54.187 35.9604 54.1112 35.9513 54.0415 35.9232C53.9719 35.8951 53.911 35.8491 53.8649 35.7899L40.5989 19.1699C40.5521 19.1111 40.5216 19.0409 40.5105 18.9665C40.4995 18.8921 40.5081 18.8161 40.5357 18.7462C40.5633 18.6762 40.6088 18.6147 40.6676 18.5679C40.7265 18.5211 40.7966 18.4906 40.871 18.4794Z" fill="white"/>
<path id="Vector_147" d="M44.4935 25.575C43.903 25.2517 43.3822 24.8148 42.9613 24.2894C42.5404 23.764 42.2276 23.1605 42.041 22.5136L54.3444 12.6967C55.0325 12.1457 55.8229 11.7363 56.67 11.4923C57.5172 11.2482 58.4042 11.1743 59.28 11.2749C59.1835 12.1508 58.9143 12.9988 58.4881 13.7701C58.0619 14.5413 57.4871 15.2205 56.7969 15.7683L44.4935 25.575Z" fill="#008DFF"/>
<path id="Vector_148" d="M54.3444 12.6866L42.7485 21.9422C43.1984 23.2085 44.061 24.2868 45.1976 25.0036L56.7969 15.748C57.4871 15.2002 58.0619 14.521 58.4881 13.7498C58.9143 12.9785 59.1835 12.1305 59.28 11.2546C58.4035 11.1554 57.5161 11.231 56.6689 11.4768C55.8218 11.7225 55.0317 12.1338 54.3444 12.6866Z" fill="#008DFF"/>
<path id="Vector_149" opacity="0.5" d="M54.3444 12.6866L42.7485 21.9422C43.1984 23.2085 44.061 24.2868 45.1976 25.0036L56.7969 15.748C57.4871 15.2002 58.0619 14.521 58.4881 13.7498C58.9143 12.9785 59.1835 12.1305 59.28 11.2546C58.4035 11.1554 57.5161 11.231 56.6689 11.4768C55.8218 11.7225 55.0317 12.1338 54.3444 12.6866Z" fill="white"/>
<path id="Vector_150" d="M54.3446 12.6866L53.814 13.1118C54.3288 14.3407 55.1772 15.4011 56.2631 16.1732L56.7971 15.748C57.4873 15.2002 58.0621 14.521 58.4883 13.7498C58.9145 12.9785 59.1837 12.1305 59.2803 11.2546C58.4038 11.1554 57.5163 11.231 56.6691 11.4768C55.822 11.7225 55.0319 12.1338 54.3446 12.6866Z" fill="#008DFF"/>
<path id="Vector_151" opacity="0.2" d="M54.3446 12.6866L53.814 13.1118C54.3288 14.3407 55.1772 15.4011 56.2631 16.1732L56.7971 15.748C57.4873 15.2002 58.0621 14.521 58.4883 13.7498C58.9145 12.9785 59.1837 12.1305 59.2803 11.2546C58.4038 11.1554 57.5163 11.231 56.6691 11.4768C55.822 11.7225 55.0319 12.1338 54.3446 12.6866Z" fill="white"/>
<path id="Vector_152" d="M48.8648 34.1775L50.1982 32.4495L49.0383 30.9971L47.062 31.9155C47.1984 32.3928 47.4279 32.8385 47.7373 33.2267C48.0467 33.6149 48.4299 33.9381 48.8648 34.1775Z" fill="#263238"/>
<path id="Vector_153" opacity="0.2" d="M49.0383 30.9971L48.5757 31.2114C48.8473 31.8733 49.3029 32.4435 49.8887 32.8543L50.1982 32.4495L49.0383 30.9971Z" fill="white"/>
<path id="Vector_154" opacity="0.4" d="M48.0783 31.4426L47.7075 31.6127C48.0231 32.4254 48.5783 33.1229 49.2994 33.6128L49.5512 33.2727C48.9462 32.7639 48.4459 32.1424 48.0783 31.4426Z" fill="white"/>
<path id="Vector_155" d="M50.9628 33.1671C49.7717 32.5122 48.8895 31.411 48.5103 30.1057L60.8137 20.2889C61.502 19.738 62.2923 19.3285 63.1393 19.0839C63.9863 18.8394 64.8733 18.7645 65.7493 18.8636C65.6509 19.7395 65.3811 20.5875 64.955 21.359C64.5289 22.1306 63.9551 22.8107 63.2662 23.3605L50.9628 33.1671Z" fill="#008DFF"/>
<path id="Vector_156" d="M60.8141 20.279L49.2148 29.5312C49.6663 30.7976 50.53 31.8757 51.6674 32.5926L63.2666 23.3404C63.9555 22.7906 64.5294 22.1105 64.9555 21.339C65.3815 20.5674 65.6514 19.7195 65.7498 18.8436C64.8731 18.7458 63.9857 18.8224 63.1387 19.0687C62.2917 19.315 61.5017 19.7264 60.8141 20.279Z" fill="#008DFF"/>
<path id="Vector_157" opacity="0.5" d="M60.8141 20.279L49.2148 29.5312C49.6663 30.7976 50.53 31.8757 51.6674 32.5926L63.2666 23.3404C63.9555 22.7906 64.5294 22.1105 64.9555 21.339C65.3815 20.5674 65.6514 19.7195 65.7498 18.8436C64.8731 18.7458 63.9857 18.8224 63.1387 19.0687C62.2917 19.315 61.5017 19.7264 60.8141 20.279Z" fill="white"/>
<path id="Vector_158" d="M60.8143 20.2788L60.2837 20.7006C60.7986 21.9295 61.6469 22.9899 62.7328 23.762L63.2668 23.3368C63.9558 22.7871 64.5296 22.107 64.9557 21.3354C65.3817 20.5638 65.6516 19.7159 65.75 18.84C64.873 18.7427 63.9856 18.8198 63.1385 19.0667C62.2915 19.3137 61.5016 19.7256 60.8143 20.2788Z" fill="#008DFF"/>
<path id="Vector_159" opacity="0.2" d="M60.8143 20.2788L60.2837 20.7006C60.7986 21.9295 61.6469 22.9899 62.7328 23.762L63.2668 23.3368C63.9558 22.7871 64.5296 22.107 64.9557 21.3354C65.3817 20.5638 65.6516 19.7159 65.75 18.84C64.873 18.7427 63.9856 18.8198 63.1385 19.0667C62.2915 19.3137 61.5016 19.7256 60.8143 20.2788Z" fill="white"/>
<path id="Vector_160" d="M45.4186 31.6842L47.5751 28.9017L45.7009 26.5513L42.5068 28.0343C42.7271 28.8048 43.0979 29.5241 43.5976 30.1505C44.0974 30.777 44.7163 31.2982 45.4186 31.6842Z" fill="#263238"/>
<path id="Vector_161" opacity="0.2" d="M45.701 26.5513L44.9526 26.8914C45.3911 27.9591 46.125 28.8796 47.0684 29.5446L47.5752 28.8949L45.701 26.5513Z" fill="white"/>
<path id="Vector_162" opacity="0.4" d="M44.1494 27.2722L43.5474 27.5511C44.0603 28.8614 44.958 29.9856 46.1223 30.7758L46.5271 30.252C45.5484 29.4228 44.7407 28.4106 44.1494 27.2722Z" fill="white"/>
<path id="Vector_163" d="M48.7895 30.0548C47.836 29.5294 46.9956 28.8208 46.3168 27.9697C45.6379 27.1186 45.1338 26.1418 44.8335 25.0953L64.6951 9.2475C65.8065 8.35923 67.0823 7.69915 68.4494 7.30514C69.8165 6.91112 71.2479 6.79093 72.6615 6.95145C72.5047 8.36521 72.0699 9.73402 71.3823 10.9792C70.6946 12.2243 69.7676 13.3213 68.6545 14.207L48.7895 30.0548Z" fill="#008DFF"/>
<path id="Vector_164" d="M64.709 9.2474L46.0005 24.187C46.7196 26.2382 48.1083 27.9875 49.9429 29.1533L68.6684 14.2137C69.7815 13.328 70.7085 12.231 71.3961 10.9859C72.0838 9.74073 72.5186 8.37192 72.6754 6.95816C71.2622 6.79669 69.8311 6.9158 68.464 7.30864C67.0969 7.70148 65.8209 8.36033 64.709 9.2474Z" fill="#008DFF"/>
<path id="Vector_165" opacity="0.6" d="M64.709 9.24154L46.0005 24.1811C46.7196 26.2323 48.1083 27.9817 49.9429 29.1474L68.6684 14.2078C69.7815 13.3221 70.7085 12.2252 71.3961 10.98C72.0838 9.73487 72.5186 8.36606 72.6754 6.9523C71.2622 6.79084 69.8311 6.90994 68.464 7.30278C67.0969 7.69562 65.8209 8.35447 64.709 9.24154Z" fill="white"/>
<path id="Vector_166" d="M64.7087 9.2475L63.8516 9.92781C64.6808 11.9182 66.0513 13.6364 67.8076 14.8873L68.6682 14.207C69.7812 13.3213 70.7082 12.2243 71.3959 10.9792C72.0836 9.73402 72.5183 8.36521 72.6752 6.95145C71.2615 6.79093 69.8301 6.91112 68.463 7.30514C67.0959 7.69915 65.8201 8.35923 64.7087 9.2475Z" fill="#008DFF"/>
<path id="Vector_167" opacity="0.2" d="M64.7087 9.2475L63.8516 9.92781C64.6808 11.9182 66.0513 13.6364 67.8076 14.8873L68.6682 14.207C69.7812 13.3213 70.7082 12.2243 71.3959 10.9792C72.0836 9.73402 72.5183 8.36521 72.6752 6.95145C71.2615 6.79093 69.8301 6.91112 68.463 7.30514C67.0959 7.69915 65.8201 8.35923 64.7087 9.2475Z" fill="white"/>
<path id="Vector_168" d="M63.8687 16.343C63.583 16.5704 63.2363 16.7079 62.8724 16.7383C62.5086 16.7687 62.1439 16.6906 61.8244 16.5138C61.5049 16.3371 61.245 16.0696 61.0775 15.7451C60.9099 15.4207 60.8423 15.0539 60.8832 14.6911C60.924 14.3283 61.0715 13.9857 61.3069 13.7066C61.5424 13.4275 61.8553 13.2245 62.2061 13.1232C62.5568 13.0219 62.9298 13.0268 63.2778 13.1373C63.6258 13.2479 63.9332 13.4591 64.1612 13.7442C64.4667 14.1278 64.6075 14.6169 64.5527 15.1042C64.4978 15.5914 64.2518 16.037 63.8687 16.343Z" fill="#008DFF"/>
<path id="Vector_169" d="M61.2698 16.0507C60.9798 15.6866 60.838 15.2264 60.8726 14.7622C60.9073 14.298 61.116 13.8641 61.4569 13.5471C61.4179 13.5721 61.3804 13.5993 61.3447 13.6288C61.155 13.7802 60.9971 13.9675 60.8799 14.18C60.7626 14.3924 60.6884 14.6259 60.6614 14.8671C60.6344 15.1082 60.6551 15.3523 60.7225 15.5855C60.7898 15.8186 60.9024 16.0362 61.0538 16.2258C61.2053 16.4155 61.3926 16.5734 61.605 16.6906C61.8175 16.8079 62.051 16.8821 62.2921 16.9091C62.5333 16.9361 62.7774 16.9154 63.0106 16.848C63.2437 16.7807 63.4613 16.6681 63.6509 16.5167L63.753 16.4248C63.3681 16.6869 62.8985 16.794 62.438 16.7246C61.9776 16.6553 61.5604 16.4145 61.2698 16.0507Z" fill="#008DFF"/>
<path id="Vector_170" opacity="0.3" d="M61.2698 16.0507C60.9798 15.6866 60.838 15.2264 60.8726 14.7622C60.9073 14.298 61.116 13.8641 61.4569 13.5471C61.4179 13.5721 61.3804 13.5993 61.3447 13.6288C61.155 13.7802 60.9971 13.9675 60.8799 14.18C60.7626 14.3924 60.6884 14.6259 60.6614 14.8671C60.6344 15.1082 60.6551 15.3523 60.7225 15.5855C60.7898 15.8186 60.9024 16.0362 61.0538 16.2258C61.2053 16.4155 61.3926 16.5734 61.605 16.6906C61.8175 16.8079 62.051 16.8821 62.2921 16.9091C62.5333 16.9361 62.7774 16.9154 63.0106 16.848C63.2437 16.7807 63.4613 16.6681 63.6509 16.5167L63.753 16.4248C63.3681 16.6869 62.8985 16.794 62.438 16.7246C61.9776 16.6553 61.5604 16.4145 61.2698 16.0507Z" fill="black"/>
<path id="Vector_171" d="M63.5285 15.9178C63.3265 16.0791 63.0812 16.1769 62.8237 16.1987C62.5661 16.2205 62.3079 16.1654 62.0817 16.0404C61.8554 15.9154 61.6714 15.7261 61.5528 15.4964C61.4342 15.2668 61.3864 15.0071 61.4155 14.7503C61.4446 14.4934 61.5492 14.251 61.7161 14.0536C61.883 13.8563 62.1047 13.7129 62.3531 13.6416C62.6016 13.5703 62.8656 13.5743 63.1118 13.6532C63.3579 13.732 63.5751 13.8821 63.736 14.0844C63.8434 14.2181 63.9233 14.3718 63.971 14.5366C64.0188 14.7013 64.0334 14.8739 64.0141 15.0443C63.9949 15.2148 63.942 15.3797 63.8587 15.5296C63.7753 15.6796 63.6631 15.8115 63.5285 15.9178Z" fill="white"/>
<path id="Vector_172" d="M61.6577 15.656L63.9572 14.5029C63.9118 14.3618 63.8428 14.2296 63.7531 14.1117L61.4604 15.258C61.504 15.4006 61.5706 15.535 61.6577 15.656Z" fill="#008DFF"/>
<path id="Vector_173" d="M62.0147 15.9928L64.0148 14.9927C64.0233 14.9113 64.0233 14.8292 64.0148 14.7478L61.8276 15.8431C61.8855 15.8984 61.9481 15.9485 62.0147 15.9928Z" fill="#008DFF"/>
<g id="Group" opacity="0.7">
<path id="Vector_174" d="M61.6577 15.656L63.9572 14.5029C63.9118 14.3618 63.8428 14.2296 63.7531 14.1117L61.4604 15.258C61.504 15.4006 61.5706 15.535 61.6577 15.656Z" fill="white"/>
<path id="Vector_175" d="M62.0147 15.9926L64.0148 14.9926C64.0233 14.9112 64.0233 14.8291 64.0148 14.7477L61.8276 15.843C61.8855 15.8983 61.9481 15.9484 62.0147 15.9926Z" fill="white"/>
</g>
</g>
</g>
<g id="Mask group">
<mask id="mask0_4356_7203" style="mask-type:alpha" maskUnits="userSpaceOnUse" x="2" y="7" width="80" height="79">
<path id="Ellipse 407" d="M41.0213 85.4522L41.0107 85.4518H41C19.0765 85.4518 3.46387 67.0999 3.46387 46.1914C3.46387 25.3451 21.2427 8.40356 43.2276 8.40356C65.1793 8.40356 81.5 25.7971 81.5 46.676C81.5 67.5547 63.9368 86.4273 41.0213 85.4522Z" fill="#F0F0F0" stroke="#9CB6CA"/>
</mask>
<g mask="url(#mask0_4356_7203)">
<path id="Vector_176" opacity="0.7" d="M56.4306 98.0855H-12.8113C-14.2308 97.0869 -15.2324 95.6002 -15.6246 93.9096C-16.0168 92.219 -15.7721 90.4432 -14.9373 88.9217C-14.6233 88.3063 -14.1544 87.7834 -13.5767 87.4046C-14.351 85.9445 -14.5824 84.2571 -14.2298 82.6424C-13.8692 81.1219 -12.6106 80.0913 -11.3112 79.2613C-12.2731 73.6957 -11.1855 67.97 -8.24983 63.1448C-5.3313 58.403 -0.51812 55.3212 4.77469 53.8211C4.53273 51.7911 4.72032 49.733 5.32527 47.7802C5.93021 45.8274 6.93901 44.0236 8.28618 42.4859C9.63336 40.9482 11.2888 39.7109 13.1451 38.8544C15.0014 37.9979 17.017 37.5412 19.0612 37.5141C19.2132 36.0731 19.6768 34.6824 20.4198 33.4384C21.1628 32.1943 22.1675 31.1268 23.3641 30.3097C24.5417 29.5086 25.884 28.9818 27.2921 28.7681C28.7003 28.5544 30.1384 28.6592 31.5006 29.0749C31.7116 28.0544 32.152 27.0953 32.7884 26.2703C33.4249 25.4452 34.2408 24.7758 35.1743 24.3127C36.1086 23.8721 37.1327 23.6552 38.1654 23.6794C39.1982 23.7036 40.211 23.9682 41.1236 24.4522C43.9061 23.663 46.9675 25.1495 48.2294 27.7959C49.4914 30.4423 48.6478 33.9527 46.3178 35.6977C48.9472 39.6163 48.8315 45.7527 46.0388 49.5522C47.5763 49.9672 48.243 52.1714 48.4709 53.7769C49.1292 58.4436 48.3359 63.1997 46.1987 67.4001C49.0356 67.2641 51.7807 69.3798 53.4712 71.7065C54.31 72.8875 54.8563 74.251 55.065 75.6845C55.2738 77.118 55.1391 78.5806 54.672 79.9518C56.3183 79.8498 57.7164 81.1526 58.5259 82.6118C59.1332 83.8235 59.5224 85.1327 59.6756 86.4794C59.7405 86.6139 59.7896 86.7554 59.8219 86.9012C60.7029 90.7721 59.3457 95.3744 56.4306 98.0855Z" fill="#9BBCD5"/>
<path id="Vector_177" d="M24.9662 79.7945C20.0877 81.0591 17.5276 77.7768 16.8457 76.7168C18.4001 78.671 20.7975 79.9231 23.4877 79.9231C23.9914 79.9231 24.4858 79.8797 24.9662 79.7945Z" fill="#496333"/>
<path id="Vector_178" d="M46.7559 77.0653C47.1092 77.3644 47.3494 77.5628 47.4067 77.6093C47.1727 77.4372 46.9558 77.2544 46.7559 77.0653Z" fill="#081D28"/>
<path id="Vector_179" d="M7.69533 82.5496L-1.68377 75.6798L6.21938 70.0328L28.7776 67.0692L42.9422 56.2847L40.4478 52.6222L58.0513 49.0018L52.1485 68.153L49.3312 63.9957L35.3848 74.881L12.7891 77.1861L7.69533 82.5496Z" fill="#297769"/>
</g>
</g>
<g id="Group 1000004142">
<path id="Vector_180" d="M19.3706 69.4868L21.6257 69.5551C24.428 69.6408 27.2286 69.3099 29.9347 68.5746L34.0394 67.4593C34.0394 67.4593 34.3296 73.1128 35.4362 76.8421C36.5427 80.5714 37.0654 87.391 37.0654 87.391L43.4672 86.5174C43.4672 86.5174 41.1981 74.8024 40.8484 72.7626C40.4988 70.7229 41.9847 60.5662 38.4797 59.8991C34.9746 59.232 21.2953 63.0541 21.2953 63.0541C21.2953 63.0541 21.2761 68.3119 19.3724 69.4885L19.3706 69.4868Z" fill="#224159"/>
<path id="Vector_181" d="M15.1642 29.907L16.561 30.5425L13.0664 33.54L14.4177 30.4025C14.4177 30.4025 14.895 29.8982 15.1642 29.907Z" fill="#2B1C17"/>
<path id="Vector_182" d="M15.839 28.0686C15.839 28.0686 15.5645 30.7142 14.3321 31.791L13.0664 32.5193L17.4648 41.8671L21.9575 43.4201L24.3612 35.2156C24.3612 35.2156 22.6568 33.8815 22.2425 33.8815C21.8282 33.8815 16.561 27.4803 16.561 27.4803L15.839 28.0669V28.0686Z" fill="#E7B399"/>
<path id="Vector_183" d="M16.2109 29.9506C16.2109 29.9506 19.1304 36.5303 22.3102 35.0578C22.3102 35.0578 19.4118 35.5638 16.2109 29.9506Z" fill="#DDA68E"/>
<path id="Vector_184" d="M17.6444 38.6071C17.6444 38.6071 20.5218 40.3562 22.242 37.8787C24.0951 35.2104 24.0269 56.9736 24.0269 56.9736L15.2109 59.0938L17.6444 38.6071Z" fill="#E8E7E5"/>
<path id="Vector_185" d="M15.5566 57.0595L17.2261 56.8634C17.0076 57.2976 16.7209 57.5988 16.4045 57.5988C16.0881 57.5988 15.7787 57.3957 15.5566 57.0595Z" fill="#2B1C17"/>
<path id="Vector_186" d="M17.6437 54.9091C17.6437 55.4326 17.5388 56.0226 17.3623 56.5234L15.4026 56.7755C15.2522 56.4148 15.1631 55.9701 15.1631 55.4886C15.1631 54.284 15.4847 53.1477 16.17 53.1477C16.8553 53.1477 17.6437 53.7045 17.6437 54.9091Z" fill="#2B1C17"/>
<path id="Vector_187" d="M15.1704 56.973C15.1704 56.973 20.4778 55.7018 21.2925 55.1486C22.1071 54.5953 22.6718 55.933 22.6718 55.933L22.962 52.7692C22.962 52.7692 20.7715 52.89 20.1265 53.459C19.4814 54.028 15.354 53.9195 15.354 53.9195C15.354 53.9195 14.4362 55.5093 15.1704 56.973Z" fill="#E7B399"/>
<path id="Vector_188" d="M17.9985 21.9849C17.9985 21.9849 18.5999 24.0246 17.9985 24.5604C17.3971 25.0961 19.0754 26.2062 18.9075 27.0781C18.7397 27.95 18.3394 27.5806 18.1384 27.0781C17.9373 26.5756 18.439 24.5009 17.2363 24.7687C16.0336 25.0366 14.8833 27.0781 16.5615 28.5856L16.0336 29.1546C16.0336 29.1546 18.2835 33.3409 19.0299 33.8294C19.7764 34.3179 21.3357 36.1055 22.8933 34.6751C24.4509 33.2446 24.9719 31.6181 24.9719 31.6181C24.9719 31.6181 25.3285 31.3905 25.4911 31.2276C25.6537 31.0648 25.4911 30.5115 25.4911 30.5115C25.4911 30.5115 26.4334 29.8287 26.4334 28.6574L27.0819 27.0308L27.7305 26.3147C27.7305 26.3147 28.1868 23.228 27.6029 22.5452C27.6029 22.5452 23.972 22.4208 23.0314 21.64C23.0314 21.64 19.1698 21.274 17.9985 21.9866V21.9849Z" fill="#E7B399"/>
<path id="Vector_189" d="M16.01 28.5256C16.01 28.5256 14.1587 27.6152 15.1656 24.103C16.1726 20.5907 16.01 20.2651 16.01 20.2651C16.01 20.2651 15.7827 19.029 16.5624 18.8346C16.5624 18.8346 16.5956 17.3061 18.5431 17.9242C18.5431 17.9242 18.8682 17.1433 19.5815 17.567C19.5815 17.567 21.237 15.9177 22.6005 17.441C22.6005 17.441 24.6144 16.9805 24.9064 18.4775C24.9064 18.4775 26.0759 18.087 26.5619 19.3564C26.5619 19.3564 27.9587 19.4544 28.5093 20.8201C28.5093 20.8201 30.5232 22.0877 29.1264 24.2028C29.1264 24.2028 27.9254 23.0314 25.9762 23.3238C24.027 23.6162 22.7299 22.662 22.7299 22.662C22.7299 22.662 21.2195 22.8546 20.8786 23.2626C20.8786 23.2626 20.9922 24.208 20.5535 24.616C20.1147 25.0239 19.2336 25.9694 19.0221 27.258C19.0221 27.258 18.4679 28.5134 17.9312 27.0129C17.9312 27.0129 18.2669 24.5617 17.2355 24.7683C16.204 24.9749 14.8317 27.139 16.5607 28.5852C16.5607 28.5852 16.2513 28.6972 16.0083 28.5274L16.01 28.5256Z" fill="#533126"/>
<path id="Vector_190" d="M22.3855 35.7414L21.0342 37.9195V38.9245C21.0342 38.9245 21.4712 40.6176 21.4398 41.4632C21.4083 42.3089 21.9799 46.3481 21.709 48.0079C21.438 49.6678 22.1163 52.8473 22.1163 52.8473L23.7089 52.723L24.5043 44.9702C24.5043 44.9702 24.4116 44.3206 25.7245 44.3171L27.0373 44.3136C27.0373 44.3136 27.1859 39.0471 26.7786 38.0771C26.3713 37.1071 24.5567 34.5281 23.2019 34.374L22.5393 35.0341L22.3873 35.7414H22.3855Z" fill="#5B473F"/>
<path id="Vector_191" d="M8.14872 57.8802L9.04727 65.0553L9.07874 65.3021C9.07874 65.3021 9.08923 65.7539 9.83919 65.7153C9.83919 65.7153 10.0123 67.4329 11.1101 67.123C11.1101 67.123 9.80422 65.6383 12.2761 63.8979C12.2761 63.8979 13.7638 59.9235 15.4106 58.2934L8.14697 57.8802H8.14872Z" fill="#5B473F"/>
<path id="Vector_192" d="M36.8374 55.6412C36.8374 55.6412 39.3582 54.9653 41.9595 56.4763C44.5608 57.9873 48.4504 59.2987 49.1252 61.1091C49.8 62.9195 48.8665 65.1448 47.5571 65.3041C46.2477 65.4635 43.7863 64.9067 40.5697 61.3472L37.6538 59.2287L36.8374 55.6412Z" fill="#5B473F"/>
<path id="Vector_193" d="M19.6153 21.5826C19.6153 21.5826 17.3986 21.5144 16.3218 24.3157C16.3218 24.3157 16.6679 20.7352 19.6153 21.5826Z" fill="#774335"/>
<path id="Vector_194" d="M20.5244 22.9127C20.5244 22.9127 19.7779 21.9147 18.021 23.3644C18.021 23.3644 19.0891 21.3895 20.5244 22.9127Z" fill="#774335"/>
<path id="Vector_195" d="M24.0288 32.4477C24.0288 32.4477 23.1198 32.3286 22.8541 32.3636L21.043 31.4567C21.043 31.4567 21.1846 31.8751 21.9205 32.1903C22.6688 32.5089 23.2596 32.726 24.0288 32.4477Z" fill="#D29D7B"/>
<path id="Vector_196" d="M24.0055 32.6397C24.0055 32.6397 23.1944 33.5046 21.7609 32.286C21.7609 32.286 21.011 31.5699 21.0127 31.4333C21.0127 31.4333 22.4077 34.5114 24.0073 32.6397H24.0055Z" fill="#D29D7B"/>
<path id="Vector_197" d="M37.0063 56.2376L39.2615 56.0923C39.2615 56.0923 40.2562 56.5843 40.4957 57.2881C40.7352 57.992 42.3137 58.006 42.3137 58.006C42.3137 58.006 42.805 58.4437 41.5708 58.3772C41.5708 58.3772 39.5796 59.4172 40.1146 60.9089C40.1146 60.9089 38.6636 59.2788 37.0063 59.0793V56.2376Z" fill="#E7B399"/>
<path id="Vector_198" d="M11.3099 67.4982C11.3099 67.4982 18.1539 73.5824 22.1065 66.7278C22.1065 66.7278 22.7655 64.3817 22.1065 63.6481C22.1065 63.6481 24.9612 63.7006 27.4856 62.5188C30.0099 61.3369 37.5497 59.4705 37.5497 59.4705C37.5497 59.4705 38.1353 56.6761 36.5253 55.2317L20.8933 56.3522C20.8933 56.3522 14.6034 56.8267 12.7748 61.0813C10.9463 65.3359 9.73654 66.1395 11.3116 67.4964L11.3099 67.4982Z" fill="#1E3F54"/>
<path id="Vector_199" opacity="0.7" d="M21.043 31.4567C21.043 31.4567 22.3856 32.8959 24.0288 32.4477C24.0288 32.4477 24.0935 32.656 23.8225 32.8153C23.5516 32.9747 22.0324 33.647 21.043 31.4567Z" fill="#532321"/>
<path id="Vector_200" d="M21.043 31.4567C21.043 31.4567 22.3751 33.4666 24.0288 32.4477C24.0288 32.4477 22.6548 33.0097 21.043 31.4567Z" fill="white"/>
<path id="Vector_201" d="M31.419 50.6789C31.8235 50.6789 32.1515 50.3504 32.1515 49.9453C32.1515 49.5401 31.8235 49.2117 31.419 49.2117C31.0145 49.2117 30.6865 49.5401 30.6865 49.9453C30.6865 50.3504 31.0145 50.6789 31.419 50.6789Z" fill="white"/>
<path id="Vector_202" d="M16.0362 57.4702L15.6621 57.5542C15.6236 57.563 15.5869 57.5367 15.5834 57.4982L15.5555 57.2093C15.552 57.1673 15.5799 57.127 15.6219 57.1183L15.7932 57.0833C15.8631 57.2268 15.9436 57.3581 16.0362 57.4702Z" fill="#5B473F"/>
<path id="Vector_203" d="M17.3625 56.5232C17.3223 56.644 17.2769 56.7578 17.2262 56.8646L15.5567 57.0782C15.499 56.9872 15.4483 56.8856 15.4028 56.7753L17.3625 56.5232Z" fill="#2B1C17"/>
<path id="Vector_204" d="M15.403 56.7761C15.4483 56.8861 15.4989 56.9873 15.5564 57.0781L15.5093 57.0833C15.4274 56.9629 15.4361 56.928 15.3804 56.7796L15.403 56.7761Z" fill="#C6C6C6"/>
<path id="Vector_205" d="M22.8911 55.8098L22.8561 56.146L17.2271 56.8656C17.2777 56.7588 17.3232 56.645 17.3634 56.5242L22.8911 55.8098Z" fill="#C6C6C6"/>
<g id="Group_2">
<path id="Vector_206" d="M22.582 56.1454L36.3033 55.2244C36.4781 55.2122 36.618 55.0773 36.6337 54.9023L37.6773 44.1152C37.6983 43.8981 37.5218 43.7143 37.305 43.7248L24.2061 44.3849C24.0312 44.3936 23.8897 44.5284 23.8704 44.7018L22.582 56.1436" fill="#C6C6C6"/>
<path id="Vector_207" d="M23.0325 56.1449L36.4042 55.2239C36.5737 55.2117 36.7101 55.0769 36.7258 54.9018L37.7432 44.1147C37.7642 43.8976 37.5911 43.7138 37.3796 43.7243L24.6128 44.3844C24.4433 44.3931 24.3052 44.5279 24.2859 44.7013L23.0308 56.1431" fill="#F2F1F0"/>
</g>
<path id="Vector_208" d="M21.1146 27.4821L20.522 26.2338C20.522 26.2338 24.4186 25.6087 24.5532 26.752L23.4117 28.0687L21.1128 27.4821H21.1146Z" fill="#DDA68E"/>
<path id="Vector_209" d="M20.5234 26.2337C20.5234 26.2337 22.6649 25.3478 24.5547 26.3283V26.7502C24.5547 26.7502 21.88 26.0622 20.5234 26.232V26.2337Z" fill="#533126"/>
<path id="Vector_210" d="M21.1138 27.4815C21.1138 27.4815 23.3846 26.8319 23.4108 27.935C23.4371 29.038 21.5351 29.0695 21.1138 27.4815Z" fill="white"/>
<path id="Vector_211" d="M21.753 27.862C21.753 27.862 22.1341 27.1336 22.7425 27.3892C23.3508 27.6449 22.8788 28.7514 22.3841 28.7216C21.8894 28.6919 21.4751 28.4047 21.753 27.862Z" fill="#533126"/>
<path id="Vector_212" d="M26.1006 26.3096L26.146 26.9276L27.0831 27.0292L27.604 26.4549L26.1006 26.3096Z" fill="#533126"/>
<path id="Vector_213" d="M25.2562 28.1407L26.7788 27.7922L27.083 27.0306L26.146 26.9291L26.0009 27.1094C25.7334 27.4386 25.4258 27.7327 25.0866 27.9866L24.8139 28.1897C24.6863 28.2842 24.6129 28.4296 24.5849 28.5854C24.48 29.1562 23.2878 30.296 23.1846 30.4325C23.0658 30.5866 23.1969 31.0226 23.6829 30.935C24.1688 30.8457 24.4346 31.3115 25.244 31.3552C26.0534 31.399 24.9328 29.0213 25.1426 28.4261C25.181 28.3175 25.2195 28.2247 25.258 28.1407H25.2562ZM25.5988 27.6032L25.4537 27.7817C25.5394 27.6557 25.5988 27.6032 25.5988 27.6032Z" fill="#DDA68E"/>
<path id="Vector_214" d="M25.1392 28.1663C25.1392 28.1663 25.6566 27.1561 26.7772 27.7899L26.4328 28.6531C26.4328 28.6531 25.2213 29.1871 25.1392 28.1646V28.1663Z" fill="white"/>
<path id="Vector_215" d="M25.2998 28.3808C25.2998 28.3808 25.8749 27.3022 26.4186 27.8187C26.4693 27.8678 26.4973 27.9361 26.4903 28.0078C26.4676 28.2652 26.3504 28.9043 25.7438 28.794C25.7438 28.794 25.3365 28.6942 25.2998 28.3808Z" fill="#533126"/>
<path id="Vector_216" d="M13.0671 32.7346C13.0671 32.7346 13.2733 36.8316 18.2451 39.8046C18.2451 39.8046 12.9989 38.4774 13.0671 32.7346Z" fill="#47352F"/>
<path id="Vector_217" d="M20.5217 39.4999C20.5217 39.4999 18.2176 37.693 15.4975 34.2455C12.7773 30.7964 15.1636 29.9069 15.1636 29.9069C14.1059 29.8947 13.8962 31.6158 13.8962 31.6158L10.0292 33.5522C2.94047 35.0054 3.34255 42.1857 2.33561 45.5333C1.32867 48.8827 -1.04882 54.6115 0.522769 57.2325C2.09436 59.8553 7.45071 59.6942 8.81952 59.1287C10.1901 58.5649 12.2039 58.5649 13.7021 58.5247C15.2003 58.4844 16.4048 57.6002 16.4048 57.6002C16.3646 57.5617 16.0726 57.5162 16.0359 57.4707L15.6618 57.5547C15.6233 57.5634 15.5866 57.5372 15.5831 57.4987L15.5552 57.2098C15.5517 57.1678 15.5796 57.1275 15.6216 57.1187L15.7929 57.0837C15.2947 56.0367 15.4153 54.2911 15.9905 53.6836C16.674 52.9569 17.0376 53.4805 17.0376 53.4805C17.0376 53.4805 17.0376 48.5185 17.6407 47.3892C18.2456 46.2599 18.2456 39.8063 18.2456 39.8063L19.4396 40.834C20.5776 41.0564 20.5217 39.4999 20.5217 39.4999ZM6.92801 51.8592L7.99089 49.7284L9.13768 51.7471L6.92626 51.8592H6.92801Z" fill="#5B473F"/>
<path id="Vector_218" d="M10.8036 35.4523C10.8036 35.4523 9.54142 37.0561 9.14458 38.2326C8.74775 39.4092 9.43303 47.0552 7.4751 49.1142C7.4751 49.1142 8.70056 47.577 8.92956 46.754C9.15857 45.9311 9.15857 38.8349 9.48548 38.3114C9.81238 37.7879 10.0973 36.4187 10.8036 35.4523Z" fill="#47352F"/>
<path id="Vector_219" d="M6.27393 53.2707C6.27393 53.2707 9.79296 51.9663 14.8888 53.4125C14.8888 53.4125 9.26152 51.1785 6.27393 53.2707Z" fill="#47352F"/>
<path id="Vector_220" d="M7.99168 49.7273L7.8291 51.8126L9.13847 51.746L7.99168 49.7273Z" fill="#5B473F"/>
<path id="Vector_221" d="M17.0211 53.4468C17.0211 53.4468 16.0159 52.6064 15.0981 54.0806C15.0981 54.0806 15.8761 52.8305 17.0211 53.4468Z" fill="#47352F"/>
<path id="Vector_222" d="M24.1167 36.9879C24.1167 36.9879 25.7163 40.0274 24.3597 43.7252C24.3597 43.7252 26.655 40.4196 24.1167 36.9879Z" fill="#47352F"/>
<path id="Vector_223" d="M13.0664 33.5386C13.0664 33.5386 14.4579 37.4202 17.5452 38.8944C17.5452 38.8944 13.6957 37.6076 13.0664 33.5386Z" fill="#47352F"/>
<path id="Vector_224" d="M21.4081 35.2654L20.0498 36.4052L20.7281 39.0613L21.0323 38.9247V37.9197L22.3836 35.7416L22.5357 35.0343C22.5357 35.0343 22.013 35.3985 21.4064 35.2654H21.4081Z" fill="#DDA68E"/>
<path id="Vector_225" d="M18.4238 37.5656C18.4238 37.5656 14.5814 33.5702 14.3926 32.4023L18.4238 37.5656Z" fill="#DDA68E"/>
<path id="Vector_226" d="M9.83725 65.716C9.83725 65.716 9.72536 62.743 11.8808 60.3916C11.8808 60.3916 9.3565 61.4999 9.83725 65.716Z" fill="#2B1C17"/>
<path id="Vector_227" d="M10.9594 67.1529C10.9594 67.1529 10.136 66.5838 10.9839 64.8522C11.8317 63.1206 13.0344 60.5521 13.0344 60.5521C13.0344 60.5521 10.2129 66.7239 10.9611 67.1511L10.9594 67.1529Z" fill="#0B2533"/>
<path id="Vector_228" d="M19.1807 55.8914L22.5966 55.7654C22.5966 55.7654 22.4252 54.988 21.6019 55.0107L19.1807 55.8932V55.8914Z" fill="#C99883"/>
<path id="Vector_229" d="M17.5474 25.8657C17.5474 25.8657 16.7205 25.652 16.6436 26.2263C16.5667 26.8006 16.3097 27.536 16.8114 27.7811C17.3131 28.0262 17.1034 26.9792 17.3901 26.8041C17.6768 26.629 17.5474 25.8657 17.5474 25.8657Z" fill="#DDA68E"/>
<path id="Vector_230" d="M22.7314 22.6573C22.7314 22.6573 24.0863 24.1175 26.7784 23.5432C26.7784 23.5432 27.6368 23.4819 27.899 23.9109L27.8763 23.4819C27.8763 23.4819 27.3483 23.1072 25.4516 23.3681C25.4516 23.3681 23.6475 23.4417 22.7314 22.6555V22.6573Z" fill="#DDA68E"/>
<path id="Vector_231" d="M20.0501 39.1024C20.0501 39.1024 20.6025 39.1024 20.6952 38.9308L20.7284 39.0604C20.7284 39.0604 20.3001 39.1777 20.1462 39.1864L20.0483 39.1024H20.0501Z" fill="#DDA68E"/>
<path id="Vector_232" d="M25.1118 28.8059C25.1118 28.8059 25.5296 30.1576 25.5244 30.6443L25.1118 28.8059Z" fill="#E5BFB3"/>
<path id="Vector_233" d="M22.1047 63.6494C22.1047 63.6494 23.3197 67.5013 19.3706 69.4885C19.3706 69.4885 24.4228 68.3224 22.1047 63.6494Z" fill="#0B2533"/>
<path id="Vector_234" d="M22.1043 63.6496C22.1043 63.6496 25.8628 63.4955 28.305 62.1771C30.7472 60.8587 35.8011 59.9203 35.8011 59.9203C35.8011 59.9203 30.5024 61.3105 28.5078 62.2349C26.5131 63.1594 23.6199 63.8405 22.1025 63.6496H22.1043Z" fill="#0B2533"/>
<path id="Vector_235" d="M17.3618 56.5241L17.4003 56.4103L19.2673 55.892L22.6238 55.7625L22.615 55.8447L17.3618 56.5241Z" fill="#939292"/>
<path id="Vector_236" d="M22.7022 55.0512C22.7022 55.0512 22.4644 54.2528 21.6673 54.3877C20.8701 54.5225 20.7617 54.8306 20.7617 54.8306C20.7617 54.8306 21.9627 53.9307 22.7039 55.0512H22.7022Z" fill="#C99883"/>
<path id="Vector_237" d="M22.9165 53.2272C22.9165 53.2272 22.5266 53.0241 22.0879 53.1309C21.6491 53.2377 21.3606 53.4986 21.1631 53.7192C21.1631 53.7192 21.9183 52.905 22.9165 53.2272Z" fill="#C99883"/>
<path id="Vector_238" d="M40.3438 87.4917C42.1239 87.2402 43.532 86.7879 43.4888 86.4815C43.4456 86.1751 41.9676 86.1306 40.1875 86.3821C38.4074 86.6336 36.9993 87.0859 37.0425 87.3923C37.0857 87.6987 38.5637 87.7432 40.3438 87.4917Z" fill="#0D2230"/>
<path id="Vector_239" d="M39.0098 93.7503V95.5134C39.0098 95.5134 44.2665 98.3708 48.9882 97.7072C48.9882 97.7072 50.9042 97.308 50.6 95.6972L39.0098 93.7485V93.7503Z" fill="#939292"/>
<path id="Vector_240" d="M38.5742 87.3428L39.1545 91.4033L41.032 91.4926L42.1403 93.3905H42.3011V91.314L43.392 90.2933C43.392 90.2933 42.2295 87.4322 42.1403 86.6443L38.5742 87.3428Z" fill="#E7B399"/>
<path id="Vector_241" d="M39.0098 91.6557V94.4133C39.0098 94.4133 42.4956 96.1501 46.3048 96.3287C48.9201 96.4513 49.9917 96.2377 50.4077 96.0906C50.5686 96.0346 50.6525 95.8613 50.6 95.6984C50.5091 95.4165 50.2504 94.9963 49.5179 94.8353C48.7068 94.6567 47.9498 94.2872 47.2733 93.8058C45.866 92.8043 43.8469 91.2513 43.3906 90.2953L42.2998 91.316V93.3926H42.139L41.0306 91.4946L39.1531 91.4053L39.0098 91.6557Z" fill="#5B473F"/>
<path id="Vector_242" d="M21.4062 35.2654C21.4062 35.2654 22.1003 35.4685 22.5356 35.0343L22.4551 35.4055C22.4551 35.4055 21.5321 35.416 21.4062 35.2654Z" fill="#C68A75"/>
<path id="Vector_243" d="M20.5234 22.177C20.5234 22.177 25.2242 19.9726 28.5387 22.7057C28.5387 22.7057 24.4043 18.1272 20.5234 22.177Z" fill="#774335"/>
<path id="Vector_244" d="M19.6015 21.1178C19.6015 21.1178 20.1994 18.3305 23.0332 18.0783C23.0332 18.0783 19.3795 17.6039 19.6015 21.1178Z" fill="#774335"/>
<path id="Vector_245" d="M20.2148 21.1178C20.2148 21.1178 22.2864 18.5808 25.302 19.2216C25.302 19.2216 21.6343 17.7159 20.2148 21.1178Z" fill="#774335"/>
<path id="Vector_246" d="M19.0359 20.5053C19.0359 20.5053 17.2772 19.7594 16.3228 21.2267C16.3228 21.2267 16.9468 19.0713 19.0359 20.5053Z" fill="#774335"/>
<path id="Vector_247" d="M21.1851 54.0196C21.1851 54.0196 21.9438 53.4471 22.8301 53.9374C22.8301 53.9374 21.7987 53.3053 21.1851 54.0196Z" fill="#C99883"/>
<path id="Vector_248" d="M31.1211 50.6789C31.5257 50.6789 31.8536 50.3504 31.8536 49.9453C31.8536 49.5401 31.5257 49.2117 31.1211 49.2117C30.7166 49.2117 30.3887 49.5401 30.3887 49.9453C30.3887 50.3504 30.7166 50.6789 31.1211 50.6789Z" fill="white"/>
</g>
<g id="Target">
<path id="Vector_249" d="M48.1946 8.29719C48.1946 7.04199 47.696 5.83819 46.8084 4.95063C45.9208 4.06307 44.717 3.56445 43.4618 3.56445C43.3558 3.56445 43.2517 3.56445 43.1457 3.57601C41.9452 3.65275 40.819 4.18374 39.9959 5.06106C39.1729 5.93838 38.7148 7.09617 38.7148 8.29911C38.7148 9.50205 39.1729 10.6599 39.9959 11.5372C40.819 12.4145 41.9452 12.9455 43.1457 13.0222C43.2517 13.0222 43.3558 13.0222 43.4618 13.0222C44.7157 13.0222 45.9183 12.5247 46.8057 11.6388C47.693 10.7529 48.1925 9.55105 48.1946 8.29719Z" fill="#4092D1"/>
<path id="Vector_250" opacity="0.2" d="M47.5562 8.29728C47.4998 7.43415 47.1921 6.60637 46.6712 5.9159C46.1502 5.22542 45.4386 4.7024 44.6242 4.41125C43.8097 4.1201 42.9278 4.07354 42.0872 4.27731C41.2465 4.48107 40.4839 4.92626 39.8931 5.55804C39.3023 6.18982 38.9092 6.9806 38.7622 7.83299C38.6153 8.68538 38.7208 9.56214 39.0659 10.3553C39.4109 11.1485 39.9804 11.8234 40.7043 12.2969C41.4281 12.7704 42.2746 13.0219 43.1396 13.0204C44.3377 12.9406 45.4607 12.4083 46.2808 11.5312C47.1009 10.6541 47.5569 9.49804 47.5562 8.29728Z" fill="white"/>
<path id="Vector_251" opacity="0.4" d="M46.4091 6.94282C47.1575 8.74978 46.2994 10.8214 44.4925 11.5698C42.6855 12.3183 40.6139 11.4602 39.8655 9.65326C39.117 7.8463 39.9751 5.77472 41.782 5.02625C43.589 4.27778 45.6606 5.13586 46.4091 6.94282Z" fill="white"/>
<path id="Vector_252" opacity="0.4" d="M43.7479 5.77466C45.1541 6.10655 46.0249 7.5155 45.6931 8.92166C45.3612 10.3278 43.9522 11.1987 42.5461 10.8668C41.1399 10.5349 40.269 9.12596 40.6009 7.7198C40.9328 6.31365 42.3418 5.44278 43.7479 5.77466Z" fill="white"/>
<path id="Vector_253" d="M44.002 8.29736C44.002 8.09528 43.942 7.89774 43.8298 7.72971C43.7175 7.56169 43.5579 7.43073 43.3712 7.3534C43.1845 7.27607 42.9791 7.25583 42.7809 7.29526C42.5827 7.33468 42.4006 7.43199 42.2578 7.57488C42.1149 7.71778 42.0176 7.89983 41.9781 8.09803C41.9387 8.29622 41.9589 8.50166 42.0363 8.68836C42.1136 8.87506 42.2446 9.03463 42.4126 9.1469C42.5806 9.25917 42.7782 9.31909 42.9802 9.31909C43.1145 9.31934 43.2475 9.29309 43.3715 9.24183C43.4956 9.19058 43.6083 9.11533 43.7033 9.0204C43.7982 8.92547 43.8734 8.81274 43.9247 8.68866C43.976 8.56458 44.0022 8.43161 44.002 8.29736Z" fill="#263238"/>
<path id="Vector_254" d="M35.8818 4.78655L36.8284 4.63233L38.2164 5.45164V5.45357L37.5089 5.76587L35.8818 4.78655Z" fill="#4092D1"/>
<path id="Vector_255" d="M42.4307 8.03477L36.7935 4.69824L36.8651 4.57714L42.5024 7.91366L42.4307 8.03477Z" fill="#263238"/>
<path id="Vector_256" d="M36.7065 3.78641L38.0753 4.59801L38.216 5.45203L36.828 4.63271L36.7065 3.78641Z" fill="#4092D1"/>
<path id="Vector_257" opacity="0.2" d="M36.7065 3.78641L38.0753 4.59801L38.216 5.45203L36.828 4.63271L36.7065 3.78641Z" fill="black"/>
<path id="Vector_258" d="M42.8314 8.34912L41.8906 8.10815L42.7485 7.63584L43.136 8.2508L42.8314 8.34912Z" fill="white"/>
<path id="Vector_259" d="M43.3156 14.3409C43.2695 14.3396 43.2235 14.3475 43.1804 14.3641C43.1374 14.3807 43.098 14.4057 43.0647 14.4376C43.0313 14.4695 43.0046 14.5077 42.9862 14.55C42.9677 14.5923 42.9578 14.6379 42.957 14.6841V16.2263C42.957 16.3193 42.994 16.4086 43.0598 16.4744C43.1256 16.5402 43.2148 16.5771 43.3079 16.5771C43.4009 16.5771 43.4902 16.5402 43.556 16.4744C43.6218 16.4086 43.6587 16.3193 43.6587 16.2263V14.6841C43.6573 14.5935 43.6206 14.5071 43.5566 14.4431C43.4926 14.379 43.4061 14.3424 43.3156 14.3409Z" fill="#4092D1"/>
<path id="Vector_260" d="M43.3157 -5.88894e-05C43.2696 -0.000314713 43.2238 0.00858521 43.1811 0.0261271C43.1385 0.0436687 43.0997 0.0695033 43.067 0.102135C43.0344 0.134766 43.0086 0.173546 42.991 0.21623C42.9735 0.258914 42.9646 0.304652 42.9648 0.350798V1.89304C42.9648 1.98609 43.0018 2.07533 43.0676 2.14113C43.1334 2.20693 43.2227 2.2439 43.3157 2.2439C43.4088 2.2439 43.498 2.20693 43.5638 2.14113C43.6296 2.07533 43.6666 1.98609 43.6666 1.89304V0.350798C43.6668 0.304652 43.6579 0.258914 43.6404 0.21623C43.6228 0.173546 43.597 0.134766 43.5644 0.102135C43.5317 0.0695033 43.493 0.0436687 43.4503 0.0261271C43.4076 0.00858521 43.3619 -0.000314713 43.3157 -5.88894e-05Z" fill="#4092D1"/>
<path id="Vector_261" d="M36.9307 8.166H35.3788C35.3305 8.16241 35.2818 8.16885 35.2361 8.18491C35.1903 8.20096 35.1483 8.22629 35.1127 8.25931C35.0772 8.29233 35.0488 8.33233 35.0294 8.37681C35.01 8.42129 35 8.46929 35 8.51782C35 8.56634 35.01 8.61435 35.0294 8.65883C35.0488 8.70331 35.0772 8.74331 35.1127 8.77633C35.1483 8.80935 35.1903 8.83468 35.2361 8.85073C35.2818 8.86679 35.3305 8.87323 35.3788 8.86964H36.9307C36.9791 8.87323 37.0277 8.86679 37.0735 8.85073C37.1193 8.83468 37.1613 8.80935 37.1969 8.77633C37.2324 8.74331 37.2608 8.70331 37.2802 8.65883C37.2996 8.61435 37.3096 8.56634 37.3096 8.51782C37.3096 8.46929 37.2996 8.42129 37.2802 8.37681C37.2608 8.33233 37.2324 8.29233 37.1969 8.25931C37.1613 8.22629 37.1193 8.20096 37.0735 8.18491C37.0277 8.16885 36.9791 8.16241 36.9307 8.166Z" fill="#4092D1"/>
<path id="Vector_262" d="M51.4396 8.16623H49.8858C49.797 8.17281 49.714 8.21273 49.6534 8.27798C49.5928 8.34324 49.5591 8.429 49.5591 8.51805C49.5591 8.6071 49.5928 8.69286 49.6534 8.75812C49.714 8.82337 49.797 8.86329 49.8858 8.86987H51.4396C51.5284 8.86329 51.6115 8.82337 51.6721 8.75812C51.7327 8.69286 51.7663 8.6071 51.7663 8.51805C51.7663 8.429 51.7327 8.34324 51.6721 8.27798C51.6115 8.21273 51.5284 8.17281 51.4396 8.16623Z" fill="#4092D1"/>
</g>
<g id="Group 1000004143">
<path id="Vector_263" d="M77.0605 52.3742C77.0574 54.5324 76.2695 56.6157 74.8437 58.2358C73.418 59.8559 71.4516 60.9021 69.3114 61.1794C67.1712 61.4567 65.0031 60.9461 63.2116 59.7429C61.42 58.5396 60.1272 56.7259 59.5742 54.6398C59.0212 52.5537 59.2458 50.3378 60.2061 48.4051C61.1664 46.4724 62.7969 44.9549 64.7934 44.1356C66.79 43.3163 69.0164 43.2511 71.0575 43.9522C73.0985 44.6533 74.8149 46.0728 75.8867 47.946C76.6574 49.2945 77.062 50.8211 77.0605 52.3742Z" fill="#4192D1"/>
<path id="Vector_264" d="M75.89 47.9474L68.1582 52.3756V43.47C69.7273 43.4683 71.2689 43.8817 72.6268 44.668C73.9846 45.4543 75.1104 46.5857 75.89 47.9474Z" fill="#EC5F73"/>
<path id="Vector_265" d="M74.2589 53.1177C74.6733 49.7425 72.2731 46.6704 68.8978 46.2559C65.5226 45.8415 62.4505 48.2417 62.036 51.617C61.6216 54.9922 64.0218 58.0644 67.3971 58.4788C70.7723 58.8932 73.8444 56.493 74.2589 53.1177Z" fill="white"/>
<g id="Group 1000004138">
<path id="Vector_266" d="M74.2227 28.0435C72.0716 28.6199 70.7954 30.831 71.3717 32.9816C71.9479 35.1322 74.1592 36.4089 76.3098 35.8326C78.4604 35.2564 79.7371 33.0452 79.1608 30.8945C78.5846 28.7439 76.3738 27.4671 74.2227 28.0435ZM75.9169 34.3663C74.5761 34.7256 73.1978 33.9298 72.8385 32.589C72.4793 31.2483 73.2751 29.8699 74.6158 29.5107C75.9566 29.1514 77.3349 29.9472 77.6942 31.288C78.0535 32.6287 77.2577 34.0071 75.9169 34.3663Z" fill="#C64B56"/>
<path id="Vector_267" d="M70.8757 33.2871C70.5898 32.2204 69.9019 31.3685 69.0184 30.8513C68.1207 30.3255 67.0215 30.1456 65.9375 30.4361C65.2665 30.6159 64.6808 30.9544 64.2096 31.4011C63.1705 32.3859 62.6899 33.8942 63.0865 35.3742C63.3059 36.1929 63.7624 36.8854 64.3624 37.3968C65.3374 38.2289 66.6924 38.5827 68.0248 38.2257C68.0447 38.2203 68.0646 38.2145 68.0844 38.2087C68.1325 38.1949 68.1794 38.1799 68.2257 38.1647C70.2546 37.5084 71.4339 35.3703 70.8757 33.2871ZM65.4849 36.3506C65.4554 36.3291 65.4265 36.3064 65.3979 36.2832C64.9998 35.9611 64.6961 35.5143 64.5532 34.9812C64.194 33.6404 64.9898 32.2621 66.3305 31.9028C67.6713 31.5435 69.0497 32.3393 69.4089 33.6801C69.4202 33.7222 69.4304 33.7637 69.4393 33.806C69.4481 33.8474 69.4558 33.8886 69.4626 33.93C69.4755 34.0083 69.4837 34.085 69.4889 34.1597C69.522 34.6362 69.4171 35.1016 69.2021 35.5072C69.193 35.5249 69.1837 35.5416 69.1748 35.5578C69.1234 35.65 69.0666 35.7379 69.0042 35.8226L69.0038 35.8227C69.0038 35.8227 69.0031 35.8239 69.0028 35.8244C68.7587 36.1551 68.433 36.4282 68.045 36.6087C66.7458 37.3448 65.7614 36.6017 65.4849 36.3506Z" fill="#2B4D53"/>
<path id="Vector_268" d="M73.5713 28.2182C71.4202 28.7946 70.1436 31.0058 70.7198 33.1564C71.2961 35.3071 73.5073 36.5837 75.6579 36.0074C77.8086 35.4312 79.0852 33.22 78.509 31.0693C77.9327 28.9187 75.7219 27.6419 73.5713 28.2182ZM75.2655 34.541C73.9247 34.9003 72.5464 34.1045 72.1871 32.7637C71.8279 31.423 72.6236 30.0446 73.9644 29.6853C75.3052 29.3261 76.6835 30.1219 77.0428 31.4627C77.4021 32.8034 76.6063 34.1818 75.2655 34.541Z" fill="#EC5F73"/>
<g id="Group_3">
<path id="Vector_269" d="M71.3669 33.076C70.9196 32.7001 70.4432 32.2349 69.94 31.6624C69.8907 31.6062 69.8425 31.5488 69.7944 31.4918C69.5824 31.2401 68.4772 30.0868 66.2447 30.3594C66.3119 30.3371 66.3798 30.317 66.449 30.2985C68.5752 29.7288 70.7602 30.9697 71.3669 33.076Z" fill="#D8B110"/>
<path id="Vector_270" d="M71.3871 33.1497C71.5687 33.8274 71.5664 34.5107 71.4108 35.147C71.0725 36.5312 70.0091 37.6932 68.5357 38.088C68.4261 38.1173 68.3163 38.142 68.206 38.1616C69.6845 37.6313 70.6866 36.3028 70.8496 34.8035C70.9024 34.3211 70.8683 33.8212 70.7352 33.3244C70.1959 31.3117 68.2257 30.0655 66.213 30.3847C66.1838 30.3892 66.1551 30.3941 66.1262 30.3995C66.154 30.3896 66.1817 30.3798 66.2101 30.3703C66.2214 30.3663 66.2328 30.3628 66.2442 30.3593C68.4767 30.0867 69.582 31.2399 69.7939 31.4917C69.842 31.5487 69.8902 31.6061 69.9395 31.6623C70.4427 32.2348 70.9191 32.6999 71.3664 33.0759C71.3735 33.1006 71.3805 33.1249 71.3871 33.1497Z" fill="#369663"/>
</g>
<path id="Vector_271" d="M66.6631 31.8374C66.5528 31.8517 66.442 31.8729 66.3312 31.9026C64.9904 32.2618 64.1946 33.6402 64.5539 34.9809C64.9131 36.3217 66.2915 37.1175 67.6322 36.7582C67.7427 36.7287 67.8492 36.6916 67.9523 36.6487C66.7228 36.8075 65.5351 36.0367 65.2054 34.8064C64.8757 33.576 65.5189 32.3146 66.6631 31.8374Z" fill="#AA6F22"/>
<path id="Vector_272" d="M70.8982 32.0327C70.8982 32.0327 73.9847 34.8693 75.6517 34.397L75.3762 34.8749L70.9955 34.5921L70.8982 32.0327Z" fill="#D8B110"/>
<path id="Vector_273" d="M73.4364 28.8632L73.5658 29.8287C73.5658 29.8287 73.4375 29.8892 73.2574 30.0154C73.253 30.0185 73.2491 30.0215 73.2445 30.0241C73.1463 30.0937 73.034 30.1822 72.9186 30.2907C72.9174 30.2915 72.9166 30.2921 72.9155 30.2934C72.3801 30.7986 71.7899 31.7325 72.3375 33.1783C72.3375 33.1783 70.97 32.3306 70.6101 31.6351C70.6101 31.6351 70.5301 29.949 72.39 28.749L73.4364 28.8632Z" fill="#57BD87"/>
<path id="Vector_274" d="M75.6565 34.4157C75.6565 34.4157 74.0316 35.3184 71.3667 33.0761C70.9195 32.7002 70.4431 32.235 69.9398 31.6625C69.8905 31.6063 69.8423 31.5489 69.7942 31.4919C69.5823 31.2402 68.477 30.0869 66.2445 30.3595C66.233 30.3607 66.2211 30.3625 66.2091 30.3638L66.2109 30.3704L66.2133 30.385L66.5166 31.8558C66.5166 31.8558 68.4877 31.3614 69.4191 33.7145C69.4191 33.7145 69.9849 34.2402 70.8499 34.8038C71.0256 34.9183 71.2135 35.0339 71.4112 35.1473C72.7091 35.8914 74.4417 36.5276 75.9808 35.9065L75.113 35.3077L75.6565 34.4157Z" fill="#E9D069"/>
<path id="Vector_275" d="M69.4196 33.7143C69.4278 33.7449 69.4341 33.7755 69.4403 33.8057C69.4496 33.8474 69.4573 33.8886 69.4636 33.9297C69.4765 34.008 69.4847 34.0847 69.4899 34.1594C69.5289 34.7432 69.3539 35.2165 69.2031 35.5069C69.194 35.5246 69.1847 35.5413 69.1757 35.5575C69.0871 35.72 69.0124 35.8137 69.0052 35.8223L69.0048 35.8224C69.0048 35.8224 69.0041 35.8236 69.0038 35.8241C68.6704 36.1835 68.3497 36.4363 68.046 36.6084C66.7467 37.3445 65.7623 36.6014 65.4859 36.3503C65.4344 36.3037 65.4074 36.2739 65.4074 36.2739L65.3989 36.2828L65.441 37.2703L64.3634 37.3965L64.362 37.3983C64.362 37.3983 65.4668 38.9224 68.0257 38.2254C68.0457 38.22 68.0655 38.2142 68.0854 38.2084C70.5888 37.4853 70.9435 34.7954 70.9435 34.7954C70.6041 34.5826 69.4196 33.7143 69.4196 33.7143Z" fill="#57BD87"/>
<path id="Vector_276" d="M72.9158 30.2934C71.8522 31.3589 72.3378 33.1783 72.3378 33.1783C71.7902 31.7325 72.3804 30.7986 72.9158 30.2934Z" fill="#369663"/>
<path id="Vector_277" d="M74.0716 34.1564C73.7962 34.0269 73.3245 33.7977 72.9165 33.5625C72.6881 33.4309 72.4797 33.2974 72.3369 33.1785C72.3369 33.1785 71.8513 31.3591 72.9149 30.2936C72.916 30.2923 72.9168 30.2916 72.918 30.2908C73.0135 30.1949 73.1217 30.1055 73.244 30.0243C73.2485 30.0216 73.2524 30.0187 73.2568 30.0156C73.5213 29.8425 73.8503 29.7059 74.2583 29.6246C74.2583 29.6246 71.8867 30.888 73.098 33.2122C73.098 33.2122 73.4162 33.8053 74.0716 34.1564Z" fill="#369663"/>
</g>
</g>
</g>
</svg>
