<svg width="18" height="18" viewBox="0 0 18 18" fill="none" xmlns="http://www.w3.org/2000/svg">
<g id="rocket_launch">
<mask id="mask0_6162_29489" style="mask-type:alpha" maskUnits="userSpaceOnUse" x="0" y="0" width="18" height="18">
<rect id="Bounding box" width="18" height="18" fill="#D9D9D9"/>
</mask>
<g mask="url(#mask0_6162_29489)">
<path id="rocket_launch_2" d="M4.23735 7.51816L5.69985 8.13691C5.87485 7.78691 6.0561 7.44941 6.2436 7.12441C6.4311 6.79941 6.63735 6.47441 6.86235 6.14941L5.81235 5.94316L4.23735 7.51816ZM6.89985 9.07441L9.03735 11.1932C9.56235 10.9932 10.1249 10.6869 10.7249 10.2744C11.3249 9.86191 11.8874 9.39316 12.4124 8.86816C13.2874 7.99316 13.9717 7.02128 14.4655 5.95253C14.9592 4.88378 15.1749 3.89941 15.1124 2.99941C14.2124 2.93691 13.2249 3.15253 12.1499 3.64628C11.0749 4.14003 10.0999 4.82441 9.22485 5.69941C8.69985 6.22441 8.2311 6.78691 7.8186 7.38691C7.4061 7.98691 7.09985 8.54941 6.89985 9.07441ZM10.2374 7.85566C9.94985 7.56816 9.8061 7.21503 9.8061 6.79628C9.8061 6.37753 9.94985 6.02441 10.2374 5.73691C10.5249 5.44941 10.8811 5.30566 11.3061 5.30566C11.7311 5.30566 12.0874 5.44941 12.3749 5.73691C12.6624 6.02441 12.8061 6.37753 12.8061 6.79628C12.8061 7.21503 12.6624 7.56816 12.3749 7.85566C12.0874 8.14316 11.7311 8.28691 11.3061 8.28691C10.8811 8.28691 10.5249 8.14316 10.2374 7.85566ZM10.5936 13.8744L12.1686 12.2994L11.9624 11.2494C11.6374 11.4744 11.3124 11.6775 10.9874 11.8588C10.6624 12.04 10.3249 12.2182 9.97485 12.3932L10.5936 13.8744ZM16.4624 1.63066C16.6999 3.14316 16.553 4.61503 16.0217 6.04628C15.4905 7.47753 14.5749 8.84316 13.2749 10.1432L13.6499 11.9994C13.6999 12.2494 13.6874 12.4932 13.6124 12.7307C13.5374 12.9682 13.4124 13.1744 13.2374 13.3494L10.0874 16.4994L8.51235 12.8057L5.3061 9.59941L1.61235 8.02441L4.7436 4.87441C4.9186 4.69941 5.12798 4.57441 5.37173 4.49941C5.61548 4.42441 5.86235 4.41191 6.11235 4.46191L7.9686 4.83691C9.2686 3.53691 10.6311 2.61816 12.0561 2.08066C13.4811 1.54316 14.9499 1.39316 16.4624 1.63066ZM2.9436 11.9807C3.3811 11.5432 3.91548 11.3213 4.54673 11.315C5.17798 11.3088 5.71235 11.5244 6.14985 11.9619C6.58735 12.3994 6.80298 12.9338 6.79673 13.565C6.79048 14.1963 6.5686 14.7307 6.1311 15.1682C5.8186 15.4807 5.29673 15.7494 4.56548 15.9744C3.83423 16.1994 2.82485 16.3994 1.53735 16.5744C1.71235 15.2869 1.91235 14.2775 2.13735 13.5463C2.36235 12.815 2.6311 12.2932 2.9436 11.9807ZM4.01235 13.0307C3.88735 13.1557 3.76235 13.3838 3.63735 13.715C3.51235 14.0463 3.42485 14.3807 3.37485 14.7182C3.71235 14.6682 4.04673 14.5838 4.37798 14.465C4.70923 14.3463 4.93735 14.2244 5.06235 14.0994C5.21235 13.9494 5.2936 13.7682 5.3061 13.5557C5.3186 13.3432 5.24985 13.1619 5.09985 13.0119C4.94985 12.8619 4.7686 12.79 4.5561 12.7963C4.3436 12.8025 4.16235 12.8807 4.01235 13.0307Z" fill="#043365"/>
</g>
</g>
</svg>
