<svg width="10" height="10" viewBox="0 0 10 10" fill="none" xmlns="http://www.w3.org/2000/svg">
<g id="Group">
<g id="Group_2">
<g id="Group_3">
<path id="Vector" d="M8.0737 5.43931C8.05431 5.12286 8.01024 4.81219 7.93972 4.5131C7.79693 3.89756 7.55014 3.33218 7.21343 2.8575C6.96487 2.50824 6.67929 2.22459 6.36727 2.01619C6.12047 1.84832 5.85605 1.72868 5.5828 1.65729C5.39066 1.60712 5.19322 1.58203 4.99402 1.58203C4.79482 1.58203 4.59738 1.60712 4.40699 1.65729C4.13375 1.72868 3.86932 1.84832 3.62253 2.01619C3.3105 2.22652 3.02492 2.50824 2.77636 2.85943C2.4379 3.33411 2.1911 3.89949 2.04831 4.51696C1.97956 4.81412 1.93549 5.12479 1.91609 5.44124C1.90904 5.55702 1.90552 5.67473 1.90552 5.79243C1.90552 5.92557 1.91081 6.05872 1.91962 6.18993C1.94077 6.50831 1.98837 6.81705 2.06065 7.11614C2.12411 7.37471 2.2052 7.62556 2.30216 7.8629C2.43084 8.17356 2.5895 8.46301 2.7746 8.72543C2.79046 8.74666 2.80457 8.76788 2.82043 8.78911C3.40041 9.5706 4.16901 10.0009 4.99402 10.0009C5.81903 10.0009 6.58762 9.57253 7.16936 8.78718C7.18347 8.76788 7.19933 8.74666 7.21343 8.72543C7.40029 8.46301 7.56071 8.17356 7.6894 7.86097C7.78812 7.62363 7.86921 7.37278 7.93091 7.11421C8.00319 6.81512 8.05078 6.50446 8.07194 6.188C8.08075 6.05679 8.08604 5.92557 8.08604 5.79243C8.08428 5.6728 8.08075 5.55509 8.0737 5.43931ZM4.99402 9.07276C4.4158 9.07276 3.86403 8.74666 3.44272 8.15427C3.13598 7.72397 2.92444 7.19333 2.8222 6.61058C2.81691 6.58164 2.81162 6.5527 2.80809 6.52375C2.77107 6.28641 2.75168 6.04135 2.75168 5.7905C2.75168 5.56281 2.76755 5.33704 2.79928 5.119C2.80457 5.07655 2.81162 5.03603 2.81867 4.99357C2.91915 4.40311 3.13245 3.86475 3.44272 3.42673C3.86403 2.83435 4.4158 2.50824 4.99402 2.50824C5.57399 2.50824 6.124 2.83435 6.54532 3.42673C6.99132 4.05193 7.23635 4.89324 7.23635 5.7905C7.23635 6.68777 6.99132 7.52715 6.54532 8.15427C6.124 8.74666 5.57223 9.07276 4.99402 9.07276Z" fill="#424242"/>
</g>
<g id="Group_4">
<path id="Vector_2" d="M5.86753 2.70543C5.82698 2.70543 5.78644 2.69964 5.74766 2.68613C5.52378 2.61281 5.39509 2.35617 5.46208 2.11111L5.94333 0.332015C6.01032 0.0869546 6.24478 -0.0539068 6.46866 0.0194182C6.69254 0.0927432 6.82123 0.349381 6.75424 0.59444L6.27298 2.37354C6.21833 2.57615 6.0491 2.70543 5.86753 2.70543Z" fill="#424242"/>
</g>
<g id="Group_5">
<path id="Vector_3" d="M4.12906 2.70543C3.94572 2.70543 3.77825 2.57422 3.72361 2.37354L3.24235 0.59444C3.17536 0.349381 3.30405 0.0908136 3.52793 0.0194182C3.75181 -0.0539068 3.98803 0.0869546 4.05326 0.332015L4.53451 2.11111C4.6015 2.35617 4.47281 2.61474 4.24893 2.68613C4.20839 2.69964 4.16784 2.70543 4.12906 2.70543Z" fill="#424242"/>
</g>
<g id="Group_6">
<g id="Group_7">
<path id="Vector_4" d="M9.56866 7.84882C9.46113 7.84882 9.35183 7.80444 9.26898 7.71375L8.71545 7.10785H7.59252C7.35806 7.10785 7.16943 6.90138 7.16943 6.64475C7.16943 6.38811 7.35806 6.18164 7.59252 6.18164H8.88997C9.00279 6.18164 9.11032 6.22988 9.18965 6.31671L9.86658 7.05768C10.0323 7.23906 10.0323 7.53236 9.86658 7.71182C9.78373 7.80444 9.6762 7.84882 9.56866 7.84882Z" fill="#424242"/>
</g>
<g id="Group_8">
<path id="Vector_5" d="M8.94561 9.52558C8.83808 9.52558 8.72878 9.4812 8.64593 9.39051L8.0924 8.78461H6.96947C6.73501 8.78461 6.54639 8.57814 6.54639 8.3215C6.54639 8.06487 6.73501 7.8584 6.96947 7.8584H8.26692C8.37974 7.8584 8.48727 7.90664 8.5666 7.99347L9.24353 8.73444C9.40924 8.91582 9.40924 9.20912 9.24353 9.38858C9.16244 9.47927 9.05315 9.52558 8.94561 9.52558Z" fill="#424242"/>
</g>
<g id="Group_9">
<path id="Vector_6" d="M8.899 5.43768H7.60155C7.36709 5.43768 7.17847 5.23121 7.17847 4.97457C7.17847 4.71793 7.36709 4.51147 7.60155 4.51147H8.72448L9.27801 3.90557C9.44372 3.72419 9.71167 3.72419 9.87561 3.90557C10.0413 4.08695 10.0413 4.38025 9.87561 4.55971L9.19868 5.30067C9.11935 5.38943 9.01182 5.43768 8.899 5.43768Z" fill="#424242"/>
</g>
</g>
<g id="Group_10">
<g id="Group_11">
<path id="Vector_7" d="M2.82485 6.6467C2.82485 6.90334 2.63622 7.1098 2.40176 7.1098H1.27883L0.725302 7.7157C0.644211 7.80446 0.534915 7.84884 0.427381 7.84884C0.319848 7.84884 0.210552 7.80446 0.127698 7.71377C-0.0380088 7.53239 -0.0380088 7.23909 0.127698 7.05964L0.80463 6.31867C0.883958 6.23183 0.991491 6.18359 1.10431 6.18359H2.40176C2.59568 6.18359 2.75786 6.32446 2.80898 6.51935C2.81427 6.54829 2.8178 6.57723 2.82308 6.60618C2.82485 6.61969 2.82485 6.63319 2.82485 6.6467Z" fill="#424242"/>
</g>
<g id="Group_12">
<path id="Vector_8" d="M1.04994 9.52365C0.942407 9.52365 0.83311 9.47927 0.750257 9.38858C0.58455 9.20719 0.58455 8.91389 0.750257 8.73444L1.42719 7.99347C1.50652 7.90664 1.61405 7.8584 1.72687 7.8584H3.02432C3.25878 7.8584 3.4474 8.06487 3.4474 8.3215C3.4474 8.57814 3.25878 8.78461 3.02432 8.78461H1.90139L1.34786 9.3905C1.26501 9.47734 1.15747 9.52365 1.04994 9.52365Z" fill="#424242"/>
</g>
<g id="Group_13">
<path id="Vector_9" d="M2.82143 4.97457C2.82143 4.98036 2.82143 4.98422 2.82143 4.99001C2.81438 5.03053 2.80733 5.07298 2.80204 5.11543C2.74739 5.3026 2.58697 5.43575 2.39835 5.43575H1.10089C0.988073 5.43575 0.880539 5.38751 0.801211 5.30067L0.12428 4.5597C-0.0414268 4.37832 -0.0414268 4.08502 0.12428 3.90557C0.289987 3.72419 0.557939 3.72419 0.721884 3.90557L1.27542 4.51146H2.39835C2.6328 4.51146 2.82143 4.71793 2.82143 4.97457Z" fill="#424242"/>
</g>
</g>
<g id="Group_14">
<g id="Group_15">
<path id="Vector_10" d="M4.99437 7.05257C4.75991 7.05257 4.57129 6.8461 4.57129 6.58947V3.65646C4.57129 3.39983 4.75991 3.19336 4.99437 3.19336C5.22883 3.19336 5.41745 3.39983 5.41745 3.65646V6.58947C5.41745 6.84417 5.22883 7.05257 4.99437 7.05257Z" fill="#424242"/>
</g>
<g id="Group_16">
<path id="Vector_11" d="M4.99413 8.38111C4.75967 8.38111 4.57104 8.17465 4.57104 7.91801V7.82346C4.57104 7.56682 4.75967 7.36035 4.99413 7.36035C5.22858 7.36035 5.41721 7.56682 5.41721 7.82346V7.91801C5.41721 8.17465 5.22858 8.38111 4.99413 8.38111Z" fill="#424242"/>
</g>
</g>
</g>
</g>
</svg>
