<svg width="24" height="24" viewBox="0 0 24 24" fill="none" xmlns="http://www.w3.org/2000/svg">
<g id="settings">
<mask id="mask0_408_522" style="mask-type:alpha" maskUnits="userSpaceOnUse" x="0" y="0" width="24" height="24">
<rect id="Bounding box" width="24" height="24" fill="#D9D9D9"/>
</mask>
<g mask="url(#mask0_408_522)">
<path id="settings_2" d="M10.5733 20.5037L10.1825 17.4801C9.90758 17.391 9.62572 17.2663 9.33694 17.106C9.04817 16.9456 8.78998 16.7738 8.56239 16.5906L5.66748 17.774L3.2995 13.8037L5.80368 11.9731C5.77999 11.8255 5.76321 11.6773 5.75334 11.5284C5.74347 11.3795 5.73854 11.2312 5.73854 11.0836C5.73854 10.9424 5.74347 10.7989 5.75334 10.6532C5.76321 10.5075 5.77999 10.3481 5.80368 10.175L3.2995 8.34445L5.66748 4.39321L8.55251 5.56715C8.79984 5.37753 9.06395 5.20414 9.34482 5.04698C9.62571 4.8898 9.90166 4.76349 10.1727 4.66806L10.5733 1.64447H15.3092L15.7 4.67761C16.0078 4.78577 16.2864 4.91207 16.5357 5.05651C16.785 5.20095 17.0366 5.37116 17.2905 5.56715L20.215 4.39321L22.583 8.34445L20.0394 10.2036C20.0762 10.364 20.0963 10.5138 20.0996 10.6532C20.1028 10.7925 20.1045 10.9328 20.1045 11.0741C20.1045 11.209 20.1012 11.3461 20.0946 11.4854C20.088 11.6248 20.0644 11.7842 20.0236 11.9636L22.5475 13.8037L20.1795 17.774L17.2905 16.581C17.0366 16.777 16.7774 16.9504 16.513 17.1012C16.2486 17.252 15.9775 17.3751 15.7 17.4705L15.3092 20.5037H10.5733ZM12.9531 14.0518C13.8069 14.0518 14.5334 13.762 15.1326 13.1824C15.7319 12.6027 16.0315 11.8999 16.0315 11.0741C16.0315 10.2482 15.7319 9.54544 15.1326 8.96579C14.5334 8.38614 13.8069 8.09632 12.9531 8.09632C12.0888 8.09632 11.3596 8.38614 10.7656 8.96579C10.1717 9.54544 9.8747 10.2482 9.8747 11.0741C9.8747 11.8999 10.1717 12.6027 10.7656 13.1824C11.3596 13.762 12.0888 14.0518 12.9531 14.0518ZM12.9531 12.563C12.5255 12.563 12.1621 12.4182 11.8628 12.1287C11.5635 11.8392 11.4139 11.4877 11.4139 11.0741C11.4139 10.6605 11.5635 10.309 11.8628 10.0194C12.1621 9.72994 12.5255 9.58519 12.9531 9.58519C13.3806 9.58519 13.7441 9.72994 14.0434 10.0194C14.3426 10.309 14.4923 10.6605 14.4923 11.0741C14.4923 11.4877 14.3426 11.8392 14.0434 12.1287C13.7441 12.4182 13.3806 12.563 12.9531 12.563ZM11.9151 19.0148H13.9319L14.3009 16.3558C14.8245 16.2235 15.303 16.0354 15.7365 15.7917C16.17 15.5481 16.588 15.2347 16.9906 14.8517L19.5401 15.8882L20.5505 14.2007L18.3246 12.5782C18.4101 12.3212 18.4683 12.0692 18.4992 11.8223C18.5301 11.5755 18.5456 11.326 18.5456 11.0741C18.5456 10.8158 18.5301 10.5663 18.4992 10.3258C18.4683 10.0853 18.4101 9.8397 18.3246 9.58901L20.5702 7.94741L19.5599 6.26L16.9807 7.31178C16.6373 6.95673 16.2259 6.64304 15.7464 6.37073C15.2668 6.09839 14.7817 5.9056 14.291 5.79234L13.9674 3.13333H11.9309L11.5915 5.78279C11.0679 5.90241 10.5844 6.08566 10.1411 6.33253C9.69771 6.57941 9.27476 6.89755 8.8722 7.28696L6.32262 6.26L5.31226 7.94741L7.52834 9.54511C7.44283 9.78052 7.38297 10.0255 7.34877 10.28C7.31456 10.5345 7.29746 10.8024 7.29746 11.0836C7.29746 11.342 7.31456 11.5952 7.34877 11.8433C7.38297 12.0915 7.43954 12.3364 7.51846 12.5782L5.31226 14.2007L6.32262 15.8882L8.86233 14.8459C9.25173 15.2328 9.66811 15.5497 10.1115 15.7965C10.5548 16.0434 11.0449 16.233 11.5816 16.3654L11.9151 19.0148Z" fill="#8F8F8F"/>
</g>
</g>
</svg>
