<svg width="72" height="72" viewBox="0 0 72 72" fill="none" xmlns="http://www.w3.org/2000/svg">
<g id="Menu" clip-path="url(#clip0_20_7821)">
<g id="Group">
<path id="Vector" d="M35.1734 27.0751C30.2542 27.0751 26.2484 31.0808 26.2484 36.0001C26.2484 40.9193 30.2542 44.9251 35.1734 44.9251C40.0927 44.9251 44.0984 40.9193 44.0984 36.0001C44.0984 31.0808 40.0927 27.0751 35.1734 27.0751ZM35.1734 41.7751C31.9867 41.7751 29.3984 39.1868 29.3984 36.0001C29.3984 32.8133 31.9867 30.2251 35.1734 30.2251C38.3602 30.2251 40.9484 32.8133 40.9484 36.0001C40.9484 39.1868 38.3549 41.7751 35.1734 41.7751Z" fill="#D9D9D9"/>
<path id="Vector_2" d="M53.039 37.827L52.1622 37.3177C51.716 37.0605 51.4482 36.5722 51.4482 36.0157V35.979C51.4482 35.4225 51.716 34.9342 52.1622 34.677L53.039 34.1677C55.2387 32.8972 56 30.0727 54.7242 27.8677L51.9837 23.1217C51.3695 22.056 50.372 21.2947 49.1855 20.9745C47.999 20.6542 46.7547 20.817 45.689 21.4365L44.8227 21.9352C44.3712 22.1977 43.8147 22.1925 43.3685 21.9352L43.2477 21.8618C42.8015 21.6045 42.5232 21.1267 42.5232 20.607V19.6095C42.5232 17.0685 40.4547 15 37.9137 15H32.4327C29.8917 15 27.8232 17.0685 27.8232 19.6095V20.607C27.8232 21.1267 27.545 21.6097 27.0987 21.867L26.978 21.9405C26.5317 22.203 25.9752 22.203 25.5237 21.9405L24.6575 21.4417C23.5917 20.8275 22.3475 20.6595 21.161 20.9797C19.9692 21.3 18.977 22.0612 18.3627 23.127L15.6222 27.873C14.3517 30.0727 15.1077 32.9025 17.3075 34.173L18.1842 34.6822C18.6305 34.9395 18.8982 35.4277 18.8982 36.0262C18.8982 36.5827 18.6305 37.071 18.1842 37.3282L17.3075 37.8375C16.2417 38.4517 15.4805 39.4492 15.1602 40.6357C14.84 41.8275 15.0027 43.0665 15.6222 44.1322L18.3627 48.8783C18.977 49.944 19.9745 50.7052 21.161 51.0255C22.3527 51.3457 23.5917 51.183 24.6575 50.5635L25.5237 50.0648C25.9752 49.8022 26.5317 49.8075 26.978 50.0648L27.0987 50.1382C27.545 50.3955 27.8232 50.8732 27.8232 51.393V52.3905C27.8232 54.9315 29.8917 57 32.4327 57H37.9085C40.4495 57 42.518 54.9315 42.518 52.3905V51.393C42.518 50.8732 42.7962 50.3903 43.2425 50.133L43.3632 50.0595C43.8095 49.797 44.366 49.797 44.8175 50.0595L45.6837 50.5583C46.7495 51.1725 47.9937 51.3352 49.1855 51.0202C50.3772 50.7 51.3695 49.9388 51.9837 48.873L54.7242 44.127C55.3385 43.0612 55.5012 41.817 55.1862 40.6305C54.8712 39.4387 54.1047 38.4412 53.039 37.827ZM51.9995 42.552L49.259 47.298C49.0647 47.634 48.7497 47.8755 48.3717 47.9805C47.9937 48.0802 47.6 48.0277 47.264 47.8335L46.3977 47.3347C44.9697 46.5105 43.2005 46.5157 41.783 47.3452L41.6832 47.403C40.2605 48.2167 39.3732 49.7497 39.3732 51.393V52.3905C39.3732 53.1937 38.717 53.85 37.9137 53.85H32.4327C31.6295 53.85 30.9732 53.1937 30.9732 52.3905V51.393C30.9732 49.7445 30.086 48.2167 28.6632 47.403L28.5635 47.3452C27.8495 46.9305 27.0515 46.7205 26.2482 46.7205C25.4555 46.7205 24.6575 46.9252 23.9435 47.3347L23.0772 47.8335C22.7412 48.0277 22.3475 48.0802 21.9695 47.9805C21.5915 47.8807 21.2765 47.6392 21.0822 47.298L18.3417 42.552C18.1475 42.216 18.095 41.8222 18.1947 41.4442C18.2945 41.0662 18.536 40.7512 18.8772 40.557L19.754 40.0477C21.1662 39.2287 22.0482 37.6852 22.043 35.9842C22.043 34.3147 21.1662 32.766 19.754 31.9522L18.8772 31.443C18.179 31.0387 17.9375 30.1462 18.3417 29.448L21.0822 24.702C21.2765 24.366 21.5915 24.1245 21.9695 24.0195C22.3475 23.9198 22.7412 23.9722 23.0772 24.1665L23.9435 24.6652C25.3715 25.4895 27.1407 25.4842 28.5582 24.6547L28.658 24.597C30.0807 23.7832 30.968 22.2502 30.968 20.607V19.6095C30.968 18.8062 31.6242 18.15 32.4275 18.15H37.9032C38.7065 18.15 39.3627 18.8062 39.3627 19.6095V20.607C39.3627 22.2555 40.25 23.7832 41.6727 24.597L41.7725 24.6547C43.1952 25.4842 44.9645 25.4895 46.3925 24.6652L47.2587 24.1665C47.5947 23.9722 47.9885 23.9198 48.3665 24.0195C48.7445 24.1192 49.0595 24.3607 49.2537 24.702L51.9942 29.448C52.3985 30.1462 52.157 31.0387 51.4587 31.443L50.582 31.9522C49.1697 32.7712 48.2877 34.3147 48.293 35.9842L49.868 36L48.293 36.0157C48.293 37.6852 49.1697 39.234 50.582 40.0477L51.4587 40.557C51.7947 40.7512 52.0362 41.0662 52.1412 41.4442C52.2462 41.8222 52.1937 42.2107 51.9995 42.552Z" fill="#D9D9D9"/>
</g>
</g>
<defs>
<clipPath id="clip0_20_7821">
<rect width="72" height="72" fill="white"/>
</clipPath>
</defs>
</svg>
