<svg width="16" height="16" viewBox="0 0 16 16" fill="none" xmlns="http://www.w3.org/2000/svg">
<path d="M7.80004 8.86571C10.1102 8.86571 11.9829 6.99298 11.9829 4.68285C11.9829 2.37273 10.1102 0.5 7.80004 0.5C5.48991 0.5 3.61719 2.37273 3.61719 4.68285C3.61719 6.99298 5.48991 8.86571 7.80004 8.86571Z" fill="#036C70"/>
<path d="M11.2874 12.3561C13.405 12.3561 15.1217 10.6394 15.1217 8.52178C15.1217 6.40417 13.405 4.6875 11.2874 4.6875C9.16979 4.6875 7.45312 6.40417 7.45312 8.52178C7.45312 10.6394 9.16979 12.3561 11.2874 12.3561Z" fill="#1A9BA1"/>
<path d="M8.33004 15.1445C9.96638 15.1445 11.2929 13.8179 11.2929 12.1816C11.2929 10.5453 9.96638 9.21875 8.33004 9.21875C6.6937 9.21875 5.36719 10.5453 5.36719 12.1816C5.36719 13.8179 6.6937 15.1445 8.33004 15.1445Z" fill="#37C6D0"/>
<path opacity="0.1" d="M8.4978 4.2707V11.7092C8.49607 11.9677 8.33944 12.1999 8.10043 12.2983C8.02433 12.3305 7.94254 12.3471 7.85991 12.3471H5.36414C5.36066 12.2878 5.36066 12.2321 5.36066 12.1728C5.3595 12.1146 5.36183 12.0564 5.36763 11.9985C5.43143 10.8843 6.11785 9.9012 7.14186 9.45743V8.80909C4.86287 8.44794 3.30814 6.30769 3.66929 4.02869C3.67179 4.01291 3.67438 3.99713 3.67707 3.98138C3.69442 3.86382 3.71886 3.74742 3.75027 3.63281H7.85992C8.21165 3.63415 8.49646 3.91896 8.4978 4.2707Z" fill="black"/>
<path opacity="0.2" d="M7.51142 4H3.67714C3.2898 6.27489 4.81996 8.43304 7.09484 8.82038C7.16372 8.83211 7.23289 8.8421 7.30227 8.85036C6.2217 9.36276 5.43428 10.8181 5.36736 12.0171C5.36155 12.075 5.35923 12.1332 5.36038 12.1914C5.36038 12.2507 5.36038 12.3064 5.36387 12.3657C5.37016 12.4829 5.3853 12.5994 5.40918 12.7143H7.51106C7.76953 12.7125 8.00173 12.5559 8.10014 12.3169C8.13233 12.2408 8.14893 12.159 8.14895 12.0764V4.63788C8.14762 4.28628 7.86302 4.00153 7.51142 4Z" fill="black"/>
<path opacity="0.2" d="M7.51139 4H3.67711C3.28985 6.2751 4.82024 8.43335 7.09534 8.82061C7.14188 8.82853 7.18855 8.83566 7.23532 8.84201C6.18961 9.39135 5.43321 10.8432 5.36768 12.0171H7.51139C7.86258 12.0145 8.14662 11.7304 8.14928 11.3793V4.63788C8.14794 4.28615 7.86313 4.00134 7.51139 4Z" fill="black"/>
<path opacity="0.2" d="M7.1627 4H3.67699C3.31132 6.14771 4.6571 8.21598 6.76882 8.75172C5.96922 9.66529 5.47878 10.8082 5.36756 12.0171H7.16271C7.51444 12.0158 7.79925 11.731 7.80059 11.3793V4.63788C7.8004 4.28568 7.51492 4.0002 7.1627 4Z" fill="black"/>
<path d="M0.763931 4H7.15463C7.5075 4 7.79356 4.28606 7.79356 4.63893V11.0296C7.79356 11.3825 7.5075 11.6686 7.15463 11.6686H0.763931C0.411059 11.6686 0.125 11.3825 0.125 11.0296V4.63893C0.125 4.28606 0.411059 4 0.763931 4Z" fill="url(#paint0_linear_9997_6864)"/>
<path d="M3.0012 7.73219C2.85146 7.63286 2.72639 7.50064 2.63555 7.34562C2.54752 7.18356 2.50364 7.0012 2.50831 6.81683C2.50047 6.56721 2.58471 6.32342 2.74499 6.13189C2.91342 5.94012 3.13113 5.79812 3.37451 5.72127C3.6519 5.62997 3.94243 5.58498 4.23443 5.58812C4.61843 5.57409 5.0019 5.62778 5.36729 5.74672V6.54844C5.20852 6.45226 5.03561 6.38168 4.85489 6.3393C4.6588 6.29121 4.45759 6.2671 4.25569 6.26749C4.04279 6.25967 3.83125 6.30445 3.63977 6.39786C3.56744 6.42905 3.5058 6.48071 3.46245 6.54648C3.4191 6.61226 3.39592 6.68927 3.39577 6.76804C3.39517 6.8657 3.43269 6.95974 3.50034 7.03017C3.58025 7.1132 3.67479 7.18079 3.7792 7.22955C3.89539 7.28741 4.06968 7.36433 4.30206 7.46031C4.32765 7.46839 4.35258 7.47842 4.37665 7.49029C4.60536 7.57967 4.826 7.68847 5.03615 7.8155C5.1953 7.91363 5.32886 8.04815 5.42585 8.20799C5.52529 8.38918 5.5735 8.59404 5.56528 8.80057C5.57663 9.05685 5.49823 9.30906 5.34359 9.51374C5.18946 9.70191 4.98338 9.84059 4.75102 9.91251C4.47771 9.99817 4.19246 10.0396 3.90608 10.0352C3.64913 10.0364 3.39257 10.0154 3.13923 9.97246C2.92531 9.93746 2.71656 9.8761 2.51773 9.7898V8.94452C2.70779 9.08026 2.92013 9.18172 3.14515 9.24429C3.36942 9.31418 3.60255 9.35151 3.83742 9.35514C4.0548 9.36891 4.27179 9.32286 4.46484 9.22199C4.53122 9.18453 4.58618 9.12977 4.62387 9.06353C4.66156 8.99729 4.68057 8.92207 4.67887 8.84588C4.67932 8.79241 4.66906 8.73939 4.64871 8.68994C4.62836 8.6405 4.59832 8.59562 4.56036 8.55796C4.46499 8.46434 4.35459 8.3874 4.23375 8.33034C4.09432 8.26062 3.88901 8.16872 3.61782 8.05462C3.40208 7.96789 3.19552 7.85987 3.0012 7.73219Z" fill="white"/>
<defs>
<linearGradient id="paint0_linear_9997_6864" x1="1.45719" y1="3.50076" x2="6.46138" y2="12.1678" gradientUnits="userSpaceOnUse">
<stop stop-color="#058F92"/>
<stop offset="0.5" stop-color="#038489"/>
<stop offset="1" stop-color="#026D71"/>
</linearGradient>
</defs>
</svg>
