<svg width="49" height="56" viewBox="0 0 49 56" fill="none" xmlns="http://www.w3.org/2000/svg">
<g id="Group 42">
<g id="Layer 47 copy">
<g id="Group 75">
<path id="Rectangle 11" d="M1.74048 8.12249C1.74048 4.27744 4.85751 1.1604 8.70257 1.1604H40.032C43.877 1.1604 46.9941 4.27744 46.9941 8.12249V47.5744C46.9941 51.4194 43.877 54.5364 40.032 54.5364H8.70257C4.85751 54.5364 1.74048 51.4194 1.74048 47.5744V8.12249Z" fill="white" fill-opacity="0.4"/>
<path id="Vector (Stroke)" fill-rule="evenodd" clip-rule="evenodd" d="M24.0676 6.74105C26.2855 8.9589 26.4992 11.6099 24.144 13.9649C22.0098 16.0992 17.6125 17.2365 15.5559 16.2839L13.944 17.8957L16.4035 22.2335L21.7794 22.2342C24.2072 22.2347 26.5918 22.8771 28.691 24.0964L28.1083 25.0998C26.186 23.9833 24.0025 23.3951 21.7793 23.3946C21.7792 23.3946 21.7793 23.3946 21.7793 23.3946L15.7275 23.3938L12.499 17.6997L12.5069 17.6918L12.2168 17.4939C11.7806 17.1963 11.1993 17.1555 10.7134 17.431C10.0309 17.8181 9.79139 18.6852 10.1785 19.3677L9.16913 19.9402C8.46592 18.7002 8.90104 17.1249 10.141 16.4217C11.0265 15.9195 12.0831 15.9979 12.8708 16.5354L14.418 14.9882C13.6671 12.8393 14.7969 8.71129 16.8437 6.66451C19.1987 4.30946 21.8496 4.52317 24.0676 6.74105ZM16.4053 26.2364C14.9644 26.2365 13.6347 25.462 12.9238 24.2087L10.1785 19.3677L9.16913 19.9402L11.9145 24.7811C12.8314 26.3979 14.5468 27.3969 16.4054 27.3967L20.0747 27.3962L17.606 31.6719C17.2247 32.3325 17.0872 33.0669 17.1657 33.771L17.1655 40.7368L9.5162 45.1665C8.28258 45.8809 7.86159 47.46 8.57586 48.6938C9.2901 49.9273 10.8692 50.3484 12.1028 49.6341L20.6107 44.7084C21.6734 44.0931 22.3278 42.9581 22.3278 41.73V39.0188L26.8277 40.2237L26.8282 48.6738C26.8284 50.0994 27.984 51.2549 29.4095 51.2549C30.8351 51.2549 31.9905 50.0993 31.9905 48.6738V38.9048C31.9905 37.3472 30.9443 35.9838 29.4399 35.5807L27.5614 35.0773L29.9849 30.88L30.0117 30.833L40.5535 36.9559L40.7745 37.0705C41.969 37.6197 43.408 37.1804 44.0819 36.0203C44.7977 34.7876 44.3789 33.208 43.1461 32.492L28.691 24.0964L28.1083 25.0998L42.5634 33.4953C43.2419 33.8895 43.4725 34.759 43.0784 35.4376C42.7119 36.0686 41.9327 36.3127 41.2807 36.0259L41.1124 35.9386L29.584 29.2427L28.98 30.2998L28.9774 30.3043L25.8004 35.8068L29.1395 36.7015C30.1368 36.9687 30.8302 37.8724 30.8302 38.9048V48.6738C30.8302 49.4585 30.1942 50.0945 29.4095 50.0945C28.6248 50.0945 27.9887 49.4586 27.9885 48.6737C27.9885 48.6737 27.9885 48.6738 27.9885 48.6737L27.988 39.3331L21.1675 37.5069V41.73C21.1675 42.544 20.7337 43.2964 20.0293 43.7042L11.5214 48.6299C10.8424 49.0231 9.9732 48.7914 9.58006 48.1124C9.18684 47.4332 9.4186 46.5639 10.0977 46.1706L18.3258 41.4057L18.326 33.7065L18.3189 33.6425C18.2669 33.176 18.3574 32.6911 18.6109 32.2521C18.6108 32.2521 18.6109 32.252 18.6109 32.2521L22.0847 26.2356L16.4053 26.2364C16.4053 26.2364 16.4053 26.2364 16.4053 26.2364ZM16.0936 14.5294C16.1497 14.5854 16.1964 14.6473 16.2337 14.713C17.1946 15.4039 21.1842 14.4913 22.9273 12.7482C24.5629 11.1126 24.4364 9.54333 22.8507 7.95779C21.2653 6.37223 19.696 6.24572 18.0604 7.88123C16.3717 9.57 15.4625 13.3675 16.0357 14.4764C16.0556 14.493 16.0749 14.5107 16.0936 14.5294Z" fill="white"/>
<path id="Vector (Stroke)_2" fill-rule="evenodd" clip-rule="evenodd" d="M28.6621 21.1238C30.225 22.6865 32.7586 22.6865 34.3215 21.1238C34.3215 21.1238 34.3215 21.1238 34.3215 21.1238L35.142 21.9443M34.3215 21.1238C35.8843 19.5609 35.8843 17.0271 34.3215 15.4643C32.7586 13.9015 30.225 13.9015 28.6621 15.4643C27.0993 17.0272 27.0993 19.5609 28.6621 21.1238C28.6621 21.1238 28.6621 21.1238 28.6621 21.1238" fill="white"/>
<path id="Vector" d="M0 9.46224V1.23421C0 0.906874 0.130033 0.592948 0.361491 0.361489C0.592949 0.130031 0.906874 0 1.23421 0H9.46224C9.78957 0 10.1035 0.130031 10.335 0.361489C10.5664 0.592948 10.6964 0.906874 10.6964 1.23421C10.6964 1.56154 10.5664 1.87546 10.335 2.10692C10.1035 2.33838 9.78957 2.46841 9.46224 2.46841H2.46841V9.46224C2.46841 9.78957 2.33838 10.1035 2.10692 10.335C1.87546 10.5664 1.56154 10.6964 1.23421 10.6964C0.906874 10.6964 0.592949 10.5664 0.361491 10.335C0.130033 10.1035 0 9.78957 0 9.46224ZM48.7346 1.23421V9.46224C48.7346 9.78957 48.6046 10.1035 48.3731 10.335C48.1417 10.5664 47.8278 10.6964 47.5004 10.6964C47.1731 10.6964 46.8592 10.5664 46.6277 10.335C46.3963 10.1035 46.2662 9.78957 46.2662 9.46224V2.46841H39.2724C38.9451 2.46841 38.6312 2.33838 38.3997 2.10692C38.1682 1.87546 38.0382 1.56154 38.0382 1.23421C38.0382 0.906874 38.1682 0.592948 38.3997 0.361489C38.6312 0.130031 38.9451 0 39.2724 0H47.5004C47.6625 0 47.823 0.0319228 47.9727 0.0939474C48.1225 0.155972 48.2585 0.246883 48.3731 0.361489C48.4878 0.476096 48.5787 0.612154 48.6407 0.761895C48.7027 0.911635 48.7346 1.07213 48.7346 1.23421ZM48.7346 46.5378V54.7658C48.7346 55.0931 48.6046 55.4071 48.3731 55.6385C48.1417 55.87 47.8278 56 47.5004 56H39.2724C38.9451 56 38.6312 55.87 38.3997 55.6385C38.1682 55.4071 38.0382 55.0931 38.0382 54.7658C38.0382 54.4385 38.1682 54.1245 38.3997 53.8931C38.6312 53.6616 38.9451 53.5316 39.2724 53.5316H46.2662V46.5378C46.2662 46.2104 46.3963 45.8965 46.6277 45.665C46.8592 45.4336 47.1731 45.3036 47.5004 45.3036C47.8278 45.3036 48.1417 45.4336 48.3731 45.665C48.6046 45.8965 48.7346 46.2104 48.7346 46.5378ZM10.6964 54.7658C10.6964 55.0931 10.5664 55.4071 10.335 55.6385C10.1035 55.87 9.78957 56 9.46224 56H1.23421C0.906874 56 0.592949 55.87 0.361491 55.6385C0.130033 55.4071 0 55.0931 0 54.7658V46.5378C0 46.2104 0.130033 45.8965 0.361491 45.665C0.592949 45.4336 0.906874 45.3036 1.23421 45.3036C1.56154 45.3036 1.87546 45.4336 2.10692 45.665C2.33838 45.8965 2.46841 46.2104 2.46841 46.5378V53.5316H9.46224C9.78957 53.5316 10.1035 53.6616 10.335 53.8931C10.5664 54.1245 10.6964 54.4385 10.6964 54.7658Z" fill="white"/>
</g>
</g>
</g>
</svg>
