<svg width="15" height="17" viewBox="0 0 15 17" fill="none" xmlns="http://www.w3.org/2000/svg">
<g id="Group">
<path id="Vector" d="M10.2278 7.14478C10.1992 7.31915 10.0448 7.4429 9.87323 7.4429H4.48438C4.07264 7.4429 4.08599 6.90665 4.08599 6.61978C4.08599 2.17797 10.9636 2.72171 10.2278 7.14478ZM4.80844 6.73416H9.54917C9.69214 3.4342 4.66166 3.36483 4.80844 6.73416Z" fill="#595656"/>
<path id="Vector_2" d="M7.17609 0.275391C8.64768 0.275391 9.25766 2.06037 8.26834 2.93973C7.16656 3.92222 5.60156 3.11035 5.60156 1.82412C5.60156 1.3985 5.77884 1.01038 6.06477 0.729135H6.06286C6.3488 0.449763 6.74147 0.275391 7.17609 0.275391ZM7.78036 1.23163C7.44677 0.903508 6.90731 0.903508 6.57373 1.23163L6.57182 1.22975C5.77503 2.10162 7.01978 3.1666 7.78036 2.41849C8.11394 2.09037 8.11394 1.55787 7.78036 1.23163Z" fill="#595656"/>
<path id="Vector_3" d="M6.87444 8.17046C6.87444 7.7036 7.59689 7.7036 7.59689 8.17046V10.0511L8.93504 11.1161C9.30294 11.4085 8.85117 11.9598 8.48518 11.6673L7.22708 10.6661L5.88893 11.6542C5.5134 11.9317 5.0807 11.3654 5.45812 11.0879L6.87444 10.0436V8.17046Z" fill="#595656"/>
<path id="Vector_4" d="M3.34015 8.83496C4.72977 8.83496 5.45032 10.4999 4.45338 11.4787C3.46024 12.4555 1.76562 11.7524 1.76562 10.3837C1.76562 9.53058 2.47283 8.83496 3.34015 8.83496ZM3.94442 9.78932C3.14762 9.00746 1.941 10.1962 2.73588 10.9781C3.53077 11.7599 4.74121 10.5731 3.94442 9.78932Z" fill="#595656"/>
<path id="Vector_5" d="M14.1887 15.7281C14.1601 15.9024 14.0076 16.0262 13.8342 16.0262H8.44532C8.03358 16.0262 8.04692 15.4899 8.04692 15.2012C8.04692 10.7613 14.9245 11.305 14.1887 15.7281ZM8.77128 15.3174H13.5101C13.6531 12.0175 8.6226 11.9481 8.77128 15.3174Z" fill="#595656"/>
<path id="Vector_6" d="M11.0902 8.82715C12.4798 8.82715 13.1984 10.4921 12.2034 11.4727C11.2102 12.4496 9.51562 11.7465 9.51562 10.3778C9.51562 9.52276 10.2228 8.82715 11.0902 8.82715ZM11.6944 9.78151C10.8976 8.99965 9.691 10.1903 10.4859 10.9721C11.2808 11.754 12.4893 10.5671 11.6944 9.78151Z" fill="#595656"/>
<path id="Vector_7" d="M6.14185 15.7281C6.11325 15.9024 5.96076 16.0262 5.78729 16.0262H0.400352C-0.0132944 16.0262 4.90117e-05 15.4899 4.90117e-05 15.2012C4.90117e-05 10.7613 6.87764 11.305 6.14185 15.7281ZM0.724407 15.3174H5.46324C5.60811 12.0175 0.57763 11.9481 0.724407 15.3174Z" fill="#595656"/>
</g>
</svg>
