<svg width="97" height="90" viewBox="0 0 97 90" fill="none" xmlns="http://www.w3.org/2000/svg">
<g id="Group 1000004082">
<g id="Group 1000004063">
<g id="Group 1000004062">
<circle id="Ellipse 405" cx="44.6201" cy="48.8635" r="39.5" fill="#F0F0F0" stroke="#9CB6CA"/>
</g>
<g id="Mask group">
<mask id="mask0_4356_7505" style="mask-type:alpha" maskUnits="userSpaceOnUse" x="5" y="0" width="92" height="90">
<g id="Group 1000004059">
<path id="Ellipse 405_2" d="M95 47.0343C95 60.3298 99 71.0342 94.5 80.0342C84.5 84.5342 64 88.6495 50.5 89.6495C42.2499 89.6495 22 86.6495 22 86.6495C16.5 76.1495 5.5 65.2037 5.5 47.5342C5.5 23.1074 26.1766 0.0342785 56 0.0342785C77 -0.965679 86 20.0342 95 47.0343Z" fill="#F0F0F0"/>
</g>
</mask>
<g mask="url(#mask0_4356_7505)">
<g id="Group">
<path id="Vector" d="M48.75 73.9464L48.8307 84.6901L66.7738 82.4869L64.166 74.5701L48.75 73.9464Z" fill="#014979"/>
<path id="Vector_2" d="M64.1628 74.5718C64.1628 74.5718 63.6117 74.9721 64.3576 75.7074L65.2399 75.6747L64.1628 74.5718Z" fill="#08344F"/>
<path id="Vector_3" d="M64.1694 74.5694L68.1327 82.4862L76.8329 77.0068L65.138 71.462L64.1694 74.5694Z" fill="#08344F"/>
<path id="Vector_4" d="M71.916 72.5724C71.916 72.5724 77.975 67.7139 87.7968 69.3507C87.7968 69.3507 77.0009 66.3877 71.916 72.5724Z" fill="#0E364F"/>
<path id="Vector_5" d="M54.6168 33.1598L68.3935 27.0322L71.4883 32.095L56.5761 42.6916L52.4849 40.1126L54.6168 33.1598Z" fill="#CE957C"/>
<path id="Vector_6" d="M67.8424 20.8727L71.1989 42.6923L52.4849 48.3651L54.8394 37.9482C54.8394 37.9482 55.8414 34.8899 55.4963 32.6213C55.1511 30.3527 65.897 15.8699 65.897 15.8699L67.8424 20.8727Z" fill="#E7B399"/>
<path id="Vector_7" d="M54.2061 34.4616C54.2061 34.4616 61.7578 32.2455 63.514 26.0662C63.514 26.0662 63.0148 34.5161 54.2061 34.4616Z" fill="#CE957C"/>
<path id="Vector_8" d="M44.4241 12.1721C44.4241 12.1721 42.0223 12.665 41.8553 11.1889C41.6883 9.71287 40.0128 8.67527 41.4072 7.09027C42.8043 5.50527 43.976 5.77761 44.4241 5.12127C44.4241 5.12127 43.8647 4.62834 43.4751 4.84894C43.0854 5.06953 44.2571 2.66207 47.6637 2.87994C47.6637 2.87994 47.2157 1.24047 51.7411 1.34941C51.7411 1.34941 55.0364 -0.902819 60.1212 1.34396C60.1212 1.34396 67.7193 -0.181126 68.6683 7.14474C68.6683 7.14474 71.5183 16.4913 69.2834 20.3721C69.2834 20.3721 68.7797 22.0116 67.4966 21.6848C66.2136 21.358 44.4241 12.1748 44.4241 12.1748V12.1721Z" fill="#533126"/>
<path id="Vector_9" d="M61.1802 4.48283C61.1802 4.48283 66.8606 5.17184 68.5027 12.5658C68.5027 12.5658 69.0315 3.51059 61.1802 4.48283Z" fill="#774335"/>
<path id="Vector_10" d="M58.3335 7.43985C58.3335 7.43985 60.6324 5.23937 64.5427 9.5314C64.5427 9.5314 62.6001 4.19632 58.3335 7.43985Z" fill="#774335"/>
<path id="Vector_11" d="M57.3249 7.26281C57.3249 7.26281 46.4733 2.23819 41.124 9.36525C41.124 9.36525 45.3572 0.0349846 57.3249 7.26281Z" fill="#774335"/>
<path id="Vector_12" d="M58.3287 4.97608C58.3287 4.97608 55.4203 0.354523 48.9912 1.97765C48.9912 1.97765 55.2617 1.78157 58.3287 4.97608Z" fill="#774335"/>
<path id="Vector_13" d="M44.9585 12.0254V16.7423L46.8427 18.8066L47.6721 23.3028C47.6721 23.3028 52.718 35.0215 56.3333 34.0629C59.9487 33.1043 64.5437 26.767 64.5437 26.767V22.1236C64.5437 22.1236 69.3641 19.5446 68.0087 16.154C67.3296 14.4601 66.3138 14.1632 65.4677 14.2939C64.6216 14.4247 63.9119 15.0756 63.667 15.898L62.8877 18.5124H61.7577L59.9514 14.5336C59.9514 14.5336 56.8649 12.3958 57.2406 9.44907C57.2406 9.44907 55.0558 9.30201 53.6253 8.34338C53.6253 8.34338 53.2496 9.7432 50.2354 9.37554C47.2212 9.00789 44.9641 12.0281 44.9641 12.0281L44.9585 12.0254Z" fill="#E7B399"/>
<path id="Vector_14" opacity="0.7" d="M50.3317 27.4535C50.2983 27.3663 50.3818 27.2792 50.4737 27.3009C50.7409 27.369 51.2001 27.4698 51.4951 27.4698C51.9321 27.4698 54.7431 26.4867 55.5669 25.7051C56.3907 24.9234 56.5215 25.6533 56.4436 25.9311C56.3656 26.2089 54.718 28.5292 53.7105 29.033C52.703 29.5368 51.0108 29.1855 50.3317 27.4507V27.4535Z" fill="#532321"/>
<path id="Vector_15" d="M51.0994 15.7604C51.5225 15.3601 53.0783 14.1455 55.3521 15.4037C55.4384 15.45 55.4746 15.5535 55.4384 15.6433C55.277 16.0518 54.7704 17.1248 53.8575 17.2692C52.7693 17.4407 51.8509 17.1493 51.0688 16.011C51.0159 15.932 51.0271 15.8285 51.0966 15.7632L51.0994 15.7604Z" fill="white"/>
<path id="Vector_16" d="M44.9569 16.7419C44.9569 16.7419 46.6212 15.8268 47.5675 16.6466C48.5138 17.4663 46.8689 18.9751 46.8689 18.9751C46.8689 18.9751 45.2463 18.9151 44.9541 16.7419H44.9569Z" fill="white"/>
<path id="Vector_17" d="M50.4707 27.2896L51.9736 27.3331C51.9736 27.3331 54.4117 26.4944 55.383 25.8462C55.383 25.8462 53.226 29.1088 50.4707 27.2896Z" fill="white"/>
<path id="Vector_18" d="M53.6043 17.2728C54.1449 17.1258 54.4676 16.6001 54.3252 16.0987C54.1828 15.5973 53.6292 15.31 53.0886 15.457C52.5481 15.604 52.2253 16.1296 52.3677 16.631C52.5101 17.1324 53.0637 17.4198 53.6043 17.2728Z" fill="#533126"/>
<path id="Vector_19" d="M44.9585 17.1173L46.954 18.9801C46.954 18.9801 47.9977 17.6048 46.954 17.1173C45.9103 16.6298 44.9585 17.1173 44.9585 17.1173Z" fill="#533126"/>
<path id="Vector_20" d="M49.5465 15.1884C48.7032 15.2319 49.1457 17.2309 48.6475 17.9008C47.7959 19.0474 45.5888 22.9418 47.782 23.0153C47.782 23.0153 49.0038 23.4048 49.9083 23.0725C50.8128 22.7403 51.3361 22.4843 51.3361 22.4843" fill="#CE957C"/>
<path id="Vector_21" d="M51.1075 15.7581L50.3198 13.9825C50.3198 13.9825 52.012 12.057 56.0921 13.9825L55.3629 15.4013C55.3629 15.4013 52.9388 13.8899 51.1102 15.7581H51.1075Z" fill="#CE957C"/>
<path id="Vector_22" d="M44.9585 16.7364V15.146C44.9585 15.146 46.0662 13.5991 47.7083 15.0234L47.8641 17.0251C47.8641 17.0251 47.2017 15.6062 44.9585 16.7364Z" fill="#CE957C"/>
<path id="Vector_23" d="M63.5682 18.305L64.2918 15.7205C64.2918 15.7205 66.9832 14.5685 66.9832 16.8861C66.9832 19.2037 64.8401 19.5251 64.8401 19.5251L63.5654 18.305H63.5682Z" fill="#CE957C"/>
<path id="Vector_24" d="M50.4691 27.2915C50.4691 27.2915 51.3541 27.0273 51.8301 27.1199L55.977 25.3933C55.977 25.3933 54.6912 26.2376 53.3441 26.8176C51.9748 27.4086 52.1167 27.4222 50.4663 27.2888L50.4691 27.2915Z" fill="#D29D7B"/>
<path id="Vector_25" d="M50.4883 27.8208C50.4883 27.8208 52.083 30.6913 54.7911 28.1259C54.7911 28.1259 56.4359 26.2141 56.4415 25.9281C56.4415 25.9281 53.4997 32.6684 50.4883 27.8181V27.8208Z" fill="#D29D7B"/>
<path id="Vector_26" d="M50.3198 13.9805C50.3198 13.9805 52.5324 11.0501 56.0921 13.9805C56.0921 13.9805 53.2895 12.2321 50.3198 13.9805Z" fill="#533126"/>
<path id="Vector_27" d="M44.9585 15.1526C44.9585 15.1526 45.9966 13.1046 47.7083 15.03C47.7083 15.03 46.1107 13.81 44.9585 15.1526Z" fill="#533126"/>
<path id="Vector_28" d="M51.6849 47.0995L56.2131 39.9915L58.6456 40.8112L62.4084 47.5515L69.3469 37.5649L57.6297 72.5793C57.6297 72.5793 49.3387 54.0686 51.6877 47.1022L51.6849 47.0995Z" fill="#F8FCFD"/>
<path id="Vector_29" d="M52.2607 46.4745L56.9226 40.4504L52.4723 46.6461L52.2607 46.4745Z" fill="#43454B"/>
<path id="Vector_30" d="M58.6484 40.8127L62.1441 47.643L62.4113 47.5504L58.6484 40.8127Z" fill="#43454B"/>
<path id="Vector_31" d="M62.4093 47.5484L68.6825 39.3075L62.6152 47.8834L62.1421 47.641L62.4093 47.5484Z" fill="#43454B"/>
<path id="Vector_32" d="M52.0449 41.3821L52.1535 46.4448L52.4791 46.6463L52.0449 41.3821Z" fill="#43454B"/>
<g id="Group_2">
<path id="Vector_33" d="M56.4561 40.811H58.3709L61.4992 45.2202L60.3386 46.699L56.4533 46.462C56.4533 46.462 53.9986 42.0012 56.4533 40.8138L56.4561 40.811Z" fill="#D35E77"/>
<path id="Vector_34" d="M56.2858 47.1927C56.2858 47.1927 52.932 64.6713 54.9164 71.2346L57.9584 73.4596L60.2546 69.8294C60.2546 69.8294 57.9668 53.5763 60.3436 46.7025L56.4583 46.4656L56.2858 47.1954V47.1927Z" fill="#D35E77"/>
</g>
<path id="Vector_35" d="M58.6468 40.8032L62.4097 47.5436L68.6829 39.2999L72.2732 33.0471L71.48 31.1761L69.9409 29.5339C69.9409 29.5339 69.6598 32.7747 66.7681 34.7356L58.644 40.8032H58.6468Z" fill="#E9EFEF"/>
<path id="Vector_36" d="M54.5261 33.5624C54.5261 33.5624 52.3524 37.5712 57.9466 40.6731L56.9196 40.4443L52.255 46.4684C52.255 46.4684 51.3505 35.9807 54.5233 33.5624H54.5261Z" fill="#E9EFEF"/>
<path id="Vector_37" d="M68.4675 40.1615L60.1709 64.9523C60.1709 64.9523 63.7222 44.5189 68.4675 40.1615Z" fill="#E9EFEF"/>
<path id="Vector_38" d="M54.5374 33.5624C54.5374 33.5624 43.0039 35.2618 39.4275 42.5495L35.5562 62.4655L40.6605 75.4369L46.6443 64.7041L48.7567 73.9445L58.3169 74.3476C58.3169 74.3476 50.7495 55.4447 51.6902 47.5469C51.6902 47.5469 52.8981 34.3059 54.5402 33.5624H54.5374Z" fill="#014979"/>
<path id="Vector_39" d="M45.7661 43.543C45.7661 43.543 41.7666 50.9151 45.7661 61.6942C45.7661 61.6942 40.1357 51.103 45.7661 43.543Z" fill="#0E364F"/>
<path id="Vector_40" d="M68.4462 75.469C68.4462 75.469 70.4723 80.2894 68.1289 82.4926C68.1289 82.4926 69.3507 79.7066 68.4462 75.469Z" fill="#CE957C"/>
<g id="Group_3">
<g id="Group_4">
<path id="Vector_41" d="M48.1206 82.0746L65.4431 86.3639L49.682 87.9652L48.1206 82.0746Z" fill="#8E8E8E"/>
<path id="Vector_42" d="M47.719 83.3485L59.9259 85.6389C60.0317 85.6579 60.0233 85.8104 59.9148 85.8186L48.1977 86.5811C48.1503 86.5839 48.1086 86.5512 48.1002 86.5049L47.6132 83.452C47.6021 83.3894 47.6605 83.3376 47.7217 83.3485H47.719Z" fill="#424242"/>
<path id="Vector_43" d="M49.3906 88.0025L65.2324 86.393C65.3409 86.3821 65.4356 86.4666 65.4356 86.5728V87.1175C65.4356 87.21 65.3632 87.2863 65.2714 87.2972L49.6578 88.874C49.5771 88.8822 49.5019 88.8386 49.4685 88.7651L49.2403 88.2531C49.1902 88.1414 49.2654 88.0134 49.3906 88.0025Z" fill="#C6C6C6"/>
<path id="Vector_44" d="M15.3084 60.0382L42.692 62.3395C42.8116 62.3504 42.9118 62.4321 42.9424 62.5465L49.828 88.541C49.8781 88.7289 49.7223 88.9059 49.5246 88.8869L21.3645 86.0736C21.2449 86.0627 21.1447 85.9756 21.1168 85.8612L15.0078 60.3759C14.9632 60.1907 15.1163 60.0192 15.3084 60.0355V60.0382Z" fill="#C6C6C6"/>
<path id="Vector_45" d="M15.2994 60.0379L41.9677 62.2793C42.0846 62.2902 42.182 62.3691 42.2126 62.4808L48.9173 87.7972C48.9646 87.9797 48.8143 88.154 48.6223 88.1349L21.1997 85.3952C21.0828 85.3843 20.9854 85.2999 20.9575 85.1882L15.0071 60.3675C14.9654 60.1877 15.1129 60.0216 15.2994 60.0352V60.0379Z" fill="#E8E7E5"/>
</g>
<path id="Vector_46" d="M29.4659 74.3455C30.6019 74.3455 31.5227 73.4444 31.5227 72.3329C31.5227 71.2214 30.6019 70.3203 29.4659 70.3203C28.33 70.3203 27.4092 71.2214 27.4092 72.3329C27.4092 73.4444 28.33 74.3455 29.4659 74.3455Z" fill="white"/>
</g>
<path id="Vector_47" d="M54.0034 82.7552L60.1821 79.9882L56.8256 78.4277L54.0034 82.7552Z" fill="#CE957C"/>
<path id="Vector_48" d="M67.8555 75.441L60.2046 75.7433C60.2046 75.7433 55.7042 74.3952 53.2355 75.2558C50.7668 76.1164 48.0449 79.8991 48.916 81.1355L49.4253 81.8082C49.4253 81.8082 49.353 83.9052 51.4571 82.8186C51.4571 82.8186 52.8013 84.5043 53.8172 83.4177C54.6382 82.5408 55.9769 80.2995 56.464 79.4661C56.5697 79.2836 56.798 79.2074 56.9984 79.2864L57.8083 79.605C58.1228 79.7275 58.209 80.1224 57.9752 80.3621L55.8656 82.5136C55.2839 83.1045 55.5845 84.1312 56.4111 84.2674C56.4528 84.2756 56.4974 84.2783 56.5419 84.2837C57.6301 84.3573 60.2435 81.3262 60.2435 81.3262C60.2435 81.3262 61.9496 81.1028 62.8931 81.5141C63.8366 81.9253 66.8981 84.1067 71.3261 80.885C75.7541 77.666 81.5153 76.0074 81.5153 76.0074L67.8583 75.4437L67.8555 75.441Z" fill="#E7B399"/>
<path id="Vector_49" d="M71.4763 31.1772L75.2308 34.0558C75.2308 34.0558 78.835 35.2541 79.6505 35.2541C80.4659 35.2541 89.7144 38.1818 90.3323 46.4662C90.9501 54.7507 93.0459 68.2777 94.5154 70.1786C95.9877 72.0795 97.126 79.6178 91.4316 80.9958C85.7373 82.3739 70.8696 80.974 68.1226 82.4828C68.1226 82.4828 69.9149 81.5596 69.0271 77.0715C68.1393 72.5861 64.1593 74.5687 64.1593 74.5687L57.0483 74.2909L71.4763 31.1772Z" fill="#014979"/>
<path id="Vector_50" d="M81.5218 43.7587C81.5218 43.7587 77.631 53.8569 81.5218 65.5538C81.5218 65.5538 75.1929 52.3972 81.5218 43.7587Z" fill="#0E364F"/>
<path id="Vector_51" d="M71.4785 31.1772L75.233 34.0558L70.4933 49.8051L67.8799 49.0262L69.3995 51.6733L57.6768 72.7386L57.5015 72.2919L65.6061 48.7266L71.4785 31.1772Z" fill="#2275A8"/>
<path id="Vector_52" d="M50.061 80.3458C50.061 80.3458 50.7902 77.0369 55.1348 76.5085C55.1348 76.5085 50.5982 76.4323 50.061 80.3458Z" fill="#CE957C"/>
<path id="Vector_53" d="M51.7081 82.114C51.7081 82.114 51.594 78.8405 55.4737 77.8628C55.4737 77.8628 51.3212 78.0888 51.7081 82.114Z" fill="#CE957C"/>
<path id="Vector_54" d="M43.5786 5.73695C43.5786 5.73695 49.1672 3.098 52.9106 3.31042C52.9106 3.31042 47.976 2.82294 43.5786 5.73695Z" fill="black"/>
<path id="Vector_55" d="M66.3477 19.1292C66.3477 19.1292 66.5007 18.541 67.1965 18.5491C67.1965 18.5491 66.4479 18.4184 66.3477 19.1292Z" fill="#7F7F7F"/>
<path id="Vector_56" d="M68.6691 21.9552C69.0104 21.9552 69.287 21.5382 69.287 21.0238C69.287 20.5094 69.0104 20.0924 68.6691 20.0924C68.3279 20.0924 68.0513 20.5094 68.0513 21.0238C68.0513 21.5382 68.3279 21.9552 68.6691 21.9552Z" fill="#AFB4BB"/>
<path id="Vector_57" d="M56.4611 36.3792L59.4112 34.9167L56.3497 36.7523C56.3497 36.7523 56.3414 36.5589 56.4611 36.3792Z" fill="#F2F2F2"/>
<path id="Vector_58" d="M55.6547 38.2249C55.6547 38.2249 57.7031 40.763 58.6466 40.8039C58.6466 40.8039 56.4284 40.2238 55.1982 38.4318L55.6547 38.2249Z" fill="#CE957C"/>
<path id="Vector_59" d="M58.6484 40.813C58.6484 40.813 69.3247 32.2072 69.3497 30.5432L69.4499 31.3248C69.4499 31.3248 68.4341 33.2993 67.7355 33.9665C67.0369 34.6337 58.6512 40.8158 58.6512 40.8158L58.6484 40.813Z" fill="#CE957C"/>
<path id="Vector_60" d="M59.498 5.73306C59.498 5.73306 66.5116 10.2729 66.3502 19.1293L67.1629 18.6936L67.1267 17.7322C66.9542 15.8177 66.4727 13.944 65.6989 12.1793L65.2676 11.1934C64.6302 9.73641 63.6812 8.43192 62.4844 7.36163L60.1298 5.17749L59.5008 5.73033L59.498 5.73306Z" fill="#AFB4BB"/>
<path id="Vector_61" d="M66.0068 73.1185C66.0068 73.1185 73.9639 67.6799 82.4749 68.1211C82.4749 68.1211 73.1651 66.4653 66.0068 73.1185Z" fill="#0E364F"/>
<path id="Vector_62" d="M75.2324 34.0627L71.0632 49.9917L70.4927 49.812L75.2324 34.0627Z" fill="#0E364F"/>
<path id="Vector_63" d="M71.0585 49.9923L67.8745 49.0337L69.3941 51.6808L69.8339 51.6699L68.6733 49.7064L70.5491 50.1121L71.0585 49.9923Z" fill="#0E364F"/>
<path id="Vector_64" d="M57.7773 72.5806L69.4054 51.6842L69.8452 51.6733L57.7773 72.5806Z" fill="#0E364F"/>
<g id="service-247/pana">
<g id="background-complete">
<path id="Vector_65" d="M25.3346 27.2132C25.5897 27.0604 25.8641 26.9423 26.1505 26.8623L26.3172 26.0569L27.6787 26.0323L27.8753 26.8324C28.1639 26.9036 28.4418 27.0128 28.7017 27.157L29.3895 26.7061L30.3703 27.6536L29.9439 28.3554C30.0969 28.6099 30.2149 28.8837 30.2949 29.1696L31.1002 29.3363L31.1248 30.6978L30.3247 30.8926C30.2538 31.1813 30.1446 31.4592 30.0001 31.719L30.451 32.4086L29.5035 33.3876L28.8017 32.9613C28.5473 33.1142 28.2734 33.2322 27.9876 33.3122L27.8121 34.1175L26.4505 34.1421L26.254 33.342C25.966 33.2708 25.6886 33.1617 25.4293 33.0174L24.7398 33.4683L23.7555 32.5226L24.1818 31.8208C24.029 31.5657 23.911 31.2913 23.8309 31.0049L23.0255 30.8294L23.001 29.4679L23.8011 29.2713C23.8722 28.9827 23.9814 28.7048 24.1257 28.4449L23.6747 27.7554L24.6328 26.7868L25.3346 27.2132ZM26.061 29.0275C25.8601 29.2353 25.7254 29.4981 25.6738 29.7825C25.6223 30.0669 25.6562 30.3602 25.7714 30.6254C25.8865 30.8905 26.0777 31.1155 26.3208 31.272C26.5638 31.4285 26.8478 31.5094 27.1368 31.5045C27.4258 31.4996 27.7069 31.4091 27.9445 31.2445C28.1821 31.0798 28.3655 30.8484 28.4716 30.5795C28.5777 30.3106 28.6017 30.0163 28.5405 29.7338C28.4793 29.4513 28.3357 29.1933 28.1279 28.9924C27.9897 28.8581 27.8262 28.7524 27.647 28.6815C27.4678 28.6106 27.2764 28.5757 27.0837 28.579C26.891 28.5822 26.7008 28.6235 26.5241 28.7005C26.3474 28.7775 26.1876 28.8886 26.054 29.0275H26.061Z" fill="#E0E0E0"/>
<path id="Vector_66" d="M10.3353 40.7166C10.4822 40.628 10.6403 40.5596 10.8055 40.5131L10.902 40.0481L11.688 40.0341L11.8003 40.4955C11.9671 40.5358 12.1276 40.5984 12.2776 40.6815L12.6741 40.4218L13.2391 40.9675L13.0022 41.3693C13.0908 41.5162 13.1593 41.6744 13.2058 41.8395L13.6707 41.936L13.6848 42.7221L13.2233 42.8344C13.183 43.0011 13.1205 43.1616 13.0373 43.3117L13.297 43.7082L12.7513 44.2732L12.346 44.0275C12.1988 44.1159 12.0407 44.1849 11.8758 44.2328L11.774 44.703L10.988 44.7171L10.8757 44.2556C10.709 44.2153 10.5484 44.1528 10.3984 44.0696L10.0019 44.3293L9.43689 43.7836L9.68254 43.3783C9.59414 43.2311 9.52514 43.073 9.47725 42.9081L9.01404 42.8116L9 42.0255L9.46146 41.9132C9.50176 41.7465 9.56431 41.586 9.64745 41.436L9.38777 41.0394L9.93345 40.4745L10.3388 40.7201L10.3353 40.7166ZM10.7546 41.7694C10.6384 41.8893 10.5604 42.0411 10.5305 42.2055C10.5006 42.3698 10.5202 42.5393 10.5867 42.6925C10.6532 42.8458 10.7637 42.9758 10.9041 43.0662C11.0446 43.1566 11.2087 43.2033 11.3758 43.2003C11.5428 43.1974 11.7052 43.1449 11.8423 43.0496C11.9795 42.9543 12.0854 42.8205 12.1464 42.665C12.2075 42.5095 12.221 42.3394 12.1853 42.1762C12.1497 42.013 12.0663 41.8641 11.946 41.7483C11.8668 41.671 11.7732 41.61 11.6705 41.5688C11.5678 41.5277 11.458 41.5072 11.3474 41.5085C11.2367 41.5098 11.1274 41.5329 11.0257 41.5764C10.924 41.62 10.8319 41.6832 10.7546 41.7623V41.7694Z" fill="#E0E0E0"/>
<path id="Vector_67" d="M24.9134 33.1778C25.0138 33.1171 25.1217 33.0699 25.2345 33.0374L25.3011 32.7198H25.8363L25.917 33.0251C26.0307 33.054 26.1404 33.0971 26.2434 33.1532L26.5136 32.9778L26.8996 33.3498L26.7241 33.627C26.7848 33.7274 26.832 33.8353 26.8645 33.9481L27.1821 34.0147V34.5411L26.8662 34.6183C26.8388 34.7322 26.7963 34.842 26.7399 34.9447L26.9154 35.2149L26.5434 35.6009L26.2662 35.4254C26.1658 35.4862 26.0578 35.5334 25.9451 35.5658L25.8784 35.8834H25.352L25.2748 35.5676C25.1609 35.5401 25.0512 35.4976 24.9485 35.4412L24.6783 35.6167L24.2922 35.243L24.4677 34.9675C24.407 34.8671 24.3598 34.7591 24.3273 34.6464L24.0097 34.5797L24.001 34.0533L24.3151 33.9761C24.3439 33.8624 24.387 33.7528 24.4431 33.6498L24.2677 33.3796L24.6397 32.9936L24.9169 33.169L24.9134 33.1778ZM25.1994 33.8919C25.1203 33.9738 25.0673 34.0773 25.0471 34.1893C25.0269 34.3013 25.0403 34.4167 25.0857 34.5211C25.1311 34.6255 25.2064 34.714 25.3021 34.7756C25.3978 34.8372 25.5096 34.869 25.6234 34.867C25.7372 34.8651 25.8478 34.8294 25.9413 34.7646C26.0349 34.6997 26.1071 34.6086 26.1488 34.5028C26.1906 34.3969 26.2 34.281 26.1759 34.1698C26.1518 34.0586 26.0953 33.957 26.0135 33.8779C25.9591 33.8253 25.895 33.784 25.8246 33.7562C25.7543 33.7285 25.6791 33.7149 25.6035 33.7162C25.5279 33.7175 25.4533 33.7337 25.384 33.7638C25.3146 33.794 25.2519 33.8375 25.1994 33.8919Z" fill="#CFCBCB"/>
<path id="Vector_68" d="M28.803 31.9535C29.0009 31.8339 29.2139 31.7413 29.4364 31.678L29.5662 31.0516L30.619 31.0323L30.7716 31.6552C30.9966 31.7102 31.2132 31.7952 31.4156 31.9079L31.9419 31.557L32.7192 32.3044L32.3894 32.8449C32.5094 33.0432 32.602 33.2568 32.6648 33.48L33.293 33.6099L33.3105 34.6626L32.6894 34.8153C32.6329 35.0414 32.5467 35.2591 32.4332 35.4627L32.7841 35.9996L32.049 36.7611L31.5015 36.4295C31.3034 36.5488 31.0904 36.6414 30.8681 36.705L30.7365 37.3314L29.6838 37.3507L29.5311 36.7278C29.3037 36.6741 29.0847 36.5897 28.8802 36.4769L28.3538 36.8278L27.5905 36.0926L27.9221 35.5452C27.8027 35.3465 27.7101 35.1329 27.6467 34.91L27.0203 34.7802L27.001 33.7274L27.6239 33.5748C27.6789 33.3503 27.7639 33.1343 27.8765 32.9326L27.5256 32.3957L28.2608 31.6342L28.803 31.9535ZM29.3679 33.3572C29.2118 33.5191 29.1073 33.7237 29.0674 33.945C29.0276 34.1664 29.0543 34.3945 29.1442 34.6007C29.2341 34.8069 29.3831 34.9817 29.5724 35.1032C29.7617 35.2247 29.9827 35.2873 30.2076 35.2831C30.4324 35.2789 30.651 35.2082 30.8356 35.0798C31.0203 34.9514 31.1627 34.7711 31.2448 34.5617C31.327 34.3524 31.3452 34.1234 31.2972 33.9036C31.2492 33.6839 31.1371 33.4834 30.9751 33.3274C30.8668 33.2245 30.7393 33.144 30.5998 33.0906C30.4604 33.0371 30.3117 33.0117 30.1624 33.0157C30.0131 33.0198 29.8661 33.0533 29.7298 33.1143C29.5934 33.1753 29.4705 33.2626 29.3679 33.3712V33.3572Z" fill="#EBEBEB"/>
<path id="Vector_69" d="M28.3178 41.2149C28.5716 41.062 28.8449 40.944 29.1302 40.864L29.3057 40.0586L30.6655 40.0341L30.862 40.8342C31.1509 40.9045 31.4289 41.0137 31.6884 41.1588L32.3745 40.7078L33.3535 41.6536L32.9289 42.3554C33.0809 42.6103 33.1988 42.884 33.2798 43.1695L34.0852 43.345L34.1098 44.7048L33.3097 44.9013C33.2393 45.1896 33.1301 45.4671 32.9851 45.726L33.436 46.4138L32.492 47.3823L31.7902 46.956C31.5356 47.1087 31.2618 47.2267 30.976 47.3069L30.8006 48.1122L29.4408 48.135L29.2443 47.3385C28.9562 47.2673 28.6789 47.1581 28.4196 47.0139L27.7318 47.4648L26.7527 46.5191L27.1791 45.8172C27.0262 45.5634 26.9082 45.2902 26.8282 45.0048L26.0228 44.8294L26 43.4783L26.7983 43.2818C26.8695 42.9932 26.9787 42.7153 27.1229 42.4554L26.672 41.7694L27.6177 40.7903L28.3196 41.2167L28.3178 41.2149ZM29.0425 43.0274C28.8421 43.2352 28.7079 43.4978 28.6567 43.7819C28.6056 44.066 28.6398 44.3589 28.7551 44.6235C28.8704 44.8882 29.0615 45.1127 29.3044 45.2688C29.5472 45.4248 29.8309 45.5053 30.1195 45.5002C30.4081 45.495 30.6887 45.4044 30.9259 45.2398C31.163 45.0752 31.346 44.844 31.4518 44.5754C31.5575 44.3068 31.5813 44.0129 31.52 43.7308C31.4588 43.4487 31.3153 43.1911 31.1076 42.9906C30.9698 42.8571 30.8069 42.7521 30.6284 42.6817C30.4499 42.6113 30.2593 42.5768 30.0674 42.5803C29.8756 42.5837 29.6863 42.6249 29.5104 42.7017C29.3345 42.7784 29.1755 42.8891 29.0425 43.0274Z" fill="#E0E0E0"/>
<path id="Vector_70" d="M36.1468 56.5807L34.5501 56.1841C34.5501 56.1841 34.2185 57.5317 32.8113 57.2106C32.5392 57.1537 32.2916 57.0135 32.1029 56.8094C31.9142 56.6053 31.7938 56.3475 31.7585 56.0718C31.7253 55.8409 31.7473 55.6054 31.8226 55.3846C31.8979 55.1638 32.0245 54.964 32.1919 54.8015C32.5744 54.419 33.2727 54.1576 34.2974 54.6155L35.1905 50.9958L33.6026 50.6045L33.0762 52.7258C33.0762 52.7258 30.7093 52.7521 30.1057 55.2051C29.5267 57.5527 31.4971 58.616 32.3989 58.8371C33.0902 59.0073 35.4783 59.4196 36.1468 56.5807Z" fill="#E3E2E2"/>
<path id="Vector_71" d="M33.766 49.8524L35.376 50.249L35.7466 48.7447L34.1366 48.3481L33.766 49.8524Z" fill="#E3E2E2"/>
</g>
<g id="speech-bubble">
<path id="Vector_72" d="M44.3343 30.9385L42.7997 30.1258C42.447 28.7253 41.5832 27.5074 40.378 26.7115C39.1729 25.9156 37.7136 25.5993 36.2871 25.8247C34.8606 26.0502 33.57 26.8011 32.6691 27.9299C31.7682 29.0587 31.322 30.4836 31.4185 31.9246C31.5149 33.3656 32.1468 34.7185 33.1901 35.7171C34.2334 36.7158 35.6125 37.2881 37.0564 37.3216C38.5002 37.355 39.9043 36.8471 40.9927 35.8977C42.081 34.9484 42.7749 33.6262 42.9379 32.1912L44.3343 30.9385Z" fill="white"/>
<path id="Vector_73" d="M44.3344 30.9366C44.3344 30.9366 44.3114 30.9672 44.2492 31.0179L43.9862 31.2582C43.7501 31.4741 43.403 31.7897 42.9505 32.2022C42.9491 32.2036 42.9474 32.2047 42.9455 32.2053C42.9436 32.206 42.9416 32.2062 42.9397 32.2061C42.9377 32.2059 42.9358 32.2053 42.9341 32.2043C42.9323 32.2033 42.9309 32.2019 42.9297 32.2003C42.9283 32.2001 42.9269 32.1995 42.9258 32.1987C42.9246 32.1978 42.9237 32.1967 42.9232 32.1953L42.9544 32.1948C42.8486 33.1491 42.5077 34.0623 41.9622 34.8525C41.7924 35.0983 41.6034 35.3304 41.3971 35.5465C41.1736 35.7758 40.9329 35.9878 40.677 36.1804C39.748 36.8776 38.6311 37.2798 37.4709 37.3349C36.3107 37.39 35.1606 37.0954 34.1698 36.4894C33.3935 36.0123 32.7408 35.3588 32.2646 34.582C31.7884 33.8051 31.5023 32.9269 31.4294 32.0187L31.4081 31.6604C31.4077 31.5403 31.4164 31.4219 31.4172 31.3026C31.4263 31.066 31.4501 30.8301 31.4884 30.5963C31.5012 30.4793 31.538 30.3666 31.5609 30.2521C31.5838 30.1375 31.6056 30.0221 31.6457 29.912C31.7115 29.6898 31.7913 29.4721 31.8848 29.2601C32.2438 28.4332 32.7873 27.6994 33.4736 27.1149C34.3722 26.3595 35.4789 25.8945 36.6474 25.7814C37.8159 25.6682 38.9912 25.9123 40.018 26.4813C40.2994 26.6387 40.5682 26.8176 40.8221 27.0162C41.0527 27.2076 41.2717 27.4124 41.478 27.6297C42.1244 28.3355 42.5837 29.1919 42.814 30.1209L42.8041 30.1135L43.945 30.7308L44.2349 30.8891L44.3303 30.942L44.2273 30.8902L43.931 30.7357L42.7904 30.1408L42.7806 30.1334C42.545 29.2129 42.084 28.3654 41.4394 27.6674C41.2345 27.4521 41.0164 27.2496 40.7864 27.0613C40.5338 26.8647 40.2662 26.6879 39.9862 26.5326C38.9686 25.9747 37.806 25.7373 36.6511 25.8515C35.4962 25.9657 34.4027 26.4262 33.514 27.1727C32.8367 27.7513 32.3005 28.477 31.9462 29.2944C31.8553 29.5043 31.7764 29.7192 31.7099 29.9381C31.6706 30.0471 31.6557 30.1625 31.6276 30.2749C31.5995 30.3873 31.5695 30.4999 31.5565 30.615C31.5184 30.8457 31.4951 31.0786 31.4869 31.3123C31.484 31.4299 31.4794 31.5497 31.4773 31.6662L31.4964 32.0229C31.5684 32.9201 31.8507 33.7877 32.3205 34.5555C32.7902 35.3232 33.4342 35.9696 34.2002 36.4421C34.8813 36.8566 35.6409 37.1253 36.4311 37.2313C37.2213 37.3373 38.0249 37.2782 38.7911 37.0579C39.46 36.8641 40.0879 36.5494 40.6434 36.1294C40.8972 35.9392 41.1364 35.7301 41.3589 35.504C41.5648 35.2906 41.7535 35.0612 41.9232 34.8179C42.4694 34.0367 42.8141 33.1326 42.9267 32.186C42.9263 32.1822 42.9274 32.1784 42.9297 32.1754C42.932 32.1724 42.9353 32.1703 42.9391 32.1696C42.9426 32.1695 42.946 32.1706 42.9488 32.1727C42.9516 32.1748 42.9536 32.1778 42.9544 32.1812L42.9298 32.1729C43.3837 31.77 43.7326 31.461 43.9707 31.2447C44.0887 31.1402 44.1799 31.0599 44.2407 31.0064C44.3015 30.9529 44.3344 30.9366 44.3344 30.9366Z" fill="#263238"/>
<path id="Vector_74" d="M35.5552 31.7024C35.5733 31.8171 35.557 31.9346 35.5082 32.0401C35.4595 32.1455 35.3805 32.2341 35.2814 32.2946C35.1822 32.3551 35.0674 32.3848 34.9513 32.38C34.8353 32.3751 34.7233 32.336 34.6295 32.2674C34.5357 32.1989 34.4644 32.104 34.4246 31.9949C34.3848 31.8858 34.3783 31.7673 34.4058 31.6545C34.4334 31.5417 34.4939 31.4396 34.5795 31.3611C34.6652 31.2827 34.7722 31.2314 34.887 31.2139C35.0403 31.1904 35.1967 31.2286 35.322 31.3202C35.4472 31.4117 35.5311 31.5492 35.5552 31.7024Z" fill="#263238"/>
<path id="Vector_75" d="M37.8751 31.3419C37.8931 31.4566 37.8768 31.574 37.8281 31.6794C37.7794 31.7848 37.7005 31.8734 37.6015 31.9339C37.5024 31.9944 37.3876 32.0242 37.2716 32.0195C37.1556 32.0148 37.0437 31.9757 36.9499 31.9073C36.8561 31.8389 36.7847 31.7442 36.7447 31.6352C36.7048 31.5262 36.698 31.4078 36.7254 31.295C36.7528 31.1822 36.813 31.08 36.8985 31.0015C36.9839 30.9229 37.0908 30.8714 37.2055 30.8536C37.359 30.8298 37.5157 30.8678 37.6412 30.9593C37.7668 31.0509 37.8508 31.1884 37.8751 31.3419Z" fill="#263238"/>
<path id="Vector_76" d="M40.1412 30.6971C40.214 30.7875 40.2583 30.8975 40.2686 31.013C40.2789 31.1286 40.2546 31.2447 40.199 31.3465C40.1433 31.4483 40.0587 31.5313 39.9559 31.585C39.853 31.6388 39.7366 31.6608 39.6212 31.6483C39.5058 31.6358 39.3968 31.5895 39.3078 31.515C39.2188 31.4405 39.1539 31.3414 39.1212 31.23C39.0886 31.1187 39.0897 31.0001 39.1245 30.8894C39.1592 30.7787 39.226 30.6808 39.3164 30.608C39.4377 30.5108 39.5926 30.4656 39.7472 30.4823C39.9018 30.499 40.0434 30.5763 40.1412 30.6971Z" fill="#263238"/>
</g>
<g id="speech-bubble-1">
<path id="Vector_77" d="M15.0073 49.536L15.8345 48.0973C15.3994 46.8509 15.4463 45.4868 15.9659 44.2732C16.4856 43.0596 17.4404 42.0842 18.6426 41.5389C19.8449 40.9936 21.2077 40.9177 22.4631 41.3261C23.7185 41.7346 24.7757 42.5979 25.4269 43.7463C26.078 44.8947 26.2761 46.2452 25.9821 47.5322C25.6881 48.8192 24.9233 49.9497 23.838 50.7014C22.7528 51.4532 21.4256 51.7718 20.1174 51.5946C18.8091 51.4175 17.6145 50.7574 16.7683 49.7441L15.0073 49.536Z" fill="white"/>
<path id="Vector_78" d="M15.0076 49.535H15.1243L15.4669 49.5706L16.7736 49.7152L16.7508 49.7456C16.7472 49.7419 16.7452 49.7369 16.7452 49.7317C16.7452 49.7265 16.7472 49.7215 16.7508 49.7177C16.7544 49.7149 16.7589 49.7133 16.7635 49.7133C16.7681 49.7133 16.7726 49.7149 16.7762 49.7177C17.3395 50.3868 18.0607 50.9048 18.8746 51.2249C19.9979 51.6622 21.2369 51.7024 22.3863 51.3391C23.1227 51.1053 23.7981 50.711 24.3639 50.1848C24.9297 49.6586 25.3718 49.0136 25.6584 48.296C25.945 47.5785 26.0689 46.8063 26.0213 46.0351C25.9736 45.264 25.7556 44.5129 25.383 43.8361C24.9752 43.0909 24.3905 42.4574 23.6804 41.9914C23.0022 41.547 22.2316 41.2632 21.4272 41.1617C20.5456 41.0576 19.6521 41.1788 18.8301 41.5138C18.0081 41.8489 17.2845 42.3869 16.7269 43.0775C16.1693 43.7682 15.7959 44.589 15.6417 45.4631C15.4874 46.3373 15.5574 47.2363 15.8449 48.076C15.8463 48.0788 15.847 48.0819 15.847 48.0849C15.847 48.088 15.8463 48.091 15.8449 48.0938L15.2208 49.1519C15.1522 49.2712 15.0964 49.3625 15.0584 49.4259L15 49.5224C15.0143 49.491 15.0304 49.4605 15.0482 49.431L15.2004 49.157L15.8094 48.0735V48.0913C15.5146 47.2603 15.4334 46.3686 15.5734 45.4981C15.7711 44.2844 16.3836 43.177 17.3065 42.3644C17.8452 41.891 18.4733 41.5304 19.1537 41.3038C19.8886 41.0596 20.6682 40.9799 21.4373 41.0703C22.2526 41.1726 23.0337 41.4599 23.721 41.9102C24.7004 42.5509 25.4407 43.4973 25.8266 44.6022C26.2125 45.7071 26.2224 46.9085 25.8548 48.0197C25.4873 49.1308 24.7628 50.0893 23.7941 50.7461C22.8254 51.4028 21.6668 51.7211 20.4985 51.6512C19.9299 51.621 19.3702 51.4975 18.8416 51.2858C18.0207 50.9574 17.2956 50.4278 16.733 49.7456L16.7686 49.7228C16.7721 49.7266 16.7741 49.7316 16.7741 49.7368C16.7741 49.742 16.7721 49.747 16.7686 49.7507L15.4491 49.5782L15.1167 49.5325L15.0076 49.535Z" fill="#263238"/>
<path id="Vector_79" d="M19.4153 46.375C19.4153 46.4754 19.3856 46.5735 19.3298 46.657C19.2741 46.7404 19.1948 46.8055 19.1021 46.8439C19.0093 46.8823 18.9073 46.8923 18.8089 46.8728C18.7104 46.8532 18.62 46.8048 18.549 46.7339C18.4781 46.6629 18.4297 46.5725 18.4101 46.474C18.3906 46.3756 18.4006 46.2736 18.439 46.1808C18.4774 46.0881 18.5425 46.0088 18.6259 45.9531C18.7094 45.8973 18.8075 45.8676 18.9079 45.8676C19.0425 45.8676 19.1715 45.921 19.2667 46.0162C19.3619 46.1114 19.4153 46.2404 19.4153 46.375Z" fill="#263238"/>
<path id="Vector_80" d="M21.4227 46.3601C21.4227 46.4605 21.3929 46.5586 21.3371 46.6421C21.2814 46.7255 21.2021 46.7906 21.1094 46.829C21.0167 46.8674 20.9146 46.8774 20.8162 46.8579C20.7177 46.8383 20.6273 46.7899 20.5564 46.719C20.4854 46.648 20.437 46.5576 20.4175 46.4591C20.3979 46.3607 20.4079 46.2587 20.4463 46.1659C20.4848 46.0732 20.5498 45.9939 20.6333 45.9382C20.7167 45.8824 20.8148 45.8527 20.9152 45.8527C21.0498 45.8527 21.1789 45.9061 21.274 46.0013C21.3692 46.0965 21.4227 46.2255 21.4227 46.3601Z" fill="#263238"/>
<path id="Vector_81" d="M23.4188 46.0943C23.4712 46.1806 23.4967 46.2806 23.4919 46.3814C23.4872 46.4823 23.4525 46.5794 23.3922 46.6604C23.332 46.7414 23.2489 46.8026 23.1537 46.8362C23.0585 46.8698 22.9554 46.8741 22.8577 46.8488C22.7599 46.8235 22.672 46.7696 22.605 46.694C22.5381 46.6184 22.4953 46.5245 22.482 46.4244C22.4687 46.3244 22.4855 46.2226 22.5304 46.1321C22.5752 46.0417 22.646 45.9667 22.7338 45.9167C22.8486 45.8512 22.9844 45.8332 23.1124 45.8663C23.2403 45.8995 23.3503 45.9813 23.4188 46.0943Z" fill="#263238"/>
</g>
</g>
<g id="Group_5">
<path id="Vector_82" d="M65.6164 26.4811C67.7406 26.4811 69.4627 23.7633 69.4627 20.4107C69.4627 17.0581 67.7406 14.3403 65.6164 14.3403C63.4921 14.3403 61.77 17.0581 61.77 20.4107C61.77 23.7633 63.4921 26.4811 65.6164 26.4811Z" fill="#32383B"/>
<path id="Vector_83" d="M65.9709 25.824C67.8646 25.824 69.3997 23.4 69.3997 20.4099C69.3997 17.4198 67.8646 14.9958 65.9709 14.9958C64.0771 14.9958 62.542 17.4198 62.542 20.4099C62.542 23.4 64.0771 25.824 65.9709 25.824Z" fill="#D6DBE2"/>
<path id="Vector_84" d="M67.2689 23.2151C68.1359 23.2151 68.8386 22.1823 68.8386 20.9084C68.8386 19.6344 68.1359 18.6017 67.2689 18.6017C66.402 18.6017 65.6992 19.6344 65.6992 20.9084C65.6992 22.1823 66.402 23.2151 67.2689 23.2151Z" fill="#AFB4BB"/>
<path id="Vector_85" d="M67.8861 23.2151C68.753 23.2151 69.4558 22.1823 69.4558 20.9084C69.4558 19.6344 68.753 18.6017 67.8861 18.6017C67.0192 18.6017 66.3164 19.6344 66.3164 20.9084C66.3164 22.1823 67.0192 23.2151 67.8861 23.2151Z" fill="#E8E6E8"/>
<path id="Vector_86" d="M60.6434 5.09548C60.5988 5.31063 60.4151 5.56662 60.1368 5.76543C59.711 6.07045 59.2295 6.13309 59.0569 5.90432C58.8872 5.67284 59.0903 5.24255 59.5162 4.93753C59.9392 4.63523 60.4207 4.56987 60.5933 4.79864C60.6044 4.81498 60.6155 4.82859 60.6211 4.84221C60.6573 4.91574 60.6656 5.00289 60.6434 5.09548Z" fill="black"/>
<path id="Vector_87" d="M60.6412 5.09724C59.3776 4.7078 59.0548 5.90608 59.0548 5.90608C53.071 0.140708 43.5859 5.73451 43.5859 5.73451C43.5859 5.73451 47.0705 1.30903 53.2742 1.65762C58.192 1.93813 60.04 3.97249 60.5911 4.79767C60.6022 4.81401 60.6134 4.82763 60.6189 4.84124C60.6551 4.91477 60.6635 5.00192 60.6412 5.09452V5.09724Z" fill="#272E2F"/>
<path id="Vector_88" d="M66.6734 22.8157L59.4121 34.9129L56.0723 36.5714L56.4897 37.4075L60.016 35.4467L67.4499 23.1752L66.6734 22.8157Z" fill="#AFB4BB"/>
<path id="Vector_89" d="M59.5795 34.5968C59.5795 34.5968 58.8954 34.3004 58.5039 34.3542C58.2364 34.3909 57.0769 34.8663 56.3127 35.2544C55.7535 35.5401 55.4082 36.1346 55.5112 36.7417C55.558 37.0211 55.7013 37.2874 56.0197 37.458C56.2778 37.5985 56.5913 37.6105 56.8753 37.5302C57.6483 37.3086 59.5074 36.6492 60.145 35.3191C60.145 35.3191 59.286 35.569 59.5822 34.5964L59.5795 34.5968Z" fill="#272E2F"/>
<path id="Vector_90" d="M52.3752 39.338C52.3752 39.338 52.3113 40.3759 51.766 43.6023C51.2206 46.8288 51.1568 50.9127 51.766 53.3495C52.3752 55.7863 57.8615 74.6713 57.8615 74.6713L51.0757 60.1488L49.858 57.0255L50.9227 55.1646L48.4297 52.4008L50.5505 40.5564C50.5505 40.5564 52.4054 35.1516 53.5971 35.0736L52.3752 39.338Z" fill="#2275A8"/>
<path id="Vector_91" d="M49.8562 42.1803L48.1104 52.4733L50.5442 55.3174L49.5973 57.2404L53.5742 66.0301L55.7158 70.3504L57.8575 74.6706L56.961 72.3927L49.8824 57.2404L50.8211 55.2644L48.3735 52.5575L50.5251 40.5557L50.1249 40.6665L49.8562 42.1803Z" fill="#0E364F"/>
</g>
</g>
</g>
</g>
<g id="Board">
<path id="Vector_92" d="M38.386 5.33337H18.6035V21.7091H38.386V5.33337Z" fill="white"/>
<path id="Vector_93" d="M38.3866 21.71C38.3866 21.5959 38.3817 15.2032 38.3728 5.33501L38.3866 5.34877H18.6065L18.6235 5.33259C18.6235 11.2601 18.6235 16.8544 18.6235 21.7075L18.609 21.693L38.3914 21.7075L18.609 21.7221H18.5952V21.7075C18.5952 16.8535 18.5952 11.2601 18.5952 5.33259V5.31641H18.6138H38.3939H38.4076V5.33016C38.3922 15.2032 38.3866 21.5959 38.3866 21.71Z" fill="#263238"/>
<path id="Vector_94" d="M36.2153 15.269H29.8574C29.7479 15.269 29.6592 15.3578 29.6592 15.4672V15.5182C29.6592 15.6277 29.7479 15.7164 29.8574 15.7164H36.2153C36.3248 15.7164 36.4135 15.6277 36.4135 15.5182V15.4672C36.4135 15.3578 36.3248 15.269 36.2153 15.269Z" fill="#E0E0E0"/>
<path id="Vector_95" d="M36.2153 16.1915H29.8574C29.7479 16.1915 29.6592 16.2803 29.6592 16.3897V16.4407C29.6592 16.5502 29.7479 16.6389 29.8574 16.6389H36.2153C36.3248 16.6389 36.4135 16.5502 36.4135 16.4407V16.3897C36.4135 16.2803 36.3248 16.1915 36.2153 16.1915Z" fill="#E0E0E0"/>
<path id="Vector_96" d="M33.1969 17.0492H29.8574C29.7479 17.0492 29.6592 17.1379 29.6592 17.2474V17.2984C29.6592 17.4078 29.7479 17.4966 29.8574 17.4966H33.1969C33.3064 17.4966 33.3951 17.4078 33.3951 17.2984V17.2474C33.3951 17.1379 33.3064 17.0492 33.1969 17.0492Z" fill="#E0E0E0"/>
<path id="Vector_97" d="M38.4644 5.0343H18.5356C18.2398 5.0343 18 5.27408 18 5.56986V5.70577C18 6.00155 18.2398 6.24133 18.5356 6.24133H38.4644C38.7602 6.24133 39 6.00155 39 5.70577V5.56986C39 5.27408 38.7602 5.0343 38.4644 5.0343Z" fill="#263238"/>
<path id="Vector_98" d="M28.8612 15.4606C28.8612 15.4655 27.0264 15.4687 24.7636 15.4687C22.5008 15.4687 20.666 15.4687 20.666 15.4606C20.666 15.4525 22.5 15.4525 24.7636 15.4525C27.0272 15.4525 28.8612 15.4558 28.8612 15.4606Z" fill="#E0E0E0"/>
<path id="Vector_99" d="M28.8612 16.3641C28.8612 16.3682 27.0264 16.3722 24.7636 16.3722C22.5008 16.3722 20.666 16.3722 20.666 16.3641C20.666 16.356 22.5 16.3552 24.7636 16.3552C27.0272 16.3552 28.8612 16.3593 28.8612 16.3641Z" fill="#E0E0E0"/>
<path id="Vector_100" d="M28.8612 17.2717C28.8612 17.2765 27.0264 17.2806 24.7636 17.2806C22.5008 17.2806 20.666 17.2806 20.666 17.2717C20.666 17.2628 22.5 17.2636 24.7636 17.2636C27.0272 17.2636 28.8612 17.2668 28.8612 17.2717Z" fill="#E0E0E0"/>
<path id="Vector_101" d="M28.8612 18.1752C28.8612 18.18 27.0264 18.1832 24.7636 18.1832C22.5008 18.1832 20.666 18.1832 20.666 18.1752C20.666 18.1671 22.5 18.1663 24.7636 18.1663C27.0272 18.1663 28.8612 18.1703 28.8612 18.1752Z" fill="#E0E0E0"/>
<path id="Vector_102" d="M28.8612 19.0772C28.8612 19.0821 27.0264 19.0861 24.7636 19.0861C22.5008 19.0861 20.666 19.0861 20.666 19.0772C20.666 19.0683 22.5 19.0691 24.7636 19.0691C27.0272 19.0691 28.8612 19.0732 28.8612 19.0772Z" fill="#E0E0E0"/>
<path id="Vector_103" d="M26.515 17.3453H25.6987V19.9746H26.515V17.3453Z" fill="#FF725E"/>
<path id="Vector_104" d="M28.058 16.4794H27.2417V19.9767H28.058V16.4794Z" fill="#FF725E"/>
<path id="Vector_105" d="M22.2186 18.7446H21.4023V19.9751H22.2186V18.7446Z" fill="#FF725E"/>
<path id="Vector_106" d="M23.5668 18.3779H22.7505V19.9757H23.5668V18.3779Z" fill="#FF725E"/>
<path id="Vector_107" d="M24.9691 17.9153H24.1528V19.9774H24.9691V17.9153Z" fill="#FF725E"/>
<path id="Vector_108" d="M28.9362 19.976H28.3651H26.8061H21.6641H20.6399V19.9687C20.6399 18.4454 20.6399 17.1 20.6399 16.134C20.6399 15.6486 20.6399 15.2652 20.6399 15.0014C20.6399 14.868 20.6399 14.7652 20.6399 14.6948C20.6399 14.66 20.6399 14.6333 20.6399 14.6139C20.6399 14.5945 20.6399 14.5864 20.6399 14.5864C20.6399 14.5864 20.6399 14.5961 20.6399 14.6139C20.6399 14.6317 20.6399 14.6584 20.6399 14.6948C20.6399 14.7652 20.6399 14.868 20.6399 15.0014C20.6399 15.2684 20.6399 15.6551 20.6399 16.134C20.6399 17.1 20.6399 18.4454 20.6399 19.9687L20.6318 19.9614H21.6641H26.8061H28.3651H28.789H28.9362V19.976Z" fill="#263238"/>
<path id="Vector_109" d="M21.0542 15.9187C20.9872 15.927 20.9195 15.9297 20.852 15.9267C20.7842 15.9297 20.7163 15.927 20.6489 15.9187C20.7163 15.9103 20.7842 15.9076 20.852 15.9106C20.9195 15.9077 20.9872 15.9104 21.0542 15.9187Z" fill="#263238"/>
<path id="Vector_110" d="M21.0542 16.7791C20.9872 16.788 20.9195 16.7909 20.852 16.788C20.7842 16.791 20.7162 16.788 20.6489 16.7791C20.7163 16.7708 20.7842 16.7681 20.852 16.771C20.9195 16.7681 20.9872 16.7708 21.0542 16.7791Z" fill="#263238"/>
<path id="Vector_111" d="M21.0542 17.6393C20.9872 17.6482 20.9195 17.6511 20.852 17.6482C20.7842 17.6512 20.7162 17.6482 20.6489 17.6393C20.7163 17.6315 20.7842 17.6288 20.852 17.6312C20.9195 17.6288 20.9871 17.6315 21.0542 17.6393Z" fill="#263238"/>
<path id="Vector_112" d="M21.0542 18.4997C20.9872 18.5085 20.9195 18.5115 20.852 18.5086C20.7842 18.5115 20.7162 18.5085 20.6489 18.4997C20.7163 18.4919 20.7842 18.4892 20.852 18.4916C20.9195 18.4892 20.9871 18.4919 21.0542 18.4997Z" fill="#263238"/>
<path id="Vector_113" d="M31.998 8.01611H25.9208C25.7577 8.01611 25.6255 8.14832 25.6255 8.3114V8.38583C25.6255 8.54891 25.7577 8.68111 25.9208 8.68111H31.998C32.1611 8.68111 32.2933 8.54891 32.2933 8.38583V8.3114C32.2933 8.14832 32.1611 8.01611 31.998 8.01611Z" fill="#FF725E"/>
<path id="Vector_114" d="M35.7932 9.92603H20.8388C20.7294 9.92603 20.6406 10.0148 20.6406 10.1242V10.1752C20.6406 10.2847 20.7294 10.3734 20.8388 10.3734H35.7932C35.9026 10.3734 35.9914 10.2847 35.9914 10.1752V10.1242C35.9914 10.0148 35.9026 9.92603 35.7932 9.92603Z" fill="#E0E0E0"/>
<path id="Vector_115" d="M35.7932 10.9923H20.8388C20.7294 10.9923 20.6406 11.081 20.6406 11.1905V11.2415C20.6406 11.3509 20.7294 11.4397 20.8388 11.4397H35.7932C35.9026 11.4397 35.9914 11.3509 35.9914 11.2415V11.1905C35.9914 11.081 35.9026 10.9923 35.7932 10.9923Z" fill="#E0E0E0"/>
<path id="Vector_116" d="M35.7932 12.0587H20.8388C20.7294 12.0587 20.6406 12.1475 20.6406 12.2569V12.3079C20.6406 12.4174 20.7294 12.5061 20.8388 12.5061H35.7932C35.9026 12.5061 35.9914 12.4174 35.9914 12.3079V12.2569C35.9914 12.1475 35.9026 12.0587 35.7932 12.0587Z" fill="#E0E0E0"/>
<path id="Vector_117" d="M24.1188 13.1251H20.7793C20.6698 13.1251 20.5811 13.2139 20.5811 13.3233V13.3743C20.5811 13.4838 20.6698 13.5725 20.7793 13.5725H24.1188C24.2283 13.5725 24.317 13.4838 24.317 13.3743V13.3233C24.317 13.2139 24.2283 13.1251 24.1188 13.1251Z" fill="#E0E0E0"/>
</g>
</g>
<g id="Stopwatch">
<path id="Vector_118" d="M1.96494 36.4031H0C0 33.6681 1.10721 30.8738 3.03709 28.7295C5.0681 26.476 7.70465 25.2352 10.4545 25.2352C16.0742 25.2352 20 29.3377 20 35.215H18.0391C18.0391 30.4234 14.9926 27.2042 10.4585 27.2042C6.01349 27.2002 1.96494 31.5859 1.96494 36.4031Z" fill="#FF725E"/>
<path id="Vector_119" d="M3.04226 35.858C3.35649 35.858 3.61138 35.889 3.61003 35.9173C3.60868 35.9457 3.35514 35.9672 3.04226 35.9672C2.72938 35.9672 2.47314 35.9416 2.47314 35.9079C2.47314 35.8742 2.72938 35.8526 3.04226 35.858Z" fill="#263238"/>
<path id="Vector_120" d="M4.39943 31.5523C4.66915 31.725 4.85122 31.9016 4.82155 31.9488C4.79188 31.996 4.55183 31.9003 4.2821 31.7371C4.01238 31.5739 3.83301 31.3946 3.86133 31.3406C3.88965 31.2867 4.13645 31.3811 4.39943 31.5523Z" fill="#263238"/>
<path id="Vector_121" d="M7.79742 28.5819C7.92554 28.8691 7.98892 29.1213 7.93228 29.1429C7.87564 29.1645 7.73134 28.9554 7.59378 28.6736C7.45622 28.3917 7.39284 28.1341 7.45892 28.1126C7.525 28.091 7.67065 28.2906 7.79742 28.5819Z" fill="#263238"/>
<path id="Vector_122" d="M12.2774 28.2312C12.1992 28.536 12.0927 28.7707 12.0401 28.7599C11.9875 28.7491 11.9983 28.4902 12.0657 28.1813C12.1331 27.8725 12.2383 27.6419 12.303 27.654C12.3678 27.6662 12.3556 27.9278 12.2774 28.2312Z" fill="#263238"/>
<path id="Vector_123" d="M15.9315 30.7966C15.6699 30.9692 15.4339 31.0744 15.4029 31.0312C15.3718 30.9881 15.5539 30.8019 15.8074 30.6172C16.061 30.4324 16.2983 30.3286 16.3361 30.3825C16.3739 30.4365 16.1931 30.6226 15.9315 30.7966Z" fill="#263238"/>
<path id="Vector_124" d="M17.14 35.0351C16.8272 35.0351 16.5723 35.0108 16.5723 34.9839C16.5723 34.9569 16.8258 34.9299 17.14 34.9259C17.4543 34.9218 17.7078 34.9448 17.7091 34.9771C17.7105 35.0095 17.457 35.0351 17.14 35.0351Z" fill="#263238"/>
<path id="Vector_125" d="M9.92448 35.6207C9.82658 35.6214 9.7314 35.5886 9.65475 35.5277L6.35199 32.9653C6.26042 32.8938 6.20103 32.7888 6.18686 32.6735C6.1727 32.5581 6.20493 32.4419 6.27647 32.3503C6.348 32.2588 6.45298 32.1994 6.56831 32.1852C6.68364 32.171 6.79987 32.2033 6.89144 32.2748L9.90425 34.6106L14.0647 30.79C14.1497 30.7111 14.2625 30.6692 14.3783 30.6735C14.4941 30.6778 14.6035 30.728 14.6824 30.8129C14.7613 30.8979 14.8032 31.0107 14.7989 31.1265C14.7946 31.2423 14.7444 31.3517 14.6595 31.4306L10.2266 35.5034C10.1445 35.5795 10.0364 35.6215 9.92448 35.6207Z" fill="#FF725E"/>
<path id="Vector_126" d="M12.1605 22.3468H8.37363C8.31479 22.3468 8.26709 22.3945 8.26709 22.4533V23.8249C8.26709 23.8837 8.31479 23.9314 8.37363 23.9314H12.1605C12.2194 23.9314 12.2671 23.8837 12.2671 23.8249V22.4533C12.2671 22.3945 12.2194 22.3468 12.1605 22.3468Z" fill="#FF725E"/>
<path id="Vector_127" d="M11.3003 23.1388H9.23291V25.0134H11.3003V23.1388Z" fill="#FF725E"/>
<path id="Vector_128" d="M1.73408 27.1958L0.181072 29.119C0.12071 29.1938 0.132377 29.3033 0.207131 29.3637L1.26898 30.2211C1.34373 30.2815 1.45327 30.2698 1.51363 30.195L3.06663 28.2718C3.127 28.197 3.11533 28.0875 3.04058 28.0271L1.97873 27.1697C1.90397 27.1093 1.79444 27.121 1.73408 27.1958Z" fill="#FF725E"/>
<path id="Vector_129" d="M12.1619 23.9289C12.1619 23.9518 11.3136 23.9693 10.2738 23.9693C9.23402 23.9693 8.38574 23.9518 8.38574 23.9289C8.38574 23.906 9.23267 23.8884 10.2738 23.8884C11.3149 23.8884 12.1619 23.9073 12.1619 23.9289Z" fill="#263238"/>
<path id="Vector_130" d="M1.69969 29.8613C1.67811 29.8856 1.3922 29.6671 1.03886 29.4014C0.685525 29.1357 0.398269 28.92 0.415801 28.893C0.433333 28.866 0.750259 29.0413 1.10764 29.3097C1.46503 29.5781 1.71991 29.8384 1.69969 29.8613Z" fill="#263238"/>
<path id="Vector_131" d="M2.0272 29.3827C2.00562 29.4069 1.71972 29.1885 1.36638 28.9228C1.01304 28.6571 0.724438 28.4413 0.74197 28.4144C0.759502 28.3874 1.07778 28.5627 1.43516 28.8324C1.79254 29.1021 2.04743 29.3597 2.0272 29.3827Z" fill="#263238"/>
<path id="Vector_132" d="M2.43221 28.976C2.41198 29.0003 2.12607 28.7818 1.77274 28.5162C1.4194 28.2505 1.13619 28.0347 1.14833 28.0077C1.16046 27.9808 1.48413 28.1561 1.84017 28.4258C2.1962 28.6955 2.45379 28.9531 2.43221 28.976Z" fill="#263238"/>
<path id="Vector_133" d="M2.82492 28.489C2.80469 28.5133 2.51744 28.2948 2.1641 28.0291C1.81076 27.7634 1.5235 27.5476 1.54238 27.5207C1.56127 27.4937 1.87819 27.669 2.23422 27.9387C2.59026 28.2085 2.84515 28.4661 2.82492 28.489Z" fill="#263238"/>
<path id="Vector_134" d="M19.7722 27.8028L18.1006 25.9817C18.0356 25.9109 17.9255 25.9062 17.8547 25.9712L16.8493 26.8941C16.7785 26.9591 16.7738 27.0691 16.8388 27.1399L18.5105 28.961C18.5754 29.0318 18.6855 29.0365 18.7563 28.9715L19.7617 28.0486C19.8325 27.9836 19.8372 27.8736 19.7722 27.8028Z" fill="#FF725E"/>
<path id="Vector_135" d="M17.1413 27.3779C17.121 27.3537 17.3786 27.1082 17.6942 26.7926C18.0098 26.4771 18.2647 26.2303 18.2889 26.2532C18.3132 26.2761 18.0934 26.5634 17.7738 26.8762C17.4541 27.1891 17.1601 27.4009 17.1413 27.3779Z" fill="#263238"/>
<path id="Vector_136" d="M17.5691 27.7717C17.5476 27.7475 17.8065 27.502 18.1207 27.1864C18.4349 26.8709 18.6925 26.6241 18.7168 26.647C18.7411 26.6699 18.5199 26.9572 18.2016 27.27C17.8834 27.5829 17.588 27.7947 17.5691 27.7717Z" fill="#263238"/>
<path id="Vector_137" d="M17.9119 28.2334C17.8903 28.2091 18.1493 27.9637 18.4635 27.6481C18.7777 27.3325 19.0353 27.0857 19.0596 27.1087C19.0839 27.1316 18.8627 27.4175 18.5431 27.7304C18.2234 28.0432 17.9308 28.2563 17.9119 28.2334Z" fill="#263238"/>
<path id="Vector_138" d="M18.3313 28.6951C18.3098 28.6708 18.5687 28.4253 18.8829 28.1098C19.1972 27.7942 19.4547 27.5474 19.479 27.5703C19.5033 27.5933 19.2821 27.8805 18.9625 28.1934C18.6429 28.5063 18.3502 28.714 18.3313 28.6951Z" fill="#263238"/>
<path id="Vector_139" d="M8.79834 23.931C8.76732 23.931 8.7417 23.5803 8.7417 23.1501C8.7417 22.7199 8.76732 22.3679 8.79834 22.3679C8.82936 22.3679 8.85633 22.7186 8.85633 23.1501C8.85633 23.5817 8.83071 23.931 8.79834 23.931Z" fill="#263238"/>
<path id="Vector_140" d="M9.53906 23.931C9.50805 23.931 9.48242 23.5803 9.48242 23.1501C9.48242 22.7199 9.50805 22.3679 9.53906 22.3679C9.57008 22.3679 9.59571 22.7186 9.59571 23.1501C9.59571 23.5817 9.57008 23.931 9.53906 23.931Z" fill="#263238"/>
<path id="Vector_141" d="M10.2847 23.931C10.2537 23.931 10.228 23.5803 10.228 23.1501C10.228 22.7199 10.2537 22.3679 10.2847 22.3679C10.3157 22.3679 10.3413 22.7186 10.3413 23.1501C10.3413 23.5817 10.317 23.931 10.2847 23.931Z" fill="#263238"/>
<path id="Vector_142" d="M11.0259 23.931C10.9935 23.931 10.9692 23.5803 10.9692 23.1501C10.9692 22.7199 10.9935 22.3679 11.0259 22.3679C11.0582 22.3679 11.0825 22.7186 11.0825 23.1501C11.0825 23.5817 11.0569 23.931 11.0259 23.931Z" fill="#263238"/>
<path id="Vector_143" d="M11.7671 23.931C11.7361 23.931 11.7104 23.5803 11.7104 23.1501C11.7104 22.7199 11.7361 22.3679 11.7671 22.3679C11.7981 22.3679 11.8237 22.7186 11.8237 23.1501C11.8237 23.5817 11.7927 23.931 11.7671 23.931Z" fill="#263238"/>
<path id="Vector_144" d="M10.7229 35.7312C11.1095 35.3446 11.1095 34.7179 10.7229 34.3313C10.3363 33.9447 9.70958 33.9447 9.323 34.3313C8.93643 34.7179 8.93643 35.3446 9.323 35.7312C9.70958 36.1178 10.3363 36.1178 10.7229 35.7312Z" fill="#FF725E"/>
<path id="Vector_145" d="M11.0151 35.0347C11.0057 35.0347 11.007 34.9471 10.9652 34.7974C10.9052 34.5885 10.7776 34.4054 10.6024 34.2768C10.462 34.1725 10.2953 34.1093 10.121 34.0942C9.94674 34.0791 9.77169 34.1128 9.61542 34.1914C9.45914 34.27 9.32777 34.3905 9.23598 34.5394C9.14419 34.6883 9.09558 34.8598 9.09558 35.0347C9.09558 35.2097 9.14419 35.3812 9.23598 35.5301C9.32777 35.679 9.45914 35.7995 9.61542 35.8781C9.77169 35.9567 9.94674 35.9904 10.121 35.9753C10.2953 35.9602 10.462 35.897 10.6024 35.7927C10.7773 35.6638 10.9049 35.4808 10.9652 35.2721C11.007 35.1224 11.0057 35.0347 11.0151 35.0347C11.0245 35.0347 11.0151 35.0563 11.0151 35.0981C11.0172 35.1598 11.0109 35.2216 10.9962 35.2815C10.9478 35.5067 10.8218 35.7077 10.6402 35.8493C10.5045 35.9558 10.3441 36.0263 10.1738 36.0541C10.0035 36.082 9.82902 36.0662 9.66648 36.0085C9.46525 35.9371 9.29105 35.8052 9.16786 35.6309C9.04466 35.4565 8.97852 35.2482 8.97852 35.0347C8.97852 34.8213 9.04466 34.613 9.16786 34.4386C9.29105 34.2643 9.46525 34.1324 9.66648 34.061C9.82897 34.0034 10.0034 33.9877 10.1735 34.0153C10.3437 34.0429 10.5042 34.1129 10.6402 34.2188C10.8217 34.3611 10.9477 34.5625 10.9962 34.788C11.0109 34.8479 11.0172 34.9097 11.0151 34.9714C11.0218 35.0105 11.0191 35.0347 11.0151 35.0347Z" fill="#263238"/>
</g>
</g>
</svg>
