<svg width="68" height="88" viewBox="0 0 68 88" fill="none" xmlns="http://www.w3.org/2000/svg">
<g id="Group 1000003951">
<g id="Character">
<path id="Vector" d="M46.4018 32.4449C48.1544 31.5838 49.2213 29.7448 49.8309 27.8906C50.4405 26.0363 50.6996 24.0805 51.3829 22.2465C51.8909 20.8825 51.2482 18.7412 52.4446 17.9106C53.9382 16.8718 53.862 14.2047 53.2473 12.8864C52.5767 11.4513 50.8215 10.4124 50.692 9.95771C50.3567 8.7588 51.3752 7.41764 50.9612 6.25429C49.9807 3.49832 47.7277 3.91489 47.7277 3.91489C46.666 2.68804 45.2359 1.07002 42.9575 0.534069C40.4911 -0.0450655 36.8613 -0.433696 34.7073 0.902377C32.5534 2.23845 30.9684 3.13255 30.3181 5.58117" fill="#263238"/>
<path id="Vector_2" d="M48.2586 15.4498C48.0002 12.4624 46.6272 9.68173 44.4125 7.66041C42.1977 5.6391 39.3034 4.52521 36.305 4.54019H35.6878C29.0277 4.96692 25.6698 10.8599 26.2895 17.4945L26.5969 50.9344L43.1962 50.9065L42.7746 38.0944C42.7746 38.0944 49.1755 37.0657 49.2187 30.6622C49.239 27.5811 48.7564 21.2106 48.2586 15.4498Z" fill="#FFBE9D"/>
<path id="Vector_3" d="M45.4291 20.2605C45.432 20.499 45.3418 20.7292 45.1777 20.9023C45.0136 21.0754 44.7886 21.1777 44.5503 21.1876C44.4342 21.1976 44.3173 21.1843 44.2064 21.1484C44.0956 21.1124 43.9931 21.0546 43.905 20.9783C43.8169 20.9021 43.745 20.8089 43.6935 20.7044C43.642 20.5998 43.6121 20.486 43.6054 20.3697C43.6012 20.1314 43.6901 19.9009 43.8533 19.7273C44.0165 19.5537 44.2411 19.4506 44.4791 19.44C44.5956 19.4303 44.7129 19.444 44.824 19.4802C44.9352 19.5163 45.038 19.5743 45.1265 19.6507C45.2149 19.7271 45.2873 19.8204 45.3392 19.9251C45.3912 20.0298 45.4218 20.1438 45.4291 20.2605Z" fill="#263238"/>
<path id="Vector_4" d="M46.9936 18.2517C46.8818 18.3711 46.1858 17.8631 45.2003 17.8707C44.2147 17.8784 43.4984 18.3788 43.3918 18.2543C43.3384 18.2009 43.4527 17.985 43.7651 17.7463C44.1895 17.4494 44.6951 17.2906 45.213 17.2916C45.7248 17.287 46.2247 17.4453 46.6405 17.7437C46.9529 17.9825 47.0494 18.1984 46.9936 18.2517Z" fill="#263238"/>
<path id="Vector_5" d="M36.1857 20.2607C36.1898 20.4991 36.1004 20.7297 35.9366 20.903C35.7728 21.0763 35.5476 21.1785 35.3093 21.1878C35.1931 21.1979 35.0761 21.1845 34.9651 21.1486C34.8541 21.1127 34.7514 21.0549 34.6631 20.9787C34.5748 20.9025 34.5027 20.8093 34.4509 20.7048C34.3992 20.6002 34.3689 20.4863 34.3619 20.3699C34.359 20.1316 34.4487 19.9015 34.6122 19.728C34.7757 19.5546 35.0001 19.4514 35.2382 19.4402C35.3546 19.4302 35.4719 19.4436 35.583 19.4797C35.6942 19.5158 35.797 19.5738 35.8853 19.6503C35.9736 19.7267 36.0457 19.8202 36.0973 19.925C36.1489 20.0299 36.179 20.144 36.1857 20.2607Z" fill="#263238"/>
<path id="Vector_6" d="M37.1867 18.0279C37.0876 18.1574 36.3408 17.7281 35.3629 17.8424C34.385 17.9567 33.7271 18.5282 33.6052 18.4216C33.5493 18.3733 33.6382 18.1472 33.9252 17.8831C34.3146 17.5418 34.7998 17.3289 35.3146 17.2735C35.8229 17.2135 36.337 17.3167 36.7828 17.5681C37.1079 17.7662 37.2349 17.9669 37.1867 18.0279Z" fill="#263238"/>
<path id="Vector_7" d="M40.8393 26.1027C40.8393 26.0468 41.4464 25.9376 42.437 25.8055C42.691 25.7776 42.9247 25.7268 42.9653 25.5515C43.006 25.3763 42.9171 25.0994 42.7952 24.8073C42.5539 24.2002 42.3049 23.5652 42.0331 22.8997C40.9866 20.1793 40.2272 17.944 40.3364 17.9034C40.4456 17.8628 41.3854 20.032 42.4319 22.7498L43.1533 24.6701C43.2498 24.9572 43.4073 25.2797 43.2905 25.6557C43.2542 25.7445 43.1984 25.8239 43.1271 25.8881C43.0559 25.9523 42.971 25.9996 42.879 26.0265C42.74 26.0655 42.5966 26.086 42.4522 26.0875C41.4616 26.1484 40.8571 26.1586 40.8393 26.1027Z" fill="#263238"/>
<path id="Vector_8" d="M37.1358 14.0297C37.0241 14.2837 36.0512 14.1059 34.8904 14.177C33.7296 14.2481 32.7796 14.5072 32.6399 14.2583C32.5789 14.1389 32.7567 13.8976 33.1479 13.6614C33.6678 13.3738 34.2465 13.2087 34.8399 13.1788C35.4333 13.1488 36.0257 13.2548 36.5719 13.4887C36.986 13.6842 37.1866 13.9052 37.1358 14.0297Z" fill="#263238"/>
<path id="Vector_9" d="M46.5237 15.7415C46.351 15.9651 45.6702 15.7415 44.8574 15.7415C44.0446 15.7415 43.3512 15.899 43.1911 15.6653C43.1226 15.5536 43.2292 15.3301 43.529 15.1167C43.933 14.8611 44.4039 14.7313 44.8818 14.7435C45.3597 14.7557 45.8233 14.9094 46.2138 15.1853C46.5034 15.4012 46.5974 15.6323 46.5237 15.7415Z" fill="#263238"/>
<path id="Vector_10" d="M30.7831 5.11415C30.7959 5.82627 30.9656 6.52681 31.28 7.16586C31.5945 7.80492 32.046 8.36676 32.6025 8.81136C33.1589 9.25597 33.8065 9.5724 34.4992 9.73811C35.1919 9.90383 35.9126 9.91474 36.61 9.77009C37.687 9.54656 38.8605 8.97505 39.8105 9.52878C40.8087 10.113 40.8849 11.5989 41.7739 12.3381C43.044 13.3922 45.01 12.3381 46.6001 12.7648C47.832 13.1001 48.6321 14.2533 49.4602 15.2211C50.2882 16.1888 51.5329 17.0956 52.7623 16.7045C52.702 15.6011 52.5144 14.5084 52.2035 13.4481C51.8529 12.4016 51.2255 11.416 50.2882 10.8293C49.7802 10.5092 49.1808 10.3213 48.7007 9.95297C47.6669 9.15539 47.4002 7.73296 46.7449 6.60009C46.3154 5.87212 45.7185 5.25708 45.0038 4.80604C44.289 4.355 43.4769 4.08096 42.635 4.00668C41.2405 3.89746 39.813 4.34705 38.4465 4.03462C37.4304 3.80602 36.544 3.17354 35.5229 3.00336C33.534 2.67061 31.7128 4.13369 30.3208 5.58152" fill="#263238"/>
<path id="Vector_11" d="M37.1865 7.78859C36.2924 7.5549 34.4636 7.02657 33.9683 6.26455C32.8964 4.61351 31.0472 3.51366 29.1853 3.6559C28.222 3.75345 27.3162 4.16025 26.6033 4.81545C25.8904 5.47065 25.4088 6.33904 25.2305 7.29074C22.9774 7.35678 20.8082 8.81477 19.7744 10.9789C19.267 12.0784 19.0344 13.2848 19.0968 14.4941C19.1592 15.7034 19.5147 16.8795 20.1325 17.9209C20.4602 18.4518 20.8717 18.9801 20.8946 19.6151C20.9225 20.4051 20.3535 21.0426 19.9573 21.7031C18.8752 23.5065 19.0149 25.9475 19.9268 27.8627C20.8387 29.7779 21.4635 30.446 22.7209 30.8066C25.1543 31.5102 22.8606 36.4253 26.8815 36.3364L27.3539 21.919C27.4747 21.9788 27.6028 22.0224 27.735 22.0485C30.1277 22.5337 30.336 17.8777 29.767 16.5594C30.6103 15.7771 31.4638 14.982 32.0988 13.994C32.7338 13.0059 33.252 10.3464 33.0869 9.16784C33.953 9.18054 37.5802 7.89273 37.1865 7.78859Z" fill="#263238"/>
<path id="Vector_12" d="M27.6918 21.9981C27.5826 21.9499 23.2848 20.7281 23.4474 25.097C23.6099 29.4659 27.9738 28.3991 27.9763 28.2797C27.9788 28.1603 27.6918 21.9981 27.6918 21.9981Z" fill="#FFBE9D"/>
<path id="Vector_13" d="M26.5767 26.672C26.5564 26.6593 26.503 26.7279 26.376 26.7914C26.1982 26.8772 25.9936 26.8891 25.807 26.8244C25.3371 26.672 24.9206 25.9532 24.8698 25.1658C24.8453 24.7909 24.9043 24.4152 25.0425 24.0659C25.0785 23.9277 25.1474 23.8003 25.2434 23.6946C25.3394 23.5889 25.4596 23.508 25.5937 23.4588C25.6804 23.4327 25.7736 23.4376 25.8571 23.4729C25.9406 23.5081 26.0091 23.5714 26.0509 23.6519C26.1144 23.7713 26.0915 23.8602 26.1144 23.8678C26.1373 23.8754 26.2058 23.789 26.1626 23.6138C26.1345 23.5056 26.0699 23.4105 25.9798 23.3445C25.9188 23.3016 25.8499 23.2712 25.7771 23.255C25.7043 23.2389 25.629 23.2374 25.5556 23.2506C25.3789 23.2936 25.2162 23.381 25.0828 23.5046C24.9494 23.6282 24.8499 23.7838 24.7936 23.9567C24.6213 24.3434 24.5463 24.7663 24.5751 25.1886C24.6361 26.0675 25.1187 26.8778 25.7588 27.0352C25.8776 27.065 26.0017 27.0676 26.1217 27.043C26.2417 27.0184 26.3547 26.9671 26.4522 26.893C26.5716 26.7787 26.5919 26.6796 26.5767 26.672Z" fill="#EB996E"/>
<path id="Vector_14" d="M20.5848 29.1409C20.8608 29.4236 21.0718 29.7631 21.203 30.1358C21.3342 30.5085 21.3825 30.9053 21.3445 31.2985C21.3065 31.6918 21.1832 32.072 20.9831 32.4127C20.783 32.7534 20.511 33.0463 20.186 33.271C20.3691 33.4281 20.5821 33.5467 20.8121 33.6196C21.0421 33.6925 21.2845 33.7182 21.5246 33.6952C21.7075 34.2438 20.9404 34.6375 20.7957 35.1964C20.7634 35.3672 20.7768 35.5436 20.8343 35.7076C20.8918 35.8717 20.9915 36.0178 21.1233 36.1311C21.3893 36.3547 21.7003 36.5185 22.0352 36.6112C23.018 36.9404 24.0468 37.1119 25.0833 37.1192C25.6853 37.1192 26.3533 37.0379 26.7369 36.5705C27.0493 36.1819 27.0671 35.6383 27.0721 35.1379C27.0721 33.8933 27.0806 32.6487 27.0975 31.404C27.137 31.036 27.0607 30.6649 26.8791 30.3423C26.6251 30.0019 26.1882 29.8851 25.7793 29.7911L20.4451 28.5566" fill="#263238"/>
<path id="Vector_15" d="M42.7645 38.1073C42.7645 38.1073 36.9223 37.3452 33.4602 34.8306C33.4602 34.8306 35.3729 40.1291 42.8026 40.1139L42.7645 38.1073Z" fill="#EB996E"/>
<path id="Vector_16" d="M37.527 26.5828C37.687 26.5625 37.7632 27.6293 38.731 28.3253C39.6987 29.0213 40.8265 28.8206 40.8469 28.9705C40.8672 29.0365 40.6081 29.194 40.128 29.2423C39.5049 29.2984 38.8819 29.1338 38.3678 28.7774C37.876 28.429 37.5383 27.9038 37.4254 27.3118C37.3543 26.8546 37.4533 26.5828 37.527 26.5828Z" fill="#263238"/>
<path id="Vector_17" d="M21.6362 19.8136C21.5823 19.7828 21.532 19.7462 21.4863 19.7043C21.3558 19.5823 21.246 19.4399 21.1612 19.2827C21.0197 18.9846 20.9438 18.6596 20.9385 18.3297C20.9333 17.9997 20.9988 17.6725 21.1307 17.37C21.3145 16.9532 21.5856 16.5808 21.9257 16.2778C22.3132 15.9325 22.7394 15.6333 23.1958 15.3862C23.6682 15.117 24.1788 14.8782 24.6842 14.5709C25.2115 14.2816 25.6835 13.9015 26.0787 13.4482C26.4486 12.9725 26.7401 12.4409 26.9423 11.8733C27.1557 11.3272 27.3259 10.7836 27.5342 10.2782C27.7199 9.79443 27.9675 9.33679 28.2708 8.91668C28.538 8.54878 28.8855 8.2465 29.2868 8.03274C29.5804 7.88058 29.9042 7.7959 30.2347 7.78492C30.5652 7.77393 30.8939 7.83691 31.197 7.96924C31.3563 8.04888 31.5006 8.15544 31.6237 8.28421C31.6674 8.32899 31.705 8.37939 31.7354 8.43407C31.5788 8.2583 31.3877 8.11652 31.1741 8.0175C30.8783 7.89765 30.5597 7.8444 30.241 7.86152C29.9223 7.87864 29.6113 7.96572 29.33 8.11656C28.9435 8.32778 28.61 8.62394 28.3546 8.98273C28.0593 9.39681 27.8194 9.84767 27.6409 10.3239C27.4402 10.8319 27.2726 11.3678 27.0592 11.919C26.8545 12.5029 26.556 13.0494 26.1752 13.5371C25.7706 14.0024 25.2863 14.392 24.7452 14.6877C24.2372 14.9874 23.7292 15.2338 23.2491 15.498C22.8008 15.738 22.3815 16.0287 21.9994 16.3642C21.6672 16.6545 21.4006 17.012 21.217 17.4132C21.0879 17.7048 21.0212 18.0201 21.0212 18.3391C21.0212 18.658 21.0879 18.9733 21.217 19.2649C21.3215 19.4722 21.4636 19.6583 21.6362 19.8136Z" fill="#455A64"/>
<path id="Vector_18" d="M49.0027 18.3785C49.0027 18.3785 49.018 18.3556 49.0561 18.3149L49.2186 18.1397C49.4203 17.9109 49.6077 17.67 49.78 17.4183C50.4065 16.4822 50.7794 15.3996 50.862 14.2762C50.9121 13.5031 50.8156 12.7275 50.5776 11.9902C50.3055 11.1465 49.8618 10.3682 49.2745 9.70413C48.9519 9.34848 48.5945 9.02598 48.2077 8.74145C47.7954 8.44522 47.4103 8.11285 47.057 7.74829C46.7101 7.34578 46.446 6.87881 46.2798 6.37411C46.1197 5.86739 45.8869 5.38655 45.5889 4.94659C45.4264 4.74174 45.2186 4.5774 44.9818 4.46652C44.7461 4.36079 44.4908 4.30542 44.2325 4.30396C43.7178 4.31772 43.2114 4.43612 42.744 4.65195C42.2766 4.85261 41.8321 5.10154 41.3724 5.2895C40.9238 5.49578 40.4361 5.6032 39.9423 5.60447C39.4728 5.57276 39.0175 5.42999 38.6139 5.1879C38.2443 4.96821 37.8558 4.78204 37.4531 4.63163C36.7144 4.40051 35.9209 4.41298 35.1899 4.66719C34.5902 4.87605 34.0618 5.2503 33.6658 5.74671C33.364 6.12269 33.1388 6.55416 33.0029 7.01675C32.9167 7.30913 32.868 7.61127 32.8581 7.91593C32.8581 8.12675 32.8581 8.23598 32.8581 8.23598C32.8425 8.13003 32.8357 8.02299 32.8378 7.91593C32.8352 7.60774 32.8762 7.30073 32.9597 7.00404C33.0877 6.5303 33.3097 6.08715 33.6125 5.70099C34.0152 5.18579 34.5574 4.79701 35.1746 4.58083C35.9242 4.31276 36.7403 4.29405 37.5013 4.52748C37.9116 4.67736 38.3077 4.86352 38.685 5.08376C39.0709 5.31517 39.5061 5.45183 39.955 5.48255C40.4307 5.47824 40.9001 5.3726 41.3317 5.17266C41.7839 4.9847 42.2233 4.73831 42.7008 4.53256C43.1838 4.30821 43.7077 4.18544 44.2401 4.17188C44.5175 4.17389 44.7915 4.23267 45.0453 4.3446C45.3001 4.46558 45.5235 4.64379 45.6981 4.86531C46.007 5.31376 46.2468 5.80611 46.4093 6.32585C46.5732 6.81689 46.8321 7.27088 47.1713 7.66192C47.5192 8.02163 47.8983 8.34974 48.3042 8.64239C48.6953 8.9321 49.0561 9.26059 49.3812 9.62285C49.98 10.3005 50.4292 11.0968 50.6995 11.9597C50.9383 12.7098 51.0306 13.4989 50.9713 14.2839C50.9227 14.9293 50.7744 15.5634 50.5318 16.1635C50.3521 16.6125 50.1202 17.0388 49.8409 17.4335C49.6041 17.7839 49.3223 18.1016 49.0027 18.3785Z" fill="#455A64"/>
<path id="Vector_19" d="M0.815186 65.7892C0.815186 65.7892 7.81052 45.4432 9.07039 44.4983C13.1701 41.4249 26.3784 39.0474 26.3784 39.0474C26.3784 39.0474 29.6983 47.8106 35.8046 47.7471C41.9566 47.6836 43.9328 41.1023 43.9328 41.1023C43.9328 41.1023 52.6731 40.7441 56.2241 42.446C57.644 43.1267 67.027 61.6438 67.027 61.6438L56.7525 65.7739L59.6202 86.7447L8.01881 86.7675L8.50904 65.9695L0.815186 65.7892Z" fill="#455A64"/>
<path id="Vector_20" d="M13.1931 50.0811C13.1677 50.1065 12.2838 49.2912 11.222 48.2599C10.1603 47.2287 9.31696 46.3727 9.34236 46.3473C9.36776 46.3219 10.2492 47.1347 11.3134 48.1659C11.9718 48.7723 12.5992 49.4115 13.1931 50.0811Z" fill="#263238"/>
<path id="Vector_21" d="M27.6486 41.7827C27.6486 41.8183 27.3387 41.9224 26.9805 42.1231C26.7734 42.2625 26.5589 42.3905 26.3379 42.5067C26.4777 42.2848 26.6789 42.1083 26.917 41.9986C27.1343 41.8562 27.3888 41.7811 27.6486 41.7827Z" fill="#263238"/>
<path id="Vector_22" d="M28.3547 45.4047C28.3566 45.154 28.4569 44.914 28.6341 44.7367C28.7051 44.6351 28.7955 44.5487 28.9002 44.4824C29.0048 44.4162 29.1216 44.3713 29.2438 44.3506C29.2615 44.3861 28.9771 44.5309 28.7357 44.823C28.4944 45.1151 28.3928 45.4149 28.3547 45.4047Z" fill="#263238"/>
<path id="Vector_23" d="M30.1099 47.1604C30.1656 46.9398 30.2649 46.7325 30.402 46.5508C30.5035 46.3466 30.6422 46.1632 30.8109 46.0098C30.6541 46.4352 30.416 46.826 30.1099 47.1604Z" fill="#263238"/>
<path id="Vector_24" d="M33.3817 48.5899C33.3532 48.1997 33.4131 47.8082 33.5569 47.4443C33.592 47.6384 33.5842 47.8378 33.5341 48.0286C33.4909 48.3359 33.4198 48.5899 33.3817 48.5899Z" fill="#263238"/>
<path id="Vector_25" d="M36.3736 49.0978C36.3355 49.0978 36.3127 48.7472 36.2035 48.3357C36.0942 47.9243 35.9494 47.6042 35.9774 47.5737C36.1429 47.7878 36.2634 48.0333 36.3315 48.2952C36.3996 48.5571 36.4139 48.8301 36.3736 49.0978Z" fill="#263238"/>
<path id="Vector_26" d="M39.7339 48.5895C39.6958 48.5895 39.6349 48.2034 39.4799 47.7462C39.3704 47.474 39.2763 47.1959 39.198 46.9131C39.3953 47.141 39.5355 47.4127 39.6069 47.7056C39.7207 47.9855 39.7643 48.2889 39.7339 48.5895Z" fill="#263238"/>
<path id="Vector_27" d="M42.2057 46.8116C42.165 46.8116 42.1066 46.4205 41.8602 46.0064C41.6139 45.5924 41.2963 45.346 41.3217 45.313C41.605 45.4408 41.8356 45.6624 41.9745 45.9404C42.1504 46.1952 42.2321 46.5032 42.2057 46.8116Z" fill="#263238"/>
<path id="Vector_28" d="M21.7227 43.6294C21.7423 43.6481 21.7601 43.6685 21.7761 43.6904L21.9361 43.8859L22.5483 44.648C23.0842 45.3287 23.8386 46.2812 24.7403 47.4217L24.7683 47.4573L24.7378 47.4928L21.6897 51.2775L21.6389 51.341L21.5856 51.2775L21.5602 51.2445L18.5553 47.4903L18.5273 47.4547L18.5553 47.4192L20.8413 44.6505L21.4814 43.8885L21.6491 43.6929C21.6664 43.6706 21.686 43.6502 21.7075 43.6319C21.6897 43.6594 21.6702 43.6857 21.6491 43.7107L21.484 43.924L20.8566 44.7165C20.313 45.3998 19.5485 46.3523 18.6366 47.4928V47.4217L21.6567 51.1658L21.6821 51.1962H21.578L24.626 47.4243V47.4954L22.5076 44.7165C22.2536 44.3838 22.058 44.1171 21.9107 43.924L21.7532 43.7107C21.7412 43.6843 21.731 43.6572 21.7227 43.6294Z" fill="#FAFAFA"/>
<path id="Vector_29" d="M15.8096 41.5542C15.7709 41.633 15.7223 41.7064 15.6648 41.7727C15.5657 41.9098 15.4108 42.1054 15.2304 42.3442C14.8596 42.8242 14.3414 43.4796 13.7597 44.1984L13.1501 44.9604L13.0993 45.0214L13.0511 44.9604C12.6218 44.4194 12.256 43.9444 12.002 43.6167C11.8585 43.4436 11.7277 43.2602 11.6108 43.0681C11.7768 43.2232 11.9282 43.3932 12.063 43.5761C12.3348 43.8987 12.7132 44.3559 13.1501 44.8893H13.0511L13.6581 44.1273C14.2373 43.4085 14.7681 42.7633 15.1593 42.2984C15.3524 42.0673 15.5124 41.8819 15.6241 41.7549C15.7359 41.6279 15.8019 41.5466 15.8096 41.5542Z" fill="#FAFAFA"/>
<path id="Vector_30" d="M3.07593 59.1974C3.1311 59.2474 3.18129 59.3027 3.22579 59.3625L3.62458 59.8501L5.0267 61.6104H4.93779L7.00287 59.0373L7.98079 57.8283V57.907C7.14257 56.8097 6.40849 55.8546 5.87254 55.1536C5.61853 54.8208 5.42041 54.5465 5.26546 54.3433C5.18986 54.2475 5.12111 54.1465 5.05972 54.041C5.14846 54.1248 5.22924 54.2166 5.30102 54.3153L5.93858 55.1028L8.09001 57.8257L8.12303 57.8664L8.09001 57.907C7.78266 58.2905 7.45246 58.697 7.11463 59.1161L5.03686 61.679L4.99114 61.7349L4.94796 61.679L3.58394 59.9009L3.21055 59.3929C3.158 59.3334 3.1128 59.2677 3.07593 59.1974Z" fill="#FAFAFA"/>
<path id="Vector_31" d="M23.3076 64.125C23.3299 64.1413 23.3504 64.1601 23.3685 64.1809L23.5489 64.3587L24.2347 65.0547C24.8418 65.6744 25.6902 66.5431 26.7036 67.5947L26.7341 67.6252L26.7113 67.6633L24.0925 71.735L24.0467 71.8036L23.9909 71.7452L23.9604 71.7172L20.5821 68.2958L20.5491 68.2628L20.5745 68.2221L22.5659 65.2299C22.8021 64.8845 22.9875 64.6076 23.1247 64.4044L23.2695 64.1936C23.2843 64.1692 23.3013 64.1463 23.3203 64.125C23.3065 64.155 23.2903 64.1839 23.272 64.2114L23.1298 64.44L22.5684 65.2934L20.6507 68.2856V68.2145L24.0417 71.6233L24.0696 71.6512H23.968L26.6147 67.5871V67.6582C25.6292 66.6117 24.8062 65.7379 24.2169 65.1182L23.5413 64.3917L23.3635 64.1961L23.3076 64.125Z" fill="#FAFAFA"/>
<path id="Vector_32" d="M14.8745 62.8267C14.9452 62.8728 15.0101 62.9274 15.0676 62.9893L15.5756 63.4744H15.5171C15.9998 62.6972 16.8075 61.4297 17.7321 60.0021L18.1334 59.3849V59.4637C17.2825 58.5746 16.5383 57.7872 16.0074 57.2157L15.3876 56.5426C15.3087 56.4647 15.2373 56.3797 15.1742 56.2886C15.2665 56.3539 15.3517 56.4289 15.4282 56.5121L16.0785 57.1598C16.6246 57.7135 17.3816 58.4908 18.235 59.3773L18.2706 59.4128L18.2426 59.4586L17.8413 60.0758C16.9193 61.5033 16.0912 62.7607 15.5806 63.5176L15.5552 63.5582L15.5222 63.5252L15.0295 63.0172C14.9715 62.9591 14.9196 62.8953 14.8745 62.8267Z" fill="#FAFAFA"/>
<path id="Vector_33" d="M33.2623 72.8652C33.2846 72.8815 33.305 72.9003 33.3232 72.9211L33.501 73.0989L34.1894 73.7949L36.6583 76.3223L36.6888 76.3553L36.6634 76.3934C35.9014 77.5821 34.9971 78.9817 34.0319 80.4727L33.9887 80.5438L33.9303 80.4854L33.9024 80.4549L30.5215 77.0386L30.4885 77.003L30.5139 76.9649L32.5079 73.9727L33.0642 73.1472L33.2115 72.9338C33.2266 72.9104 33.2436 72.8884 33.2623 72.8678L33.214 72.9516L33.0692 73.1827L32.5307 74.0362L30.6105 77.0386V76.9674L33.9989 80.3635L34.0268 80.3914H33.9252C34.893 78.903 35.7998 77.5059 36.572 76.3273V76.3959L34.1767 73.8559L33.501 73.1294L33.3207 72.9338C33.2996 72.9124 33.2801 72.8894 33.2623 72.8652Z" fill="#FAFAFA"/>
<path id="Vector_34" d="M44.7508 61.3818C44.7732 61.3981 44.7936 61.4169 44.8118 61.4377L44.9922 61.6155L45.6831 62.3064L48.152 64.8465L48.1825 64.877L48.1596 64.9151L45.5281 68.997L45.4824 69.0655L45.424 69.0071L45.396 68.9792C44.1616 67.7269 43.0033 66.5559 42.0152 65.5577L41.9822 65.5247L42.0101 65.484L44.0015 62.4919C44.2352 62.1464 44.4232 61.8695 44.5578 61.6663L44.7051 61.4555C44.72 61.4312 44.737 61.4082 44.7559 61.3869C44.7421 61.4169 44.726 61.4458 44.7077 61.4733C44.6696 61.5342 44.6213 61.6079 44.5654 61.7019L44.0193 62.5604L42.099 65.5526V65.4815L45.49 68.8903L45.518 68.9182H45.4163C46.3841 67.4297 47.2909 66.0327 48.0631 64.8541V64.9252C47.0801 63.8787 46.2571 63.0049 45.6678 62.3852L44.9922 61.6587L44.8118 61.4631C44.7894 61.4377 44.769 61.4105 44.7508 61.3818Z" fill="#FAFAFA"/>
<path id="Vector_35" d="M54.6853 45.0337C54.7076 45.05 54.728 45.0687 54.7462 45.0896L54.9266 45.2674L55.6124 45.9634C56.2195 46.5831 57.0679 47.4518 58.0813 48.5034L58.1144 48.5339L58.089 48.572L55.4575 52.6539L55.4143 52.7225L55.3558 52.664L55.3279 52.6361L51.9471 49.2146L51.9141 49.1816L51.9395 49.141L53.9334 46.1488L54.4897 45.3233L54.6345 45.1124L54.6853 45.0439C54.6727 45.0745 54.6565 45.1035 54.637 45.1302L54.4948 45.3588L53.9537 46.2123L52.0334 49.1994V49.1283L55.427 52.537L55.4549 52.565H55.3508C56.3211 51.0765 57.2279 49.6795 57.9975 48.5009V48.572L55.6022 46.0319L54.9266 45.3055L54.7462 45.1099L54.6853 45.0337Z" fill="#FAFAFA"/>
<path id="Vector_36" d="M66.3109 60.2466C66.2792 60.3121 66.2409 60.3743 66.1966 60.432L65.841 60.94C65.5184 61.3845 65.0789 61.9865 64.5557 62.7003L64.5227 62.7434L64.4769 62.7155L62.0944 61.222L61.345 60.747L61.2866 60.7114L61.3247 60.6555L63.2653 57.7268C63.5041 57.3738 63.7022 57.0842 63.8521 56.8657C63.9182 56.7584 63.9938 56.6572 64.0782 56.5635C64.0232 56.6769 63.9604 56.7864 63.8902 56.8911C63.7505 57.1172 63.5651 57.4119 63.339 57.7725C62.8488 58.5346 62.1833 59.5633 61.4339 60.7292L61.4136 60.6377L62.1756 61.1102L64.5506 62.6164L64.4719 62.6317L65.7978 60.8994L66.1762 60.4193C66.2139 60.3565 66.2591 60.2985 66.3109 60.2466Z" fill="#FAFAFA"/>
<path id="Vector_37" d="M34.7761 51.4199L34.8371 51.4758L35.0174 51.6536L35.7032 52.3496C36.3103 52.9694 37.1587 53.8381 38.1722 54.8896L38.2052 54.9201L38.1798 54.9608C37.4178 56.147 36.511 57.5466 35.5483 59.0401L35.5051 59.1087L35.4467 59.0503L35.4187 59.0223L32.0379 55.6009L32.0049 55.5678L32.0303 55.5297L34.0242 52.535L34.5805 51.7095L34.7253 51.4987L34.7761 51.4301C34.7642 51.461 34.7479 51.4901 34.7278 51.5164L34.5856 51.745L34.0446 52.5985C33.5746 53.3351 32.9142 54.3613 32.1268 55.5907V55.5196L35.5229 58.9182L35.5508 58.9461L35.4467 58.9588L38.0934 54.8947V54.9658L35.6981 52.4258L35.0149 51.6892L34.8345 51.4936L34.7761 51.4199Z" fill="#FAFAFA"/>
<g id="Group" opacity="0.3">
<path id="Vector_38" d="M15.2327 56.6421C14.745 62.6468 14.3462 68.5118 13.7239 74.5191L14.0668 74.5749C15.9795 68.8725 15.7864 62.6316 15.2327 56.6421Z" fill="black"/>
</g>
<path id="Vector_39" d="M15.3116 54.3994C15.3472 54.3994 15.1821 57.5135 14.9408 61.349C14.6995 65.1845 14.4734 68.2961 14.4328 68.2936C14.3921 68.291 14.5623 65.1795 14.8036 61.3414C15.0449 57.5034 15.2735 54.3969 15.3116 54.3994Z" fill="#263238"/>
<g id="Group_2" opacity="0.3">
<path id="Vector_40" d="M50.5322 67.3305C49.1682 60.8152 47.2809 54.4269 45.3911 48.0463C45.1016 47.0633 44.8018 46.0625 44.2379 45.2065C43.674 44.3505 42.7952 43.6418 41.7766 43.5352L41.8503 44.8484C43.6283 50.4365 44.116 56.3472 45.2438 62.1208C46.3716 67.8944 48.2614 73.7238 52.2798 78.0013C51.853 74.4164 51.2705 70.8595 50.5322 67.3305Z" fill="black"/>
</g>
<path id="Vector_41" d="M53.8823 77.277C52.686 77.277 45.6474 79.8373 45.6474 79.8373C45.6474 79.8373 22.7056 75.9815 13.7163 74.5032L14.5139 66.1388L2.80166 65.834L0.413995 75.7809L0.378435 75.913C-0.361637 78.6872 -0.00792014 81.6397 1.36652 84.1605C2.15394 85.583 3.42905 87.0562 4.71686 87.0562C11.6233 87.0562 47.8319 87.0816 47.8319 87.0816L53.6182 86.9953C54.8145 86.0631 54.017 86.7412 55.0812 86.8632C56.1455 86.9851 59.6102 86.7311 59.6102 86.7311C59.6102 86.7311 61.6067 86.5965 62.2747 85.5322C62.9427 84.4679 63.8724 81.8034 63.8724 81.402C63.8724 81.0007 55.0812 77.277 53.8823 77.277Z" fill="#FFBE9D"/>
<path id="Vector_42" d="M58.2869 83.0405C58.2261 83.0913 58.1596 83.1348 58.0887 83.1701C57.9567 83.2488 57.7662 83.358 57.5274 83.4927C57.0499 83.7467 56.3895 84.1175 55.6554 84.5087C55.303 84.6775 54.9634 84.8719 54.6393 85.0904C54.3781 85.2614 54.1954 85.529 54.1313 85.8346C54.0927 86.0405 54.1325 86.2535 54.2431 86.4315C54.2914 86.492 54.344 86.5488 54.4006 86.6017C54.4006 86.6017 54.3803 86.6017 54.3422 86.5788C54.2919 86.5456 54.2466 86.5054 54.2075 86.4595C54.1404 86.3694 54.0919 86.2668 54.0649 86.1578C54.0379 86.0488 54.0328 85.9354 54.05 85.8244C54.0685 85.6695 54.1224 85.5209 54.2075 85.3901C54.3047 85.2425 54.4258 85.112 54.5657 85.004C54.8881 84.7786 55.2278 84.579 55.5817 84.4071C56.3158 84.0134 56.9838 83.6654 57.4715 83.4165C57.7128 83.292 57.9109 83.1955 58.0507 83.1294C58.1246 83.0883 58.2042 83.0584 58.2869 83.0405Z" fill="#EB996E"/>
<path id="Vector_43" d="M59.821 83.8109C59.821 83.8261 59.7118 83.849 59.5366 83.8388C59.3038 83.8217 59.0776 83.7541 58.8736 83.6407C58.6679 83.5305 58.4892 83.3761 58.3503 83.1886C58.2845 83.1172 58.2389 83.0295 58.2183 82.9346C58.4253 83.169 58.6648 83.3726 58.9295 83.5391C59.2117 83.673 59.5121 83.7646 59.821 83.8109Z" fill="#EB996E"/>
<path id="Vector_44" d="M13.8764 74.4984C13.8764 74.5238 13.3684 74.5746 12.5886 74.7804C12.1289 74.9002 11.6782 75.0521 11.2398 75.235C10.7034 75.4601 10.1846 75.725 9.6878 76.0275C9.19691 76.3388 8.72917 76.6852 8.28823 77.0639C7.92777 77.38 7.58837 77.7194 7.2722 78.0799C6.73879 78.6946 6.47208 79.1239 6.44922 79.1086C6.49822 79.0006 6.55778 78.8976 6.62703 78.8013C6.69978 78.6822 6.77863 78.5668 6.86325 78.4558C6.95977 78.3263 7.06646 78.1739 7.20108 78.0189C7.50672 77.6484 7.83954 77.3011 8.19678 76.9801C9.07665 76.193 10.0876 75.5663 11.1839 75.1284C11.6296 74.95 12.0881 74.8057 12.5555 74.6965C12.7537 74.6432 12.9365 74.6178 13.0966 74.5873C13.2566 74.5568 13.3963 74.5391 13.5106 74.5289C13.6311 74.5061 13.7537 74.4959 13.8764 74.4984Z" fill="#EB996E"/>
<path id="Vector_45" d="M46.9251 35.7526C46.9251 35.7526 44.9565 34.9905 45.2359 33.9999C45.4296 33.3712 45.7853 32.8044 46.2672 32.3565C46.2672 32.3565 47.7404 30.4438 48.251 30.3803C48.7615 30.3168 49.3229 30.9696 49.3229 30.9696C49.3229 30.9696 50.2932 30.2076 50.9739 30.581C51.675 31.0066 52.3533 31.4687 53.006 31.9653C53.006 31.9653 54.8272 32.0034 55.0914 32.5318C55.3555 33.0601 56.336 35.6992 56.336 35.6992C56.336 35.6992 56.2217 37.5484 55.5511 38.0132C55.0202 38.3841 50.7453 42.1078 50.7453 42.1078C50.7453 42.1078 57.1183 55.7937 59.3307 60.0406C61.0275 63.2996 67.6469 73.343 67.7129 74.9711C67.779 76.5993 68.5258 78.8854 67.3091 80.2113C66.0924 81.5372 66.039 84.8774 63.2602 85.3727C60.4814 85.868 60.4941 86.2363 58.8253 85.0298C57.1564 83.8233 51.5708 80.5136 49.5845 69.5125C47.5982 58.5115 42.8432 45.2702 42.8432 45.2702C42.8432 45.2702 41.0143 42.6971 41.0448 42.2932C41.0753 41.8894 40.9229 39.9513 42.419 38.953C43.9151 37.9548 46.9251 35.7526 46.9251 35.7526Z" fill="#FFBE9D"/>
<path id="Vector_46" d="M51.8783 36.8499C51.8783 36.8499 51.9672 36.7838 52.1323 36.6568C52.349 36.4752 52.5465 36.2718 52.7216 36.0498C52.977 35.7144 53.2095 35.3623 53.4176 34.9956C53.5497 34.7866 53.6685 34.5694 53.7732 34.3454C53.885 34.108 53.9281 33.844 53.8976 33.5834C53.8471 33.3276 53.7307 33.0894 53.5598 32.8925C53.4028 32.7033 53.233 32.5251 53.0518 32.359C52.7063 32.0314 52.4015 31.7291 52.1323 31.4878C51.863 31.2465 51.6395 31.0611 51.482 30.9366C51.3961 30.8756 51.3154 30.8077 51.2407 30.7334C51.3348 30.7816 51.4241 30.8386 51.5074 30.9036C51.7415 31.068 51.9671 31.2444 52.1831 31.4319C52.4574 31.6681 52.7698 31.9653 53.1178 32.2905C53.3025 32.4618 53.4748 32.646 53.6335 32.8417C53.8165 33.0517 53.9402 33.3069 53.9916 33.5808C54.0266 33.8588 53.9807 34.141 53.8595 34.3936C53.7526 34.6218 53.6304 34.8424 53.4938 35.054C53.2789 35.4212 53.0369 35.7719 52.7698 36.1031C52.5887 36.3261 52.3805 36.5258 52.1501 36.6975C52.0865 36.7435 52.0203 36.7859 51.9519 36.8245C51.9062 36.8423 51.8808 36.855 51.8783 36.8499Z" fill="#EB996E"/>
<path id="Vector_47" d="M55.0811 32.5313C55.0811 32.5313 55.0557 32.4881 54.9897 32.422C54.8806 32.3327 54.7556 32.2646 54.6214 32.2214C54.0935 32.0653 53.5462 31.9849 52.9958 31.9826C52.5741 31.6727 52.0737 31.3044 51.4717 30.9158C51.1745 30.7405 50.8621 30.4662 50.4557 30.517C50.045 30.5744 49.6572 30.741 49.333 30.9996L49.3101 31.0148L49.2923 30.9945C49.0999 30.7725 48.8616 30.5948 48.5938 30.4738C48.4594 30.4111 48.3065 30.4003 48.1646 30.4433C48.0249 30.5139 47.8958 30.6037 47.781 30.71C47.2885 31.1757 46.8332 31.6794 46.4195 32.2163C46.1898 32.4955 45.9881 32.7967 45.8175 33.1155C45.6366 33.4437 45.4983 33.7937 45.406 34.1569C45.396 34.2019 45.3908 34.2479 45.3908 34.2941V34.4312C45.4146 34.52 45.4496 34.6053 45.4949 34.6852C45.5952 34.8508 45.7242 34.997 45.876 35.117C46.2022 35.3695 46.5655 35.57 46.9529 35.7114L47.0241 35.7419L46.9631 35.7876C46.2079 36.3363 45.4221 36.9044 44.6059 37.492L43.3511 38.3785L42.7034 38.8255C42.5967 38.8992 42.4799 38.9703 42.3783 39.0516L42.2233 39.1685C42.17 39.2091 42.1268 39.2599 42.0786 39.3031C41.697 39.6818 41.425 40.1566 41.2911 40.6773C41.1541 41.2139 41.0934 41.7671 41.1108 42.3207C41.1424 42.451 41.1911 42.5765 41.2556 42.6941C41.3216 42.8185 41.3902 42.9481 41.4639 43.0649C41.6061 43.3189 41.7585 43.5526 41.916 43.7939C42.2284 44.2791 42.5586 44.7591 42.8965 45.2392C43.7474 47.6523 44.5856 50.2126 45.4035 52.8594C46.1325 55.2217 46.8031 57.5382 47.4051 59.7887C47.7124 60.9114 47.9867 62.0214 48.2611 63.1086C48.5354 64.1957 48.7691 65.2651 48.9952 66.3141C49.2212 67.3632 49.4193 68.3843 49.6124 69.38C49.714 69.8753 49.8156 70.3655 49.9147 70.8456C49.968 71.0996 50.0086 71.3257 50.0696 71.5593C50.1306 71.793 50.1941 72.0242 50.255 72.2553C50.316 72.4865 50.3795 72.71 50.4405 72.9361C50.4684 73.0504 50.4989 73.1621 50.5293 73.2739C50.5598 73.3856 50.603 73.4923 50.6386 73.6016L51.0653 74.8716C51.2304 75.2805 51.393 75.6793 51.5505 76.073C51.5886 76.1721 51.6292 76.2686 51.6673 76.3651L51.8019 76.6471L52.0559 77.2008C52.6884 78.5107 53.4545 79.7517 54.342 80.9042C55.0229 81.7666 55.7795 82.5665 56.6026 83.2944C57.1232 83.7532 57.6684 84.1831 58.2359 84.5822L58.6753 84.8998L58.8227 85.0115L58.6677 84.9099L58.2232 84.6C56.7384 83.5834 55.4146 82.3496 54.2963 80.9398C53.4016 79.7879 52.6295 78.5459 51.9924 77.2338C51.9027 77.051 51.8138 76.8655 51.7257 76.6776C51.68 76.5861 51.6343 76.4896 51.5886 76.3956C51.5428 76.3016 51.5098 76.2026 51.4717 76.1035L50.984 74.8995C50.8418 74.4779 50.6978 74.0545 50.5522 73.6295C50.5141 73.5203 50.4786 73.411 50.4405 73.2993L50.349 72.9615C50.288 72.7379 50.2271 72.5093 50.1636 72.2782C50.1001 72.047 50.0391 71.8184 49.9756 71.5822C49.9121 71.346 49.874 71.1072 49.8207 70.8684C49.7191 70.3858 49.6166 69.8964 49.5133 69.4003C49.3177 68.4046 49.1298 67.3809 48.8936 66.337C48.6573 65.293 48.4135 64.2262 48.1569 63.134C47.9004 62.0417 47.6057 60.9393 47.2984 59.8166C46.6939 57.5687 46.0284 55.2445 45.2968 52.8924C44.4789 50.2508 43.6407 47.6929 42.7923 45.2722V45.2849C42.4545 44.8023 42.1243 44.3197 41.8119 43.8345C41.6544 43.5805 41.502 43.3469 41.3572 43.1005C41.2835 42.976 41.2149 42.8465 41.1489 42.7245C41.075 42.5947 41.0219 42.4542 40.9914 42.308C40.9747 41.7449 41.0371 41.1823 41.1768 40.6366C41.3155 40.0992 41.5973 39.6093 41.9922 39.2192C42.043 39.1735 42.0887 39.1227 42.1421 39.0821L42.3046 38.9576C42.4113 38.8738 42.5231 38.8078 42.6323 38.7316L43.2775 38.2871L44.5399 37.4133L46.8996 35.714V35.7876C46.5155 35.6379 46.1559 35.4316 45.8328 35.1755C45.6731 35.0489 45.5372 34.895 45.4314 34.7208C45.3812 34.6316 45.3436 34.5359 45.3197 34.4363L45.307 34.2839C45.3079 34.2326 45.3138 34.1816 45.3248 34.1315C45.4194 33.761 45.5611 33.4042 45.7464 33.0698C45.9195 32.7469 46.1246 32.4423 46.3586 32.1604C46.7766 31.6217 47.237 31.1171 47.7353 30.6516C47.8549 30.5404 47.9901 30.4471 48.1366 30.3748C48.2938 30.3233 48.4648 30.3342 48.6141 30.4052C48.8912 30.5296 49.1368 30.7145 49.333 30.9463H49.2923C49.6273 30.6833 50.0262 30.5141 50.4481 30.456C50.6472 30.4377 50.847 30.4821 51.0196 30.583C51.1847 30.6745 51.3396 30.7735 51.487 30.8701C52.0813 31.2638 52.5792 31.6321 52.9958 31.9496C53.5487 31.955 54.098 32.0406 54.6265 32.2036C54.7626 32.2487 54.888 32.3213 54.9948 32.417C55.0213 32.441 55.0437 32.4693 55.0608 32.5008L55.0811 32.5313Z" fill="#EB996E"/>
<path id="Vector_48" d="M48.7486 34.4449C48.7496 34.4935 48.7409 34.5419 48.7232 34.5872C48.6845 34.7106 48.6299 34.8284 48.5607 34.9377C48.3324 35.312 47.9664 35.5819 47.5413 35.6892C47.1162 35.7966 46.6659 35.7329 46.2873 35.5117C46.1741 35.4468 46.0692 35.3683 45.9749 35.2781C45.9114 35.212 45.8834 35.1688 45.8885 35.1663C46.0276 35.2668 46.1717 35.3601 46.3203 35.4457C46.6897 35.6303 47.1118 35.6806 47.5142 35.5879C47.9134 35.4815 48.2618 35.2366 48.4972 34.8971C48.6801 34.638 48.7309 34.4398 48.7486 34.4449Z" fill="#EB996E"/>
<path id="Vector_49" d="M49.4067 37.1956C49.4067 37.1956 49.5058 37.1346 49.676 37.0203C49.9125 36.8526 50.1305 36.6602 50.3262 36.4462C50.6133 36.1248 50.8797 35.7854 51.1238 35.4302C51.2765 35.2283 51.4124 35.0142 51.5302 34.7901C51.6568 34.5574 51.7074 34.291 51.675 34.0281C51.624 33.7651 51.5098 33.5184 51.3422 33.3093C51.1898 33.0984 51.012 32.913 50.852 32.7251C50.532 32.3542 50.2627 32.0062 50.024 31.7243C49.7852 31.4423 49.582 31.2163 49.4347 31.0816C49.3536 31.0104 49.2773 30.9341 49.2061 30.853C49.232 30.8655 49.256 30.8818 49.2772 30.9013C49.3204 30.9318 49.3839 30.9851 49.4601 31.0512C49.6792 31.2466 49.8862 31.4553 50.0798 31.676C50.3338 31.9529 50.6031 32.2958 50.9257 32.6616C51.0857 32.8444 51.2661 33.0299 51.4337 33.2483C51.6112 33.4701 51.7324 33.7315 51.7868 34.0103C51.8222 34.2957 51.7681 34.5851 51.6318 34.8384C51.5091 35.0662 51.3681 35.2837 51.2102 35.4886C50.9612 35.8471 50.6861 36.1867 50.3872 36.5047C50.1838 36.7181 49.9542 36.905 49.7039 37.0609C49.6364 37.1033 49.566 37.1406 49.4931 37.1727C49.4656 37.1847 49.4365 37.1924 49.4067 37.1956Z" fill="#EB996E"/>
</g>
</g>
</svg>
