<svg width="13" height="13" viewBox="0 0 13 13" fill="none" xmlns="http://www.w3.org/2000/svg">
<path d="M10.6252 8.78756V4.18256C10.8821 4.11745 11.1172 3.98544 11.3065 3.79996C11.4958 3.61447 11.6326 3.38214 11.7029 3.1266C11.7733 2.87107 11.7747 2.60146 11.7069 2.34522C11.6392 2.08898 11.5048 1.85527 11.3174 1.66786C11.13 1.48045 10.8963 1.34604 10.64 1.27831C10.3838 1.21059 10.1142 1.21197 9.85865 1.2823C9.60312 1.35264 9.37078 1.48943 9.1853 1.67875C8.99981 1.86806 8.8678 2.10314 8.80269 2.36006H4.19769C4.13259 2.10314 4.00058 1.86806 3.81509 1.67875C3.62961 1.48943 3.39727 1.35264 3.14174 1.2823C2.88621 1.21197 2.6166 1.21059 2.36036 1.27831C2.10412 1.34604 1.8704 1.48045 1.68299 1.66786C1.49558 1.85527 1.36117 2.08898 1.29345 2.34522C1.22573 2.60146 1.2271 2.87107 1.29744 3.1266C1.36778 3.38214 1.50457 3.61447 1.69388 3.79996C1.8832 3.98544 2.11828 4.11745 2.37519 4.18256V8.78756C2.11828 8.85266 1.8832 8.98467 1.69388 9.17016C1.50457 9.35565 1.36778 9.58798 1.29744 9.84351C1.2271 10.099 1.22573 10.3687 1.29345 10.6249C1.36117 10.8811 1.49558 11.1149 1.68299 11.3023C1.8704 11.4897 2.10412 11.6241 2.36036 11.6918C2.6166 11.7595 2.88621 11.7582 3.14174 11.6878C3.39727 11.6175 3.62961 11.4807 3.81509 11.2914C4.00058 11.1021 4.13259 10.867 4.19769 10.6101H8.80269C8.8678 10.867 8.99981 11.1021 9.1853 11.2914C9.37078 11.4807 9.60312 11.6175 9.85865 11.6878C10.1142 11.7582 10.3838 11.7595 10.64 11.6918C10.8963 11.6241 11.13 11.4897 11.3174 11.3023C11.5048 11.1149 11.6392 10.8811 11.7069 10.6249C11.7747 10.3687 11.7733 10.099 11.7029 9.84351C11.6326 9.58798 11.4958 9.35565 11.3065 9.17016C11.1172 8.98467 10.8821 8.85266 10.6252 8.78756ZM10.2502 1.98506C10.3985 1.98506 10.5435 2.02904 10.6669 2.11146C10.7902 2.19387 10.8863 2.311 10.9431 2.44805C10.9999 2.58509 11.0147 2.73589 10.9858 2.88138C10.9568 3.02686 10.8854 3.1605 10.7805 3.26539C10.6756 3.37028 10.542 3.44171 10.3965 3.47065C10.251 3.49959 10.1002 3.48473 9.96318 3.42797C9.82614 3.3712 9.709 3.27507 9.62659 3.15174C9.54418 3.0284 9.50019 2.88339 9.50019 2.73506C9.50019 2.53615 9.57921 2.34538 9.71986 2.20473C9.86052 2.06408 10.0513 1.98506 10.2502 1.98506ZM2.00019 2.73506C2.00019 2.58672 2.04418 2.44172 2.12659 2.31838C2.209 2.19504 2.32614 2.09891 2.46318 2.04215C2.60023 1.98538 2.75103 1.97053 2.89651 1.99947C3.042 2.02841 3.17564 2.09984 3.28052 2.20473C3.38541 2.30962 3.45684 2.44325 3.48578 2.58874C3.51472 2.73423 3.49987 2.88503 3.4431 3.02207C3.38634 3.15912 3.29021 3.27625 3.16687 3.35866C3.04354 3.44107 2.89853 3.48506 2.75019 3.48506C2.55128 3.48506 2.36052 3.40604 2.21986 3.26539C2.07921 3.12474 2.00019 2.93397 2.00019 2.73506ZM2.75019 10.9851C2.60186 10.9851 2.45685 10.9411 2.33352 10.8587C2.21018 10.7762 2.11405 10.6591 2.05728 10.5221C2.00052 10.385 1.98567 10.2342 2.01461 10.0887C2.04354 9.94325 2.11498 9.80962 2.21986 9.70473C2.32475 9.59984 2.45839 9.52841 2.60388 9.49947C2.74936 9.47053 2.90016 9.48538 3.03721 9.54215C3.17425 9.59891 3.29139 9.69504 3.3738 9.81838C3.45621 9.94172 3.50019 10.0867 3.50019 10.2351C3.50019 10.434 3.42118 10.6247 3.28052 10.7654C3.13987 10.906 2.94911 10.9851 2.75019 10.9851ZM8.80269 9.86006H4.19769C4.13036 9.60211 3.9955 9.36677 3.80699 9.17826C3.61848 8.98976 3.38314 8.85489 3.12519 8.78756V4.18256C3.38314 4.11522 3.61848 3.98036 3.80699 3.79185C3.9955 3.60335 4.13036 3.368 4.19769 3.11006H8.80269C8.87003 3.368 9.00489 3.60335 9.1934 3.79185C9.38191 3.98036 9.61725 4.11522 9.87519 4.18256V8.78756C9.61725 8.85489 9.38191 8.98976 9.1934 9.17826C9.00489 9.36677 8.87003 9.60211 8.80269 9.86006ZM10.2502 10.9851C10.1019 10.9851 9.95685 10.9411 9.83352 10.8587C9.71018 10.7762 9.61405 10.6591 9.55729 10.5221C9.50052 10.385 9.48567 10.2342 9.51461 10.0887C9.54354 9.94325 9.61498 9.80962 9.71986 9.70473C9.82475 9.59984 9.95839 9.52841 10.1039 9.49947C10.2494 9.47053 10.4002 9.48538 10.5372 9.54215C10.6743 9.59891 10.7914 9.69504 10.8738 9.81838C10.9562 9.94172 11.0002 10.0867 11.0002 10.2351C11.0002 10.434 10.9212 10.6247 10.7805 10.7654C10.6399 10.906 10.4491 10.9851 10.2502 10.9851Z" fill="#112664"/>
<path d="M8.375 4.61035H4.625V5.36035H6.125V8.73535H6.875V5.36035H8.375V4.61035Z" fill="#112664"/>
</svg>
