<svg width="17" height="17" viewBox="0 0 17 17" fill="none" xmlns="http://www.w3.org/2000/svg">
<g id="thumb_down">
<mask id="mask0_216_148" style="mask-type:alpha" maskUnits="userSpaceOnUse" x="0" y="0" width="17" height="17">
<rect id="Bounding box" x="0.624023" y="0.147949" width="16" height="16" fill="#D9D9D9"/>
</mask>
<g mask="url(#mask0_216_148)">
<path id="thumb_down_2" d="M4.6241 2.14795H11.9574V10.8146L7.29077 15.4813L6.45744 14.6479C6.37966 14.5702 6.31577 14.4646 6.26577 14.3313C6.21577 14.1979 6.19077 14.0702 6.19077 13.9479V13.7146L6.9241 10.8146H2.6241C2.26855 10.8146 1.95744 10.6813 1.69077 10.4146C1.4241 10.1479 1.29077 9.83684 1.29077 9.48128V8.14795C1.29077 8.07017 1.30188 7.98684 1.3241 7.89795C1.34633 7.80906 1.36855 7.72573 1.39077 7.64795L3.39077 2.94795C3.49077 2.72573 3.65744 2.53684 3.89077 2.38128C4.1241 2.22573 4.36855 2.14795 4.6241 2.14795ZM10.6241 3.48128H4.6241L2.6241 8.14795V9.48128H8.6241L7.72411 13.1479L10.6241 10.2479V3.48128ZM11.9574 10.8146V9.48128H13.9574V3.48128H11.9574V2.14795H15.2908V10.8146H11.9574Z" fill="#043365"/>
</g>
</g>
</svg>
