<svg width="16" height="16" viewBox="0 0 16 16" fill="none" xmlns="http://www.w3.org/2000/svg">
<mask id="mask0_216_145" style="mask-type:alpha" maskUnits="userSpaceOnUse" x="0" y="0" width="16" height="16">
<rect width="16" height="16" fill="#D9D9D9"/>
</mask>
<g mask="url(#mask0_216_145)">
<path d="M11.9999 14H4.66659V5.33335L9.33325 0.666687L10.1666 1.50002C10.2444 1.5778 10.3083 1.68335 10.3583 1.81669C10.4083 1.95002 10.4333 2.0778 10.4333 2.20002V2.43335L9.69992 5.33335H13.9999C14.3555 5.33335 14.6666 5.46669 14.9333 5.73335C15.1999 6.00002 15.3333 6.31113 15.3333 6.66669V8.00002C15.3333 8.0778 15.3221 8.16113 15.2999 8.25002C15.2777 8.33891 15.2555 8.42224 15.2333 8.50002L13.2333 13.2C13.1333 13.4222 12.9666 13.6111 12.7333 13.7667C12.4999 13.9222 12.2555 14 11.9999 14ZM5.99992 12.6667H11.9999L13.9999 8.00002V6.66669H7.99992L8.89992 3.00002L5.99992 5.90002V12.6667ZM4.66659 5.33335V6.66669H2.66659V12.6667H4.66659V14H1.33325V5.33335H4.66659Z" fill="#043365"/>
</g>
</svg>
