<svg width="40" height="40" viewBox="0 0 40 40" fill="none" xmlns="http://www.w3.org/2000/svg">
<circle cx="20" cy="20" r="20" fill="#EBF4FE"/>
<g clip-path="url(#clip0_3094_3842)">
<path fill-rule="evenodd" clip-rule="evenodd" d="M17.4526 19.138L15.7431 16.469C14.9206 15.185 13.8081 14.1015 12.1981 14.1015H9.73412C9.23462 14.1015 8.82912 13.696 8.82912 13.1965C8.82912 12.6965 9.23412 12.2915 9.73412 12.2915H12.1981C14.4546 12.2915 16.0936 13.6615 17.2666 15.4925L18.5276 17.461L19.7881 15.4925C20.9611 13.661 22.6006 12.2915 24.8571 12.2915H28.0836L26.5631 10.771C26.2101 10.418 26.2106 9.845 26.5631 9.4915C26.9161 9.138 27.4891 9.1385 27.8421 9.4915L30.9076 12.5565C31.0771 12.726 31.1726 12.956 31.1726 13.196C31.1726 13.436 31.0771 13.666 30.9076 13.8355L27.8421 16.901C27.6721 17.071 27.4436 17.1655 27.2031 17.1655C26.9621 17.1655 26.7331 17.0715 26.5626 16.9005C26.2101 16.547 26.2096 15.974 26.5626 15.6205L28.0831 14.1H24.8566C23.2466 14.1 22.1336 15.1835 21.3111 16.4675L19.6016 19.1365L21.3111 21.806C22.1336 23.0905 23.2466 24.1735 24.8566 24.1735H28.0831L26.5626 22.6525C26.2096 22.2995 26.2101 21.7265 26.5626 21.373C26.9151 21.0195 27.4886 21.02 27.8416 21.373L30.9071 24.4385C31.0766 24.608 31.1721 24.838 31.1721 25.078C31.1721 25.318 31.0766 25.548 30.9071 25.718L27.8416 28.783C27.6716 28.953 27.4431 29.048 27.2026 29.048C26.9616 29.048 26.7326 28.9535 26.5621 28.7825C26.2096 28.4295 26.2091 27.856 26.5621 27.503L28.0826 25.9825H24.8561C22.5996 25.9825 20.9601 24.6125 19.7871 22.781L18.5266 20.813L17.2656 22.781C16.0926 24.612 14.4536 25.9825 12.1971 25.9825H9.73312C9.23312 25.9825 8.82812 25.5775 8.82812 25.0775C8.82812 24.578 9.23312 24.1725 9.73312 24.1725H12.1971C13.8071 24.1725 14.9196 23.089 15.7421 21.805L17.4526 19.138Z" fill="#0D82FF"/>
</g>
<defs>
<clipPath id="clip0_3094_3842">
<rect width="24" height="24" fill="white" transform="translate(8 9)"/>
</clipPath>
</defs>
</svg>
