<svg width="25" height="24" viewBox="0 0 25 24" fill="none" xmlns="http://www.w3.org/2000/svg">
<path d="M24.1221 3.03529C24.1221 3.7133 23.7041 4.27376 22.9811 4.27376C22.2581 4.27376 21.8391 3.7133 21.8391 3.03529C21.8391 2.35623 22.2581 1.79683 22.9811 1.79683C23.7041 1.79683 24.1221 2.35623 24.1221 3.03529ZM23.8941 3.03529C23.8941 2.47588 23.5141 2.03717 22.9811 2.03717C22.4481 2.03717 22.0681 2.436 22.0681 3.03424C22.0681 3.59365 22.4481 4.03341 22.9811 4.03341C23.5511 4.03341 23.8941 3.59365 23.8941 3.03529ZM22.5241 2.47588H23.0191C23.2851 2.47588 23.4751 2.63541 23.4751 2.87471C23.4751 3.03529 23.3991 3.11506 23.2851 3.19482L23.4751 3.474V3.51388H23.2091L23.0191 3.2347H22.7901V3.51388H22.5241V2.47588ZM23.0191 2.71518H22.7901V2.99541H23.0191C23.1331 2.99541 23.1711 2.95553 23.1711 2.87576C23.2091 2.79494 23.1331 2.71518 23.0191 2.71518ZM7.7241 12.4193C7.7679 12.2636 7.79342 12.1029 7.8001 11.9407C7.8001 11.8211 7.7621 11.7014 7.7621 11.5818C7.6481 11.2218 7.4581 10.9027 7.1161 10.7022L2.24609 7.78764C1.56109 7.38881 0.686095 7.62811 0.306095 8.34705C-0.0749054 9.06599 0.153095 9.98434 0.838095 10.3832L3.5391 12.0205L0.838095 13.6578C0.153095 14.0566 -0.0749054 14.976 0.305095 15.6939C0.685095 16.4128 1.56109 16.6532 2.24509 16.2533L7.0771 13.3387C7.4201 13.0585 7.6481 12.7793 7.7241 12.4193ZM9.0561 15.1754C8.7901 15.1355 8.4861 15.2153 8.2191 15.3748L3.3871 18.2894C2.7021 18.6882 2.47409 19.6076 2.85509 20.3255C3.2351 21.0455 4.1101 21.2848 4.79509 20.8849L7.4961 19.2476V22.5222C7.4961 23.3619 8.1431 24 8.94209 24C9.74109 24 10.3491 23.3209 10.3491 22.5222V16.6532C10.3491 15.8545 9.7791 15.2153 9.0561 15.1754ZM14.0021 8.78576C14.2681 8.82564 14.5721 8.74588 14.8391 8.58635L19.6711 5.67175C20.3561 5.27293 20.5841 4.35352 20.2031 3.63563C19.8231 2.91564 18.9481 2.67635 18.2631 3.07622L15.5621 4.71352V1.47776C15.5621 0.639174 14.9151 0 14.1161 0C13.3171 0 12.6701 0.639174 12.6701 1.47776V7.308C12.6701 8.10565 13.2791 8.74693 14.0021 8.78576ZM3.3871 5.6707L8.2191 8.5853C8.4851 8.74483 8.7521 8.78471 9.0561 8.78471C9.7791 8.74483 10.3871 8.06682 10.3871 7.308V1.47776C10.3871 0.639174 9.7411 0 8.98009 0C8.1811 0 7.5341 0.679057 7.5341 1.47776V4.75235L4.8331 3.11506C4.1481 2.71623 3.27309 2.95553 2.89309 3.67447C2.47409 4.35247 2.70309 5.27083 3.3871 5.6707ZM12.4801 11.9795C12.4755 11.8751 12.435 11.7759 12.3661 11.7004L11.7961 11.1011C11.7625 11.062 11.7212 11.0311 11.6751 11.0104C11.629 10.9898 11.5792 10.9799 11.5291 10.9814C11.4296 10.9862 11.3351 11.0287 11.2631 11.1011L10.6921 11.6993C10.6229 11.775 10.5824 11.8747 10.5781 11.9795C10.5781 12.0593 10.6161 12.1789 10.6921 12.2598L11.2621 12.858C11.2956 12.8971 11.3369 12.9281 11.383 12.9487C11.4291 12.9694 11.479 12.9793 11.5291 12.9777C11.6287 12.973 11.7232 12.9305 11.7951 12.858L12.3661 12.2598C12.4352 12.184 12.4757 12.0844 12.4801 11.9795ZM14.0781 12.5389L12.0621 14.6548C12.0231 14.6947 11.9091 14.7745 11.8331 14.7745H11.2251C11.1252 14.77 11.0303 14.7275 10.9581 14.6548L8.94209 12.5389C8.89425 12.4687 8.86776 12.3849 8.8661 12.2986V11.6605C8.8661 11.5807 8.90409 11.4611 8.98009 11.3802L10.9961 9.26435C11.0682 9.19163 11.1632 9.14907 11.2631 9.1447H11.8711C11.971 9.14907 12.066 9.19163 12.1381 9.26435L14.1541 11.3802C14.1913 11.4155 14.2207 11.4589 14.2404 11.5072C14.26 11.5556 14.2695 11.6079 14.2681 11.6605V12.2986C14.1921 12.3794 14.1541 12.498 14.0781 12.5389ZM19.6711 18.2485L14.8391 15.3339C14.5731 15.1744 14.2691 15.1345 14.0021 15.1744C13.2791 15.2142 12.6701 15.8922 12.6701 16.6521V22.4813C12.6701 23.3209 13.3171 23.9591 14.0781 23.9591C14.8771 23.9591 15.5241 23.28 15.5241 22.4813V19.2067L18.2241 20.844C18.9101 21.2428 19.7851 21.0035 20.1651 20.2846C20.5841 19.6066 20.3551 18.6882 19.6711 18.2485ZM22.2201 10.3422L19.5191 11.9795L22.2191 13.6168C22.9051 14.0157 23.1331 14.9351 22.7521 15.6529C22.3721 16.3719 21.4971 16.6112 20.8121 16.2124L15.9801 13.2967C15.6847 13.0972 15.458 12.8037 15.3331 12.4592C15.2961 12.2986 15.2571 12.1391 15.2571 11.9795C15.2571 11.8599 15.2961 11.7402 15.2961 11.6206C15.4101 11.2606 15.6381 10.9415 15.9421 10.7421L20.7741 7.82647C21.4591 7.42765 22.3341 7.66694 22.7141 8.38588C23.1711 9.02506 22.9041 9.94341 22.2201 10.3422Z" fill="#032951"/>
</svg>
