<svg width="39" height="29" viewBox="0 0 39 29" fill="none" xmlns="http://www.w3.org/2000/svg">
<path d="M9.3483 28.8346C6.65066 28.8346 4.34581 27.894 2.43374 26.0128C0.521676 24.1315 -0.434357 21.8322 -0.434357 19.1148C-0.434357 16.7857 0.262287 14.7103 1.65557 12.8888C3.04886 11.0673 4.87199 9.90269 7.12497 9.39505C7.86608 6.64783 9.3483 4.42318 11.5716 2.72109C13.795 1.01901 16.3147 0.167969 19.131 0.167969C22.5994 0.167969 25.5416 1.38481 27.9576 3.81849C30.3736 6.25217 31.5816 9.21589 31.5816 12.7096C33.6271 12.9485 35.3242 13.8369 36.673 15.3747C38.0219 16.9126 38.6963 18.7117 38.6963 20.7721C38.6963 23.0117 37.9181 24.9154 36.3618 26.4831C34.8054 28.0508 32.9156 28.8346 30.6923 28.8346H20.9096C19.9314 28.8346 19.0939 28.4838 18.3973 27.782C17.7006 27.0803 17.3523 26.2367 17.3523 25.2513V16.0242L14.5064 18.8013L12.0163 16.293L19.131 9.1263L26.2456 16.293L23.7555 18.8013L20.9096 16.0242V25.2513H30.6923C31.9373 25.2513 32.9897 24.8183 33.8494 23.9523C34.7091 23.0864 35.1389 22.0263 35.1389 20.7721C35.1389 19.518 34.7091 18.4579 33.8494 17.5919C32.9897 16.726 31.9373 16.293 30.6923 16.293H28.0243V12.7096C28.0243 10.2312 27.1572 8.11849 25.423 6.37161C23.6888 4.62474 21.5914 3.7513 19.131 3.7513C16.6705 3.7513 14.5731 4.62474 12.8389 6.37161C11.1047 8.11849 10.2376 10.2312 10.2376 12.7096H9.3483C7.62892 12.7096 6.16153 13.3218 4.9461 14.5461C3.73068 15.7704 3.12297 17.2485 3.12297 18.9805C3.12297 20.7124 3.73068 22.1905 4.9461 23.4148C6.16153 24.6391 7.62892 25.2513 9.3483 25.2513H13.795V28.8346H9.3483Z" fill="#56B3C0" fill-opacity="0.99"/>
</svg>
