<svg width="629" height="461" viewBox="0 0 629 461" fill="none" xmlns="http://www.w3.org/2000/svg">
<path d="M624.528 27.2169L515.289 1.69422C513.209 1.20834 511.198 2.20547 510.798 3.92137L504.353 31.5056C503.952 33.2215 505.313 35.0064 507.392 35.4922L616.631 61.0149C618.711 61.5008 620.722 60.5037 621.122 58.7878L627.567 31.2036C627.968 29.4877 626.607 27.7028 624.528 27.2169Z" fill="#0A3869"/>
<path d="M533.581 21.7103L519.711 18.4697L519.411 19.7527L533.281 22.9933L533.581 21.7103Z" fill="white"/>
<path d="M528.614 15.1914L527.059 14.8281L524.385 26.2723L525.94 26.6356L528.614 15.1914Z" fill="white"/>
<path d="M578.414 370.274C572.599 370.371 557.918 370.611 552.296 370.669L543.487 370.708H543.054V370.265L543.016 359.29V358.809H543.497L560.96 358.876C565.312 358.914 574.072 359.001 578.424 359.069H578.655V359.3L578.424 370.274H578.414ZM578.414 370.274L578.183 359.3L578.414 359.531C574.053 359.588 565.312 359.685 560.951 359.723L543.487 359.791L543.969 359.309L543.93 370.284L543.487 369.841L552.142 369.88C557.677 369.937 572.686 370.188 578.404 370.274H578.414Z" fill="#EBEBEB"/>
<path d="M558.945 384.116C553.131 384.212 538.449 384.453 532.827 384.511L524.019 384.549H523.585V384.106L523.547 373.132V372.65H524.028L541.492 372.718C545.843 372.756 554.603 372.843 558.955 372.91H559.186V373.141L558.955 384.116H558.945ZM558.945 384.116L558.714 373.141L558.945 373.372C554.584 373.43 545.843 373.526 541.482 373.565L524.019 373.632L524.5 373.151L524.461 384.126L524.019 383.683L532.673 383.721C538.209 383.779 553.217 384.029 558.936 384.116H558.945Z" fill="#EBEBEB"/>
<path d="M102.408 326.466C96.5933 326.562 81.9122 326.803 76.29 326.86L67.4813 326.899H67.0481V326.456L67 315.481V315H67.4813L84.9447 315.067C89.2961 315.106 98.0566 315.193 102.408 315.26H102.639V315.491L102.408 326.466ZM102.408 326.466L102.177 315.491L102.408 315.722C98.047 315.78 89.3057 315.876 84.9447 315.915L67.4813 315.982L67.9627 315.501L67.9242 326.475L67.4813 326.033L76.136 326.071C81.6715 326.129 96.68 326.379 102.398 326.466H102.408Z" fill="#EBEBEB"/>
<path d="M82.917 329.325H48V340.3H82.917V329.325Z" fill="#EBEBEB"/>
<path d="M597.89 373.134H562.973V384.109H597.89V373.134Z" fill="#EBEBEB"/>
<path d="M286.631 154.36C280.816 154.457 266.135 154.697 260.513 154.755L251.704 154.793H251.271V154.351L251.223 143.376V142.895H251.704L269.167 142.962C273.519 143 282.279 143.087 286.631 143.154H286.862V143.386L286.631 154.36ZM286.631 154.36L286.4 143.386L286.631 143.617C282.27 143.674 273.528 143.771 269.167 143.809L251.704 143.876L252.185 143.395L252.147 154.37L251.704 153.927L260.359 153.966C265.894 154.023 280.903 154.274 286.621 154.36H286.631Z" fill="#EBEBEB"/>
<path d="M267.148 157.23H232.23V168.205H267.148V157.23Z" fill="#EBEBEB"/>
<path d="M306.105 168.206C300.291 168.302 285.61 168.543 279.987 168.601L271.179 168.639H270.746V168.196L270.707 157.222V156.74H271.188L288.652 156.808C293.003 156.846 301.764 156.933 306.115 157H306.346V157.231L306.115 168.206H306.105ZM306.105 168.206L305.874 157.231L306.105 157.462C301.744 157.52 293.003 157.616 288.642 157.655L271.179 157.722L271.66 157.241L271.622 168.216L271.179 167.773L279.833 167.811C285.369 167.869 300.377 168.119 306.096 168.206H306.105Z" fill="#EBEBEB"/>
<path d="M422.218 309.443H387.301V320.418H422.218V309.443Z" fill="#EBEBEB"/>
<path d="M36.8611 62.7001C31.0464 62.7964 16.3653 63.037 10.7432 63.0948L1.93447 63.1333H1.50126V62.6905L1.45312 51.7157V51.2344H1.93447L19.3978 51.3018C23.7492 51.3403 32.5097 51.4269 36.8611 51.4943H37.0922V51.7254L36.8611 62.7001ZM36.8611 62.7001L36.6301 51.7254L36.8611 51.9564C32.5001 52.0142 23.7588 52.1104 19.3978 52.1489L1.93447 52.2163L2.41582 51.735L2.37731 62.7097L1.93447 62.2669L10.5891 62.3054C16.1246 62.3632 31.1331 62.6135 36.8515 62.7001H36.8611Z" fill="#EBEBEB"/>
<path d="M155.633 67.7666H74.8047V120.542H155.633V67.7666Z" fill="#DBDBDB"/>
<path d="M155.633 123.633H74.8047V176.408H155.633V123.633Z" fill="#EBEBEB"/>
<path d="M90.6525 133.78H82.7969V141.636H90.6525V133.78Z" fill="white"/>
<path d="M100.149 133.78H92.293V141.636H100.149V133.78Z" fill="#C7C7C7"/>
<path d="M109.649 133.78H101.793V141.636H109.649V133.78Z" fill="white"/>
<path d="M119.137 133.78H111.281V141.636H119.137V133.78Z" fill="white"/>
<path d="M128.637 133.78H120.781V141.636H128.637V133.78Z" fill="white"/>
<path d="M138.133 133.78H130.277V141.636H138.133V133.78Z" fill="white"/>
<path d="M147.629 133.78H139.773V141.636H147.629V133.78Z" fill="white"/>
<path d="M90.6525 143.338H82.7969V151.193H90.6525V143.338Z" fill="white"/>
<path d="M100.149 143.338H92.293V151.193H100.149V143.338Z" fill="white"/>
<path d="M109.649 143.338H101.793V151.193H109.649V143.338Z" fill="white"/>
<path d="M119.137 143.338H111.281V151.193H119.137V143.338Z" fill="white"/>
<path d="M128.637 143.338H120.781V151.193H128.637V143.338Z" fill="#C7C7C7"/>
<path d="M138.133 143.338H130.277V151.193H138.133V143.338Z" fill="white"/>
<path d="M147.629 143.338H139.773V151.193H147.629V143.338Z" fill="white"/>
<path d="M90.6525 152.909H82.7969V160.765H90.6525V152.909Z" fill="white"/>
<path d="M100.149 152.909H92.293V160.765H100.149V152.909Z" fill="white"/>
<path d="M109.649 152.909H101.793V160.765H109.649V152.909Z" fill="white"/>
<path d="M119.137 152.909H111.281V160.765H119.137V152.909Z" fill="white"/>
<path d="M128.637 152.909H120.781V160.765H128.637V152.909Z" fill="white"/>
<path d="M138.133 152.909H130.277V160.765H138.133V152.909Z" fill="white"/>
<path d="M147.629 152.909H139.773V160.765H147.629V152.909Z" fill="white"/>
<path d="M90.6525 162.469H82.7969V170.324H90.6525V162.469Z" fill="white"/>
<path d="M100.149 162.469H92.293V170.324H100.149V162.469Z" fill="white"/>
<path d="M109.649 162.469H101.793V170.324H109.649V162.469Z" fill="#C7C7C7"/>
<path d="M119.137 162.469H111.281V170.324H119.137V162.469Z" fill="white"/>
<path d="M128.637 162.469H120.781V170.324H128.637V162.469Z" fill="white"/>
<path d="M138.133 162.469H130.277V170.324H138.133V162.469Z" fill="white"/>
<path d="M147.629 162.469H139.773V170.324H147.629V162.469Z" fill="white"/>
<path d="M81.0476 118.026H77.9766V126.142H81.0476V118.026Z" fill="#C7C7C7"/>
<path d="M88.1882 118.026H85.1172V126.142H88.1882V118.026Z" fill="#C7C7C7"/>
<path d="M95.3366 118.026H92.2656V126.142H95.3366V118.026Z" fill="#C7C7C7"/>
<path d="M102.481 118.026H99.4102V126.142H102.481V118.026Z" fill="#C7C7C7"/>
<path d="M109.614 118.026H106.543V126.142H109.614V118.026Z" fill="#C7C7C7"/>
<path d="M116.759 118.026H113.688V126.142H116.759V118.026Z" fill="#C7C7C7"/>
<path d="M123.907 118.026H120.836V126.142H123.907V118.026Z" fill="#C7C7C7"/>
<path d="M131.051 118.026H127.98V126.142H131.051V118.026Z" fill="#C7C7C7"/>
<path d="M138.196 118.026H135.125V126.142H138.196V118.026Z" fill="#C7C7C7"/>
<path d="M145.337 118.026H142.266V126.142H145.337V118.026Z" fill="#C7C7C7"/>
<path d="M152.485 118.026H149.414V126.142H152.485V118.026Z" fill="#C7C7C7"/>
<path d="M116.521 73.166C116.521 73.8784 115.944 74.456 115.231 74.456C114.519 74.456 113.941 73.8784 113.941 73.166C113.941 72.4536 114.519 71.876 115.231 71.876C115.944 71.876 116.521 72.4536 116.521 73.166Z" fill="#263238"/>
<path d="M258.246 299.517L261.461 318.79L283.228 449.88H286.742L270.906 318.79L268.566 299.517H258.246Z" fill="#455A64"/>
<path opacity="0.1" d="M268.566 299.517H258.246L261.461 318.79H270.906L268.566 299.517Z" fill="black"/>
<path d="M189.895 449.88H193.408L215.175 318.79L218.39 299.517H208.07L205.731 318.79L189.895 449.88Z" fill="#455A64"/>
<path opacity="0.1" d="M208.074 299.517L205.734 318.79H215.178L218.394 299.517H208.074Z" fill="black"/>
<path d="M148 449.88H151.514L173.28 318.79L176.496 299.517H166.176L163.836 318.79L148 449.88Z" fill="#455A64"/>
<path opacity="0.1" d="M163.84 318.79H173.284L176.499 299.517H166.179L163.84 318.79Z" fill="black"/>
<path d="M153.582 308.565H289.679V291.766H229.972L209.9 175H159.657L153.582 308.565Z" fill="#455A64"/>
<path opacity="0.1" d="M153.582 308.565H162.275L167.936 175H159.657L153.582 308.565Z" fill="black"/>
<path d="M0 451.756C192.145 451.168 407.683 451.159 599.838 451.756C407.693 452.352 192.154 452.343 0 451.756Z" fill="#263238"/>
<path d="M333.55 107.463C346.757 88.8861 342.404 63.12 323.827 49.913C305.25 36.7061 279.484 41.0595 266.277 59.6366C253.07 78.2137 257.423 103.98 276 117.187C294.577 130.394 320.343 126.04 333.55 107.463Z" fill="#DD4F4B"/>
<path opacity="0.1" d="M341.092 86.8932C342.435 65.1889 325.928 46.5055 304.224 45.1628C282.52 43.8201 263.836 60.3265 262.494 82.0309C261.151 103.735 277.657 122.419 299.362 123.761C321.066 125.104 339.749 108.598 341.092 86.8932Z" fill="black"/>
<path d="M338.449 88.9631C340.928 68.7404 326.544 50.3367 306.322 47.8573C286.099 45.3778 267.695 59.7615 265.216 79.9842C262.737 100.207 277.12 118.611 297.343 121.09C317.566 123.569 335.969 109.186 338.449 88.9631Z" fill="white"/>
<path opacity="0.5" d="M335.439 96.2441C315.802 95.8475 284.344 95.4843 266.413 94.9493C264.712 89.5404 264.71 82.3322 265.61 76.668L332.774 65.1622C338.12 74.4767 339.239 85.8763 335.431 96.239L335.439 96.2441Z" fill="#EBEBEB"/>
<path d="M302.169 50.2529H301.457V55.8462H302.169V50.2529Z" fill="#263238"/>
<path d="M285.012 54.6457L284.395 55.002L287.191 59.8459L287.808 59.4897L285.012 54.6457Z" fill="#263238"/>
<path d="M272.356 67.0481L272 67.665L276.844 70.4617L277.2 69.8447L272.356 67.0481Z" fill="#263238"/>
<path d="M273.199 84.1123H267.605V84.8247H273.199V84.1123Z" fill="#263238"/>
<path d="M276.852 98.4719L272.008 101.269L272.364 101.886L277.208 99.0889L276.852 98.4719Z" fill="#263238"/>
<path d="M287.189 109.074L284.395 113.919L285.012 114.275L287.806 109.429L287.189 109.074Z" fill="#263238"/>
<path d="M302.169 113.089H301.457V118.682H302.169V113.089Z" fill="#263238"/>
<path d="M316.429 109.081L315.812 109.438L318.609 114.281L319.226 113.925L316.429 109.081Z" fill="#263238"/>
<path d="M326.766 98.4514L326.41 99.0684L331.254 101.865L331.61 101.248L326.766 98.4514Z" fill="#263238"/>
<path d="M336.023 84.1123H330.43V84.8247H336.023V84.1123Z" fill="#263238"/>
<path d="M331.254 67.0315L326.41 69.8281L326.766 70.4451L331.61 67.6484L331.254 67.0315Z" fill="#263238"/>
<path d="M318.622 54.6624L315.828 59.5078L316.445 59.8637L319.239 55.0183L318.622 54.6624Z" fill="#263238"/>
<path d="M302.352 52.7831L303.565 86.9588L300.07 86.9107L301.399 52.7734L302.352 52.7831Z" fill="#455A64"/>
<path d="M275.534 83.3371L302.768 81.9015L302.712 85.3992L275.515 84.2888L275.534 83.3371Z" fill="#263238"/>
<path d="M303.016 84.4662C303.016 85.1305 302.477 85.66 301.823 85.66C301.168 85.66 300.629 85.1208 300.629 84.4662C300.629 83.8116 301.168 83.2725 301.823 83.2725C302.477 83.2725 303.016 83.8116 303.016 84.4662Z" fill="#FFC727"/>
<path d="M539.714 231.759H359.863V237.323H539.714V231.759Z" fill="#455A64"/>
<path d="M534.993 363.13H364.566V368.694H534.993V363.13Z" fill="#455A64"/>
<path d="M529.651 237.332H369.91V248.933H529.651V237.332Z" fill="#37474F"/>
<path d="M353.265 451.689H349.164L378.045 248.936H389.405L353.265 451.689Z" fill="#455A64"/>
<path d="M546.308 451.689H550.409L521.528 248.936H510.168L546.308 451.689Z" fill="#455A64"/>
<path d="M249.139 231.762H195.344V228.306L241.467 225.938L225.775 169.63H219.171V163.806H230.203L249.139 231.762Z" fill="#DBDBDB"/>
<path d="M224.933 163.806L222.853 169.64H219.176V163.806H224.933Z" fill="#C7C7C7"/>
<path d="M221.551 105.224L215.641 104.152L195.265 216.495L201.176 217.567L221.551 105.224Z" fill="#C7C7C7"/>
<path d="M227.721 133.287L216.814 193.427L201.16 217.571L221.54 105.225L227.721 133.287Z" fill="#DBDBDB"/>
<path d="M377.001 230.61H430.797V227.154L384.674 224.786L400.366 168.478H406.97V162.653H395.938L377.001 230.61Z" fill="#DBDBDB"/>
<path d="M401.208 162.653L403.287 168.487H406.965V162.653H401.208Z" fill="#C7C7C7"/>
<path d="M404.589 104.072L410.5 103L430.876 215.343L424.965 216.415L404.589 104.072Z" fill="#C7C7C7"/>
<path d="M398.42 132.135L409.327 192.275L424.98 216.419L404.6 104.072L398.42 132.135Z" fill="#DBDBDB"/>
<path d="M441.908 230.61V224.497L495.703 227.154V230.61H441.908Z" fill="#DBDBDB"/>
<path d="M350.059 231.828H384.273V224.001H350.059V231.828Z" fill="#263238"/>
<path d="M331.413 231.828H350.07V224.001H331.413V231.828Z" fill="#263238"/>
<path d="M350.059 231.018H384.273V224.818H350.059V231.018Z" fill="white"/>
<path d="M382.07 229.738C379.404 229.767 376.737 229.796 374.07 229.805L366.07 229.825L358.07 229.805C355.404 229.796 352.737 229.767 350.07 229.738C352.737 229.709 355.404 229.68 358.07 229.671L366.07 229.651L374.07 229.671C376.737 229.68 379.404 229.709 382.07 229.738Z" fill="#DBDBDB"/>
<path d="M382.07 228.523C379.404 228.552 376.737 228.581 374.07 228.591L366.07 228.61L358.07 228.591C355.404 228.581 352.737 228.552 350.07 228.523C352.737 228.494 355.404 228.465 358.07 228.456L366.07 228.437L374.07 228.456C376.737 228.465 379.404 228.494 382.07 228.523Z" fill="#DBDBDB"/>
<path d="M382.07 227.304C379.404 227.333 376.737 227.362 374.07 227.372L366.07 227.391L358.07 227.372C355.404 227.362 352.737 227.333 350.07 227.304C352.737 227.276 355.404 227.247 358.07 227.237L366.07 227.218L374.07 227.237C376.737 227.247 379.404 227.276 382.07 227.304Z" fill="#DBDBDB"/>
<path d="M382.07 226.09C379.404 226.118 376.737 226.147 374.07 226.157L366.07 226.176L358.07 226.157C355.404 226.147 352.737 226.118 350.07 226.09C352.737 226.061 355.404 226.032 358.07 226.022L366.07 226.003L374.07 226.022C376.737 226.032 379.404 226.061 382.07 226.09Z" fill="#DBDBDB"/>
<path d="M378.475 226.84V232.058L375.366 229.459L372.256 232.058V226.84C372.256 226.397 371.9 226.041 371.457 226.041H377.686C378.129 226.041 378.485 226.397 378.485 226.84H378.475Z" fill="#FFC727"/>
<path d="M384.454 218.396H327.559V224.008H384.454V218.396Z" fill="#37474F"/>
<path d="M378.414 218.396H373.109V224.008H378.414V218.396Z" fill="#455A64"/>
<path d="M369.634 218.396H367.574V224.008H369.634V218.396Z" fill="#455A64"/>
<path d="M356.299 218.397H391.707V209.733H356.299V218.397Z" fill="#FFC727"/>
<path d="M329.27 218.397H356.312V209.733H329.27V218.397Z" fill="#FFC727"/>
<path opacity="0.2" d="M329.27 218.397H356.312V209.733H329.27V218.397Z" fill="black"/>
<path d="M357.472 217.493H391.715V210.629H357.472V217.493Z" fill="white"/>
<path d="M389.492 216.079C386.825 216.127 384.158 216.166 381.482 216.185L373.472 216.214L365.463 216.185C362.796 216.166 360.129 216.137 357.453 216.079C360.12 216.031 362.786 215.992 365.463 215.973L373.472 215.944L381.482 215.973C384.149 215.992 386.815 216.021 389.492 216.079Z" fill="#DBDBDB"/>
<path d="M389.492 214.729C386.825 214.777 384.158 214.815 381.482 214.834L373.472 214.863L365.463 214.834C362.796 214.815 360.129 214.786 357.453 214.729C360.12 214.68 362.786 214.642 365.463 214.623L373.472 214.594L381.482 214.623C384.149 214.642 386.815 214.671 389.492 214.729Z" fill="#DBDBDB"/>
<path d="M389.492 213.383C386.825 213.431 384.158 213.469 381.482 213.489L373.472 213.518L365.463 213.489C362.796 213.469 360.129 213.441 357.453 213.383C360.12 213.335 362.786 213.296 365.463 213.277L373.472 213.248L381.482 213.277C384.149 213.296 386.815 213.325 389.492 213.383Z" fill="#DBDBDB"/>
<path d="M389.492 212.032C386.825 212.08 384.158 212.119 381.482 212.138L373.472 212.167L365.463 212.138C362.796 212.119 360.129 212.08 357.453 212.032C360.12 211.984 362.786 211.946 365.463 211.926L373.472 211.897L381.482 211.926C384.149 211.946 386.815 211.974 389.492 212.032Z" fill="#DBDBDB"/>
<path d="M363.97 201.062H332.895V209.726H363.97V201.062Z" fill="#455A64"/>
<path d="M381.582 201.062H363.965V209.726H381.582V201.062Z" fill="#455A64"/>
<path d="M363.97 201.954H332.895V208.818H363.97V201.954Z" fill="white"/>
<path d="M334.902 203.373C337.328 203.325 339.745 203.286 342.171 203.267L349.439 203.238L356.707 203.267C359.133 203.286 361.55 203.315 363.976 203.373C361.55 203.421 359.133 203.46 356.707 203.479L349.439 203.508L342.171 203.479C339.745 203.46 337.328 203.431 334.902 203.373Z" fill="#DBDBDB"/>
<path d="M334.902 204.72C337.328 204.672 339.745 204.633 342.171 204.614L349.439 204.585L356.707 204.614C359.133 204.633 361.55 204.662 363.976 204.72C361.55 204.768 359.133 204.806 356.707 204.826L349.439 204.855L342.171 204.826C339.745 204.806 337.328 204.777 334.902 204.72Z" fill="#DBDBDB"/>
<path d="M334.902 206.067C337.328 206.019 339.745 205.981 342.171 205.961L349.439 205.933L356.707 205.961C359.133 205.981 361.55 206.01 363.976 206.067C361.55 206.116 359.133 206.154 356.707 206.173L349.439 206.202L342.171 206.173C339.745 206.154 337.328 206.125 334.902 206.067Z" fill="#DBDBDB"/>
<path d="M334.902 207.414C337.328 207.366 339.745 207.327 342.171 207.308L349.439 207.279L356.707 207.308C359.133 207.327 361.55 207.366 363.976 207.414C361.55 207.462 359.133 207.501 356.707 207.52L349.439 207.549L342.171 207.52C339.745 207.501 337.328 207.472 334.902 207.414Z" fill="#DBDBDB"/>
<path d="M339.271 204.173V211.932L342.381 209.333L345.49 211.932V204.173C345.49 203.73 345.847 203.374 346.289 203.374H340.061C339.618 203.374 339.262 203.73 339.262 204.173H339.271Z" fill="#263238"/>
<path d="M190.982 248.544L256.091 258.526C390.693 166.31 139.018 117.164 123.976 99.4733C111.948 85.3278 82.3596 100.18 87.1483 110.057L170.558 149.816L141.276 179.352L216.193 206.126L190.982 248.544Z" fill="#951915"/>
<path d="M255.094 308.876C412.567 275.064 389.018 149.939 382.157 92.1906L373.597 83.9936C363.375 168.737 209.663 103.727 151.743 86.2499C105.406 72.2682 85.9336 100.682 86.1523 110.633C87.1143 104.828 93.4946 93.7103 111.319 95.678C133.6 98.1375 136.885 135.605 128.851 144.645C120.818 153.685 128.943 184.844 144.574 178.571C160.205 172.297 172.287 175.16 175.718 180.743C179.15 186.327 186.557 187.638 182.031 219.907C177.506 252.175 195.424 249.624 201.75 249.069C208.076 248.514 220.864 232.193 234.352 246.211C245.142 257.425 262.649 301.839 255.094 308.876Z" fill="#DC433E"/>
<path d="M325.59 139.653C306.942 167.439 247.601 213.176 159.422 173.835C196.533 194.445 281.722 216.461 325.59 139.653Z" fill="#C73632"/>
<path d="M226.195 136.129C226.72 135.921 227.205 135.708 227.649 135.494C227.163 135.713 226.679 135.925 226.195 136.129C215.956 140.194 190.459 142.627 158.921 123.378C168.167 133.354 194.394 149.612 226.195 136.129Z" fill="#C73632"/>
<path d="M333.621 158.563C328.661 185.082 299.288 237.843 221.476 236.737C255.514 240.204 325.597 229.425 333.621 158.563Z" fill="#C73632"/>
<path d="M265.783 188.953C268.876 182.822 275.426 176.552 278.314 174.184L288.12 179.486C287.962 183.523 287.319 191.844 286.011 192.825C284.703 193.806 283.624 193.144 283.247 192.69C283.187 195.315 281.573 199.919 275.598 197.338C268.13 194.111 265.826 191.345 265.623 190.336C265.462 189.529 265.662 189.077 265.783 188.953Z" fill="#FFBF9D"/>
<path d="M495.386 26.766C491.256 33.0954 488.915 42.7912 488.26 46.8479L498.768 53.2577C502.533 50.8786 510.114 45.6738 510.323 43.8872C510.532 42.1006 509.3 41.438 508.658 41.3301C511.129 39.8239 514.624 35.7456 508.841 31.4824C501.613 26.1534 497.692 25.4861 496.618 25.8506C495.758 26.1421 495.438 26.5824 495.386 26.766Z" fill="#FFBF9D"/>
<path d="M394.462 68.0109C394.311 76.9946 393.069 82.4235 385.821 86.8968C393.332 92.1369 398.191 106.996 403.856 114.768C407.468 110.004 413.203 102.104 413.203 102.104C404.089 97.7657 413.997 87.83 410.526 86.2487L394.462 68.0109Z" fill="#FFBF9D"/>
<path opacity="0.2" d="M401.522 78.7049L411.271 87.4775C410.801 89.0589 410.475 90.6798 410.299 92.3202C406.551 91.6814 401.492 87.4156 401.194 83.4649C401.013 81.8714 401.125 80.2585 401.522 78.7049Z" fill="black"/>
<path d="M394.623 55.7149C394.163 67.881 396.96 67.2956 400.257 78.9791C401.322 79.8449 403.929 85.1871 407.374 86.992C412.731 88.6665 414.139 89.1323 417.173 88.1355C420.466 85.2964 424.764 82.1126 426.439 77.3114C430.082 66.8644 430.211 48.7367 418.903 42.3703C407.771 36.0883 395.088 43.5792 394.623 55.7149Z" fill="#FFBF9D"/>
<path d="M409.128 44.3264L410.979 34.0728C408.15 34.6427 405.219 34.3007 402.603 33.0955C391.429 27.359 380.475 32.7852 384.332 40.8443C378.136 41.9058 379.316 50.3916 381.841 56.234C385.344 64.364 390.103 68.981 394.681 66.7819C398.543 65.9491 402.031 54.1455 401.989 49.464C401.929 42.3738 409.128 44.3264 409.128 44.3264Z" fill="black"/>
<path d="M388.921 66.9458C390.205 69.6444 392.39 71.8241 395.103 73.1144C398.56 74.66 400.227 71.5463 399.216 67.8672C398.3 64.5541 395.395 59.761 391.951 59.7719C388.507 59.7828 387.285 63.5511 388.921 66.9458Z" fill="#FFBF9D"/>
<path d="M409.299 60.4944C409.215 61.4498 409.673 62.3062 410.326 62.3974C410.979 62.4885 411.576 61.7855 411.66 60.8301C411.744 59.8747 411.286 59.0182 410.635 58.9206C409.984 58.8231 409.391 59.5346 409.299 60.4944Z" fill="#263238"/>
<path d="M420.416 61.9451C420.322 62.9058 420.748 63.7462 421.375 63.8291C422.002 63.912 422.584 63.2097 422.678 62.249C422.773 61.2883 422.34 60.4459 421.72 60.365C421.099 60.2841 420.507 60.9973 420.416 61.9451Z" fill="#263238"/>
<path d="M407.764 57.5986C407.672 57.5595 407.593 57.4974 407.533 57.4186C407.489 57.3572 407.457 57.2878 407.439 57.2143C407.422 57.1409 407.42 57.0649 407.432 56.9906C407.445 56.9163 407.473 56.8453 407.514 56.7816C407.555 56.7178 407.608 56.6626 407.671 56.6191C408.407 56.081 409.267 55.7288 410.176 55.5937C411.086 55.4585 412.015 55.5447 412.883 55.8445C412.955 55.8718 413.021 55.9129 413.076 55.9655C413.131 56.018 413.175 56.0808 413.204 56.1502C413.234 56.2196 413.249 56.2941 413.249 56.3693C413.249 56.4444 413.233 56.5187 413.202 56.5877C413.143 56.7268 413.03 56.8373 412.887 56.8953C412.745 56.9533 412.585 56.9541 412.441 56.8975C411.757 56.6721 411.026 56.6136 410.313 56.7269C409.601 56.8403 408.928 57.1221 408.353 57.5479C408.269 57.6086 408.17 57.6455 408.066 57.6545C407.962 57.6634 407.857 57.6441 407.764 57.5986Z" fill="#263238"/>
<path d="M424.51 60.1931C424.416 60.1892 424.325 60.1621 424.244 60.1144C424.163 60.0667 424.095 59.9998 424.047 59.9198C423.681 59.2839 423.174 58.738 422.565 58.3237C421.957 57.9094 421.261 57.6374 420.533 57.5284C420.452 57.532 420.371 57.5188 420.296 57.4895C420.22 57.4602 420.152 57.4156 420.095 57.3585C420.037 57.3014 419.993 57.2331 419.964 57.158C419.935 57.083 419.922 57.0028 419.926 56.9227C419.931 56.8425 419.952 56.7643 419.989 56.693C420.025 56.6217 420.077 56.5589 420.139 56.5087C420.202 56.4584 420.275 56.4219 420.353 56.4015C420.431 56.3811 420.513 56.3771 420.593 56.39C421.508 56.5061 422.385 56.8324 423.153 57.3428C423.921 57.8532 424.559 58.5337 425.017 59.3303C425.097 59.4597 425.122 59.6147 425.087 59.7616C425.052 59.9085 424.959 60.0353 424.83 60.1146C424.733 60.1697 424.622 60.1969 424.51 60.1931Z" fill="#263238"/>
<path d="M401.616 34.2082C401.616 34.2082 414.755 20.9424 428.994 28.9474C428.994 28.9474 425.872 28.6955 424.288 29.4091C424.288 29.4091 437.961 32.4094 439.187 43.0572L437.109 40.7644C437.109 40.7644 438.077 49.5727 432.511 53.4355L432.567 50.6373C432.567 50.6373 425.006 55.6934 417.473 51.2321L420.728 50.6861C420.728 50.6861 406.852 45.878 404.5 41.2192C402.148 36.5605 401.616 34.2082 401.616 34.2082Z" fill="black"/>
<path d="M417.121 61.4043C417.121 61.4043 418.76 67.2792 420.904 70.3019C419.045 71.6729 416.214 70.5519 416.214 70.5519L417.121 61.4043Z" fill="#FFAC80"/>
<path d="M418.171 75.8473C418.128 75.8006 418.076 75.7629 418.019 75.7365C417.961 75.71 417.898 75.6954 417.835 75.6934C414.686 75.6893 412.801 72.3321 412.782 72.3024C412.717 72.2093 412.62 72.1436 412.509 72.1176C412.398 72.0916 412.281 72.1073 412.181 72.1616C412.081 72.2159 412.005 72.3051 411.966 72.4122C411.928 72.5192 411.93 72.6368 411.972 72.7424C412.062 72.9006 414.136 76.6036 417.835 76.6208C417.956 76.6243 418.074 76.5803 418.163 76.4983C418.252 76.4162 418.306 76.3025 418.312 76.1816C418.312 76.1193 418.299 76.0577 418.275 76.0004C418.251 75.943 418.216 75.891 418.171 75.8473Z" fill="#263238"/>
<path d="M387.71 81.5443L374.099 117.332C371.48 121.372 368.338 125.047 364.753 128.26L338.324 151.867C338.324 151.867 323.644 164.571 324.864 168.061C326.083 171.551 344.363 179.803 344.363 179.803L372.262 191.528C372.885 191.789 373.584 191.8 374.216 191.56C374.847 191.32 375.362 190.847 375.655 190.238L395.551 148.577C395.903 145.083 398.729 139.201 399.378 136.9L404.942 118.989L409.892 110.768L413.7 101.86L410.959 99.7924L409.472 98.6087C409.472 98.6087 406.362 99.485 404.512 98.9014C403.706 98.6469 402.573 97.9367 402.573 97.9367C402.573 97.9367 399.453 96.1556 397.9 94.5248C396.341 92.8874 395.758 91.8839 394.71 90.0084C393.662 88.1329 393.343 87.1137 393.026 85.0564C392.741 83.2019 392.578 80.1193 392.578 80.1193L387.71 81.5443Z" fill="#DADADA"/>
<path d="M408.274 109.215C406.653 109.431 405.017 109.519 403.382 109.479L403.143 109.485L403.162 109.24L403.345 106.536C403.504 104.492 403.656 102.55 403.804 101.184C403.833 100.438 403.942 99.6962 404.129 98.9727C404.211 99.7162 404.212 100.467 404.131 101.21C404.077 102.579 403.975 104.476 403.82 106.565L403.609 109.316L403.389 109.077C405.018 109.005 406.651 109.051 408.274 109.215Z" fill="#263238"/>
<path d="M385.848 87.9648C386.056 88.3036 386.232 88.6618 386.372 89.0344L387.724 91.9729C388.869 94.4788 390.522 97.906 392.568 101.56C393.333 102.934 394.127 104.262 394.817 105.442L394.462 105.398C396.675 103.204 398.589 101.33 399.953 100.016C400.597 99.4055 401.134 98.9007 401.575 98.4863C401.759 98.2923 401.966 98.1209 402.191 97.9753C402.047 98.2014 401.876 98.4088 401.681 98.5925C401.267 99.0335 400.763 99.5696 400.162 100.216C398.857 101.555 396.974 103.501 394.74 105.693L394.545 105.894L394.393 105.654C393.658 104.458 392.881 103.14 392.115 101.765C390.362 98.6299 388.784 95.3996 387.388 92.0894C386.855 90.8232 386.456 89.7757 386.191 89.0529C386.037 88.7039 385.922 88.339 385.848 87.9648Z" fill="#263238"/>
<path d="M403.28 119.653C396.089 131.252 384.442 149.964 383.755 151.105C383.067 152.247 381.989 153.223 380.543 158.503C379.885 160.906 378.337 165.262 376 169.144L362.666 191.288C361.55 193.142 348.722 216.085 348.722 216.085C342.495 226.427 342.29 228.325 342.746 228.599C343.202 228.874 349.804 232.224 354.911 234.553C359.959 236.854 367.82 239.674 369.194 239.981C370.568 240.288 378.119 242.049 378.312 241.178C378.32 235.985 380.869 226.336 381.887 218.901C383.202 209.298 383.049 206.363 386.907 193.857C388.935 187.281 390.192 184.4 395.344 175.844L403.487 162.321C412.138 147.954 430.613 126.75 429.333 122.88C428.052 119.011 427.702 119.397 423.282 114.87C418.862 110.342 413.358 102.629 413.696 101.901C414.034 101.173 410.466 107.775 410.466 107.775C410.466 107.775 406.131 115.053 403.28 119.653Z" fill="#263238" stroke="white" stroke-opacity="0.43" stroke-width="0.25"/>
<path fill-rule="evenodd" clip-rule="evenodd" d="M387.626 81.3472C387.626 81.3472 385.549 89.7718 384.01 95.0243C381.874 102.318 380.724 106.724 379.65 117.268C378.634 127.244 379.51 133.189 380.988 143.209C381.072 143.78 381.159 144.365 381.246 144.964C381.37 145.803 381.565 146.494 381.752 147.152C382.051 148.207 382.325 149.176 382.237 150.534C381.885 155.913 378.17 165.12 378.17 165.12L374.415 172.221L370.507 178.711L364.375 188.895C364.375 188.895 354.647 205.051 348.876 216.245C346.665 220.534 345.167 222.405 341.19 225.918C337.214 229.43 316.176 214.897 316.176 214.897L293.428 201.2C293.002 200.943 294.743 199.536 297.114 197.619C299.806 195.442 303.311 192.608 305.379 190.055C307.814 187.049 310.098 184.776 312.281 182.602C315.579 179.32 318.647 176.265 321.661 171.259C329.407 158.396 337.835 132.215 337.835 132.215L369.406 84.1977C369.406 84.1977 376.697 83.4522 379.001 83.3036C383.198 83.0328 387.626 81.3472 387.626 81.3472Z" fill="#263238"/>
<path d="M384.01 95.0243L383.89 94.9891L384.01 95.0243ZM387.626 81.3472L387.582 81.2304L387.805 81.1456L387.748 81.3772L387.626 81.3472ZM379.65 117.268L379.526 117.255L379.65 117.268ZM380.988 143.209L380.864 143.227L380.864 143.227L380.988 143.209ZM381.246 144.964L381.37 144.946L381.246 144.964ZM381.752 147.152L381.872 147.118L381.752 147.152ZM382.237 150.534L382.112 150.526L382.237 150.534ZM378.17 165.12L378.287 165.167L378.281 165.178L378.17 165.12ZM374.415 172.221L374.525 172.28L374.522 172.286L374.415 172.221ZM364.375 188.895L364.482 188.96L364.375 188.895ZM348.876 216.245L348.987 216.303L348.987 216.303L348.876 216.245ZM341.19 225.918L341.273 226.011L341.19 225.918ZM316.176 214.897L316.24 214.79L316.247 214.794L316.176 214.897ZM297.114 197.619L297.035 197.521L297.114 197.619ZM305.379 190.055L305.476 190.134L305.379 190.055ZM312.281 182.602L312.193 182.514L312.281 182.602ZM337.835 132.215L337.716 132.177L337.721 132.16L337.731 132.146L337.835 132.215ZM369.406 84.1977L369.301 84.129L369.334 84.0794L369.393 84.0733L369.406 84.1977ZM379.001 83.3036L379.009 83.4283L379.001 83.3036ZM383.89 94.9891C384.659 92.365 385.563 88.9474 386.274 86.1849C386.63 84.8039 386.938 83.5869 387.156 82.7152C387.266 82.2794 387.353 81.9299 387.413 81.6893C387.442 81.5691 387.466 81.4761 387.481 81.4131C387.489 81.3816 387.495 81.3577 387.499 81.3416C387.501 81.3335 387.502 81.3275 387.503 81.3234C387.504 81.3214 387.504 81.3199 387.504 81.3188C387.505 81.3183 387.505 81.3179 387.505 81.3177C387.505 81.3176 387.505 81.3175 387.505 81.3174C387.505 81.3173 387.505 81.3173 387.626 81.3472C387.748 81.3772 387.748 81.3772 387.748 81.3773C387.748 81.3773 387.747 81.3774 387.747 81.3776C387.747 81.3778 387.747 81.3782 387.747 81.3787C387.747 81.3797 387.747 81.3813 387.746 81.3833C387.745 81.3874 387.744 81.3935 387.742 81.4016C387.738 81.4177 387.732 81.4417 387.724 81.4732C387.708 81.5362 387.685 81.6293 387.655 81.7496C387.595 81.9903 387.508 82.34 387.399 82.7761C387.18 83.6481 386.872 84.8656 386.516 86.2473C385.804 89.0102 384.9 92.4311 384.13 95.0594L383.89 94.9891ZM379.526 117.255C380.601 106.702 381.753 102.288 383.89 94.9891L384.13 95.0594C381.996 102.347 380.848 106.746 379.774 117.281L379.526 117.255ZM380.864 143.227C379.387 133.206 378.508 127.248 379.526 117.255L379.774 117.281C378.76 127.24 379.634 133.172 381.112 143.191L380.864 143.227ZM381.123 144.982C381.035 144.383 380.949 143.798 380.864 143.227L381.112 143.191C381.196 143.762 381.282 144.346 381.37 144.946L381.123 144.982ZM381.632 147.186C381.445 146.529 381.247 145.83 381.123 144.982L381.37 144.946C381.492 145.776 381.686 146.46 381.872 147.118L381.632 147.186ZM382.112 150.526C382.199 149.191 381.93 148.24 381.632 147.186L381.872 147.118C382.171 148.173 382.452 149.16 382.361 150.542L382.112 150.526ZM378.17 165.12C378.055 165.073 378.055 165.073 378.055 165.073C378.055 165.073 378.055 165.073 378.055 165.073C378.055 165.072 378.055 165.072 378.055 165.071C378.056 165.07 378.056 165.069 378.057 165.066C378.059 165.062 378.062 165.055 378.065 165.047C378.072 165.029 378.082 165.003 378.096 164.969C378.123 164.9 378.163 164.799 378.214 164.668C378.316 164.406 378.463 164.026 378.639 163.553C378.993 162.607 379.467 161.29 379.953 159.805C380.925 156.831 381.937 153.198 382.112 150.526L382.361 150.542C382.184 153.249 381.163 156.908 380.19 159.883C379.704 161.372 379.228 162.693 378.873 163.641C378.696 164.115 378.55 164.496 378.447 164.759C378.396 164.89 378.356 164.992 378.328 165.061C378.315 165.096 378.304 165.122 378.297 165.14C378.294 165.148 378.291 165.155 378.289 165.16C378.288 165.162 378.288 165.164 378.287 165.165C378.287 165.165 378.287 165.166 378.287 165.166C378.286 165.166 378.286 165.166 378.286 165.166C378.286 165.166 378.286 165.167 378.17 165.12ZM374.304 172.163L378.06 165.061L378.281 165.178L374.525 172.279L374.304 172.163ZM370.4 178.646L374.308 172.157L374.522 172.286L370.614 178.775L370.4 178.646ZM364.267 188.831L370.4 178.646L370.614 178.775L364.482 188.96L364.267 188.831ZM348.765 216.188C351.652 210.588 355.528 203.749 358.681 198.31C360.258 195.59 361.655 193.221 362.657 191.531C363.158 190.686 363.561 190.011 363.838 189.547C363.977 189.316 364.084 189.136 364.157 189.015C364.193 188.955 364.221 188.909 364.239 188.878C364.249 188.862 364.256 188.851 364.26 188.843C364.263 188.839 364.264 188.836 364.266 188.834C364.266 188.833 364.267 188.832 364.267 188.832C364.267 188.831 364.267 188.831 364.267 188.831C364.267 188.831 364.267 188.831 364.375 188.895C364.482 188.96 364.482 188.96 364.481 188.96C364.481 188.96 364.481 188.96 364.481 188.961C364.481 188.961 364.48 188.962 364.48 188.963C364.479 188.965 364.477 188.968 364.475 188.972C364.47 188.979 364.463 188.991 364.454 189.007C364.435 189.037 364.407 189.083 364.371 189.144C364.298 189.265 364.191 189.444 364.053 189.676C363.775 190.139 363.373 190.814 362.872 191.658C361.87 193.348 360.474 195.717 358.897 198.435C355.744 203.873 351.871 210.708 348.987 216.303L348.765 216.188ZM341.107 225.824C343.094 224.07 344.456 222.729 345.597 221.295C346.738 219.861 347.661 218.329 348.765 216.188L348.987 216.303C347.88 218.451 346.948 219.998 345.793 221.45C344.638 222.902 343.263 224.253 341.273 226.011L341.107 225.824ZM316.176 214.897C316.247 214.794 316.247 214.794 316.247 214.794C316.247 214.794 316.247 214.795 316.248 214.795C316.248 214.795 316.249 214.796 316.251 214.797C316.253 214.798 316.257 214.801 316.262 214.805C316.272 214.811 316.287 214.822 316.307 214.836C316.347 214.863 316.406 214.903 316.483 214.956C316.638 215.061 316.866 215.216 317.157 215.411C317.74 215.801 318.576 216.354 319.593 217.008C321.626 218.314 324.377 220.02 327.252 221.615C330.129 223.211 333.124 224.694 335.645 225.559C336.906 225.992 338.042 226.267 338.982 226.328C339.925 226.388 340.647 226.23 341.107 225.824L341.273 226.011C340.739 226.483 339.934 226.639 338.966 226.577C337.994 226.515 336.834 226.231 335.563 225.796C333.022 224.923 330.011 223.432 327.131 221.834C324.25 220.235 321.493 218.526 319.458 217.218C318.44 216.564 317.602 216.009 317.018 215.618C316.726 215.423 316.498 215.268 316.343 215.163C316.265 215.11 316.206 215.069 316.166 215.042C316.146 215.028 316.13 215.017 316.12 215.01C316.115 215.007 316.111 215.004 316.109 215.003C316.107 215.002 316.106 215.001 316.106 215.001C316.105 215 316.105 215 316.105 215C316.105 215 316.105 215 316.176 214.897ZM293.493 201.093L316.24 214.79L316.111 215.004L293.364 201.307L293.493 201.093ZM297.192 197.716C296.005 198.676 294.981 199.504 294.306 200.124C293.968 200.435 293.725 200.688 293.593 200.874C293.525 200.969 293.497 201.034 293.49 201.072C293.487 201.089 293.49 201.094 293.489 201.092C293.488 201.088 293.486 201.089 293.493 201.093L293.364 201.307C293.317 201.279 293.279 201.239 293.258 201.186C293.236 201.134 293.235 201.08 293.244 201.03C293.26 200.935 293.316 200.832 293.389 200.729C293.537 200.52 293.798 200.252 294.137 199.94C294.819 199.313 295.851 198.479 297.035 197.521L297.192 197.716ZM305.476 190.134C303.398 192.699 299.881 195.542 297.192 197.716L297.035 197.521C299.731 195.342 303.224 192.517 305.282 189.976L305.476 190.134ZM312.369 182.691C310.186 184.864 307.907 187.134 305.476 190.134L305.282 189.976C307.722 186.965 310.01 184.687 312.193 182.514L312.369 182.691ZM321.769 171.324C318.746 176.344 315.667 179.408 312.369 182.691L312.193 182.514C315.49 179.232 318.549 176.186 321.554 171.195L321.769 171.324ZM337.835 132.215C337.954 132.253 337.954 132.253 337.954 132.254C337.954 132.254 337.954 132.254 337.954 132.254C337.953 132.255 337.953 132.256 337.952 132.258C337.951 132.261 337.95 132.266 337.948 132.272C337.944 132.285 337.938 132.304 337.93 132.329C337.913 132.379 337.889 132.453 337.857 132.551C337.794 132.746 337.699 133.034 337.576 133.404C337.331 134.146 336.971 135.219 336.515 136.547C335.604 139.204 334.308 142.879 332.77 146.958C329.694 155.111 325.648 164.882 321.769 171.324L321.554 171.195C325.421 164.774 329.461 155.022 332.536 146.869C334.073 142.794 335.368 139.121 336.279 136.466C336.734 135.139 337.094 134.066 337.339 133.326C337.462 132.955 337.556 132.668 337.62 132.473C337.651 132.376 337.676 132.302 337.692 132.252C337.7 132.227 337.706 132.208 337.71 132.196C337.712 132.189 337.714 132.185 337.715 132.181C337.715 132.18 337.715 132.179 337.716 132.178C337.716 132.177 337.716 132.177 337.716 132.177C337.716 132.177 337.716 132.177 337.835 132.215ZM369.51 84.2664L337.939 132.284L337.731 132.146L369.301 84.129L369.51 84.2664ZM379.009 83.4283C377.859 83.5025 375.463 83.7258 373.351 83.9308C372.296 84.0332 371.313 84.1311 370.594 84.2033C370.234 84.2394 369.94 84.2691 369.736 84.2897C369.634 84.3001 369.555 84.3081 369.501 84.3136C369.474 84.3164 369.453 84.3185 369.439 84.3199C369.433 84.3206 369.427 84.3211 369.424 84.3215C369.422 84.3217 369.421 84.3218 369.42 84.3219C369.419 84.3219 369.419 84.322 369.419 84.322C369.419 84.322 369.419 84.322 369.419 84.322C369.419 84.322 369.419 84.322 369.406 84.1977C369.393 84.0733 369.393 84.0733 369.393 84.0733C369.393 84.0733 369.393 84.0733 369.393 84.0733C369.394 84.0733 369.394 84.0732 369.394 84.0732C369.395 84.0731 369.397 84.073 369.398 84.0728C369.402 84.0724 369.407 84.0719 369.414 84.0712C369.428 84.0698 369.449 84.0677 369.476 84.0649C369.53 84.0594 369.609 84.0513 369.711 84.041C369.915 84.0203 370.209 83.9906 370.569 83.9545C371.288 83.8823 372.272 83.7844 373.327 83.682C375.437 83.4771 377.838 83.2533 378.993 83.1788L379.009 83.4283ZM387.626 81.3472C387.671 81.4641 387.671 81.4641 387.671 81.4641C387.671 81.4641 387.67 81.4641 387.67 81.4642C387.67 81.4642 387.67 81.4643 387.67 81.4644C387.669 81.4646 387.668 81.465 387.667 81.4654C387.665 81.4662 387.662 81.4675 387.657 81.4691C387.649 81.4724 387.636 81.4772 387.619 81.4834C387.585 81.496 387.535 81.5143 387.47 81.5378C387.34 81.5847 387.15 81.6519 386.909 81.7333C386.426 81.8961 385.739 82.116 384.921 82.3443C383.285 82.8006 381.12 83.2922 379.009 83.4283L378.993 83.1788C381.079 83.0443 383.226 82.5576 384.854 82.1035C385.667 81.8766 386.35 81.6581 386.829 81.4964C387.068 81.4156 387.257 81.349 387.385 81.3026C387.45 81.2794 387.499 81.2613 387.532 81.249C387.549 81.2429 387.561 81.2382 387.569 81.2351C387.574 81.2335 387.577 81.2323 387.579 81.2316C387.58 81.2312 387.581 81.2309 387.581 81.2307C387.581 81.2306 387.581 81.2305 387.582 81.2305C387.582 81.2305 387.582 81.2304 387.582 81.2304C387.582 81.2304 387.582 81.2304 387.626 81.3472Z" fill="white" fill-opacity="0.43"/>
<path d="M303.515 119.457C311.398 110.923 332.673 92.1486 342.324 83.8285C343.229 83.0471 345.681 81.2394 348.246 80.2597C350.812 79.28 375.615 81.6699 381.391 83.5469L355.622 113.925L341.842 115.163C335.546 119.81 321.565 130.792 316.015 137.548C310.465 144.304 297.32 171.065 291.441 183.6L276.547 175.867C282.252 160.62 295.632 127.992 303.515 119.457Z" fill="#263238"/>
<path d="M489.533 42.4867C472.617 77.1842 425.747 122.235 420.633 111.91L405.387 147.329C457.537 137.364 495.824 72.9272 506.036 50.8059L489.533 42.4867Z" fill="#263238"/>
<path d="M364.998 197.445L358.808 181.758L396.001 107.262C396.001 107.262 396.963 108.044 398.4 108.416C399.992 108.827 401.7 108.547 401.7 108.547C401.7 108.547 385.617 190.321 385.775 191.113L364.998 197.445Z" fill="#263238"/>
<path d="M396.49 102.884L400.592 97.4632C400.592 97.4632 401.367 97.8365 401.937 97.9477C402.526 98.0628 403.597 98.0152 403.597 98.0152L404.033 104.745L401.655 108.582C401.655 108.582 399.887 108.557 398.609 108.26C397.399 107.978 395.92 107.291 395.92 107.291L396.49 102.884Z" fill="#263238"/>
<path d="M170.475 378.55C170.776 373.013 173.611 369.521 174.991 368.468L169.073 361.883L161.011 369.53L166.437 379.374C167.658 381.406 170.175 384.086 170.475 378.55Z" fill="white"/>
<path d="M298.026 360.32C298.391 353.604 301.83 349.368 303.504 348.09L296.325 340.102L286.545 349.378L293.127 361.32C294.608 363.785 297.661 367.037 298.026 360.32Z" fill="white"/>
<path d="M163.578 358.508L166.959 357.769C166.959 357.769 165.828 370.04 168.468 373.597C170.132 375.838 171.726 376.91 171.726 376.91C171.726 376.91 170.793 381.598 169.035 387.847C168.044 391.371 167.539 393.446 167.873 397.091C168.176 400.392 169.445 404.794 169.472 405.333C169.498 405.872 167.213 407.714 167.213 407.714C167.213 407.714 157.886 401.613 156.371 398.311C154.856 395.009 153.185 391.933 152.391 387.81C151.712 384.292 151.995 381.196 151.935 378.647C151.895 376.917 152.13 376.043 152.13 376.043L150.249 375.164C150.249 375.164 148.221 372.204 147.825 369.881C147.562 368.335 148.058 365.871 148.058 365.871C148.058 365.871 155.837 361.486 157.94 360.301C160.042 359.116 163.578 358.508 163.578 358.508Z" fill="#263238"/>
<path d="M395.329 318.261L377.346 239.925L378.426 226.72L298.012 196.873L287.549 214.995C265.966 255.469 197.263 330.322 163.241 358.163L179.303 379.034C200.951 365.883 242.171 328.494 257.407 314.986C269.595 304.179 319.701 258.613 329.804 236.863C332.785 259.401 358.162 309.471 360.333 312.925C362.503 316.379 360.271 318.614 358.883 319.3L293.197 341.746C291.991 348.781 295.75 358.535 297.78 362.532L372.948 345.561C396.349 339.86 397.619 324.985 395.329 318.261Z" fill="#263238"/>
<path d="M289.538 342.438L293.351 341.888C293.351 341.888 291.118 355.424 293.766 359.584C295.435 362.206 297.121 363.523 297.121 363.523C297.121 363.523 295.71 368.654 293.261 375.454C291.88 379.288 291.154 381.552 291.235 385.626C291.307 389.316 292.366 394.306 292.353 394.906C292.34 395.507 289.655 397.371 289.655 397.371C289.655 397.371 279.783 389.852 278.364 386.065C276.944 382.278 275.334 378.729 274.78 374.087C274.308 370.126 274.868 366.711 275.004 363.875C275.097 361.951 275.428 361 275.428 361L273.41 359.874C273.41 359.874 271.393 356.425 271.139 353.814C270.969 352.076 271.717 349.379 271.717 349.379C271.717 349.379 280.704 345.129 283.134 343.981C285.563 342.832 289.538 342.438 289.538 342.438Z" fill="#263238"/>
<path d="M357.759 80.5518C364.968 83.3223 381.159 87.6517 387.43 80.8393C384.704 87.3282 376.48 99.942 366.218 100.453C362.545 106.648 356.65 107.923 356.545 107.85C357.705 98.0599 363.021 90.2805 357.759 80.5518Z" fill="#DC433E"/>
<path d="M413.057 101.672C414.305 109.322 410.802 116.579 408.895 119.251C410.744 119.434 411.554 119.06 411.727 118.85C415.334 123.476 420.861 124.099 423.173 123.831C422.988 116.548 416.352 106.024 413.057 101.672Z" fill="#DC433E"/>
<path d="M542.373 18.5608L544.484 19.054L543.161 24.7169C542.951 25.6156 542.841 26.2041 542.831 26.4826C542.821 26.9317 542.955 27.3264 543.231 27.6668C543.513 28.0035 543.949 28.2407 544.539 28.3785C545.138 28.5185 545.618 28.5028 545.979 28.3314C546.341 28.1552 546.595 27.8961 546.74 27.5539C546.885 27.2117 547.054 26.627 547.247 25.7997L548.599 20.0155L550.71 20.5087L549.427 26.0005C549.134 27.2557 548.869 28.1292 548.634 28.6208C548.399 29.1124 548.085 29.5004 547.693 29.7848C547.305 30.0703 546.83 30.26 546.266 30.354C545.704 30.4433 545.009 30.3912 544.182 30.1979C543.183 29.9646 542.451 29.6733 541.986 29.324C541.527 28.9711 541.191 28.5765 540.977 28.1404C540.764 27.6996 540.657 27.2659 540.656 26.8396C540.658 26.2083 540.796 25.3078 541.069 24.1381L542.373 18.5608ZM552.179 31.8785L554.622 21.4228L558.01 22.2143C559.294 22.5142 560.118 22.7621 560.484 22.9578C561.046 23.2546 561.468 23.7142 561.749 24.3364C562.031 24.9538 562.074 25.6786 561.88 26.5107C561.73 27.1526 561.487 27.665 561.152 28.048C560.817 28.431 560.439 28.7063 560.019 28.8739C559.605 29.0378 559.203 29.1169 558.813 29.1111C558.286 29.0932 557.544 28.9726 556.588 28.7493L555.212 28.4277L554.29 32.3717L552.179 31.8785ZM556.32 23.6848L555.627 26.6518L556.782 26.9217C557.614 27.1161 558.183 27.1914 558.489 27.1476C558.796 27.1038 559.054 26.9837 559.266 26.7874C559.482 26.5922 559.626 26.34 559.698 26.031C559.787 25.6506 559.748 25.3107 559.583 25.0112C559.417 24.7118 559.17 24.4911 558.842 24.3493C558.601 24.2429 558.101 24.1008 557.34 23.9231L556.32 23.6848ZM563.659 34.5605L566.081 24.1904L568.193 24.6836L566.181 33.2921L571.431 34.5186L571.019 36.2802L563.659 34.5605ZM574.989 31.7623C575.238 30.6972 575.606 29.8405 576.094 29.1923C576.456 28.7153 576.891 28.313 577.399 27.9853C577.911 27.6588 578.436 27.4505 578.974 27.3605C579.689 27.2369 580.473 27.2745 581.324 27.4734C582.865 27.8333 583.984 28.5989 584.684 29.7701C585.387 30.9425 585.54 32.3797 585.143 34.0819C584.748 35.7699 583.981 36.9845 582.84 37.7258C581.7 38.4623 580.362 38.6512 578.826 38.2924C577.272 37.9291 576.146 37.1672 575.449 36.0066C574.754 34.8412 574.6 33.4265 574.989 31.7623ZM577.181 32.1992C576.905 33.3831 576.968 34.3457 577.371 35.0868C577.776 35.8232 578.399 36.2897 579.241 36.4863C580.082 36.6829 580.842 36.5421 581.521 36.0637C582.205 35.5818 582.689 34.7346 582.972 33.5221C583.252 32.3239 583.197 31.3684 582.807 30.6555C582.422 29.9437 581.794 29.4861 580.924 29.2828C580.054 29.0795 579.282 29.2152 578.61 29.6899C577.938 30.1598 577.462 30.9963 577.181 32.1992ZM596.688 42.2775L594.391 41.7409L594.033 39.1527L589.854 38.1762L588.436 40.3495L586.196 39.8263L592.712 30.3221L594.944 30.8436L596.688 42.2775ZM593.767 37.2327L593.233 33.0162L590.914 36.5662L593.767 37.2327ZM601.93 32.4759L605.789 33.3774C606.659 33.5807 607.307 33.8022 607.732 34.042C608.303 34.366 608.753 34.8097 609.083 35.3731C609.413 35.9365 609.613 36.5801 609.685 37.3038C609.758 38.0228 609.68 38.8721 609.451 39.8515C609.25 40.7122 608.969 41.4289 608.61 42.0018C608.171 42.7014 607.654 43.23 607.059 43.5874C606.609 43.8585 606.05 44.0211 605.38 44.0752C604.88 44.1138 604.24 44.0419 603.46 43.8598L599.487 42.9316L601.93 32.4759ZM603.628 34.7379L602.01 41.6632L603.586 42.0315C604.176 42.1692 604.609 42.2354 604.886 42.2299C605.249 42.2243 605.565 42.1454 605.837 41.9931C606.113 41.842 606.376 41.5501 606.628 41.1175C606.88 40.6801 607.101 40.0572 607.29 39.2489C607.479 38.4406 607.553 37.8035 607.511 37.3374C607.469 36.8714 607.349 36.4872 607.149 36.1847C606.948 35.8822 606.661 35.6421 606.286 35.4643C606.007 35.3289 605.437 35.1606 604.577 34.9595L603.628 34.7379Z" fill="#F4F4F4"/>
<path d="M491.543 367.417C491.543 367.417 468.842 362.268 456.397 350.81C443.952 339.342 437 318.808 437 318.808C437 318.808 450.367 321.254 462.458 325.491C464.486 327.669 468.359 332.143 470.161 336.381C470.161 336.381 470.547 331.907 470.225 328.592C473.465 330.083 476.276 331.735 478.315 333.495C488.635 342.517 491.543 367.407 491.543 367.407V367.417Z" fill="#94AAC0"/>
<path d="M451.186 328.797C448.096 326.652 444.942 324.592 441.863 322.425C441.68 322.296 441.852 322.006 442.045 322.124C447.892 325.622 453.664 329.355 459.243 333.26C461.184 334.623 463.094 336.039 464.982 337.487C464.853 337.262 464.725 337.037 464.585 336.811C463.909 335.674 463.191 334.548 462.472 333.432C461.023 331.19 459.457 328.98 457.655 326.995C457.59 326.92 457.698 326.813 457.762 326.888C459.532 328.926 461.292 330.943 462.912 333.11C463.684 334.14 464.392 335.202 465.068 336.296C465.422 336.865 465.765 337.434 466.087 338.013C466.194 338.206 466.312 338.399 466.43 338.603C469.37 340.91 472.224 343.313 474.949 345.855C476.633 347.422 478.253 349.052 479.819 350.726C478.94 347.98 478.178 345.201 477.159 342.497C477.127 342.401 477.277 342.369 477.309 342.465C478.296 345.297 479.38 348.151 480.141 351.069C481.879 352.947 483.542 354.899 485.108 356.916C485.087 356.798 485.055 356.669 485.023 356.551C484.765 355.479 484.497 354.417 484.207 353.354C483.649 351.305 483.049 349.256 482.362 347.25C480.946 343.12 479.101 339.086 476.268 335.728C476.204 335.653 476.311 335.545 476.376 335.621C480.806 340.867 483.413 347.164 485.066 353.773C485.312 354.738 485.538 355.715 485.763 356.68C485.881 357.195 486.02 357.721 486.106 358.247C486.793 359.169 487.469 360.113 488.112 361.068C492.05 366.936 495.129 373.341 497.714 379.907C500.632 387.299 502.896 394.926 504.988 402.586C505.031 402.737 504.806 402.79 504.752 402.64C500.31 389.359 495.783 375.884 488.177 364.008C486.567 361.497 484.84 359.083 482.995 356.755C479.262 356.541 475.496 355.736 471.956 354.556C468.04 353.258 464.349 351.445 460.895 349.213C458.899 347.926 457.075 346.424 455.219 344.933C455.134 344.868 455.219 344.74 455.316 344.815C458.384 347.411 462.075 349.449 465.722 351.112C469.381 352.786 473.243 354.095 477.169 354.953C478.843 355.318 480.549 355.586 482.244 355.822C480.141 353.236 477.91 350.769 475.55 348.409C474.788 347.647 473.994 346.907 473.2 346.177C470.593 344.278 467.707 342.766 464.81 341.371C461.088 339.569 457.429 337.67 453.75 335.792C451.668 334.741 449.609 333.657 447.517 332.627C447.431 332.584 447.516 332.456 447.602 332.499C451.336 334.301 455.123 335.985 458.889 337.713C462.429 339.333 466.023 340.963 469.424 342.873C469.574 342.959 469.703 343.045 469.853 343.13C466.774 340.448 463.598 337.906 460.337 335.438C457.322 333.164 454.275 330.943 451.175 328.797H451.186Z" fill="#263238" fill-opacity="0.22"/>
<path d="M452.475 340.503C454.321 341.307 456.198 342.026 458.033 342.884C459.91 343.764 461.691 344.794 463.472 345.845C463.547 345.888 463.472 346.006 463.397 345.963C461.584 345.094 459.749 344.29 457.958 343.389C456.123 342.466 454.31 341.479 452.422 340.653C452.336 340.61 452.379 340.46 452.465 340.503H452.475Z" fill="#263238" fill-opacity="0.22"/>
<path d="M565.286 253.021C565.286 253.021 558.914 260.317 558.506 271.871C558.431 273.909 558.753 276.742 558.989 280.078C550.524 284.595 544.173 292.738 544.173 292.738C548.979 289.852 555.577 288.682 559.139 289.154C559.021 291.354 558.763 293.628 558.27 295.935C556.693 295.849 553.657 296.053 548.647 297.834C548.647 297.834 553.571 297.705 557.326 299.561C553.281 312.435 541.255 325.663 508.04 331.274C508.04 331.274 501.635 308.723 513.919 284.53C523.875 264.951 565.286 253 565.286 253V253.021Z" fill="#94AAC0"/>
<path d="M496.542 386.376C497.122 380.872 497.84 375.39 498.688 369.93C500.383 358.998 502.593 348.119 505.382 337.412C506.702 332.359 508.279 327.413 510.178 322.596C510.049 321.727 510.071 320.816 510.06 319.936C510.038 318.874 510.028 317.812 510.049 316.75C510.071 314.625 510.178 312.501 510.35 310.377C510.704 306.193 511.347 301.998 512.388 297.921C513 295.55 513.697 293.222 514.394 290.884C514.426 290.787 514.566 290.83 514.544 290.927C513.375 294.971 512.699 299.187 512.088 303.361C511.487 307.491 511.122 311.654 510.972 315.827C510.929 316.964 510.907 318.112 510.907 319.249C510.907 319.732 510.929 320.225 510.95 320.719C512.581 316.771 514.426 312.898 516.551 309.132C519.898 303.178 523.749 297.524 527.923 292.128C527.88 291.517 528.073 290.862 528.191 290.272C528.352 289.532 528.513 288.792 528.674 288.051C529.017 286.539 529.392 285.026 529.811 283.524C530.637 280.509 531.731 277.602 532.664 274.63C532.697 274.534 532.836 274.577 532.815 274.673C531.935 277.613 531.356 280.66 530.68 283.653C530.347 285.133 530.025 286.614 529.693 288.094C529.532 288.835 529.371 289.575 529.221 290.315C529.21 290.369 529.199 290.422 529.188 290.476C530.53 288.781 531.903 287.107 533.297 285.466C539.638 278.031 546.59 271.165 553.595 264.353C554.454 263.516 555.333 262.7 556.213 261.874C556.288 261.81 556.385 261.917 556.32 261.982C549.637 268.955 543.049 276.014 536.806 283.406C535.325 285.165 533.866 286.936 532.428 288.738C533.179 288.223 533.941 287.73 534.692 287.236C536.623 285.97 538.586 284.736 540.593 283.61C542.61 282.483 544.637 281.378 546.708 280.348C548.843 279.297 551.117 278.439 553.166 277.237C553.252 277.184 553.327 277.334 553.241 277.377C551.117 278.246 549.143 279.565 547.18 280.735C545.163 281.936 543.135 283.138 541.151 284.404C539.198 285.637 537.235 286.861 535.293 288.126C533.673 289.178 532.085 290.326 530.411 291.291C526.581 296.258 522.977 301.397 519.769 306.783C517.741 310.173 515.918 313.66 514.265 317.211C514.662 317.039 515.059 316.868 515.456 316.696C516.465 316.245 517.484 315.795 518.492 315.344C520.445 314.475 522.408 313.628 524.371 312.78C528.094 311.16 531.881 309.669 535.529 307.899C537.578 306.901 539.595 305.85 541.494 304.584C541.58 304.53 541.644 304.659 541.569 304.723C534.756 309.422 527.129 312.726 519.587 316.063L516.315 317.511C515.413 317.908 514.512 318.348 513.59 318.702C511.369 323.68 509.491 328.808 507.968 334.097C504.943 344.643 502.636 355.425 500.737 366.228C498.827 377.075 497.551 387.996 496.542 398.96C496.414 400.334 496.296 401.696 496.135 403.059C496.07 403.606 495.266 403.606 495.266 403.037C495.33 397.469 495.899 391.89 496.478 386.355L496.542 386.376Z" fill="#263238" fill-opacity="0.22"/>
<path d="M516.743 294.65C517.354 291.27 518.255 287.966 519.156 284.662C519.178 284.565 519.328 284.608 519.307 284.705C518.47 287.945 517.869 291.26 517.258 294.553C516.635 297.911 516.088 301.28 515.616 304.659C515.616 304.713 515.52 304.713 515.52 304.659C515.734 301.301 516.142 297.965 516.743 294.65Z" fill="#263238" fill-opacity="0.22"/>
<path d="M531.067 303.811C533.32 302.213 535.841 301.011 538.287 299.745C539.5 299.123 540.723 298.522 541.946 297.932C543.212 297.321 544.52 296.806 545.776 296.183C545.862 296.14 545.937 296.269 545.851 296.323C544.638 296.934 543.48 297.675 542.289 298.318C541.055 298.994 539.832 299.67 538.598 300.335C536.174 301.644 533.781 303.082 531.228 304.144C531.003 304.24 530.853 303.961 531.046 303.822L531.067 303.811Z" fill="#263238" fill-opacity="0.22"/>
<path opacity="0.1" d="M491.137 328.102C491.137 328.102 470.131 323.081 460.486 308.995C451.27 295.542 448.299 272.594 448.062 270.577C448.438 272.422 452.772 292.474 467.073 301.818C478.016 308.974 488.605 314.853 491.137 328.102Z" fill="#263238" fill-opacity="0.22"/>
<path d="M471.743 291.806C475.434 295.368 478.212 299.552 479.489 304.562C479.5 304.605 479.435 304.626 479.425 304.583C477.848 299.916 475.241 295.325 471.647 291.924C471.572 291.859 471.679 291.741 471.754 291.806H471.743Z" fill="#263238" fill-opacity="0.22"/>
<path d="M491.139 328.1C491.139 328.1 470.133 323.079 460.488 308.993C451.272 295.54 448.3 272.592 448.064 270.575C448.043 270.478 448.043 270.436 448.043 270.436C448.043 270.436 458.117 284.758 468.706 288.405C479.294 292.053 494.175 304.691 491.139 328.1Z" fill="#94AAC0"/>
<path d="M451.756 278.332C453.708 282.152 455.746 285.95 458.246 289.436C460.681 292.837 463.621 295.734 466.882 298.33C469.736 300.594 472.751 302.653 475.637 304.874C475.615 304.842 475.594 304.799 475.572 304.767C475.025 303.962 474.446 303.179 473.856 302.417C472.654 300.883 471.335 299.435 470.015 297.997C467.408 295.165 464.737 292.387 462.398 289.318C461.1 287.623 459.963 285.81 459.029 283.89C458.986 283.804 459.137 283.75 459.18 283.836C462.591 290.938 469.393 295.476 474.242 301.473C474.929 302.332 475.583 303.211 476.184 304.123C476.602 304.778 477.117 305.496 477.396 306.258C480.035 308.425 482.481 310.786 484.563 313.5C484.391 312.116 484.091 310.743 483.715 309.423C483.189 307.546 482.514 305.775 481.484 304.102C481.43 304.016 481.559 303.93 481.612 304.016C482.599 305.679 483.49 307.46 484.058 309.305C484.52 310.807 484.745 312.298 484.82 313.843H484.831C485.882 315.259 486.805 316.75 487.674 318.274C487.588 317.823 487.502 317.373 487.416 316.933C486.998 314.841 486.537 312.749 486 310.689C484.895 306.505 483.415 302.45 480.947 298.856C480.894 298.77 481.022 298.684 481.076 298.77C483.511 302.31 485.346 306.269 486.676 310.346C487.341 312.405 487.878 314.508 488.35 316.622C488.575 317.652 488.79 318.692 488.983 319.733C489.09 320.269 489.197 320.816 489.294 321.374C491.439 325.912 492.952 330.783 494.143 335.611C496.289 344.311 497.619 353.27 498.627 362.174C499.679 371.518 500.226 380.97 500.076 390.379C500.054 391.559 499.99 392.739 499.926 393.919C499.904 394.219 499.454 394.262 499.443 393.951C499.239 389.295 499.121 384.628 498.842 379.972C498.563 375.305 498.166 370.66 497.662 366.015C496.686 356.906 495.269 347.809 493.285 338.861C491.579 331.18 489.369 323.456 485.174 316.718C483.071 313.35 480.55 310.356 477.6 307.706C474.65 305.067 471.431 302.75 468.331 300.293C465.241 297.858 462.269 295.208 459.823 292.118C457.184 288.782 455.103 285.038 453.139 281.272C452.646 280.317 452.131 279.373 451.638 278.429C451.595 278.343 451.723 278.257 451.766 278.343L451.756 278.332Z" fill="#263238" fill-opacity="0.22"/>
<path d="M455.384 281.411C456.736 284.254 458.356 286.957 460.062 289.596C460.105 289.661 460.008 289.725 459.965 289.661C458.131 287.075 456.607 284.307 455.234 281.464C455.191 281.378 455.341 281.325 455.384 281.411Z" fill="#263238" fill-opacity="0.22"/>
<path d="M568.216 318.808C568.216 318.808 568.549 348.654 550.697 357.279C532.845 365.905 523.275 358.717 511.152 361.603C511.152 361.603 511.163 361.603 511.174 361.592C511.646 360.884 520.304 348.439 534.068 345.017C548.229 341.487 563.925 331.252 568.216 318.818V318.808Z" fill="#94AAC0"/>
<path opacity="0.1" d="M568.216 318.808C568.216 318.808 568.549 348.654 550.697 357.279C532.845 365.905 523.275 358.717 511.152 361.603C511.152 361.603 511.163 361.603 511.174 361.592C511.678 361.345 520.529 356.915 531.472 355.606C542.726 354.254 564.225 346.916 568.216 318.808Z" fill="black"/>
<path d="M509.972 362.141C512.096 360.22 514.489 358.568 517.074 357.335C517.46 357.152 517.847 357.002 518.243 356.841C518.437 356.605 518.63 356.38 518.844 356.154C519.381 355.597 519.939 355.06 520.529 354.556C521.655 353.59 522.846 352.711 524.123 351.97C527.084 350.232 530.324 349.02 533.338 347.4C533.424 347.357 533.499 347.486 533.413 347.54C531.922 348.312 530.474 349.17 529.015 350.018C527.599 350.844 526.15 351.627 524.777 352.518C523.543 353.311 522.352 354.202 521.247 355.167C520.936 355.446 520.636 355.736 520.336 356.047C522.299 355.371 524.326 354.856 526.365 354.449C529.637 353.783 532.941 353.322 536.203 352.625C537.801 352.282 539.389 351.852 540.934 351.348C542.414 350.157 543.895 348.966 545.3 347.679C546.995 346.113 548.551 344.418 549.913 342.562C549.967 342.487 550.107 342.562 550.042 342.648C547.843 345.491 545.483 348.355 542.725 350.726C543.498 350.436 544.26 350.125 545.011 349.782C551.072 347.025 556.468 342.648 560.223 337.133C560.277 337.047 560.416 337.133 560.352 337.219C557.08 341.95 552.939 345.995 548.047 349.031C545.59 350.554 543.004 351.799 540.269 352.711C537.125 353.762 533.864 354.384 530.613 354.996C527.427 355.597 524.23 356.197 521.151 357.249C518.308 358.214 515.626 359.62 513.223 361.422C508.631 364.866 505.08 369.576 502.527 374.682C499.147 381.462 497.538 389.037 496.637 396.504C496.594 396.825 496.1 396.825 496.122 396.493C496.959 383.941 500.317 370.884 509.983 362.173L509.972 362.141Z" fill="#263238" fill-opacity="0.22"/>
<path d="M530.691 352.398C531.581 350.971 532.922 349.909 534.36 349.072C536.044 348.096 537.557 347.044 538.726 345.457C538.79 345.382 538.919 345.457 538.855 345.542C537.782 346.926 536.484 348.064 535.003 348.997C533.448 349.973 531.871 350.928 530.809 352.473C530.766 352.537 530.648 352.473 530.701 352.409L530.691 352.398Z" fill="#263238" fill-opacity="0.22"/>
<path d="M521.215 384.165L520.411 400.579L517.922 450.734H480.469L477.98 400.579L477.176 384.165H521.215Z" fill="#808C93"/>
<path d="M521.215 384.165L520.636 395.88L477.83 397.436L477.176 384.165H521.215Z" fill="#263238" fill-opacity="0.22"/>
<path d="M523.843 377.32H474.547V392.984H523.843V377.32Z" fill="#808C93"/>
</svg>
