<svg width="22" height="19" viewBox="0 0 22 19" fill="none" xmlns="http://www.w3.org/2000/svg">
<path d="M20.7502 0.5C20.5513 0.5 20.3606 0.579018 20.2199 0.71967C20.0793 0.860322 20.0002 1.05109 20.0002 1.25V16.25C20.0001 16.4489 19.921 16.6395 19.7804 16.7801C19.6398 16.9207 19.4491 16.9998 19.2502 17H1.25024C1.05133 17 0.860566 17.079 0.719914 17.2197C0.579262 17.3603 0.500244 17.5511 0.500244 17.75C0.500244 17.9489 0.579262 18.1397 0.719914 18.2803C0.860566 18.421 1.05133 18.5 1.25024 18.5H19.2502C19.8468 18.4993 20.4187 18.2621 20.8405 17.8403C21.2623 17.4185 21.4996 16.8465 21.5002 16.25V1.25C21.5002 1.05109 21.4212 0.860322 21.2806 0.71967C21.1399 0.579018 20.9492 0.5 20.7502 0.5Z" fill="#595656"/>
<path d="M1.25008 15.5C1.36223 15.5001 1.47296 15.475 1.57412 15.4265C1.67528 15.3781 1.76428 15.3076 1.83456 15.2202L6.63778 9.25608L10.5607 12.0972C10.6415 12.1557 10.7333 12.1976 10.8306 12.2202C10.9279 12.2429 11.0287 12.2459 11.1272 12.229C11.2256 12.2122 11.3197 12.1758 11.4039 12.1221C11.4881 12.0684 11.5608 11.9984 11.6176 11.9163L15.0391 6.95996L17.4951 7.84908C17.5879 7.88336 17.6865 7.89894 17.7854 7.89493C17.8842 7.89091 17.9813 7.86738 18.071 7.82569C18.1607 7.784 18.2413 7.72497 18.3081 7.65201C18.3749 7.57905 18.4266 7.49358 18.4603 7.40055C18.4939 7.30752 18.5088 7.20875 18.5041 7.10993C18.4994 7.01111 18.4752 6.9142 18.4329 6.82478C18.3906 6.73536 18.331 6.65519 18.2576 6.58889C18.1842 6.52259 18.0983 6.47147 18.0051 6.43848L15.0051 5.35226C14.8493 5.29597 14.6792 5.29283 14.5214 5.34331C14.3636 5.39379 14.227 5.49506 14.1328 5.63133L10.8186 10.4324L6.93988 7.62348C6.78441 7.51006 6.59118 7.46101 6.40044 7.48653C6.20969 7.51206 6.03616 7.6102 5.91598 7.76051L0.665983 14.2797C0.577109 14.3899 0.521232 14.5229 0.504816 14.6635C0.4884 14.8041 0.512116 14.9464 0.57322 15.0741C0.634324 15.2017 0.73032 15.3095 0.850102 15.3848C0.969884 15.4602 1.10856 15.5001 1.25008 15.5Z" fill="#595656"/>
</svg>
