<svg width="16" height="16" viewBox="0 0 16 16" fill="none" xmlns="http://www.w3.org/2000/svg">
<g id="noun-user-781601 1" clip-path="url(#clip0_422_813)">
<g id="Group">
<g id="Group_2">
<path id="Vector" fill-rule="evenodd" clip-rule="evenodd" d="M9.99789 7.74615C11.3321 7.06581 12.2446 5.68806 12.2446 4.0992C12.2446 1.83527 10.392 0 8.10667 0C5.82135 0 3.96875 1.83527 3.96875 4.0992C3.96875 5.66095 4.85037 7.01872 6.1475 7.71072C2.69666 8.51808 0.11082 11.5312 0.00347006 15.1579C0.00116211 15.2359 0 15.3142 0 15.3927V16H0.853333H15.1467H16V15.3927C16 15.3142 15.9988 15.2359 15.9965 15.1579C15.8907 11.5823 13.3757 8.60314 9.99789 7.74615ZM11.3913 4.0992C11.3913 5.90107 9.91761 7.35627 8.10667 7.35627C6.29572 7.35627 4.82208 5.90107 4.82208 4.0992C4.82208 2.29731 6.29572 0.842105 8.10667 0.842105C9.91761 0.842105 11.3913 2.29731 11.3913 4.0992ZM8 8.34008C4.13263 8.34008 0.982737 11.3715 0.85722 15.1579H15.1428C15.0173 11.3715 11.8674 8.34008 8 8.34008Z" fill="#595656"/>
<path id="Vector 2" d="M7.87247 9.89925L6.96845 8.43942C6.90657 8.33949 6.97844 8.21045 7.09598 8.21045H8.90401C9.02154 8.21045 9.09341 8.33949 9.03153 8.43942L8.12752 9.89925C8.06888 9.99395 7.93111 9.99395 7.87247 9.89925Z" stroke="#595656"/>
<path id="Vector 3" d="M6.88933 11.7172L7.99341 10.4461C8.05321 10.3772 8.16011 10.3772 8.21991 10.4461L9.31936 11.7119C9.35993 11.7586 9.36766 11.8254 9.33881 11.8802L8.14395 14.1477C8.08558 14.2585 7.92523 14.2532 7.87424 14.1389L6.86558 11.8766C6.84184 11.8234 6.8511 11.7612 6.88933 11.7172Z" stroke="#595656"/>
</g>
</g>
</g>
<defs>
<clipPath id="clip0_422_813">
<rect width="16" height="16" fill="white"/>
</clipPath>
</defs>
</svg>
