<svg width="24" height="24" viewBox="0 0 24 24" fill="none" xmlns="http://www.w3.org/2000/svg">
<path d="M13.0972 5.97638C13.0401 5.84004 12.9439 5.72364 12.8208 5.64183C12.6977 5.56001 12.5532 5.51644 12.4054 5.5166H11.5946C11.4467 5.51644 11.3021 5.56007 11.179 5.642C11.0559 5.72392 10.9598 5.84046 10.9028 5.97693L7.99365 12.9214C7.97409 12.968 7.96417 13.0182 7.96448 13.0688C7.9648 13.1194 7.97534 13.1694 7.99548 13.2158L9.21436 16.0189C9.20124 16.0391 9.19015 16.0606 9.18127 16.0831L8.44848 18.299C8.43043 18.3553 8.42588 18.4151 8.43517 18.4735C8.44446 18.5319 8.46735 18.5874 8.50199 18.6353C8.53663 18.6832 8.58204 18.7224 8.63458 18.7496C8.68711 18.7767 8.7453 18.7912 8.80444 18.7918H15.0586C15.1153 18.7912 15.1713 18.7779 15.2222 18.7529C15.2731 18.7278 15.3177 18.6915 15.3527 18.6468C15.3877 18.6021 15.4121 18.5501 15.4242 18.4946C15.4363 18.4392 15.4358 18.3817 15.4226 18.3265L14.8733 16.1105C14.86 16.0612 14.8366 16.0151 14.8046 15.9753L16.0045 13.2158C16.0246 13.1694 16.0352 13.1194 16.0355 13.0688C16.0358 13.0182 16.0259 12.9681 16.0063 12.9214L13.0972 5.97638ZM9.32335 18.0418L9.80823 16.5758H14.2159L14.5792 18.0418H9.32335ZM14.0518 15.8258H9.94823L8.74694 13.0635L11.5946 6.26661C11.673 6.19811 11.6018 11.126 11.625 11.1205C11.2785 11.2116 10.9771 11.4258 10.777 11.723C10.5769 12.0202 10.4919 12.3801 10.5378 12.7354C10.5837 13.0908 10.7575 13.4172 11.0266 13.6538C11.2957 13.8903 11.6417 14.0208 12 14.0208C12.3583 14.0208 12.7043 13.8903 12.9734 13.6538C13.2425 13.4172 13.4163 13.0908 13.4622 12.7354C13.5082 12.3801 13.4231 12.0202 13.2231 11.723C13.023 11.4258 12.7215 11.2116 12.375 11.1205V6.26661H12.4057L15.253 13.0635L14.0518 15.8258ZM12 11.8162C12.1907 11.8183 12.3729 11.8956 12.507 12.0312C12.6411 12.1668 12.7163 12.3498 12.7163 12.5405C12.7163 12.7313 12.6411 12.9143 12.507 13.0499C12.3729 13.1855 12.1907 13.2628 12 13.2649C11.8093 13.2628 11.6271 13.1855 11.493 13.0499C11.3589 12.9143 11.2836 12.7312 11.2836 12.5405C11.2836 12.3498 11.3589 12.1668 11.493 12.0312C11.6271 11.8955 11.8093 11.8183 12 11.8162Z" fill="#595656"/>
<path d="M21.6881 10.7163H21.2893C21.0454 9.13563 20.4027 7.64319 19.4218 6.37988C18.441 5.11656 17.1544 4.12407 15.6834 3.4961H19.4394C19.5248 3.76375 19.7026 3.99232 19.941 4.14091C20.1794 4.28949 20.463 4.34841 20.7408 4.30713C21.0187 4.26584 21.2729 4.12704 21.4578 3.91555C21.6427 3.70407 21.7464 3.43369 21.7503 3.15277C21.7541 2.87186 21.6579 2.59873 21.4789 2.38225C21.2998 2.16576 21.0496 2.02004 20.7729 1.97114C20.4963 1.92224 20.2112 1.97335 19.9688 2.11533C19.7264 2.25732 19.5424 2.48092 19.4497 2.74613L13.6689 2.7461C13.5834 2.36359 13.3692 2.02202 13.0621 1.77847C12.7551 1.53492 12.3737 1.40416 11.9818 1.40804C11.5898 1.41192 11.2111 1.55021 10.9089 1.79979C10.6067 2.04937 10.3994 2.39512 10.3215 2.77924H4.50054C4.41154 2.51278 4.23064 2.28668 3.99021 2.14137C3.74979 1.99606 3.46551 1.94103 3.18822 1.9861C2.91093 2.03118 2.65872 2.17344 2.47671 2.38742C2.29469 2.60141 2.19473 2.87317 2.19472 3.1541C2.1947 3.43502 2.29463 3.70679 2.47662 3.9208C2.65862 4.13481 2.91081 4.27709 3.18809 4.3222C3.46537 4.36731 3.74966 4.3123 3.9901 4.16702C4.23055 4.02174 4.41147 3.79565 4.5005 3.52921L8.24592 3.52924C6.79234 4.16362 5.5227 5.15513 4.55499 6.41165C3.58727 7.66818 2.95288 9.14893 2.71075 10.7163H2.31189C2.11305 10.7165 1.92241 10.7956 1.78181 10.9362C1.64121 11.0768 1.56212 11.2675 1.56189 11.4663V12.8422C1.56212 13.041 1.64121 13.2316 1.78181 13.3722C1.92241 13.5129 2.11305 13.5919 2.31189 13.5922H2.71089C3.00776 15.5684 3.93049 17.3974 5.34358 18.8105C6.75667 20.2236 8.58564 21.1464 10.5619 21.4433V21.8422C10.5621 22.041 10.6412 22.2316 10.7818 22.3722C10.9224 22.5128 11.113 22.5919 11.3119 22.5922H12.6881C12.887 22.5919 13.0776 22.5128 13.2182 22.3722C13.3588 22.2316 13.4379 22.041 13.4381 21.8422V21.4433C15.4144 21.1464 17.2434 20.2236 18.6564 18.8105C20.0695 17.3974 20.9923 15.5684 21.2891 13.5922H21.6881C21.887 13.5919 22.0776 13.5128 22.2182 13.3722C22.3588 13.2316 22.4379 13.041 22.4381 12.8422V11.4663C22.4379 11.2675 22.3588 11.0768 22.2182 10.9362C22.0776 10.7956 21.887 10.7165 21.6881 10.7163ZM20.5642 2.70144C20.6788 2.70315 20.7881 2.74987 20.8685 2.8315C20.9489 2.91313 20.994 3.02311 20.994 3.1377C20.994 3.25228 20.9489 3.36226 20.8685 3.44389C20.7881 3.52551 20.6788 3.57222 20.5642 3.57393C20.4495 3.57239 20.3401 3.52575 20.2595 3.4441C20.179 3.36246 20.1338 3.25237 20.1338 3.13767C20.1338 3.02298 20.179 2.91289 20.2595 2.83125C20.3401 2.7496 20.4495 2.70298 20.5642 2.70144ZM3.38088 3.5904C3.2663 3.58868 3.15701 3.54197 3.07659 3.46034C2.99618 3.37872 2.9511 3.26873 2.9511 3.15415C2.9511 3.03956 2.99618 2.92958 3.07659 2.84795C3.15701 2.76633 3.2663 2.71961 3.38088 2.7179C3.49545 2.71961 3.60475 2.76633 3.68516 2.84795C3.76558 2.92958 3.81065 3.03956 3.81065 3.15415C3.81065 3.26873 3.76558 3.37872 3.68516 3.46034C3.60475 3.54197 3.49545 3.58868 3.38088 3.5904ZM12 2.15796C12.2536 2.1608 12.4958 2.26352 12.6741 2.44384C12.8524 2.62415 12.9524 2.86752 12.9524 3.12111C12.9524 3.3747 12.8524 3.61806 12.6741 3.79838C12.4958 3.97869 12.2536 4.0814 12 4.08423C11.7464 4.0814 11.5042 3.97867 11.3259 3.79836C11.1476 3.61804 11.0476 3.37467 11.0476 3.12108C11.0476 2.86749 11.1476 2.62413 11.3259 2.44382C11.5042 2.2635 11.7464 2.16079 12 2.15796ZM2.31189 12.8422V11.4663H3.00215C3.01444 11.4682 3.02696 11.4682 3.03925 11.4663H3.68814L3.68851 12.8422H2.31189ZM11.3119 21.8422V20.4663H12.6881L12.6885 21.8422H11.3119ZM13.4381 20.6845C13.4638 20.5703 13.464 20.4519 13.4386 20.3377C13.4132 20.2234 13.3629 20.1162 13.2912 20.0237C13.2196 19.9312 13.1283 19.8556 13.0241 19.8025C12.9198 19.7494 12.8051 19.7199 12.6881 19.7163H11.3119C11.113 19.7165 10.9224 19.7956 10.7818 19.9362C10.6412 20.0768 10.5621 20.2675 10.5619 20.4663V20.6845C8.78609 20.3935 7.1464 19.5526 5.874 18.2801C4.60159 17.0077 3.76064 15.368 3.46972 13.5922C3.5839 13.6179 3.70237 13.6181 3.81663 13.5928C3.9309 13.5674 4.03814 13.5171 4.13068 13.4454C4.22322 13.3737 4.29877 13.2825 4.35192 13.1782C4.40508 13.0739 4.43451 12.9591 4.43812 12.8421V11.4663C4.4379 11.2675 4.35881 11.0768 4.2182 10.9362C4.0776 10.7956 3.88697 10.7165 3.68812 10.7163H3.46945C3.76292 8.97453 4.58239 7.36428 5.81778 6.10185C7.05317 4.83942 8.64531 3.98529 10.3803 3.65418C10.4907 3.99696 10.707 4.29588 10.998 4.50793C11.2891 4.71998 11.6399 4.83423 12 4.83423C12.3601 4.83423 12.7109 4.71998 13.002 4.50793C13.293 4.29588 13.5093 3.99696 13.6197 3.65418C15.3547 3.98529 16.9468 4.83942 18.1822 6.10185C19.4176 7.36428 20.2371 8.97453 20.5306 10.7163C20.4164 10.6905 20.2979 10.6903 20.1836 10.7156C20.0693 10.741 19.962 10.7913 19.8694 10.863C19.7769 10.9347 19.7013 11.0259 19.6481 11.1302C19.595 11.2345 19.5655 11.3493 19.5619 11.4663V12.8421C19.5621 13.041 19.6412 13.2316 19.7818 13.3722C19.9224 13.5128 20.113 13.5919 20.3119 13.5921H20.5303C20.2394 15.368 19.3984 17.0077 18.126 18.2801C16.8536 19.5526 15.2139 20.3935 13.4381 20.6845ZM20.3119 12.8422V11.4663H20.9607C20.973 11.4682 20.9856 11.4682 20.9978 11.4663H21.6881L21.6885 12.8422H20.3119Z" fill="#595656"/>
</svg>
