<svg width="22" height="24" viewBox="0 0 22 24" fill="none" xmlns="http://www.w3.org/2000/svg">
<path d="M8.84635 8.68044H6.335V6.17263C6.335 5.98513 6.18287 5.83301 5.99537 5.83301L5.99405 5.83328L5.99272 5.83301C4.23358 5.83301 2.80212 7.26446 2.80212 9.0236C2.80212 10.7827 4.23358 12.2142 5.99272 12.2142C7.74755 12.2142 9.17569 10.7896 9.18268 9.03643C9.18296 9.03068 9.18597 9.02587 9.18597 9.02007C9.18597 8.83257 9.03385 8.68044 8.84635 8.68044ZM5.99272 11.535C4.60814 11.535 3.48137 10.4082 3.48137 9.0236C3.48137 7.75356 4.43026 6.70318 5.65575 6.53757V9.02007C5.65575 9.20757 5.80787 9.35969 5.99537 9.35969H8.47886C8.3137 10.5856 7.26307 11.535 5.99272 11.535Z" fill="#595656"/>
<path d="M7.19607 5.22485C7.10586 5.22485 7.01962 5.26067 6.95594 5.32435C6.89226 5.38803 6.85645 5.47471 6.85645 5.56448L6.85777 7.81846C6.85777 8.00596 7.00989 8.15808 7.19739 8.15808L9.45137 8.15941C9.54159 8.15941 9.62782 8.12359 9.6915 8.05991C9.75518 7.99623 9.791 7.91 9.791 7.81978C9.791 6.38877 8.62708 5.22485 7.19607 5.22485ZM7.53702 7.47883L7.53569 5.93417C8.32063 6.07524 8.94061 6.69522 9.08168 7.48016L7.53702 7.47883Z" fill="#595656"/>
<path d="M15.6869 15.0032C16.8226 14.3706 17.5935 13.1586 17.5935 11.7688C17.5935 9.8077 16.0553 8.20283 14.1212 8.08393V3.70156C14.5358 3.60483 14.8464 3.23414 14.8464 2.79049V1.88306C14.8464 1.3661 14.4259 0.945557 13.9089 0.945557H1.0824C0.565446 0.945557 0.144897 1.3661 0.144897 1.88306V2.79049C0.144897 3.23403 0.455278 3.60455 0.869691 3.70145V12.5573C0.869691 13.4037 1.55867 14.0927 2.40507 14.0927H7.15581V14.5981H6.9033C6.7158 14.5981 6.56368 14.7502 6.56368 14.9377C6.56368 15.1252 6.7158 15.2774 6.9033 15.2774H8.088C8.2755 15.2774 8.42762 15.1252 8.42762 14.9377C8.42762 14.7502 8.2755 14.5981 8.088 14.5981H7.83505V14.0927H11.0198C11.3173 14.4606 11.6833 14.77 12.0987 15.0021C8.58776 15.8166 5.9504 18.961 5.93484 22.7137C5.9344 22.8039 5.97022 22.8906 6.0339 22.9547C6.09758 23.0188 6.18425 23.0546 6.27447 23.0546H21.5155C21.6057 23.0546 21.6924 23.0188 21.756 22.9547C21.8197 22.8906 21.8555 22.8039 21.8551 22.7137C21.8395 18.9625 19.2007 15.8193 15.6869 15.0032ZM13.8947 18.4109L14.5258 20.4469L13.8947 21.3804L13.2637 20.4469L13.8947 18.4109ZM13.8947 16.6469L13.1442 15.509C13.3894 15.4838 13.6378 15.4697 13.8894 15.4697C14.1446 15.4697 14.3963 15.4845 14.6447 15.5103L13.8947 16.6469ZM0.824143 1.88306C0.824143 1.74066 0.940004 1.6248 1.0824 1.6248H13.9089C14.0513 1.6248 14.1672 1.74066 14.1672 1.88306V2.79049C14.1672 2.93288 14.0513 3.04874 13.9089 3.04874H13.7815H1.20931H1.0824C0.940004 3.04874 0.824143 2.93288 0.824143 2.79049V1.88306ZM2.40507 13.4134C1.93278 13.4134 1.54894 13.0296 1.54894 12.5573V3.72799H13.4419V8.10267C11.616 8.32605 10.1965 9.88348 10.1965 11.7688C10.1965 12.36 10.3392 12.9173 10.5863 13.4134H2.40507ZM10.8757 11.7688C10.8757 10.1052 12.2289 8.75157 13.8925 8.75157C15.5588 8.75157 16.9142 10.1052 16.9142 11.7688C16.9142 13.4351 15.5588 14.7905 13.8925 14.7905C12.2289 14.7905 10.8757 13.4351 10.8757 11.7688ZM6.62338 22.3754C6.79247 19.0398 9.22557 16.2888 12.407 15.625L13.5227 17.3165L12.5663 20.4018C12.5358 20.4999 12.5517 20.607 12.6097 20.6923L13.6135 22.1768C13.6767 22.2701 13.782 22.3263 13.8947 22.3263C14.0075 22.3263 14.1128 22.2701 14.176 22.1768L15.1798 20.6923C15.2378 20.607 15.2537 20.4999 15.2232 20.4018L14.2668 17.3165L15.3816 15.6269C18.564 16.2935 20.9972 19.0425 21.1666 22.3754H6.62338Z" fill="#595656"/>
</svg>
