<svg width="24" height="24" viewBox="0 0 24 24" fill="none" xmlns="http://www.w3.org/2000/svg">
<g id="noun-release-management-2714801 1" clip-path="url(#clip0_422_831)">
<g id="Group">
<g id="Group_2">
<g id="Group_3">
<g id="Group_4">
<path id="Vector" d="M8.5095 17.9989H1.21875C1.01175 17.9989 0.84375 17.8309 0.84375 17.6239C0.84375 17.4169 1.01175 17.2489 1.21875 17.2489H8.1345V10.6118C8.1345 10.4048 8.3025 10.2368 8.5095 10.2368C8.7165 10.2368 8.8845 10.4048 8.8845 10.6118V17.6239C8.8845 17.8311 8.7165 17.9989 8.5095 17.9989Z" fill="#595656"/>
</g>
<g id="Group_5">
<path id="Vector_2" d="M22.2505 17.9989H14.4636C14.2566 17.9989 14.0886 17.8309 14.0886 17.6239V10.6118C14.0886 10.4048 14.2566 10.2368 14.4636 10.2368C14.6706 10.2368 14.8386 10.4048 14.8386 10.6118V17.2489H22.2505C22.4575 17.2489 22.6255 17.4169 22.6255 17.6239C22.6255 17.8309 22.4577 17.9989 22.2505 17.9989Z" fill="#595656"/>
</g>
<path id="Vector_3" d="M11.4865 23.295C11.2795 23.295 11.1115 23.127 11.1115 22.92V10.7036C11.1115 10.4966 11.2795 10.3286 11.4865 10.3286C11.6935 10.3286 11.8615 10.4966 11.8615 10.7036V22.92C11.8615 23.1272 11.6936 23.295 11.4865 23.295Z" fill="#595656"/>
<path id="Vector_4" d="M2.41257 19.1316C2.31769 19.1316 2.22263 19.0958 2.14969 19.024L0.955878 17.8502C0.884628 17.7803 0.844315 17.6845 0.843753 17.5847C0.843378 17.4848 0.882753 17.3886 0.953253 17.3179L2.043 16.2265C2.18944 16.0797 2.42682 16.08 2.57344 16.2261C2.72007 16.3723 2.72025 16.6099 2.57382 16.7563L1.75107 17.5804L2.67544 18.4894C2.82319 18.6345 2.82507 18.8719 2.67994 19.0197C2.60663 19.0943 2.50969 19.1316 2.41257 19.1316Z" fill="#595656"/>
<path id="Vector_5" d="M21.5875 19.1317C21.4904 19.1317 21.3934 19.0944 21.3201 19.0196C21.175 18.8718 21.1769 18.6345 21.3246 18.4893L22.249 17.5803L21.4262 16.7563C21.28 16.6098 21.2802 16.3723 21.4266 16.226C21.5732 16.08 21.8106 16.0798 21.9571 16.2264L23.0468 17.3178C23.1173 17.3885 23.1569 17.4847 23.1563 17.5846C23.1559 17.6844 23.1154 17.7802 23.0442 17.8501L21.8504 19.0239C21.7774 19.0959 21.6824 19.1317 21.5875 19.1317Z" fill="#595656"/>
<path id="Vector_6" d="M11.4386 23.5306C11.3433 23.5306 11.2481 23.4946 11.1751 23.4225L10.0777 22.3387C9.93033 22.1932 9.92883 21.9558 10.0743 21.8085C10.2198 21.6609 10.4572 21.6598 10.6046 21.8051L11.4373 22.6275L12.3594 21.7083C12.5062 21.5619 12.7436 21.5626 12.8898 21.7091C13.0361 21.8557 13.0357 22.0933 12.8891 22.2393L11.7035 23.4213C11.6302 23.4943 11.5344 23.5306 11.4386 23.5306Z" fill="#595656"/>
</g>
<g id="Group_6">
<g id="Group_7">
<path id="Vector_7" d="M16.0883 10.9869H7.30355C5.5913 10.9869 4.19836 9.63129 4.19836 7.96498C4.19836 6.86436 4.82349 5.85167 5.80936 5.32461C5.94774 3.87636 7.20511 2.73467 8.71805 2.73467C8.9513 2.73467 9.19561 2.76598 9.43899 2.82636C9.69549 2.23705 10.1155 1.69292 10.6482 1.26711C11.3826 0.691482 12.3036 0.375732 13.2449 0.375732C15.3934 0.375732 17.1524 1.93873 17.3639 3.98098C17.9832 4.2013 18.5438 4.58848 18.9634 5.08967C19.504 5.72248 19.8017 6.53417 19.8017 7.37511C19.8017 9.36654 18.1358 10.9869 16.0883 10.9869ZM8.71824 3.48467C7.53305 3.48467 6.55899 4.41954 6.54699 5.56854C6.54549 5.71554 6.45811 5.84829 6.32368 5.90773C5.48836 6.27711 4.94855 7.08448 4.94855 7.96498C4.94855 9.21786 6.00511 10.2369 7.30374 10.2369H16.0885C17.7226 10.2369 19.0519 8.95311 19.0519 7.37511C19.0519 6.71192 18.8176 6.07292 18.3921 5.5753C18.3912 5.57417 18.3904 5.57323 18.3895 5.57211C18.0096 5.1178 17.4837 4.78086 16.9088 4.62317C16.7507 4.58004 16.6392 4.43905 16.6332 4.27517C16.5691 2.50911 15.0809 1.12554 13.2451 1.12554C12.4709 1.12554 11.7139 1.38448 11.1141 1.85492C10.5955 2.26967 10.2074 2.81961 10.0238 3.40067C9.99286 3.49854 9.9233 3.57936 9.83124 3.62454C9.73899 3.66954 9.63249 3.67517 9.5363 3.63954C9.26124 3.53829 8.9783 3.48467 8.71824 3.48467Z" fill="#595656"/>
</g>
</g>
</g>
</g>
</g>
<defs>
<clipPath id="clip0_422_831">
<rect width="24" height="24" fill="white"/>
</clipPath>
</defs>
</svg>
