<svg width="24" height="24" viewBox="0 0 24 24" fill="none" xmlns="http://www.w3.org/2000/svg">
<g id="noun-manager-1955029 1">
<g id="Group">
<path id="Vector" d="M15.9047 10.705C15.8687 10.928 15.6743 11.0863 15.4583 11.0863H8.67354C8.15514 11.0863 8.17194 10.4004 8.17194 10.0335C8.17194 4.35248 16.8311 5.04792 15.9047 10.705ZM9.08154 10.1798H15.0503C15.2303 5.95919 8.89674 5.87046 9.08154 10.1798Z" fill="#595656"/>
<path id="Vector_2" d="M12.0648 1.91846C13.9176 1.91846 14.6856 4.20142 13.44 5.32612C12.0528 6.58271 10.0824 5.54434 10.0824 3.89927C10.0824 3.3549 10.3056 2.8585 10.6656 2.49879H10.6632C11.0232 2.14148 11.5176 1.91846 12.0648 1.91846ZM12.8256 3.14147C12.4056 2.72181 11.7264 2.72181 11.3064 3.14147L11.304 3.13908C10.3008 4.25418 11.868 5.61629 12.8256 4.65945C13.2456 4.23979 13.2456 3.55874 12.8256 3.14147Z" fill="#595656"/>
<path id="Vector_3" d="M11.6927 12.0167C11.6927 11.4196 12.6023 11.4196 12.6023 12.0167V14.422L14.2871 15.7841C14.7503 16.1582 14.1815 16.8632 13.7207 16.4891L12.1367 15.2085L10.4519 16.4723C9.97914 16.8272 9.43434 16.103 9.90954 15.7481L11.6927 14.4124V12.0167Z" fill="#595656"/>
<path id="Vector_4" d="M7.2407 12.8657C8.9903 12.8657 9.8975 14.9952 8.6423 16.247C7.3919 17.4964 5.2583 16.5971 5.2583 14.8465C5.2583 13.7554 6.1487 12.8657 7.2407 12.8657ZM8.0015 14.0863C6.9983 13.0863 5.4791 14.6067 6.4799 15.6067C7.4807 16.6067 9.0047 15.0887 8.0015 14.0863Z" fill="#595656"/>
<path id="Vector_5" d="M20.9016 21.6809C20.8656 21.9039 20.6736 22.0622 20.4552 22.0622H13.6704C13.152 22.0622 13.1688 21.3764 13.1688 21.0071C13.1688 15.3284 21.828 16.0239 20.9016 21.6809ZM14.0808 21.1557H20.0472C20.2272 16.9351 13.8936 16.8464 14.0808 21.1557Z" fill="#595656"/>
<path id="Vector_6" d="M16.9991 12.856C18.7487 12.856 19.6535 14.9854 18.4007 16.2396C17.1503 17.489 15.0167 16.5898 15.0167 14.8392C15.0167 13.7456 15.9071 12.856 16.9991 12.856ZM17.7599 14.0766C16.7567 13.0766 15.2375 14.5994 16.2383 15.5994C17.2391 16.5993 18.7607 15.0814 17.7599 14.0766Z" fill="#595656"/>
<path id="Vector_7" d="M10.7615 21.6809C10.7255 21.9039 10.5335 22.0622 10.3151 22.0622H3.53275C3.01195 22.0622 3.02875 21.3764 3.02875 21.0071C3.02875 15.3284 11.6879 16.0239 10.7615 21.6809ZM3.94075 21.1557H9.90715C10.0895 16.9351 3.75595 16.8464 3.94075 21.1557Z" fill="#595656"/>
</g>
</g>
</svg>
