<svg width="97" height="97" viewBox="0 0 97 97" fill="none" xmlns="http://www.w3.org/2000/svg">
<path d="M71.4351 58.3701C64.2351 58.3701 58.3701 64.2501 58.3701 71.4351C58.3701 78.6351 64.2351 84.5001 71.4351 84.5001C78.6351 84.5001 84.4851 78.6351 84.4851 71.4351C84.5001 64.2501 78.6351 58.3701 71.4351 58.3701ZM71.4351 83.0751C65.0151 83.0751 59.7951 77.8551 59.7951 71.4351C59.7951 65.0301 65.0151 59.7951 71.4351 59.7951C77.8401 59.7951 83.0601 65.0301 83.0601 71.4351C83.0601 77.8551 77.8401 83.0751 71.4351 83.0751Z" fill="#303E58"/>
<path d="M95.6 76.55C93.56 75.68 92.24 73.655 92.24 71.42C92.24 69.215 93.56 67.205 95.6 66.32C96.29 66.02 96.65 65.24 96.44 64.52C95.9 62.495 95.06 60.515 94.01 58.64C93.62 57.965 92.81 57.71 92.075 57.995C90.02 58.775 87.695 58.265 86.15 56.72C84.605 55.175 84.095 52.835 84.875 50.795C85.175 50.045 84.905 49.235 84.23 48.845C83.315 48.335 82.385 47.885 81.44 47.48V4.94C81.44 2.495 79.445 0.5 77 0.5H4.94C2.495 0.5 0.5 2.495 0.5 4.94V77.105C0.5 79.55 2.495 81.56 4.94 81.56H47.54C47.93 82.46 48.35 83.36 48.845 84.245C49.235 84.905 50.045 85.16 50.795 84.875C52.835 84.095 55.145 84.605 56.705 86.15C58.265 87.695 58.775 90.035 57.995 92.075C57.71 92.825 57.98 93.635 58.655 94.025C60.53 95.09 62.51 95.9 64.535 96.44C64.685 96.47 64.805 96.5 64.94 96.5C65.525 96.5 66.08 96.155 66.35 95.6C67.22 93.56 69.23 92.255 71.465 92.255C73.67 92.255 75.68 93.56 76.565 95.585C76.865 96.275 77.615 96.65 78.365 96.44C80.375 95.9 82.355 95.075 84.245 94.025C84.92 93.635 85.19 92.825 84.905 92.09C84.11 90.035 84.635 87.71 86.18 86.165C87.725 84.62 90.05 84.11 92.09 84.89C92.84 85.19 93.65 84.92 94.04 84.245C95.12 82.37 95.93 80.375 96.47 78.35C96.65 77.63 96.29 76.85 95.6 76.55ZM1.94 4.94C1.94 3.275 3.29 1.925 4.955 1.925H77C78.665 1.925 80.015 3.275 80.015 4.94V14.3H38.51L34.145 8.675C34.01 8.51 33.8 8.405 33.59 8.405H13.01C12.665 8.405 12.38 8.63 12.305 8.96L11.15 14.3H1.94V4.94ZM47.255 76.55C46.58 76.85 46.22 77.63 46.415 78.335C46.58 78.935 46.775 79.535 46.985 80.12H4.94C3.275 80.12 1.925 78.755 1.925 77.09V15.725H11.705C12.035 15.725 12.335 15.485 12.41 15.155L13.565 9.83H33.215L37.58 15.44C37.73 15.62 37.94 15.725 38.15 15.725H80V46.94C79.46 46.76 78.89 46.565 78.335 46.43C77.6 46.25 76.85 46.595 76.55 47.27C75.665 49.295 73.655 50.615 71.45 50.615C69.215 50.615 67.205 49.295 66.32 47.255C66.005 46.595 65.255 46.25 64.535 46.445C62.51 46.985 60.53 47.81 58.64 48.86C57.98 49.25 57.71 50.06 57.995 50.795C58.775 52.85 58.265 55.175 56.72 56.72C55.175 58.265 52.85 58.775 50.795 57.995C50.045 57.695 49.235 57.965 48.845 58.64C47.78 60.515 46.97 62.495 46.415 64.535C46.235 65.255 46.58 66.02 47.255 66.32C49.295 67.205 50.615 69.215 50.615 71.42C50.6 73.655 49.295 75.68 47.255 76.55ZM95.075 77.975C94.55 79.88 93.77 81.755 92.78 83.54C92.75 83.585 92.66 83.585 92.585 83.555C90.02 82.58 87.095 83.195 85.145 85.145C83.195 87.095 82.565 90.035 83.54 92.615C83.57 92.675 83.57 92.765 83.525 92.78C81.74 93.785 79.865 94.535 77.87 95.03C76.745 92.48 74.225 90.83 71.45 90.83C68.645 90.83 66.125 92.48 64.895 95.06C63.005 94.55 61.13 93.785 59.345 92.78C59.3 92.75 59.285 92.66 59.315 92.6C60.29 90.035 59.66 87.095 57.71 85.145C56.375 83.81 54.59 83.09 52.745 83.09C51.92 83.09 51.065 83.255 50.255 83.555C50.195 83.585 50.105 83.585 50.09 83.54C49.085 81.77 48.32 79.88 47.825 77.885C50.39 76.76 52.04 74.24 52.04 71.435C52.04 68.675 50.39 66.155 47.795 64.91C48.305 62.99 49.085 61.13 50.09 59.36C50.12 59.3 50.21 59.3 50.27 59.33C52.85 60.305 55.775 59.69 57.725 57.74C59.675 55.79 60.305 52.865 59.315 50.27C59.285 50.21 59.3 50.12 59.345 50.105C61.115 49.1 62.99 48.35 64.88 47.825C64.94 47.795 65.015 47.825 65.015 47.855C66.125 50.405 68.645 52.055 71.45 52.055C74.225 52.055 76.745 50.405 77.975 47.81C79.88 48.335 81.74 49.1 83.525 50.105C83.585 50.135 83.585 50.225 83.555 50.285C82.58 52.865 83.21 55.79 85.145 57.74C87.095 59.69 90.02 60.32 92.615 59.33C92.675 59.3 92.765 59.3 92.78 59.36C93.785 61.115 94.55 62.99 95.045 65C92.495 66.125 90.83 68.66 90.83 71.42C90.83 74.225 92.495 76.745 95.045 77.87L95.33 77.21L95.075 77.975Z" fill="#303E58"/>
<path d="M95.0303 77.8701C92.4803 76.7451 90.8153 74.2251 90.8153 71.4201C90.8153 68.6601 92.4803 66.1401 95.0303 65.0001C94.5503 62.9751 93.7703 61.1151 92.7653 59.3601C92.7353 59.3001 92.6453 59.3001 92.6003 59.3301C90.0053 60.3201 87.0803 59.6901 85.1303 57.7401C83.1953 55.7901 82.5653 52.8651 83.5403 50.2851C83.5703 50.2101 83.5703 50.1201 83.5103 50.1051C81.7403 49.1001 79.8653 48.3501 77.9603 47.8101C76.7453 50.4051 74.2253 52.0551 71.4353 52.0551C68.6303 52.0551 66.1103 50.4051 65.0003 47.8551C65.0003 47.8251 64.9253 47.7951 64.8653 47.8251C62.9753 48.3351 61.1153 49.1001 59.3303 50.1051C59.2853 50.1351 59.2703 50.2251 59.3003 50.2701C60.2903 52.8651 59.6603 55.7901 57.7103 57.7401C55.7603 59.6901 52.8353 60.3051 50.2553 59.3301C50.1803 59.3001 50.0903 59.3001 50.0753 59.3601C49.0703 61.1151 48.3053 62.9901 47.7803 64.9101C50.3753 66.1401 52.0253 68.6601 52.0253 71.4351C52.0253 74.2401 50.3753 76.7601 47.8103 77.8851C48.2903 79.8951 49.0703 81.7701 50.0753 83.5401C50.1053 83.5851 50.1953 83.5851 50.2403 83.5551C51.0503 83.2551 51.9053 83.0901 52.7303 83.0901C54.5603 83.0901 56.3603 83.8101 57.6953 85.1451C59.6453 87.0951 60.2753 90.0351 59.3003 92.6001C59.2703 92.6751 59.2853 92.7651 59.3303 92.7801C61.1003 93.7851 62.9903 94.5351 64.8803 95.0601C66.0953 92.4801 68.6153 90.8301 71.4353 90.8301C74.2103 90.8301 76.7303 92.4801 77.8553 95.0301C79.8653 94.5501 81.7253 93.7851 83.5103 92.7801C83.5553 92.7501 83.5553 92.6601 83.5253 92.6151C82.5503 90.0351 83.1803 87.0951 85.1303 85.1451C87.0803 83.1951 90.0053 82.5801 92.5703 83.5551C92.6603 83.5851 92.7353 83.5851 92.7653 83.5401C93.7553 81.7701 94.5203 79.8801 95.0603 77.9751L95.3003 77.2101L95.0303 77.8701ZM71.4353 84.5001C64.2353 84.5001 58.3703 78.6351 58.3703 71.4351C58.3703 64.2351 64.2353 58.3701 71.4353 58.3701C78.6353 58.3701 84.4853 64.2501 84.4853 71.4351C84.5003 78.6501 78.6353 84.5001 71.4353 84.5001Z" fill="#5BE4A9"/>
<path d="M40.5497 65.9C27.2447 62.975 26.2547 52.13 26.3597 48.095L30.9647 52.7C31.2497 52.985 31.6997 52.985 31.9847 52.7C32.2697 52.415 32.2697 51.965 31.9847 51.68L26.2697 45.965C26.2547 45.95 26.2247 45.935 26.1947 45.92C26.1647 45.89 26.1197 45.86 26.0747 45.845C26.0297 45.815 25.9847 45.815 25.9397 45.8C25.9097 45.8 25.8947 45.77 25.8647 45.77C25.8497 45.77 25.8347 45.77 25.8197 45.77C25.7597 45.77 25.6997 45.77 25.6547 45.785C25.6247 45.785 25.5947 45.8 25.5647 45.8C25.5047 45.815 25.4597 45.845 25.3997 45.875C25.3697 45.89 25.3397 45.905 25.3097 45.935C25.2947 45.95 25.2797 45.95 25.2497 45.965L19.3397 51.875C19.0547 52.16 19.0547 52.61 19.3397 52.895C19.4747 53.03 19.6697 53.105 19.8497 53.105C20.0297 53.105 20.2097 53.03 20.3597 52.895L24.9497 48.305C24.9347 52.88 26.3597 64.265 40.2347 67.31C40.2797 67.325 40.3397 67.325 40.3847 67.325C40.7147 67.325 41.0147 67.1 41.0897 66.755C41.1797 66.38 40.9397 65.99 40.5497 65.9Z" fill="#303E58"/>
<path d="M56.4353 25.775C68.1953 28.28 69.2453 37.445 69.1853 41.075L65.1353 37.145C64.8503 36.875 64.4003 36.875 64.1153 37.16C63.8453 37.445 63.8453 37.895 64.1303 38.18L69.2903 43.175C69.3053 43.19 69.3353 43.205 69.3653 43.22C69.3953 43.25 69.4403 43.265 69.4703 43.295C69.5153 43.325 69.5603 43.34 69.6203 43.34C69.6503 43.34 69.6653 43.355 69.6953 43.37C69.7253 43.37 69.7703 43.385 69.8003 43.385H69.8303C69.8603 43.385 69.8753 43.37 69.9053 43.37C69.9653 43.355 70.0253 43.355 70.0853 43.325C70.1153 43.31 70.1453 43.295 70.1753 43.28C70.2203 43.25 70.2653 43.22 70.3103 43.175C70.3253 43.16 70.3403 43.16 70.3403 43.145L74.8553 37.985C75.1103 37.685 75.0803 37.235 74.7953 36.98C74.4953 36.725 74.0453 36.74 73.7903 37.04L70.5953 40.685C70.5053 36.44 68.9153 26.99 56.7353 24.395C56.3453 24.32 55.9703 24.56 55.8803 24.95C55.8053 25.31 56.0603 25.685 56.4353 25.775Z" fill="#303E58"/>
<path d="M27.1849 40.0852L19.9849 24.7702C19.7449 24.2752 18.9199 24.2752 18.6799 24.7702L11.4799 40.0852C11.3149 40.4452 11.4649 40.8802 11.8249 41.0452C12.1849 41.2102 12.6199 41.0452 12.7849 40.7002L15.0199 35.9302H23.6299L25.8649 40.7002C25.9999 40.9552 26.2549 41.1052 26.5099 41.1052C26.6299 41.1052 26.7199 41.0902 26.8249 41.0452C27.1999 40.8802 27.3349 40.4452 27.1849 40.0852ZM15.7099 34.5052L19.3399 26.7652L22.9849 34.5052H15.7099Z" fill="#303E58"/>
<path d="M36.9051 23.3452H30.8001C30.4101 23.3452 30.0801 23.6602 30.0801 24.0652V31.3402C30.0801 31.3552 30.0951 31.3552 30.0951 31.3702V40.7452C30.0951 41.1502 30.4101 41.4652 30.8151 41.4652C31.2051 41.4652 31.5351 41.1502 31.5351 40.7452V32.0602H36.9051C39.3051 32.0602 41.2701 30.0952 41.2701 27.6952C41.2851 25.2952 39.3201 23.3452 36.9051 23.3452ZM36.9051 30.6202H31.5201V24.7702H36.9051C38.5251 24.7702 39.8451 26.0752 39.8451 27.6802C39.8451 29.3002 38.5251 30.6202 36.9051 30.6202Z" fill="#303E58"/>
<path d="M45.4251 23.3301C45.0351 23.3301 44.7051 23.6451 44.7051 24.0501V41.2851C44.7051 41.6751 45.0201 42.0051 45.4251 42.0051C45.8301 42.0051 46.1451 41.6901 46.1451 41.2851V24.0501C46.1301 23.6601 45.8151 23.3301 45.4251 23.3301Z" fill="#303E58"/>
</svg>
