<svg width="312" height="303" viewBox="0 0 312 303" fill="none" xmlns="http://www.w3.org/2000/svg">
<path d="M254.127 73.2041C294.626 120.529 260.374 135.326 213.049 175.824C193.006 192.976 189.351 222.896 176.824 247.9C159.774 281.934 122.053 300.827 98.7067 273.546C58.2082 226.221 10.233 155.105 57.5577 114.607C104.882 74.1082 213.629 25.8795 254.127 73.2041Z" fill="#F3F9FF"/>
<path d="M206.361 209.834C206.361 209.834 199.111 191.411 205.566 189.221C212.286 186.937 211.989 199.104 211.729 205.033C211.183 217.704 209.784 220.06 208.739 216.965L206.361 209.834ZM204.182 224.206C206.174 226.807 206.736 224.112 203.142 211.946C201.456 206.224 197.795 194.651 192.177 198.994C186.783 203.156 199.62 218.24 199.62 218.24L204.182 224.206ZM200.333 234.765C202.231 236.45 202.268 234.323 197.758 225.538C195.641 221.423 191.163 213.096 187.496 217.215C183.974 221.189 195.974 230.848 195.974 230.848L200.333 234.765ZM196.172 247.321C198.07 249.012 198.107 246.879 193.597 238.099C191.48 233.985 187.001 225.652 183.334 229.777C179.834 233.761 191.797 243.42 191.797 243.42L196.172 247.321ZM208.187 221.761C205.149 222.947 207.563 224.237 220.249 224.201C226.2 224.201 238.351 223.93 235.76 217.319C233.279 210.968 215.209 219.056 215.209 219.056L208.187 221.761ZM204.728 230.209C201.514 230.765 203.625 232.513 216.067 234.999C221.898 236.169 233.857 238.328 232.634 231.358C231.464 224.638 212.145 228.976 212.145 228.976L204.728 230.209ZM200.858 240.523C198.122 240.918 199.87 242.442 210.33 244.835C215.235 245.959 225.3 248.065 224.426 242.12C223.594 236.398 207.157 239.634 207.157 239.634L200.858 240.523ZM197.919 250.078C195.241 250.76 197.139 252.091 207.802 253.36C212.796 253.953 223.027 254.983 221.534 249.163C220.093 243.576 204.094 248.523 204.094 248.523L197.919 250.078ZM213.597 211.395C212.036 214.89 215.277 214.36 226.294 204.747C231.453 200.237 241.804 190.802 233.607 186.105C225.737 181.59 217.274 203.374 217.274 203.374L213.597 211.395ZM198.325 262.525C196.676 263.488 198.294 263.862 205.857 262.354C209.404 261.652 216.619 260.091 214.179 257.012C211.818 254.047 202.143 260.289 202.143 260.289L198.325 262.525Z" fill="#D8D8D8"/>
<path opacity="0.3" d="M206.361 209.834C206.361 209.834 199.111 191.411 205.566 189.221C212.286 186.937 211.989 199.104 211.729 205.033C211.183 217.704 209.784 220.06 208.739 216.965L206.361 209.834ZM204.182 224.206C206.174 226.807 206.736 224.112 203.142 211.946C201.456 206.224 197.795 194.651 192.177 198.994C186.783 203.156 199.62 218.24 199.62 218.24L204.182 224.206ZM200.333 234.765C202.231 236.45 202.268 234.323 197.758 225.538C195.641 221.423 191.163 213.096 187.496 217.215C183.974 221.189 195.974 230.848 195.974 230.848L200.333 234.765ZM196.172 247.321C198.07 249.012 198.107 246.879 193.597 238.099C191.48 233.985 187.001 225.652 183.334 229.777C179.834 233.761 191.797 243.42 191.797 243.42L196.172 247.321ZM208.187 221.761C205.149 222.947 207.563 224.237 220.249 224.201C226.2 224.201 238.351 223.93 235.76 217.319C233.279 210.968 215.209 219.056 215.209 219.056L208.187 221.761ZM204.728 230.209C201.514 230.765 203.625 232.513 216.067 234.999C221.898 236.169 233.857 238.328 232.634 231.358C231.464 224.638 212.145 228.976 212.145 228.976L204.728 230.209ZM200.858 240.523C198.122 240.918 199.87 242.442 210.33 244.835C215.235 245.959 225.3 248.065 224.426 242.12C223.594 236.398 207.157 239.634 207.157 239.634L200.858 240.523ZM197.919 250.078C195.241 250.76 197.139 252.091 207.802 253.36C212.796 253.953 223.027 254.983 221.534 249.163C220.093 243.576 204.094 248.523 204.094 248.523L197.919 250.078ZM213.597 211.395C212.036 214.89 215.277 214.36 226.294 204.747C231.453 200.237 241.804 190.802 233.607 186.105C225.737 181.59 217.274 203.374 217.274 203.374L213.597 211.395ZM198.325 262.525C196.676 263.488 198.294 263.862 205.857 262.354C209.404 261.652 216.619 260.091 214.179 257.012C211.818 254.047 202.143 260.289 202.143 260.289L198.325 262.525Z" fill="white"/>
<path d="M209.56 218.412L208.296 197.382L209.56 218.412ZM205.56 225.35L197.571 207.265L205.56 225.35ZM226.179 220.092L207.032 222.838L226.179 220.092ZM201.42 235.098L191.053 221.798L201.42 235.098ZM203.241 231.02L217.524 231.738L203.241 231.02ZM199.86 241.22L210.783 242.302L199.86 241.22ZM197.222 247.701L191.797 239.54L197.222 247.701ZM196.598 250.583L209.441 250.702L196.598 250.583ZM193.997 274.676C194.084 274.669 194.163 274.629 194.22 274.564C194.276 274.499 194.305 274.414 194.299 274.328C193.483 262.063 198.226 241.974 205.836 225.486C210.699 214.947 229.763 194.235 229.966 194.027C230.027 193.966 230.062 193.882 230.062 193.796C230.062 193.709 230.027 193.625 229.966 193.564C229.936 193.534 229.9 193.51 229.861 193.494C229.822 193.477 229.779 193.469 229.737 193.469C229.694 193.469 229.652 193.477 229.613 193.494C229.574 193.51 229.538 193.534 229.508 193.564C229.316 193.772 210.174 214.562 205.269 225.194C197.519 242.084 192.838 261.808 193.67 274.369C193.676 274.452 193.713 274.529 193.774 274.586C193.835 274.643 193.914 274.675 193.997 274.676ZM209.555 218.734C209.641 218.729 209.722 218.69 209.779 218.625C209.836 218.561 209.866 218.477 209.862 218.391L208.619 197.351C208.617 197.308 208.606 197.266 208.588 197.227C208.57 197.188 208.544 197.154 208.512 197.125C208.48 197.097 208.442 197.075 208.402 197.061C208.361 197.047 208.318 197.041 208.276 197.044C208.19 197.049 208.109 197.088 208.052 197.152C207.994 197.217 207.964 197.301 207.969 197.387L209.233 218.417C209.237 218.5 209.272 218.578 209.332 218.635C209.392 218.692 209.472 218.724 209.555 218.724V218.734ZM205.675 225.647C205.753 225.612 205.814 225.547 205.845 225.467C205.876 225.388 205.875 225.299 205.841 225.22L197.847 207.135C197.812 207.056 197.748 206.994 197.668 206.963C197.588 206.932 197.499 206.934 197.42 206.968C197.341 207.003 197.28 207.067 197.248 207.147C197.217 207.227 197.219 207.316 197.254 207.395L205.243 225.48C205.268 225.538 205.31 225.588 205.362 225.623C205.415 225.658 205.476 225.677 205.54 225.678C205.593 225.681 205.647 225.67 205.696 225.647H205.675ZM207.058 223.15L226.195 220.414C226.241 220.413 226.286 220.402 226.328 220.383C226.37 220.363 226.407 220.335 226.437 220.299C226.467 220.264 226.489 220.223 226.502 220.179C226.515 220.134 226.519 220.088 226.513 220.042C226.506 219.996 226.49 219.952 226.466 219.913C226.441 219.874 226.409 219.84 226.371 219.814C226.332 219.789 226.289 219.771 226.243 219.764C226.198 219.756 226.151 219.758 226.106 219.769L206.97 222.505C206.884 222.511 206.805 222.55 206.748 222.614C206.691 222.679 206.663 222.763 206.668 222.848C206.674 222.934 206.713 223.014 206.777 223.07C206.842 223.127 206.926 223.156 207.012 223.15H207.058ZM201.602 235.358C201.67 235.305 201.714 235.227 201.725 235.141C201.736 235.055 201.712 234.969 201.659 234.9L191.287 221.574C191.234 221.505 191.156 221.46 191.07 221.449C190.983 221.438 190.896 221.461 190.827 221.514C190.758 221.567 190.713 221.646 190.702 221.732C190.691 221.818 190.714 221.906 190.767 221.975L201.16 235.322C201.19 235.361 201.229 235.392 201.273 235.414C201.317 235.435 201.366 235.446 201.415 235.446C201.492 235.443 201.566 235.411 201.623 235.358H201.602ZM217.81 231.753C217.813 231.667 217.782 231.584 217.723 231.52C217.665 231.457 217.584 231.419 217.498 231.415L203.241 230.692C203.16 230.698 203.085 230.733 203.029 230.79C202.973 230.847 202.94 230.923 202.936 231.004C202.932 231.084 202.958 231.163 203.008 231.225C203.058 231.288 203.13 231.329 203.209 231.342L217.493 232.065C217.579 232.068 217.662 232.037 217.726 231.979C217.789 231.92 217.827 231.839 217.831 231.753H217.81ZM211.084 242.333C211.089 242.29 211.086 242.247 211.074 242.206C211.062 242.164 211.042 242.126 211.014 242.092C210.987 242.059 210.954 242.031 210.916 242.011C210.878 241.991 210.836 241.978 210.793 241.974L199.87 240.898C199.828 240.893 199.785 240.897 199.744 240.91C199.703 240.922 199.665 240.942 199.632 240.97C199.599 240.997 199.572 241.03 199.552 241.068C199.532 241.105 199.52 241.146 199.516 241.189C199.509 241.274 199.535 241.359 199.59 241.425C199.644 241.491 199.722 241.533 199.808 241.543L210.731 242.625H210.762C210.846 242.63 210.929 242.603 210.993 242.549C211.057 242.494 211.097 242.417 211.105 242.333H211.084ZM197.378 247.972C197.451 247.924 197.501 247.85 197.519 247.765C197.536 247.68 197.519 247.592 197.472 247.519L192.073 239.358C192.023 239.288 191.949 239.239 191.864 239.223C191.78 239.206 191.693 239.223 191.62 239.27C191.548 239.317 191.498 239.392 191.48 239.477C191.463 239.561 191.479 239.65 191.527 239.722L196.926 247.883C196.957 247.928 196.998 247.964 197.046 247.99C197.094 248.015 197.147 248.029 197.202 248.029C197.272 248.033 197.342 248.013 197.399 247.972H197.378ZM209.768 250.702C209.767 250.617 209.733 250.535 209.673 250.474C209.613 250.413 209.531 250.377 209.446 250.375L196.603 250.255C196.518 250.255 196.436 250.289 196.375 250.35C196.315 250.41 196.281 250.492 196.281 250.578C196.279 250.621 196.287 250.663 196.302 250.703C196.318 250.744 196.342 250.78 196.372 250.811C196.402 250.841 196.438 250.865 196.478 250.882C196.518 250.898 196.56 250.906 196.603 250.905L209.446 251.025C209.49 251.027 209.534 251.02 209.575 251.005C209.616 250.99 209.654 250.967 209.686 250.936C209.718 250.906 209.744 250.87 209.761 250.83C209.779 250.79 209.789 250.746 209.789 250.702H209.768ZM192.536 269.906C192.562 269.849 194.752 263.815 201.337 262.375C201.422 262.356 201.496 262.304 201.542 262.231C201.589 262.158 201.605 262.069 201.586 261.985C201.565 261.901 201.513 261.83 201.44 261.784C201.368 261.738 201.28 261.723 201.196 261.74C194.252 263.259 191.948 269.631 191.922 269.693C191.895 269.775 191.901 269.865 191.939 269.942C191.977 270.02 192.044 270.08 192.125 270.109H192.229C192.298 270.115 192.367 270.099 192.426 270.062C192.485 270.026 192.531 269.971 192.557 269.906H192.536ZM193.997 274.676C194.084 274.669 194.163 274.629 194.22 274.564C194.276 274.499 194.305 274.414 194.299 274.328C193.483 262.063 198.226 241.974 205.836 225.486C210.699 214.947 229.763 194.235 229.966 194.027C230.027 193.966 230.062 193.882 230.062 193.796C230.062 193.709 230.027 193.625 229.966 193.564C229.936 193.534 229.9 193.51 229.861 193.494C229.822 193.477 229.779 193.469 229.737 193.469C229.694 193.469 229.652 193.477 229.613 193.494C229.574 193.51 229.538 193.534 229.508 193.564C229.316 193.772 210.174 214.562 205.269 225.194C197.519 242.084 192.838 261.808 193.67 274.369C193.676 274.452 193.713 274.529 193.774 274.586C193.835 274.643 193.914 274.675 193.997 274.676ZM209.555 218.734C209.641 218.729 209.722 218.69 209.779 218.625C209.836 218.561 209.866 218.477 209.862 218.391L208.619 197.351C208.617 197.308 208.606 197.266 208.588 197.227C208.57 197.188 208.544 197.154 208.512 197.125C208.48 197.097 208.442 197.075 208.402 197.061C208.361 197.047 208.318 197.041 208.276 197.044C208.19 197.049 208.109 197.088 208.052 197.152C207.994 197.217 207.964 197.301 207.969 197.387L209.233 218.417C209.237 218.5 209.272 218.578 209.332 218.635C209.392 218.692 209.472 218.724 209.555 218.724V218.734ZM205.675 225.647C205.753 225.612 205.814 225.547 205.845 225.467C205.876 225.388 205.875 225.299 205.841 225.22L197.847 207.135C197.812 207.056 197.748 206.994 197.668 206.963C197.588 206.932 197.499 206.934 197.42 206.968C197.341 207.003 197.28 207.067 197.248 207.147C197.217 207.227 197.219 207.316 197.254 207.395L205.243 225.48C205.268 225.538 205.31 225.588 205.362 225.623C205.415 225.658 205.476 225.677 205.54 225.678C205.593 225.681 205.647 225.67 205.696 225.647H205.675ZM207.058 223.15L226.195 220.414C226.241 220.413 226.286 220.402 226.328 220.383C226.37 220.363 226.407 220.335 226.437 220.299C226.467 220.264 226.489 220.223 226.502 220.179C226.515 220.134 226.519 220.088 226.513 220.042C226.506 219.996 226.49 219.952 226.466 219.913C226.441 219.874 226.409 219.84 226.371 219.814C226.332 219.789 226.289 219.771 226.243 219.764C226.198 219.756 226.151 219.758 226.106 219.769L206.97 222.505C206.884 222.511 206.805 222.55 206.748 222.614C206.691 222.679 206.663 222.763 206.668 222.848C206.674 222.934 206.713 223.014 206.777 223.07C206.842 223.127 206.926 223.156 207.012 223.15H207.058ZM201.602 235.358C201.67 235.305 201.714 235.227 201.725 235.141C201.736 235.055 201.712 234.969 201.659 234.9L191.287 221.574C191.261 221.54 191.228 221.511 191.191 221.49C191.154 221.468 191.112 221.454 191.07 221.449C191.027 221.443 190.984 221.446 190.942 221.457C190.9 221.469 190.861 221.488 190.827 221.514C190.793 221.541 190.764 221.573 190.743 221.611C190.721 221.648 190.707 221.689 190.702 221.732C190.696 221.775 190.699 221.818 190.71 221.86C190.722 221.901 190.741 221.94 190.767 221.975L201.16 235.322C201.19 235.361 201.229 235.392 201.273 235.414C201.317 235.435 201.366 235.446 201.415 235.446C201.492 235.443 201.566 235.411 201.623 235.358H201.602ZM217.81 231.753C217.813 231.667 217.782 231.584 217.723 231.52C217.665 231.457 217.584 231.419 217.498 231.415L203.241 230.692C203.16 230.698 203.085 230.733 203.029 230.79C202.973 230.847 202.94 230.923 202.936 231.004C202.932 231.084 202.958 231.163 203.008 231.225C203.058 231.288 203.13 231.329 203.209 231.342L217.493 232.065C217.579 232.068 217.662 232.037 217.726 231.979C217.789 231.92 217.827 231.839 217.831 231.753H217.81ZM211.084 242.333C211.089 242.29 211.086 242.247 211.074 242.206C211.062 242.164 211.042 242.126 211.014 242.092C210.987 242.059 210.954 242.031 210.916 242.011C210.878 241.991 210.836 241.978 210.793 241.974L199.87 240.898C199.828 240.893 199.785 240.897 199.744 240.91C199.703 240.922 199.665 240.942 199.632 240.97C199.599 240.997 199.572 241.03 199.552 241.068C199.532 241.105 199.52 241.146 199.516 241.189C199.509 241.274 199.535 241.359 199.59 241.425C199.644 241.491 199.722 241.533 199.808 241.543L210.731 242.625H210.762C210.846 242.63 210.929 242.603 210.993 242.549C211.057 242.494 211.097 242.417 211.105 242.333H211.084ZM197.378 247.972C197.451 247.924 197.501 247.85 197.519 247.765C197.536 247.68 197.519 247.592 197.472 247.519L192.073 239.358C192.023 239.288 191.949 239.239 191.864 239.223C191.78 239.206 191.693 239.223 191.62 239.27C191.548 239.317 191.498 239.392 191.48 239.477C191.463 239.561 191.479 239.65 191.527 239.722L196.926 247.883C196.957 247.928 196.998 247.964 197.046 247.99C197.094 248.015 197.147 248.029 197.202 248.029C197.272 248.033 197.342 248.013 197.399 247.972H197.378ZM209.768 250.702C209.767 250.617 209.733 250.535 209.673 250.474C209.613 250.413 209.531 250.377 209.446 250.375L196.603 250.255C196.518 250.255 196.436 250.289 196.375 250.35C196.315 250.41 196.281 250.492 196.281 250.578C196.279 250.621 196.287 250.663 196.302 250.703C196.318 250.744 196.342 250.78 196.372 250.811C196.402 250.841 196.438 250.865 196.478 250.882C196.518 250.898 196.56 250.906 196.603 250.905L209.446 251.025C209.49 251.027 209.534 251.02 209.575 251.005C209.616 250.99 209.654 250.967 209.686 250.936C209.718 250.906 209.744 250.87 209.761 250.83C209.779 250.79 209.789 250.746 209.789 250.702H209.768ZM192.536 269.906C192.562 269.849 194.752 263.815 201.337 262.375C201.422 262.356 201.496 262.304 201.542 262.231C201.589 262.158 201.605 262.069 201.586 261.985C201.565 261.901 201.513 261.83 201.44 261.784C201.368 261.738 201.28 261.723 201.196 261.74C194.252 263.259 191.948 269.631 191.922 269.693C191.895 269.775 191.901 269.865 191.939 269.942C191.977 270.02 192.044 270.08 192.125 270.109H192.229C192.298 270.115 192.367 270.099 192.426 270.062C192.485 270.026 192.531 269.971 192.557 269.906H192.536Z" fill="#D8D8D8"/>
<path opacity="0.2" d="M209.56 218.412L208.296 197.382L209.56 218.412ZM205.56 225.35L197.571 207.265L205.56 225.35ZM226.179 220.092L207.032 222.838L226.179 220.092ZM201.42 235.098L191.053 221.798L201.42 235.098ZM203.241 231.02L217.524 231.738L203.241 231.02ZM199.86 241.22L210.783 242.302L199.86 241.22ZM197.222 247.701L191.797 239.54L197.222 247.701ZM196.598 250.583L209.441 250.702L196.598 250.583ZM193.997 274.676C194.084 274.669 194.163 274.629 194.22 274.564C194.276 274.499 194.305 274.414 194.299 274.328C193.483 262.063 198.226 241.974 205.836 225.486C210.699 214.947 229.763 194.235 229.966 194.027C230.027 193.966 230.062 193.882 230.062 193.796C230.062 193.709 230.027 193.625 229.966 193.564C229.936 193.534 229.9 193.51 229.861 193.494C229.822 193.477 229.779 193.469 229.737 193.469C229.694 193.469 229.652 193.477 229.613 193.494C229.574 193.51 229.538 193.534 229.508 193.564C229.316 193.772 210.174 214.562 205.269 225.194C197.519 242.084 192.838 261.808 193.67 274.369C193.676 274.452 193.713 274.529 193.774 274.586C193.835 274.643 193.914 274.675 193.997 274.676ZM209.555 218.734C209.641 218.729 209.722 218.69 209.779 218.625C209.836 218.561 209.866 218.477 209.862 218.391L208.619 197.351C208.617 197.308 208.606 197.266 208.588 197.227C208.57 197.188 208.544 197.154 208.512 197.125C208.48 197.097 208.442 197.075 208.402 197.061C208.361 197.047 208.318 197.041 208.276 197.044C208.19 197.049 208.109 197.088 208.052 197.152C207.994 197.217 207.964 197.301 207.969 197.387L209.233 218.417C209.237 218.5 209.272 218.578 209.332 218.635C209.392 218.692 209.472 218.724 209.555 218.724V218.734ZM205.675 225.647C205.753 225.612 205.814 225.547 205.845 225.467C205.876 225.388 205.875 225.299 205.841 225.22L197.847 207.135C197.812 207.056 197.748 206.994 197.668 206.963C197.588 206.932 197.499 206.934 197.42 206.968C197.341 207.003 197.28 207.067 197.248 207.147C197.217 207.227 197.219 207.316 197.254 207.395L205.243 225.48C205.268 225.538 205.31 225.588 205.362 225.623C205.415 225.658 205.476 225.677 205.54 225.678C205.593 225.681 205.647 225.67 205.696 225.647H205.675ZM207.058 223.15L226.195 220.414C226.241 220.413 226.286 220.402 226.328 220.383C226.37 220.363 226.407 220.335 226.437 220.299C226.467 220.264 226.489 220.223 226.502 220.179C226.515 220.134 226.519 220.088 226.513 220.042C226.506 219.996 226.49 219.952 226.466 219.913C226.441 219.874 226.409 219.84 226.371 219.814C226.332 219.789 226.289 219.771 226.243 219.764C226.198 219.756 226.151 219.758 226.106 219.769L206.97 222.505C206.884 222.511 206.805 222.55 206.748 222.614C206.691 222.679 206.663 222.763 206.668 222.848C206.674 222.934 206.713 223.014 206.777 223.07C206.842 223.127 206.926 223.156 207.012 223.15H207.058ZM201.602 235.358C201.67 235.305 201.714 235.227 201.725 235.141C201.736 235.055 201.712 234.969 201.659 234.9L191.287 221.574C191.234 221.505 191.156 221.46 191.07 221.449C190.983 221.438 190.896 221.461 190.827 221.514C190.758 221.567 190.713 221.646 190.702 221.732C190.691 221.818 190.714 221.906 190.767 221.975L201.16 235.322C201.19 235.361 201.229 235.392 201.273 235.414C201.317 235.435 201.366 235.446 201.415 235.446C201.492 235.443 201.566 235.411 201.623 235.358H201.602ZM217.81 231.753C217.813 231.667 217.782 231.584 217.723 231.52C217.665 231.457 217.584 231.419 217.498 231.415L203.241 230.692C203.16 230.698 203.085 230.733 203.029 230.79C202.973 230.847 202.94 230.923 202.936 231.004C202.932 231.084 202.958 231.163 203.008 231.225C203.058 231.288 203.13 231.329 203.209 231.342L217.493 232.065C217.579 232.068 217.662 232.037 217.726 231.979C217.789 231.92 217.827 231.839 217.831 231.753H217.81ZM211.084 242.333C211.089 242.29 211.086 242.247 211.074 242.206C211.062 242.164 211.042 242.126 211.014 242.092C210.987 242.059 210.954 242.031 210.916 242.011C210.878 241.991 210.836 241.978 210.793 241.974L199.87 240.898C199.828 240.893 199.785 240.897 199.744 240.91C199.703 240.922 199.665 240.942 199.632 240.97C199.599 240.997 199.572 241.03 199.552 241.068C199.532 241.105 199.52 241.146 199.516 241.189C199.509 241.274 199.535 241.359 199.59 241.425C199.644 241.491 199.722 241.533 199.808 241.543L210.731 242.625H210.762C210.846 242.63 210.929 242.603 210.993 242.549C211.057 242.494 211.097 242.417 211.105 242.333H211.084ZM197.378 247.972C197.451 247.924 197.501 247.85 197.519 247.765C197.536 247.68 197.519 247.592 197.472 247.519L192.073 239.358C192.023 239.288 191.949 239.239 191.864 239.223C191.78 239.206 191.693 239.223 191.62 239.27C191.548 239.317 191.498 239.392 191.48 239.477C191.463 239.561 191.479 239.65 191.527 239.722L196.926 247.883C196.957 247.928 196.998 247.964 197.046 247.99C197.094 248.015 197.147 248.029 197.202 248.029C197.272 248.033 197.342 248.013 197.399 247.972H197.378ZM209.768 250.702C209.767 250.617 209.733 250.535 209.673 250.474C209.613 250.413 209.531 250.377 209.446 250.375L196.603 250.255C196.518 250.255 196.436 250.289 196.375 250.35C196.315 250.41 196.281 250.492 196.281 250.578C196.279 250.621 196.287 250.663 196.302 250.703C196.318 250.744 196.342 250.78 196.372 250.811C196.402 250.841 196.438 250.865 196.478 250.882C196.518 250.898 196.56 250.906 196.603 250.905L209.446 251.025C209.49 251.027 209.534 251.02 209.575 251.005C209.616 250.99 209.654 250.967 209.686 250.936C209.718 250.906 209.744 250.87 209.761 250.83C209.779 250.79 209.789 250.746 209.789 250.702H209.768ZM192.536 269.906C192.562 269.849 194.752 263.815 201.337 262.375C201.422 262.356 201.496 262.304 201.542 262.231C201.589 262.158 201.605 262.069 201.586 261.985C201.565 261.901 201.513 261.83 201.44 261.784C201.368 261.738 201.28 261.723 201.196 261.74C194.252 263.259 191.948 269.631 191.922 269.693C191.895 269.775 191.901 269.865 191.939 269.942C191.977 270.02 192.044 270.08 192.125 270.109H192.229C192.298 270.115 192.367 270.099 192.426 270.062C192.485 270.026 192.531 269.971 192.557 269.906H192.536ZM193.997 274.676C194.084 274.669 194.163 274.629 194.22 274.564C194.276 274.499 194.305 274.414 194.299 274.328C193.483 262.063 198.226 241.974 205.836 225.486C210.699 214.947 229.763 194.235 229.966 194.027C230.027 193.966 230.062 193.882 230.062 193.796C230.062 193.709 230.027 193.625 229.966 193.564C229.936 193.534 229.9 193.51 229.861 193.494C229.822 193.477 229.779 193.469 229.737 193.469C229.694 193.469 229.652 193.477 229.613 193.494C229.574 193.51 229.538 193.534 229.508 193.564C229.316 193.772 210.174 214.562 205.269 225.194C197.519 242.084 192.838 261.808 193.67 274.369C193.676 274.452 193.713 274.529 193.774 274.586C193.835 274.643 193.914 274.675 193.997 274.676ZM209.555 218.734C209.641 218.729 209.722 218.69 209.779 218.625C209.836 218.561 209.866 218.477 209.862 218.391L208.619 197.351C208.617 197.308 208.606 197.266 208.588 197.227C208.57 197.188 208.544 197.154 208.512 197.125C208.48 197.097 208.442 197.075 208.402 197.061C208.361 197.047 208.318 197.041 208.276 197.044C208.19 197.049 208.109 197.088 208.052 197.152C207.994 197.217 207.964 197.301 207.969 197.387L209.233 218.417C209.237 218.5 209.272 218.578 209.332 218.635C209.392 218.692 209.472 218.724 209.555 218.724V218.734ZM205.675 225.647C205.753 225.612 205.814 225.547 205.845 225.467C205.876 225.388 205.875 225.299 205.841 225.22L197.847 207.135C197.812 207.056 197.748 206.994 197.668 206.963C197.588 206.932 197.499 206.934 197.42 206.968C197.341 207.003 197.28 207.067 197.248 207.147C197.217 207.227 197.219 207.316 197.254 207.395L205.243 225.48C205.268 225.538 205.31 225.588 205.362 225.623C205.415 225.658 205.476 225.677 205.54 225.678C205.593 225.681 205.647 225.67 205.696 225.647H205.675ZM207.058 223.15L226.195 220.414C226.241 220.413 226.286 220.402 226.328 220.383C226.37 220.363 226.407 220.335 226.437 220.299C226.467 220.264 226.489 220.223 226.502 220.179C226.515 220.134 226.519 220.088 226.513 220.042C226.506 219.996 226.49 219.952 226.466 219.913C226.441 219.874 226.409 219.84 226.371 219.814C226.332 219.789 226.289 219.771 226.243 219.764C226.198 219.756 226.151 219.758 226.106 219.769L206.97 222.505C206.884 222.511 206.805 222.55 206.748 222.614C206.691 222.679 206.663 222.763 206.668 222.848C206.674 222.934 206.713 223.014 206.777 223.07C206.842 223.127 206.926 223.156 207.012 223.15H207.058ZM201.602 235.358C201.67 235.305 201.714 235.227 201.725 235.141C201.736 235.055 201.712 234.969 201.659 234.9L191.287 221.574C191.261 221.54 191.228 221.511 191.191 221.49C191.154 221.468 191.112 221.454 191.07 221.449C191.027 221.443 190.984 221.446 190.942 221.457C190.9 221.469 190.861 221.488 190.827 221.514C190.793 221.541 190.764 221.573 190.743 221.611C190.721 221.648 190.707 221.689 190.702 221.732C190.696 221.775 190.699 221.818 190.71 221.86C190.722 221.901 190.741 221.94 190.767 221.975L201.16 235.322C201.19 235.361 201.229 235.392 201.273 235.414C201.317 235.435 201.366 235.446 201.415 235.446C201.492 235.443 201.566 235.411 201.623 235.358H201.602ZM217.81 231.753C217.813 231.667 217.782 231.584 217.723 231.52C217.665 231.457 217.584 231.419 217.498 231.415L203.241 230.692C203.16 230.698 203.085 230.733 203.029 230.79C202.973 230.847 202.94 230.923 202.936 231.004C202.932 231.084 202.958 231.163 203.008 231.225C203.058 231.288 203.13 231.329 203.209 231.342L217.493 232.065C217.579 232.068 217.662 232.037 217.726 231.979C217.789 231.92 217.827 231.839 217.831 231.753H217.81ZM211.084 242.333C211.089 242.29 211.086 242.247 211.074 242.206C211.062 242.164 211.042 242.126 211.014 242.092C210.987 242.059 210.954 242.031 210.916 242.011C210.878 241.991 210.836 241.978 210.793 241.974L199.87 240.898C199.828 240.893 199.785 240.897 199.744 240.91C199.703 240.922 199.665 240.942 199.632 240.97C199.599 240.997 199.572 241.03 199.552 241.068C199.532 241.105 199.52 241.146 199.516 241.189C199.509 241.274 199.535 241.359 199.59 241.425C199.644 241.491 199.722 241.533 199.808 241.543L210.731 242.625H210.762C210.846 242.63 210.929 242.603 210.993 242.549C211.057 242.494 211.097 242.417 211.105 242.333H211.084ZM197.378 247.972C197.451 247.924 197.501 247.85 197.519 247.765C197.536 247.68 197.519 247.592 197.472 247.519L192.073 239.358C192.023 239.288 191.949 239.239 191.864 239.223C191.78 239.206 191.693 239.223 191.62 239.27C191.548 239.317 191.498 239.392 191.48 239.477C191.463 239.561 191.479 239.65 191.527 239.722L196.926 247.883C196.957 247.928 196.998 247.964 197.046 247.99C197.094 248.015 197.147 248.029 197.202 248.029C197.272 248.033 197.342 248.013 197.399 247.972H197.378ZM209.768 250.702C209.767 250.617 209.733 250.535 209.673 250.474C209.613 250.413 209.531 250.377 209.446 250.375L196.603 250.255C196.518 250.255 196.436 250.289 196.375 250.35C196.315 250.41 196.281 250.492 196.281 250.578C196.279 250.621 196.287 250.663 196.302 250.703C196.318 250.744 196.342 250.78 196.372 250.811C196.402 250.841 196.438 250.865 196.478 250.882C196.518 250.898 196.56 250.906 196.603 250.905L209.446 251.025C209.49 251.027 209.534 251.02 209.575 251.005C209.616 250.99 209.654 250.967 209.686 250.936C209.718 250.906 209.744 250.87 209.761 250.83C209.779 250.79 209.789 250.746 209.789 250.702H209.768ZM192.536 269.906C192.562 269.849 194.752 263.815 201.337 262.375C201.422 262.356 201.496 262.304 201.542 262.231C201.589 262.158 201.605 262.069 201.586 261.985C201.565 261.901 201.513 261.83 201.44 261.784C201.368 261.738 201.28 261.723 201.196 261.74C194.252 263.259 191.948 269.631 191.922 269.693C191.895 269.775 191.901 269.865 191.939 269.942C191.977 270.02 192.044 270.08 192.125 270.109H192.229C192.298 270.115 192.367 270.099 192.426 270.062C192.485 270.026 192.531 269.971 192.557 269.906H192.536Z" fill="black"/>
<path d="M202.492 265.506H187.766V268.554H189.051L191.709 285.183H198.549L201.207 268.554H202.492V265.506Z" fill="#D8D8D8"/>
<path opacity="0.3" d="M202.492 265.506H187.766V268.554H189.051L191.709 285.183H198.549L201.207 268.554H202.492V265.506Z" fill="white"/>
<path d="M157.283 224.209L144.756 245.038L103.943 224.466L98.2857 237.434L51.8149 216.825L27.7897 233.099L14.4547 226.486L2.00122 218.331L5.38092 212.27L63.3132 188.245L157.283 224.209Z" fill="#951915"/>
<path d="M166.908 239.344C211.696 147.005 178.563 82.3974 159.902 60.6621L117.168 54.2324C110.861 61.4449 96.559 86.1191 89.7996 127.116C81.3504 178.363 37.0471 192.322 19.6343 201.029C2.22156 209.735 -2.26022 210.984 0.972534 217.449C3.55873 222.622 19.9527 230.038 27.8264 233.099C13.3892 224.87 -7.991 215.466 13.9035 213.225C35.798 210.984 58.2068 233.099 80.3218 238.095C98.0137 242.092 101.482 236.956 96.7427 233.099C70.0578 211.381 85.624 217.756 96.7427 223.658C144.499 250.725 147.989 246.716 143.764 241.328C141.193 238.181 136.652 230.939 139.062 227.148C141.472 223.357 158.63 233.699 166.908 239.344Z" fill="#DC433E"/>
<path d="M108.799 83.9146C106.007 88.7637 100.1 102.04 98.8067 116.352C98.7704 116.755 98.7335 117.153 98.6962 117.546C96.6732 126.51 95.3952 135.301 94.8025 141.222C95.5761 138.961 97.4068 131.123 98.6962 117.546C101.563 104.84 105.927 91.7832 111.958 86.0453C122.244 76.2589 114.138 80.5471 108.799 83.9146Z" fill="#C73632"/>
<path d="M53.6877 195.344C42.1279 201.262 30.4352 204.166 22.5874 205.024C34.6903 203.769 45.0125 200.178 53.6877 195.344C68.9414 187.534 83.9637 174.475 89.6151 153.942C85.9981 164.722 74.6514 183.662 53.6877 195.344Z" fill="#C73632"/>
<path d="M158.672 82.4448C166.817 89.4858 180.484 117.658 169.992 174.018C175.602 147.273 181.192 91.5167 158.672 82.4448Z" fill="#C73632"/>
<path d="M128.489 144.456C128.697 154.766 125.8 179.832 112.546 197.612C120.567 188.441 134.984 164.969 128.489 144.456Z" fill="#C73632"/>
<path d="M138.554 227.589C148.858 209.037 164.652 167.078 161.269 124.319C163.242 96.5829 161.103 75.8216 158.502 65.1429L146.869 69.933C138.681 48.1128 140.4 60.2391 142.889 71.5718L146.869 69.933C148.953 75.486 151.678 83.2375 155.196 93.7602C158.547 103.785 160.458 114.075 161.269 124.319C159.258 152.592 152.974 188.112 138.554 227.589Z" fill="#C73632"/>
<path d="M105.069 169.488C97.7218 191.747 87.7838 209.923 82.0117 218.478C91.6829 209.177 99.4972 189.14 105.069 169.488C109.037 157.464 112.25 144.249 113.641 130.716C112.143 140.331 109.232 154.802 105.069 169.488Z" fill="#C73632"/>
<path d="M102.839 112.501C101.777 113.032 100.675 113.127 99.9931 112.814H99.9875C99.7527 112.445 99.529 112.082 99.311 111.724C99.3613 110.935 100.138 110.002 101.301 109.42C102.766 108.688 104.298 108.783 104.723 109.633C104.74 109.666 104.757 109.7 104.768 109.739V109.75L104.801 109.901C104.969 110.74 104.164 111.841 102.839 112.501Z" fill="#261D1C"/>
<path d="M103.823 108.856V111.031C103.823 111.031 107.183 110.718 107.289 111.758C107.396 112.798 106.618 113.105 106.618 113.105L109.542 115.487L106.999 121.453C106.999 121.453 100.776 115.901 100.927 113.111C101.078 110.321 98.8078 109.387 98.8078 109.387L103.823 108.867V108.856Z" fill="#F1C8A7"/>
<path d="M100.39 110.796C100.39 110.796 101.117 108.576 103.851 109.521V109.633C103.851 109.633 101.43 108.794 100.468 110.93L100.39 110.796Z" fill="#CC9B7A"/>
<path d="M112.271 268.148C115.121 268.148 117.431 267.142 117.431 265.901C117.431 264.66 115.121 263.653 112.271 263.653C109.421 263.653 107.11 264.66 107.11 265.901C107.11 267.142 109.421 268.148 112.271 268.148Z" fill="#14243A"/>
<path d="M162.349 266.097C162.36 266.236 162.316 266.376 162.209 266.516L162.204 266.522C161.65 267.276 159.526 267.986 156.943 268.221C154.589 268.434 152.531 268.193 151.67 267.662L151.441 266.628L151.676 267.606C151.676 267.606 157.172 265.817 162.209 266.035H162.226C162.226 266.035 162.22 265.951 162.204 265.784C162.293 265.879 162.338 265.985 162.349 266.097Z" fill="#14243A"/>
<path d="M162.226 266.035C157.183 265.812 151.676 267.606 151.676 267.606L151.441 266.628C152.056 265.895 154.136 265.213 156.646 264.984C159.336 264.738 161.628 265.09 162.204 265.784C162.22 265.951 162.226 266.035 162.226 266.035Z" fill="#14243A"/>
<path d="M156.311 15.3691C156.311 15.3691 156.719 14.29 157.485 16.6438C157.485 16.6438 161.952 16.7836 162.981 22.4137C162.981 22.4137 171.133 42.9829 160.42 61.1816L156.311 15.3691Z" fill="#704430"/>
<path d="M161.46 58.4478C161.46 58.4478 141.042 50.257 137.922 50.4415C137.922 50.4415 154.254 27.3955 150.469 14.4467C150.469 14.4467 154.382 10.7176 156.311 15.3693C158.24 20.021 161.46 58.4478 161.46 58.4478Z" fill="#704430"/>
<path d="M154.941 21.8153C154.941 21.8153 160.923 40.0084 148.83 51.0673L153.884 56.4123C153.884 56.4123 169.388 34.272 154.941 21.8153Z" fill="#5B3728"/>
<path d="M128.11 6.37317L143.39 7.39073L154.745 23.1908L151.704 29.2794L131.168 11.4666L128.11 6.37317Z" fill="#704430"/>
<path d="M141.903 41.3726C141.903 41.3726 144.889 40.1761 146.527 36.8551C146.527 36.8551 146.124 40.6234 141.903 41.3726Z" fill="#5B3728"/>
<path d="M120.976 16.8618C120.976 16.8618 127.573 8.72138 129.39 9.09039C131.207 9.45939 137.989 10.8795 140.349 12.9705C140.349 12.9705 141.579 15.6095 141.528 17.8291C141.478 20.0487 145.901 25.4552 148.948 25.198L148.567 25.0359C148.567 25.0359 143.396 22.0111 143.077 19.6741C142.758 17.3371 142.289 13.6582 141.579 13.0656C140.869 12.4729 133.03 6.99377 128.977 8.34678C124.923 9.6998 120.724 16.1797 120.982 16.8563L120.976 16.8618Z" fill="#CC9B7A"/>
<path d="M160.342 110.819V110.846C160.325 110.902 160.286 110.925 160.241 110.958C159.794 111.266 158.134 110.349 156.987 108.655C156.098 107.346 155.534 106.072 155.528 105.423C155.528 105.423 155.718 105.283 156.07 105.026C156.339 105.116 156.691 105.356 157.077 105.72C157.569 106.172 158.111 106.804 158.62 107.553C159.173 108.37 159.677 109.119 159.995 109.711C160.264 110.215 160.409 110.6 160.342 110.819Z" fill="#261D1C"/>
<path d="M128.127 39.9582C128.127 39.9582 131.56 46.2536 130.33 49.256C129.1 52.2583 126.936 56.2279 126.936 56.2279H121.641C121.641 56.2279 111.768 64.6535 111.768 69.6854C111.768 74.7173 113.607 77.0432 113.512 80.5319C113.417 84.0207 114.574 88.2754 112.735 91.2778C110.895 94.2802 110.023 116.163 110.023 116.163C110.023 116.163 118.057 118.875 128.322 114.71C128.322 114.71 125.029 109.963 126.388 90.7914C126.388 90.7914 122.418 89.7291 124.453 81.3035C126.489 72.8779 129.429 58.8277 139.974 54.6625C139.974 54.6625 136.748 49.6418 140.813 49.4461L147.494 34.7306L143.139 28.8265L128.132 39.9638L128.127 39.9582Z" fill="#F1C8A7"/>
<path d="M173.911 289.059C169.131 289.512 160.627 288.802 156.73 288.421C155.562 288.31 154.678 287.326 154.678 286.157V285.196L154.684 284.882H154.69L167.146 285.872C167.146 285.872 170.266 284.547 172.737 284.34C174.034 284.782 175.052 285.039 175.22 285.039C175.32 285.039 175.454 285.134 175.555 285.291H175.561C175.611 285.408 175.656 285.52 175.695 285.626C176.931 288.779 173.911 289.059 173.911 289.059Z" fill="#D3D1CF"/>
<path d="M153.292 265.778L155.595 277.938L157.222 278.447L157.821 281.332H158.743L160.745 279.213C160.745 279.213 159.554 276.054 162.226 276.68C162.226 276.68 159.828 268.294 159.576 263.687L153.286 265.783L153.292 265.778Z" fill="#F1C8A7"/>
<path d="M170.853 287.253C164.569 287.136 155.953 286.42 154.936 285.699C154.774 285.581 154.695 285.414 154.684 285.196C154.667 285.117 154.667 285.033 154.684 284.944C154.679 284.922 154.684 284.905 154.69 284.882C154.824 283.652 156.121 281.511 155.892 279.957L155.595 277.938H157.474C157.53 277.938 157.575 277.978 157.575 278.033L157.81 281.237C157.81 281.293 157.86 281.332 157.91 281.332H158.626C158.687 281.332 158.732 281.282 158.726 281.22L158.48 277.726C158.48 277.726 160.057 275.976 162.215 276.68C162.215 276.68 164.86 277.86 166.174 280.432C167.023 282.098 170.35 283.535 172.726 284.34C174.023 284.782 175.041 285.039 175.209 285.039C175.309 285.039 175.443 285.134 175.544 285.291H175.55C175.617 285.391 175.662 285.503 175.684 285.626C175.801 286.314 175.058 287.337 170.842 287.253H170.853Z" fill="#422E2B"/>
<path d="M88.4704 285.005C88.4704 285.005 88.5095 285.056 88.5263 285.078C88.8059 285.419 89.2364 285.603 89.6836 285.598L115.011 285.179C115.223 285.179 115.425 285.128 115.615 285.039C116.107 284.81 116.621 284.038 116.476 283.06C116.297 281.874 95.4032 282.478 89.611 282.607C88.3865 282.635 87.71 284.049 88.4704 285.005Z" fill="#D3D1CF"/>
<path d="M106.915 273.588C106.915 273.588 104.332 274.544 103.325 276.272C102.319 278 88.677 282.254 88.677 282.254C88.677 282.254 87.2905 282.97 87.9614 284.172L116.487 283.166C116.487 283.166 116.09 278.631 115.301 276.557L115.525 274.55C115.536 274.466 115.475 274.393 115.396 274.382L114.01 274.164L106.926 273.588H106.915Z" fill="#422E2B"/>
<path d="M109.101 264.218L107.161 274.181C107.144 274.282 107.217 274.377 107.323 274.377H107.916C108.022 274.377 108.1 274.472 108.083 274.572L107.396 278.81H107.932L110.387 275.624C110.42 275.579 110.476 275.545 110.538 275.545L114.345 275.389L116.481 263.307L109.101 264.218Z" fill="#F1C8A7"/>
<path d="M135.73 3.28114C135.73 3.28114 140.136 -0.487178 146.225 6.9656C146.225 6.9656 155.841 7.41847 154.88 24.6219C153.918 41.8254 139.018 45.426 139.018 45.426C139.018 45.426 142.423 43.8214 142.881 40.9364C142.881 40.9364 142.143 42.8597 139.499 42.6976C139.499 42.6976 144.626 36.2064 144.464 33.724L149.993 19.6236L135.73 3.28114Z" fill="#704430"/>
<path d="M140.304 12.529C140.304 12.529 129.167 4.87497 123.134 11.4835C117.101 18.0921 118.767 26.0704 118.767 26.0704C118.767 26.0704 117.403 29.1175 117.728 30.3978C118.052 31.6781 120.613 39.6117 122.217 40.9759C123.822 42.3401 137.005 45.5661 145.934 33.3666C145.934 33.3666 149.54 35.2899 151.704 29.2796C153.868 23.2693 148.981 24.9522 148.981 24.9522C148.981 24.9522 142.652 22.7885 142.009 17.7398C141.366 12.6912 140.31 12.529 140.31 12.529H140.304Z" fill="#F1C8A7"/>
<path d="M144.592 11.4944C144.592 11.4944 132.958 -10.7801 120.775 6.68616C120.775 6.68616 108.514 14.9384 116.526 28.1611C116.526 28.1611 122.335 -2.52778 144.587 11.4944H144.592Z" fill="#704430"/>
<path d="M127.048 16.8283V17.9912C127.048 17.9912 133.846 16.5599 137.441 19.0647C137.441 19.0647 135.898 15.4417 127.048 16.8283Z" fill="#704430"/>
<path d="M120.249 32.2984C120.249 32.2984 121.993 32.3152 123.067 31.7337L123.469 32.1083L123.738 31.6722C123.738 31.6722 127.78 32.1642 129.748 31.2697C129.748 31.2697 125.84 32.9246 120.249 32.2984Z" fill="#D58572"/>
<path d="M120.249 32.2986C120.249 32.2986 125.616 32.9024 129.832 31.2251C129.832 31.2251 123.632 34.4008 120.249 32.2986Z" fill="#D58572"/>
<path d="M162.209 266.516L162.204 266.522C157.161 266.298 151.67 267.662 151.67 267.662L151.441 266.628L139.717 217.969C139.42 216.739 139.303 215.47 139.365 214.201L140.164 198.015L130.1 156.525L125.32 191.876C125.32 191.876 127.584 211.517 127.814 217.651C128.043 223.79 117.426 265.756 117.426 265.756L107.11 265.862C107.11 265.862 105.69 225.758 107.876 217.897C110.068 210.041 108.486 206.603 108.486 206.603C96.6886 156.525 107.876 117.488 107.876 117.488L113.842 102.996C113.842 102.996 134.059 97.7577 141.992 105.619C149.926 113.485 151.721 133.082 151.721 133.082C157.222 144.94 157.479 176.026 157.479 176.026C157.479 176.026 154.79 204.736 156.451 207.358C158.117 209.98 159.268 212.977 159.654 226.831C160.012 239.875 161.974 263.117 162.204 265.783C162.209 265.839 162.209 265.929 162.209 266.035C162.209 266.236 162.209 266.471 162.209 266.516Z" fill="#22324D"/>
<path d="M124.275 22.6819C124.275 22.6819 123.928 25.8687 123.47 26.5564C123.011 27.2441 121.949 28.586 123.872 28.6922C123.872 28.6922 124.856 28.2561 125.471 28.6922" fill="#CC9B7A"/>
<path d="M113.814 60.4323C113.814 60.4323 120.774 64.2622 139.694 60.4323C158.614 56.6025 132.247 110.874 132.247 110.874H108.603L110.135 63.1607L113.819 60.4323H113.814Z" fill="white"/>
<path d="M164.094 107.05L159.9 109.773C159.358 108.644 158.318 106.899 156.736 105.943L157.832 105.227L164.094 107.05Z" fill="#422E2B"/>
<path d="M129.318 42.4011C129.318 42.4011 137.352 42.211 142.479 37.1959C142.479 37.1959 138.481 43.7374 129.318 42.4011Z" fill="#CC9B7A"/>
<path d="M116.8 61.1818C116.8 61.1818 124.012 62.5683 129.128 61.6011L128.932 62.0148C128.932 62.0148 120.97 62.5348 116.643 61.3607L116.8 61.1874V61.1818Z" fill="#CC9B7A"/>
<path d="M147.365 28.62C147.365 28.62 147.192 26.3109 149.115 26.5233C151.039 26.7358 151.631 28.3404 150.725 29.9506C149.82 31.5608 147.997 32.4665 146.985 31.8739C145.973 31.2813 146.912 30.5824 147.265 30.4035C147.617 30.2246 148.489 28.933 147.371 28.62H147.365Z" fill="#CC9B7A"/>
<path d="M118.74 23.7553C118.74 23.7553 118.46 22.693 118.74 20.9989C119.019 19.3048 119.774 18.237 119.774 18.237L123.173 18.1028L123.464 24.1131L118.74 23.7553Z" fill="#E2B596"/>
<path d="M120.982 17.1247C120.982 17.1247 122.189 16.8396 123.173 17.1247V18.4162C123.173 18.4162 120.624 17.9522 119.847 18.5448C119.07 19.1375 120.898 16.1575 120.976 17.1247H120.982Z" fill="#704430"/>
<path d="M119.847 25.9917C119.847 25.9917 119.039 25.4125 119 24.5002C118.977 23.979 119.11 23.4878 119.5 22.9999C121.5 21.9998 123.47 24.1132 123.47 24.1132C123.47 24.1132 122.312 27.1547 119.847 25.9917Z" fill="white"/>
<path d="M120.84 25.2742C121.641 25.0604 122.156 24.3856 121.99 23.7669C121.825 23.1482 121.042 22.82 120.242 23.0337C119.442 23.2475 118.927 23.9223 119.092 24.541C119.257 25.1597 120.04 25.4879 120.84 25.2742Z" fill="#260800"/>
<path d="M119 23.9999C119 23.9999 119.886 19.8976 123.464 24.1132C123.464 24.1132 121.5 21.9999 119 23.9999Z" fill="#422E2B"/>
<path d="M123.469 24.1187C123.469 24.1187 123.184 26.4445 120.976 26.26C120.976 26.26 122.519 26.2712 123.469 24.1187Z" fill="#CC9B7A"/>
<path d="M129.2 24.5217L127.042 17.9971C127.042 17.9971 134.059 16.5714 137.436 19.0705L136.843 22.9115C136.843 22.9115 129.2 21.4858 129.195 24.5217H129.2Z" fill="#E2B596"/>
<path d="M129.2 24.5218C129.2 24.5218 130.095 20.2224 134.601 21.9947L136.72 22.839C136.72 22.839 131.761 27.2502 129.206 24.5218H129.2Z" fill="white"/>
<path d="M130.62 22.3583C130.62 22.3583 129.782 24.617 131.694 24.7177C133.606 24.8183 134.819 22.8671 133.925 21.9725C133.03 21.0779 130.62 22.3639 130.62 22.3639V22.3583Z" fill="#260800"/>
<path d="M129.2 24.5219C129.2 24.5219 129.323 18.4724 136.849 22.9117C136.849 22.9117 130.66 19.8198 129.2 24.5219Z" fill="#422E2B"/>
<path d="M129.2 24.522C129.2 24.522 130.531 26.2887 133.556 24.8407C133.556 24.8407 130.766 26.6298 129.2 24.522Z" fill="#CC9B7A"/>
<path d="M120.775 6.68627C120.775 6.68627 128.334 1.49225 135.731 6.05449C135.731 6.05449 128.803 3.44909 120.775 6.68627Z" fill="#5B3728"/>
<path d="M178.11 100.307C160.499 109.04 160.348 110.846 160.348 110.846C160.348 110.846 160.348 110.841 160.342 110.824C160.303 110.712 160.158 110.309 159.9 109.773L159.995 109.711L164.094 107.05L157.832 105.227L157.077 105.719L156.736 105.943C156.367 105.719 155.964 105.54 155.528 105.423C155.528 105.423 155.718 105.283 156.071 105.026C159.28 102.672 175.851 90.5788 178.563 89.7625L151.553 69.4337C151.553 69.4337 141.758 78.8937 147.639 110.438C147.639 110.438 146.717 108.548 146.186 108.878C144.76 109.767 141.909 111.489 140.298 112.026C140.298 112.026 140.052 112.92 140.707 114.067L140.192 114.1L128.429 114.86C128.429 114.86 123.196 106.972 124.739 93.1339C124.739 93.1339 121.932 89.7234 124.979 79.4919C128.032 69.2548 125.505 59.4762 137.441 53.8573C137.441 53.8573 138.409 49.1552 140.863 48.3222C144.687 47.0251 156.428 51.3693 165.312 63.8651L191.21 87.0565C191.21 87.0565 195.727 91.574 178.11 100.307Z" fill="#422E2B"/>
<path d="M159.9 109.773L153.353 114.028C151.777 117.612 147.6 118.64 147.6 118.64C147.097 121.14 146.432 119.854 144.307 119.977C142.182 120.1 143.826 119.613 142.244 118.339C140.667 117.064 142.244 116.454 141.277 115.426C140.773 114.889 140.438 114.559 140.192 114.101C139.963 113.67 139.817 113.133 139.694 112.211C139.504 110.752 143.625 109.717 146.186 108.879C146.985 108.616 147.634 108.37 147.952 108.141C149.289 107.173 152.263 108.867 152.263 108.867L156.736 105.943C158.318 106.899 159.358 108.644 159.9 109.773Z" fill="#F1C8A7"/>
<path d="M124.739 93.1343C124.739 93.1343 132.51 72.867 139.225 72.8949C139.387 72.8949 139.476 72.7104 139.387 72.5762C138.224 70.9045 133.276 63.5803 134.277 61.1762H136.681C136.832 61.1762 136.96 61.0588 136.972 60.9023L137.447 53.8464C137.447 53.8464 129.603 56.8152 128.093 64.2233C126.584 71.6314 125.823 76.0874 125.823 76.0874C125.823 76.0874 121.652 86.6208 124.744 93.1231L124.739 93.1343Z" fill="#604E4C"/>
<path d="M117.062 61.4666C117.062 61.4666 114.703 63.7422 114.317 65.5704C114.317 65.5704 112.22 68.7405 112.355 70.798C112.489 72.8555 112.528 74.1023 113.132 75.2093C113.735 76.3163 116.906 83.1093 113.4 91.9319L111.169 110.874H109.542L110.319 81.2475L112.819 59.6719L116.274 59.4036L117.068 61.461L117.062 61.4666Z" fill="#EAEAEA"/>
<path d="M129.385 51.8165L127.042 56.3732H121.747C110.554 65.9617 110.968 71.8993 112.874 76.182C114.775 80.4647 114.44 89.0469 112.841 91.4286C111.236 93.8048 110.129 116.309 110.129 116.309L107.267 117.181C106.149 110.22 108.838 81.5382 108.838 81.5382C108.167 84.2274 100.317 90.5061 100.317 90.5061C101.888 91.4007 101.776 94.7664 101.776 94.7664L104.768 109.739V109.75L104.801 109.901C99.9705 107.592 99.9872 112.607 99.9928 112.814H99.9872C99.7524 112.445 99.5288 112.082 99.3107 111.724C84.4835 87.7945 91.5728 83.618 91.5728 83.618C91.5728 83.618 104.113 66.5823 110.129 59.342C116.145 52.1017 129.385 51.8165 129.385 51.8165Z" fill="#422E2B"/>
<path d="M143.289 43.5195C143.289 43.5195 150.591 40.1314 151.139 33.0197C151.139 33.0197 152.336 41.1601 143.289 43.5195Z" fill="#5B3728"/>
<path d="M142.479 9.83948C142.479 9.83948 141.657 14.8434 152.012 23.8784C152.012 23.8784 141.288 17.8346 142.479 9.83948Z" fill="#5B3728"/>
<path d="M143.608 8.151C143.608 8.151 148.869 8.00564 152.313 16.0566C152.313 16.0566 150.502 7.75404 143.608 8.151Z" fill="#5B3728"/>
<path d="M146.583 12.3163C146.583 12.3163 147.539 18.226 154.281 19.0926C154.281 19.0926 147.186 19.6852 146.583 12.3163Z" fill="#5B3728"/>
<path d="M129.445 31.5302C129.689 31.4424 129.864 31.3099 129.837 31.2344C129.81 31.1588 129.59 31.1688 129.346 31.2567C129.102 31.3445 128.926 31.477 128.953 31.5525C128.981 31.6281 129.2 31.6181 129.445 31.5302Z" fill="#AA5B4B"/>
<path d="M120.663 32.3674C120.68 32.3114 120.592 32.2338 120.465 32.194C120.339 32.1542 120.222 32.1674 120.204 32.2234C120.187 32.2793 120.275 32.3569 120.402 32.3967C120.528 32.4365 120.645 32.4234 120.663 32.3674Z" fill="#AA5B4B"/>
<path d="M110.376 112.009H127.009L126.567 110.874H110.376V112.009Z" fill="#14243A"/>
<path d="M128.429 114.861C128.429 114.861 137.581 114.139 140.192 114.1L140.377 114.397L128.58 115.168L128.429 114.861Z" fill="#14243A"/>
<path d="M109.022 116.644L110.129 116.308V116.431L108.905 116.845L109.022 116.644Z" fill="#14243A"/>
<path d="M141.215 114.1C141.215 114.1 144.251 110.287 149.138 110.483C149.138 110.483 143.289 109.94 141.215 114.1Z" fill="#CC9B7A"/>
<path d="M142.484 115.616C142.484 115.616 144.285 112.384 148.556 112.552C148.556 112.552 144.933 112.747 142.484 115.616Z" fill="#CC9B7A"/>
<path d="M143.636 118.31C143.636 118.31 145.123 114.917 148.556 115.168C148.556 115.168 145.017 114.52 143.636 118.31Z" fill="#CC9B7A"/>
<path d="M156.736 105.943C156.736 105.943 158.598 106.983 159.9 109.773L156.736 105.943Z" fill="#CC9B7A"/>
<path d="M108.782 265.845L116.045 265.767L116.006 265.974L108.749 266.024L108.782 265.845Z" fill="#CC9B7A"/>
<path d="M140.892 48.3619C142.44 50.9831 146.215 57.0967 144.607 62.7883C144.566 62.9166 144.526 63.0465 144.488 63.1779C146.052 61.9824 148.474 59.5344 149.38 56.8489C152.504 55.0456 156.35 54.9845 159.063 57.0279C156.652 53.3386 153.713 48.3658 147.322 49.2005C144.359 45.7984 140.949 48.3046 140.892 48.3619Z" fill="#DC433E"/>
</svg>
