<svg width="43" height="43" viewBox="0 0 43 43" fill="none" xmlns="http://www.w3.org/2000/svg">
<g id="cloud_upload">
<mask id="mask0_5127_21774" style="mask-type:alpha" maskUnits="userSpaceOnUse" x="0" y="0" width="43" height="43">
<rect id="Bounding box" width="43" height="43" fill="#D9D9D9"/>
</mask>
<g mask="url(#mask0_5127_21774)">
<path id="cloud_upload_2" d="M11.6459 35.8337C8.92849 35.8337 6.60679 34.893 4.68075 33.0118C2.75471 31.1305 1.79169 28.8312 1.79169 26.1139C1.79169 23.7847 2.49342 21.7094 3.8969 19.8878C5.30037 18.0663 7.13683 16.9017 9.40627 16.3941C10.1528 13.6469 11.6459 11.4222 13.8854 9.72012C16.125 8.01803 18.6632 7.16699 21.5 7.16699C24.9938 7.16699 27.9575 8.38383 30.3912 10.8175C32.8249 13.2512 34.0417 16.2149 34.0417 19.7087C36.1021 19.9475 37.8117 20.8359 39.1703 22.3738C40.529 23.9116 41.2084 25.7107 41.2084 27.7712C41.2084 30.0107 40.4245 31.9144 38.8568 33.4821C37.2891 35.0498 35.3854 35.8337 33.1459 35.8337H23.2917C22.3063 35.8337 21.4627 35.4828 20.761 34.7811C20.0592 34.0793 19.7084 33.2357 19.7084 32.2503V23.0232L16.8417 25.8003L14.3334 23.292L21.5 16.1253L28.6667 23.292L26.1584 25.8003L23.2917 23.0232V32.2503H33.1459C34.4 32.2503 35.4601 31.8173 36.3261 30.9514C37.192 30.0854 37.625 29.0253 37.625 27.7712C37.625 26.517 37.192 25.4569 36.3261 24.591C35.4601 23.725 34.4 23.292 33.1459 23.292H30.4584V19.7087C30.4584 17.2302 29.5849 15.1175 27.838 13.3706C26.0912 11.6238 23.9785 10.7503 21.5 10.7503C19.0215 10.7503 16.9089 11.6238 15.162 13.3706C13.4151 15.1175 12.5417 17.2302 12.5417 19.7087H11.6459C9.91391 19.7087 8.43578 20.3208 7.21148 21.5451C5.98717 22.7694 5.37502 24.2475 5.37502 25.9795C5.37502 27.7114 5.98717 29.1896 7.21148 30.4139C8.43578 31.6382 9.91391 32.2503 11.6459 32.2503H16.125V35.8337H11.6459Z" fill="#979797"/>
</g>
</g>
</svg>
