<?xml version="1.0" standalone="no"?>
<!DOCTYPE svg PUBLIC "-//W3C//DTD SVG 20010904//EN"
 "http://www.w3.org/TR/2001/REC-SVG-20010904/DTD/svg10.dtd">
<svg version="1.0" xmlns="http://www.w3.org/2000/svg"
 width="512.000000pt" height="580.000000pt" viewBox="0 0 512.000000 580.000000"
 preserveAspectRatio="xMidYMid meet">

<g transform="translate(0.000000,580.000000) scale(0.100000,-0.100000)"
fill="#000000" stroke="none">
<path d="M2170 5789 c-756 -45 -1425 -221 -1809 -477 -165 -109 -294 -258
-336 -387 -20 -59 -20 -101 -20 -2025 0 -1924 0 -1966 20 -2025 42 -129 171
-278 336 -387 645 -429 2020 -603 3209 -407 828 136 1386 425 1523 786 l22 58
0 1975 0 1975 -22 58 c-113 299 -504 544 -1118 702 -518 133 -1191 191 -1805
154z m810 -229 c838 -57 1541 -277 1807 -564 141 -153 138 -299 -11 -451 -419
-427 -1723 -661 -2919 -525 -700 80 -1262 275 -1510 523 -113 113 -145 229
-94 341 149 325 936 610 1862 675 173 12 695 12 865 1z m-2545 -1365 c378
-223 944 -367 1665 -426 313 -25 836 -14 1200 27 650 72 1250 268 1536 500
l55 45 -3 -443 -3 -443 -24 -49 c-96 -194 -463 -396 -946 -519 -389 -99 -747
-144 -1235 -154 -530 -11 -1017 39 -1449 147 -505 127 -874 328 -974 530 -22
44 -22 53 -25 488 l-3 443 56 -45 c30 -25 98 -70 150 -101z m-124 -1169 c584
-440 1975 -638 3189 -455 564 85 1037 250 1310 456 39 29 73 53 76 53 3 0 3
-199 2 -442 l-3 -443 -29 -49 c-163 -278 -740 -517 -1481 -615 -296 -39 -422
-46 -815 -46 -393 0 -519 7 -815 46 -729 96 -1313 336 -1475 605 l-35 58 -3
443 c-1 244 -1 443 2 443 3 0 37 -24 77 -54z m-1 -1251 c173 -129 426 -244
729 -330 309 -88 592 -137 1031 -177 205 -18 814 -15 1040 5 628 58 1106 177
1480 368 74 38 171 96 215 129 l80 60 3 -431 2 -432 -23 -51 c-134 -292 -793
-559 -1607 -650 -436 -49 -963 -49 -1400 0 -810 90 -1471 357 -1606 649 l-24
50 0 433 c0 344 3 432 13 426 6 -5 37 -27 67 -49z"/>
<path d="M4391 3627 c-86 -44 -83 -162 4 -204 69 -33 155 22 155 100 0 84 -88
141 -159 104z"/>
<path d="M3953 3523 c-12 -2 -36 -20 -54 -40 -28 -32 -31 -41 -26 -81 16 -141
224 -130 220 12 -2 74 -65 122 -140 109z"/>
<path d="M3470 3394 c-52 -37 -68 -85 -46 -138 19 -45 52 -66 104 -66 37 0 50
6 79 35 33 33 35 39 30 81 -6 61 -39 95 -98 101 -32 3 -51 -1 -69 -13z"/>
<path d="M4383 2370 c-38 -23 -55 -52 -55 -95 0 -43 17 -72 55 -95 39 -24 68
-25 107 -5 80 42 77 166 -5 201 -45 19 -64 18 -102 -6z"/>
<path d="M3908 2241 c-29 -26 -33 -35 -33 -81 0 -46 4 -55 33 -81 52 -46 142
-34 169 23 20 41 22 56 12 92 -21 76 -120 102 -181 47z"/>
<path d="M3457 2130 c-41 -36 -52 -78 -33 -125 19 -44 60 -70 110 -69 32 1 46
8 73 38 95 103 -45 249 -150 156z"/>
<path d="M4393 1125 c-69 -30 -87 -115 -37 -174 86 -102 245 14 177 130 -17
28 -67 59 -95 59 -7 -1 -27 -7 -45 -15z"/>
<path d="M3908 991 c-29 -26 -33 -35 -33 -81 0 -46 4 -55 33 -81 61 -55 160
-29 181 47 31 111 -96 191 -181 115z"/>
<path d="M3490 903 c-28 -10 -59 -46 -70 -79 -9 -25 -8 -40 4 -68 15 -37 67
-76 99 -76 34 0 88 32 102 61 48 91 -40 197 -135 162z"/>
</g>
</svg>
