<svg width="107" height="107" viewBox="0 0 107 107" fill="none" xmlns="http://www.w3.org/2000/svg">
<path d="M39.625 105.531C60.6981 105.531 77.7812 88.4481 77.7812 67.375C77.7812 46.3019 60.6981 29.2188 39.625 29.2188C18.5519 29.2188 1.46875 46.3019 1.46875 67.375C1.46875 88.4481 18.5519 105.531 39.625 105.531Z" fill="#EBEDF0"/>
<path d="M53.5 77.7812H4.9375C3.02969 77.7812 1.46875 76.2203 1.46875 74.3125V11.875H91.6562V58.7031V67.982C90.3208 67.2016 88.8639 66.5772 87.3203 66.1956L85.5859 60.4375H80.3828L78.6484 66.1956C77.0528 66.5945 75.5439 67.2362 74.1737 68.0514L68.8839 65.207L65.207 68.8839L68.0514 74.1737C67.3923 75.2837 66.8391 76.4978 66.4558 77.7812H66.4384H53.5Z" fill="white"/>
<path d="M91.6565 67.982C91.7085 67.9994 91.7432 68.0167 91.7952 68.0514L97.0851 65.207L100.762 68.8839L97.9176 74.1737C98.7327 75.5439 99.3744 77.0528 99.7716 78.6484L105.53 80.3828V85.5859L99.7716 87.3203C99.3744 88.9159 98.731 90.4248 97.9176 91.795L100.762 97.0848L97.0851 100.762L91.7952 97.9173C90.4251 98.7325 88.9162 99.3742 87.3205 99.7731L85.5862 105.531H80.383L78.6487 99.7731C77.053 99.3742 75.5441 98.7325 74.174 97.9173L68.8841 100.762L65.2073 97.0848L68.0516 91.795C67.2365 90.4248 66.5947 88.9159 66.1976 87.3203L60.4395 85.5859V80.3828L66.1976 78.6484C66.267 78.3536 66.3537 78.0588 66.456 77.7812C66.8393 76.4978 67.3926 75.2837 68.0516 74.1737L65.2073 68.8839L68.8841 65.207L74.174 68.0514C75.5441 67.2362 77.053 66.5945 78.6487 66.1956L80.383 60.4375H85.5862L87.3205 66.1956C88.8641 66.5772 90.321 67.2016 91.6565 67.982ZM93.3908 82.9844C93.3908 77.2436 88.7254 72.5781 82.9846 72.5781C77.2438 72.5781 72.5783 77.2436 72.5783 82.9844C72.5783 88.7252 77.2438 93.3906 82.9846 93.3906C88.7254 93.3906 93.3908 88.7252 93.3908 82.9844Z" fill="#8FF3AD"/>
<path d="M4.9375 1.46875H88.1875C90.0953 1.46875 91.6562 3.02969 91.6562 4.9375V11.875H1.46875V4.9375C1.46875 3.02969 3.02969 1.46875 4.9375 1.46875Z" fill="#8FF3AD"/>
<path d="M91.6562 58.7031V11.875V4.9375C91.6562 3.02969 90.0953 1.46875 88.1875 1.46875H4.9375C3.02969 1.46875 1.46875 3.02969 1.46875 4.9375V11.875V74.3125C1.46875 76.2203 3.02969 77.7812 4.9375 77.7812H53.5" stroke="#303E58" stroke-width="1.5" stroke-miterlimit="10" stroke-linecap="round" stroke-linejoin="round"/>
<path d="M1.46875 11.875H91.6562" stroke="#303E58" stroke-width="1.5" stroke-miterlimit="10" stroke-linecap="round" stroke-linejoin="round"/>
<path d="M8.40625 6.67188H10.1406" stroke="#303E58" stroke-width="1.5" stroke-miterlimit="10" stroke-linecap="round" stroke-linejoin="round"/>
<path d="M17.0781 6.67188H18.8125" stroke="#303E58" stroke-width="1.5" stroke-miterlimit="10" stroke-linecap="round" stroke-linejoin="round"/>
<path d="M25.75 6.67188H27.4844" stroke="#303E58" stroke-width="1.5" stroke-miterlimit="10" stroke-linecap="round" stroke-linejoin="round"/>
<path d="M11.875 22.2812H17.0781" stroke="#303E58" stroke-width="1.5" stroke-miterlimit="10" stroke-linecap="round" stroke-linejoin="round"/>
<path d="M29.2188 22.2812H70.8438" stroke="#979FAF" stroke-width="1.5" stroke-miterlimit="10" stroke-linecap="round" stroke-linejoin="round"/>
<path d="M11.875 32.6875H17.0781" stroke="#303E58" stroke-width="1.5" stroke-miterlimit="10" stroke-linecap="round" stroke-linejoin="round"/>
<path d="M29.2188 32.6875H46.5625" stroke="#979FAF" stroke-width="1.5" stroke-miterlimit="10" stroke-linecap="round" stroke-linejoin="round"/>
<path d="M11.875 43.0938H17.0781" stroke="#303E58" stroke-width="1.5" stroke-miterlimit="10" stroke-linecap="round" stroke-linejoin="round"/>
<path d="M29.2188 43.0938H36.1562" stroke="#979FAF" stroke-width="1.5" stroke-miterlimit="10" stroke-linecap="round" stroke-linejoin="round"/>
<path d="M70.8438 43.0938H81.25" stroke="#979FAF" stroke-width="1.5" stroke-miterlimit="10" stroke-linecap="round" stroke-linejoin="round"/>
<path d="M44.8281 43.0938H62.1719" stroke="#979FAF" stroke-width="1.5" stroke-miterlimit="10" stroke-linecap="round" stroke-linejoin="round"/>
<path d="M11.875 53.5H17.0781" stroke="#303E58" stroke-width="1.5" stroke-miterlimit="10" stroke-linecap="round" stroke-linejoin="round"/>
<path d="M29.2188 53.5H43.0938" stroke="#979FAF" stroke-width="1.5" stroke-miterlimit="10" stroke-linecap="round" stroke-linejoin="round"/>
<path d="M51.7656 53.5H74.3125" stroke="#979FAF" stroke-width="1.5" stroke-miterlimit="10" stroke-linecap="round" stroke-linejoin="round"/>
<path d="M11.875 63.9062H17.0781" stroke="#303E58" stroke-width="1.5" stroke-miterlimit="10" stroke-linecap="round" stroke-linejoin="round"/>
<path d="M29.2188 63.9062H50.0312" stroke="#979FAF" stroke-width="1.5" stroke-miterlimit="10" stroke-linecap="round" stroke-linejoin="round"/>
<path d="M93.3906 82.9844C93.3906 77.2436 88.7252 72.5781 82.9844 72.5781C77.2436 72.5781 72.5781 77.2436 72.5781 82.9844C72.5781 88.7252 77.2436 93.3906 82.9844 93.3906C88.7252 93.3906 93.3906 88.7252 93.3906 82.9844Z" stroke="#303E58" stroke-width="1.5" stroke-miterlimit="10" stroke-linecap="round" stroke-linejoin="round"/>
<path d="M66.456 77.7812C66.3519 78.0587 66.267 78.3536 66.1976 78.6484L60.4395 80.3828V85.5859L66.1976 87.3203C66.5947 88.9159 67.2382 90.4248 68.0516 91.795L65.2073 97.0848L68.8841 100.762L74.174 97.9173C75.5441 98.7325 77.053 99.3742 78.6487 99.7731L80.383 105.531H85.5862L87.3205 99.7731C88.9162 99.3742 90.4251 98.7325 91.7952 97.9173L97.0851 100.762L100.762 97.0848L97.9176 91.795C98.7327 90.4248 99.3744 88.9159 99.7716 87.3203L105.53 85.5859V80.3828L99.7716 78.6484C99.3744 77.0528 98.731 75.5439 97.9176 74.1737L100.762 68.8839L97.0851 65.207L91.7952 68.0514C91.7432 68.0167 91.7085 67.9994 91.6565 67.982C90.321 67.2016 88.8641 66.5772 87.3205 66.1956L85.5862 60.4375H80.383L78.6487 66.1956C77.053 66.5945 75.5441 67.2362 74.174 68.0514L68.8841 65.207L65.2073 68.8839L68.0516 74.1737C67.3926 75.2837 66.8376 76.4978 66.456 77.7812Z" stroke="#303E58" stroke-width="1.5" stroke-miterlimit="10" stroke-linecap="round" stroke-linejoin="round"/>
</svg>
