<svg width="263" height="44" viewBox="0 0 263 44" fill="none" xmlns="http://www.w3.org/2000/svg">
<path d="M0.64 38V0.819998H8.96V38H0.64ZM15.7098 38V11.22H39.0578C42.1085 11.22 44.3272 11.9827 45.7138 13.508C47.1352 14.9987 47.8458 16.9747 47.8458 19.436V38H40.3058V20.32C40.3058 18.24 39.2658 17.2 37.1858 17.2H23.2498V38H15.7098ZM67.484 38C64.468 38 62.2493 37.2547 60.828 35.764C59.4066 34.2387 58.696 32.2453 58.696 29.784V17.2H50.948V11.22H58.696V3.004H66.236V11.22H77.364V17.2H66.236V28.848C66.236 30.9627 67.276 32.02 69.356 32.02H78.82V38H67.484ZM96.6844 38.26C92.0391 38.26 88.4164 37.116 85.8164 34.828C83.2164 32.5053 81.9164 29.108 81.9164 24.636C81.9164 20.1293 83.2164 16.732 85.8164 14.444C88.4164 12.1213 92.0391 10.96 96.6844 10.96H109.684C112.735 10.96 115.058 11.688 116.652 13.144C118.282 14.5653 119.096 16.6107 119.096 19.28C119.096 24.7227 115.959 27.444 109.684 27.444H90.0284C90.7564 30.668 92.9751 32.28 96.6844 32.28H117.744V38.26H96.6844ZM96.6844 16.94C93.1137 16.94 90.9124 18.448 90.0804 21.464H109.32C110.014 21.464 110.551 21.256 110.932 20.84C111.348 20.424 111.556 19.852 111.556 19.124C111.556 17.668 110.811 16.94 109.32 16.94H96.6844ZM124.045 38V0.819998H131.585V38H124.045ZM137.558 38V0.819998H145.098V38H137.558ZM151.072 38V11.22H158.612V38H151.072ZM151.02 6.8V0.923997H158.664V6.8H151.02ZM184.138 38.26C177.517 38.26 172.386 36.6827 168.746 33.528C165.106 30.3387 163.286 25.624 163.286 19.384C163.286 13.1787 165.106 8.49867 168.746 5.344C172.386 2.15467 177.638 0.559999 184.502 0.559999H193.862C200.726 0.559999 205.978 2.15467 209.618 5.344C213.258 8.49867 215.078 13.1787 215.078 19.384C215.078 25.624 213.258 30.3387 209.618 33.528C205.978 36.6827 200.813 38.26 194.122 38.26H193.446V43.72H185.126V38.26H184.138ZM193.446 25V31.5C197.918 31.4653 201.229 30.4947 203.378 28.588C205.528 26.6813 206.602 23.6133 206.602 19.384C206.602 15.1547 205.51 12.0867 203.326 10.18C201.177 8.27333 197.832 7.32 193.29 7.32H185.074C180.568 7.32 177.222 8.27333 175.038 10.18C172.854 12.0867 171.762 15.1547 171.762 19.384C171.762 23.6133 172.854 26.6987 175.038 28.64C177.222 30.5467 180.585 31.5 185.126 31.5V25H193.446ZM216.385 38L233.129 0.819998H245.973L262.717 38H253.669L250.133 30.148H228.969L225.433 38H216.385ZM231.985 23.388H247.117L239.889 7.32H239.213L231.985 23.388Z" fill="#001F65"/>
</svg>
