<svg width="169" height="17" viewBox="0 0 169 17" fill="none" xmlns="http://www.w3.org/2000/svg">
<path d="M1.368 13V4.6H4.512C5.224 4.6 5.836 4.716 6.348 4.948C6.86 5.172 7.252 5.5 7.524 5.932C7.804 6.356 7.944 6.872 7.944 7.48C7.944 8.072 7.804 8.584 7.524 9.016C7.252 9.44 6.86 9.768 6.348 10C5.836 10.232 5.224 10.348 4.512 10.348H1.86L2.256 9.928V13H1.368ZM2.256 10L1.86 9.568H4.488C5.328 9.568 5.964 9.388 6.396 9.028C6.836 8.66 7.056 8.144 7.056 7.48C7.056 6.808 6.836 6.288 6.396 5.92C5.964 5.552 5.328 5.368 4.488 5.368H1.86L2.256 4.948V10ZM12.2769 13.06C11.6689 13.06 11.1209 12.924 10.6329 12.652C10.1529 12.372 9.77294 11.992 9.49294 11.512C9.21294 11.024 9.07294 10.468 9.07294 9.844C9.07294 9.212 9.21294 8.656 9.49294 8.176C9.77294 7.696 10.1529 7.32 10.6329 7.048C11.1129 6.776 11.6609 6.64 12.2769 6.64C12.9009 6.64 13.4529 6.776 13.9329 7.048C14.4209 7.32 14.8009 7.696 15.0729 8.176C15.3529 8.656 15.4929 9.212 15.4929 9.844C15.4929 10.468 15.3529 11.024 15.0729 11.512C14.8009 11.992 14.4209 12.372 13.9329 12.652C13.4449 12.924 12.8929 13.06 12.2769 13.06ZM12.2769 12.304C12.7329 12.304 13.1369 12.204 13.4889 12.004C13.8409 11.796 14.1169 11.508 14.3169 11.14C14.5249 10.764 14.6289 10.332 14.6289 9.844C14.6289 9.348 14.5249 8.916 14.3169 8.548C14.1169 8.18 13.8409 7.896 13.4889 7.696C13.1369 7.488 12.7369 7.384 12.2889 7.384C11.8409 7.384 11.4409 7.488 11.0889 7.696C10.7369 7.896 10.4569 8.18 10.2489 8.548C10.0409 8.916 9.93694 9.348 9.93694 9.844C9.93694 10.332 10.0409 10.764 10.2489 11.14C10.4569 11.508 10.7369 11.796 11.0889 12.004C11.4409 12.204 11.8369 12.304 12.2769 12.304ZM18.4006 13L16.0246 6.7H16.8406L19.0006 12.544H18.6286L20.8486 6.7H21.5806L23.7766 12.544H23.4046L25.6006 6.7H26.3806L23.9926 13H23.1886L21.0766 7.504H21.3286L19.2046 13H18.4006ZM30.2237 13.06C29.5677 13.06 28.9917 12.924 28.4957 12.652C27.9997 12.372 27.6117 11.992 27.3317 11.512C27.0517 11.024 26.9117 10.468 26.9117 9.844C26.9117 9.22 27.0437 8.668 27.3077 8.188C27.5797 7.708 27.9477 7.332 28.4117 7.06C28.8837 6.78 29.4117 6.64 29.9957 6.64C30.5877 6.64 31.1117 6.776 31.5677 7.048C32.0317 7.312 32.3957 7.688 32.6597 8.176C32.9237 8.656 33.0557 9.212 33.0557 9.844C33.0557 9.884 33.0517 9.928 33.0437 9.976C33.0437 10.016 33.0437 10.06 33.0437 10.108H27.5597V9.472H32.5877L32.2517 9.724C32.2517 9.268 32.1517 8.864 31.9517 8.512C31.7597 8.152 31.4957 7.872 31.1597 7.672C30.8237 7.472 30.4357 7.372 29.9957 7.372C29.5637 7.372 29.1757 7.472 28.8317 7.672C28.4877 7.872 28.2197 8.152 28.0277 8.512C27.8357 8.872 27.7397 9.284 27.7397 9.748V9.88C27.7397 10.36 27.8437 10.784 28.0517 11.152C28.2677 11.512 28.5637 11.796 28.9397 12.004C29.3237 12.204 29.7597 12.304 30.2477 12.304C30.6317 12.304 30.9877 12.236 31.3157 12.1C31.6517 11.964 31.9397 11.756 32.1797 11.476L32.6597 12.028C32.3797 12.364 32.0277 12.62 31.6037 12.796C31.1877 12.972 30.7277 13.06 30.2237 13.06ZM34.8499 13V6.7H35.6659V8.416L35.5819 8.116C35.7579 7.636 36.0539 7.272 36.4699 7.024C36.8859 6.768 37.4019 6.64 38.0179 6.64V7.468C37.9859 7.468 37.9539 7.468 37.9219 7.468C37.8899 7.46 37.8579 7.456 37.8259 7.456C37.1619 7.456 36.6419 7.66 36.2659 8.068C35.8899 8.468 35.7019 9.04 35.7019 9.784V13H34.8499ZM42.2499 13.06C41.5939 13.06 41.0179 12.924 40.5219 12.652C40.0259 12.372 39.6379 11.992 39.3579 11.512C39.0779 11.024 38.9379 10.468 38.9379 9.844C38.9379 9.22 39.0699 8.668 39.3339 8.188C39.6059 7.708 39.9739 7.332 40.4379 7.06C40.9099 6.78 41.4379 6.64 42.0219 6.64C42.6139 6.64 43.1379 6.776 43.5939 7.048C44.0579 7.312 44.4219 7.688 44.6859 8.176C44.9499 8.656 45.0819 9.212 45.0819 9.844C45.0819 9.884 45.0779 9.928 45.0699 9.976C45.0699 10.016 45.0699 10.06 45.0699 10.108H39.5859V9.472H44.6139L44.2779 9.724C44.2779 9.268 44.1779 8.864 43.9779 8.512C43.7859 8.152 43.5219 7.872 43.1859 7.672C42.8499 7.472 42.4619 7.372 42.0219 7.372C41.5899 7.372 41.2019 7.472 40.8579 7.672C40.5139 7.872 40.2459 8.152 40.0539 8.512C39.8619 8.872 39.7659 9.284 39.7659 9.748V9.88C39.7659 10.36 39.8699 10.784 40.0779 11.152C40.2939 11.512 40.5899 11.796 40.9659 12.004C41.3499 12.204 41.7859 12.304 42.2739 12.304C42.6579 12.304 43.0139 12.236 43.3419 12.1C43.6779 11.964 43.9659 11.756 44.2059 11.476L44.6859 12.028C44.4059 12.364 44.0539 12.62 43.6299 12.796C43.2139 12.972 42.7539 13.06 42.2499 13.06ZM49.3841 13.06C48.7841 13.06 48.2441 12.924 47.7641 12.652C47.2921 12.38 46.9201 12.004 46.6481 11.524C46.3761 11.036 46.2401 10.476 46.2401 9.844C46.2401 9.204 46.3761 8.644 46.6481 8.164C46.9201 7.684 47.2921 7.312 47.7641 7.048C48.2441 6.776 48.7841 6.64 49.3841 6.64C49.9361 6.64 50.4281 6.764 50.8601 7.012C51.3001 7.26 51.6481 7.624 51.9041 8.104C52.1681 8.576 52.3001 9.156 52.3001 9.844C52.3001 10.524 52.1721 11.104 51.9161 11.584C51.6601 12.064 51.3121 12.432 50.8721 12.688C50.4401 12.936 49.9441 13.06 49.3841 13.06ZM49.4441 12.304C49.8921 12.304 50.2921 12.204 50.6441 12.004C51.0041 11.796 51.2841 11.508 51.4841 11.14C51.6921 10.764 51.7961 10.332 51.7961 9.844C51.7961 9.348 51.6921 8.916 51.4841 8.548C51.2841 8.18 51.0041 7.896 50.6441 7.696C50.2921 7.488 49.8921 7.384 49.4441 7.384C49.0041 7.384 48.6081 7.488 48.2561 7.696C47.9041 7.896 47.6241 8.18 47.4161 8.548C47.2081 8.916 47.1041 9.348 47.1041 9.844C47.1041 10.332 47.2081 10.764 47.4161 11.14C47.6241 11.508 47.9041 11.796 48.2561 12.004C48.6081 12.204 49.0041 12.304 49.4441 12.304ZM51.8201 13V11.104L51.9041 9.832L51.7841 8.56V4.096H52.6361V13H51.8201ZM61.5216 13.06C60.9696 13.06 60.4736 12.936 60.0336 12.688C59.5936 12.432 59.2456 12.064 58.9896 11.584C58.7336 11.104 58.6056 10.524 58.6056 9.844C58.6056 9.156 58.7336 8.576 58.9896 8.104C59.2536 7.624 59.6056 7.26 60.0456 7.012C60.4856 6.764 60.9776 6.64 61.5216 6.64C62.1216 6.64 62.6576 6.776 63.1296 7.048C63.6096 7.312 63.9856 7.684 64.2576 8.164C64.5296 8.644 64.6656 9.204 64.6656 9.844C64.6656 10.476 64.5296 11.036 64.2576 11.524C63.9856 12.004 63.6096 12.38 63.1296 12.652C62.6576 12.924 62.1216 13.06 61.5216 13.06ZM58.2696 13V4.096H59.1216V8.56L59.0016 9.832L59.0856 11.104V13H58.2696ZM61.4616 12.304C61.9096 12.304 62.3096 12.204 62.6616 12.004C63.0136 11.796 63.2936 11.508 63.5016 11.14C63.7096 10.764 63.8136 10.332 63.8136 9.844C63.8136 9.348 63.7096 8.916 63.5016 8.548C63.2936 8.18 63.0136 7.896 62.6616 7.696C62.3096 7.488 61.9096 7.384 61.4616 7.384C61.0136 7.384 60.6096 7.488 60.2496 7.696C59.8976 7.896 59.6176 8.18 59.4096 8.548C59.2096 8.916 59.1096 9.348 59.1096 9.844C59.1096 10.332 59.2096 10.764 59.4096 11.14C59.6176 11.508 59.8976 11.796 60.2496 12.004C60.6096 12.204 61.0136 12.304 61.4616 12.304ZM66.3346 15.388C66.0386 15.388 65.7546 15.34 65.4826 15.244C65.2186 15.148 64.9906 15.004 64.7986 14.812L65.1946 14.176C65.3546 14.328 65.5266 14.444 65.7106 14.524C65.9026 14.612 66.1146 14.656 66.3466 14.656C66.6266 14.656 66.8666 14.576 67.0666 14.416C67.2746 14.264 67.4706 13.992 67.6546 13.6L68.0626 12.676L68.1586 12.544L70.7506 6.7H71.5906L68.4346 13.756C68.2586 14.164 68.0626 14.488 67.8466 14.728C67.6386 14.968 67.4106 15.136 67.1626 15.232C66.9146 15.336 66.6386 15.388 66.3346 15.388ZM68.0146 13.18L65.1106 6.7H65.9986L68.5666 12.484L68.0146 13.18Z" fill="black"/>
<path d="M164.609 7.89222L168.362 4.12247H165.838L161.479 8.16177V0.621826C160.519 0.711234 159.721 1.06665 159.375 1.24237V13.1093H161.479V10.7365L163.044 9.25547L166.157 13.1093H168.715L164.609 7.89222Z" fill="#001F65"/>
<path d="M154.702 5.43539V4.12393L154.623 4.13189C153.8 4.23015 153.104 4.48023 152.699 4.65285V13.1094H154.803V8.75058C154.803 6.91594 155.813 5.97361 157.412 5.97361C157.563 5.97361 157.714 5.99043 157.899 6.02407V4.02124C156.402 4.02168 155.308 4.49262 154.702 5.43539Z" fill="#001F65"/>
<path d="M154.703 4.1239C154.677 4.1266 154.65 4.12884 154.623 4.13199L154.703 4.1239Z" fill="#001F65"/>
<path d="M147.142 4.02161C145.695 4.02161 144.298 4.39163 143.339 5.13213C143.751 5.71903 144.203 6.15899 144.507 6.42235C145.164 6.01382 146.038 5.77215 146.89 5.77215C148.387 5.77215 149.128 6.49582 149.128 7.72452V7.85908H146.805C144.079 7.85908 143.069 9.03732 143.069 10.5351C143.069 12.1002 144.365 13.228 146.418 13.228C147.765 13.228 148.741 12.7902 149.246 12.0161V13.1098H151.232V7.84181C151.232 5.24986 149.734 4.02161 147.142 4.02161ZM149.128 10.2988C148.775 11.2243 147.883 11.6957 146.856 11.6957C145.779 11.6957 145.14 11.2075 145.14 10.4501C145.14 9.79375 145.527 9.25508 146.957 9.25508H149.128V10.2988Z" fill="#001F65"/>
<path d="M125.526 6.73085C125.526 6.14173 126.131 5.72125 127.411 5.72125C128.154 5.72125 128.898 5.84872 129.642 6.21078C130.201 5.67876 130.585 5.12682 130.79 4.79353C129.982 4.30665 128.621 4.02161 127.427 4.02161C125.004 4.02161 123.473 5.13213 123.473 6.83221C123.473 10.4169 129.027 8.8014 129.027 10.5179C129.027 11.1406 128.471 11.5106 127.142 11.5106C126.133 11.5106 125.059 11.2132 124.277 10.7772C123.76 11.311 123.405 11.8612 123.207 12.2104L123.203 12.2171C124.011 12.7894 125.509 13.2271 127.007 13.2271C129.531 13.2271 131.079 12.133 131.079 10.4501C131.079 6.93313 125.526 8.54867 125.526 6.73085Z" fill="#001F65"/>
<path d="M141.235 6.74545C140.982 6.19041 140.648 5.70929 140.232 5.3012C139.824 4.89311 139.351 4.57487 138.812 4.33851C138.265 4.10216 137.678 3.95521 137.075 3.89811C136.944 3.89014 136.806 3.87377 136.667 3.87377C136.528 3.86536 136.389 3.86536 136.258 3.86536C135.826 3.86536 135.426 3.8897 135.067 3.93883C134.7 3.98796 134.382 4.03665 134.121 4.09419C133.86 4.15129 133.648 4.20042 133.493 4.24114C133.321 4.29823 133.264 4.31461 133.256 4.31461L133.24 4.32258L132.555 4.55097V15.7358V16.9999C133.003 16.9513 133.387 16.8858 133.713 16.8123C134.032 16.7308 134.317 16.6494 134.562 16.5675V15.7358V12.8071L134.962 12.9213C135.525 13.0841 136.202 13.166 136.96 13.166C137.597 13.166 138.209 13.0439 138.772 12.8071C139.334 12.5703 139.832 12.2361 140.248 11.82C140.664 11.404 140.999 10.9065 141.235 10.3435C141.472 9.7809 141.594 9.17673 141.594 8.53229V8.52432C141.603 7.8874 141.488 7.29208 141.235 6.74545ZM139.375 9.54366C139.245 9.85349 139.057 10.131 138.821 10.3678C138.584 10.6042 138.307 10.7923 137.997 10.9224C137.678 11.053 137.344 11.1265 136.985 11.1265C136.414 11.1265 135.973 11.0773 135.622 10.9631C135.279 10.8569 134.978 10.7104 134.733 10.5307L134.619 10.4493V6.09259H134.602L134.831 6.04391C135.026 6.00319 135.247 5.97043 135.491 5.94609C135.736 5.92174 135.997 5.90537 136.266 5.90537C136.373 5.90537 136.487 5.90537 136.593 5.91378C136.699 5.92174 136.805 5.93015 136.911 5.93812C137.303 5.96247 137.662 6.05232 137.988 6.20723C138.314 6.35418 138.599 6.54981 138.836 6.78661C139.073 7.02297 139.252 7.28411 139.383 7.56163C139.513 7.84712 139.579 8.17377 139.579 8.53229C139.579 8.8908 139.514 9.23383 139.375 9.54366Z" fill="#001F65"/>
<path fill-rule="evenodd" clip-rule="evenodd" d="M121.508 8.88989C121.508 8.8235 121.491 8.19454 121.293 7.40802C121.003 6.27404 120.481 5.40519 119.753 4.83377C119.141 4.34557 118.065 3.84895 116.426 4.20481C115.747 4.35398 115.068 4.68505 114.398 5.14006V4.14683C113.943 4.1964 113.545 4.2628 113.214 4.34557C112.891 4.42833 112.602 4.5111 112.354 4.59387V13.3262H114.406V8.04583C114.406 6.51438 117.477 5.35561 118.528 6.40682C119.215 7.09376 119.48 7.91304 119.48 8.92309V13.3183H121.524V8.90671L121.508 8.88989Z" fill="#001F65"/>
<path d="M88.7113 5.54069V4.21019L88.6312 4.2186C87.796 4.31818 87.09 4.5718 86.6797 4.74708V13.3267H88.814V8.90456C88.814 7.04336 89.8382 6.08731 91.4608 6.08731C91.6144 6.08731 91.768 6.10413 91.9557 6.13866V4.10706C90.4357 4.10617 89.3261 4.58419 88.7113 5.54069Z" fill="#001F65"/>
<path d="M88.7132 4.20972C88.6862 4.21241 88.6588 4.21511 88.6318 4.21825L88.7132 4.20972Z" fill="black"/>
<path d="M84.8071 6.7543C84.5673 6.18289 84.2278 5.6783 83.8055 5.25605C83.3833 4.8338 82.8782 4.49475 82.3077 4.25441C81.7363 4.01452 81.1157 3.89014 80.47 3.89014C79.7003 3.89014 79.0133 3.97291 78.4419 4.13845L78.0365 4.25441V1.01005V0C77.581 0.0495729 77.192 0.115965 76.8609 0.190324C76.5382 0.273093 76.2487 0.355862 76 0.438631V1.0096V12.63L76.6953 12.8619L76.7117 12.8704C76.7201 12.8704 76.7781 12.8872 76.9516 12.9447C77.1092 12.9859 77.3243 13.0359 77.5894 13.0939C77.8541 13.1519 78.1768 13.2014 78.5495 13.2514C78.9137 13.301 79.3192 13.3258 79.7578 13.3258C79.8901 13.3258 80.0309 13.3258 80.1716 13.3174C80.3124 13.3174 80.4531 13.301 80.5855 13.2926C81.1976 13.2346 81.7938 13.0855 82.348 12.8456C82.8946 12.6057 83.3744 12.2826 83.7882 11.8687C84.2105 11.4549 84.5495 10.9667 84.8063 10.4037C85.0625 9.84906 85.1789 9.24489 85.1705 8.59912V8.59204C85.171 7.93785 85.047 7.32527 84.8071 6.7543ZM82.9278 9.57685C82.7955 9.85836 82.6131 10.123 82.3732 10.3629C82.1333 10.6033 81.8434 10.8016 81.5123 10.9507C81.1812 11.1079 80.817 11.199 80.4195 11.2238C80.312 11.2322 80.2044 11.2402 80.0968 11.2486C79.9893 11.257 79.8733 11.257 79.7658 11.257C79.4927 11.257 79.2275 11.2402 78.9792 11.2159C78.7309 11.1911 78.5074 11.1579 78.3091 11.1167L78.0772 11.0671H78.0936V6.64719L78.2095 6.56442C78.4578 6.3825 78.7641 6.23334 79.1116 6.12579C79.4674 6.00982 79.9149 5.96025 80.4939 5.96025C80.8581 5.96025 81.1972 6.03461 81.5203 6.16695C81.835 6.29929 82.1161 6.48962 82.3564 6.72996C82.5963 6.9703 82.7871 7.25136 82.919 7.56606C83.0597 7.88031 83.1261 8.22821 83.1261 8.59248C83.127 8.95631 83.0601 9.28738 82.9278 9.57685Z" fill="#001F65"/>
<path d="M102.499 10.2209H95.859L94.5502 13.2944H92.0078L97.984 0.0141602H100.412L106.407 13.2939H103.827L102.499 10.2209ZM101.683 8.28574L99.1791 2.48041L96.6938 8.28574H101.683Z" fill="#F05A22"/>
<path d="M108.096 0.0141602H110.562V13.2939H108.096V0.0141602Z" fill="#F05A22"/>
</svg>
