<?xml version="1.0" standalone="no"?>
<!DOCTYPE svg PUBLIC "-//W3C//DTD SVG 20010904//EN"
 "http://www.w3.org/TR/2001/REC-SVG-20010904/DTD/svg10.dtd">
<svg version="1.0" xmlns="http://www.w3.org/2000/svg"
 width="512.000000pt" height="512.000000pt" viewBox="0 0 512.000000 512.000000"
 preserveAspectRatio="xMidYMid meet">

<g transform="translate(0.000000,512.000000) scale(0.100000,-0.100000)"
fill="#000000" stroke="none">
<path d="M415 5103 c-46 -24 -66 -45 -86 -88 -17 -37 -19 -74 -19 -458 l0
-418 25 -24 c30 -31 75 -33 101 -4 18 20 19 46 24 438 l5 416 1300 3 c1426 2
1350 5 1426 -57 19 -16 48 -53 64 -82 l30 -54 5 -220 c5 -207 6 -222 28 -257
42 -68 80 -78 298 -78 214 0 265 -9 327 -61 21 -17 50 -54 65 -83 l27 -51 3
-880 c1 -484 1 -1001 0 -1149 l-3 -270 -63 95 c-34 53 -77 109 -95 127 -67 65
-18 62 -972 62 -947 0 -905 3 -968 -58 -16 -15 -39 -45 -50 -67 -22 -40 -22
-44 -22 -645 0 -601 0 -605 22 -645 11 -22 34 -52 50 -67 53 -50 88 -58 263
-58 147 0 162 2 180 20 25 25 26 71 1 101 -18 23 -25 24 -174 27 -141 3 -157
5 -174 24 -17 19 -18 51 -18 598 0 555 1 579 19 599 l19 21 856 -2 856 -3 178
-265 c97 -145 177 -268 177 -272 0 -5 -45 -8 -99 -8 -96 0 -100 -1 -120 -26
-27 -35 -26 -57 3 -90 22 -26 29 -28 120 -32 53 -2 96 -6 96 -8 0 -9 -338
-510 -352 -521 -11 -10 -149 -13 -567 -15 l-553 -3 -24 -28 c-29 -34 -30 -56
-3 -91 l20 -26 565 0 c622 0 605 -2 671 62 18 18 61 74 95 127 l63 95 3 -290
c1 -159 0 -294 -3 -301 -3 -11 -357 -13 -1787 -11 l-1783 3 -5 1848 -5 1849
-24 19 c-32 26 -67 24 -96 -6 l-25 -24 0 -1846 c0 -1638 2 -1850 15 -1882 20
-48 41 -71 87 -94 36 -18 90 -19 1835 -19 1723 0 1800 1 1838 19 48 22 69 44
90 94 13 31 15 101 15 454 l0 418 55 84 c30 46 55 87 55 91 0 4 28 14 63 23
223 55 385 221 432 443 19 87 19 150 0 239 -53 255 -292 455 -542 455 l-62 0
-3 888 c-3 883 -4 887 -26 967 -30 109 -93 236 -157 320 -29 39 -136 152 -237
251 -233 231 -316 286 -523 348 -69 21 -82 21 -1435 23 -1234 2 -1368 1 -1395
-14z m3080 -304 c115 -92 447 -441 432 -455 -2 -3 -17 1 -33 8 -18 7 -109 14
-239 17 l-210 6 -6 210 c-3 124 -10 222 -17 238 -21 49 -18 48 73 -24z m918
-2668 c126 -60 215 -179 239 -320 31 -181 -68 -370 -235 -450 -109 -52 -105
-53 -170 48 l-57 88 0 338 0 338 78 -5 c60 -3 92 -12 145 -37z"/>
<path d="M1485 4007 c-64 -36 -85 -84 -85 -199 0 -136 21 -180 105 -219 38
-18 89 -19 1055 -19 966 0 1017 1 1055 19 84 39 105 83 105 219 0 115 -21 163
-85 199 l-40 23 -1035 0 -1035 0 -40 -23z m2080 -207 l0 -75 -1005 0 -1005 0
-3 64 c-2 35 -1 70 2 77 5 12 170 14 1008 12 l1003 -3 0 -75z"/>
<path d="M872 3313 c-18 -9 -45 -32 -60 -51 -25 -33 -27 -44 -30 -144 -3 -71
1 -120 8 -139 17 -40 72 -86 119 -99 27 -7 457 -9 1363 -8 1480 3 1356 -3
1415 75 26 34 28 44 31 143 3 93 1 113 -17 148 -35 69 -71 86 -183 90 -87 3
-98 2 -117 -17 -26 -26 -27 -71 -2 -102 16 -20 30 -24 95 -27 l76 -4 0 -74 c0
-68 -2 -74 -22 -79 -13 -3 -606 -4 -1318 -3 l-1295 3 -3 78 -3 77 1084 0 c731
0 1094 3 1114 10 28 10 53 45 53 74 0 7 -9 25 -21 40 l-20 26 -1117 0 c-1014
0 -1120 -2 -1150 -17z"/>
<path d="M860 2608 c-68 -47 -75 -66 -75 -203 0 -110 2 -127 21 -152 33 -44
80 -71 137 -78 29 -3 462 -5 962 -3 994 3 937 0 991 60 32 35 43 61 50 121 14
121 -14 206 -85 254 l-34 23 -967 0 -967 0 -33 -22z m1934 -144 c3 -9 6 -37 6
-64 0 -87 84 -80 -935 -80 -497 0 -910 3 -919 6 -13 5 -16 22 -16 80 l0 74
929 0 c838 0 929 -2 935 -16z"/>
<path d="M2393 1407 c-105 -105 -143 -149 -143 -167 0 -32 275 -310 307 -310
37 0 73 38 73 77 0 32 -11 47 -97 134 l-97 99 97 99 c86 87 97 102 97 134 0
39 -36 77 -73 77 -14 0 -72 -51 -164 -143z"/>
<path d="M3067 1539 c-25 -15 -267 -502 -267 -538 0 -20 9 -36 26 -50 65 -51
85 -28 230 261 137 274 142 293 84 323 -34 17 -48 18 -73 4z"/>
<path d="M3366 1527 c-47 -47 -37 -70 76 -184 l103 -103 -103 -103 c-113 -114
-123 -137 -76 -184 45 -45 72 -30 222 120 117 118 132 137 132 167 0 30 -15
49 -132 167 -150 150 -177 165 -222 120z"/>
</g>
</svg>
