<svg width="236" height="232" viewBox="0 0 236 232" fill="none" xmlns="http://www.w3.org/2000/svg">
<path d="M51.2744 152.242L80.4832 152.583L105.202 174.083L77.462 190.114L51.2744 158.308V152.242Z" fill="#40B4D3"/>
<path d="M105.202 226.792H74.0941L72.2969 154.982H105.202V226.792Z" fill="#40B4D3"/>
<path d="M74.0945 226.793L51.2744 221.449V152.242L76.0171 155.21L74.0945 226.793Z" fill="#1B89B0"/>
<path d="M95.4273 146.504L88.7461 153.991L101.422 224.093L107.07 226.792L95.4273 146.504Z" fill="#1B89B0"/>
<path d="M126.136 61.4395C126.136 61.4395 120.404 65.4339 117.377 65.6787L112.445 67.1594L116.201 91.2811L112.183 99.6581L118.213 101.199L128.668 97.5146L132.555 85.5194L133.892 74.796L126.136 61.4454V61.4395Z" fill="#E3B396"/>
<path d="M116.397 88.5217C116.397 88.5217 120.045 93.6148 126.112 93.4953L121.639 105.18L112.331 113.736L107.089 127.946L84.2986 122.191L97.5178 101.192L110.361 85.7334L116.403 88.5217H116.397Z" fill="#EBEBEB"/>
<path d="M147.296 211.638C150.531 211.638 153.153 211.085 153.153 210.402C153.153 209.719 150.531 209.166 147.296 209.166C144.061 209.166 141.438 209.719 141.438 210.402C141.438 211.085 144.061 211.638 147.296 211.638Z" fill="#184254"/>
<path d="M141.648 225.652V229.342C141.648 229.342 146.813 232.071 153.644 231.999C158.205 231.951 161.501 231.832 163.185 231.766C163.919 231.737 164.504 231.133 164.498 230.399C164.492 229.217 164.355 227.623 163.722 227.282C162.689 226.727 141.648 225.658 141.648 225.658V225.652Z" fill="#D3D3D3"/>
<path d="M141.905 217.86L141.648 225.646C141.648 225.646 145.673 228.046 152.091 228.16C158.516 228.273 162.313 228.638 163.866 227.867C165.418 227.091 157.847 222.703 156.742 222.147C155.638 221.592 151.172 216.242 151.172 216.242L149.213 213.514L143.822 215.209L141.905 217.866V217.86Z" fill="#6B4F47"/>
<path d="M143.158 209.483V217.453H144.669L145.517 221.585H145.995C145.995 221.585 145.774 217.155 146.807 216.343C147.839 215.531 150.276 214.976 151.159 216.229L151.416 209.477H143.146L143.158 209.483Z" fill="#E3B396"/>
<path d="M153.153 210.403C152.407 196.151 159.995 156.039 162.527 145.555C164.611 136.927 161.422 132.974 159.804 131.589C159.345 131.195 158.765 130.968 158.162 130.921L133.987 129.016C133.909 129.016 133.838 129.004 133.76 129.004H116.935L112.403 149.077C111.943 151.108 113.704 152.947 115.752 152.576L140.191 148.158C142.191 147.794 143.916 149.549 143.564 151.549C141.779 161.771 141.546 207.991 141.546 210.391C141.546 210.391 148.09 208.379 153.153 210.391" fill="#22324D"/>
<path d="M126.572 142.617C126.572 142.617 135.51 147.925 136.746 152.182L137.105 148.719L132.561 138.873L126.578 142.617H126.572Z" fill="#CE896A"/>
<path d="M107.28 211.955C110.515 211.955 113.137 211.402 113.137 210.719C113.137 210.037 110.515 209.483 107.28 209.483C104.045 209.483 101.423 210.037 101.423 210.719C101.423 211.402 104.045 211.955 107.28 211.955Z" fill="#184254"/>
<path d="M122.673 62.1608L125.258 62.8415L117.042 67.8628L113.102 66.3642L118.081 62.9728C118.081 62.9728 120.846 61.6831 122.673 62.1608Z" fill="#938F71"/>
<path d="M138.244 89.2202C138.244 89.2202 144.418 89.3754 145.875 94.6177C147.332 99.86 136.154 106.105 136.154 106.105L132.172 93.3758L136.226 88.9336L138.244 89.2262V89.2202Z" fill="#938F71"/>
<path d="M147.206 78.7897C147.206 78.7897 146.728 86.3546 145.301 88.3608C144.292 89.7699 144.358 95.6869 144.495 99.0783C144.555 100.505 145.57 102.631 145.57 102.631L134.847 98.2483L136.005 96.272L139.217 90.8088C139.217 90.8088 138.74 90.1043 138.262 89.131L138.68 89.0056L143.17 87.6324L136.345 80.7481C138.477 78.8196 145.964 74.4072 145.964 74.4072C145.964 74.4072 148.335 76.3358 147.212 78.7838L147.206 78.7897Z" fill="#E3B396"/>
<path d="M139.122 131.798C139.122 131.798 135.027 130.287 133.88 125.343C132.722 120.399 125.432 104.565 125.432 104.565C125.432 104.565 122.166 109.258 119.24 109.419C116.302 109.586 107.173 121.235 110.767 128.108L108.093 127.266C108.093 127.266 103.477 118.304 114.033 111.013C124.59 103.723 124.208 91.0295 124.208 91.0295L135.415 79.918L136.334 80.8375C136.119 81.0285 135.958 81.1897 135.868 81.3271C134.782 82.8496 138.478 83.99 138.478 83.99C136.525 84.8498 137.391 87.459 138.251 89.2204L137.421 89.4831C137.421 89.4831 134.131 93.0416 135.994 96.3673C136.525 97.3286 137.504 98.2839 139.122 99.1138C141.881 100.529 143.511 100.171 144.484 99.1676C145.768 97.854 145.881 95.412 145.881 94.6179C145.905 94.6537 145.905 94.6955 145.917 94.7313L145.953 95.1971V95.209L148.401 125.343C148.401 125.343 149.374 132.633 139.122 131.798Z" fill="#C8CA83"/>
<path d="M143.17 87.6382L138.68 89.0114L138.262 89.1368C137.402 87.3814 136.537 84.7722 138.489 83.9065C138.489 83.9065 134.793 82.7601 135.88 81.2435C135.969 81.1062 136.131 80.9509 136.346 80.7539L143.17 87.6382Z" fill="#E3B396"/>
<path d="M130.071 48.8105C130.071 48.8105 125.085 47.5447 124.1 51.7302C123.115 55.9156 122.303 59.4742 125.264 60.7042C125.264 60.7042 124.07 65.7375 124.351 67.5705C124.631 69.4035 126.25 77.7446 130.125 80.103C134 82.4615 138.042 82.1808 140.4 79.8582C142.759 77.5356 145.469 74.2995 147.052 73.8039C148.634 73.3084 151.309 69.4513 151.488 68.5557C151.667 67.66 153.888 66.9794 153.888 66.9794L159.232 57.5755L152.121 46.667L138.567 42.583L130.787 48.1119L130.071 48.8164V48.8105Z" fill="#E3B396"/>
<path d="M134.865 71.8164C134.865 71.8164 139.188 73.1001 141.212 76.3243C141.212 76.3243 139.51 72.3657 134.865 71.8164Z" fill="#CE896A"/>
<path d="M66.583 127.505V138.193L75.6645 133.207L76.3571 126.657L66.583 127.505Z" fill="#E2DCD9"/>
<path d="M124.715 63.3613C124.715 63.3613 123.145 77.2313 132.172 81.1063C132.172 81.1063 122.243 78.6464 124.715 63.3613Z" fill="#CE957C"/>
<path d="M101.423 224.094V227.784C101.423 227.784 106.588 230.512 113.418 230.441C117.98 230.393 121.276 230.273 122.959 230.208C123.694 230.178 124.279 229.575 124.273 228.84C124.267 227.658 124.13 226.064 123.497 225.724C122.464 225.168 101.423 224.1 101.423 224.1V224.094Z" fill="#D3D3D3"/>
<path d="M101.685 216.308L101.429 224.093C101.429 224.093 105.453 226.494 111.872 226.607C118.296 226.721 122.093 227.085 123.646 226.315C125.198 225.538 117.627 221.15 116.523 220.595C115.418 220.039 110.952 214.69 110.952 214.69L108.994 211.961L103.602 213.657L101.685 216.314V216.308Z" fill="#6B4F47"/>
<path d="M102.94 207.931V215.902H104.45L105.298 220.033H105.776C105.776 220.033 105.555 215.603 106.588 214.791C107.621 213.979 110.057 213.424 110.94 214.678L111.197 207.925H102.928L102.94 207.931Z" fill="#E3B396"/>
<path d="M113.138 210.946C114.266 198.676 115.777 135.297 115.777 135.297L87.4517 129.936L66.5781 131.255V134.366C66.5781 134.366 63.945 150.445 72.7817 154.111C81.6183 157.777 95.4406 154.959 95.4406 154.959C95.4406 154.959 97.4766 201.017 101.423 210.702C101.423 210.702 107.239 208.922 113.132 210.952L113.138 210.946Z" fill="#22324D"/>
<path d="M120.463 136.095C121.134 132.149 120.629 128.771 119.336 128.551C118.042 128.331 116.449 131.352 115.778 135.298C115.107 139.245 115.612 142.623 116.905 142.843C118.199 143.063 119.792 140.042 120.463 136.095Z" fill="#3A3F29"/>
<path d="M116.881 130.24C116.881 130.24 132.709 135.339 135.103 140.844C137.492 146.343 139.134 149.496 136.745 152.189C136.745 152.189 137.115 144.451 132.022 143.352C126.929 142.253 120.135 143.047 118.875 138.952L115.227 137.871" fill="#E3B396"/>
<path d="M122.673 62.1617C122.673 62.1617 113.997 61.3795 116.493 74.7121C118.995 88.0388 123.198 93.9438 123.198 93.9438L119.962 96.5112L117.604 92.7616C117.604 92.7616 112.26 104.357 108.857 105.879C105.453 107.402 101.501 109.629 99.3452 112.543C97.1898 115.456 94.0014 120.872 94.0014 120.872C94.0014 120.872 104.588 123.218 108.6 125.69C112.612 128.162 118.983 128.61 118.983 128.61C118.983 128.61 118.541 129.386 117.992 130.61C117.162 132.467 116.099 135.345 115.998 138.085C115.944 139.518 115.681 141.459 116.332 142.647L115.645 140.88C115.645 140.88 115.09 130.562 97.1838 136.855C97.1838 136.855 76.0534 136.778 72.6083 130.562L71.259 128.687C71.259 128.687 66.3152 130.186 64.1418 126.592C64.1418 126.592 66.9899 119.546 67.2108 116.776C67.4317 114.005 77.5521 80.4381 87.2903 74.5211C87.2903 74.5211 96.8793 62.5139 115.687 63.7976C115.687 63.7976 120.064 60.663 122.673 62.1617Z" fill="#C8CA83"/>
<path d="M143.17 64.9556L140.089 61.6478L142.71 59.1162L146.824 62.2031C147.021 62.3523 147.021 62.627 146.848 62.8001C145.535 64.1316 145.045 66.4303 145.045 66.4303C144.346 67.6126 144.561 71.595 143.952 71.7741C143.343 71.9533 140.519 71.4995 140.734 70.4367C140.949 69.3739 140.764 68.9201 140.185 68.8604C139.606 68.8007 139.791 69.7381 139.791 69.7381C137.999 67.4931 140.4 66.6393 140.4 66.6393" fill="#DAA082"/>
<path d="M136.638 56.907L135.874 54.25C135.874 54.25 143.128 54.5187 144.693 58.8176C146.257 63.1225 141.851 63.3554 141.851 63.3554L136.638 56.907Z" fill="#DAA082"/>
<path d="M145.953 58.6687C145.953 58.6687 145.923 59.7912 144.926 59.6659C144.926 59.6659 140.352 54.752 135.868 54.2504C135.868 54.2504 140.472 53.0384 145.953 58.6687Z" fill="#5C3A2C"/>
<path d="M136.639 56.9073C136.639 56.9073 140.92 55.1698 142.711 59.1164C142.711 59.1164 142.55 62.06 140.914 61.851C139.278 61.6421 137.033 60.1673 136.639 56.9073Z" fill="#F2F2F2"/>
<path d="M138.555 56.5312C138.555 56.5312 137.66 59.648 139.678 59.6778C141.696 59.7077 142.299 58.3643 142.299 58.3643C142.299 58.3643 141.457 56.6029 138.555 56.5312Z" fill="#5C3A2C"/>
<path d="M148.222 63.8686L150.144 63.1641L153.589 64.7762L153.882 66.9853C153.882 66.9853 152.108 67.5466 151.732 68.1198C151.356 68.693 148.216 63.8746 148.216 63.8746L148.222 63.8686Z" fill="#DAA082"/>
<path d="M150.759 62.2148C150.759 62.2148 149.786 62.4298 150.12 63.2179C150.12 63.2179 153.16 64.3703 153.888 66.9855C153.888 66.9855 154.467 66.0719 154.007 64.83C153.548 63.5881 150.759 62.2208 150.759 62.2208V62.2148Z" fill="#5C3A2C"/>
<path d="M146.293 65.7378C146.293 65.7378 147.475 62.6688 150.299 64.251C153.123 65.8333 151.786 68.2275 150.604 68.5022C149.422 68.7768 147.66 68.0783 146.293 65.7378Z" fill="#F2F2F2"/>
<path d="M148.341 63.8334C148.341 63.8334 147.642 67.177 149.613 67.1531C151.583 67.1293 151.804 65.744 151.804 65.744C151.804 65.744 151.279 63.4155 148.341 63.8334Z" fill="#5C3A2C"/>
<path d="M143.158 210.009C143.158 210.009 147.589 209.024 151.41 209.872L151.392 210.272C151.392 210.272 147.212 209.412 143.152 210.343V210.009H143.158Z" fill="#CE896A"/>
<path d="M102.939 210.402C102.939 210.402 106.098 209.453 111.113 210.402L111.101 210.719C111.101 210.719 107.77 209.871 102.939 210.659V210.396V210.402Z" fill="#CE896A"/>
<path d="M116.278 138.174C116.278 138.174 117.09 132.878 118.541 130.812L117.992 130.615C117.992 130.615 116.009 134.783 115.997 138.091L116.278 138.174Z" fill="#CE957C"/>
<path d="M136.106 96.0986C136.106 96.0986 140.901 101.108 144.483 98.8273L144.495 99.078C144.495 99.078 143.17 101.281 138.99 99.0482C138.99 99.0482 136.841 98.0451 135.987 96.3673C135.987 96.3673 135.957 96.3434 136.106 96.0986Z" fill="#CE957C"/>
<path d="M135.688 81.9004C135.688 81.9004 143.397 79.2016 145.958 74.4131C145.958 74.4131 143.94 79.6016 135.688 81.9004Z" fill="#CE957C"/>
<path d="M137.504 81.3151C137.504 81.3151 138.71 81.0942 140.143 82.2346C140.143 82.2346 139.218 80.8912 137.504 81.3151Z" fill="#CE957C"/>
<path d="M144.771 76.3242C144.771 76.3242 146.311 77.19 145.965 79.7634C145.965 79.7634 146.956 76.7183 144.771 76.3242Z" fill="#CE957C"/>
<path d="M143.17 78.1572C143.17 78.1572 145.564 79.4051 144.77 82.2352C144.77 82.2352 146.418 79.4768 143.17 78.1572Z" fill="#CE957C"/>
<path d="M140.824 79.9237C140.824 79.9237 142.794 79.9117 143.057 82.7777C143.057 82.7777 143.505 79.5177 140.824 79.9237Z" fill="#CE957C"/>
<path d="M136.907 151.328C136.907 151.328 137.952 147.584 135.468 144.271C135.468 144.271 138.716 146.587 136.907 151.328Z" fill="#CE896A"/>
<path d="M112.444 67.1523C112.444 67.1523 107.572 82.9091 117.603 92.7608C117.603 92.7608 104.091 82.5508 112.444 67.1523Z" fill="#938F71"/>
<path d="M94.0014 120.872C94.0014 120.872 86.8186 116.34 75.8086 117.426C75.8086 117.426 84.9677 114.716 94.0014 120.872Z" fill="#938F71"/>
<path d="M98.2106 74.4131C98.2106 74.4131 99.5063 77.9537 98.2106 81.9004C96.915 85.847 85.087 112.321 82.8838 114.578C82.8838 114.578 102.372 84.5036 98.2106 74.4131Z" fill="#938F71"/>
<path d="M134.406 117.504C134.406 117.504 133.689 111.02 135.815 103.282C135.815 103.282 132.674 111.08 134.406 117.504Z" fill="#938F71"/>
<path d="M133.521 81.5125L131.682 80.9453L124.727 90.5224L134.107 81.626L133.521 81.5125Z" fill="#938F71"/>
<path d="M143.17 149.208C143.17 149.208 145.523 140.837 154.18 138.873C154.18 138.873 143.469 140.181 143.17 149.208Z" fill="#041226"/>
<path d="M95.4401 154.952C95.4401 154.952 97.1119 147.172 105.196 145.524C105.196 145.524 94.9923 146.444 95.4401 154.952Z" fill="#041226"/>
<path d="M115.514 142.104L115.753 152.582L127.754 150.301L115.514 142.104Z" fill="#041226"/>
<path d="M134.865 71.8164C134.865 71.8164 139.994 71.7866 141.212 76.3243C141.212 76.3243 139.696 72.5508 134.865 71.8164Z" fill="#D29D7B"/>
<path d="M134.865 71.8164L141.212 76.3243C141.212 76.3243 139.266 73.1121 134.865 71.8164Z" fill="#D29D7B"/>
<path d="M130.07 55.6887C130.07 55.6887 131.074 56.3754 133.068 54.4349C135.062 52.4944 135.414 50.3151 138.029 50.1539C140.012 50.0285 140.818 47.9208 141.092 46.8998C141.182 46.5655 141.48 46.3386 141.821 46.3446C142.693 46.3505 144.293 46.4938 145.17 47.3715C146.424 48.6254 148.293 51.0316 151.052 51.8436C153.81 52.6556 155.888 56.5903 155.971 58.3338C156.055 60.0772 155.757 63.6835 155.757 63.6835L159.548 56.5306L158.157 48.6791L150.849 45.7594L136.967 42.583L132.399 45.8609C132.399 45.8609 128.249 55.4439 130.07 55.6887Z" fill="#DAA082"/>
<path d="M130.619 49.9632C130.619 49.9632 129.461 53.1396 129.539 54.7278C129.616 56.316 130.912 56.2444 133.581 52.3455C136.256 48.4466 138.059 50.614 138.853 49.2407C139.647 47.8675 141.02 45.921 141.02 45.921C141.02 45.921 144.268 45.4851 145.212 46.4285C146.155 47.3719 147.887 50.1184 151.278 50.7633C151.278 50.7633 156.12 53.868 156.622 56.2504C157.123 58.6327 155.756 63.6899 155.756 63.6899L157.637 60.7284C157.637 60.7284 165.87 61.0866 163.417 51.0499C163.417 51.0499 160.097 37.0366 144.131 38.8457C144.131 38.8457 140.011 35.7409 135.462 37.4724C130.912 39.2039 126.105 49.3124 126.105 49.3124C126.105 49.3124 128.816 47.8018 130.619 49.9692V49.9632Z" fill="#5C3A2C"/>
<path d="M120.367 94.4984C121.066 94.4984 121.633 93.9317 121.633 93.2326C121.633 92.5335 121.066 91.9668 120.367 91.9668C119.668 91.9668 119.102 92.5335 119.102 93.2326C119.102 93.9317 119.668 94.4984 120.367 94.4984Z" fill="#E8E7E5"/>
<path d="M117.042 67.8579C117.042 67.8579 120.469 90.8273 122.75 93.2275C122.75 93.2275 114.128 78.1634 116.319 67.5713L117.048 67.8579H117.042Z" fill="#CE957C"/>
<path d="M127.347 51.253C127.347 51.253 121.777 52.8651 125.747 58.8478C125.747 58.8478 128.231 58.7881 127.98 56.4894C127.729 54.1966 127.867 53.7369 128.392 52.8353C128.918 51.9337 128.064 51.5934 127.347 51.2471V51.253Z" fill="#DAA082"/>
<path d="M125.431 104.566C125.431 104.566 126.762 92.3437 132.172 88.5225C132.172 88.5225 125.329 93.6334 125.431 104.566Z" fill="#938F71"/>
<path d="M135.987 91.7227C135.987 91.7227 131.903 95.8962 138.823 101.192C138.823 101.192 131.366 97.3889 135.987 91.7227Z" fill="#938F71"/>
<path d="M141.576 39.9562C141.576 39.9562 134.005 39.7233 130.327 49.2765C130.327 49.2765 131.509 37.0663 141.576 39.9562Z" fill="#774335"/>
<path d="M144.68 44.4879C144.68 44.4879 142.13 41.0846 136.13 46.0283C136.13 46.0283 139.778 39.2933 144.68 44.4879Z" fill="#774335"/>
<path d="M147.098 46.5784C147.098 46.5784 157.809 49.1817 159.666 58.1079C159.666 58.1079 158.896 45.044 147.098 46.5784Z" fill="#774335"/>
<path d="M146.979 43.5987C146.979 43.5987 151.672 39.7834 156.693 43.133C156.693 43.133 151.272 37.4907 146.979 43.5987Z" fill="#774335"/>
<path d="M147.994 44.4169C147.994 44.4169 154.795 42.9779 158.933 48.0411C158.933 48.0411 154.86 40.6792 147.994 44.4169Z" fill="#774335"/>
<path d="M234.165 221.913C234.165 223.062 233.758 224.174 233.016 225.052C232.273 225.929 231.243 226.514 230.11 226.704C216.155 229.058 201.904 229.058 187.949 226.704C186.82 226.509 185.796 225.922 185.059 225.045C184.323 224.168 183.92 223.058 183.923 221.913V175.323H234.188L234.165 221.913Z" fill="#C5C5C5"/>
<path opacity="0.3" d="M183.895 176.163V182.703C186.92 183.824 196.853 184.647 209.03 184.647C221.206 184.647 231.157 183.824 234.165 182.703V176.163H183.895Z" fill="black"/>
<path d="M235.108 181.15C235.108 182.628 223.697 183.825 209.03 183.825C194.363 183.825 182.951 182.628 182.951 181.15L182.474 175.341H235.614L235.108 181.15Z" fill="#C5C5C5"/>
<path d="M209.03 178.01C223.696 178.01 235.585 176.815 235.585 175.341C235.585 173.867 223.696 172.672 209.03 172.672C194.363 172.672 182.474 173.867 182.474 175.341C182.474 176.815 194.363 178.01 209.03 178.01Z" fill="#C5C5C5"/>
<path opacity="0.3" d="M209.03 178.01C223.696 178.01 235.585 176.815 235.585 175.341C235.585 173.867 223.696 172.672 209.03 172.672C194.363 172.672 182.474 173.867 182.474 175.341C182.474 176.815 194.363 178.01 209.03 178.01Z" fill="black"/>
<path opacity="0.2" d="M190.635 218.634C190.119 218.633 189.624 218.427 189.258 218.062C188.893 217.696 188.687 217.201 188.686 216.684V189.973C188.687 189.457 188.893 188.962 189.258 188.596C189.624 188.231 190.119 188.025 190.635 188.023C191.152 188.026 191.646 188.233 192.011 188.598C192.376 188.963 192.582 189.457 192.585 189.973V216.684C192.582 217.201 192.376 217.695 192.011 218.06C191.646 218.425 191.152 218.631 190.635 218.634Z" fill="black"/>
<path opacity="0.2" d="M227.429 218.634C226.913 218.633 226.418 218.427 226.052 218.062C225.687 217.696 225.481 217.201 225.479 216.684V189.973C225.481 189.457 225.687 188.962 226.052 188.596C226.418 188.231 226.913 188.025 227.429 188.023C227.946 188.026 228.44 188.233 228.805 188.598C229.17 188.963 229.376 189.457 229.379 189.973V216.684C229.376 217.201 229.17 217.695 228.805 218.06C228.44 218.425 227.946 218.631 227.429 218.634Z" fill="black"/>
<path opacity="0.2" d="M215.161 218.634C214.645 218.631 214.15 218.425 213.785 218.06C213.42 217.695 213.214 217.201 213.211 216.684V189.973C213.214 189.457 213.42 188.963 213.785 188.598C214.15 188.233 214.645 188.026 215.161 188.023C215.677 188.025 216.173 188.231 216.538 188.596C216.903 188.962 217.109 189.457 217.111 189.973V216.684C217.109 217.201 216.903 217.696 216.538 218.062C216.173 218.427 215.677 218.633 215.161 218.634Z" fill="black"/>
<path opacity="0.2" d="M202.898 218.634C202.382 218.631 201.888 218.425 201.523 218.06C201.158 217.695 200.951 217.201 200.948 216.684V189.973C200.951 189.457 201.158 188.963 201.523 188.598C201.888 188.233 202.382 188.026 202.898 188.023C203.415 188.025 203.91 188.231 204.275 188.596C204.641 188.962 204.846 189.457 204.848 189.973V216.684C204.846 217.201 204.641 217.696 204.275 218.062C203.91 218.427 203.415 218.633 202.898 218.634Z" fill="black"/>
<path d="M88.9756 26.2053C88.9756 22.7688 87.178 19.6613 84.2761 17.4291C84.3723 16.9752 84.4216 16.5126 84.423 16.0486C84.423 11.4666 79.7646 7.74234 73.9667 7.6366C72.2044 3.2015 66.9645 0 60.7495 0C55.8033 0 51.4622 2.04426 49.0009 5.11652C48.3799 5.03155 47.7538 4.98838 47.127 4.98729C41.2175 4.98729 36.424 8.75859 36.424 13.411C36.4235 14.1988 36.5627 14.9805 36.8352 15.7196C33.0698 17.6993 30.585 21.0711 30.585 24.9012C30.585 28.5903 32.8877 31.8505 36.424 33.8536V33.9711C36.424 38.4885 40.9355 42.1951 46.6101 42.3831C49.7352 45.4378 54.5286 47.3939 59.9036 47.3939C63.4329 47.4244 66.9085 46.5291 69.9839 44.7975C70.4676 44.8517 70.954 44.8792 71.4407 44.8797C77.3503 44.8797 82.1437 41.1084 82.1437 36.4559V36.3737C86.2792 34.1415 88.9756 30.423 88.9756 26.2053Z" fill="#DCE9F5"/>
<path d="M91.4577 52.5963C91.4577 53.3659 92.3506 53.9885 93.449 53.9885C94.5475 53.9885 95.4404 53.3659 95.4404 52.5963C95.4404 51.8268 94.5475 51.2041 93.449 51.2041C92.3506 51.2041 91.4577 51.8268 91.4577 52.5963Z" fill="#E5F0FB"/>
<path d="M77.665 49.272C77.665 51.4983 80.2555 53.3017 83.4512 53.3017C86.6468 53.3017 89.2197 51.5101 89.2197 49.272C89.2197 47.0339 86.6292 45.2422 83.4335 45.2422C80.2379 45.2422 77.665 47.0632 77.665 49.272Z" fill="#C7E1FB"/>
<path d="M60.0737 8.50586C65.7894 8.50586 69.3258 11.1904 69.3258 15.9662C69.3258 22.428 62.7583 23.2562 62.7583 28.2435H57.0896C57.0896 21.6819 62.3354 21.2942 62.3354 17.2057C62.3354 15.4434 61.2251 14.6034 59.3512 14.6034C57.26 14.6034 56.1497 15.837 56.1086 18.3982H50.2695C50.3107 12.1303 53.9762 8.50586 60.0737 8.50586ZM63.4926 35.1576C63.4926 36.1251 63.1083 37.053 62.4241 37.7371C61.74 38.4212 60.8122 38.8055 59.8447 38.8055C58.8772 38.8055 57.9493 38.4212 57.2652 37.7371C56.581 37.053 56.1967 36.1251 56.1967 35.1576C56.1967 34.1901 56.581 33.2622 57.2652 32.5781C57.9493 31.894 58.8772 31.5096 59.8447 31.5096C60.8122 31.5096 61.74 31.894 62.4241 32.5781C63.1083 33.2622 63.4926 34.1901 63.4926 35.1576Z" fill="#409CF9"/>
<path d="M113.104 63.7146C113.104 63.7146 63.7081 54.0569 46.4978 142.001C30.7457 222.507 0 226.584 0 226.584C0 226.584 9.93674 224.64 16.2115 223.945C20.3866 223.482 18.6579 226.947 23.9238 226.584C30.3762 226.139 32.2402 228.974 38.0783 229.223C44.5663 229.5 46.7496 229.223 54.6669 228.469C60.5565 232.989 69.372 230.149 73.942 223.945C76.6101 220.323 77.5995 214.303 78.7957 209.996C82.0405 198.311 46.4978 82.9422 113.104 63.7146Z" fill="#DC433E"/>
<path d="M53.4177 134.989C53.4177 134.989 51.1253 194.47 22.6207 214.48C22.6207 214.48 58.0563 199.641 53.4177 134.989Z" fill="#C73632"/>
<path d="M52.4576 207.058C52.4576 207.058 66.1287 176.151 62.5845 141.661C59.0406 107.166 79.7018 82.5319 90.8078 74.1884C90.8078 74.1884 50.7622 89.4414 65.3979 137.917C80.0336 186.392 52.4572 207.064 52.4572 207.064L52.4576 207.058Z" fill="#C73632"/>
<path d="M109.525 66.8373C108.123 69.2056 105.74 75.223 107.422 80.3461C103.758 78.1265 95.3407 74.1706 91.2371 77.2547C93.3717 73.9959 98.0201 66.7484 103.678 67.4856C106.302 64.4805 107.86 62.4556 111.596 63.5604V64.2885L111.532 64.2248L109.525 66.8373Z" fill="#DC433E"/>
<path d="M104.778 68.6855C104.161 69.831 103.544 71.7043 103.606 73.7283C104.147 76.406 106.049 78.9729 107.423 80.3464C104.621 78.5056 103.678 76.0203 103.606 73.7283C103.257 71.996 103.477 70.2174 104.778 68.6855Z" fill="#C73632"/>
</svg>