<svg width="94" height="94" viewBox="0 0 94 94" fill="none" xmlns="http://www.w3.org/2000/svg">
<rect width="94" height="94" rx="47" fill="#CCD6FA"/>
<path d="M57.6469 73.5H26.8507C26.3828 73.5 26 73.1172 26 72.6493V21.3507C26 20.8828 26.3828 20.5 26.8507 20.5H66.2817C66.7496 20.5 67.1324 20.8828 67.1324 21.3507V64.7376C67.1324 65.2055 66.7496 65.5883 66.2817 65.5883H58.4976V72.6067C58.4976 73.1172 58.1148 73.5 57.6469 73.5ZM27.7014 71.7986H56.7961V64.7801C56.7961 64.3122 57.179 63.9294 57.6469 63.9294H65.4735V22.244H27.7014V71.7986Z" fill="#162D6E"/>
<path d="M58.37 73.4999C58.1573 73.4999 57.9021 73.4149 57.7319 73.2022C57.4342 72.8619 57.4342 72.3089 57.7745 72.0112L65.7287 64.78C66.069 64.4823 66.622 64.4823 66.9197 64.8226C67.2175 65.1629 67.2175 65.7158 66.8772 66.0136L58.9229 73.2447C58.7528 73.4149 58.5827 73.4999 58.37 73.4999Z" fill="#162D6E"/>
<path d="M61.1348 56.1026H32.1251C31.6572 56.1026 31.2744 55.7197 31.2744 55.2518C31.2744 54.7839 31.6572 54.4011 32.1251 54.4011H61.1348C61.6027 54.4011 61.9855 54.7839 61.9855 55.2518C61.9855 55.7197 61.6027 56.1026 61.1348 56.1026Z" fill="#162D6E"/>
<path d="M59.3909 60.5265H33.7842C32.3379 60.5265 31.1895 59.378 31.1895 57.9318V36.0682C31.1895 34.622 32.3379 33.4735 33.7842 33.4735H59.3909C60.8371 33.4735 61.9856 34.622 61.9856 36.0682V57.9318C61.9856 59.378 60.8371 60.5265 59.3909 60.5265ZM33.7842 35.175C33.2737 35.175 32.8909 35.6003 32.8909 36.0682V57.9318C32.8909 58.4422 33.3163 58.825 33.7842 58.825H59.3909C59.9013 58.825 60.2842 58.3997 60.2842 57.9318V36.0682C60.2842 35.5578 59.8588 35.175 59.3909 35.175H33.7842Z" fill="#162D6E"/>
<path d="M61.1348 39.4711H32.1251C31.6572 39.4711 31.2744 39.0883 31.2744 38.6204C31.2744 38.1525 31.6572 37.7697 32.1251 37.7697H61.1348C61.6027 37.7697 61.9855 38.1525 61.9855 38.6204C61.9855 39.0883 61.6027 39.4711 61.1348 39.4711Z" fill="#162D6E"/>
<path d="M39.1437 50.0625C38.931 50.0625 38.7183 49.9774 38.5482 49.8073C38.2079 49.467 38.2079 48.9566 38.5482 48.6163L41.1854 45.979L38.5907 43.3843C38.2504 43.044 38.2504 42.5336 38.5907 42.1933C38.931 41.853 39.4414 41.853 39.7817 42.1933L42.9719 45.3835C43.3122 45.7238 43.3122 46.2343 42.9719 46.5745L39.6967 49.8498C39.5691 49.9774 39.3564 50.0625 39.1437 50.0625Z" fill="#162D6E"/>
<path d="M51.6067 50.0624H46.63C46.1621 50.0624 45.7793 49.6796 45.7793 49.2117C45.7793 48.7438 46.1621 48.361 46.63 48.361H51.6067C52.0746 48.361 52.4575 48.7438 52.4575 49.2117C52.4575 49.6796 52.0746 50.0624 51.6067 50.0624Z" fill="#162D6E"/>
</svg>
