<svg width="94" height="94" viewBox="0 0 94 94" fill="none" xmlns="http://www.w3.org/2000/svg">
<g clip-path="url(#clip0_16_34)">
<path d="M94 47C94 21.0426 72.9574 0 47 0C21.0426 0 0 21.0426 0 47C0 72.9574 21.0426 94 47 94C72.9574 94 94 72.9574 94 47Z" fill="#CCD6FA"/>
<path d="M65.36 72.42H27.64C26.7355 72.42 26 71.6844 26 70.78V23.22C26 22.3155 26.7355 21.58 27.64 21.58H65.36C66.2645 21.58 67 22.3155 67 23.22V70.78C67 71.6844 66.2645 72.42 65.36 72.42ZM27.64 23.22V70.78H65.36V23.22H27.64Z" fill="#043365"/>
<path d="M42.9034 36.9737H32.6305C32.1778 36.9737 31.8105 36.6064 31.8105 36.1537V26.3609C31.8105 25.9083 32.1778 25.5409 32.6305 25.5409H42.9034C43.3561 25.5409 43.7234 25.9083 43.7234 26.3609V36.1537C43.7234 36.6064 43.3561 36.9737 42.9034 36.9737ZM33.4505 35.3337H42.0834V27.1809H33.4505V35.3337Z" fill="#043365"/>
<path d="M37.4502 34.1206C37.2903 34.1206 37.13 34.0743 36.9894 33.9788L35.3842 32.8874C35.0099 32.6327 34.9127 32.1227 35.1674 31.748C35.4224 31.374 35.932 31.2777 36.3067 31.5311L37.3424 32.2359L40.0664 29.4327C40.3826 29.1076 40.9012 29.101 41.2259 29.4159C41.5506 29.732 41.5584 30.2506 41.2427 30.5754L38.039 33.8722C37.8795 34.0362 37.6655 34.1206 37.4502 34.1206Z" fill="#043365"/>
<path d="M60.3704 30.2313H48.027C47.5743 30.2313 47.207 29.8639 47.207 29.4113C47.207 28.9587 47.5743 28.5913 48.027 28.5913H60.3704C60.8231 28.5913 61.1904 28.9587 61.1904 29.4113C61.1904 29.8639 60.8235 30.2313 60.3704 30.2313Z" fill="#043365"/>
<path d="M60.3704 34.3949H48.027C47.5743 34.3949 47.207 34.0275 47.207 33.5749C47.207 33.1222 47.5743 32.7549 48.027 32.7549H60.3704C60.8231 32.7549 61.1904 33.1222 61.1904 33.5749C61.1904 34.0275 60.8235 34.3949 60.3704 34.3949Z" fill="#043365"/>
<path d="M42.9034 52.7161H32.6305C32.1778 52.7161 31.8105 52.3488 31.8105 51.8961V42.1037C31.8105 41.6511 32.1778 41.2837 32.6305 41.2837H42.9034C43.3561 41.2837 43.7234 41.6511 43.7234 42.1037V51.8965C43.7234 52.3492 43.3561 52.7161 42.9034 52.7161ZM33.4505 51.0761H42.0834V42.9237H33.4505V51.0761Z" fill="#043365"/>
<path d="M37.4502 49.863C37.2903 49.863 37.13 49.8166 36.9894 49.7211L35.3842 48.6297C35.0099 48.3751 34.9127 47.865 35.1674 47.4903C35.4224 47.1168 35.932 47.0196 36.3067 47.2734L37.3424 47.9782L40.0664 45.175C40.3826 44.8499 40.9012 44.8429 41.2259 45.1582C41.5506 45.4743 41.5584 45.993 41.2427 46.3177L38.039 49.6145C37.8795 49.7785 37.6655 49.863 37.4502 49.863Z" fill="#043365"/>
<path d="M60.3704 45.9736H48.027C47.5743 45.9736 47.207 45.6063 47.207 45.1536C47.207 44.701 47.5743 44.3336 48.027 44.3336H60.3704C60.8231 44.3336 61.1904 44.701 61.1904 45.1536C61.1904 45.6063 60.8235 45.9736 60.3704 45.9736Z" fill="#043365"/>
<path d="M60.3704 50.1372H48.027C47.5743 50.1372 47.207 49.7698 47.207 49.3172C47.207 48.8646 47.5743 48.4972 48.027 48.4972H60.3704C60.8231 48.4972 61.1904 48.8646 61.1904 49.3172C61.1904 49.7698 60.8235 50.1372 60.3704 50.1372Z" fill="#043365"/>
<path d="M42.9034 68.4588H32.6305C32.1778 68.4588 31.8105 68.0915 31.8105 67.6388V57.846C31.8105 57.3934 32.1778 57.026 32.6305 57.026H42.9034C43.3561 57.026 43.7234 57.3934 43.7234 57.846V67.6388C43.7234 68.0915 43.3561 68.4588 42.9034 68.4588ZM33.4505 66.8188H42.0834V58.666H33.4505V66.8188Z" fill="#043365"/>
<path d="M37.4502 65.6057C37.2903 65.6057 37.13 65.5593 36.9894 65.4638L35.3842 64.3724C35.0099 64.1178 34.9127 63.6077 35.1674 63.233C35.4224 62.8595 35.932 62.7623 36.3067 63.0161L37.3424 63.7209L40.0664 60.9177C40.3826 60.5926 40.9012 60.5856 41.2259 60.9009C41.5506 61.217 41.5584 61.7357 41.2427 62.0604L38.039 65.3572C37.8795 65.5212 37.6655 65.6057 37.4502 65.6057Z" fill="#043365"/>
<path d="M60.3704 61.7164H48.027C47.5743 61.7164 47.207 61.349 47.207 60.8964C47.207 60.4437 47.5743 60.0764 48.027 60.0764H60.3704C60.8231 60.0764 61.1904 60.4437 61.1904 60.8964C61.1904 61.349 60.8235 61.7164 60.3704 61.7164Z" fill="#043365"/>
<path d="M60.3704 65.8799H48.027C47.5743 65.8799 47.207 65.5126 47.207 65.0599C47.207 64.6073 47.5743 64.2399 48.027 64.2399H60.3704C60.8231 64.2399 61.1904 64.6073 61.1904 65.0599C61.1904 65.5126 60.8235 65.8799 60.3704 65.8799Z" fill="#043365"/>
</g>
<defs>
<clipPath id="clip0_16_34">
<rect width="94" height="94" fill="white"/>
</clipPath>
</defs>
</svg>
