<svg width="120" height="120" viewBox="0 0 120 120" fill="none" xmlns="http://www.w3.org/2000/svg">
  <rect width="120" height="120" rx="16" fill="#EFF6FF"/>
  
  <!-- Document -->
  <rect x="12" y="12" width="60" height="70" rx="6" stroke="#334155" stroke-width="2"/>
  <rect x="18" y="18" width="15" height="6" rx="2" fill="#93C5FD"/>
  <rect x="36" y="18" width="15" height="6" rx="2" fill="#93C5FD"/>
  <rect x="54" y="18" width="12" height="6" rx="2" fill="#93C5FD"/>
  
  <rect x="18" y="35" width="48" height="20" rx="2" stroke="#334155" stroke-width="2"/>
  <line x1="18" y1="35" x2="66" y2="55" stroke="#93C5FD" stroke-width="2"/>
  <line x1="66" y1="35" x2="18" y2="55" stroke="#93C5FD" stroke-width="2"/>

  <rect x="18" y="60" width="48" height="6" rx="2" fill="#93C5FD"/>
  <rect x="18" y="70" width="48" height="6" rx="2" fill="#93C5FD"/>

  <!-- Pencil -->
  <rect x="78" y="12" width="12" height="70" rx="6" fill="#60A5FA" stroke="#334155" stroke-width="2"/>
  <polygon points="78,82 90,82 84,95" fill="#3B82F6"/>

  <!-- Ruler -->
  <rect x="12" y="90" width="78" height="12" rx="3" fill="#60A5FA" stroke="#334155" stroke-width="2"/>
</svg>