<svg width="32" height="32" viewBox="0 0 32 32" fill="none" xmlns="http://www.w3.org/2000/svg">
<mask id="mask0_1382_3616" style="mask-type:alpha" maskUnits="userSpaceOnUse" x="0" y="0" width="32" height="32">
<rect width="32" height="32" fill="#D9D9D9"/>
</mask>
<g mask="url(#mask0_1382_3616)">
<path d="M12.7901 5C12.1241 5 11.506 5.26733 11.0887 5.72554C10.6628 5.51499 10.1866 5.40474 9.69572 5.40474C8.08616 5.40474 6.77679 6.59402 6.77679 8.05562C6.77679 8.18 6.78625 8.30383 6.80516 8.42572C6.09221 8.58418 5.44576 8.94321 4.96131 9.45322C4.40699 10.0375 4.10162 10.7841 4.10162 11.5559C4.10162 11.9617 4.18368 12.3567 4.34506 12.731C3.48751 13.4122 3 14.3835 3 15.4259C3 17.2571 4.52017 18.7719 6.47508 18.9844C6.2539 19.4016 6.13858 19.862 6.13858 20.336C6.13858 22.0535 7.67737 23.4506 9.56851 23.4506C9.69572 23.4506 9.82294 23.4445 9.94863 23.4315C9.93765 23.5193 9.93185 23.608 9.93185 23.6969C9.93185 24.9659 11.0689 25.9984 12.4661 25.9984C13.1427 25.9984 13.7791 25.7591 14.2578 25.3244C14.7358 24.89 14.9991 24.3122 14.9991 23.6972V7.00762C14.9997 5.90062 14.0085 5 12.7901 5Z" fill="#B6B6B6"/>
<path d="M28.999 15.4262C28.999 14.3835 28.4709 13.4125 27.5418 12.7313C27.717 12.3567 27.8056 11.9617 27.8056 11.5561C27.8056 10.7843 27.4747 10.0377 26.8742 9.4535C26.3497 8.94349 25.6494 8.58446 24.8767 8.426C24.8971 8.30383 24.9074 8.18 24.9074 8.05589C24.9074 6.59429 23.4889 5.40501 21.7451 5.40501C21.2134 5.40501 20.6974 5.51527 20.2361 5.72581C19.7846 5.26733 19.115 5 18.3935 5C17.0738 5 16 5.90062 16 7.0079V23.6972C16 24.3119 16.2852 24.89 16.8031 25.3244C17.3217 25.7591 18.0108 25.9984 18.7442 25.9984C20.2579 25.9984 21.4897 24.9659 21.4897 23.6969C21.4897 23.6077 21.4834 23.5193 21.4715 23.4315C21.608 23.4442 21.7455 23.4506 21.8833 23.4506C23.9324 23.4506 25.5991 22.0533 25.5991 20.336C25.5991 19.862 25.4742 19.4016 25.2346 18.9844C27.3521 18.7722 28.999 17.2574 28.999 15.4262Z" fill="#B6B6B6"/>
<path d="M18.4336 14.0162H19.3426C19.5079 14.0299 19.8384 13.9504 19.8384 13.5231C19.8384 13.0957 19.8384 12.1122 19.8384 11.6738" stroke="#FAFAFA" stroke-width="0.7" stroke-linecap="round" stroke-linejoin="round"/>
<path d="M18.4336 16.5229H19.3426C19.5079 16.5093 19.8384 16.5886 19.8384 17.016C19.8384 17.4434 19.8384 18.4269 19.8384 18.8653" stroke="#FAFAFA" stroke-width="0.7" stroke-linecap="round" stroke-linejoin="round"/>
<path d="M22.3624 13.5215V14.7132C22.3762 14.8776 22.2963 15.2063 21.8666 15.2063C21.4369 15.2063 17.597 15.2063 17.1562 15.2063" stroke="#FAFAFA" stroke-width="0.7" stroke-linecap="round" stroke-linejoin="round"/>
<path d="M19.8827 10.4405C20.3163 10.4405 20.6678 10.0909 20.6678 9.65969C20.6678 9.22848 20.3163 8.87891 19.8827 8.87891C19.4491 8.87891 19.0977 9.22848 19.0977 9.65969C19.0977 10.0909 19.4491 10.4405 19.8827 10.4405Z" stroke="#FAFAFA" stroke-width="0.7"/>
<path d="M22.3671 12.4131C22.8007 12.4131 23.1522 12.0636 23.1522 11.6323C23.1522 11.2011 22.8007 10.8516 22.3671 10.8516C21.9335 10.8516 21.582 11.2011 21.582 11.6323C21.582 12.0636 21.9335 12.4131 22.3671 12.4131Z" stroke="#FAFAFA" stroke-width="0.7"/>
<path d="M19.8827 21.5303C20.3163 21.5303 20.6678 21.1808 20.6678 20.7495C20.6678 20.3183 20.3163 19.9688 19.8827 19.9688C19.4491 19.9688 19.0977 20.3183 19.0977 20.7495C19.0977 21.1808 19.4491 21.5303 19.8827 21.5303Z" fill="#FAFAFA" stroke="#FAFAFA" stroke-width="0.7"/>
<path d="M23.8898 17.7127V18.3702M23.8898 16.8497V12.6992M22.4023 16.521V19.3564" stroke="#FAFAFA" stroke-width="0.7" stroke-linecap="round" stroke-linejoin="round"/>
<path d="M7.99609 13C8.23956 13.1423 8.73156 13.3219 9.27405 13.2815M9.27405 13.2815C9.55825 13.2604 9.85632 13.1789 10.1398 13M9.27405 13.2815C9.5901 13.5129 10.2387 14.13 10.3047 14.7479" stroke="#FAFAFA" stroke-width="0.7" stroke-linecap="round" stroke-linejoin="round"/>
<path d="M10.832 7.31641C10.5619 6.64888 9.6165 5.49805 7.9958 6.235" stroke="#FAFAFA" stroke-width="0.5" stroke-linecap="round" stroke-linejoin="round"/>
<path d="M8.07812 8.99805C8.30893 9.68017 9.18575 10.8841 10.8466 10.2427" stroke="#FAFAFA" stroke-width="0.7" stroke-linecap="round" stroke-linejoin="round"/>
<path d="M7.79541 17.5481C8.23255 17.5481 8.58692 17.2011 8.58692 16.7731C8.58692 16.345 8.23255 15.998 7.79541 15.998C7.35828 15.998 7.00391 16.345 7.00391 16.7731C7.00391 17.2011 7.35828 17.5481 7.79541 17.5481Z" stroke="#FAFAFA" stroke-width="0.7"/>
<path d="M9.81593 16.8233C9.93432 16.8233 10.0303 16.7273 10.0303 16.6089C10.0303 16.4905 9.93432 16.3945 9.81593 16.3945C9.69754 16.3945 9.60156 16.4905 9.60156 16.6089C9.60156 16.7273 9.69754 16.8233 9.81593 16.8233Z" fill="#FAFAFA"/>
<path d="M10.937 16.8233C11.0554 16.8233 11.1514 16.7273 11.1514 16.6089C11.1514 16.4905 11.0554 16.3945 10.937 16.3945C10.8186 16.3945 10.7227 16.4905 10.7227 16.6089C10.7227 16.7273 10.8186 16.8233 10.937 16.8233Z" fill="#FAFAFA"/>
<path d="M12.0894 16.8233C12.2078 16.8233 12.3037 16.7273 12.3037 16.6089C12.3037 16.4905 12.2078 16.3945 12.0894 16.3945C11.971 16.3945 11.875 16.4905 11.875 16.6089C11.875 16.7273 11.971 16.8233 12.0894 16.8233Z" fill="#FAFAFA"/>
<path d="M13.2378 16.8233C13.3562 16.8233 13.4522 16.7273 13.4522 16.6089C13.4522 16.4905 13.3562 16.3945 13.2378 16.3945C13.1194 16.3945 13.0234 16.4905 13.0234 16.6089C13.0234 16.7273 13.1194 16.8233 13.2378 16.8233Z" fill="#FAFAFA"/>
<path d="M9 20.7019C9.49991 20.8083 10.4874 20.7721 11.3874 20.1197M11.3874 20.1197C11.75 19.8568 12.0984 19.4939 12.395 19M11.3874 20.1197C11.787 20.1346 12.5958 20.5675 12.6341 22.1798" stroke="#FAFAFA" stroke-width="0.7" stroke-linecap="round" stroke-linejoin="round"/>
</g>
</svg>
