<svg width="21" height="17" viewBox="0 0 21 17" fill="none" xmlns="http://www.w3.org/2000/svg">
<g id="Group 1000003601">
<g id="Group 1000003602">
<g id="Group 1000003643">
<g id="Group 1000003601_2">
<g id="Group">
<path id="Vector" d="M8.38277 0C7.86434 0 7.3832 0.208104 7.05833 0.564791C6.7268 0.400896 6.35609 0.315067 5.97398 0.315067C4.72103 0.315067 3.70175 1.24086 3.70175 2.37863C3.70175 2.47546 3.70911 2.57186 3.72384 2.66674C3.16884 2.7901 2.66562 3.06958 2.28849 3.46659C1.85699 3.9214 1.61927 4.50258 1.61927 5.10339C1.61927 5.41932 1.68315 5.72684 1.80878 6.01818C1.14122 6.54847 0.761719 7.30454 0.761719 8.11604C0.761719 9.54149 1.94509 10.7207 3.46688 10.8861C3.29471 11.2108 3.20494 11.5693 3.20494 11.9382C3.20494 13.2753 4.4028 14.3628 5.87495 14.3628C5.97398 14.3628 6.07301 14.3581 6.17086 14.3479C6.16231 14.4163 6.15779 14.4853 6.15779 14.5545C6.15779 15.5424 7.04289 16.3462 8.13056 16.3462C8.6573 16.3462 9.15268 16.1598 9.52529 15.8215C9.89743 15.4833 10.1024 15.0335 10.1024 14.5547V1.56282C10.1029 0.701082 9.33127 0 8.38277 0Z" fill="#043365"/>
<path id="Vector_2" d="M20.9999 8.11625C20.9999 7.30454 20.5888 6.54868 19.8656 6.0184C20.0019 5.72684 20.0709 5.41932 20.0709 5.1036C20.0709 4.5028 19.8133 3.92162 19.3459 3.46681C18.9376 3.0698 18.3924 2.79031 17.7909 2.66696C17.8068 2.57186 17.8148 2.47546 17.8148 2.37885C17.8148 1.24107 16.7105 0.315282 15.3531 0.315282C14.9392 0.315282 14.5376 0.401111 14.1784 0.565006C13.827 0.208103 13.3057 0 12.7441 0C11.7168 0 10.8809 0.701082 10.8809 1.56304V14.5547C10.8809 15.0333 11.1029 15.4833 11.506 15.8215C11.9097 16.1598 12.4461 16.3462 13.017 16.3462C14.1954 16.3462 15.1543 15.5424 15.1543 14.5545C15.1543 14.4851 15.1494 14.4163 15.1401 14.3479C15.2464 14.3578 15.3534 14.3628 15.4607 14.3628C17.0558 14.3628 18.3533 13.2751 18.3533 11.9382C18.3533 11.5693 18.256 11.2108 18.0695 10.8861C19.7179 10.7209 20.9999 9.54171 20.9999 8.11625Z" fill="#043365"/>
</g>
<g id="Group 1000003600">
<path id="Vector_3" d="M12.5566 6.72608H13.3698C13.5176 6.73836 13.8133 6.66727 13.8133 6.28496C13.8133 5.90265 13.8133 5.02285 13.8133 4.63074" stroke="#FAFAFA" stroke-width="0.4" stroke-linecap="round" stroke-linejoin="round"/>
<path id="Vector_4" d="M12.5566 8.96782H13.3698C13.5176 8.95561 13.8133 9.02663 13.8133 9.40894C13.8133 9.79125 13.8133 10.6711 13.8133 11.0632" stroke="#FAFAFA" stroke-width="0.4" stroke-linecap="round" stroke-linejoin="round"/>
<path id="Vector_5" d="M16.0708 6.28296V7.34901C16.0831 7.49605 16.0116 7.79014 15.6272 7.79014C15.2428 7.79014 11.8078 7.79014 11.4136 7.79014" stroke="#FAFAFA" stroke-width="0.4" stroke-linecap="round" stroke-linejoin="round"/>
<path id="Vector_6" d="M13.8536 3.52727C14.2415 3.52727 14.5559 3.21456 14.5559 2.82882C14.5559 2.44308 14.2415 2.13037 13.8536 2.13037C13.4658 2.13037 13.1514 2.44308 13.1514 2.82882C13.1514 3.21456 13.4658 3.52727 13.8536 3.52727Z" stroke="#FAFAFA" stroke-width="0.4"/>
<path id="Vector_7" d="M16.0753 5.29131C16.4632 5.29131 16.7776 4.9786 16.7776 4.59286C16.7776 4.20712 16.4632 3.89441 16.0753 3.89441C15.6875 3.89441 15.373 4.20712 15.373 4.59286C15.373 4.9786 15.6875 5.29131 16.0753 5.29131Z" stroke="#FAFAFA" stroke-width="0.4"/>
<path id="Vector_8" d="M13.8536 13.4485C14.2415 13.4485 14.5559 13.1358 14.5559 12.7501C14.5559 12.3643 14.2415 12.0516 13.8536 12.0516C13.4658 12.0516 13.1514 12.3643 13.1514 12.7501C13.1514 13.1358 13.4658 13.4485 13.8536 13.4485Z" stroke="#FAFAFA" stroke-width="0.4"/>
<path id="Vector_9" d="M17.438 10.0332V10.6214M17.438 9.26127V5.54846M16.1074 8.96718V11.5037" stroke="#FAFAFA" stroke-width="0.4" stroke-linecap="round" stroke-linejoin="round"/>
</g>
<path id="Vector_10" d="M5.02246 6.39099C5.24713 6.56439 5.70114 6.78327 6.20175 6.73412M6.20175 6.73412C6.46401 6.70836 6.73906 6.60898 7.00062 6.39099M6.20175 6.73412C6.4934 7.01612 7.09192 7.76827 7.15279 8.52132" stroke="#FAFAFA" stroke-width="0.4" stroke-linecap="round" stroke-linejoin="round"/>
<path id="Vector_11" d="M7.17432 1.63904C6.83557 1.13881 5.858 0.360593 4.65772 1.24961" stroke="#FAFAFA" stroke-width="0.4" stroke-linecap="round" stroke-linejoin="round"/>
<path id="Vector_12" d="M4.77344 3.31152C4.96707 3.88379 5.70268 4.89381 7.09606 4.35573" stroke="#FAFAFA" stroke-width="0.4" stroke-linecap="round" stroke-linejoin="round"/>
<path id="Vector_13" d="M4.4901 10.6516C4.78424 10.6516 5.02268 10.4131 5.02268 10.119C5.02268 9.82487 4.78424 9.58643 4.4901 9.58643C4.19596 9.58643 3.95752 9.82487 3.95752 10.119C3.95752 10.4131 4.19596 10.6516 4.4901 10.6516Z" stroke="#FAFAFA" stroke-width="0.4"/>
</g>
<path id="Vector_14" d="M5.02246 12.857C5.46203 12.9283 6.33031 12.904 7.1217 12.4669M7.1217 12.4669C7.44054 12.2908 7.7469 12.0477 8.00772 11.7168M7.1217 12.4669C7.4731 12.4769 8.18431 12.767 8.21795 13.8471" stroke="#FAFAFA" stroke-width="0.4" stroke-linecap="round" stroke-linejoin="round"/>
<path id="Vector_15" d="M6.21079 10.4216C6.3272 10.4216 6.42157 10.3272 6.42157 10.2108C6.42157 10.0944 6.3272 10 6.21079 10C6.09437 10 6 10.0944 6 10.2108C6 10.3272 6.09437 10.4216 6.21079 10.4216Z" fill="#FAFAFA"/>
<path id="Vector_16" d="M7.21079 10.4216C7.3272 10.4216 7.42157 10.3272 7.42157 10.2108C7.42157 10.0944 7.3272 10 7.21079 10C7.09437 10 7 10.0944 7 10.2108C7 10.3272 7.09437 10.4216 7.21079 10.4216Z" fill="#FAFAFA"/>
<path id="Vector_17" d="M8.21079 10.4216C8.3272 10.4216 8.42157 10.3272 8.42157 10.2108C8.42157 10.0944 8.3272 10 8.21079 10C8.09437 10 8 10.0944 8 10.2108C8 10.3272 8.09437 10.4216 8.21079 10.4216Z" fill="#FAFAFA"/>
<path id="Vector_18" d="M9.21079 10.4216C9.3272 10.4216 9.42157 10.3272 9.42157 10.2108C9.42157 10.0944 9.3272 10 9.21079 10C9.09437 10 9 10.0944 9 10.2108C9 10.3272 9.09437 10.4216 9.21079 10.4216Z" fill="#FAFAFA"/>
</g>
</g>
</g>
</svg>
