<svg width="16" height="16" viewBox="0 0 16 16" fill="none" xmlns="http://www.w3.org/2000/svg">
<g clip-path="url(#clip0_1654_6790)">
<path d="M13.9417 7.40602V6.43632C13.9417 3.15875 11.275 0.494507 7.99986 0.494507C4.72228 0.494507 2.05804 3.16117 2.05804 6.43632V7.40602C1.34531 7.55148 0.807129 8.1842 0.807129 8.93814V10.8145C0.807129 11.6775 1.50773 12.3781 2.37077 12.3781H3.62652C3.79864 12.3781 3.93925 12.2375 3.93925 12.0654L3.9344 6.43632C3.9344 4.1939 5.75743 2.37087 7.99986 2.37087C10.2423 2.37087 12.0653 4.1939 12.0653 6.43632L12.0605 12.0654C12.0605 12.2375 12.2011 12.3781 12.3732 12.3781H13.292C13.1393 13.4375 12.2277 14.2545 11.1271 14.2545H10.9696C10.8968 13.7187 10.4386 13.3018 9.88349 13.3018H8.54046C7.93198 13.3018 7.43743 13.7963 7.43743 14.4048C7.43743 15.0133 7.93198 15.5078 8.54046 15.5078H9.88349C10.3199 15.5078 10.6932 15.2509 10.8726 14.8824H11.1296C12.5865 14.8824 13.7889 13.7697 13.9296 12.3491C14.6496 12.2084 15.195 11.5757 15.195 10.8145V8.93814C15.1926 8.1842 14.6544 7.55148 13.9417 7.40602ZM9.88107 14.88H8.53804C8.27622 14.88 8.06046 14.6666 8.06046 14.4024C8.06046 14.1406 8.2738 13.9248 8.53804 13.9248H9.88107C10.1429 13.9248 10.3586 14.1381 10.3586 14.4024C10.3586 14.6666 10.1453 14.88 9.88107 14.88ZM3.3138 11.7527H2.37077C1.8544 11.7527 1.43258 11.3309 1.43258 10.8145V8.93814C1.43258 8.42178 1.8544 7.99996 2.37077 7.99996H3.3138V11.7527ZM7.99986 1.74542C5.41319 1.74542 3.30895 3.84966 3.30895 6.43632V7.37451H2.68349V6.43632C2.68349 3.50542 5.06895 1.11996 7.99986 1.11996C10.9308 1.11996 13.3162 3.50542 13.3162 6.43632V7.37451H12.6908V6.43632C12.6908 3.84966 10.5865 1.74542 7.99986 1.74542ZM14.5671 10.8145C14.5671 11.3309 14.1453 11.7527 13.6289 11.7527H12.6859V7.99996H13.6289C14.1453 7.99996 14.5671 8.42178 14.5671 8.93814V10.8145Z" fill="#424242"/>
<path d="M10.1889 10.1891C10.7053 10.1891 11.1271 9.76728 11.1271 9.25091V6.7491C11.1271 6.23273 10.7053 5.81091 10.1889 5.81091H5.81074C5.29438 5.81091 4.87256 6.23273 4.87256 6.7491V9.25091C4.87256 9.76728 5.29438 10.1891 5.81074 10.1891H6.12347V10.8145C6.12347 10.9285 6.18407 11.0327 6.28347 11.0885C6.33195 11.1152 6.47256 11.1636 6.60104 11.0812L8.04589 10.1891H10.1889ZM7.79135 9.6097L6.74892 10.2521V9.87394C6.74892 9.70182 6.60832 9.56122 6.43619 9.56122H5.81074C5.63862 9.56122 5.49801 9.42061 5.49801 9.24849V6.7491C5.49801 6.57697 5.63862 6.43637 5.81074 6.43637H10.1889C10.361 6.43637 10.5016 6.57697 10.5016 6.7491V9.25091C10.5016 9.42303 10.361 9.56364 10.1889 9.56364H7.95377C7.89801 9.56364 7.83983 9.58061 7.79135 9.6097Z" fill="#424242"/>
<path d="M9.56354 7.06177H6.43626C6.26414 7.06177 6.12354 7.20237 6.12354 7.3745C6.12354 7.54662 6.26414 7.68722 6.43626 7.68722H9.56354C9.73566 7.68722 9.87626 7.54662 9.87626 7.3745C9.87626 7.20237 9.73566 7.06177 9.56354 7.06177Z" fill="#424242"/>
<path d="M8.93811 8.31274H7.06175C6.88963 8.31274 6.74902 8.45335 6.74902 8.62547C6.74902 8.79759 6.88963 8.9382 7.06175 8.9382H8.93811C9.11024 8.9382 9.25084 8.79759 9.25084 8.62547C9.25084 8.45335 9.11024 8.31274 8.93811 8.31274Z" fill="#424242"/>
</g>
<defs>
<clipPath id="clip0_1654_6790">
<rect width="16" height="16" fill="white"/>
</clipPath>
</defs>
</svg>
