<svg width="32" height="32" viewBox="0 0 32 32" fill="none" xmlns="http://www.w3.org/2000/svg">
<mask id="mask0_1382_3603" style="mask-type:alpha" maskUnits="userSpaceOnUse" x="0" y="0" width="32" height="32">
<rect width="32" height="32" fill="#D9D9D9"/>
</mask>
<g mask="url(#mask0_1382_3603)">
</g>
<g clip-path="url(#clip0_1382_3603)">
<path d="M18.4909 12.2545H27.0946C27.3447 12.2545 27.5475 12.0492 27.5475 11.796V7.21036C27.5475 6.95714 27.3447 6.7518 27.0946 6.7518H26.6418V4.91755C26.6418 4.66428 26.4391 4.45898 26.189 4.45898H23.0192C22.7691 4.45898 22.5663 4.66428 22.5663 4.91755V6.7518H21.6607V4.91755C21.6607 4.66428 21.4579 4.45898 21.2078 4.45898H18.038C17.7879 4.45898 17.5852 4.66428 17.5852 4.91755V6.7518H16.6795V4.91755C16.6795 4.66428 16.4768 4.45898 16.2267 4.45898H13.0569C12.8068 4.45898 12.6041 4.66428 12.6041 4.91755V6.7518H12.1512C11.9011 6.7518 11.6984 6.95714 11.6984 7.21036V11.3374H10.7724V9.50317C10.7724 9.24995 10.5696 9.04461 10.3195 9.04461H7.17011C6.92001 9.04461 6.71728 9.24995 6.71728 9.50317C6.71728 10.3913 6.71728 15.9517 6.71728 16.8402C6.71728 17.0934 6.92001 17.2987 7.17011 17.2987H16.6795V21.4258H15.321V19.5915C15.321 19.3383 15.1183 19.133 14.8682 19.133H11.6984C11.4483 19.133 11.2456 19.3383 11.2456 19.5915V21.4258H9.88709V19.5915C9.88709 19.3383 9.68435 19.133 9.43426 19.133H6.26445C6.01435 19.133 5.81162 19.3383 5.81162 19.5915V21.4258H4.90596C4.65586 21.4258 4.45312 21.6311 4.45312 21.8843V27.3871C4.45312 27.6404 4.65586 27.8457 4.90596 27.8457H9.42384C9.67394 27.8457 9.87667 27.6404 9.87667 27.3871C9.87667 27.1339 9.67394 26.9285 9.42384 26.9285H5.35879V22.3429C11.6088 22.3429 16.4764 22.3429 22.1135 22.3429V26.9285H13.0465C12.7964 26.9285 12.5937 27.1339 12.5937 27.3871C12.5937 27.6404 12.7964 27.8457 13.0465 27.8457H27.0946C27.3447 27.8457 27.5475 27.6404 27.5475 27.3871C27.5475 26.9154 27.5475 17.2952 27.5475 16.8402C27.5475 16.5869 27.3447 16.3816 27.0946 16.3816H26.6418V14.5474C26.6418 14.2941 26.4391 14.0888 26.189 14.0888H23.0192C22.7691 14.0888 22.5663 14.2941 22.5663 14.5474V16.3816H18.4905L18.4909 12.2545ZM8.98143 21.4258H6.71728V20.0501H8.98143V21.4258ZM14.4154 21.4258H12.1512V20.0501H14.4154V21.4258ZM23.472 5.37611H25.7361V6.7518H23.472V5.37611ZM18.4909 5.37611H20.755V6.7518H18.4909V5.37611ZM13.5097 5.37611H15.7739V6.7518H13.5097V5.37611ZM12.6041 7.66892C14.326 7.66892 24.9198 7.66892 26.6418 7.66892V11.3374H12.6041V7.66892ZM7.62294 9.96173H9.86671V11.3374H7.62294V9.96173ZM23.0192 26.9285V22.3429H26.6418V26.9285H23.0192ZM23.472 15.0059H25.7361V16.3816H23.472V15.0059ZM26.6418 17.2987V21.4258H17.5852V17.2987C17.9957 17.2987 26.3004 17.2987 26.6418 17.2987ZM7.62294 16.3816V12.2545C8.67518 12.2545 16.41 12.2545 17.5852 12.2545V16.3816C17.02 16.3816 8.01174 16.3816 7.62294 16.3816Z" fill="#B6B6B6"/>
<rect x="12.25" y="7" width="15" height="4.5" fill="#B6B6B6"/>
<rect x="17.5" y="16.75" width="9.75" height="5.25" fill="#B6B6B6"/>
<rect x="11.5" y="11.5" width="6.75" height="5.25" fill="#B6B6B6"/>
<rect x="4.75" y="22" width="12.75" height="5.25" fill="#B6B6B6"/>
<rect x="7" y="27.25" width="7.5" height="0.6" fill="#B6B6B6"/>
</g>
<defs>
<clipPath id="clip0_1382_3603">
<rect width="24" height="24" fill="white" transform="translate(4 4)"/>
</clipPath>
</defs>
</svg>
