<svg width="32" height="32" viewBox="0 0 32 32" fill="none" xmlns="http://www.w3.org/2000/svg">
<g clip-path="url(#clip0_1390_3847)">
<path d="M15.5667 22.968C14.0972 23.1786 12.9667 24.4392 12.9667 25.9667C12.9667 27.6419 14.3247 29 16 29C17.6753 29 19.0333 27.6419 19.0333 25.9667C19.0333 24.4387 17.9028 23.1786 16.4333 22.968V19.9H29V12.9667H16.4333V10.8H26.4V7.94L28.1333 6.9V4.3L25.9667 3L23.8 4.3V6.9L25.5333 7.94V9.93333H19.4667V7.7229C20.4555 7.52227 21.2 6.64823 21.2 5.6C21.2 4.40357 20.2298 3.43333 19.0333 3.43333C17.8369 3.43333 16.8667 4.40357 16.8667 5.6C16.8667 6.64823 17.6111 7.52227 18.6 7.7229V9.93333H12.9667V7.76667H14.7V3.43333H10.3667V7.76667H12.1V9.93333H6.03333V7.76667H7.76667L5.6 3L3.43333 7.76667H5.16667V10.8H15.5667V12.9667H3V19.9H15.5667V22.968ZM17.6064 25.4064L15.5667 27.4461L14.3936 26.273L15.0064 25.6603L15.5667 26.2206L16.9936 24.7936L17.6064 25.4064ZM23.3667 15.5667L25.1 14.7L26.8333 15.5667V17.3L25.1 18.1667L23.3667 17.3V15.5667ZM19.0333 14.7C19.9906 14.7 20.7667 15.4761 20.7667 16.4333C20.7667 17.3906 19.9906 18.1667 19.0333 18.1667C18.0761 18.1667 17.3 17.3906 17.3 16.4333C17.3 15.4761 18.0761 14.7 19.0333 14.7ZM5.16667 18.1667L6.9 14.7L8.63333 18.1667H5.16667ZM14.7 18.1667H11.2333V14.7H14.7V18.1667Z" fill="#B6B6B6"/>
</g>
<defs>
<clipPath id="clip0_1390_3847">
<rect width="32" height="32" fill="white"/>
</clipPath>
</defs>
</svg>
