<svg width="32" height="32" viewBox="0 0 32 32" fill="none" xmlns="http://www.w3.org/2000/svg">
<mask id="mask0_1382_3579" style="mask-type:alpha" maskUnits="userSpaceOnUse" x="0" y="0" width="32" height="32">
<rect width="32" height="32" fill="#D9D9D9"/>
</mask>
<g mask="url(#mask0_1382_3579)">
<path d="M14.4247 24.8389H22.8052V22.7589H14.4247V24.8389ZM14.4247 20.679H22.8052V18.599H14.4247V20.679ZM12.3295 28.9988C11.7534 28.9988 11.2601 28.7951 10.8498 28.3878C10.4395 27.9805 10.2344 27.4908 10.2344 26.9188V10.2792C10.2344 9.70719 10.4395 9.21753 10.8498 8.81021C11.2601 8.40288 11.7534 8.19922 12.3295 8.19922H20.7101L26.9955 14.4391V26.9188C26.9955 27.4908 26.7904 27.9805 26.3801 28.3878C25.9698 28.7951 25.4766 28.9988 24.9004 28.9988H12.3295ZM19.6625 15.4791H24.9004L19.6625 10.2792V15.4791Z" fill="#B6B6B6"/>
<path d="M8.76893 10.2441L11.8329 7.22347L11.0601 6.46164L8.76893 8.7204L7.63012 7.5977L6.85735 8.35953L8.76893 10.2441ZM9.33834 13.6923C8.08203 13.3805 7.0449 12.6699 6.22694 11.5605C5.40898 10.4512 5 9.21937 5 7.86501V4.60385L9.33834 3L13.6767 4.60385V7.86501C13.6767 9.21937 13.2677 10.4512 12.4497 11.5605C11.6318 12.6699 10.5947 13.3805 9.33834 13.6923Z" fill="#B6B6B6"/>
</g>
</svg>
