<svg width="32" height="32" viewBox="0 0 32 32" fill="none" xmlns="http://www.w3.org/2000/svg">
<g clip-path="url(#clip0_1390_3850)">
<path d="M14.0769 11.3846C20.1945 11.3846 25.1538 9.73151 25.1538 7.69231C25.1538 5.6531 20.1945 4 14.0769 4C7.95931 4 3 5.6531 3 7.69231C3 9.73151 7.95931 11.3846 14.0769 11.3846Z" fill="#B6B6B6"/>
<path d="M25.1538 13.7184V10.9492C22.3015 12.9523 16.8462 13.2292 14.0769 13.2292C11.3077 13.2292 5.85231 12.9523 3 10.9492V13.7184C5.85231 15.7215 11.3077 15.9984 14.0769 15.9984C16.8462 15.9984 22.3015 15.7215 25.1538 13.7184Z" fill="#B6B6B6"/>
<path d="M17.7692 22.2955C16.3662 22.4247 15.0554 22.4616 14.0769 22.4616C11.3077 22.4616 5.85231 22.1847 3 20.1816V21.5386C3 24.4555 9.96 25.2309 14.0769 25.2309C15.4679 25.2267 16.8577 25.1466 18.24 24.9909C17.9288 24.1519 17.7694 23.2642 17.7692 22.3693V22.2955Z" fill="#B6B6B6"/>
<path d="M24.2326 16.9238L19.6172 18.77V22.37C19.6153 23.6979 20.0744 24.9852 20.9162 26.0122C21.758 27.0391 22.9302 27.742 24.2326 28.0008C25.535 27.742 26.7072 27.0391 27.549 26.0122C28.3908 24.9852 28.8499 23.6979 28.848 22.37V18.77L24.2326 16.9238ZM26.2726 22.1946L24.4264 24.0408C24.3406 24.1273 24.2385 24.1959 24.126 24.2428C24.0135 24.2897 23.8929 24.3138 23.771 24.3138C23.6492 24.3138 23.5285 24.2897 23.416 24.2428C23.3036 24.1959 23.2015 24.1273 23.1157 24.0408L22.1926 23.1177C22.0188 22.9439 21.9211 22.7081 21.9211 22.4623C21.9211 22.2165 22.0188 21.9807 22.1926 21.8069C22.3664 21.6331 22.6021 21.5354 22.848 21.5354C23.0938 21.5354 23.3295 21.6331 23.5033 21.8069L23.771 22.0838L24.9618 20.8838C25.1356 20.71 25.3714 20.6124 25.6172 20.6124C25.863 20.6124 26.0988 20.71 26.2726 20.8838C26.4464 21.0576 26.544 21.2934 26.544 21.5392C26.544 21.785 26.4464 22.0208 26.2726 22.1946Z" fill="#B6B6B6"/>
<path d="M17.7692 20.4495V18.7695C17.7758 18.3594 17.9187 17.9632 18.1754 17.6433C16.6154 17.8464 15.1477 17.8464 14.0769 17.8464C11.3077 17.8464 5.85231 17.5695 3 15.5664V18.3356C5.85231 20.3387 11.3077 20.6156 14.0769 20.6156C15.0554 20.6156 16.3662 20.6156 17.7692 20.4495Z" fill="#B6B6B6"/>
</g>
<defs>
<clipPath id="clip0_1390_3850">
<rect width="32" height="32" fill="white"/>
</clipPath>
</defs>
</svg>
