<svg width="32" height="32" viewBox="0 0 32 32" fill="none" xmlns="http://www.w3.org/2000/svg">
<g clip-path="url(#clip0_1382_3550)">
<path d="M9.08738 4.89453L5.35547 8.65528H9.08738V4.89453Z" fill="#B6B6B6"/>
<path d="M16.4873 16.0034C17.9451 14.5344 19.811 13.7705 21.8519 13.7705C22.0852 13.7705 22.3184 13.7705 22.4934 13.7705V6.89539C22.4934 5.60263 21.4438 4.54492 20.1609 4.54492H10.248V9.24585C10.248 9.53966 9.95645 9.83347 9.66489 9.83347H5V25.1115C5 26.4043 6.0496 27.462 7.33245 27.462H17.187C16.9538 27.2857 16.7205 27.0506 16.4873 26.8156C13.5134 23.8775 13.5134 19.0003 16.4873 16.0034ZM8.49867 12.1839H17.2453C17.5369 12.1839 17.8285 12.4777 17.8285 12.7716C17.8285 13.0654 17.5369 13.3592 17.2453 13.3592H8.49867C8.20712 13.3592 7.91556 13.0654 7.91556 12.7716C7.91556 12.4777 8.20712 12.1839 8.49867 12.1839ZM13.1636 23.9363H8.49867C8.20712 23.9363 7.91556 23.6425 7.91556 23.3487C7.91556 23.0548 8.20712 22.761 8.49867 22.761H13.1636C13.4551 22.761 13.7467 23.0548 13.7467 23.3487C13.7467 23.6425 13.5134 23.9363 13.1636 23.9363ZM13.1636 20.4106H8.49867C8.20712 20.4106 7.91556 20.1168 7.91556 19.823C7.91556 19.5291 8.20712 19.2353 8.49867 19.2353H13.1636C13.4551 19.2353 13.7467 19.5291 13.7467 19.823C13.7467 20.1168 13.5134 20.4106 13.1636 20.4106ZM13.1636 16.8849H8.49867C8.20712 16.8849 7.91556 16.5911 7.91556 16.2973C7.91556 16.0034 8.20712 15.7096 8.49867 15.7096H13.1636C13.4551 15.7096 13.7467 16.0034 13.7467 16.2973C13.7467 16.5911 13.5134 16.8849 13.1636 16.8849Z" fill="#B6B6B6"/>
<path d="M17.8828 20.5527V21.9913C17.8828 22.0385 17.892 22.0852 17.9098 22.1289C17.9276 22.1725 17.9538 22.2122 17.9867 22.2456C18.0197 22.279 18.0588 22.3054 18.1018 22.3235C18.1448 22.3416 18.191 22.3509 18.2376 22.3509H18.5062L18.3163 22.5435C18.2833 22.5769 18.2572 22.6165 18.2393 22.6602C18.2215 22.7038 18.2123 22.7506 18.2123 22.7978C18.2123 22.845 18.2215 22.8918 18.2393 22.9354C18.2572 22.9791 18.2833 23.0187 18.3163 23.0521L19.3196 24.0693C19.3525 24.1027 19.3917 24.1292 19.4347 24.1473C19.4777 24.1654 19.5239 24.1747 19.5704 24.1747C19.617 24.1747 19.6632 24.1654 19.7062 24.1473C19.7492 24.1292 19.7884 24.1027 19.8213 24.0693L20.0112 23.8767V24.1491C20.0112 24.1964 20.0204 24.2431 20.0382 24.2868C20.0561 24.3304 20.0822 24.37 20.1151 24.4034C20.1481 24.4368 20.1872 24.4633 20.2302 24.4814C20.2733 24.4995 20.3194 24.5088 20.366 24.5088H21.7849C21.8315 24.5088 21.8776 24.4995 21.9207 24.4814C21.9637 24.4633 22.0028 24.4368 22.0358 24.4034C22.0687 24.37 22.0948 24.3304 22.1127 24.2868C22.1305 24.2431 22.1397 24.1964 22.1397 24.1491V23.8767L22.3296 24.0693C22.3962 24.1368 22.4864 24.1747 22.5805 24.1747C22.6746 24.1747 22.7648 24.1368 22.8313 24.0693L23.8347 23.0521C23.8676 23.0187 23.8937 22.9791 23.9116 22.9354C23.9294 22.8918 23.9386 22.845 23.9386 22.7978C23.9386 22.7506 23.9294 22.7038 23.9116 22.6602C23.8937 22.6165 23.8676 22.5769 23.8347 22.5435L23.6447 22.3509H23.9134C23.9599 22.3509 24.0061 22.3416 24.0491 22.3235C24.0922 22.3054 24.1313 22.279 24.1642 22.2456C24.1971 22.2122 24.2233 22.1725 24.2411 22.1289C24.2589 22.0852 24.2681 22.0385 24.2681 21.9913V20.5527C24.2681 20.5054 24.2589 20.4587 24.2411 20.415C24.2233 20.3714 24.1971 20.3318 24.1642 20.2984C24.1313 20.265 24.0922 20.2385 24.0491 20.2204C24.0061 20.2023 23.9599 20.193 23.9134 20.193H23.6447L23.8347 20.0004C23.8676 19.967 23.8937 19.9274 23.9116 19.8837C23.9294 19.8401 23.9386 19.7933 23.9386 19.7461C23.9386 19.6989 23.9294 19.6521 23.9116 19.6085C23.8937 19.5648 23.8676 19.5252 23.8347 19.4918L22.8313 18.4746C22.7984 18.4412 22.7593 18.4147 22.7162 18.3966C22.6732 18.3785 22.6271 18.3692 22.5805 18.3692C22.5339 18.3692 22.4878 18.3785 22.4447 18.3966C22.4017 18.4147 22.3626 18.4412 22.3296 18.4746L22.1397 18.6672V18.3948C22.1397 18.3476 22.1305 18.3008 22.1127 18.2572C22.0948 18.2135 22.0687 18.1739 22.0358 18.1405C22.0028 18.1071 21.9637 18.0806 21.9207 18.0625C21.8776 18.0445 21.8315 18.0352 21.7849 18.0352H20.366C20.3194 18.0352 20.2733 18.0445 20.2302 18.0625C20.1872 18.0806 20.1481 18.1071 20.1151 18.1405C20.0822 18.1739 20.0561 18.2135 20.0382 18.2572C20.0204 18.3008 20.0112 18.3476 20.0112 18.3948V18.6672L19.8213 18.4746C19.7883 18.4412 19.7492 18.4147 19.7062 18.3966C19.6632 18.3785 19.617 18.3692 19.5704 18.3692C19.5239 18.3692 19.4777 18.3785 19.4347 18.3966C19.3916 18.4147 19.3525 18.4412 19.3196 18.4746L18.3163 19.4918C18.2833 19.5252 18.2572 19.5648 18.2394 19.6085C18.2215 19.6521 18.2124 19.6989 18.2124 19.7461C18.2124 19.7933 18.2215 19.8401 18.2394 19.8837C18.2572 19.9274 18.2833 19.967 18.3163 20.0004L18.5062 20.193H18.2376C18.191 20.193 18.1448 20.2023 18.1018 20.2204C18.0588 20.2385 18.0197 20.265 17.9867 20.2984C17.9538 20.3318 17.9276 20.3714 17.9098 20.415C17.892 20.4587 17.8828 20.5054 17.8828 20.5527ZM18.5923 20.9123H19.0699C19.1433 20.9123 19.2148 20.8893 19.2747 20.8463C19.3346 20.8034 19.3799 20.7427 19.4043 20.6726C19.425 20.6131 19.4488 20.5548 19.4755 20.4978C19.5072 20.4307 19.5175 20.3553 19.5051 20.2819C19.4927 20.2086 19.4582 20.141 19.4063 20.0884L19.0688 19.7461L19.5704 19.2375L19.908 19.5797C19.9599 19.6324 20.0266 19.6674 20.0989 19.6799C20.1713 19.6925 20.2457 19.682 20.3119 19.6499C20.3681 19.6228 20.4256 19.5987 20.4843 19.5777C20.5534 19.5529 20.6133 19.507 20.6556 19.4463C20.698 19.3856 20.7207 19.313 20.7207 19.2387V18.7544H21.4302V19.2387C21.4302 19.313 21.4529 19.3856 21.4953 19.4463C21.5376 19.507 21.5975 19.5529 21.6666 19.5777C21.7253 19.5987 21.7828 19.6228 21.839 19.6499C21.9052 19.682 21.9796 19.6925 22.052 19.6799C22.1243 19.6674 22.191 19.6324 22.2429 19.5797L22.5805 19.2375L23.0822 19.7461L22.7446 20.0884C22.6927 20.141 22.6582 20.2086 22.6458 20.2819C22.6334 20.3553 22.6437 20.4307 22.6754 20.4978C22.7021 20.5548 22.7259 20.6131 22.7466 20.6726C22.771 20.7427 22.8163 20.8034 22.8762 20.8463C22.9361 20.8893 23.0076 20.9123 23.081 20.9123H23.5586V21.6316H23.081C23.0076 21.6316 22.9361 21.6547 22.8762 21.6976C22.8163 21.7405 22.771 21.8012 22.7466 21.8713C22.7259 21.9308 22.7021 21.9891 22.6754 22.0461C22.6437 22.1132 22.6334 22.1886 22.6458 22.262C22.6582 22.3353 22.6927 22.4029 22.7446 22.4556L23.0822 22.7978L22.5805 23.3064L22.2429 22.9642C22.191 22.9116 22.1243 22.8766 22.052 22.864C21.9796 22.8514 21.9052 22.8619 21.839 22.894C21.7828 22.9212 21.7253 22.9452 21.6666 22.9662C21.5975 22.991 21.5376 23.0369 21.4953 23.0976C21.4529 23.1584 21.4302 23.2309 21.4302 23.3052V23.7895H20.7207V23.3052C20.7207 23.2309 20.698 23.1583 20.6556 23.0976C20.6133 23.0369 20.5534 22.991 20.4843 22.9662C20.4256 22.9452 20.3681 22.9212 20.3119 22.894C20.2457 22.8619 20.1713 22.8514 20.099 22.864C20.0266 22.8766 19.9599 22.9116 19.908 22.9642L19.5704 23.3064L19.0687 22.7978L19.4063 22.4556C19.4582 22.4029 19.4927 22.3353 19.5051 22.262C19.5175 22.1886 19.5072 22.1132 19.4755 22.0461C19.4488 21.9891 19.425 21.9308 19.4043 21.8713C19.3799 21.8012 19.3346 21.7405 19.2747 21.6976C19.2148 21.6547 19.1433 21.6316 19.0699 21.6316H18.5923V20.9123Z" fill="#B6B6B6"/>
<path d="M21.0643 22.3592C21.2748 22.3592 21.4805 22.2959 21.6556 22.1773C21.8306 22.0587 21.967 21.8902 22.0475 21.6931C22.1281 21.4959 22.1492 21.279 22.1081 21.0697C22.067 20.8604 21.9657 20.6681 21.8168 20.5172C21.668 20.3663 21.4783 20.2635 21.2719 20.2219C21.0655 20.1803 20.8515 20.2016 20.657 20.2833C20.4625 20.365 20.2963 20.5033 20.1794 20.6807C20.0624 20.8581 20 21.0667 20 21.2802C20.0003 21.5662 20.1125 21.8405 20.3121 22.0428C20.5116 22.2451 20.7821 22.3588 21.0643 22.3592ZM21.0643 20.9205C21.1345 20.9205 21.203 20.9416 21.2614 20.9811C21.3197 21.0206 21.3652 21.0768 21.3921 21.1425C21.4189 21.2082 21.4259 21.2806 21.4122 21.3503C21.3986 21.4201 21.3648 21.4842 21.3151 21.5345C21.2655 21.5848 21.2023 21.6191 21.1335 21.633C21.0647 21.6468 20.9933 21.6397 20.9285 21.6125C20.8637 21.5853 20.8082 21.5391 20.7693 21.48C20.7303 21.4208 20.7095 21.3513 20.7095 21.2802C20.7096 21.1848 20.747 21.0934 20.8135 21.0259C20.88 20.9585 20.9702 20.9206 21.0643 20.9205Z" fill="#B6B6B6"/>
<path d="M21.0739 16.2363C20.0928 16.2346 19.1334 16.5281 18.3171 17.0797C17.5008 17.6313 16.8643 18.4161 16.4883 19.3347L17.1431 19.6116C17.5167 18.7026 18.1857 17.9505 19.039 17.4801C19.8922 17.0096 20.8785 16.8491 21.8342 17.0252C22.7898 17.2012 23.6573 17.7033 24.2928 18.448C24.9283 19.1927 25.2935 20.1353 25.3278 21.1194L24.8721 20.6574L24.3704 21.166L25.4346 22.245C25.4675 22.2784 25.5067 22.3048 25.5497 22.3229C25.5927 22.341 25.6389 22.3503 25.6854 22.3503C25.732 22.3503 25.7782 22.341 25.8212 22.3229C25.8642 22.3048 25.9033 22.2784 25.9363 22.245L27.0005 21.166L26.4988 20.6574L26.0379 21.1247C25.9988 19.8158 25.4589 18.5737 24.5324 17.6613C23.6058 16.7489 22.3655 16.2379 21.0739 16.2363Z" fill="#B6B6B6"/>
<path d="M16.1358 21.7532C16.2391 22.8339 16.6842 23.8518 17.4046 24.6551C18.1251 25.4585 19.0824 26.0042 20.1337 26.211C21.185 26.4177 22.2741 26.2745 23.2386 25.8026C24.2031 25.3306 24.9913 24.5553 25.4857 23.5922L24.8565 23.2597C24.4377 24.0757 23.7728 24.7347 22.9587 25.1407C22.1446 25.5466 21.2239 25.6783 20.3308 25.5166C19.4377 25.3548 18.6189 24.9081 17.9938 24.2415C17.3687 23.5748 16.9699 22.7232 16.8557 21.8107L17.2808 22.2417L17.7824 21.7331L16.7182 20.6542C16.6517 20.5867 16.5615 20.5488 16.4674 20.5488C16.3733 20.5488 16.2831 20.5867 16.2166 20.6542L15.1523 21.7331L15.654 22.2417L16.1358 21.7532Z" fill="#B6B6B6"/>
</g>
<defs>
<clipPath id="clip0_1382_3550">
<rect width="32" height="32" fill="white"/>
</clipPath>
</defs>
</svg>
