<svg width="16" height="15" viewBox="0 0 16 15" fill="none" xmlns="http://www.w3.org/2000/svg">
<path d="M9.01408 4.28169C9.01408 4.03277 9.21587 3.83099 9.46479 3.83099H13.9718C14.2207 3.83099 14.4225 4.03277 14.4225 4.28169C14.4225 4.53061 14.2207 4.73239 13.9718 4.73239H9.46479C9.21587 4.73239 9.01408 4.53061 9.01408 4.28169Z" fill="#424242"/>
<path d="M8.11268 10.5915C8.11268 10.3426 8.31446 10.1408 8.56338 10.1408H13.0704C13.3193 10.1408 13.5211 10.3426 13.5211 10.5915C13.5211 10.8405 13.3193 11.0423 13.0704 11.0423H8.56338C8.31446 11.0423 8.11268 10.8405 8.11268 10.5915Z" fill="#424242"/>
<path d="M6.53521 7.43662C6.53521 7.1877 6.737 6.98592 6.98592 6.98592H11.7183C11.9672 6.98592 12.169 7.1877 12.169 7.43662C12.169 7.68554 11.9672 7.88732 11.7183 7.88732H6.98592C6.737 7.88732 6.53521 7.68554 6.53521 7.43662Z" fill="#424242"/>
<path fill-rule="evenodd" clip-rule="evenodd" d="M2.29588 3.43662C2.16548 3.73508 1.86766 3.94366 1.52113 3.94366C1.05441 3.94366 0.676056 3.56531 0.676056 3.09859C0.676056 2.63187 1.05441 2.25352 1.52113 2.25352C1.86766 2.25352 2.16548 2.4621 2.29588 2.76056H5.14843C5.5218 2.76056 5.82449 3.06324 5.82449 3.43662V4.28169H7.77465C7.96134 4.28169 8.11268 4.43303 8.11268 4.61972C8.11268 4.80641 7.96134 4.95775 7.77465 4.95775H5.82449C5.45111 4.95775 5.14843 4.65507 5.14843 4.28169V3.43662H2.29588ZM1.85915 3.09859C1.85915 3.28528 1.70781 3.43662 1.52113 3.43662C1.33444 3.43662 1.1831 3.28528 1.1831 3.09859C1.1831 2.9119 1.33444 2.76056 1.52113 2.76056C1.70781 2.76056 1.85915 2.9119 1.85915 3.09859Z" fill="#424242"/>
<path fill-rule="evenodd" clip-rule="evenodd" d="M1.61982 11.662C1.48942 11.3635 1.1916 11.1549 0.84507 11.1549C0.378351 11.1549 0 11.5333 0 12C0 12.4667 0.378351 12.8451 0.84507 12.8451C1.1916 12.8451 1.48942 12.6365 1.61982 12.338H4.47237C4.84575 12.338 5.14843 12.0353 5.14843 11.662V10.8169H7.09859C7.28528 10.8169 7.43662 10.6656 7.43662 10.4789C7.43662 10.2922 7.28528 10.1408 7.09859 10.1408H5.14843C4.77505 10.1408 4.47237 10.4435 4.47237 10.8169V11.662H1.61982ZM1.1831 12C1.1831 11.8133 1.03176 11.662 0.84507 11.662C0.658383 11.662 0.507042 11.8133 0.507042 12C0.507042 12.1867 0.658383 12.338 0.84507 12.338C1.03176 12.338 1.1831 12.1867 1.1831 12Z" fill="#424242"/>
<path fill-rule="evenodd" clip-rule="evenodd" d="M1.96298 7.93126C1.82542 8.17383 1.56092 8.33803 1.25719 8.33803C0.811782 8.33803 0.450704 7.9849 0.450704 7.5493C0.450704 7.11369 0.811782 6.76056 1.25719 6.76056C1.56091 6.76056 1.82542 6.92475 1.96297 7.16733C1.9977 7.15859 2.03422 7.15427 2.07183 7.15501L5.46405 7.22202C5.68671 7.22642 5.86357 7.40651 5.85907 7.62427C5.85457 7.84203 5.67043 8.01499 5.44776 8.01059L2.05554 7.94358C2.02361 7.94295 1.99262 7.93871 1.96298 7.93126ZM1.57979 7.5493C1.57979 7.72354 1.43536 7.86479 1.25719 7.86479C1.07903 7.86479 0.934598 7.72354 0.934598 7.5493C0.934598 7.37505 1.07903 7.2338 1.25719 7.2338C1.43536 7.2338 1.57979 7.37505 1.57979 7.5493Z" fill="#424242"/>
<path fill-rule="evenodd" clip-rule="evenodd" d="M7.66197 0.901408H14.1972C14.6476 0.901408 14.8947 0.903323 15.0662 0.926373L15.0727 0.927273L15.0736 0.933837C15.0967 1.10528 15.0986 1.35241 15.0986 1.80282V12.6197C15.0986 13.0701 15.0967 13.3173 15.0736 13.4887L15.0727 13.4953L15.0662 13.4962C14.8947 13.5192 14.6476 13.5211 14.1972 13.5211H7.66197C7.21156 13.5211 6.96443 13.5192 6.79299 13.4962L6.78643 13.4953L6.78553 13.4887C6.76248 13.3173 6.76056 13.0701 6.76056 12.6197V11.9297H5.85915V12.6197C5.85915 13.4696 5.85916 13.8945 6.12317 14.1585C6.38719 14.4225 6.81212 14.4225 7.66197 14.4225H14.1972C15.047 14.4225 15.472 14.4225 15.736 14.1585C16 13.8945 16 13.4696 16 12.6197V1.80282C16 0.952961 16 0.528033 15.736 0.264016C15.472 0 15.047 0 14.1972 0H7.66197C6.81212 0 6.38719 0 6.12317 0.264016C5.85916 0.528033 5.85915 0.952961 5.85915 1.80282V2.49273H6.76056V1.80282C6.76056 1.35241 6.76248 1.10528 6.78553 0.933837L6.78643 0.927273L6.79299 0.926373C6.96443 0.903323 7.21156 0.901408 7.66197 0.901408ZM6.80419 0.839154L6.80389 0.839971C6.80409 0.839411 6.80419 0.839146 6.80419 0.839154ZM6.69913 0.944738L6.69831 0.94504C6.6983 0.945037 6.69857 0.944932 6.69913 0.944738Z" fill="#424242"/>
</svg>
