<svg width="32" height="32" viewBox="0 0 32 32" fill="none" xmlns="http://www.w3.org/2000/svg">
<mask id="mask0_1390_3841" style="mask-type:alpha" maskUnits="userSpaceOnUse" x="0" y="0" width="32" height="32">
<rect width="32" height="32" fill="#D9D9D9"/>
</mask>
<g mask="url(#mask0_1390_3841)">
<path d="M32.1735 27.4001L26.3943 21.6123C27.7831 19.9425 28.4756 17.8009 28.3278 15.6328C28.18 13.4647 27.2034 11.4371 25.6009 9.97187C23.9985 8.50662 21.8937 7.71649 19.7244 7.76585C17.555 7.81522 15.4882 8.70028 13.9539 10.2369C12.4196 11.7735 11.5358 13.8434 11.4866 16.016C11.4373 18.1886 12.2262 20.2965 13.6893 21.9014C15.1523 23.5062 17.1769 24.4844 19.3417 24.6324C21.5065 24.7804 23.645 24.0868 25.3122 22.696L31.0914 28.4838L32.1735 27.4001ZM13.0422 16.2214C13.0422 14.8572 13.4462 13.5237 14.2029 12.3894C14.9597 11.2551 16.0354 10.371 17.2938 9.84892C18.5523 9.32686 19.9371 9.19026 21.2731 9.45641C22.6091 9.72255 23.8363 10.3795 24.7995 11.3441C25.7627 12.3088 26.4186 13.5378 26.6844 14.8758C26.9501 16.2138 26.8137 17.6007 26.2925 18.861C25.7712 20.1214 24.8884 21.1986 23.7558 21.9566C22.6232 22.7145 21.2916 23.119 19.9295 23.119C18.1035 23.117 16.3529 22.3896 15.0617 21.0965C13.7705 19.8034 13.0443 18.0502 13.0422 16.2214Z" fill="#B6B6B6"/>
<path d="M-0.00121392 6.20678L-0.00121414 11.2832C-0.00121419 12.4228 0.929794 13.3552 2.06769 13.3552L7.13652 13.3552C8.27442 13.3552 9.20543 12.4228 9.20543 11.2832L9.20543 9.7292L10.7571 9.7292L10.7571 16.5668L10.7571 23.4045L9.20543 23.4045L9.20543 21.8505C9.20543 20.7109 8.27442 19.7785 7.13652 19.7785L2.06769 19.7785C0.929794 19.7785 -0.00121455 20.7109 -0.0012146 21.8505L-0.00121482 26.9269C-0.00121487 28.0665 0.929794 28.9989 2.06769 28.9989L7.13652 28.9989C8.27442 28.9989 9.20543 28.0665 9.20543 26.9269L9.20543 25.4765L10.7571 25.4765C11.895 25.4765 12.826 24.5441 12.826 23.4045L12.826 17.6028L14.9984 17.6028L14.9984 19.1569C14.9984 20.2965 15.9294 21.2289 17.0673 21.2289L22.0327 21.2289C23.1706 21.2289 24.1016 20.2965 24.1016 19.1569L24.1016 14.0804C24.1016 12.9408 23.1706 12.0084 22.0327 12.0084L16.9638 12.0084C15.8259 12.0084 14.8949 12.9408 14.8949 14.0804L14.8949 15.5308L12.7226 15.5308L12.7226 9.7292C12.7226 8.58959 11.7916 7.65719 10.6537 7.65719L9.10198 7.65718L9.10198 6.20678C9.10198 5.06717 8.17097 4.13476 7.03307 4.13476L1.96425 4.13476C0.826349 4.13476 -0.00121387 5.06717 -0.00121392 6.20678Z" fill="#B6B6B6"/>
</g>
</svg>
