<svg width="16" height="16" viewBox="0 0 16 16" fill="none" xmlns="http://www.w3.org/2000/svg">
<path d="M15.2 6.66667H15.0707C14.9619 6.08351 14.7806 5.51626 14.5309 4.97813C14.6196 4.84673 14.6668 4.69182 14.6667 4.53333V3.46667C14.6667 3.25449 14.5824 3.05101 14.4324 2.90098C14.2823 2.75095 14.0788 2.66667 13.8667 2.66667H12.8285C12.0533 1.96275 11.1334 1.43703 10.1333 1.1264V0.8C10.1333 0.587827 10.049 0.384344 9.89902 0.234315C9.74899 0.0842855 9.54551 0 9.33333 0L6.66667 0C6.45449 0 6.25101 0.0842855 6.10098 0.234315C5.95095 0.384344 5.86667 0.587827 5.86667 0.8V1.1264C4.86669 1.43714 3.9468 1.96284 3.17147 2.66667H2.13333C1.92116 2.66667 1.71768 2.75095 1.56765 2.90098C1.41762 3.05101 1.33333 3.25449 1.33333 3.46667V4.53333C1.33322 4.6919 1.38049 4.84688 1.46907 4.9784C1.2194 5.5164 1.03816 6.08358 0.9296 6.66667H0.8C0.587827 6.66667 0.384344 6.75095 0.234315 6.90098C0.0842855 7.05101 0 7.25449 0 7.46667L0 8.53333C0 8.74551 0.0842855 8.94899 0.234315 9.09902C0.384344 9.24905 0.587827 9.33333 0.8 9.33333H0.9296C1.03816 9.91642 1.2194 10.4836 1.46907 11.0216C1.38049 11.1531 1.33322 11.3081 1.33333 11.4667V12.5333C1.33333 12.7455 1.41762 12.949 1.56765 13.099C1.71768 13.249 1.92116 13.3333 2.13333 13.3333H3.17147C3.9468 14.0372 4.86669 14.5629 5.86667 14.8736V15.2C5.86667 15.4122 5.95095 15.6157 6.10098 15.7657C6.25101 15.9157 6.45449 16 6.66667 16H9.33333C9.54551 16 9.74899 15.9157 9.89902 15.7657C10.049 15.6157 10.1333 15.4122 10.1333 15.2V14.8736C11.1334 14.563 12.0533 14.0372 12.8285 13.3333H13.8667C14.0788 13.3333 14.2823 13.249 14.4324 13.099C14.5824 12.949 14.6667 12.7455 14.6667 12.5333V11.4667C14.6668 11.3082 14.6196 11.1533 14.5309 11.0219C14.7806 10.4837 14.9619 9.91649 15.0707 9.33333H15.2C15.4122 9.33333 15.6157 9.24905 15.7657 9.09902C15.9157 8.94899 16 8.74551 16 8.53333V7.46667C16 7.25449 15.9157 7.05101 15.7657 6.90098C15.6157 6.75095 15.4122 6.66667 15.2 6.66667ZM12.5333 9.33333H13.4339C13.3202 9.7984 13.1463 10.2466 12.9165 10.6667H11.2C10.9878 10.6667 10.7843 10.751 10.6343 10.901C10.4843 11.051 10.4 11.2545 10.4 11.4667V12.5333C10.4 12.6961 10.45 12.8549 10.5432 12.9883C10.2316 13.1471 9.9056 13.2759 9.5696 13.3731C9.49333 13.3479 9.41365 13.3345 9.33333 13.3333H6.66667C6.58635 13.3345 6.50668 13.3479 6.4304 13.3731C6.0944 13.2759 5.7684 13.1471 5.4568 12.9883C5.54999 12.8549 5.59997 12.6961 5.6 12.5333V11.4667C5.6 11.2545 5.51572 11.051 5.36569 10.901C5.21566 10.751 5.01217 10.6667 4.8 10.6667H3.08347C2.85356 10.2467 2.67963 9.79846 2.56613 9.33333H3.46667C3.67884 9.33333 3.88232 9.24905 4.03235 9.09902C4.18238 8.94899 4.26667 8.74551 4.26667 8.53333V7.46667C4.26667 7.25449 4.18238 7.05101 4.03235 6.90098C3.88232 6.75095 3.67884 6.66667 3.46667 6.66667H2.56613C2.67963 6.20154 2.85356 5.75329 3.08347 5.33333H4.8C5.01217 5.33333 5.21566 5.24905 5.36569 5.09902C5.51572 4.94899 5.6 4.74551 5.6 4.53333V3.46667C5.59997 3.30394 5.54999 3.14514 5.4568 3.01173C5.7684 2.8529 6.0944 2.72405 6.4304 2.62693C6.50668 2.65212 6.58635 2.66552 6.66667 2.66667H9.33333C9.41365 2.66552 9.49333 2.65212 9.5696 2.62693C9.9056 2.72405 10.2316 2.8529 10.5432 3.01173C10.45 3.14514 10.4 3.30394 10.4 3.46667V4.53333C10.4 4.74551 10.4843 4.94899 10.6343 5.09902C10.7843 5.24905 10.9878 5.33333 11.2 5.33333H12.9165C13.1463 5.75337 13.3202 6.20161 13.4339 6.66667H12.5333C12.3212 6.66667 12.1177 6.75095 11.9676 6.90098C11.8176 7.05101 11.7333 7.25449 11.7333 7.46667V8.53333C11.7333 8.74551 11.8176 8.94899 11.9676 9.09902C12.1177 9.24905 12.3212 9.33333 12.5333 9.33333ZM13.9803 6.66667C13.8796 6.20572 13.7252 5.7582 13.52 5.33333H13.8667C13.9424 5.3323 14.0176 5.32026 14.0899 5.2976C14.2855 5.73657 14.4323 6.19567 14.5277 6.66667H13.9803ZM14.1333 3.46667V4.53333C14.1333 4.60406 14.1052 4.67189 14.0552 4.7219C14.0052 4.77191 13.9374 4.8 13.8667 4.8H11.2C11.1293 4.8 11.0614 4.77191 11.0114 4.7219C10.9614 4.67189 10.9333 4.60406 10.9333 4.53333V3.46667C10.9333 3.39594 10.9614 3.32811 11.0114 3.27811C11.0614 3.2281 11.1293 3.2 11.2 3.2H13.8667C13.9374 3.2 14.0052 3.2281 14.0552 3.27811C14.1052 3.32811 14.1333 3.39594 14.1333 3.46667ZM11.9933 2.66667H11.2C11.1489 2.66692 11.0979 2.6721 11.0477 2.68213C10.7291 2.49787 10.3944 2.34301 10.0477 2.21947C10.1033 2.1101 10.1326 1.98932 10.1333 1.86667V1.6848C10.8016 1.91115 11.4295 2.2426 11.9933 2.66667ZM6.4 0.8C6.4 0.729276 6.4281 0.661448 6.47811 0.611438C6.52811 0.561428 6.59594 0.533333 6.66667 0.533333H9.33333C9.40406 0.533333 9.47189 0.561428 9.5219 0.611438C9.57191 0.661448 9.6 0.729276 9.6 0.8V1.86667C9.6 1.93739 9.57191 2.00522 9.5219 2.05523C9.47189 2.10524 9.40406 2.13333 9.33333 2.13333H6.66667C6.59594 2.13333 6.52811 2.10524 6.47811 2.05523C6.4281 2.00522 6.4 1.93739 6.4 1.86667V0.8ZM5.86667 1.6848V1.86667C5.86743 1.98932 5.89674 2.1101 5.95227 2.21947C5.6056 2.34306 5.27089 2.49792 4.95227 2.68213C4.90213 2.67209 4.85114 2.66691 4.8 2.66667H4.00667C4.57057 2.24264 5.19844 1.91119 5.86667 1.6848ZM1.86667 3.46667C1.86667 3.39594 1.89476 3.32811 1.94477 3.27811C1.99478 3.2281 2.06261 3.2 2.13333 3.2H4.8C4.87072 3.2 4.93855 3.2281 4.98856 3.27811C5.03857 3.32811 5.06667 3.39594 5.06667 3.46667V4.53333C5.06667 4.60406 5.03857 4.67189 4.98856 4.7219C4.93855 4.77191 4.87072 4.8 4.8 4.8H2.13333C2.06261 4.8 1.99478 4.77191 1.94477 4.7219C1.89476 4.67189 1.86667 4.60406 1.86667 4.53333V3.46667ZM1.91013 5.2976C1.98241 5.32026 2.0576 5.3323 2.13333 5.33333H2.48C2.27438 5.75814 2.11945 6.20566 2.0184 6.66667H1.47227C1.56759 6.19564 1.71443 5.73652 1.91013 5.2976ZM0.533333 8.53333V7.46667C0.533333 7.39594 0.561428 7.32811 0.611438 7.27811C0.661448 7.2281 0.729276 7.2 0.8 7.2H3.46667C3.53739 7.2 3.60522 7.2281 3.65523 7.27811C3.70524 7.32811 3.73333 7.39594 3.73333 7.46667V8.53333C3.73333 8.60406 3.70524 8.67189 3.65523 8.7219C3.60522 8.77191 3.53739 8.8 3.46667 8.8H0.8C0.729276 8.8 0.661448 8.77191 0.611438 8.7219C0.561428 8.67189 0.533333 8.60406 0.533333 8.53333ZM2.01973 9.33333C2.12078 9.79434 2.27572 10.2419 2.48133 10.6667H2.13333C2.0576 10.6677 1.98241 10.6797 1.91013 10.7024C1.71443 10.2635 1.56759 9.80436 1.47227 9.33333H2.01973ZM1.86667 12.5333V11.4667C1.86667 11.3959 1.89476 11.3281 1.94477 11.2781C1.99478 11.2281 2.06261 11.2 2.13333 11.2H4.8C4.87072 11.2 4.93855 11.2281 4.98856 11.2781C5.03857 11.3281 5.06667 11.3959 5.06667 11.4667V12.5333C5.06667 12.6041 5.03857 12.6719 4.98856 12.7219C4.93855 12.7719 4.87072 12.8 4.8 12.8H2.13333C2.06261 12.8 1.99478 12.7719 1.94477 12.7219C1.89476 12.6719 1.86667 12.6041 1.86667 12.5333ZM4.00667 13.3333H4.8C4.85114 13.3331 4.90213 13.3279 4.95227 13.3179C5.27089 13.5021 5.6056 13.6569 5.95227 13.7805C5.89674 13.8899 5.86743 14.0107 5.86667 14.1333V14.3152C5.19844 14.0888 4.57057 13.7574 4.00667 13.3333ZM9.6 15.2C9.6 15.2707 9.57191 15.3386 9.5219 15.3886C9.47189 15.4386 9.40406 15.4667 9.33333 15.4667H6.66667C6.59594 15.4667 6.52811 15.4386 6.47811 15.3886C6.4281 15.3386 6.4 15.2707 6.4 15.2V14.1333C6.4 14.0626 6.4281 13.9948 6.47811 13.9448C6.52811 13.8948 6.59594 13.8667 6.66667 13.8667H9.33333C9.40406 13.8667 9.47189 13.8948 9.5219 13.9448C9.57191 13.9948 9.6 14.0626 9.6 14.1333V15.2ZM10.1333 14.3152V14.1333C10.1326 14.0107 10.1033 13.8899 10.0477 13.7805C10.3944 13.6569 10.7291 13.5021 11.0477 13.3179C11.0979 13.3279 11.1489 13.3331 11.2 13.3333H11.9933C11.4295 13.7574 10.8016 14.0889 10.1333 14.3152ZM14.1333 12.5333C14.1333 12.6041 14.1052 12.6719 14.0552 12.7219C14.0052 12.7719 13.9374 12.8 13.8667 12.8H11.2C11.1293 12.8 11.0614 12.7719 11.0114 12.7219C10.9614 12.6719 10.9333 12.6041 10.9333 12.5333V11.4667C10.9333 11.3959 10.9614 11.3281 11.0114 11.2781C11.0614 11.2281 11.1293 11.2 11.2 11.2H13.8667C13.9374 11.2 14.0052 11.2281 14.0552 11.2781C14.1052 11.3281 14.1333 11.3959 14.1333 11.4667V12.5333ZM14.0899 10.7024C14.0176 10.6797 13.9424 10.6677 13.8667 10.6667H13.52C13.7256 10.2419 13.8805 9.79434 13.9816 9.33333H14.5291C14.4332 9.80438 14.2859 10.2635 14.0899 10.7024ZM15.4667 8.53333C15.4667 8.60406 15.4386 8.67189 15.3886 8.7219C15.3386 8.77191 15.2707 8.8 15.2 8.8H12.5333C12.4626 8.8 12.3948 8.77191 12.3448 8.7219C12.2948 8.67189 12.2667 8.60406 12.2667 8.53333V7.46667C12.2667 7.39594 12.2948 7.32811 12.3448 7.27811C12.3948 7.2281 12.4626 7.2 12.5333 7.2H15.2C15.2707 7.2 15.3386 7.2281 15.3886 7.27811C15.4386 7.32811 15.4667 7.39594 15.4667 7.46667V8.53333Z" fill="#424242"/>
<path d="M10.9136 7.35979L10.5642 7.22033C10.5136 7.05359 10.4466 6.89227 10.3642 6.73873L10.5117 6.39206C10.5446 6.31849 10.5561 6.23717 10.5451 6.15735C10.534 6.07754 10.5007 6.00243 10.449 5.94059C10.3909 5.87046 10.3285 5.80326 10.2624 5.73473C10.197 5.67046 10.129 5.60806 10.0632 5.55313C10.0014 5.50066 9.9262 5.46662 9.84604 5.45488C9.76588 5.44314 9.68404 5.45417 9.60985 5.48673L9.26318 5.63473C9.10964 5.55233 8.94832 5.48534 8.78158 5.43473L8.63998 5.08513C8.61028 5.01103 8.5609 4.94645 8.49717 4.89837C8.43344 4.85029 8.35779 4.82054 8.27838 4.81233C8.09473 4.79433 7.90976 4.79433 7.72612 4.81233C7.64585 4.82005 7.56925 4.84967 7.50468 4.89797C7.44011 4.94627 7.39006 5.01138 7.35998 5.08619L7.22025 5.43553C7.05355 5.48624 6.89224 5.55323 6.73865 5.63553L6.39198 5.48779C6.31833 5.45516 6.23701 5.44378 6.15723 5.45495C6.07744 5.46612 6.00238 5.49939 5.94052 5.55099C5.87092 5.60886 5.80398 5.67099 5.73412 5.73766C5.67038 5.80299 5.60798 5.87099 5.55305 5.93686C5.50063 5.99862 5.46663 6.07388 5.45494 6.15404C5.44325 6.2342 5.45433 6.31603 5.48692 6.39019L5.63465 6.73686C5.55241 6.89044 5.48551 7.05176 5.43492 7.21846L5.08478 7.35819C5.01072 7.38798 4.94616 7.43738 4.89805 7.50109C4.84994 7.56479 4.8201 7.6404 4.81172 7.71979C4.79518 7.90378 4.79518 8.08888 4.81172 8.27286C4.81945 8.35333 4.84916 8.43012 4.89761 8.49483C4.94605 8.55955 5.01136 8.6097 5.08638 8.63979L5.43572 8.77926C5.48631 8.94597 5.55321 9.10728 5.63545 9.26086L5.48798 9.60753C5.45527 9.6811 5.44383 9.76237 5.45495 9.84212C5.46607 9.92187 5.49932 9.99691 5.55092 10.0587C5.60878 10.1286 5.67118 10.1958 5.73918 10.2651C5.80478 10.3291 5.87252 10.3913 5.93812 10.4462C5.99988 10.4986 6.07512 10.5326 6.15527 10.5443C6.23542 10.5561 6.31725 10.5451 6.39145 10.5126L6.73812 10.3646C6.8917 10.4469 7.05301 10.5139 7.21972 10.5646L7.35998 10.9145C7.38978 10.9885 7.43922 11.0531 7.50299 11.1012C7.56675 11.1492 7.64242 11.179 7.72185 11.1873C7.81465 11.1963 7.90692 11.1998 7.99972 11.1998C8.09252 11.1998 8.18478 11.1963 8.27412 11.1875C8.35436 11.1797 8.43093 11.1501 8.49545 11.1017C8.55997 11.0534 8.60997 10.9882 8.63998 10.9134L8.77945 10.5641C8.94619 10.5135 9.10751 10.4465 9.26105 10.3641L9.60772 10.5115C9.6813 10.5444 9.76261 10.5559 9.84242 10.5448C9.92223 10.5337 9.99733 10.5005 10.0592 10.4489C10.1293 10.3907 10.1965 10.3283 10.265 10.2622C10.3293 10.1969 10.3917 10.1289 10.4466 10.063C10.4992 10.0013 10.5332 9.92604 10.545 9.84587C10.5567 9.7657 10.5457 9.68383 10.513 9.60966L10.365 9.26299C10.4474 9.10945 10.5144 8.94813 10.565 8.78139L10.9146 8.63979C10.9887 8.61009 11.0533 8.56071 11.1014 8.49698C11.1495 8.43325 11.1792 8.3576 11.1874 8.27819C11.1965 8.18646 11.2 8.09259 11.2 7.99979C11.2 7.90699 11.1965 7.81313 11.1877 7.72539C11.1799 7.64519 11.1502 7.56869 11.1018 7.50422C11.0535 7.43975 10.9884 7.38979 10.9136 7.35979ZM10.6616 8.16619L10.2434 8.33313C10.2041 8.34884 10.1691 8.3737 10.1412 8.40565C10.1134 8.4376 10.0936 8.47573 10.0834 8.51686C10.0323 8.72447 9.9502 8.92322 9.83998 9.10646C9.8181 9.14266 9.80513 9.18354 9.80217 9.22573C9.7992 9.26793 9.80631 9.31022 9.82292 9.34913L9.99998 9.76379C9.96318 9.80566 9.92532 9.84619 9.88825 9.88379C9.85118 9.92139 9.80825 9.96086 9.76505 9.99873L9.35038 9.82166C9.31148 9.80506 9.26918 9.79794 9.22699 9.80091C9.18479 9.80388 9.14391 9.81684 9.10772 9.83873C8.92454 9.94931 8.72579 10.0317 8.51812 10.0833C8.47698 10.0934 8.43886 10.1132 8.40691 10.1411C8.37496 10.1689 8.35009 10.2039 8.33438 10.2433L8.16745 10.6614C8.05663 10.6686 7.94547 10.6686 7.83465 10.6614L7.66772 10.2433C7.652 10.2039 7.62714 10.1689 7.59519 10.1411C7.56324 10.1132 7.52512 10.0934 7.48398 10.0833C7.27622 10.0317 7.07738 9.94932 6.89412 9.83873C6.85795 9.81688 6.81712 9.80395 6.77497 9.80098C6.73283 9.79801 6.69058 9.8051 6.65172 9.82166L6.23705 9.99873C6.19492 9.96193 6.15465 9.92406 6.11732 9.88753C6.07998 9.85099 6.03998 9.80753 6.00185 9.76379L6.17892 9.34913C6.19556 9.31025 6.20272 9.26796 6.1998 9.22577C6.19688 9.18357 6.18396 9.14268 6.16212 9.10646C6.05144 8.92333 5.969 8.72457 5.91758 8.51686C5.90743 8.47573 5.88762 8.4376 5.85979 8.40565C5.83197 8.3737 5.79693 8.34884 5.75758 8.33313L5.33945 8.16619C5.33465 8.11073 5.33332 8.05526 5.33332 7.99979C5.33332 7.94433 5.33332 7.88966 5.33838 7.83339L5.75652 7.66646C5.79586 7.65075 5.8309 7.62589 5.85873 7.59393C5.88655 7.56198 5.90636 7.52386 5.91652 7.48273C5.9676 7.27508 6.04968 7.07632 6.15998 6.89313C6.18183 6.85691 6.19474 6.81602 6.19766 6.77382C6.20058 6.73163 6.19343 6.68934 6.17678 6.65046L5.99998 6.23579C6.03705 6.19366 6.07492 6.15339 6.11118 6.11633C6.14745 6.07926 6.19118 6.03873 6.23518 6.00086L6.64985 6.17793C6.68872 6.19449 6.73096 6.20158 6.77311 6.19861C6.81525 6.19564 6.85609 6.1827 6.89225 6.16086C7.07552 6.05027 7.27436 5.96784 7.48212 5.91633C7.52325 5.90617 7.56137 5.88636 7.59332 5.85854C7.62527 5.83071 7.65014 5.79567 7.66585 5.75633L7.83278 5.33819C7.94359 5.33073 8.05477 5.33073 8.16558 5.33819L8.33252 5.75633C8.34823 5.79567 8.37309 5.83071 8.40504 5.85854C8.43699 5.88636 8.47512 5.90617 8.51625 5.91633C8.72392 5.96784 8.92267 6.05028 9.10585 6.16086C9.14205 6.18275 9.18293 6.19571 9.22512 6.19868C9.26732 6.20165 9.30961 6.19453 9.34852 6.17793L9.76318 6.00086C9.80505 6.03766 9.84558 6.07553 9.88318 6.11259C9.92078 6.14966 9.96025 6.19259 9.99812 6.23579L9.82105 6.65046C9.80444 6.68936 9.79733 6.73166 9.8003 6.77385C9.80327 6.81605 9.81623 6.85693 9.83812 6.89313C9.9487 7.0763 10.0311 7.27505 10.0826 7.48273C10.0928 7.52386 10.1126 7.56198 10.1404 7.59393C10.1683 7.62589 10.2033 7.65075 10.2426 7.66646L10.6608 7.83339C10.6645 7.88886 10.6658 7.94433 10.6658 7.99979C10.6658 8.05526 10.6653 8.10993 10.6616 8.16619Z" fill="#424242"/>
</svg>
