<svg width="32" height="32" viewBox="0 0 32 32" fill="none" xmlns="http://www.w3.org/2000/svg">
<g clip-path="url(#clip0_1253_4425)">
<path d="M23.9987 2.66602C24.7059 2.66602 25.3842 2.94697 25.8843 3.44706C26.3844 3.94716 26.6654 4.62544 26.6654 5.33268V26.666C26.6654 27.3733 26.3844 28.0515 25.8843 28.5516C25.3842 29.0517 24.7059 29.3327 23.9987 29.3327H7.9987C7.29145 29.3327 6.61318 29.0517 6.11308 28.5516C5.61298 28.0515 5.33203 27.3733 5.33203 26.666V5.33268C5.33203 4.62544 5.61298 3.94716 6.11308 3.44706C6.61318 2.94697 7.29145 2.66602 7.9987 2.66602H23.9987ZM15.9987 17.3327H11.9987C11.6451 17.3327 11.3059 17.4732 11.0559 17.7232C10.8058 17.9733 10.6654 18.3124 10.6654 18.666C10.6654 19.0196 10.8058 19.3588 11.0559 19.6088C11.3059 19.8589 11.6451 19.9993 11.9987 19.9993H15.9987C16.3523 19.9993 16.6915 19.8589 16.9415 19.6088C17.1916 19.3588 17.332 19.0196 17.332 18.666C17.332 18.3124 17.1916 17.9733 16.9415 17.7232C16.6915 17.4732 16.3523 17.3327 15.9987 17.3327ZM19.9987 10.666H11.9987C11.6589 10.6664 11.332 10.7965 11.0849 11.0298C10.8378 11.2631 10.6891 11.582 10.6691 11.9212C10.6492 12.2605 10.7596 12.5945 10.9777 12.8551C11.1958 13.1157 11.5052 13.2832 11.8427 13.3233L11.9987 13.3327H19.9987C20.3385 13.3323 20.6654 13.2022 20.9125 12.9689C21.1596 12.7356 21.3083 12.4167 21.3283 12.0775C21.3482 11.7382 21.2378 11.4042 21.0197 11.1436C20.8016 10.883 20.4922 10.7155 20.1547 10.6753L19.9987 10.666Z" fill="#B6B6B6"/>
</g>
<defs>
<clipPath id="clip0_1253_4425">
<rect width="32" height="32" fill="white"/>
</clipPath>
</defs>
</svg>
