<svg width="21" height="12" viewBox="0 0 21 12" fill="none" xmlns="http://www.w3.org/2000/svg">
<path d="M8.26657 0.500007H7.76657V6.92043e-06H8.26657H12.2999C12.621 6.92043e-06 12.8904 0.192007 13.108 0.576006C13.3256 0.960006 13.434 1.43467 13.4332 2V4C13.4332 4.56667 13.3244 5.042 13.1068 5.426C13.0534 5.52032 12.9968 5.60301 12.9372 5.67409C12.7534 5.56466 12.5427 5.50071 12.3039 5.50001M8.26657 0.500007V11.5H12.2999H12.302C12.3756 11.5003 12.5053 11.4734 12.6718 11.1795C12.8364 10.8891 12.9332 10.5042 12.9332 9.99999V8V7.99933C12.9339 7.49681 12.8375 7.11282 12.673 6.82251C12.5066 6.5289 12.3759 6.5 12.2999 6.5V6L12.302 5.5C12.3026 5.50001 12.3033 5.50001 12.3039 5.50001M8.26657 0.500007H12.2999C12.3759 0.500007 12.5066 0.528906 12.673 0.822513C12.8375 1.11282 12.9339 1.49682 12.9332 1.99934V2V4C12.9332 4.50425 12.8364 4.88909 12.6718 5.17949C12.5067 5.47081 12.3779 5.49982 12.3039 5.50001M8.26657 0.500007L12.9374 6.32672C12.752 6.43707 12.5393 6.501 12.2978 6.5L12.2999 5.5C12.3012 5.5 12.3026 5.5 12.3039 5.50001M15.6332 10.0007V9.99999V2C15.6332 1.49576 15.7301 1.11091 15.8946 0.820512C16.0612 0.526642 16.1908 0.499696 16.2645 0.500007H16.2666H19.6666C19.7425 0.500007 19.8732 0.528905 20.0396 0.822513C20.2041 1.11282 20.3006 1.49682 20.2999 1.99934V2V3.5H19.5999V3V2.5H19.0999H16.8332H16.3332V3V9V9.5H16.8332H19.0999H19.5999V9V8.5H20.2999V9.99999C20.2999 10.5042 20.203 10.8891 20.0385 11.1795C19.872 11.4734 19.7423 11.5003 19.6686 11.5H19.6666H16.2666C16.1906 11.5 16.0599 11.4711 15.8935 11.1775C15.729 10.8872 15.6326 10.5032 15.6332 10.0007ZM8.96657 4.5V5H9.46657H11.7332H12.2332V4.5V3V2.5H11.7332H9.46657H8.96657V3V4.5ZM8.96657 9V9.5H9.46657H11.7332H12.2332V9V7.5V7H11.7332H9.46657H8.96657V7.5V9ZM5.56657 2V11.5H4.86657V9V8.5H4.36657H2.0999H1.5999V9V11.5H0.899902V2C0.899902 1.49576 0.996753 1.11091 1.16131 0.820512C1.32784 0.526643 1.45749 0.499696 1.53115 0.500003V0.500007H1.53324H4.93323C5.00921 0.500007 5.13991 0.528905 5.30629 0.822513C5.4708 1.11282 5.56724 1.49682 5.56657 1.99934V2ZM1.53324 6.92043e-06H4.93323C5.25435 6.92043e-06 5.5237 0.192007 5.7413 0.576006C5.9589 0.960006 6.06732 1.43467 6.06657 2L1.53324 6.92043e-06ZM1.5999 6V6.5H2.0999H4.36657H4.86657V6V3V2.5H4.36657H2.0999H1.5999V3V6Z" fill="#043365" stroke="#043365"/>
</svg>
