<svg width="118" height="118" viewBox="0 0 118 118" fill="none" xmlns="http://www.w3.org/2000/svg">
<circle cx="59" cy="59" r="59" fill="#DEE3EB"/>
<path d="M70.4997 28.333C66.433 28.333 62.5329 29.9485 59.6574 32.824C56.7818 35.6996 55.1663 39.5997 55.1663 43.6663C55.1663 47.733 56.7818 51.6331 59.6574 54.5086C62.5329 57.3842 66.433 58.9997 70.4997 58.9997C74.5663 58.9997 78.4664 57.3842 81.342 54.5086C84.2175 51.6331 85.833 47.733 85.833 43.6663C85.833 39.5997 84.2175 35.6996 81.342 32.824C78.4664 29.9485 74.5663 28.333 70.4997 28.333ZM70.4997 35.6163C71.5568 35.6163 72.6036 35.8246 73.5803 36.2291C74.5569 36.6337 75.4444 37.2266 76.1919 37.9741C76.9394 38.7216 77.5324 39.6091 77.9369 40.5857C78.3414 41.5624 78.5497 42.6092 78.5497 43.6663C78.5497 44.7235 78.3414 45.7703 77.9369 46.7469C77.5324 47.7236 76.9394 48.611 76.1919 49.3586C75.4444 50.1061 74.5569 50.699 73.5803 51.1036C72.6036 51.5081 71.5568 51.7163 70.4997 51.7163C69.4425 51.7163 68.3957 51.5081 67.4191 51.1036C66.4424 50.699 65.555 50.1061 64.8075 49.3586C64.0599 48.611 63.467 47.7236 63.0624 46.7469C62.6579 45.7703 62.4497 44.7235 62.4497 43.6663C62.4497 41.5313 63.2978 39.4838 64.8075 37.9741C66.3171 36.4645 68.3647 35.6163 70.4997 35.6163ZM28.333 39.833V51.333H16.833V58.9997H28.333V70.4997H35.9997V58.9997H47.4997V51.333H35.9997V39.833H28.333ZM70.4997 62.833C60.2647 62.833 39.833 67.9313 39.833 78.1663V89.6663H101.166V78.1663C101.166 67.9313 80.7347 62.833 70.4997 62.833ZM70.4997 70.1163C81.8847 70.1163 93.883 75.713 93.883 78.1663V82.383H47.1163V78.1663C47.1163 75.713 58.9997 70.1163 70.4997 70.1163Z" fill="#42474E"/>
</svg>
