<svg width="21" height="20" viewBox="0 0 21 20" fill="none" xmlns="http://www.w3.org/2000/svg">
<path fill-rule="evenodd" clip-rule="evenodd" d="M8.53149 0.75C6.51024 0.75 4.64405 1.11249 3.25509 1.72969C2.56155 2.03787 1.95382 2.42429 1.50934 2.89135C1.06115 3.36229 0.75 3.94945 0.75 4.62511V8.53149V12.4379C0.75 13.1135 1.06115 13.7007 1.50934 14.1716C1.95382 14.6387 2.56155 15.0251 3.25508 15.3333C3.7723 15.5631 4.35568 15.7576 4.9886 15.9112C4.70311 15.4901 4.518 14.9979 4.518 14.4468V14.2161C4.28584 14.1376 4.06739 14.0528 3.8642 13.9625C3.28523 13.7053 2.86313 13.4183 2.59592 13.1375C2.33241 12.8607 2.25 12.6255 2.25 12.4379V10.8799C2.55429 11.0838 2.89299 11.266 3.25509 11.4269C3.64144 11.5986 4.06473 11.7506 4.518 11.8805V10.5405V10.3098C4.28584 10.2313 4.06739 10.1464 3.8642 10.0561C3.28523 9.79888 2.86313 9.51194 2.59592 9.23116C2.33241 8.95427 2.25 8.71915 2.25 8.53149V6.9735C2.55429 7.17739 2.89299 7.35962 3.25509 7.52052C3.64144 7.6922 4.06473 7.84418 4.518 7.97412V6.63408C4.518 6.55721 4.5216 6.48149 4.52857 6.40694C4.29247 6.32745 4.07047 6.24142 3.8642 6.14976C3.28523 5.89249 2.86313 5.60555 2.59592 5.32478C2.33241 5.04789 2.25 4.81276 2.25 4.62511C2.25 4.43745 2.33241 4.20232 2.59592 3.92543C2.86313 3.64466 3.28523 3.35772 3.8642 3.10045C5.02024 2.58675 6.66979 2.25 8.53149 2.25C9.5864 2.25 10.5732 2.35812 11.4407 2.5453C11.8041 2.52129 12.1743 2.50898 12.5495 2.50898C13.5564 2.50898 14.5281 2.59765 15.4255 2.76322C14.9955 2.35315 14.437 2.00923 13.8079 1.72969C12.4189 1.11249 10.5527 0.75 8.53149 0.75ZM16.313 5.03717C15.8597 4.89425 15.355 4.77498 14.8101 4.68615C14.7935 4.8629 14.7027 5.07714 14.4671 5.32478C14.1998 5.60555 13.7777 5.89249 13.1988 6.14976C12.0427 6.66346 10.3932 7.00021 8.53149 7.00021C7.8484 7.00021 7.19388 6.95488 6.58181 6.8721C6.62333 6.95454 6.68998 7.05104 6.79502 7.16141C7.03268 7.41114 7.42384 7.6815 7.98371 7.93028C8.45925 8.14159 9.02469 8.32319 9.65885 8.46209C11.2412 8.35408 12.6815 8.02106 13.8079 7.52052C14.17 7.35962 14.5087 7.1774 14.813 6.9735V8.53149C14.813 8.54792 14.8123 8.56471 14.811 8.58187C15.3556 8.49306 15.8599 8.37384 16.313 8.231V5.03717ZM16.313 10.31C15.1843 10.6 13.8985 10.7592 12.5495 10.7592C12.0343 10.7592 11.5283 10.736 11.0367 10.6911C10.2714 10.8289 9.42593 10.9066 8.53149 10.9066C7.8484 10.9066 7.19388 10.8613 6.58181 10.7785C6.62333 10.8609 6.68998 10.9574 6.79502 11.0678C7.03268 11.3175 7.42384 11.5879 7.98371 11.8367C8.45925 12.048 9.02469 12.2296 9.65886 12.3685C11.2412 12.2605 12.6815 11.9274 13.8079 11.4269C14.17 11.266 14.5087 11.0838 14.813 10.8799V12.4379C14.813 12.4543 14.8123 12.4711 14.811 12.4882C15.3556 12.3994 15.8599 12.2802 16.313 12.1374V10.31ZM15.2719 14.4388C14.4176 14.5867 13.4992 14.6656 12.5495 14.6656C12.0343 14.6656 11.5283 14.6424 11.0367 14.5975C10.2714 14.7352 9.42593 14.813 8.53149 14.813C7.8484 14.813 7.19388 14.7676 6.58181 14.6849C6.62333 14.7673 6.68998 14.8638 6.79502 14.9742C7.03268 15.2239 7.42384 15.4943 7.98371 15.743C8.45925 15.9544 9.02469 16.136 9.65886 16.2749C11.2412 16.1668 12.6815 15.8338 13.8079 15.3333C14.3645 15.0859 14.8659 14.7882 15.2719 14.4388Z" fill="#043365"/>
<path d="M19.581 7.52711C19.581 9.27135 16.4003 10.6841 12.4777 10.6841C8.55515 10.6841 5.37448 9.27135 5.37448 7.52711M19.581 7.52711C19.581 5.78287 16.4003 4.37012 12.4777 4.37012C8.55515 4.37012 5.37448 5.78287 5.37448 7.52711M19.581 7.52711V11.4734M5.37448 7.52711V11.4734M19.581 11.4734C19.581 13.2176 16.4003 14.6304 12.4777 14.6304C8.55515 14.6304 5.37448 13.2176 5.37448 11.4734M19.581 11.4734V15.4196C19.581 17.1638 16.4003 18.5766 12.4777 18.5766C8.55515 18.5766 5.37448 17.1638 5.37448 15.4196V11.4734" stroke="#043365" stroke-width="1.5" stroke-linecap="round" stroke-linejoin="round"/>
</svg>
