<svg width="12" height="12" viewBox="0 0 12 12" fill="none" xmlns="http://www.w3.org/2000/svg">
<path d="M2 3C2 2.73478 2.10536 2.48043 2.29289 2.29289C2.48043 2.10536 2.73478 2 3 2H4.5C4.76522 2 5.01957 2.10536 5.20711 2.29289C5.39464 2.48043 5.5 2.73478 5.5 3V4.5C5.5 4.76522 5.39464 5.01957 5.20711 5.20711C5.01957 5.39464 4.76522 5.5 4.5 5.5H3C2.73478 5.5 2.48043 5.39464 2.29289 5.20711C2.10536 5.01957 2 4.76522 2 4.5V3ZM4.5 3H3V4.5H4.5V3ZM3 6.5C2.73478 6.5 2.48043 6.60536 2.29289 6.79289C2.10536 6.98043 2 7.23478 2 7.5V9C2 9.26522 2.10536 9.51957 2.29289 9.70711C2.48043 9.89464 2.73478 10 3 10H4.5C4.76522 10 5.01957 9.89464 5.20711 9.70711C5.39464 9.51957 5.5 9.26522 5.5 9V7.5C5.5 7.23478 5.39464 6.98043 5.20711 6.79289C5.01957 6.60536 4.76522 6.5 4.5 6.5H3ZM3 7.5H4.5V9H3V7.5ZM6.5 3C6.5 2.73478 6.60536 2.48043 6.79289 2.29289C6.98043 2.10536 7.23478 2 7.5 2H9C9.26522 2 9.51957 2.10536 9.70711 2.29289C9.89464 2.48043 10 2.73478 10 3V4.5C10 4.76522 9.89464 5.01957 9.70711 5.20711C9.51957 5.39464 9.26522 5.5 9 5.5H7.5C7.23478 5.5 6.98043 5.39464 6.79289 5.20711C6.60536 5.01957 6.5 4.76522 6.5 4.5V3ZM9 3H7.5V4.5H9V3ZM7.5 6.5C7.23478 6.5 6.98043 6.60536 6.79289 6.79289C6.60536 6.98043 6.5 7.23478 6.5 7.5V9C6.5 9.26522 6.60536 9.51957 6.79289 9.70711C6.98043 9.89464 7.23478 10 7.5 10H9C9.26522 10 9.51957 9.89464 9.70711 9.70711C9.89464 9.51957 10 9.26522 10 9V7.5C10 7.23478 9.89464 6.98043 9.70711 6.79289C9.51957 6.60536 9.26522 6.5 9 6.5H7.5ZM7.5 7.5H9V9H7.5V7.5ZM0 2.5C0 1.83696 0.263392 1.20107 0.732233 0.732233C1.20107 0.263392 1.83696 0 2.5 0H9.5C10.163 0 10.7989 0.263392 11.2678 0.732233C11.7366 1.20107 12 1.83696 12 2.5V9.5C12 10.163 11.7366 10.7989 11.2678 11.2678C10.7989 11.7366 10.163 12 9.5 12H2.5C1.83696 12 1.20107 11.7366 0.732233 11.2678C0.263392 10.7989 0 10.163 0 9.5V2.5ZM2.5 1C2.10218 1 1.72064 1.15804 1.43934 1.43934C1.15804 1.72064 1 2.10218 1 2.5V9.5C1 9.89782 1.15804 10.2794 1.43934 10.5607C1.72064 10.842 2.10218 11 2.5 11H9.5C9.89782 11 10.2794 10.842 10.5607 10.5607C10.842 10.2794 11 9.89782 11 9.5V2.5C11 2.10218 10.842 1.72064 10.5607 1.43934C10.2794 1.15804 9.89782 1 9.5 1H2.5Z" fill="#72777F"/>
</svg>
