<svg width="16" height="16" viewBox="0 0 16 16" fill="none" xmlns="http://www.w3.org/2000/svg">
<path d="M3.33333 14C2.96667 14 2.65267 13.8693 2.39133 13.608C2.13 13.3467 1.99956 13.0329 2 12.6667V3.33333C2 2.96667 2.13067 2.65267 2.392 2.39133C2.65333 2.13 2.96711 1.99956 3.33333 2H12.6667C13.0333 2 13.3473 2.13067 13.6087 2.392C13.87 2.65333 14.0004 2.96711 14 3.33333V12.6667C14 13.0333 13.8693 13.3473 13.608 13.6087C13.3467 13.87 13.0329 14.0004 12.6667 14H3.33333ZM3.33333 5.55H12.6667V3.33333H3.33333V5.55ZM3.33333 9.11667H12.6667V6.88333H3.33333V9.11667ZM3.33333 12.6667H12.6667V10.45H3.33333V12.6667ZM4 5.1V3.76667H5.33333V5.1H4ZM4 8.66667V7.33333H5.33333V8.66667H4ZM4 12.2333V10.9H5.33333V12.2333H4Z" fill="#72777F"/>
</svg>
