<svg width="24" height="24" viewBox="0 0 24 24" fill="none" xmlns="http://www.w3.org/2000/svg">
<circle cx="12" cy="12" r="12" fill="#DEEBFF"/>
<path d="M7.33333 18C6.96667 18 6.65267 17.8693 6.39133 17.608C6.13 17.3467 5.99956 17.0329 6 16.6667V7.33333C6 6.96667 6.13067 6.65267 6.392 6.39133C6.65333 6.13 6.96711 5.99956 7.33333 6H16.6667C17.0333 6 17.3473 6.13067 17.6087 6.392C17.87 6.65333 18.0004 6.96711 18 7.33333V16.6667C18 17.0333 17.8693 17.3473 17.608 17.6087C17.3467 17.87 17.0329 18.0004 16.6667 18H7.33333ZM7.33333 9.55H16.6667V7.33333H7.33333V9.55ZM7.33333 13.1167H16.6667V10.8833H7.33333V13.1167ZM7.33333 16.6667H16.6667V14.45H7.33333V16.6667ZM8 9.1V7.76667H9.33333V9.1H8ZM8 12.6667V11.3333H9.33333V12.6667H8ZM8 16.2333V14.9H9.33333V16.2333H8Z" fill="#112664"/>
</svg>
