<svg width="12" height="16" viewBox="0 0 12 16" fill="none" xmlns="http://www.w3.org/2000/svg">
<path d="M8.64828 0.852461C8.54266 0.746838 8.3994 0.6875 8.25003 0.6875C8.10066 0.6875 7.9574 0.746838 7.85178 0.852461C7.74616 0.958083 7.68682 1.10134 7.68682 1.25071C7.68682 1.40008 7.74616 1.54334 7.85178 1.64896L9.70465 3.50071H0.937529C0.788345 3.50071 0.645271 3.55997 0.539782 3.66546C0.434292 3.77095 0.375029 3.91403 0.375029 4.06321C0.375029 4.21239 0.434292 4.35547 0.539782 4.46096C0.645271 4.56645 0.788345 4.62571 0.937529 4.62571H9.70465L7.85178 6.47746C7.79948 6.52976 7.75799 6.59185 7.72969 6.66018C7.70139 6.72851 7.68682 6.80175 7.68682 6.87571C7.68682 6.94967 7.70139 7.02291 7.72969 7.09124C7.75799 7.15957 7.79948 7.22166 7.85178 7.27396C7.90408 7.32626 7.96617 7.36775 8.0345 7.39605C8.10283 7.42435 8.17607 7.43892 8.25003 7.43892C8.32399 7.43892 8.39723 7.42435 8.46556 7.39605C8.53389 7.36774 8.59598 7.32626 8.64828 7.27396L11.4608 4.46146C11.5132 4.40921 11.5547 4.34714 11.5831 4.2788C11.6114 4.21046 11.626 4.1372 11.626 4.06321C11.626 3.98922 11.6114 3.91596 11.5831 3.84762C11.5547 3.77928 11.5132 3.71721 11.4608 3.66496L8.64828 0.852461ZM4.14828 9.52396C4.20058 9.47166 4.24206 9.40957 4.27037 9.34124C4.29867 9.27291 4.31324 9.19967 4.31324 9.12571C4.31324 9.05175 4.29867 8.97851 4.27037 8.91018C4.24206 8.84185 4.20058 8.77976 4.14828 8.72746C4.09598 8.67516 4.03389 8.63368 3.96556 8.60537C3.89723 8.57707 3.82399 8.5625 3.75003 8.5625C3.67607 8.5625 3.60283 8.57707 3.5345 8.60537C3.46617 8.63368 3.40408 8.67516 3.35178 8.72746L0.539279 11.54C0.486895 11.5922 0.445335 11.6543 0.416977 11.7226C0.38862 11.791 0.374023 11.8642 0.374023 11.9382C0.374023 12.0122 0.38862 12.0855 0.416977 12.1538C0.445335 12.2221 0.486895 12.2842 0.539279 12.3365L3.35178 15.149C3.4574 15.2546 3.60066 15.3139 3.75003 15.3139C3.8994 15.3139 4.04266 15.2546 4.14828 15.149C4.2539 15.0433 4.31324 14.9001 4.31324 14.7507C4.31324 14.6013 4.2539 14.4581 4.14828 14.3525L2.2954 12.5007H11.0625C11.2117 12.5007 11.3548 12.4414 11.4603 12.336C11.5658 12.2305 11.625 12.0874 11.625 11.9382C11.625 11.789 11.5658 11.646 11.4603 11.5405C11.3548 11.435 11.2117 11.3757 11.0625 11.3757H2.2954L4.14828 9.52396Z" fill="#043365"/>
</svg>
