<svg width="14" height="14" viewBox="0 0 14 14" fill="none" xmlns="http://www.w3.org/2000/svg">
<path d="M6.56435 3.39922C6.445 3.39922 6.33055 3.44663 6.24615 3.53102C6.16176 3.61541 6.11435 3.72987 6.11435 3.84922C6.11435 3.96857 6.16176 4.08303 6.24615 4.16742C6.33055 4.25181 6.445 4.29922 6.56435 4.29922H9.06365L5.33135 8.03062C5.28951 8.07246 5.25632 8.12213 5.23368 8.17679C5.21104 8.23146 5.19938 8.29005 5.19938 8.34922C5.19938 8.40839 5.21104 8.46698 5.23368 8.52164C5.25632 8.57631 5.28951 8.62598 5.33135 8.66782C5.37319 8.70966 5.42286 8.74285 5.47753 8.76549C5.53219 8.78813 5.59078 8.79979 5.64995 8.79979C5.70912 8.79979 5.76771 8.78813 5.82238 8.76549C5.87704 8.74285 5.92671 8.70966 5.96855 8.66782L9.69995 4.93552V7.43482C9.69995 7.55417 9.74736 7.66863 9.83175 7.75302C9.91614 7.83741 10.0306 7.88482 10.15 7.88482C10.2693 7.88482 10.3838 7.83741 10.4682 7.75302C10.5525 7.66863 10.6 7.55417 10.6 7.43482V3.84922C10.6 3.72987 10.5525 3.61541 10.4682 3.53102C10.3838 3.44663 10.2693 3.39922 10.15 3.39922H6.56435ZM9.48935 13.2992C10.0253 13.2993 10.5438 13.1081 10.9513 12.76C11.3589 12.4118 11.6287 11.9297 11.7124 11.4002C12.1721 11.2584 12.5744 10.9731 12.8601 10.5859C13.1458 10.1988 13.3 9.73036 13.3 9.24922V2.94922C13.3 2.35248 13.0629 1.78019 12.6409 1.35823C12.219 0.936272 11.6467 0.699219 11.05 0.699219H4.74995C4.2635 0.699194 3.79013 0.856759 3.40074 1.14832C3.01134 1.43988 2.72688 1.84974 2.58995 2.31652C2.06232 2.40204 1.58236 2.67262 1.23605 3.07978C0.889739 3.48694 0.699693 4.0041 0.699951 4.53862V10.1492C0.699951 10.9847 1.03183 11.7859 1.62257 12.3766C2.2133 12.9673 3.01452 13.2992 3.84995 13.2992H9.48935ZM1.59995 4.53862C1.59962 4.25917 1.68601 3.98651 1.84722 3.75824C2.00842 3.52998 2.23649 3.35737 2.49995 3.26422V9.24922C2.49995 9.84596 2.737 10.4183 3.15896 10.8402C3.58092 11.2622 4.15321 11.4992 4.74995 11.4992H10.762C10.6689 11.7624 10.4966 11.9903 10.2687 12.1514C10.0408 12.3126 9.76849 12.3992 9.48935 12.3992H3.84995C3.25321 12.3992 2.68092 12.1622 2.25896 11.7402C1.837 11.3183 1.59995 10.746 1.59995 10.1492V4.53862ZM4.74995 1.59922H11.05C11.408 1.59922 11.7514 1.74145 12.0045 1.99462C12.2577 2.2478 12.4 2.59118 12.4 2.94922V9.24922C12.4 9.60726 12.2577 9.95064 12.0045 10.2038C11.7514 10.457 11.408 10.5992 11.05 10.5992H4.74995C4.39191 10.5992 4.04853 10.457 3.79536 10.2038C3.54218 9.95064 3.39995 9.60726 3.39995 9.24922V2.94922C3.39995 2.59118 3.54218 2.2478 3.79536 1.99462C4.04853 1.74145 4.39191 1.59922 4.74995 1.59922Z" fill="#72777F"/>
</svg>
