<svg width="18" height="22" viewBox="0 0 18 22" fill="none" xmlns="http://www.w3.org/2000/svg">
<path d="M15.75 2.75H13.5V2C13.4988 1.60254 13.3404 1.2217 13.0593 0.940651C12.7783 0.659604 12.3975 0.501187 12 0.5H6C5.60254 0.501187 5.2217 0.659604 4.94065 0.940651C4.6596 1.2217 4.50119 1.60254 4.5 2V2.75H2.25C1.85254 2.75119 1.4717 2.9096 1.19065 3.19065C0.909604 3.4717 0.751187 3.85254 0.75 4.25V20C0.751187 20.3975 0.909604 20.7783 1.19065 21.0593C1.4717 21.3404 1.85254 21.4988 2.25 21.5H9.75V19.7656H2.5V4.37074H4.37629V6.67319H13.6407V4.37074H15.5V11H17.25V4.25C17.2488 3.85254 17.0904 3.4717 16.8093 3.19065C16.5283 2.9096 16.1475 2.75119 15.75 2.75ZM12 5H6V2.5H12V5Z" fill="#043365"/>
</svg>
