<svg width="14" height="16" viewBox="0 0 14 16" fill="none" xmlns="http://www.w3.org/2000/svg">
<path d="M8.93068 1.00708L8.9309 1.0073L12.8682 4.94461C12.9326 5.00905 12.9687 5.09641 12.9688 5.1875C12.9688 5.18751 12.9688 5.18752 12.9688 5.18752V14.1875C12.9688 14.4279 12.8733 14.6584 12.7033 14.8283C12.5334 14.9983 12.3029 15.0938 12.0625 15.0938H1.9375C1.69715 15.0938 1.46664 14.9983 1.29668 14.8283L0.945973 15.179L1.29668 14.8283C1.12673 14.6584 1.03125 14.4279 1.03125 14.1875V1.8125C1.03125 1.57215 1.12673 1.34164 1.29668 1.17168C1.46664 1.00173 1.69715 0.90625 1.9375 0.90625H8.68748C8.68748 0.90625 8.68749 0.90625 8.6875 0.90625C8.73267 0.906255 8.77739 0.915162 8.81911 0.93246L9.01061 0.470585L8.81912 0.932461C8.86084 0.949762 8.89876 0.975119 8.93068 1.00708ZM9.60355 2.65426L8.75 1.80071V3.00781V4.625V5.125H9.25H10.8672H12.0743L11.2207 4.27145L9.60355 2.65426ZM1.71875 13.9062V14.4062H2.21875H11.7812H12.2812V13.9062V6.3125V5.8125H11.7812H8.40625C8.31508 5.8125 8.22765 5.77628 8.16318 5.71182C8.09872 5.64735 8.0625 5.55992 8.0625 5.46875V2.09375V1.59375H7.5625H2.21875H1.71875V2.09375V13.9062Z" fill="#72777F" stroke="#008CE6"/>
</svg>
