<svg width="112" height="22" viewBox="0 0 112 22" fill="none" xmlns="http://www.w3.org/2000/svg">
<path d="M111.5 5.32829L98.851 1.93983C98.3088 1.79457 97.7305 1.88387 97.2574 2.18591L90.5 6.49952L82.5516 12.0759C81.6815 12.6863 80.486 12.5096 79.8297 11.6736L75.4493 6.09333C75.0702 5.61034 74.4902 5.32828 73.8761 5.32827L66.7896 5.32813C66.5975 5.32813 66.4065 5.35579 66.2223 5.41028L58.5313 7.68526C58.2287 7.77477 57.9516 7.93463 57.7226 8.15175L51.2515 14.2871C50.7802 14.7339 50.1213 14.9241 49.4844 14.7971L41.9087 13.2866C41.508 13.2067 41.0924 13.2515 40.7179 13.4149L32.5 17L25.9002 20.3059C25.0849 20.7142 24.0967 20.5195 23.4973 19.8324L16.1265 11.3831L8.36036 3.84957C8.12379 3.62008 7.83417 3.45262 7.51726 3.36207L1 1.5" stroke="#FBD039" stroke-width="2"/>
</svg>
