<svg width="112" height="27" viewBox="0 0 112 27" fill="none" xmlns="http://www.w3.org/2000/svg">
<path d="M1 19.9995L14.1928 16.4654C14.3963 16.4109 14.59 16.3245 14.7666 16.2095L20.8669 12.2373C21.5514 11.7916 22.4382 11.8069 23.1069 12.2761L29.0801 16.4667C30.2388 17.2796 31.8522 16.6646 32.1757 15.2866L35.1152 2.76822C35.4864 1.18747 37.487 0.684524 38.5616 1.90182L45.6194 9.89698C45.8681 10.1787 46.1911 10.3847 46.5515 10.4913L53.9687 12.6853C54.2713 12.7748 54.5484 12.9346 54.7774 13.1518L61.2485 19.2871C61.7198 19.7339 62.3787 19.9241 63.0156 19.7971L70.5913 18.2866C70.992 18.2067 71.4076 18.2515 71.7821 18.4149L80 22L86.5998 25.3059C87.4151 25.7142 88.4033 25.5195 89.0027 24.8324L96.3735 16.3831L103.686 5.69017C104.172 4.97944 105.058 4.65957 105.886 4.89611L111.5 6.5" stroke="#3A975F" stroke-width="2"/>
</svg>
