<svg width="20" height="10" viewBox="0 0 20 10" fill="none" xmlns="http://www.w3.org/2000/svg">
<path d="M19.7099 9.70811C19.617 9.80184 19.5064 9.87623 19.3845 9.927C19.2627 9.97777 19.132 10.0039 18.9999 10.0039C18.8679 10.0039 18.7372 9.97777 18.6154 9.927C18.4935 9.87623 18.3829 9.80184 18.2899 9.70811L11.9999 3.40811L7.70994 7.70811C7.61698 7.80184 7.50637 7.87623 7.38452 7.927C7.26266 7.97777 7.13195 8.00391 6.99994 8.00391C6.86793 8.00391 6.73722 7.97777 6.61536 7.927C6.4935 7.87623 6.3829 7.80184 6.28994 7.70811L0.289939 1.70811C0.196211 1.61514 0.121816 1.50454 0.0710475 1.38268C0.0202789 1.26083 -0.00585938 1.13012 -0.00585938 0.998108C-0.00585937 0.866096 0.0202789 0.735391 0.0710475 0.613531C0.121816 0.491672 0.196211 0.381072 0.289939 0.288109C0.382902 0.194381 0.493503 0.119985 0.615362 0.0692158C0.737222 0.0184469 0.867927 -0.00769043 0.999939 -0.00769043C1.13195 -0.00769043 1.26266 0.0184469 1.38452 0.0692158C1.50637 0.119985 1.61698 0.194381 1.70994 0.288109L6.99994 5.58811L11.2899 1.28811C11.3829 1.19438 11.4935 1.11999 11.6154 1.06922C11.7372 1.01845 11.8679 0.99231 11.9999 0.99231C12.132 0.99231 12.2627 1.01845 12.3845 1.06922C12.5064 1.11999 12.617 1.19438 12.7099 1.28811L19.7099 8.28811C19.8037 8.38107 19.8781 8.49167 19.9288 8.61353C19.9796 8.73539 20.0057 8.8661 20.0057 8.99811C20.0057 9.13012 19.9796 9.26083 19.9288 9.38268C19.8781 9.50454 19.8037 9.61514 19.7099 9.70811Z" fill="#BA1A1A"/>
</svg>
