<svg width="160" height="22" viewBox="0 0 160 22" fill="none" xmlns="http://www.w3.org/2000/svg">
<path d="M1 7.3463L20.0689 10.8273C20.2245 10.8557 20.3762 10.9025 20.5209 10.9667L30.1848 15.2548C30.7193 15.492 31.331 15.4833 31.8586 15.2311L43.4275 9.7001C44.1461 9.35658 44.9999 9.4721 45.6013 9.99419L52.8422 16.2801C53.206 16.5959 53.6716 16.7698 54.1533 16.7698L65.1443 16.7699C65.277 16.7699 65.4094 16.7567 65.5395 16.7305L77.0246 14.4154C77.2702 14.3659 77.5043 14.2707 77.7147 14.1347L87.6003 7.74773C88.0013 7.48862 88.4818 7.38153 88.9549 7.44581L100.96 9.07693C101.241 9.11514 101.527 9.09308 101.799 9.01222L113.959 5.39706L124.352 1.84965C124.991 1.6315 125.697 1.75059 126.229 2.1663L137.371 10.8701L148.66 18.3324C148.878 18.4769 149.123 18.577 149.381 18.6271L159 20.5" stroke="#BA1A1A" stroke-width="2"/>
</svg>
