<svg width="160" height="29" viewBox="0 0 160 29" fill="none" xmlns="http://www.w3.org/2000/svg">
<path d="M1 21.4999L20.064 17.9282C20.2229 17.8984 20.3775 17.8495 20.5246 17.7825L30.1664 13.3917C30.7113 13.1436 31.3387 13.1526 31.8763 13.4164L42.5607 18.6588C43.6464 19.1915 44.9528 18.6463 45.3377 17.4999L50.139 3.19921C50.58 1.88561 52.1909 1.40765 53.277 2.26813L64.9719 11.5336C65.2165 11.7274 65.5031 11.8613 65.8087 11.9245L77.0181 14.2434C77.2679 14.2951 77.5055 14.3941 77.7182 14.5351L87.5904 21.0814C87.9972 21.3511 88.4885 21.4628 88.9719 21.3954L100.949 19.7252C101.237 19.6851 101.53 19.7082 101.809 19.7931L113.959 23.5004L124.329 27.1333C124.98 27.3614 125.703 27.2378 126.242 26.8062L137.371 17.8834L148.233 6.77558C148.706 6.29187 149.391 6.08006 150.055 6.21263L159 8.00013" stroke="#3A975F" stroke-width="2"/>
</svg>
