<svg width="20" height="10" viewBox="0 0 20 10" fill="none" xmlns="http://www.w3.org/2000/svg">
<path d="M19.7099 0.291892C19.617 0.198164 19.5064 0.12377 19.3845 0.0730009C19.2627 0.0222322 19.132 -0.00390625 18.9999 -0.00390625C18.8679 -0.00390625 18.7372 0.0222322 18.6154 0.0730009C18.4935 0.12377 18.3829 0.198164 18.2899 0.291892L11.9999 6.59189L7.70994 2.29189C7.61698 2.19816 7.50637 2.12377 7.38452 2.073C7.26266 2.02223 7.13195 1.99609 6.99994 1.99609C6.86793 1.99609 6.73722 2.02223 6.61536 2.073C6.4935 2.12377 6.3829 2.19816 6.28994 2.29189L0.289939 8.29189C0.196211 8.38486 0.121816 8.49546 0.0710475 8.61732C0.0202789 8.73917 -0.00585938 8.86988 -0.00585938 9.00189C-0.00585937 9.1339 0.0202789 9.26461 0.0710475 9.38647C0.121816 9.50833 0.196211 9.61893 0.289939 9.71189C0.382902 9.80562 0.493503 9.88002 0.615362 9.93078C0.737222 9.98155 0.867927 10.0077 0.999939 10.0077C1.13195 10.0077 1.26266 9.98155 1.38452 9.93078C1.50637 9.88002 1.61698 9.80562 1.70994 9.71189L6.99994 4.41189L11.2899 8.71189C11.3829 8.80562 11.4935 8.88001 11.6154 8.93078C11.7372 8.98155 11.8679 9.00769 11.9999 9.00769C12.132 9.00769 12.2627 8.98155 12.3845 8.93078C12.5064 8.88001 12.617 8.80562 12.7099 8.71189L19.7099 1.71189C19.8037 1.61893 19.8781 1.50833 19.9288 1.38647C19.9796 1.26461 20.0057 1.1339 20.0057 1.00189C20.0057 0.86988 19.9796 0.739175 19.9288 0.617315C19.8781 0.495456 19.8037 0.384855 19.7099 0.291892Z" fill="#3A975F"/>
</svg>
