<svg width="21" height="21" viewBox="0 0 21 21" fill="none" xmlns="http://www.w3.org/2000/svg">
<path d="M10.9999 18.9996C9.57291 17.9736 7.40991 15.1456 6.99991 12.9996C6.51391 13.7696 5.49891 14.9996 4.99991 14.9996C3.50091 14.1116 4.42591 11.0266 4.99991 8.99958C3.40391 7.56658 2.53191 6.54158 2.49991 4.99958C-0.850087 1.55958 2.05591 -0.270416 4.99991 1.99958H5.99991C14.4819 2.49958 12.4209 10.0696 14.9999 13.4996C17.2949 14.0216 18.6649 15.7536 19.9999 16.9996C17.9139 16.7996 17.2159 16.6556 16.4999 16.9996C16.9779 18.6396 18.6229 19.1996 19.9999 19.9996M6.99991 4.99958H7.00991" stroke="#043365" stroke-width="2" stroke-linecap="round" stroke-linejoin="round"/>
</svg>
