<svg width="22" height="14" viewBox="0 0 22 14" fill="none" xmlns="http://www.w3.org/2000/svg">
<path fill-rule="evenodd" clip-rule="evenodd" d="M6.957 13.912C6.04383 13.9125 5.13951 13.7332 4.29567 13.3842C3.45182 13.0352 2.68499 12.5234 2.03896 11.878C1.39293 11.2326 0.880357 10.4663 0.530509 9.6228C0.180662 8.77931 0.000393851 7.87516 0 6.962C0.000264357 5.11651 0.733157 3.34661 2.03765 2.04118C3.34214 0.735755 5.11151 0.00159024 6.957 0H15.044C16.8895 0.00132557 18.6589 0.735437 19.9633 2.04095C21.2677 3.34646 22.0003 5.11652 22 6.962C21.9997 7.87512 21.8196 8.77924 21.4699 9.62273C21.1201 10.4662 20.6076 11.2325 19.9617 11.8779C19.3157 12.5233 18.549 13.0351 17.7052 13.3841C16.8614 13.7332 15.9571 13.9125 15.044 13.912H6.957ZM14.864 11.459C15.4551 11.4598 16.0405 11.3441 16.5868 11.1184C17.1331 10.8928 17.6295 10.5616 18.0477 10.144C18.466 9.72632 18.7977 9.23031 19.0241 8.68431C19.2505 8.13832 19.367 7.55306 19.367 6.962C19.3673 5.76719 18.8931 4.62116 18.0487 3.77584C17.2043 2.93051 16.0588 2.45506 14.864 2.454H7.136C5.94119 2.45506 4.79569 2.93051 3.9513 3.77584C3.10691 4.62116 2.63273 5.76719 2.633 6.962C2.63313 7.55302 2.74974 8.13823 2.97615 8.68416C3.20257 9.23009 3.53436 9.72605 3.95255 10.1437C4.37075 10.5613 4.86715 10.8925 5.41339 11.1181C5.95962 11.3438 6.54498 11.4597 7.136 11.459H14.864Z" fill="#043365"/>
</svg>
