<svg width="16" height="16" viewBox="0 0 16 16" fill="none" xmlns="http://www.w3.org/2000/svg">
<path d="M3.7835 2.89415V6.25854V6.24458V11.8286V2.89415ZM3.7835 12.9454C3.47637 12.9454 3.21346 12.8361 2.99475 12.6174C2.77604 12.3987 2.66669 12.1357 2.66669 11.8286V2.89415C2.66669 2.58703 2.77604 2.32411 2.99475 2.10541C3.21346 1.8867 3.47637 1.77734 3.7835 1.77734H8.25073L11.6012 5.12777V6.52378C11.4243 6.44933 11.2429 6.39116 11.0567 6.34928C10.8706 6.3074 10.6798 6.27715 10.4844 6.25854V5.68618H7.69233V2.89415H3.7835V11.8286H7.14788C7.29679 12.052 7.46431 12.2591 7.65045 12.4499C7.83658 12.6406 8.04133 12.8058 8.26469 12.9454H3.7835ZM10.2051 11.2702C10.596 11.2702 10.9264 11.1353 11.1963 10.8654C11.4662 10.5955 11.6012 10.2651 11.6012 9.87421C11.6012 9.48333 11.4662 9.15294 11.1963 8.88304C10.9264 8.61315 10.596 8.4782 10.2051 8.4782C9.81427 8.4782 9.48388 8.61315 9.21398 8.88304C8.94409 9.15294 8.80914 9.48333 8.80914 9.87421C8.80914 10.2651 8.94409 10.5955 9.21398 10.8654C9.48388 11.1353 9.81427 11.2702 10.2051 11.2702ZM13.053 13.5038L11.5453 11.9961C11.3499 12.1264 11.1381 12.2242 10.9101 12.2893C10.6821 12.3545 10.4471 12.387 10.2051 12.387C9.50714 12.387 8.91384 12.1427 8.42523 11.6541C7.93663 11.1655 7.69233 10.5722 7.69233 9.87421C7.69233 9.1762 7.93663 8.5829 8.42523 8.0943C8.91384 7.60569 9.50714 7.36139 10.2051 7.36139C10.9032 7.36139 11.4965 7.60569 11.9851 8.0943C12.4737 8.5829 12.718 9.1762 12.718 9.87421C12.718 10.1162 12.6854 10.3512 12.6202 10.5792C12.5551 10.8072 12.4574 11.0189 12.3271 11.2144L13.8348 12.7221L13.053 13.5038Z" fill="#979797"/>
</svg>
