<svg width="24" height="24" viewBox="0 0 24 24" fill="none" xmlns="http://www.w3.org/2000/svg">
<circle cx="12" cy="12" r="12" fill="#DEEBFF"/>
<path d="M7.78347 6.89464V10.259V10.2451V15.8291V6.89464ZM7.78347 16.9459C7.47634 16.9459 7.21343 16.8366 6.99472 16.6179C6.77601 16.3992 6.66666 16.1362 6.66666 15.8291V6.89464C6.66666 6.58752 6.77601 6.3246 6.99472 6.10589C7.21343 5.88719 7.47634 5.77783 7.78347 5.77783H12.2507L15.6011 9.12826V10.5243C15.4243 10.4498 15.2428 10.3916 15.0567 10.3498C14.8706 10.3079 14.6798 10.2776 14.4843 10.259V9.68666H11.6923V6.89464H7.78347V15.8291H11.1479C11.2968 16.0525 11.4643 16.2596 11.6504 16.4503C11.8366 16.6411 12.0413 16.8063 12.2647 16.9459H7.78347ZM14.2051 15.2707C14.596 15.2707 14.9264 15.1358 15.1963 14.8659C15.4662 14.596 15.6011 14.2656 15.6011 13.8747C15.6011 13.4838 15.4662 13.1534 15.1963 12.8835C14.9264 12.6136 14.596 12.4787 14.2051 12.4787C13.8142 12.4787 13.4838 12.6136 13.214 12.8835C12.9441 13.1534 12.8091 13.4838 12.8091 13.8747C12.8091 14.2656 12.9441 14.596 13.214 14.8659C13.4838 15.1358 13.8142 15.2707 14.2051 15.2707ZM17.053 17.5043L15.5453 15.9966C15.3498 16.1269 15.1381 16.2247 14.9101 16.2898C14.6821 16.3549 14.4471 16.3875 14.2051 16.3875C13.5071 16.3875 12.9138 16.1432 12.4252 15.6546C11.9366 15.166 11.6923 14.5727 11.6923 13.8747C11.6923 13.1767 11.9366 12.5834 12.4252 12.0948C12.9138 11.6062 13.5071 11.3619 14.2051 11.3619C14.9031 11.3619 15.4964 11.6062 15.985 12.0948C16.4736 12.5834 16.7179 13.1767 16.7179 13.8747C16.7179 14.1167 16.6854 14.3517 16.6202 14.5797C16.5551 14.8077 16.4574 15.0194 16.3271 15.2149L17.8347 16.7226L17.053 17.5043Z" fill="#043365"/>
</svg>
