<svg width="254" height="257" viewBox="0 0 254 257" fill="none" xmlns="http://www.w3.org/2000/svg">
<path d="M126.65 1.19834C126.876 1.11398 127.124 1.11398 127.35 1.19834L208.885 31.6659C209.106 31.7485 209.291 31.9067 209.406 32.1125L252.82 109.313C252.933 109.513 252.973 109.746 252.934 109.973L237.853 197.783C237.814 198.012 237.696 198.22 237.52 198.371L171.031 255.651C170.849 255.807 170.618 255.893 170.378 255.893H83.6221C83.3825 255.893 83.1509 255.807 82.9694 255.651L16.4796 198.371C16.3037 198.22 16.186 198.012 16.1467 197.783L1.06557 109.973C1.0267 109.746 1.06693 109.513 1.17952 109.313L44.5937 32.1125C44.7094 31.9067 44.8941 31.7485 45.1153 31.6659L126.65 1.19834Z" stroke="#C9C9C9" stroke-width="2"/>
</svg>
