<svg width="194" height="187" viewBox="0 0 194 187" fill="none" xmlns="http://www.w3.org/2000/svg">
<path d="M151.041 26.7977L93.4084 1.40029C92.8361 1.14811 92.1788 1.17812 91.6319 1.4814L37.9208 31.2667C37.6442 31.42 37.4079 31.6368 37.2314 31.8992L1.98346 84.2815C1.67499 84.7399 1.56991 85.3056 1.69316 85.8442L14.8606 143.391C14.9514 143.787 15.1611 144.147 15.4616 144.422L60.3921 185.445C60.7815 185.801 61.2956 185.988 61.8225 185.966L121.519 183.52C121.835 183.507 122.144 183.419 122.42 183.263L179.678 150.964C180.199 150.67 180.56 150.159 180.665 149.571L192.844 80.8792C192.943 80.3197 192.8 79.7444 192.45 79.297L151.809 27.3949C151.606 27.1356 151.342 26.9305 151.041 26.7977Z" fill="#E6F4FD" fill-opacity="0.25" stroke="#008CE6" stroke-width="2"/>
</svg>
