<svg width="22" height="22" viewBox="0 0 22 22" fill="none" xmlns="http://www.w3.org/2000/svg">
<path d="M15.8049 0C14.9246 0.00645998 14.0492 0.130902 13.2019 0.37L13.1419 0.388C12.6082 0.296604 12.0683 0.246124 11.5269 0.237C10.4139 0.218 9.45694 0.48 8.68694 0.917C7.92694 0.661 6.35094 0.22 4.68994 0.308C3.53294 0.369 2.27094 0.71 1.33594 1.668C0.402938 2.626 -0.0900623 4.108 0.0139377 6.125C0.0419377 6.682 0.204938 7.589 0.476938 8.765C0.746938 9.94 1.12894 11.315 1.60394 12.57C2.07894 13.826 2.59994 14.954 3.41394 15.72C3.81994 16.104 4.37894 16.427 5.03794 16.4C5.50094 16.382 5.91994 16.185 6.28094 15.894C6.45694 16.119 6.64494 16.217 6.81594 16.308C7.03094 16.422 7.24094 16.5 7.45794 16.552C8.0589 16.7058 8.68473 16.7368 9.29794 16.643C9.56494 16.6 9.84594 16.516 10.1259 16.396C10.1359 16.698 10.1479 16.994 10.1609 17.294C10.1989 18.244 10.2239 19.121 10.5179 19.89C10.5649 20.016 10.6939 20.663 11.2049 21.234C11.7149 21.806 12.7149 22.162 13.8529 21.926C14.6559 21.759 15.6779 21.458 16.3559 20.522C17.0259 19.596 17.3289 18.267 17.3889 16.113C17.4039 15.997 17.4219 15.898 17.4409 15.805L17.6009 15.819H17.6189C18.4759 15.857 19.4059 15.739 20.1829 15.389C20.8709 15.079 21.3909 14.767 21.7699 14.212C21.8649 14.075 21.9689 13.909 21.9969 13.622C22.0249 13.337 21.8569 12.889 21.5759 12.683C21.0129 12.269 20.6599 12.426 20.2809 12.503C19.9079 12.583 19.5279 12.627 19.1449 12.636C20.2379 10.852 21.0209 8.956 21.4679 7.278C21.7319 6.288 21.8809 5.375 21.8929 4.577C21.9049 3.779 21.8379 3.072 21.3449 2.46C19.8039 0.55 17.6369 0.0219999 15.9609 0.00399995C15.9089 0.00299995 15.8569 0.00200002 15.8049 0.00300002V0ZM15.7609 0.587C17.3459 0.572 19.3719 1.004 20.8259 2.807C21.1529 3.212 21.2499 3.804 21.2389 4.534C21.2269 5.263 21.0879 6.135 20.8339 7.091C20.3409 8.943 19.4089 11.101 18.0959 13.039C18.1427 13.0711 18.193 13.0976 18.2459 13.118C18.5199 13.228 19.1439 13.322 20.3909 13.074C20.7039 13.009 20.9339 12.966 21.1719 13.142C21.229 13.1892 21.2743 13.2489 21.3044 13.3166C21.3344 13.3843 21.3483 13.458 21.3449 13.532C21.3319 13.6437 21.2895 13.75 21.2219 13.84C20.9819 14.191 20.5059 14.524 19.8959 14.798C19.3569 15.042 18.5829 15.169 17.8969 15.177C17.5529 15.18 17.2359 15.154 16.9669 15.073L16.9489 15.067C16.8449 16.038 16.6059 17.957 16.4509 18.832C16.3259 19.538 16.1079 20.099 15.6909 20.519C15.2749 20.939 14.6869 21.192 13.8949 21.357C12.9139 21.561 12.1989 21.341 11.7379 20.964C11.2779 20.589 11.0669 20.09 10.9399 19.784C10.8529 19.574 10.8079 19.301 10.7639 18.936C10.7156 18.499 10.6833 18.0604 10.6669 17.621C10.6381 16.8504 10.6288 16.0791 10.6389 15.308C10.2289 15.672 9.71894 15.914 9.17194 16.005C8.52194 16.112 7.93994 16.007 7.59294 15.923C7.42279 15.8812 7.25828 15.819 7.10294 15.738C6.94094 15.655 6.78794 15.561 6.68594 15.375C6.62584 15.2688 6.60663 15.1443 6.63194 15.025C6.66461 14.9037 6.73718 14.797 6.83794 14.722C7.02594 14.574 7.27294 14.492 7.64594 14.416C8.32594 14.281 8.56294 14.188 8.70694 14.077C8.82994 13.982 8.96894 13.79 9.21494 13.507C9.21374 13.4947 9.21274 13.4823 9.21194 13.47C8.77327 13.4581 8.3432 13.3455 7.95494 13.141C7.81394 13.286 7.08994 14.029 6.20694 15.059C5.83594 15.49 5.42594 15.737 4.99294 15.755C4.55994 15.773 4.16894 15.561 3.83694 15.249C3.17194 14.623 2.64194 13.546 2.17994 12.329C1.71994 11.111 1.34394 9.755 1.07794 8.6C0.809938 7.445 0.651938 6.514 0.629938 6.065C0.529938 4.156 0.989938 2.87 1.77994 2.059C2.56994 1.248 3.65194 0.941 4.70794 0.882C6.60194 0.776 8.40094 1.417 8.76494 1.555C9.46594 1.093 10.3689 0.805 11.4979 0.823C12.0331 0.830317 12.5657 0.8974 13.0859 1.023L13.1049 1.015C13.3339 0.937 13.5669 0.871 13.8029 0.819C14.4454 0.673706 15.1013 0.596612 15.7599 0.589L15.7609 0.587ZM15.9039 1.201H15.7669C15.2259 1.2083 14.6868 1.26723 14.1569 1.377C15.2087 1.83501 16.1328 2.54283 16.8489 3.439C17.2826 3.97524 17.6425 4.56717 17.9189 5.199C18.0229 5.441 18.0929 5.646 18.1319 5.804C18.1519 5.884 18.1659 5.951 18.1699 6.021C18.1738 6.06531 18.1701 6.10994 18.1589 6.153L18.1529 6.165C18.1819 6.968 17.9769 7.512 17.9519 8.278C17.9329 8.834 18.0789 9.487 18.1149 10.198C18.1489 10.868 18.0659 11.603 17.6179 12.325C17.6559 12.369 17.6899 12.413 17.7259 12.457C18.9109 10.647 19.7659 8.643 20.2209 6.936C20.4639 6.016 20.5939 5.183 20.6049 4.523C20.6149 3.863 20.4879 3.384 20.3259 3.185C19.0579 1.612 17.3429 1.212 15.9039 1.201ZM11.3789 1.436C10.2619 1.438 9.45994 1.766 8.85294 2.256C8.22594 2.763 7.80594 3.456 7.52994 4.167C7.26276 4.87753 7.09942 5.62286 7.04494 6.38L7.05794 6.373C7.39494 6.189 7.83794 6.006 8.31194 5.9C8.78694 5.794 9.29794 5.761 9.76094 5.935C10.2239 6.11 10.6069 6.519 10.7459 7.141C11.4109 10.127 10.5389 11.237 10.2169 12.074C10.0951 12.3775 9.99058 12.6877 9.90394 13.003C9.94494 12.993 9.98594 12.983 10.0259 12.979C10.2016 12.9695 10.3769 13.0039 10.5359 13.079C10.8599 13.209 11.0819 13.481 11.2019 13.793C11.2329 13.875 11.2559 13.963 11.2689 14.053C11.2829 14.091 11.2889 14.13 11.2879 14.17C11.252 15.3118 11.2561 16.4545 11.2999 17.596C11.3219 18.09 11.3539 18.524 11.3949 18.867C11.4349 19.209 11.4929 19.469 11.5299 19.557C11.6499 19.851 11.8269 20.235 12.1469 20.496C12.4669 20.756 12.9239 20.93 13.7609 20.756C14.4869 20.605 14.9349 20.396 15.2349 20.093C15.5329 19.792 15.7119 19.373 15.8259 18.73C15.9969 17.767 16.3409 14.976 16.3819 14.45C16.3639 14.055 16.4239 13.75 16.5539 13.518C16.6889 13.28 16.8969 13.134 17.0759 13.055C17.1659 13.015 17.2499 12.989 17.3189 12.97C17.2457 12.8681 17.169 12.7687 17.0889 12.672C16.8311 12.3689 16.6192 12.0296 16.4599 11.665C16.3839 11.5147 16.3028 11.3669 16.2169 11.222C16.0919 11.002 15.9329 10.727 15.7669 10.418C15.4339 9.799 15.0719 9.049 14.8839 8.318C14.6969 7.589 14.6689 6.834 15.1489 6.301C15.5749 5.828 16.3209 5.632 17.4419 5.742C17.4089 5.646 17.3889 5.566 17.3329 5.438C17.0786 4.85769 16.748 4.3139 16.3499 3.821C15.3999 2.643 13.8629 1.475 11.4869 1.437L11.3789 1.436ZM5.10294 1.483C4.98294 1.483 4.86294 1.487 4.74294 1.493C3.78894 1.546 2.88694 1.815 2.24194 2.479C1.59494 3.142 1.16994 4.23 1.26194 6.032C1.28094 6.372 1.43394 7.328 1.69594 8.462C1.95794 9.598 2.32994 10.933 2.77594 12.112C3.22194 13.292 3.76394 14.319 4.27794 14.805C4.53694 15.048 4.76194 15.146 4.96594 15.138C5.17094 15.128 5.41694 15.014 5.71894 14.663C6.26895 14.0194 6.83923 13.3934 7.42894 12.786C7.01246 12.4364 6.69174 11.9867 6.49694 11.479C6.30467 10.9759 6.2461 10.4315 6.32694 9.899C6.42394 9.221 6.43694 8.587 6.42594 8.087C6.41394 7.599 6.37794 7.275 6.37794 7.072V7.044C6.37704 5.98715 6.56639 4.93876 6.93694 3.949C7.20094 3.267 7.59494 2.574 8.18594 2.013C7.60594 1.828 6.57594 1.546 5.46094 1.493C5.34104 1.48675 5.221 1.48341 5.10094 1.483H5.10294ZM16.8169 6.325C16.1759 6.333 15.8159 6.494 15.6269 6.704C15.3589 7.002 15.3339 7.524 15.4999 8.168C15.6649 8.812 16.0069 9.533 16.3289 10.131C16.4889 10.431 16.6449 10.701 16.7709 10.919C16.8979 11.139 16.9909 11.295 17.0469 11.429C17.0989 11.551 17.1569 11.659 17.2149 11.76C17.4629 11.251 17.5079 10.752 17.4819 10.231C17.4489 9.587 17.2949 8.928 17.3179 8.261C17.3429 7.481 17.5019 6.972 17.5159 6.369C17.2841 6.33986 17.0506 6.32517 16.8169 6.325ZM9.03694 6.43C8.84107 6.43182 8.64595 6.45462 8.45494 6.498C8.07525 6.5874 7.70883 6.7259 7.36494 6.91C7.24994 6.97 7.13894 7.04 7.03494 7.119L7.01494 7.137C7.02094 7.271 7.04794 7.596 7.05994 8.073C7.06994 8.596 7.05794 9.263 6.95394 9.983C6.72794 11.551 7.89994 12.849 9.27794 12.851C9.35794 12.529 9.49094 12.203 9.62294 11.859C10.0069 10.856 10.7619 10.125 10.1259 7.27C10.0219 6.803 9.81594 6.614 9.53194 6.507C9.37275 6.45243 9.20518 6.42636 9.03694 6.43ZM16.5169 6.617H16.5649C16.6269 6.619 16.6849 6.626 16.7349 6.637C16.781 6.64616 16.825 6.66343 16.8649 6.688C16.883 6.69887 16.8987 6.71337 16.9109 6.73057C16.9231 6.74778 16.9316 6.76734 16.9359 6.788V6.796C16.9375 6.83983 16.9257 6.8831 16.9019 6.92C16.8739 6.97032 16.8389 7.01644 16.7979 7.057C16.7012 7.16007 16.5733 7.22857 16.4339 7.252C16.2974 7.26817 16.1596 7.23443 16.0459 7.157C15.9999 7.12712 15.9585 7.09074 15.9229 7.049C15.8924 7.01678 15.8716 6.97656 15.8629 6.933C15.8608 6.91162 15.8633 6.89003 15.8702 6.86968C15.8771 6.84933 15.8883 6.83069 15.9029 6.815C15.9343 6.78078 15.972 6.75294 16.0139 6.733C16.1719 6.6591 16.3436 6.61891 16.5179 6.615L16.5169 6.617ZM9.12894 6.771C9.17894 6.771 9.23194 6.776 9.28594 6.783C9.42994 6.803 9.55894 6.84 9.65694 6.895C9.70494 6.92 9.74694 6.952 9.78294 6.992C9.80164 7.01331 9.81591 7.03812 9.82494 7.065C9.83389 7.09169 9.83696 7.12001 9.83394 7.148C9.82462 7.20095 9.79992 7.24998 9.76294 7.289C9.72416 7.3355 9.67866 7.37595 9.62794 7.409C9.50379 7.49366 9.35309 7.53027 9.20394 7.512C9.05247 7.488 8.91322 7.41451 8.80794 7.303C8.76358 7.25865 8.72586 7.20813 8.69594 7.153C8.66479 7.10505 8.65103 7.04787 8.65694 6.991C8.67094 6.891 8.75594 6.841 8.83694 6.811C8.93077 6.78219 9.02891 6.77001 9.12694 6.775L9.12894 6.771ZM17.6889 13.503H17.6859C17.5469 13.553 17.4329 13.573 17.3359 13.613C17.2395 13.6491 17.1594 13.7191 17.1109 13.81C17.0509 13.915 17.0009 14.102 17.0159 14.42C17.0589 14.4486 17.1062 14.4702 17.1559 14.484C17.3169 14.532 17.5879 14.564 17.8909 14.559C18.4929 14.552 19.2349 14.416 19.6289 14.238C19.9519 14.092 20.2519 13.902 20.5199 13.674C19.2029 13.938 18.4599 13.868 18.0029 13.685C17.8899 13.6397 17.7841 13.578 17.6889 13.502V13.503ZM10.1009 13.589H10.0809C10.0309 13.593 9.95794 13.609 9.81794 13.761C9.48794 14.119 9.37394 14.343 9.10194 14.553C8.83194 14.763 8.47894 14.874 7.77494 15.014C7.55194 15.058 7.42494 15.107 7.33894 15.146C7.36694 15.168 7.36394 15.174 7.40494 15.195C7.50794 15.25 7.64094 15.298 7.74694 15.325C8.04994 15.398 8.54694 15.484 9.06594 15.398C9.58394 15.312 10.1239 15.071 10.5839 14.445C10.6639 14.337 10.6719 14.177 10.6069 14.005C10.5399 13.835 10.3959 13.687 10.2939 13.645C10.2329 13.6168 10.1677 13.5986 10.1009 13.591V13.589Z" fill="#043365"/>
</svg>
