<svg width="12" height="13" viewBox="0 0 12 13" fill="none" xmlns="http://www.w3.org/2000/svg">
<path d="M1.78356 1.89415V5.25854V5.24458V10.8286V1.89415ZM1.78356 11.9454C1.47643 11.9454 1.21352 11.8361 0.994811 11.6174C0.776102 11.3987 0.666748 11.1357 0.666748 10.8286V1.89415C0.666748 1.58703 0.776102 1.32411 0.994811 1.10541C1.21352 0.886698 1.47643 0.777344 1.78356 0.777344H6.25079L9.60122 4.12777V5.52378C9.42439 5.44933 9.24291 5.39116 9.05678 5.34928C8.87064 5.3074 8.67985 5.27715 8.48441 5.25854V4.68618H5.69239V1.89415H1.78356V10.8286H5.14794C5.29685 11.052 5.46437 11.2591 5.65051 11.4499C5.83664 11.6406 6.04139 11.8058 6.26475 11.9454H1.78356ZM8.20521 10.2702C8.59609 10.2702 8.92648 10.1353 9.19638 9.86538C9.46627 9.59548 9.60122 9.26509 9.60122 8.87421C9.60122 8.48333 9.46627 8.15294 9.19638 7.88304C8.92648 7.61315 8.59609 7.4782 8.20521 7.4782C7.81433 7.4782 7.48394 7.61315 7.21404 7.88304C6.94415 8.15294 6.8092 8.48333 6.8092 8.87421C6.8092 9.26509 6.94415 9.59548 7.21404 9.86538C7.48394 10.1353 7.81433 10.2702 8.20521 10.2702ZM11.0531 12.5038L9.54538 10.9961C9.34994 11.1264 9.13821 11.2242 8.9102 11.2893C8.68218 11.3545 8.44719 11.387 8.20521 11.387C7.5072 11.387 6.9139 11.1427 6.4253 10.6541C5.93669 10.1655 5.69239 9.57222 5.69239 8.87421C5.69239 8.1762 5.93669 7.5829 6.4253 7.0943C6.9139 6.60569 7.5072 6.36139 8.20521 6.36139C8.90322 6.36139 9.49652 6.60569 9.98512 7.0943C10.4737 7.5829 10.718 8.1762 10.718 8.87421C10.718 9.11619 10.6855 9.35118 10.6203 9.5792C10.5552 9.80721 10.4574 10.0189 10.3271 10.2144L11.8348 11.7221L11.0531 12.5038Z" fill="#72777F"/>
</svg>
