<svg width="1343" height="836" xmlns="http://www.w3.org/2000/svg" xmlns:xlink="http://www.w3.org/1999/xlink" overflow="hidden"><defs><clipPath id="clip0"><rect x="-1" y="-1" width="1343" height="836"/></clipPath><clipPath id="clip1"><rect x="0" y="0" width="1340" height="833"/></clipPath><clipPath id="clip2"><rect x="0" y="0" width="1340" height="833"/></clipPath><clipPath id="clip3"><rect x="402" y="209" width="539" height="538"/></clipPath><clipPath id="clip4"><rect x="0" y="0" width="1340" height="833"/></clipPath><clipPath id="clip5"><rect x="0" y="0" width="1340" height="833"/></clipPath><clipPath id="clip6"><rect x="0" y="0" width="1340" height="833"/></clipPath><clipPath id="clip7"><rect x="0" y="0" width="1340" height="833"/></clipPath><clipPath id="clip8"><rect x="0" y="0" width="1340" height="833"/></clipPath><clipPath id="clip9"><rect x="0" y="0" width="1340" height="833"/></clipPath><clipPath id="clip10"><rect x="0" y="0" width="1340" height="833"/></clipPath><clipPath id="clip11"><rect x="0" y="0" width="1340" height="833"/></clipPath><clipPath id="clip12"><rect x="0" y="0" width="1340" height="833"/></clipPath><clipPath id="clip13"><rect x="0" y="0" width="1340" height="833"/></clipPath><clipPath id="clip14"><rect x="0" y="0" width="1340" height="833"/></clipPath><clipPath id="clip15"><rect x="0" y="0" width="1340" height="833"/></clipPath></defs><g clip-path="url(#clip0)" transform="translate(1 1)"><rect x="0" y="0" width="1341" height="834" fill="#FFFFFF"/><g clip-path="url(#clip1)"><rect x="403" y="209" width="535" height="535" fill="#FFFFFF"/></g><g clip-path="url(#clip2)"><path d="M670.522 423.514 716.524 450.515M716.524 450.515 716.524 503.517M716.524 503.517 670.522 530.518M670.522 530.518 623.521 503.517M623.521 503.517 623.521 450.515M623.521 450.515 670.522 423.514M670.522 369.512 762.525 423.514M762.525 423.514 762.525 530.518M762.525 530.518 670.522 583.519M670.522 583.519 577.519 530.518M577.519 530.518 577.519 423.514M577.519 423.514 670.522 369.512M670.522 316.511 809.527 396.513M809.527 396.513 809.527 556.518M809.527 556.518 670.522 637.521M670.522 637.521 531.518 556.518M531.518 556.518 531.518 396.513M531.518 396.513 670.522 316.511M670.522 262.509 855.528 369.512M855.528 369.512 855.528 583.519M855.528 583.519 670.522 690.523M670.522 690.523 485.516 583.519M485.516 583.519 485.516 369.512M485.516 369.512 670.522 262.509M670.522 209.5 901.5 343.511M901.5 343.511 901.5 610.52M901.5 610.52 670.522 744.5M670.522 744.5 438.5 610.52M438.5 610.52 438.5 343.511M438.5 343.511 670.522 209.5" stroke="#D9D9D9" stroke-width="3.4375" stroke-linejoin="round" stroke-miterlimit="10" fill="none"/></g><g clip-path="url(#clip3)"><path d="M517.5 388.513 670.522 273.5 878.5 356.512 869.529 591.52 670.522 744.5 531.518 556.518 517.5 388.513" stroke="#4472C4" stroke-width="6.875" stroke-linecap="round" stroke-linejoin="round" stroke-miterlimit="10" fill="none"/></g><g clip-path="url(#clip4)"><text fill="#595959" font-family="Calibri,Calibri_MSFontService,sans-serif" font-weight="400" font-size="41" transform="matrix(1 0 0 1 578.817 183)">Printability</text></g><g clip-path="url(#clip5)"><text fill="#595959" font-family="Calibri,Calibri_MSFontService,sans-serif" font-weight="400" font-size="41" transform="matrix(1 0 0 1 911.137 349)">Strength</text></g><g clip-path="url(#clip6)"><text fill="#595959" font-family="Calibri,Calibri_MSFontService,sans-serif" font-weight="400" font-size="41" transform="matrix(1 0 0 1 911.137 627)">Stiffness</text></g><g clip-path="url(#clip7)"><text fill="#595959" font-family="Calibri,Calibri_MSFontService,sans-serif" font-weight="400" font-size="41" transform="matrix(1 0 0 1 588.431 794)">Durability</text></g><g clip-path="url(#clip8)"><text fill="#595959" font-family="Calibri,Calibri_MSFontService,sans-serif" font-weight="400" font-size="41" transform="matrix(1 0 0 1 263.904 602)">Chemical</text></g><g clip-path="url(#clip9)"><text fill="#595959" font-family="Calibri,Calibri_MSFontService,sans-serif" font-weight="400" font-size="41" transform="matrix(1 0 0 1 251.609 653)">Resistance</text></g><g clip-path="url(#clip10)"><text fill="#595959" font-family="Calibri,Calibri_MSFontService,sans-serif" font-weight="400" font-size="41" transform="matrix(1 0 0 1 162.485 349)">Heat Resistance</text></g><g clip-path="url(#clip11)"><text fill="#595959" font-family="Calibri,Calibri_MSFontService,sans-serif" font-weight="400" font-size="64" transform="matrix(1 0 0 1 534.382 95)">PC</text></g><g clip-path="url(#clip12)"><text fill="#595959" font-family="Calibri,Calibri_MSFontService,sans-serif" font-weight="400" font-size="64" transform="matrix(1 0 0 1 601.734 95)">-</text></g><g clip-path="url(#clip13)"><text fill="#595959" font-family="Calibri,Calibri_MSFontService,sans-serif" font-weight="400" font-size="64" transform="matrix(1 0 0 1 621.374 95)">ABS</text></g><g clip-path="url(#clip14)"><text fill="#595959" font-family="Calibri,Calibri_MSFontService,sans-serif" font-weight="400" font-size="64" transform="matrix(1 0 0 1 722.894 95)">-</text></g><g clip-path="url(#clip15)"><text fill="#595959" font-family="Calibri,Calibri_MSFontService,sans-serif" font-weight="400" font-size="64" transform="matrix(1 0 0 1 742.534 95)">CF</text></g><rect x="0" y="0" width="1341" height="834" stroke="#898989" stroke-width="2.29167" stroke-linejoin="round" stroke-miterlimit="10" fill="none"/></g></svg>