<svg width="16" height="16" viewBox="0 0 16 16" fill="none" xmlns="http://www.w3.org/2000/svg">
<path d="M9.66667 3.66557L12.3333 6.33223M2 13.9989H4.66667L13.3333 5.33223C13.687 4.97861 13.8856 4.499 13.8856 3.9989C13.8856 3.4988 13.687 3.01919 13.3333 2.66557C12.9797 2.31194 12.5001 2.11328 12 2.11328C11.4999 2.11328 11.0203 2.31194 10.6667 2.66557L2 11.3322V13.9989Z" stroke="#72777F" stroke-linecap="round" stroke-linejoin="round"/>
<path d="M8 5.33333L4.66667 2L2 4.66667L5.33333 8M4.66667 5.33333L3.66667 6.33333M10.6667 8L14 11.3333L11.3333 14L8 10.6667M10.6667 11.3333L9.66667 12.3333" stroke="#72777F" stroke-linecap="round" stroke-linejoin="round"/>
</svg>
