<svg width="12" height="14" viewBox="0 0 12 14" fill="none" xmlns="http://www.w3.org/2000/svg">
<path fill-rule="evenodd" clip-rule="evenodd" d="M10.6667 1.66536H10V0.332031H8.66667V1.66536H3.33333V0.332031H2V1.66536H1.33333C0.593333 1.66536 0 2.26536 0 2.9987V12.332C0 13.0654 0.593333 13.6654 1.33333 13.6654H10.6667C11.4 13.6654 12 13.0654 12 12.332V2.9987C12 2.26536 11.4 1.66536 10.6667 1.66536ZM10.6667 12.332H1.33333V4.9987H10.6667V12.332ZM2.33333 7.66536C2.33333 6.74536 3.08 5.9987 4 5.9987C4.92 5.9987 5.66667 6.74536 5.66667 7.66536C5.66667 8.58537 4.92 9.33203 4 9.33203C3.08 9.33203 2.33333 8.58537 2.33333 7.66536Z" fill="#72777F"/>
</svg>
