<svg width="20" height="22" viewBox="0 0 20 22" fill="none" xmlns="http://www.w3.org/2000/svg">
<path fill-rule="evenodd" clip-rule="evenodd" d="M13.31 20.0317C13.21 20.7117 12.59 21.2517 11.85 21.2517H8.14999C7.40999 21.2517 6.78999 20.7117 6.69999 19.9817L6.42999 18.0917C6.15999 17.9517 5.89999 17.8017 5.63999 17.6317L3.83999 18.3517C3.13999 18.6117 2.36999 18.3217 2.02999 17.7017L0.19999 14.5317C-0.15001 13.8717 -9.83477e-06 13.0917 0.55999 12.6517L2.08999 11.4617C2.07999 11.3117 2.06999 11.1617 2.06999 11.0017C2.06999 10.8517 2.07999 10.6917 2.08999 10.5417L0.56999 9.35172C-0.0200098 8.90172 -0.17001 8.09172 0.19999 7.47172L2.04999 4.28172C2.38999 3.66172 3.15999 3.38172 3.83999 3.65172L5.64999 4.38172C5.90999 4.21172 6.16999 4.06172 6.42999 3.92172L6.69999 2.01172C6.78999 1.31172 7.40999 0.761719 8.13999 0.761719H11.84C12.58 0.761719 13.2 1.30172 13.29 2.03172L13.56 3.92172C13.83 4.06172 14.09 4.21172 14.35 4.38172L16.15 3.66172C16.86 3.40172 17.63 3.69172 17.97 4.31172L19.81 7.49172C20.17 8.15172 20.01 8.93172 19.45 9.37172L17.93 10.5617C17.94 10.7117 17.95 10.8617 17.95 11.0217C17.95 11.1817 17.94 11.3317 17.93 11.4817L19.45 12.6717C20.01 13.1217 20.17 13.9017 19.82 14.5317L17.96 17.7517C17.62 18.3717 16.85 18.6517 16.16 18.3817L14.36 17.6617C14.1 17.8317 13.84 17.9817 13.58 18.1217L13.31 20.0317ZM8.61999 19.2517H11.38L11.75 16.7017L12.28 16.4817C12.72 16.3017 13.16 16.0417 13.62 15.7017L14.07 15.3617L16.45 16.3217L17.83 13.9217L15.8 12.3417L15.87 11.7817L15.8731 11.7548C15.902 11.5044 15.93 11.2624 15.93 11.0017C15.93 10.7317 15.9 10.4717 15.87 10.2217L15.8 9.66172L17.83 8.08172L16.44 5.68172L14.05 6.64172L13.6 6.29172C13.18 5.97172 12.73 5.71172 12.27 5.52172L11.75 5.30172L11.38 2.75172H8.61999L8.24999 5.30172L7.71999 5.51172C7.27999 5.70172 6.83999 5.95172 6.37999 6.30172L5.92999 6.63172L3.54999 5.68172L2.15999 8.07172L4.18999 9.65172L4.11999 10.2117C4.08999 10.4717 4.05999 10.7417 4.05999 11.0017C4.05999 11.2617 4.07999 11.5317 4.11999 11.7817L4.18999 12.3417L2.15999 13.9217L3.53999 16.3217L5.92999 15.3617L6.37999 15.7117C6.80999 16.0417 7.23999 16.2917 7.70999 16.4817L8.23999 16.7017L8.61999 19.2517ZM13.5 11.0017C13.5 12.9347 11.933 14.5017 9.99999 14.5017C8.06699 14.5017 6.49999 12.9347 6.49999 11.0017C6.49999 9.06872 8.06699 7.50172 9.99999 7.50172C11.933 7.50172 13.5 9.06872 13.5 11.0017Z" fill="#001C2E"/>
</svg>
