<svg width="24" height="24" viewBox="0 0 24 24" fill="none" xmlns="http://www.w3.org/2000/svg">
<path d="M24 3.45841C24 4.10441 23.582 4.63841 22.859 4.63841C22.136 4.63841 21.717 4.10441 21.717 3.45841C21.717 2.81141 22.136 2.27841 22.859 2.27841C23.582 2.27841 24 2.81141 24 3.45841ZM23.772 3.45841C23.772 2.92541 23.392 2.50741 22.859 2.50741C22.326 2.50741 21.946 2.88741 21.946 3.45741C21.946 3.99041 22.326 4.40941 22.859 4.40941C23.429 4.40941 23.772 3.99041 23.772 3.45841ZM22.402 2.92541H22.897C23.163 2.92541 23.353 3.07741 23.353 3.30541C23.353 3.45841 23.277 3.53441 23.163 3.61041L23.353 3.87641V3.91441H23.087L22.897 3.64841H22.668V3.91441H22.402V2.92541ZM22.897 3.15341H22.668V3.42041H22.897C23.011 3.42041 23.049 3.38241 23.049 3.30641C23.087 3.22941 23.011 3.15341 22.897 3.15341ZM7.60202 12.3994C7.64582 12.2511 7.67135 12.0979 7.67802 11.9434C7.67802 11.8294 7.64002 11.7154 7.64002 11.6014C7.52602 11.2584 7.33602 10.9544 6.99402 10.7634L2.12402 7.98641C1.43902 7.60641 0.564024 7.83441 0.184024 8.51941C-0.196976 9.20441 0.0310243 10.0794 0.716024 10.4594L3.41702 12.0194L0.716024 13.5794C0.0310243 13.9594 -0.196976 14.8354 0.183024 15.5194C0.563024 16.2044 1.43902 16.4334 2.12302 16.0524L6.95502 13.2754C7.29802 13.0084 7.52602 12.7424 7.60202 12.3994ZM8.93402 15.0254C8.66802 14.9874 8.36402 15.0634 8.09702 15.2154L3.26502 17.9924C2.58002 18.3724 2.35202 19.2484 2.73302 19.9324C3.11302 20.6184 3.98802 20.8464 4.67302 20.4654L7.37402 18.9054V22.0254C7.37402 22.8254 8.02102 23.4334 8.82002 23.4334C9.61902 23.4334 10.227 22.7864 10.227 22.0254V16.4334C10.227 15.6724 9.65702 15.0634 8.93402 15.0254ZM13.88 8.93741C14.146 8.97541 14.45 8.89941 14.717 8.74741L19.549 5.97041C20.234 5.59041 20.462 4.71441 20.081 4.03041C19.701 3.34441 18.826 3.11641 18.141 3.49741L15.44 5.05741V1.97441C15.44 1.17541 14.793 0.566406 13.994 0.566406C13.195 0.566406 12.548 1.17541 12.548 1.97441V7.52941C12.548 8.28941 13.157 8.90041 13.88 8.93741ZM3.26502 5.96941L8.09702 8.74641C8.36302 8.89841 8.63002 8.93641 8.93402 8.93641C9.65702 8.89841 10.265 8.25241 10.265 7.52941V1.97441C10.265 1.17541 9.61902 0.566406 8.85802 0.566406C8.05902 0.566406 7.41202 1.21341 7.41202 1.97441V5.09441L4.71102 3.53441C4.02602 3.15441 3.15102 3.38241 2.77102 4.06741C2.35202 4.71341 2.58102 5.58841 3.26502 5.96941ZM12.358 11.9804C12.3534 11.8809 12.3129 11.7864 12.244 11.7144L11.674 11.1434C11.6404 11.1062 11.5992 11.0767 11.5531 11.057C11.507 11.0374 11.4571 11.0279 11.407 11.0294C11.3075 11.034 11.213 11.0745 11.141 11.1434L10.57 11.7134C10.5008 11.7856 10.4603 11.8805 10.456 11.9804C10.456 12.0564 10.494 12.1704 10.57 12.2474L11.14 12.8174C11.1736 12.8547 11.2148 12.8842 11.2609 12.9039C11.3071 12.9235 11.3569 12.9329 11.407 12.9314C11.5066 12.927 11.6012 12.8865 11.673 12.8174L12.244 12.2474C12.3132 12.1752 12.3537 12.0803 12.358 11.9804ZM13.956 12.5134L11.94 14.5294C11.901 14.5674 11.787 14.6434 11.711 14.6434H11.103C11.0031 14.6392 10.9082 14.5986 10.836 14.5294L8.82002 12.5134C8.77218 12.4465 8.74569 12.3667 8.74402 12.2844V11.6764C8.74402 11.6004 8.78202 11.4864 8.85802 11.4094L10.874 9.39341C10.9461 9.32411 11.0411 9.28357 11.141 9.27941H11.749C11.8489 9.28357 11.9439 9.32411 12.016 9.39341L14.032 11.4094C14.0692 11.443 14.0986 11.4843 14.1183 11.5304C14.138 11.5765 14.1474 11.6263 14.146 11.6764V12.2844C14.07 12.3614 14.032 12.4744 13.956 12.5134ZM19.549 17.9534L14.717 15.1764C14.451 15.0244 14.147 14.9864 13.88 15.0244C13.157 15.0624 12.548 15.7084 12.548 16.4324V21.9864C12.548 22.7864 13.195 23.3944 13.956 23.3944C14.755 23.3944 15.402 22.7474 15.402 21.9864V18.8664L18.102 20.4264C18.788 20.8064 19.663 20.5784 20.043 19.8934C20.462 19.2474 20.233 18.3724 19.549 17.9534ZM22.098 10.4204L19.397 11.9804L22.097 13.5404C22.783 13.9204 23.011 14.7964 22.63 15.4804C22.25 16.1654 21.375 16.3934 20.69 16.0134L15.858 13.2354C15.5626 13.0454 15.3359 12.7657 15.211 12.4374C15.174 12.2844 15.135 12.1324 15.135 11.9804C15.135 11.8664 15.174 11.7524 15.174 11.6384C15.288 11.2954 15.516 10.9914 15.82 10.8014L20.652 8.02341C21.337 7.64341 22.212 7.87141 22.592 8.55641C23.049 9.16541 22.782 10.0404 22.098 10.4204Z" fill="#008CE6"/>
</svg>
