<svg width="12" height="20" viewBox="0 0 12 20" fill="none" xmlns="http://www.w3.org/2000/svg">
<path d="M0.000125795 0V0.398449C0.000125795 4.74642 1.59697 8.48634 4.03192 9.87001V10.1299C1.59693 11.5136 8.36506e-05 15.2535 8.36506e-05 19.6015V20H12V19.6015C12 15.228 10.3761 11.4869 7.91854 10.1259V9.87402C10.376 8.51286 12 4.77175 12 0.398407V0H0H0.000125795ZM0.792607 0.796856H11.2076C11.1039 4.90993 9.41892 8.28236 7.36015 9.27957L7.13656 9.38755V10.6137L7.36019 10.7216C9.41884 11.7188 11.1038 15.0902 11.2076 19.203H0.792607C0.895386 15.1133 2.55547 11.7365 4.59557 10.7189L4.81527 10.6097V9.39024L4.59557 9.28097C2.55555 8.26342 0.895344 4.8866 0.792607 0.796856ZM9.73375 4.46981C7.32299 5.65582 4.52255 5.6571 2.30308 4.64445C2.91632 6.81539 4.1367 8.36057 5.57252 8.61594C5.50552 8.70609 5.46923 8.81605 5.46915 8.92914C5.46915 9.21743 5.69882 9.45156 5.9818 9.45156C6.26477 9.45156 6.49444 9.21743 6.49444 8.92914C6.49444 8.81314 6.45648 8.70661 6.39375 8.61995C7.87627 8.36918 9.13431 6.74046 9.73375 4.46981ZM5.9818 10.0926C5.69882 10.0926 5.46915 10.3267 5.46915 10.6151C5.46915 10.9034 5.69882 11.1375 5.9818 11.1375C6.26477 11.1375 6.49444 10.9034 6.49444 10.6151C6.49444 10.3267 6.26477 10.0926 5.9818 10.0926ZM5.9818 11.7678C5.69882 11.7678 5.46915 12.0019 5.46915 12.2902C5.46915 12.5786 5.69882 12.8126 5.9818 12.8126C6.26477 12.8126 6.49444 12.5786 6.49444 12.2902C6.49444 12.0019 6.26477 11.7678 5.9818 11.7678ZM5.9818 13.4538C5.69882 13.4538 5.46915 13.6878 5.46915 13.9762C5.46915 14.2645 5.69882 14.4986 5.9818 14.4986C6.26477 14.4986 6.49444 14.2645 6.49444 13.9762C6.49444 13.6878 6.26477 13.4538 5.9818 13.4538ZM5.98703 15.1556C5.01573 15.1676 4.05405 16.2546 2.81438 18.3821H9.21717C7.93984 16.207 6.95833 15.1437 5.98703 15.1556Z" fill="#72777F"/>
</svg>
