<svg width="32" height="30" viewBox="0 0 32 30" fill="none" xmlns="http://www.w3.org/2000/svg">
<path d="M12.914 2.09319C14.232 -0.374812 17.768 -0.374812 19.086 2.09319L31.25 24.8492C31.535 25.3824 31.6771 25.9804 31.6623 26.5848C31.6475 27.1893 31.4764 27.7796 31.1656 28.2982C30.8548 28.8168 30.415 29.2461 29.8889 29.5442C29.3629 29.8423 28.7686 29.9991 28.164 29.9992H3.83601C3.23138 29.9991 2.6371 29.8423 2.11107 29.5442C1.58503 29.2461 1.1452 28.8168 0.834417 28.2982C0.523636 27.7796 0.352511 27.1893 0.337718 26.5848C0.322925 25.9804 0.464968 25.3824 0.750005 24.8492L12.914 2.09319ZM16.44 3.50719C16.3972 3.42781 16.3336 3.3615 16.2562 3.31529C16.1787 3.26907 16.0902 3.24467 16 3.24467C15.9098 3.24467 15.8213 3.26907 15.7438 3.31529C15.6664 3.3615 15.6028 3.42781 15.56 3.50719L3.39601 26.2632C3.35525 26.3393 3.3349 26.4247 3.33694 26.511C3.33898 26.5973 3.36334 26.6816 3.40765 26.7557C3.45195 26.8299 3.51469 26.8912 3.58976 26.9339C3.66483 26.9766 3.74966 26.9991 3.83601 26.9992H28.164C28.2503 26.9991 28.3352 26.9766 28.4103 26.9339C28.4853 26.8912 28.5481 26.8299 28.5924 26.7557C28.6367 26.6816 28.661 26.5973 28.6631 26.511C28.6651 26.4247 28.6448 26.3393 28.604 26.2632L16.44 3.50719ZM17.5 11.4992V16.4992C17.5 16.897 17.342 17.2785 17.0607 17.5598C16.7794 17.8412 16.3978 17.9992 16 17.9992C15.6022 17.9992 15.2206 17.8412 14.9393 17.5598C14.658 17.2785 14.5 16.897 14.5 16.4992V11.4992C14.5 11.1014 14.658 10.7198 14.9393 10.4385C15.2206 10.1572 15.6022 9.99919 16 9.99919C16.3978 9.99919 16.7794 10.1572 17.0607 10.4385C17.342 10.7198 17.5 11.1014 17.5 11.4992ZM18 21.9992C18 22.5296 17.7893 23.0383 17.4142 23.4134C17.0391 23.7885 16.5304 23.9992 16 23.9992C15.4696 23.9992 14.9609 23.7885 14.5858 23.4134C14.2107 23.0383 14 22.5296 14 21.9992C14 21.4688 14.2107 20.96 14.5858 20.585C14.9609 20.2099 15.4696 19.9992 16 19.9992C16.5304 19.9992 17.0391 20.2099 17.4142 20.585C17.7893 20.96 18 21.4688 18 21.9992Z" fill="#E2AB0D"/>
</svg>
