<svg width="16" height="16" viewBox="0 0 16 16" fill="none" xmlns="http://www.w3.org/2000/svg">
<path d="M6.99935 10.333C6.99935 10.5797 6.93268 10.7997 6.81268 10.9997C6.58602 10.6063 6.15935 10.333 5.66602 10.333C5.17268 10.333 4.74602 10.6063 4.51935 10.9997C4.40602 10.7997 4.33268 10.5797 4.33268 10.333C4.33268 9.59967 4.93268 8.99967 5.66602 8.99967C6.39935 8.99967 6.99935 9.59967 6.99935 10.333ZM15.3327 9.99967V11.9997C15.3327 12.3663 15.0327 12.6663 14.666 12.6663H13.9993V13.333C13.9993 14.073 13.406 14.6663 12.666 14.6663H3.33268C2.97906 14.6663 2.63992 14.5259 2.38987 14.2758C2.13982 14.0258 1.99935 13.6866 1.99935 13.333V12.6663H1.33268C0.966016 12.6663 0.666016 12.3663 0.666016 11.9997V9.99967C0.666016 9.63301 0.966016 9.33301 1.33268 9.33301H1.99935C1.99935 6.75301 4.08602 4.66634 6.66602 4.66634H7.33268V3.81967C6.93268 3.59301 6.66602 3.15967 6.66602 2.66634C6.66602 1.93301 7.26602 1.33301 7.99935 1.33301C8.73268 1.33301 9.33268 1.93301 9.33268 2.66634C9.33268 3.15967 9.06602 3.59301 8.66602 3.81967V4.66634H9.33268C11.9127 4.66634 13.9993 6.75301 13.9993 9.33301H14.666C15.0327 9.33301 15.3327 9.63301 15.3327 9.99967ZM13.9993 10.6663H12.666V9.33301C12.666 7.49301 11.1727 5.99967 9.33268 5.99967H6.66602C4.82602 5.99967 3.33268 7.49301 3.33268 9.33301V10.6663H1.99935V11.333H3.33268V13.333H12.666V11.333H13.9993V10.6663ZM10.3327 8.99967C9.59935 8.99967 8.99935 9.59967 8.99935 10.333C8.99935 10.5797 9.07268 10.7997 9.18602 10.9997C9.41268 10.6063 9.83935 10.333 10.3327 10.333C10.826 10.333 11.2527 10.6063 11.4793 10.9997C11.5993 10.7997 11.666 10.5797 11.666 10.333C11.666 9.97939 11.5255 9.64025 11.2755 9.3902C11.0254 9.14015 10.6863 8.99967 10.3327 8.99967Z" fill="#72777F"/>
</svg>
