<svg width="24" height="24" viewBox="0 0 24 24" fill="none" xmlns="http://www.w3.org/2000/svg">
<path d="M6.64314 2.14258C5.90432 2.14258 5.19576 2.43607 4.67334 2.95849C4.15092 3.48092 3.85742 4.18948 3.85742 4.92829V19.0712C3.85742 19.81 4.15092 20.5185 4.67334 21.0409C5.19576 21.5634 5.90432 21.8569 6.64314 21.8569H12.7803C12.4305 21.4663 12.1298 21.0345 11.8846 20.5712H6.64314C6.28245 20.5711 5.93384 20.4412 5.66118 20.205C5.38853 19.9689 5.21009 19.6424 5.15856 19.2854H11.3746C11.2585 18.8654 11.1856 18.4346 11.1568 17.9997H5.14314V4.92829C5.14314 4.10029 5.81514 3.42829 6.64314 3.42829H17.3574C18.1854 3.42829 18.8574 4.10029 18.8574 4.92829V11.2711C19.2991 11.3608 19.7301 11.497 20.1431 11.6774V4.92829C20.1431 4.18948 19.8496 3.48092 19.3272 2.95849C18.8048 2.43607 18.0962 2.14258 17.3574 2.14258H6.64314ZM7.92885 5.14258C7.33742 5.14258 6.85742 5.62258 6.85742 6.21401V7.92829C6.85742 8.51972 7.33742 8.99972 7.92885 8.99972H16.0717C16.6631 8.99972 17.1431 8.51972 17.1431 7.92829V6.21401C17.1431 5.62258 16.6631 5.14258 16.0717 5.14258H7.92885ZM8.14314 7.71401V6.42829H15.8574V7.71401H8.14314Z" fill="#043365"/>
<circle cx="17.1429" cy="17.1429" r="4.64286" stroke="#043365"/>
<path d="M17.7323 16.2913L17.9951 16.5541L15.4066 19.1427H15.1437V18.8799L17.7323 16.2913ZM18.7608 14.5713C18.6894 14.5713 18.6151 14.5999 18.5608 14.6541L18.038 15.177L19.1094 16.2484L19.6323 15.7256C19.6588 15.6991 19.6798 15.6677 19.6941 15.6332C19.7084 15.5986 19.7158 15.5616 19.7158 15.5241C19.7158 15.4867 19.7084 15.4497 19.6941 15.4151C19.6798 15.3805 19.6588 15.3492 19.6323 15.3227L18.9637 14.6541C18.9066 14.597 18.8351 14.5713 18.7608 14.5713ZM17.7323 15.4827L14.5723 18.6427V19.7141H15.6437L18.8037 16.5541L17.7323 15.4827Z" fill="#043365"/>
</svg>
