<svg width="24" height="24" viewBox="0 0 24 24" fill="none" xmlns="http://www.w3.org/2000/svg">
<path d="M6.64314 2.14258C5.90432 2.14258 5.19576 2.43607 4.67334 2.95849C4.15092 3.48092 3.85742 4.18948 3.85742 4.92829V19.0711C3.85742 19.81 4.15092 20.5185 4.67334 21.0409C5.19576 21.5634 5.90432 21.8569 6.64314 21.8569H12.7803C12.4305 21.4663 12.1298 21.0345 11.8846 20.5711H6.64314C6.28245 20.5711 5.93384 20.4412 5.66118 20.205C5.38853 19.9689 5.21009 19.6424 5.15856 19.2854H11.3746C11.2585 18.8654 11.1856 18.4346 11.1568 17.9997H5.14314V4.92829C5.14314 4.10029 5.81514 3.42829 6.64314 3.42829H17.3574C18.1854 3.42829 18.8574 4.10029 18.8574 4.92829V11.2711C19.2991 11.3608 19.7301 11.497 20.1431 11.6774V4.92829C20.1431 4.18948 19.8496 3.48092 19.3272 2.95849C18.8048 2.43607 18.0962 2.14258 17.3574 2.14258H6.64314ZM7.92885 5.14258C7.33742 5.14258 6.85742 5.62258 6.85742 6.21401V7.92829C6.85742 8.51972 7.33742 8.99972 7.92885 8.99972H16.0717C16.6631 8.99972 17.1431 8.51972 17.1431 7.92829V6.21401C17.1431 5.62258 16.6631 5.14258 16.0717 5.14258H7.92885ZM8.14314 7.71401V6.42829H15.8574V7.71401H8.14314ZM23.1431 17.5711C23.1431 19.0488 22.5561 20.4659 21.5113 21.5107C20.4665 22.5556 19.0493 23.1426 17.5717 23.1426C16.0941 23.1426 14.677 22.5556 13.6321 21.5107C12.5873 20.4659 12.0003 19.0488 12.0003 17.5711C12.0003 16.0935 12.5873 14.6764 13.6321 13.6316C14.677 12.5867 16.0941 11.9997 17.5717 11.9997C19.0493 11.9997 20.4665 12.5867 21.5113 13.6316C22.5561 14.6764 23.1431 16.0935 23.1431 17.5711ZM18.0003 14.1426C18.0003 14.0289 17.9551 13.9199 17.8748 13.8395C17.7944 13.7592 17.6854 13.714 17.5717 13.714C17.458 13.714 17.349 13.7592 17.2687 13.8395C17.1883 13.9199 17.1431 14.0289 17.1431 14.1426V17.1426H14.1431C14.0295 17.1426 13.9205 17.1877 13.8401 17.2681C13.7597 17.3485 13.7146 17.4575 13.7146 17.5711C13.7146 17.6848 13.7597 17.7938 13.8401 17.8742C13.9205 17.9546 14.0295 17.9997 14.1431 17.9997H17.1431V20.9997C17.1431 21.1134 17.1883 21.2224 17.2687 21.3028C17.349 21.3831 17.458 21.4283 17.5717 21.4283C17.6854 21.4283 17.7944 21.3831 17.8748 21.3028C17.9551 21.2224 18.0003 21.1134 18.0003 20.9997V17.9997H21.0003C21.1139 17.9997 21.223 17.9546 21.3033 17.8742C21.3837 17.7938 21.4289 17.6848 21.4289 17.5711C21.4289 17.4575 21.3837 17.3485 21.3033 17.2681C21.223 17.1877 21.1139 17.1426 21.0003 17.1426H18.0003V14.1426Z" fill="#043365"/>
</svg>
