<svg width="345" height="251" viewBox="0 0 345 251" fill="none" xmlns="http://www.w3.org/2000/svg">
<path d="M157.84 5.92871L154.545 15H153.198L156.992 5.04688H157.86L157.84 5.92871ZM160.602 15L157.3 5.92871L157.279 5.04688H158.147L161.955 15H160.602ZM160.431 11.3154V12.3955H154.839V11.3154H160.431ZM166.307 14.0977C166.607 14.0977 166.885 14.0361 167.141 13.9131C167.396 13.79 167.605 13.6214 167.77 13.4072C167.934 13.1885 168.027 12.9401 168.05 12.6621H169.253C169.23 13.0996 169.082 13.5075 168.809 13.8857C168.54 14.2594 168.187 14.5625 167.749 14.7949C167.312 15.0228 166.831 15.1367 166.307 15.1367C165.751 15.1367 165.265 15.0387 164.851 14.8428C164.44 14.6468 164.099 14.3779 163.825 14.0361C163.556 13.6943 163.354 13.3024 163.217 12.8604C163.085 12.4137 163.019 11.9421 163.019 11.4453V11.1582C163.019 10.6615 163.085 10.1921 163.217 9.75C163.354 9.30339 163.556 8.90918 163.825 8.56738C164.099 8.22559 164.44 7.95671 164.851 7.76074C165.265 7.56478 165.751 7.4668 166.307 7.4668C166.885 7.4668 167.391 7.58529 167.824 7.82227C168.257 8.05469 168.597 8.3737 168.843 8.7793C169.093 9.18034 169.23 9.63607 169.253 10.1465H168.05C168.027 9.84115 167.94 9.56543 167.79 9.31934C167.644 9.07324 167.444 8.87728 167.188 8.73145C166.938 8.58105 166.644 8.50586 166.307 8.50586C165.919 8.50586 165.593 8.58333 165.329 8.73828C165.069 8.88867 164.862 9.09375 164.707 9.35352C164.557 9.60872 164.447 9.89355 164.379 10.208C164.315 10.5179 164.283 10.8346 164.283 11.1582V11.4453C164.283 11.7689 164.315 12.0879 164.379 12.4023C164.443 12.7168 164.55 13.0016 164.7 13.2568C164.855 13.512 165.062 13.7171 165.322 13.8721C165.587 14.0225 165.915 14.0977 166.307 14.0977ZM173.885 14.0977C174.186 14.0977 174.464 14.0361 174.719 13.9131C174.974 13.79 175.184 13.6214 175.348 13.4072C175.512 13.1885 175.605 12.9401 175.628 12.6621H176.831C176.808 13.0996 176.66 13.5075 176.387 13.8857C176.118 14.2594 175.765 14.5625 175.327 14.7949C174.89 15.0228 174.409 15.1367 173.885 15.1367C173.329 15.1367 172.843 15.0387 172.429 14.8428C172.019 14.6468 171.677 14.3779 171.403 14.0361C171.134 13.6943 170.932 13.3024 170.795 12.8604C170.663 12.4137 170.597 11.9421 170.597 11.4453V11.1582C170.597 10.6615 170.663 10.1921 170.795 9.75C170.932 9.30339 171.134 8.90918 171.403 8.56738C171.677 8.22559 172.019 7.95671 172.429 7.76074C172.843 7.56478 173.329 7.4668 173.885 7.4668C174.464 7.4668 174.969 7.58529 175.402 7.82227C175.835 8.05469 176.175 8.3737 176.421 8.7793C176.672 9.18034 176.808 9.63607 176.831 10.1465H175.628C175.605 9.84115 175.519 9.56543 175.368 9.31934C175.222 9.07324 175.022 8.87728 174.767 8.73145C174.516 8.58105 174.222 8.50586 173.885 8.50586C173.497 8.50586 173.172 8.58333 172.907 8.73828C172.647 8.88867 172.44 9.09375 172.285 9.35352C172.135 9.60872 172.025 9.89355 171.957 10.208C171.893 10.5179 171.861 10.8346 171.861 11.1582V11.4453C171.861 11.7689 171.893 12.0879 171.957 12.4023C172.021 12.7168 172.128 13.0016 172.278 13.2568C172.433 13.512 172.641 13.7171 172.9 13.8721C173.165 14.0225 173.493 14.0977 173.885 14.0977ZM183.028 13.291V7.60352H184.3V15H183.09L183.028 13.291ZM183.268 11.7324L183.794 11.7188C183.794 12.2109 183.742 12.6667 183.637 13.0859C183.536 13.5007 183.372 13.8607 183.145 14.166C182.917 14.4714 182.618 14.7106 182.249 14.8838C181.88 15.0524 181.431 15.1367 180.902 15.1367C180.542 15.1367 180.212 15.0843 179.911 14.9795C179.615 14.8747 179.36 14.7129 179.146 14.4941C178.931 14.2754 178.765 13.9906 178.646 13.6396C178.533 13.2887 178.476 12.8672 178.476 12.375V7.60352H179.74V12.3887C179.74 12.7214 179.777 12.9971 179.85 13.2158C179.927 13.43 180.03 13.6009 180.157 13.7285C180.289 13.8516 180.435 13.9382 180.595 13.9883C180.759 14.0384 180.927 14.0635 181.101 14.0635C181.638 14.0635 182.064 13.9609 182.379 13.7559C182.693 13.5462 182.919 13.266 183.056 12.915C183.197 12.5596 183.268 12.1654 183.268 11.7324ZM187.742 8.76562V15H186.478V7.60352H187.708L187.742 8.76562ZM190.053 7.5625L190.046 8.73828C189.941 8.71549 189.841 8.70182 189.745 8.69727C189.654 8.68815 189.549 8.68359 189.431 8.68359C189.139 8.68359 188.882 8.72917 188.658 8.82031C188.435 8.91146 188.246 9.03906 188.091 9.20312C187.936 9.36719 187.813 9.56315 187.722 9.79102C187.635 10.0143 187.578 10.2604 187.551 10.5293L187.195 10.7344C187.195 10.2878 187.239 9.86849 187.325 9.47656C187.416 9.08464 187.555 8.73828 187.742 8.4375C187.929 8.13216 188.166 7.89518 188.453 7.72656C188.745 7.55339 189.091 7.4668 189.492 7.4668C189.583 7.4668 189.688 7.47819 189.807 7.50098C189.925 7.51921 190.007 7.53971 190.053 7.5625ZM195.56 13.7354V9.92773C195.56 9.63607 195.5 9.38314 195.382 9.16895C195.268 8.9502 195.095 8.78158 194.862 8.66309C194.63 8.5446 194.343 8.48535 194.001 8.48535C193.682 8.48535 193.402 8.54004 193.16 8.64941C192.923 8.75879 192.736 8.90234 192.6 9.08008C192.467 9.25781 192.401 9.44922 192.401 9.6543H191.137C191.137 9.38997 191.205 9.12793 191.342 8.86816C191.479 8.6084 191.674 8.3737 191.93 8.16406C192.189 7.94987 192.499 7.78125 192.859 7.6582C193.224 7.5306 193.63 7.4668 194.076 7.4668C194.614 7.4668 195.088 7.55794 195.498 7.74023C195.913 7.92253 196.236 8.19824 196.469 8.56738C196.706 8.93197 196.824 9.38997 196.824 9.94141V13.3867C196.824 13.6328 196.845 13.8949 196.886 14.1729C196.931 14.4508 196.997 14.6901 197.084 14.8906V15H195.765C195.701 14.8542 195.651 14.6605 195.614 14.4189C195.578 14.1729 195.56 13.945 195.56 13.7354ZM195.778 10.5156L195.792 11.4043H194.514C194.154 11.4043 193.832 11.4339 193.55 11.4932C193.267 11.5479 193.03 11.6322 192.839 11.7461C192.647 11.86 192.502 12.0036 192.401 12.1768C192.301 12.3454 192.251 12.5436 192.251 12.7715C192.251 13.0039 192.303 13.2158 192.408 13.4072C192.513 13.5986 192.67 13.7513 192.88 13.8652C193.094 13.9746 193.356 14.0293 193.666 14.0293C194.053 14.0293 194.395 13.9473 194.691 13.7832C194.988 13.6191 195.222 13.4186 195.396 13.1816C195.573 12.9447 195.669 12.7145 195.683 12.4912L196.223 13.0996C196.191 13.291 196.104 13.5029 195.963 13.7354C195.822 13.9678 195.632 14.1911 195.396 14.4053C195.163 14.6149 194.885 14.7904 194.562 14.9316C194.243 15.0684 193.882 15.1367 193.481 15.1367C192.98 15.1367 192.54 15.0387 192.162 14.8428C191.788 14.6468 191.497 14.3848 191.287 14.0566C191.082 13.724 190.979 13.3525 190.979 12.9424C190.979 12.5459 191.057 12.1973 191.212 11.8965C191.367 11.5911 191.59 11.3382 191.882 11.1377C192.174 10.9326 192.524 10.7777 192.935 10.6729C193.345 10.568 193.803 10.5156 194.309 10.5156H195.778ZM202.023 14.0977C202.324 14.0977 202.602 14.0361 202.857 13.9131C203.113 13.79 203.322 13.6214 203.486 13.4072C203.65 13.1885 203.744 12.9401 203.767 12.6621H204.97C204.947 13.0996 204.799 13.5075 204.525 13.8857C204.257 14.2594 203.903 14.5625 203.466 14.7949C203.028 15.0228 202.548 15.1367 202.023 15.1367C201.467 15.1367 200.982 15.0387 200.567 14.8428C200.157 14.6468 199.815 14.3779 199.542 14.0361C199.273 13.6943 199.07 13.3024 198.934 12.8604C198.801 12.4137 198.735 11.9421 198.735 11.4453V11.1582C198.735 10.6615 198.801 10.1921 198.934 9.75C199.07 9.30339 199.273 8.90918 199.542 8.56738C199.815 8.22559 200.157 7.95671 200.567 7.76074C200.982 7.56478 201.467 7.4668 202.023 7.4668C202.602 7.4668 203.108 7.58529 203.541 7.82227C203.974 8.05469 204.313 8.3737 204.56 8.7793C204.81 9.18034 204.947 9.63607 204.97 10.1465H203.767C203.744 9.84115 203.657 9.56543 203.507 9.31934C203.361 9.07324 203.16 8.87728 202.905 8.73145C202.655 8.58105 202.361 8.50586 202.023 8.50586C201.636 8.50586 201.31 8.58333 201.046 8.73828C200.786 8.88867 200.579 9.09375 200.424 9.35352C200.273 9.60872 200.164 9.89355 200.096 10.208C200.032 10.5179 200 10.8346 200 11.1582V11.4453C200 11.7689 200.032 12.0879 200.096 12.4023C200.16 12.7168 200.267 13.0016 200.417 13.2568C200.572 13.512 200.779 13.7171 201.039 13.8721C201.303 14.0225 201.632 14.0977 202.023 14.0977ZM208.72 14.2344L210.777 7.60352H212.131L209.164 16.1416C209.096 16.3239 209.005 16.5199 208.891 16.7295C208.781 16.9437 208.64 17.1465 208.467 17.3379C208.294 17.5293 208.084 17.6842 207.838 17.8027C207.596 17.9258 207.307 17.9873 206.97 17.9873C206.869 17.9873 206.742 17.9736 206.587 17.9463C206.432 17.9189 206.323 17.8962 206.259 17.8779L206.252 16.8525C206.288 16.8571 206.345 16.8617 206.423 16.8662C206.505 16.8753 206.562 16.8799 206.594 16.8799C206.881 16.8799 207.125 16.8411 207.325 16.7637C207.526 16.6908 207.694 16.5654 207.831 16.3877C207.972 16.2145 208.093 15.9753 208.193 15.6699L208.72 14.2344ZM207.209 7.60352L209.13 13.3457L209.458 14.6787L208.549 15.1436L205.828 7.60352H207.209Z" fill="#42474E"/>
<path d="M254.164 43.835H255.477C255.408 44.4639 255.228 45.0267 254.937 45.5234C254.645 46.0202 254.232 46.4144 253.699 46.7061C253.166 46.9932 252.501 47.1367 251.703 47.1367C251.12 47.1367 250.589 47.0273 250.11 46.8086C249.636 46.5898 249.229 46.2799 248.887 45.8789C248.545 45.4733 248.281 44.988 248.094 44.4229C247.911 43.8532 247.82 43.2197 247.82 42.5225V41.5312C247.82 40.834 247.911 40.2028 248.094 39.6377C248.281 39.068 248.547 38.5804 248.894 38.1748C249.244 37.7692 249.666 37.457 250.158 37.2383C250.65 37.0195 251.204 36.9102 251.819 36.9102C252.571 36.9102 253.207 37.0514 253.727 37.334C254.246 37.6165 254.649 38.0085 254.937 38.5098C255.228 39.0065 255.408 39.583 255.477 40.2393H254.164C254.1 39.7744 253.982 39.3757 253.809 39.043C253.635 38.7057 253.389 38.446 253.07 38.2637C252.751 38.0814 252.334 37.9902 251.819 37.9902C251.377 37.9902 250.988 38.0745 250.65 38.2432C250.318 38.4118 250.037 38.651 249.81 38.9609C249.586 39.2708 249.418 39.6423 249.304 40.0752C249.19 40.5081 249.133 40.9889 249.133 41.5176V42.5225C249.133 43.0101 249.183 43.4681 249.283 43.8965C249.388 44.3249 249.545 44.7008 249.755 45.0244C249.965 45.348 250.231 45.6032 250.555 45.79C250.878 45.9723 251.261 46.0635 251.703 46.0635C252.264 46.0635 252.71 45.9746 253.043 45.7969C253.376 45.6191 253.626 45.3639 253.795 45.0312C253.968 44.6986 254.091 44.2998 254.164 43.835ZM256.998 43.3838V43.2266C256.998 42.6934 257.076 42.1989 257.23 41.7432C257.385 41.2829 257.609 40.8841 257.9 40.5469C258.192 40.2051 258.545 39.9408 258.96 39.7539C259.375 39.5625 259.84 39.4668 260.354 39.4668C260.874 39.4668 261.341 39.5625 261.756 39.7539C262.175 39.9408 262.531 40.2051 262.822 40.5469C263.118 40.8841 263.344 41.2829 263.499 41.7432C263.654 42.1989 263.731 42.6934 263.731 43.2266V43.3838C263.731 43.917 263.654 44.4115 263.499 44.8672C263.344 45.3229 263.118 45.7217 262.822 46.0635C262.531 46.4007 262.177 46.665 261.763 46.8564C261.353 47.0433 260.888 47.1367 260.368 47.1367C259.849 47.1367 259.382 47.0433 258.967 46.8564C258.552 46.665 258.197 46.4007 257.9 46.0635C257.609 45.7217 257.385 45.3229 257.23 44.8672C257.076 44.4115 256.998 43.917 256.998 43.3838ZM258.263 43.2266V43.3838C258.263 43.7529 258.306 44.1016 258.393 44.4297C258.479 44.7533 258.609 45.0404 258.782 45.291C258.96 45.5417 259.181 45.7399 259.445 45.8857C259.71 46.027 260.017 46.0977 260.368 46.0977C260.715 46.0977 261.018 46.027 261.277 45.8857C261.542 45.7399 261.76 45.5417 261.934 45.291C262.107 45.0404 262.237 44.7533 262.323 44.4297C262.414 44.1016 262.46 43.7529 262.46 43.3838V43.2266C262.46 42.862 262.414 42.5179 262.323 42.1943C262.237 41.8662 262.104 41.5768 261.927 41.3262C261.754 41.071 261.535 40.8704 261.271 40.7246C261.011 40.5788 260.705 40.5059 260.354 40.5059C260.008 40.5059 259.703 40.5788 259.438 40.7246C259.179 40.8704 258.96 41.071 258.782 41.3262C258.609 41.5768 258.479 41.8662 258.393 42.1943C258.306 42.5179 258.263 42.862 258.263 43.2266ZM266.832 41.1826V47H265.567V39.6035H266.764L266.832 41.1826ZM266.531 43.0215L266.005 43.001C266.009 42.4951 266.085 42.028 266.23 41.5996C266.376 41.1667 266.581 40.7907 266.846 40.4717C267.11 40.1527 267.424 39.9066 267.789 39.7334C268.158 39.5557 268.566 39.4668 269.013 39.4668C269.377 39.4668 269.705 39.5169 269.997 39.6172C270.289 39.7129 270.537 39.8678 270.742 40.082C270.952 40.2962 271.111 40.5742 271.221 40.916C271.33 41.2533 271.385 41.6657 271.385 42.1533V47H270.113V42.1396C270.113 41.7523 270.056 41.4424 269.942 41.21C269.828 40.973 269.662 40.8021 269.443 40.6973C269.225 40.5879 268.956 40.5332 268.637 40.5332C268.322 40.5332 268.035 40.5993 267.775 40.7314C267.52 40.8636 267.299 41.0459 267.112 41.2783C266.93 41.5107 266.786 41.7773 266.682 42.0781C266.581 42.3743 266.531 42.6888 266.531 43.0215ZM275.442 47H274.178V38.8242C274.178 38.291 274.273 37.8421 274.465 37.4775C274.661 37.1084 274.941 36.8304 275.306 36.6436C275.67 36.4521 276.103 36.3564 276.604 36.3564C276.75 36.3564 276.896 36.3656 277.042 36.3838C277.192 36.402 277.338 36.4294 277.479 36.4658L277.411 37.498C277.315 37.4753 277.206 37.4593 277.083 37.4502C276.965 37.4411 276.846 37.4365 276.728 37.4365C276.459 37.4365 276.226 37.4912 276.03 37.6006C275.839 37.7054 275.693 37.8604 275.593 38.0654C275.493 38.2705 275.442 38.5234 275.442 38.8242V47ZM277.015 39.6035V40.5742H273.009V39.6035H277.015ZM278.338 43.3838V43.2266C278.338 42.6934 278.415 42.1989 278.57 41.7432C278.725 41.2829 278.949 40.8841 279.24 40.5469C279.532 40.2051 279.885 39.9408 280.3 39.7539C280.715 39.5625 281.179 39.4668 281.694 39.4668C282.214 39.4668 282.681 39.5625 283.096 39.7539C283.515 39.9408 283.87 40.2051 284.162 40.5469C284.458 40.8841 284.684 41.2829 284.839 41.7432C284.994 42.1989 285.071 42.6934 285.071 43.2266V43.3838C285.071 43.917 284.994 44.4115 284.839 44.8672C284.684 45.3229 284.458 45.7217 284.162 46.0635C283.87 46.4007 283.517 46.665 283.103 46.8564C282.692 47.0433 282.228 47.1367 281.708 47.1367C281.188 47.1367 280.721 47.0433 280.307 46.8564C279.892 46.665 279.536 46.4007 279.24 46.0635C278.949 45.7217 278.725 45.3229 278.57 44.8672C278.415 44.4115 278.338 43.917 278.338 43.3838ZM279.603 43.2266V43.3838C279.603 43.7529 279.646 44.1016 279.732 44.4297C279.819 44.7533 279.949 45.0404 280.122 45.291C280.3 45.5417 280.521 45.7399 280.785 45.8857C281.049 46.027 281.357 46.0977 281.708 46.0977C282.054 46.0977 282.357 46.027 282.617 45.8857C282.882 45.7399 283.1 45.5417 283.273 45.291C283.447 45.0404 283.576 44.7533 283.663 44.4297C283.754 44.1016 283.8 43.7529 283.8 43.3838V43.2266C283.8 42.862 283.754 42.5179 283.663 42.1943C283.576 41.8662 283.444 41.5768 283.267 41.3262C283.093 41.071 282.875 40.8704 282.61 40.7246C282.351 40.5788 282.045 40.5059 281.694 40.5059C281.348 40.5059 281.043 40.5788 280.778 40.7246C280.519 40.8704 280.3 41.071 280.122 41.3262C279.949 41.5768 279.819 41.8662 279.732 42.1943C279.646 42.5179 279.603 42.862 279.603 43.2266ZM288.172 40.7656V47H286.907V39.6035H288.138L288.172 40.7656ZM290.482 39.5625L290.476 40.7383C290.371 40.7155 290.271 40.7018 290.175 40.6973C290.084 40.6882 289.979 40.6836 289.86 40.6836C289.569 40.6836 289.311 40.7292 289.088 40.8203C288.865 40.9115 288.675 41.0391 288.521 41.2031C288.366 41.3672 288.243 41.5632 288.151 41.791C288.065 42.0143 288.008 42.2604 287.98 42.5293L287.625 42.7344C287.625 42.2878 287.668 41.8685 287.755 41.4766C287.846 41.0846 287.985 40.7383 288.172 40.4375C288.359 40.1322 288.596 39.8952 288.883 39.7266C289.174 39.5534 289.521 39.4668 289.922 39.4668C290.013 39.4668 290.118 39.4782 290.236 39.501C290.355 39.5192 290.437 39.5397 290.482 39.5625ZM293.159 41.0732V47H291.888V39.6035H293.091L293.159 41.0732ZM292.899 43.0215L292.312 43.001C292.316 42.4951 292.382 42.028 292.51 41.5996C292.637 41.1667 292.826 40.7907 293.077 40.4717C293.328 40.1527 293.64 39.9066 294.014 39.7334C294.387 39.5557 294.82 39.4668 295.312 39.4668C295.659 39.4668 295.978 39.5169 296.27 39.6172C296.561 39.7129 296.814 39.8656 297.028 40.0752C297.243 40.2848 297.409 40.5537 297.527 40.8818C297.646 41.21 297.705 41.6064 297.705 42.0713V47H296.44V42.1328C296.44 41.7454 296.374 41.4355 296.242 41.2031C296.115 40.9707 295.932 40.8021 295.695 40.6973C295.458 40.5879 295.18 40.5332 294.861 40.5332C294.488 40.5332 294.175 40.5993 293.925 40.7314C293.674 40.8636 293.474 41.0459 293.323 41.2783C293.173 41.5107 293.063 41.7773 292.995 42.0781C292.931 42.3743 292.899 42.6888 292.899 43.0215ZM297.691 42.3242L296.844 42.584C296.848 42.1784 296.914 41.7887 297.042 41.415C297.174 41.0413 297.363 40.7087 297.609 40.417C297.86 40.1253 298.168 39.8952 298.532 39.7266C298.897 39.5534 299.314 39.4668 299.783 39.4668C300.18 39.4668 300.531 39.5192 300.836 39.624C301.146 39.7288 301.406 39.8906 301.615 40.1094C301.829 40.3236 301.991 40.5993 302.101 40.9365C302.21 41.2738 302.265 41.6748 302.265 42.1396V47H300.993V42.126C300.993 41.7113 300.927 41.39 300.795 41.1621C300.667 40.9297 300.485 40.7679 300.248 40.6768C300.016 40.5811 299.738 40.5332 299.414 40.5332C299.136 40.5332 298.89 40.5811 298.676 40.6768C298.462 40.7725 298.282 40.9046 298.136 41.0732C297.99 41.2373 297.878 41.4264 297.801 41.6406C297.728 41.8548 297.691 42.0827 297.691 42.3242ZM305.803 39.6035V47H304.531V39.6035H305.803ZM304.436 37.6416C304.436 37.4365 304.497 37.2633 304.62 37.1221C304.748 36.9808 304.935 36.9102 305.181 36.9102C305.422 36.9102 305.607 36.9808 305.734 37.1221C305.867 37.2633 305.933 37.4365 305.933 37.6416C305.933 37.8376 305.867 38.0062 305.734 38.1475C305.607 38.2842 305.422 38.3525 305.181 38.3525C304.935 38.3525 304.748 38.2842 304.62 38.1475C304.497 38.0062 304.436 37.8376 304.436 37.6416ZM311.18 39.6035V40.5742H307.181V39.6035H311.18ZM308.534 37.8057H309.799V45.168C309.799 45.4186 309.838 45.6077 309.915 45.7354C309.993 45.863 310.093 45.9473 310.216 45.9883C310.339 46.0293 310.471 46.0498 310.612 46.0498C310.717 46.0498 310.826 46.0407 310.94 46.0225C311.059 45.9997 311.148 45.9814 311.207 45.9678L311.214 47C311.114 47.0319 310.981 47.0615 310.817 47.0889C310.658 47.1208 310.464 47.1367 310.236 47.1367C309.926 47.1367 309.642 47.0752 309.382 46.9521C309.122 46.8291 308.915 46.624 308.76 46.3369C308.609 46.0452 308.534 45.6533 308.534 45.1611V37.8057ZM314.991 46.2344L317.049 39.6035H318.402L315.436 48.1416C315.367 48.3239 315.276 48.5199 315.162 48.7295C315.053 48.9437 314.911 49.1465 314.738 49.3379C314.565 49.5293 314.355 49.6842 314.109 49.8027C313.868 49.9258 313.578 49.9873 313.241 49.9873C313.141 49.9873 313.013 49.9736 312.858 49.9463C312.703 49.9189 312.594 49.8962 312.53 49.8779L312.523 48.8525C312.56 48.8571 312.617 48.8617 312.694 48.8662C312.776 48.8753 312.833 48.8799 312.865 48.8799C313.152 48.8799 313.396 48.8411 313.597 48.7637C313.797 48.6908 313.966 48.5654 314.103 48.3877C314.244 48.2145 314.365 47.9753 314.465 47.6699L314.991 46.2344ZM313.48 39.6035L315.401 45.3457L315.729 46.6787L314.82 47.1436L312.1 39.6035H313.48Z" fill="#42474E"/>
<path d="M58.1641 242.835H59.4766C59.4082 243.464 59.2282 244.027 58.9365 244.523C58.6449 245.02 58.2324 245.414 57.6992 245.706C57.166 245.993 56.5007 246.137 55.7031 246.137C55.1198 246.137 54.5889 246.027 54.1104 245.809C53.6364 245.59 53.2285 245.28 52.8867 244.879C52.5449 244.473 52.2806 243.988 52.0938 243.423C51.9115 242.853 51.8203 242.22 51.8203 241.522V240.531C51.8203 239.834 51.9115 239.203 52.0938 238.638C52.2806 238.068 52.5472 237.58 52.8936 237.175C53.2445 236.769 53.666 236.457 54.1582 236.238C54.6504 236.02 55.2041 235.91 55.8193 235.91C56.5713 235.91 57.207 236.051 57.7266 236.334C58.2461 236.617 58.6494 237.008 58.9365 237.51C59.2282 238.007 59.4082 238.583 59.4766 239.239H58.1641C58.1003 238.774 57.9818 238.376 57.8086 238.043C57.6354 237.706 57.3893 237.446 57.0703 237.264C56.7513 237.081 56.3343 236.99 55.8193 236.99C55.3773 236.99 54.9876 237.075 54.6504 237.243C54.3177 237.412 54.0374 237.651 53.8096 237.961C53.5863 238.271 53.4176 238.642 53.3037 239.075C53.1898 239.508 53.1328 239.989 53.1328 240.518V241.522C53.1328 242.01 53.1829 242.468 53.2832 242.896C53.388 243.325 53.5452 243.701 53.7549 244.024C53.9645 244.348 54.2311 244.603 54.5547 244.79C54.8783 244.972 55.2611 245.063 55.7031 245.063C56.2637 245.063 56.7103 244.975 57.043 244.797C57.3757 244.619 57.6263 244.364 57.7949 244.031C57.9681 243.699 58.0911 243.3 58.1641 242.835ZM60.998 242.384V242.227C60.998 241.693 61.0755 241.199 61.2305 240.743C61.3854 240.283 61.6087 239.884 61.9004 239.547C62.1921 239.205 62.5452 238.941 62.96 238.754C63.3747 238.562 63.8395 238.467 64.3545 238.467C64.874 238.467 65.3411 238.562 65.7559 238.754C66.1751 238.941 66.5306 239.205 66.8223 239.547C67.1185 239.884 67.3441 240.283 67.499 240.743C67.654 241.199 67.7314 241.693 67.7314 242.227V242.384C67.7314 242.917 67.654 243.411 67.499 243.867C67.3441 244.323 67.1185 244.722 66.8223 245.063C66.5306 245.401 66.1774 245.665 65.7627 245.856C65.3525 246.043 64.8877 246.137 64.3682 246.137C63.8486 246.137 63.3815 246.043 62.9668 245.856C62.5521 245.665 62.1966 245.401 61.9004 245.063C61.6087 244.722 61.3854 244.323 61.2305 243.867C61.0755 243.411 60.998 242.917 60.998 242.384ZM62.2627 242.227V242.384C62.2627 242.753 62.306 243.102 62.3926 243.43C62.4792 243.753 62.609 244.04 62.7822 244.291C62.96 244.542 63.181 244.74 63.4453 244.886C63.7096 245.027 64.0173 245.098 64.3682 245.098C64.7145 245.098 65.0176 245.027 65.2773 244.886C65.5417 244.74 65.7604 244.542 65.9336 244.291C66.1068 244.04 66.2367 243.753 66.3232 243.43C66.4144 243.102 66.46 242.753 66.46 242.384V242.227C66.46 241.862 66.4144 241.518 66.3232 241.194C66.2367 240.866 66.1045 240.577 65.9268 240.326C65.7536 240.071 65.5348 239.87 65.2705 239.725C65.0107 239.579 64.7054 239.506 64.3545 239.506C64.0081 239.506 63.7028 239.579 63.4385 239.725C63.1787 239.87 62.96 240.071 62.7822 240.326C62.609 240.577 62.4792 240.866 62.3926 241.194C62.306 241.518 62.2627 241.862 62.2627 242.227ZM70.8252 240.073V246H69.5537V238.604H70.7568L70.8252 240.073ZM70.5654 242.021L69.9775 242.001C69.9821 241.495 70.0482 241.028 70.1758 240.6C70.3034 240.167 70.4925 239.791 70.7432 239.472C70.9938 239.153 71.306 238.907 71.6797 238.733C72.0534 238.556 72.4863 238.467 72.9785 238.467C73.3249 238.467 73.6439 238.517 73.9355 238.617C74.2272 238.713 74.4801 238.866 74.6943 239.075C74.9085 239.285 75.0749 239.554 75.1934 239.882C75.3118 240.21 75.3711 240.606 75.3711 241.071V246H74.1064V241.133C74.1064 240.745 74.0404 240.436 73.9082 240.203C73.7806 239.971 73.5983 239.802 73.3613 239.697C73.1243 239.588 72.8464 239.533 72.5273 239.533C72.1536 239.533 71.8415 239.599 71.5908 239.731C71.3402 239.864 71.1396 240.046 70.9893 240.278C70.8389 240.511 70.7295 240.777 70.6611 241.078C70.5973 241.374 70.5654 241.689 70.5654 242.021ZM75.3574 241.324L74.5098 241.584C74.5143 241.178 74.5804 240.789 74.708 240.415C74.8402 240.041 75.0293 239.709 75.2754 239.417C75.526 239.125 75.8337 238.895 76.1982 238.727C76.5628 238.553 76.9798 238.467 77.4492 238.467C77.8457 238.467 78.1966 238.519 78.502 238.624C78.8118 238.729 79.0716 238.891 79.2812 239.109C79.4954 239.324 79.6572 239.599 79.7666 239.937C79.876 240.274 79.9307 240.675 79.9307 241.14V246H78.6592V241.126C78.6592 240.711 78.5931 240.39 78.4609 240.162C78.3333 239.93 78.151 239.768 77.9141 239.677C77.6816 239.581 77.4036 239.533 77.0801 239.533C76.8021 239.533 76.556 239.581 76.3418 239.677C76.1276 239.772 75.9476 239.905 75.8018 240.073C75.6559 240.237 75.5443 240.426 75.4668 240.641C75.3939 240.855 75.3574 241.083 75.3574 241.324ZM83.3594 240.025V248.844H82.0879V238.604H83.25L83.3594 240.025ZM88.3428 242.24V242.384C88.3428 242.922 88.279 243.421 88.1514 243.881C88.0238 244.337 87.8369 244.733 87.5908 245.07C87.3493 245.408 87.0508 245.67 86.6953 245.856C86.3398 246.043 85.932 246.137 85.4717 246.137C85.0023 246.137 84.5876 246.059 84.2275 245.904C83.8675 245.749 83.5622 245.524 83.3115 245.228C83.0609 244.931 82.8604 244.576 82.71 244.161C82.5641 243.746 82.4639 243.279 82.4092 242.76V241.994C82.4639 241.447 82.5664 240.957 82.7168 240.524C82.8672 240.091 83.0654 239.722 83.3115 239.417C83.5622 239.107 83.8652 238.872 84.2207 238.713C84.5762 238.549 84.9863 238.467 85.4512 238.467C85.916 238.467 86.3285 238.558 86.6885 238.74C87.0485 238.918 87.3516 239.173 87.5977 239.506C87.8438 239.839 88.0283 240.237 88.1514 240.702C88.279 241.162 88.3428 241.675 88.3428 242.24ZM87.0713 242.384V242.24C87.0713 241.871 87.0326 241.525 86.9551 241.201C86.8776 240.873 86.7568 240.586 86.5928 240.34C86.4333 240.089 86.2282 239.893 85.9775 239.752C85.7269 239.606 85.4284 239.533 85.082 239.533C84.763 239.533 84.485 239.588 84.248 239.697C84.0156 239.807 83.8174 239.955 83.6533 240.142C83.4893 240.324 83.3548 240.534 83.25 240.771C83.1497 241.003 83.0745 241.244 83.0244 241.495V243.266C83.1156 243.585 83.2432 243.885 83.4072 244.168C83.5713 244.446 83.79 244.672 84.0635 244.845C84.3369 245.013 84.681 245.098 85.0957 245.098C85.4375 245.098 85.7314 245.027 85.9775 244.886C86.2282 244.74 86.4333 244.542 86.5928 244.291C86.7568 244.04 86.8776 243.753 86.9551 243.43C87.0326 243.102 87.0713 242.753 87.0713 242.384ZM91.5801 235.5V246H90.3086V235.5H91.5801ZM96.9297 246.137C96.4147 246.137 95.9476 246.05 95.5283 245.877C95.1136 245.699 94.7559 245.451 94.4551 245.132C94.1589 244.813 93.931 244.435 93.7715 243.997C93.612 243.56 93.5322 243.081 93.5322 242.562V242.274C93.5322 241.673 93.6211 241.137 93.7988 240.668C93.9766 240.194 94.2181 239.793 94.5234 239.465C94.8288 239.137 95.1751 238.888 95.5625 238.72C95.9499 238.551 96.3509 238.467 96.7656 238.467C97.2943 238.467 97.75 238.558 98.1328 238.74C98.5202 238.923 98.8369 239.178 99.083 239.506C99.3291 239.829 99.5114 240.212 99.6299 240.654C99.7484 241.092 99.8076 241.57 99.8076 242.09V242.657H94.2842V241.625H98.543V241.529C98.5247 241.201 98.4564 240.882 98.3379 240.572C98.224 240.262 98.0417 240.007 97.791 239.807C97.5404 239.606 97.1986 239.506 96.7656 239.506C96.4785 239.506 96.2142 239.567 95.9727 239.69C95.7311 239.809 95.5238 239.987 95.3506 240.224C95.1774 240.461 95.043 240.75 94.9473 241.092C94.8516 241.434 94.8037 241.828 94.8037 242.274V242.562C94.8037 242.912 94.8516 243.243 94.9473 243.553C95.0475 243.858 95.1911 244.127 95.3779 244.359C95.5693 244.592 95.7995 244.774 96.0684 244.906C96.3418 245.038 96.6517 245.104 96.998 245.104C97.4447 245.104 97.8229 245.013 98.1328 244.831C98.4427 244.649 98.7139 244.405 98.9463 244.1L99.7119 244.708C99.5524 244.95 99.3496 245.18 99.1035 245.398C98.8574 245.617 98.5544 245.795 98.1943 245.932C97.8389 246.068 97.4173 246.137 96.9297 246.137ZM104.631 238.604V239.574H100.632V238.604H104.631ZM101.985 236.806H103.25V244.168C103.25 244.419 103.289 244.608 103.366 244.735C103.444 244.863 103.544 244.947 103.667 244.988C103.79 245.029 103.922 245.05 104.063 245.05C104.168 245.05 104.278 245.041 104.392 245.022C104.51 245 104.599 244.981 104.658 244.968L104.665 246C104.565 246.032 104.433 246.062 104.269 246.089C104.109 246.121 103.915 246.137 103.688 246.137C103.378 246.137 103.093 246.075 102.833 245.952C102.573 245.829 102.366 245.624 102.211 245.337C102.061 245.045 101.985 244.653 101.985 244.161V236.806ZM109.434 246.137C108.919 246.137 108.451 246.05 108.032 245.877C107.618 245.699 107.26 245.451 106.959 245.132C106.663 244.813 106.435 244.435 106.275 243.997C106.116 243.56 106.036 243.081 106.036 242.562V242.274C106.036 241.673 106.125 241.137 106.303 240.668C106.48 240.194 106.722 239.793 107.027 239.465C107.333 239.137 107.679 238.888 108.066 238.72C108.454 238.551 108.855 238.467 109.27 238.467C109.798 238.467 110.254 238.558 110.637 238.74C111.024 238.923 111.341 239.178 111.587 239.506C111.833 239.829 112.015 240.212 112.134 240.654C112.252 241.092 112.312 241.57 112.312 242.09V242.657H106.788V241.625H111.047V241.529C111.029 241.201 110.96 240.882 110.842 240.572C110.728 240.262 110.546 240.007 110.295 239.807C110.044 239.606 109.702 239.506 109.27 239.506C108.982 239.506 108.718 239.567 108.477 239.69C108.235 239.809 108.028 239.987 107.854 240.224C107.681 240.461 107.547 240.75 107.451 241.092C107.355 241.434 107.308 241.828 107.308 242.274V242.562C107.308 242.912 107.355 243.243 107.451 243.553C107.551 243.858 107.695 244.127 107.882 244.359C108.073 244.592 108.303 244.774 108.572 244.906C108.846 245.038 109.156 245.104 109.502 245.104C109.949 245.104 110.327 245.013 110.637 244.831C110.947 244.649 111.218 244.405 111.45 244.1L112.216 244.708C112.056 244.95 111.854 245.18 111.607 245.398C111.361 245.617 111.058 245.795 110.698 245.932C110.343 246.068 109.921 246.137 109.434 246.137ZM115.303 240.183V246H114.038V238.604H115.234L115.303 240.183ZM115.002 242.021L114.476 242.001C114.48 241.495 114.555 241.028 114.701 240.6C114.847 240.167 115.052 239.791 115.316 239.472C115.581 239.153 115.895 238.907 116.26 238.733C116.629 238.556 117.037 238.467 117.483 238.467C117.848 238.467 118.176 238.517 118.468 238.617C118.759 238.713 119.008 238.868 119.213 239.082C119.423 239.296 119.582 239.574 119.691 239.916C119.801 240.253 119.855 240.666 119.855 241.153V246H118.584V241.14C118.584 240.752 118.527 240.442 118.413 240.21C118.299 239.973 118.133 239.802 117.914 239.697C117.695 239.588 117.426 239.533 117.107 239.533C116.793 239.533 116.506 239.599 116.246 239.731C115.991 239.864 115.77 240.046 115.583 240.278C115.401 240.511 115.257 240.777 115.152 241.078C115.052 241.374 115.002 241.689 115.002 242.021ZM125.096 246.137C124.581 246.137 124.114 246.05 123.694 245.877C123.28 245.699 122.922 245.451 122.621 245.132C122.325 244.813 122.097 244.435 121.938 243.997C121.778 243.56 121.698 243.081 121.698 242.562V242.274C121.698 241.673 121.787 241.137 121.965 240.668C122.143 240.194 122.384 239.793 122.689 239.465C122.995 239.137 123.341 238.888 123.729 238.72C124.116 238.551 124.517 238.467 124.932 238.467C125.46 238.467 125.916 238.558 126.299 238.74C126.686 238.923 127.003 239.178 127.249 239.506C127.495 239.829 127.677 240.212 127.796 240.654C127.914 241.092 127.974 241.57 127.974 242.09V242.657H122.45V241.625H126.709V241.529C126.691 241.201 126.622 240.882 126.504 240.572C126.39 240.262 126.208 240.007 125.957 239.807C125.706 239.606 125.365 239.506 124.932 239.506C124.645 239.506 124.38 239.567 124.139 239.69C123.897 239.809 123.69 239.987 123.517 240.224C123.343 240.461 123.209 240.75 123.113 241.092C123.018 241.434 122.97 241.828 122.97 242.274V242.562C122.97 242.912 123.018 243.243 123.113 243.553C123.214 243.858 123.357 244.127 123.544 244.359C123.735 244.592 123.965 244.774 124.234 244.906C124.508 245.038 124.818 245.104 125.164 245.104C125.611 245.104 125.989 245.013 126.299 244.831C126.609 244.649 126.88 244.405 127.112 244.1L127.878 244.708C127.718 244.95 127.516 245.18 127.27 245.398C127.023 245.617 126.72 245.795 126.36 245.932C126.005 246.068 125.583 246.137 125.096 246.137ZM134.007 244.038C134.007 243.856 133.966 243.687 133.884 243.532C133.806 243.373 133.645 243.229 133.398 243.102C133.157 242.969 132.792 242.855 132.305 242.76C131.895 242.673 131.523 242.571 131.19 242.452C130.862 242.334 130.582 242.19 130.35 242.021C130.122 241.853 129.946 241.655 129.823 241.427C129.7 241.199 129.639 240.932 129.639 240.627C129.639 240.335 129.702 240.06 129.83 239.8C129.962 239.54 130.147 239.31 130.384 239.109C130.625 238.909 130.915 238.752 131.252 238.638C131.589 238.524 131.965 238.467 132.38 238.467C132.972 238.467 133.478 238.572 133.897 238.781C134.317 238.991 134.638 239.271 134.861 239.622C135.085 239.968 135.196 240.354 135.196 240.777H133.932C133.932 240.572 133.87 240.374 133.747 240.183C133.629 239.987 133.453 239.825 133.221 239.697C132.993 239.57 132.713 239.506 132.38 239.506C132.029 239.506 131.744 239.561 131.525 239.67C131.311 239.775 131.154 239.909 131.054 240.073C130.958 240.237 130.91 240.41 130.91 240.593C130.91 240.729 130.933 240.853 130.979 240.962C131.029 241.067 131.115 241.165 131.238 241.256C131.361 241.342 131.535 241.424 131.758 241.502C131.981 241.579 132.266 241.657 132.612 241.734C133.218 241.871 133.717 242.035 134.109 242.227C134.501 242.418 134.793 242.653 134.984 242.931C135.176 243.209 135.271 243.546 135.271 243.942C135.271 244.266 135.203 244.562 135.066 244.831C134.934 245.1 134.741 245.332 134.485 245.528C134.235 245.72 133.934 245.87 133.583 245.979C133.237 246.084 132.847 246.137 132.414 246.137C131.762 246.137 131.211 246.021 130.76 245.788C130.309 245.556 129.967 245.255 129.734 244.886C129.502 244.517 129.386 244.127 129.386 243.717H130.657C130.675 244.063 130.776 244.339 130.958 244.544C131.14 244.744 131.364 244.888 131.628 244.975C131.892 245.057 132.154 245.098 132.414 245.098C132.76 245.098 133.05 245.052 133.282 244.961C133.519 244.87 133.699 244.744 133.822 244.585C133.945 244.425 134.007 244.243 134.007 244.038ZM141.489 244.038C141.489 243.856 141.448 243.687 141.366 243.532C141.289 243.373 141.127 243.229 140.881 243.102C140.639 242.969 140.275 242.855 139.787 242.76C139.377 242.673 139.006 242.571 138.673 242.452C138.345 242.334 138.064 242.19 137.832 242.021C137.604 241.853 137.429 241.655 137.306 241.427C137.183 241.199 137.121 240.932 137.121 240.627C137.121 240.335 137.185 240.06 137.312 239.8C137.445 239.54 137.629 239.31 137.866 239.109C138.108 238.909 138.397 238.752 138.734 238.638C139.072 238.524 139.448 238.467 139.862 238.467C140.455 238.467 140.961 238.572 141.38 238.781C141.799 238.991 142.12 239.271 142.344 239.622C142.567 239.968 142.679 240.354 142.679 240.777H141.414C141.414 240.572 141.353 240.374 141.229 240.183C141.111 239.987 140.936 239.825 140.703 239.697C140.475 239.57 140.195 239.506 139.862 239.506C139.511 239.506 139.227 239.561 139.008 239.67C138.794 239.775 138.636 239.909 138.536 240.073C138.44 240.237 138.393 240.41 138.393 240.593C138.393 240.729 138.415 240.853 138.461 240.962C138.511 241.067 138.598 241.165 138.721 241.256C138.844 241.342 139.017 241.424 139.24 241.502C139.464 241.579 139.748 241.657 140.095 241.734C140.701 241.871 141.2 242.035 141.592 242.227C141.984 242.418 142.275 242.653 142.467 242.931C142.658 243.209 142.754 243.546 142.754 243.942C142.754 244.266 142.686 244.562 142.549 244.831C142.417 245.1 142.223 245.332 141.968 245.528C141.717 245.72 141.416 245.87 141.065 245.979C140.719 246.084 140.329 246.137 139.896 246.137C139.245 246.137 138.693 246.021 138.242 245.788C137.791 245.556 137.449 245.255 137.217 244.886C136.984 244.517 136.868 244.127 136.868 243.717H138.14C138.158 244.063 138.258 244.339 138.44 244.544C138.623 244.744 138.846 244.888 139.11 244.975C139.375 245.057 139.637 245.098 139.896 245.098C140.243 245.098 140.532 245.052 140.765 244.961C141.002 244.87 141.182 244.744 141.305 244.585C141.428 244.425 141.489 244.243 141.489 244.038Z" fill="#42474E"/>
<path d="M235.85 236.047H237.162V242.78C237.162 243.528 236.996 244.15 236.663 244.646C236.33 245.143 235.888 245.517 235.337 245.768C234.79 246.014 234.195 246.137 233.553 246.137C232.878 246.137 232.268 246.014 231.721 245.768C231.178 245.517 230.748 245.143 230.429 244.646C230.114 244.15 229.957 243.528 229.957 242.78V236.047H231.263V242.78C231.263 243.3 231.358 243.728 231.55 244.065C231.741 244.403 232.008 244.653 232.35 244.817C232.696 244.981 233.097 245.063 233.553 245.063C234.013 245.063 234.414 244.981 234.756 244.817C235.102 244.653 235.371 244.403 235.562 244.065C235.754 243.728 235.85 243.3 235.85 242.78V236.047ZM240.557 240.183V246H239.292V238.604H240.488L240.557 240.183ZM240.256 242.021L239.729 242.001C239.734 241.495 239.809 241.028 239.955 240.6C240.101 240.167 240.306 239.791 240.57 239.472C240.835 239.153 241.149 238.907 241.514 238.733C241.883 238.556 242.291 238.467 242.737 238.467C243.102 238.467 243.43 238.517 243.722 238.617C244.013 238.713 244.262 238.868 244.467 239.082C244.676 239.296 244.836 239.574 244.945 239.916C245.055 240.253 245.109 240.666 245.109 241.153V246H243.838V241.14C243.838 240.752 243.781 240.442 243.667 240.21C243.553 239.973 243.387 239.802 243.168 239.697C242.949 239.588 242.68 239.533 242.361 239.533C242.047 239.533 241.76 239.599 241.5 239.731C241.245 239.864 241.024 240.046 240.837 240.278C240.655 240.511 240.511 240.777 240.406 241.078C240.306 241.374 240.256 241.689 240.256 242.021ZM248.654 238.604V246H247.383V238.604H248.654ZM247.287 236.642C247.287 236.437 247.349 236.263 247.472 236.122C247.599 235.981 247.786 235.91 248.032 235.91C248.274 235.91 248.458 235.981 248.586 236.122C248.718 236.263 248.784 236.437 248.784 236.642C248.784 236.838 248.718 237.006 248.586 237.147C248.458 237.284 248.274 237.353 248.032 237.353C247.786 237.353 247.599 237.284 247.472 237.147C247.349 237.006 247.287 236.838 247.287 236.642ZM255.59 248.844V240.025L255.699 238.604H256.861V248.844H255.59ZM250.62 242.384V242.24C250.62 241.675 250.686 241.162 250.818 240.702C250.951 240.237 251.144 239.839 251.399 239.506C251.655 239.173 251.962 238.918 252.322 238.74C252.687 238.558 253.102 238.467 253.566 238.467C254.031 238.467 254.439 238.549 254.79 238.713C255.146 238.872 255.446 239.107 255.692 239.417C255.943 239.722 256.141 240.091 256.287 240.524C256.433 240.957 256.533 241.447 256.588 241.994V242.623C256.538 243.165 256.44 243.653 256.294 244.086C256.148 244.519 255.95 244.888 255.699 245.193C255.453 245.499 255.15 245.733 254.79 245.897C254.435 246.057 254.022 246.137 253.553 246.137C253.097 246.137 252.687 246.043 252.322 245.856C251.962 245.67 251.655 245.408 251.399 245.07C251.149 244.733 250.955 244.337 250.818 243.881C250.686 243.421 250.62 242.922 250.62 242.384ZM251.892 242.24V242.384C251.892 242.753 251.93 243.102 252.008 243.43C252.085 243.753 252.204 244.04 252.363 244.291C252.527 244.542 252.732 244.74 252.979 244.886C253.229 245.027 253.525 245.098 253.867 245.098C254.286 245.098 254.635 245.007 254.913 244.824C255.196 244.642 255.421 244.403 255.59 244.106C255.758 243.806 255.888 243.484 255.979 243.143V241.495C255.929 241.244 255.85 241.001 255.74 240.764C255.635 240.527 255.499 240.315 255.33 240.128C255.161 239.937 254.956 239.786 254.715 239.677C254.478 239.563 254.2 239.506 253.881 239.506C253.535 239.506 253.236 239.579 252.985 239.725C252.735 239.87 252.527 240.071 252.363 240.326C252.204 240.577 252.085 240.866 252.008 241.194C251.93 241.522 251.892 241.871 251.892 242.24ZM263.667 244.291V238.604H264.938V246H263.729L263.667 244.291ZM263.906 242.732L264.433 242.719C264.433 243.211 264.38 243.667 264.275 244.086C264.175 244.501 264.011 244.861 263.783 245.166C263.555 245.471 263.257 245.711 262.888 245.884C262.519 246.052 262.07 246.137 261.541 246.137C261.181 246.137 260.851 246.084 260.55 245.979C260.254 245.875 259.998 245.713 259.784 245.494C259.57 245.275 259.404 244.991 259.285 244.64C259.171 244.289 259.114 243.867 259.114 243.375V238.604H260.379V243.389C260.379 243.721 260.415 243.997 260.488 244.216C260.566 244.43 260.668 244.601 260.796 244.729C260.928 244.852 261.074 244.938 261.233 244.988C261.397 245.038 261.566 245.063 261.739 245.063C262.277 245.063 262.703 244.961 263.018 244.756C263.332 244.546 263.558 244.266 263.694 243.915C263.836 243.56 263.906 243.165 263.906 242.732ZM270.186 246.137C269.671 246.137 269.203 246.05 268.784 245.877C268.369 245.699 268.012 245.451 267.711 245.132C267.415 244.813 267.187 244.435 267.027 243.997C266.868 243.56 266.788 243.081 266.788 242.562V242.274C266.788 241.673 266.877 241.137 267.055 240.668C267.232 240.194 267.474 239.793 267.779 239.465C268.085 239.137 268.431 238.888 268.818 238.72C269.206 238.551 269.607 238.467 270.021 238.467C270.55 238.467 271.006 238.558 271.389 238.74C271.776 238.923 272.093 239.178 272.339 239.506C272.585 239.829 272.767 240.212 272.886 240.654C273.004 241.092 273.063 241.57 273.063 242.09V242.657H267.54V241.625H271.799V241.529C271.781 241.201 271.712 240.882 271.594 240.572C271.48 240.262 271.298 240.007 271.047 239.807C270.796 239.606 270.454 239.506 270.021 239.506C269.734 239.506 269.47 239.567 269.229 239.69C268.987 239.809 268.78 239.987 268.606 240.224C268.433 240.461 268.299 240.75 268.203 241.092C268.107 241.434 268.06 241.828 268.06 242.274V242.562C268.06 242.912 268.107 243.243 268.203 243.553C268.303 243.858 268.447 244.127 268.634 244.359C268.825 244.592 269.055 244.774 269.324 244.906C269.598 245.038 269.908 245.104 270.254 245.104C270.701 245.104 271.079 245.013 271.389 244.831C271.699 244.649 271.97 244.405 272.202 244.1L272.968 244.708C272.808 244.95 272.605 245.18 272.359 245.398C272.113 245.617 271.81 245.795 271.45 245.932C271.095 246.068 270.673 246.137 270.186 246.137ZM276.055 240.183V246H274.79V238.604H275.986L276.055 240.183ZM275.754 242.021L275.228 242.001C275.232 241.495 275.307 241.028 275.453 240.6C275.599 240.167 275.804 239.791 276.068 239.472C276.333 239.153 276.647 238.907 277.012 238.733C277.381 238.556 277.789 238.467 278.235 238.467C278.6 238.467 278.928 238.517 279.22 238.617C279.511 238.713 279.76 238.868 279.965 239.082C280.174 239.296 280.334 239.574 280.443 239.916C280.553 240.253 280.607 240.666 280.607 241.153V246H279.336V241.14C279.336 240.752 279.279 240.442 279.165 240.21C279.051 239.973 278.885 239.802 278.666 239.697C278.447 239.588 278.178 239.533 277.859 239.533C277.545 239.533 277.258 239.599 276.998 239.731C276.743 239.864 276.522 240.046 276.335 240.278C276.153 240.511 276.009 240.777 275.904 241.078C275.804 241.374 275.754 241.689 275.754 242.021ZM285.848 246.137C285.333 246.137 284.866 246.05 284.446 245.877C284.032 245.699 283.674 245.451 283.373 245.132C283.077 244.813 282.849 244.435 282.689 243.997C282.53 243.56 282.45 243.081 282.45 242.562V242.274C282.45 241.673 282.539 241.137 282.717 240.668C282.895 240.194 283.136 239.793 283.441 239.465C283.747 239.137 284.093 238.888 284.48 238.72C284.868 238.551 285.269 238.467 285.684 238.467C286.212 238.467 286.668 238.558 287.051 238.74C287.438 238.923 287.755 239.178 288.001 239.506C288.247 239.829 288.429 240.212 288.548 240.654C288.666 241.092 288.726 241.57 288.726 242.09V242.657H283.202V241.625H287.461V241.529C287.443 241.201 287.374 240.882 287.256 240.572C287.142 240.262 286.96 240.007 286.709 239.807C286.458 239.606 286.117 239.506 285.684 239.506C285.396 239.506 285.132 239.567 284.891 239.69C284.649 239.809 284.442 239.987 284.269 240.224C284.095 240.461 283.961 240.75 283.865 241.092C283.77 241.434 283.722 241.828 283.722 242.274V242.562C283.722 242.912 283.77 243.243 283.865 243.553C283.965 243.858 284.109 244.127 284.296 244.359C284.487 244.592 284.717 244.774 284.986 244.906C285.26 245.038 285.57 245.104 285.916 245.104C286.363 245.104 286.741 245.013 287.051 244.831C287.361 244.649 287.632 244.405 287.864 244.1L288.63 244.708C288.47 244.95 288.268 245.18 288.021 245.398C287.775 245.617 287.472 245.795 287.112 245.932C286.757 246.068 286.335 246.137 285.848 246.137ZM294.759 244.038C294.759 243.856 294.718 243.687 294.636 243.532C294.558 243.373 294.396 243.229 294.15 243.102C293.909 242.969 293.544 242.855 293.057 242.76C292.646 242.673 292.275 242.571 291.942 242.452C291.614 242.334 291.334 242.19 291.102 242.021C290.874 241.853 290.698 241.655 290.575 241.427C290.452 241.199 290.391 240.932 290.391 240.627C290.391 240.335 290.454 240.06 290.582 239.8C290.714 239.54 290.899 239.31 291.136 239.109C291.377 238.909 291.667 238.752 292.004 238.638C292.341 238.524 292.717 238.467 293.132 238.467C293.724 238.467 294.23 238.572 294.649 238.781C295.069 238.991 295.39 239.271 295.613 239.622C295.837 239.968 295.948 240.354 295.948 240.777H294.684C294.684 240.572 294.622 240.374 294.499 240.183C294.381 239.987 294.205 239.825 293.973 239.697C293.745 239.57 293.465 239.506 293.132 239.506C292.781 239.506 292.496 239.561 292.277 239.67C292.063 239.775 291.906 239.909 291.806 240.073C291.71 240.237 291.662 240.41 291.662 240.593C291.662 240.729 291.685 240.853 291.73 240.962C291.781 241.067 291.867 241.165 291.99 241.256C292.113 241.342 292.286 241.424 292.51 241.502C292.733 241.579 293.018 241.657 293.364 241.734C293.97 241.871 294.469 242.035 294.861 242.227C295.253 242.418 295.545 242.653 295.736 242.931C295.928 243.209 296.023 243.546 296.023 243.942C296.023 244.266 295.955 244.562 295.818 244.831C295.686 245.1 295.493 245.332 295.237 245.528C294.987 245.72 294.686 245.87 294.335 245.979C293.989 246.084 293.599 246.137 293.166 246.137C292.514 246.137 291.963 246.021 291.512 245.788C291.061 245.556 290.719 245.255 290.486 244.886C290.254 244.517 290.138 244.127 290.138 243.717H291.409C291.427 244.063 291.528 244.339 291.71 244.544C291.892 244.744 292.116 244.888 292.38 244.975C292.644 245.057 292.906 245.098 293.166 245.098C293.512 245.098 293.802 245.052 294.034 244.961C294.271 244.87 294.451 244.744 294.574 244.585C294.697 244.425 294.759 244.243 294.759 244.038ZM302.241 244.038C302.241 243.856 302.2 243.687 302.118 243.532C302.041 243.373 301.879 243.229 301.633 243.102C301.391 242.969 301.027 242.855 300.539 242.76C300.129 242.673 299.757 242.571 299.425 242.452C299.097 242.334 298.816 242.19 298.584 242.021C298.356 241.853 298.181 241.655 298.058 241.427C297.935 241.199 297.873 240.932 297.873 240.627C297.873 240.335 297.937 240.06 298.064 239.8C298.197 239.54 298.381 239.31 298.618 239.109C298.86 238.909 299.149 238.752 299.486 238.638C299.824 238.524 300.2 238.467 300.614 238.467C301.207 238.467 301.713 238.572 302.132 238.781C302.551 238.991 302.872 239.271 303.096 239.622C303.319 239.968 303.431 240.354 303.431 240.777H302.166C302.166 240.572 302.104 240.374 301.981 240.183C301.863 239.987 301.688 239.825 301.455 239.697C301.227 239.57 300.947 239.506 300.614 239.506C300.263 239.506 299.979 239.561 299.76 239.67C299.546 239.775 299.388 239.909 299.288 240.073C299.192 240.237 299.145 240.41 299.145 240.593C299.145 240.729 299.167 240.853 299.213 240.962C299.263 241.067 299.35 241.165 299.473 241.256C299.596 241.342 299.769 241.424 299.992 241.502C300.215 241.579 300.5 241.657 300.847 241.734C301.453 241.871 301.952 242.035 302.344 242.227C302.736 242.418 303.027 242.653 303.219 242.931C303.41 243.209 303.506 243.546 303.506 243.942C303.506 244.266 303.438 244.562 303.301 244.831C303.169 245.1 302.975 245.332 302.72 245.528C302.469 245.72 302.168 245.87 301.817 245.979C301.471 246.084 301.081 246.137 300.648 246.137C299.997 246.137 299.445 246.021 298.994 245.788C298.543 245.556 298.201 245.255 297.969 244.886C297.736 244.517 297.62 244.127 297.62 243.717H298.892C298.91 244.063 299.01 244.339 299.192 244.544C299.375 244.744 299.598 244.888 299.862 244.975C300.127 245.057 300.389 245.098 300.648 245.098C300.995 245.098 301.284 245.052 301.517 244.961C301.754 244.87 301.934 244.744 302.057 244.585C302.18 244.425 302.241 244.243 302.241 244.038Z" fill="#42474E"/>
<path d="M7.16406 191.835H8.47656C8.4082 192.464 8.22819 193.027 7.93652 193.523C7.64486 194.02 7.23242 194.414 6.69922 194.706C6.16602 194.993 5.50065 195.137 4.70312 195.137C4.11979 195.137 3.58887 195.027 3.11035 194.809C2.63639 194.59 2.22852 194.28 1.88672 193.879C1.54492 193.473 1.2806 192.988 1.09375 192.423C0.911458 191.853 0.820312 191.22 0.820312 190.522V189.531C0.820312 188.834 0.911458 188.203 1.09375 187.638C1.2806 187.068 1.5472 186.58 1.89355 186.175C2.24447 185.769 2.66602 185.457 3.1582 185.238C3.65039 185.02 4.2041 184.91 4.81934 184.91C5.57129 184.91 6.20703 185.051 6.72656 185.334C7.24609 185.617 7.64941 186.008 7.93652 186.51C8.22819 187.007 8.4082 187.583 8.47656 188.239H7.16406C7.10026 187.774 6.98177 187.376 6.80859 187.043C6.63542 186.706 6.38932 186.446 6.07031 186.264C5.7513 186.081 5.33431 185.99 4.81934 185.99C4.37728 185.99 3.98763 186.075 3.65039 186.243C3.31771 186.412 3.03743 186.651 2.80957 186.961C2.58626 187.271 2.41764 187.642 2.30371 188.075C2.18978 188.508 2.13281 188.989 2.13281 189.518V190.522C2.13281 191.01 2.18294 191.468 2.2832 191.896C2.38802 192.325 2.54525 192.701 2.75488 193.024C2.96452 193.348 3.23112 193.603 3.55469 193.79C3.87826 193.972 4.26107 194.063 4.70312 194.063C5.26367 194.063 5.71029 193.975 6.04297 193.797C6.37565 193.619 6.6263 193.364 6.79492 193.031C6.9681 192.699 7.09115 192.3 7.16406 191.835ZM9.99805 191.384V191.227C9.99805 190.693 10.0755 190.199 10.2305 189.743C10.3854 189.283 10.6087 188.884 10.9004 188.547C11.1921 188.205 11.5452 187.941 11.96 187.754C12.3747 187.562 12.8395 187.467 13.3545 187.467C13.874 187.467 14.3411 187.562 14.7559 187.754C15.1751 187.941 15.5306 188.205 15.8223 188.547C16.1185 188.884 16.3441 189.283 16.499 189.743C16.654 190.199 16.7314 190.693 16.7314 191.227V191.384C16.7314 191.917 16.654 192.411 16.499 192.867C16.3441 193.323 16.1185 193.722 15.8223 194.063C15.5306 194.401 15.1774 194.665 14.7627 194.856C14.3525 195.043 13.8877 195.137 13.3682 195.137C12.8486 195.137 12.3815 195.043 11.9668 194.856C11.5521 194.665 11.1966 194.401 10.9004 194.063C10.6087 193.722 10.3854 193.323 10.2305 192.867C10.0755 192.411 9.99805 191.917 9.99805 191.384ZM11.2627 191.227V191.384C11.2627 191.753 11.306 192.102 11.3926 192.43C11.4792 192.753 11.609 193.04 11.7822 193.291C11.96 193.542 12.181 193.74 12.4453 193.886C12.7096 194.027 13.0173 194.098 13.3682 194.098C13.7145 194.098 14.0176 194.027 14.2773 193.886C14.5417 193.74 14.7604 193.542 14.9336 193.291C15.1068 193.04 15.2367 192.753 15.3232 192.43C15.4144 192.102 15.46 191.753 15.46 191.384V191.227C15.46 190.862 15.4144 190.518 15.3232 190.194C15.2367 189.866 15.1045 189.577 14.9268 189.326C14.7536 189.071 14.5348 188.87 14.2705 188.725C14.0107 188.579 13.7054 188.506 13.3545 188.506C13.0081 188.506 12.7028 188.579 12.4385 188.725C12.1787 188.87 11.96 189.071 11.7822 189.326C11.609 189.577 11.4792 189.866 11.3926 190.194C11.306 190.518 11.2627 190.862 11.2627 191.227ZM19.832 189.183V195H18.5674V187.604H19.7637L19.832 189.183ZM19.5312 191.021L19.0049 191.001C19.0094 190.495 19.0846 190.028 19.2305 189.6C19.3763 189.167 19.5814 188.791 19.8457 188.472C20.11 188.153 20.4245 187.907 20.7891 187.733C21.1582 187.556 21.5661 187.467 22.0127 187.467C22.3773 187.467 22.7054 187.517 22.9971 187.617C23.2887 187.713 23.5371 187.868 23.7422 188.082C23.9518 188.296 24.1113 188.574 24.2207 188.916C24.3301 189.253 24.3848 189.666 24.3848 190.153V195H23.1133V190.14C23.1133 189.752 23.0563 189.442 22.9424 189.21C22.8285 188.973 22.6621 188.802 22.4434 188.697C22.2246 188.588 21.9557 188.533 21.6367 188.533C21.3223 188.533 21.0352 188.599 20.7754 188.731C20.5202 188.864 20.2992 189.046 20.1123 189.278C19.93 189.511 19.7865 189.777 19.6816 190.078C19.5814 190.374 19.5312 190.689 19.5312 191.021ZM30.8623 193.038C30.8623 192.856 30.8213 192.687 30.7393 192.532C30.6618 192.373 30.5 192.229 30.2539 192.102C30.0124 191.969 29.6478 191.855 29.1602 191.76C28.75 191.673 28.3786 191.571 28.0459 191.452C27.7178 191.334 27.4375 191.19 27.2051 191.021C26.9772 190.853 26.8018 190.655 26.6787 190.427C26.5557 190.199 26.4941 189.932 26.4941 189.627C26.4941 189.335 26.5579 189.06 26.6855 188.8C26.8177 188.54 27.0023 188.31 27.2393 188.109C27.4808 187.909 27.7702 187.752 28.1074 187.638C28.4447 187.524 28.8206 187.467 29.2354 187.467C29.8278 187.467 30.3337 187.572 30.7529 187.781C31.1722 187.991 31.4935 188.271 31.7168 188.622C31.9401 188.968 32.0518 189.354 32.0518 189.777H30.7871C30.7871 189.572 30.7256 189.374 30.6025 189.183C30.484 188.987 30.3086 188.825 30.0762 188.697C29.8483 188.57 29.568 188.506 29.2354 188.506C28.8844 188.506 28.5996 188.561 28.3809 188.67C28.1667 188.775 28.0094 188.909 27.9092 189.073C27.8135 189.237 27.7656 189.41 27.7656 189.593C27.7656 189.729 27.7884 189.853 27.834 189.962C27.8841 190.067 27.9707 190.165 28.0938 190.256C28.2168 190.342 28.39 190.424 28.6133 190.502C28.8366 190.579 29.1214 190.657 29.4678 190.734C30.0739 190.871 30.5729 191.035 30.9648 191.227C31.3568 191.418 31.6484 191.653 31.8398 191.931C32.0312 192.209 32.127 192.546 32.127 192.942C32.127 193.266 32.0586 193.562 31.9219 193.831C31.7897 194.1 31.596 194.332 31.3408 194.528C31.0902 194.72 30.7894 194.87 30.4385 194.979C30.0921 195.084 29.7025 195.137 29.2695 195.137C28.6178 195.137 28.0664 195.021 27.6152 194.788C27.1641 194.556 26.8223 194.255 26.5898 193.886C26.3574 193.517 26.2412 193.127 26.2412 192.717H27.5127C27.5309 193.063 27.6312 193.339 27.8135 193.544C27.9958 193.744 28.2191 193.888 28.4834 193.975C28.7477 194.057 29.0098 194.098 29.2695 194.098C29.6159 194.098 29.9053 194.052 30.1377 193.961C30.3747 193.87 30.5547 193.744 30.6777 193.585C30.8008 193.425 30.8623 193.243 30.8623 193.038ZM35.4121 187.604V195H34.1406V187.604H35.4121ZM34.0449 185.642C34.0449 185.437 34.1064 185.263 34.2295 185.122C34.3571 184.981 34.5439 184.91 34.79 184.91C35.0316 184.91 35.2161 184.981 35.3438 185.122C35.4759 185.263 35.542 185.437 35.542 185.642C35.542 185.838 35.4759 186.006 35.3438 186.147C35.2161 186.284 35.0316 186.353 34.79 186.353C34.5439 186.353 34.3571 186.284 34.2295 186.147C34.1064 186.006 34.0449 185.838 34.0449 185.642ZM41.999 193.038C41.999 192.856 41.958 192.687 41.876 192.532C41.7985 192.373 41.6367 192.229 41.3906 192.102C41.1491 191.969 40.7845 191.855 40.2969 191.76C39.8867 191.673 39.5153 191.571 39.1826 191.452C38.8545 191.334 38.5742 191.19 38.3418 191.021C38.1139 190.853 37.9385 190.655 37.8154 190.427C37.6924 190.199 37.6309 189.932 37.6309 189.627C37.6309 189.335 37.6947 189.06 37.8223 188.8C37.9544 188.54 38.139 188.31 38.376 188.109C38.6175 187.909 38.9069 187.752 39.2441 187.638C39.5814 187.524 39.9574 187.467 40.3721 187.467C40.9645 187.467 41.4704 187.572 41.8896 187.781C42.3089 187.991 42.6302 188.271 42.8535 188.622C43.0768 188.968 43.1885 189.354 43.1885 189.777H41.9238C41.9238 189.572 41.8623 189.374 41.7393 189.183C41.6208 188.987 41.4453 188.825 41.2129 188.697C40.985 188.57 40.7048 188.506 40.3721 188.506C40.0212 188.506 39.7363 188.561 39.5176 188.67C39.3034 188.775 39.1462 188.909 39.0459 189.073C38.9502 189.237 38.9023 189.41 38.9023 189.593C38.9023 189.729 38.9251 189.853 38.9707 189.962C39.0208 190.067 39.1074 190.165 39.2305 190.256C39.3535 190.342 39.5267 190.424 39.75 190.502C39.9733 190.579 40.2581 190.657 40.6045 190.734C41.2106 190.871 41.7096 191.035 42.1016 191.227C42.4935 191.418 42.7852 191.653 42.9766 191.931C43.168 192.209 43.2637 192.546 43.2637 192.942C43.2637 193.266 43.1953 193.562 43.0586 193.831C42.9264 194.1 42.7327 194.332 42.4775 194.528C42.2269 194.72 41.9261 194.87 41.5752 194.979C41.2288 195.084 40.8392 195.137 40.4062 195.137C39.7546 195.137 39.2031 195.021 38.752 194.788C38.3008 194.556 37.959 194.255 37.7266 193.886C37.4941 193.517 37.3779 193.127 37.3779 192.717H38.6494C38.6676 193.063 38.7679 193.339 38.9502 193.544C39.1325 193.744 39.3558 193.888 39.6201 193.975C39.8844 194.057 40.1465 194.098 40.4062 194.098C40.7526 194.098 41.042 194.052 41.2744 193.961C41.5114 193.87 41.6914 193.744 41.8145 193.585C41.9375 193.425 41.999 193.243 41.999 193.038ZM48.2715 187.604V188.574H44.2725V187.604H48.2715ZM45.626 185.806H46.8906V193.168C46.8906 193.419 46.9294 193.608 47.0068 193.735C47.0843 193.863 47.1846 193.947 47.3076 193.988C47.4307 194.029 47.5628 194.05 47.7041 194.05C47.8089 194.05 47.9183 194.041 48.0322 194.022C48.1507 194 48.2396 193.981 48.2988 193.968L48.3057 195C48.2054 195.032 48.0732 195.062 47.9092 195.089C47.7497 195.121 47.556 195.137 47.3281 195.137C47.0182 195.137 46.7334 195.075 46.4736 194.952C46.2139 194.829 46.0065 194.624 45.8516 194.337C45.7012 194.045 45.626 193.653 45.626 193.161V185.806ZM53.0742 195.137C52.5592 195.137 52.0921 195.05 51.6729 194.877C51.2581 194.699 50.9004 194.451 50.5996 194.132C50.3034 193.813 50.0755 193.435 49.916 192.997C49.7565 192.56 49.6768 192.081 49.6768 191.562V191.274C49.6768 190.673 49.7656 190.137 49.9434 189.668C50.1211 189.194 50.3626 188.793 50.668 188.465C50.9733 188.137 51.3197 187.888 51.707 187.72C52.0944 187.551 52.4954 187.467 52.9102 187.467C53.4388 187.467 53.8945 187.558 54.2773 187.74C54.6647 187.923 54.9814 188.178 55.2275 188.506C55.4736 188.829 55.6559 189.212 55.7744 189.654C55.8929 190.092 55.9521 190.57 55.9521 191.09V191.657H50.4287V190.625H54.6875V190.529C54.6693 190.201 54.6009 189.882 54.4824 189.572C54.3685 189.262 54.1862 189.007 53.9355 188.807C53.6849 188.606 53.3431 188.506 52.9102 188.506C52.623 188.506 52.3587 188.567 52.1172 188.69C51.8757 188.809 51.6683 188.987 51.4951 189.224C51.3219 189.461 51.1875 189.75 51.0918 190.092C50.9961 190.434 50.9482 190.828 50.9482 191.274V191.562C50.9482 191.912 50.9961 192.243 51.0918 192.553C51.1921 192.858 51.3356 193.127 51.5225 193.359C51.7139 193.592 51.944 193.774 52.2129 193.906C52.4863 194.038 52.7962 194.104 53.1426 194.104C53.5892 194.104 53.9674 194.013 54.2773 193.831C54.5872 193.649 54.8584 193.405 55.0908 193.1L55.8564 193.708C55.6969 193.95 55.4941 194.18 55.248 194.398C55.002 194.617 54.6989 194.795 54.3389 194.932C53.9834 195.068 53.5618 195.137 53.0742 195.137ZM58.9434 189.183V195H57.6787V187.604H58.875L58.9434 189.183ZM58.6426 191.021L58.1162 191.001C58.1208 190.495 58.196 190.028 58.3418 189.6C58.4876 189.167 58.6927 188.791 58.957 188.472C59.2214 188.153 59.5358 187.907 59.9004 187.733C60.2695 187.556 60.6774 187.467 61.124 187.467C61.4886 187.467 61.8167 187.517 62.1084 187.617C62.4001 187.713 62.6484 187.868 62.8535 188.082C63.0632 188.296 63.2227 188.574 63.332 188.916C63.4414 189.253 63.4961 189.666 63.4961 190.153V195H62.2246V190.14C62.2246 189.752 62.1676 189.442 62.0537 189.21C61.9398 188.973 61.7734 188.802 61.5547 188.697C61.3359 188.588 61.0671 188.533 60.748 188.533C60.4336 188.533 60.1465 188.599 59.8867 188.731C59.6315 188.864 59.4105 189.046 59.2236 189.278C59.0413 189.511 58.8978 189.777 58.793 190.078C58.6927 190.374 58.6426 190.689 58.6426 191.021ZM68.627 194.098C68.9277 194.098 69.2057 194.036 69.4609 193.913C69.7161 193.79 69.9258 193.621 70.0898 193.407C70.2539 193.188 70.3473 192.94 70.3701 192.662H71.5732C71.5505 193.1 71.4023 193.507 71.1289 193.886C70.86 194.259 70.5068 194.562 70.0693 194.795C69.6318 195.023 69.151 195.137 68.627 195.137C68.071 195.137 67.5856 195.039 67.1709 194.843C66.7607 194.647 66.4189 194.378 66.1455 194.036C65.8766 193.694 65.6738 193.302 65.5371 192.86C65.4049 192.414 65.3389 191.942 65.3389 191.445V191.158C65.3389 190.661 65.4049 190.192 65.5371 189.75C65.6738 189.303 65.8766 188.909 66.1455 188.567C66.4189 188.226 66.7607 187.957 67.1709 187.761C67.5856 187.565 68.071 187.467 68.627 187.467C69.2057 187.467 69.7116 187.585 70.1445 187.822C70.5775 188.055 70.917 188.374 71.1631 188.779C71.4137 189.18 71.5505 189.636 71.5732 190.146H70.3701C70.3473 189.841 70.2607 189.565 70.1104 189.319C69.9645 189.073 69.764 188.877 69.5088 188.731C69.2581 188.581 68.9642 188.506 68.627 188.506C68.2396 188.506 67.9137 188.583 67.6494 188.738C67.3896 188.889 67.1823 189.094 67.0273 189.354C66.877 189.609 66.7676 189.894 66.6992 190.208C66.6354 190.518 66.6035 190.835 66.6035 191.158V191.445C66.6035 191.769 66.6354 192.088 66.6992 192.402C66.763 192.717 66.8701 193.002 67.0205 193.257C67.1755 193.512 67.3828 193.717 67.6426 193.872C67.9069 194.022 68.235 194.098 68.627 194.098ZM75.3232 194.234L77.3809 187.604H78.7344L75.7676 196.142C75.6992 196.324 75.6081 196.52 75.4941 196.729C75.3848 196.944 75.2435 197.146 75.0703 197.338C74.8971 197.529 74.6875 197.684 74.4414 197.803C74.1999 197.926 73.9105 197.987 73.5732 197.987C73.473 197.987 73.3454 197.974 73.1904 197.946C73.0355 197.919 72.9261 197.896 72.8623 197.878L72.8555 196.853C72.8919 196.857 72.9489 196.862 73.0264 196.866C73.1084 196.875 73.1654 196.88 73.1973 196.88C73.4844 196.88 73.7282 196.841 73.9287 196.764C74.1292 196.691 74.2979 196.565 74.4346 196.388C74.5758 196.215 74.6966 195.975 74.7969 195.67L75.3232 194.234ZM73.8125 187.604L75.7334 193.346L76.0615 194.679L75.1523 195.144L72.4316 187.604H73.8125Z" fill="#42474E"/>
<path d="M17.1641 111.835H18.4766C18.4082 112.464 18.2282 113.027 17.9365 113.523C17.6449 114.02 17.2324 114.414 16.6992 114.706C16.166 114.993 15.5007 115.137 14.7031 115.137C14.1198 115.137 13.5889 115.027 13.1104 114.809C12.6364 114.59 12.2285 114.28 11.8867 113.879C11.5449 113.473 11.2806 112.988 11.0938 112.423C10.9115 111.853 10.8203 111.22 10.8203 110.522V109.531C10.8203 108.834 10.9115 108.203 11.0938 107.638C11.2806 107.068 11.5472 106.58 11.8936 106.175C12.2445 105.769 12.666 105.457 13.1582 105.238C13.6504 105.02 14.2041 104.91 14.8193 104.91C15.5713 104.91 16.207 105.051 16.7266 105.334C17.2461 105.617 17.6494 106.008 17.9365 106.51C18.2282 107.007 18.4082 107.583 18.4766 108.239H17.1641C17.1003 107.774 16.9818 107.376 16.8086 107.043C16.6354 106.706 16.3893 106.446 16.0703 106.264C15.7513 106.081 15.3343 105.99 14.8193 105.99C14.3773 105.99 13.9876 106.075 13.6504 106.243C13.3177 106.412 13.0374 106.651 12.8096 106.961C12.5863 107.271 12.4176 107.642 12.3037 108.075C12.1898 108.508 12.1328 108.989 12.1328 109.518V110.522C12.1328 111.01 12.1829 111.468 12.2832 111.896C12.388 112.325 12.5452 112.701 12.7549 113.024C12.9645 113.348 13.2311 113.603 13.5547 113.79C13.8783 113.972 14.2611 114.063 14.7031 114.063C15.2637 114.063 15.7103 113.975 16.043 113.797C16.3757 113.619 16.6263 113.364 16.7949 113.031C16.9681 112.699 17.0911 112.3 17.1641 111.835ZM24.8584 113.291V107.604H26.1299V115H24.9199L24.8584 113.291ZM25.0977 111.732L25.624 111.719C25.624 112.211 25.5716 112.667 25.4668 113.086C25.3665 113.501 25.2025 113.861 24.9746 114.166C24.7467 114.471 24.4482 114.711 24.0791 114.884C23.71 115.052 23.2611 115.137 22.7324 115.137C22.3724 115.137 22.042 115.084 21.7412 114.979C21.445 114.875 21.1898 114.713 20.9756 114.494C20.7614 114.275 20.5951 113.991 20.4766 113.64C20.3626 113.289 20.3057 112.867 20.3057 112.375V107.604H21.5703V112.389C21.5703 112.721 21.6068 112.997 21.6797 113.216C21.7572 113.43 21.8597 113.601 21.9873 113.729C22.1195 113.852 22.2653 113.938 22.4248 113.988C22.5889 114.038 22.7575 114.063 22.9307 114.063C23.4684 114.063 23.8945 113.961 24.209 113.756C24.5234 113.546 24.749 113.266 24.8857 112.915C25.027 112.56 25.0977 112.165 25.0977 111.732ZM29.5723 108.766V115H28.3076V107.604H29.5381L29.5723 108.766ZM31.8828 107.562L31.876 108.738C31.7712 108.715 31.6709 108.702 31.5752 108.697C31.484 108.688 31.3792 108.684 31.2607 108.684C30.9691 108.684 30.7116 108.729 30.4883 108.82C30.265 108.911 30.0758 109.039 29.9209 109.203C29.766 109.367 29.6429 109.563 29.5518 109.791C29.4652 110.014 29.4082 110.26 29.3809 110.529L29.0254 110.734C29.0254 110.288 29.0687 109.868 29.1553 109.477C29.2464 109.085 29.3854 108.738 29.5723 108.438C29.7591 108.132 29.9961 107.895 30.2832 107.727C30.5749 107.553 30.9212 107.467 31.3223 107.467C31.4134 107.467 31.5182 107.478 31.6367 107.501C31.7552 107.519 31.8372 107.54 31.8828 107.562ZM34.5664 108.766V115H33.3018V107.604H34.5322L34.5664 108.766ZM36.877 107.562L36.8701 108.738C36.7653 108.715 36.665 108.702 36.5693 108.697C36.4782 108.688 36.3734 108.684 36.2549 108.684C35.9632 108.684 35.7057 108.729 35.4824 108.82C35.2591 108.911 35.07 109.039 34.915 109.203C34.7601 109.367 34.637 109.563 34.5459 109.791C34.4593 110.014 34.4023 110.26 34.375 110.529L34.0195 110.734C34.0195 110.288 34.0628 109.868 34.1494 109.477C34.2406 109.085 34.3796 108.738 34.5664 108.438C34.7533 108.132 34.9902 107.895 35.2773 107.727C35.569 107.553 35.9154 107.467 36.3164 107.467C36.4076 107.467 36.5124 107.478 36.6309 107.501C36.7493 107.519 36.8314 107.54 36.877 107.562ZM41.2285 115.137C40.7135 115.137 40.2464 115.05 39.8271 114.877C39.4124 114.699 39.0547 114.451 38.7539 114.132C38.4577 113.813 38.2298 113.435 38.0703 112.997C37.9108 112.56 37.8311 112.081 37.8311 111.562V111.274C37.8311 110.673 37.9199 110.137 38.0977 109.668C38.2754 109.194 38.5169 108.793 38.8223 108.465C39.1276 108.137 39.474 107.888 39.8613 107.72C40.2487 107.551 40.6497 107.467 41.0645 107.467C41.5931 107.467 42.0488 107.558 42.4316 107.74C42.819 107.923 43.1357 108.178 43.3818 108.506C43.6279 108.829 43.8102 109.212 43.9287 109.654C44.0472 110.092 44.1064 110.57 44.1064 111.09V111.657H38.583V110.625H42.8418V110.529C42.8236 110.201 42.7552 109.882 42.6367 109.572C42.5228 109.262 42.3405 109.007 42.0898 108.807C41.8392 108.606 41.4974 108.506 41.0645 108.506C40.7773 108.506 40.513 108.567 40.2715 108.69C40.0299 108.809 39.8226 108.987 39.6494 109.224C39.4762 109.461 39.3418 109.75 39.2461 110.092C39.1504 110.434 39.1025 110.828 39.1025 111.274V111.562C39.1025 111.912 39.1504 112.243 39.2461 112.553C39.3464 112.858 39.4899 113.127 39.6768 113.359C39.8682 113.592 40.0983 113.774 40.3672 113.906C40.6406 114.038 40.9505 114.104 41.2969 114.104C41.7435 114.104 42.1217 114.013 42.4316 113.831C42.7415 113.649 43.0127 113.405 43.2451 113.1L44.0107 113.708C43.8512 113.95 43.6484 114.18 43.4023 114.398C43.1562 114.617 42.8532 114.795 42.4932 114.932C42.1377 115.068 41.7161 115.137 41.2285 115.137ZM47.0977 109.183V115H45.833V107.604H47.0293L47.0977 109.183ZM46.7969 111.021L46.2705 111.001C46.2751 110.495 46.3503 110.028 46.4961 109.6C46.6419 109.167 46.847 108.791 47.1113 108.472C47.3757 108.153 47.6901 107.907 48.0547 107.733C48.4238 107.556 48.8317 107.467 49.2783 107.467C49.6429 107.467 49.971 107.517 50.2627 107.617C50.5544 107.713 50.8027 107.868 51.0078 108.082C51.2174 108.296 51.377 108.574 51.4863 108.916C51.5957 109.253 51.6504 109.666 51.6504 110.153V115H50.3789V110.14C50.3789 109.752 50.3219 109.442 50.208 109.21C50.0941 108.973 49.9277 108.802 49.709 108.697C49.4902 108.588 49.2214 108.533 48.9023 108.533C48.5879 108.533 48.3008 108.599 48.041 108.731C47.7858 108.864 47.5648 109.046 47.3779 109.278C47.1956 109.511 47.0521 109.777 46.9473 110.078C46.847 110.374 46.7969 110.689 46.7969 111.021ZM56.7812 114.098C57.082 114.098 57.36 114.036 57.6152 113.913C57.8704 113.79 58.0801 113.621 58.2441 113.407C58.4082 113.188 58.5016 112.94 58.5244 112.662H59.7275C59.7048 113.1 59.5566 113.507 59.2832 113.886C59.0143 114.259 58.6611 114.562 58.2236 114.795C57.7861 115.023 57.3053 115.137 56.7812 115.137C56.2253 115.137 55.7399 115.039 55.3252 114.843C54.915 114.647 54.5732 114.378 54.2998 114.036C54.0309 113.694 53.8281 113.302 53.6914 112.86C53.5592 112.414 53.4932 111.942 53.4932 111.445V111.158C53.4932 110.661 53.5592 110.192 53.6914 109.75C53.8281 109.303 54.0309 108.909 54.2998 108.567C54.5732 108.226 54.915 107.957 55.3252 107.761C55.7399 107.565 56.2253 107.467 56.7812 107.467C57.36 107.467 57.8659 107.585 58.2988 107.822C58.7318 108.055 59.0713 108.374 59.3174 108.779C59.568 109.18 59.7048 109.636 59.7275 110.146H58.5244C58.5016 109.841 58.415 109.565 58.2646 109.319C58.1188 109.073 57.9183 108.877 57.6631 108.731C57.4124 108.581 57.1185 108.506 56.7812 108.506C56.3939 108.506 56.068 108.583 55.8037 108.738C55.5439 108.889 55.3366 109.094 55.1816 109.354C55.0312 109.609 54.9219 109.894 54.8535 110.208C54.7897 110.518 54.7578 110.835 54.7578 111.158V111.445C54.7578 111.769 54.7897 112.088 54.8535 112.402C54.9173 112.717 55.0244 113.002 55.1748 113.257C55.3298 113.512 55.5371 113.717 55.7969 113.872C56.0612 114.022 56.3893 114.098 56.7812 114.098ZM63.4775 114.234L65.5352 107.604H66.8887L63.9219 116.142C63.8535 116.324 63.7624 116.52 63.6484 116.729C63.5391 116.944 63.3978 117.146 63.2246 117.338C63.0514 117.529 62.8418 117.684 62.5957 117.803C62.3542 117.926 62.0648 117.987 61.7275 117.987C61.6273 117.987 61.4997 117.974 61.3447 117.946C61.1898 117.919 61.0804 117.896 61.0166 117.878L61.0098 116.853C61.0462 116.857 61.1032 116.862 61.1807 116.866C61.2627 116.875 61.3197 116.88 61.3516 116.88C61.6387 116.88 61.8825 116.841 62.083 116.764C62.2835 116.691 62.4521 116.565 62.5889 116.388C62.7301 116.215 62.8509 115.975 62.9512 115.67L63.4775 114.234ZM61.9668 107.604L63.8877 113.346L64.2158 114.679L63.3066 115.144L60.5859 107.604H61.9668Z" fill="#42474E"/>
<path d="M41.833 37.0469V47H40.5342V37.0469H41.833ZM45.0322 37.0469V38.127H37.3418V37.0469H45.0322ZM47.9414 39.6035V47H46.6699V39.6035H47.9414ZM46.5742 37.6416C46.5742 37.4365 46.6357 37.2633 46.7588 37.1221C46.8864 36.9808 47.0732 36.9102 47.3193 36.9102C47.5609 36.9102 47.7454 36.9808 47.873 37.1221C48.0052 37.2633 48.0713 37.4365 48.0713 37.6416C48.0713 37.8376 48.0052 38.0062 47.873 38.1475C47.7454 38.2842 47.5609 38.3525 47.3193 38.3525C47.0732 38.3525 46.8864 38.2842 46.7588 38.1475C46.6357 38.0062 46.5742 37.8376 46.5742 37.6416ZM51.4795 41.0732V47H50.208V39.6035H51.4111L51.4795 41.0732ZM51.2197 43.0215L50.6318 43.001C50.6364 42.4951 50.7025 42.028 50.8301 41.5996C50.9577 41.1667 51.1468 40.7907 51.3975 40.4717C51.6481 40.1527 51.9603 39.9066 52.334 39.7334C52.7077 39.5557 53.1406 39.4668 53.6328 39.4668C53.9792 39.4668 54.2982 39.5169 54.5898 39.6172C54.8815 39.7129 55.1344 39.8656 55.3486 40.0752C55.5628 40.2848 55.7292 40.5537 55.8477 40.8818C55.9661 41.21 56.0254 41.6064 56.0254 42.0713V47H54.7607V42.1328C54.7607 41.7454 54.6947 41.4355 54.5625 41.2031C54.4349 40.9707 54.2526 40.8021 54.0156 40.6973C53.7786 40.5879 53.5007 40.5332 53.1816 40.5332C52.8079 40.5332 52.4958 40.5993 52.2451 40.7314C51.9945 40.8636 51.7939 41.0459 51.6436 41.2783C51.4932 41.5107 51.3838 41.7773 51.3154 42.0781C51.2516 42.3743 51.2197 42.6888 51.2197 43.0215ZM56.0117 42.3242L55.1641 42.584C55.1686 42.1784 55.2347 41.7887 55.3623 41.415C55.4945 41.0413 55.6836 40.7087 55.9297 40.417C56.1803 40.1253 56.488 39.8952 56.8525 39.7266C57.2171 39.5534 57.6341 39.4668 58.1035 39.4668C58.5 39.4668 58.8509 39.5192 59.1562 39.624C59.4661 39.7288 59.7259 39.8906 59.9355 40.1094C60.1497 40.3236 60.3115 40.5993 60.4209 40.9365C60.5303 41.2738 60.585 41.6748 60.585 42.1396V47H59.3135V42.126C59.3135 41.7113 59.2474 41.39 59.1152 41.1621C58.9876 40.9297 58.8053 40.7679 58.5684 40.6768C58.3359 40.5811 58.0579 40.5332 57.7344 40.5332C57.4564 40.5332 57.2103 40.5811 56.9961 40.6768C56.7819 40.7725 56.6019 40.9046 56.4561 41.0732C56.3102 41.2373 56.1986 41.4264 56.1211 41.6406C56.0482 41.8548 56.0117 42.0827 56.0117 42.3242ZM65.8184 47.1367C65.3034 47.1367 64.8363 47.0501 64.417 46.877C64.0023 46.6992 63.6445 46.4508 63.3438 46.1318C63.0475 45.8128 62.8197 45.4346 62.6602 44.9971C62.5007 44.5596 62.4209 44.0811 62.4209 43.5615V43.2744C62.4209 42.6729 62.5098 42.1374 62.6875 41.668C62.8652 41.194 63.1068 40.793 63.4121 40.4648C63.7174 40.1367 64.0638 39.8883 64.4512 39.7197C64.8385 39.5511 65.2396 39.4668 65.6543 39.4668C66.1829 39.4668 66.6387 39.5579 67.0215 39.7402C67.4089 39.9225 67.7256 40.1777 67.9717 40.5059C68.2178 40.8294 68.4001 41.2122 68.5186 41.6543C68.637 42.0918 68.6963 42.5703 68.6963 43.0898V43.6572H63.1729V42.625H67.4316V42.5293C67.4134 42.2012 67.3451 41.8822 67.2266 41.5723C67.1126 41.2624 66.9303 41.0072 66.6797 40.8066C66.429 40.6061 66.0872 40.5059 65.6543 40.5059C65.3672 40.5059 65.1029 40.5674 64.8613 40.6904C64.6198 40.8089 64.4124 40.9867 64.2393 41.2236C64.0661 41.4606 63.9316 41.75 63.8359 42.0918C63.7402 42.4336 63.6924 42.8278 63.6924 43.2744V43.5615C63.6924 43.9124 63.7402 44.2428 63.8359 44.5527C63.9362 44.8581 64.0798 45.127 64.2666 45.3594C64.458 45.5918 64.6882 45.7741 64.957 45.9062C65.2305 46.0384 65.5404 46.1045 65.8867 46.1045C66.3333 46.1045 66.7116 46.0133 67.0215 45.8311C67.3314 45.6488 67.6025 45.4049 67.835 45.0996L68.6006 45.708C68.4411 45.9495 68.2383 46.1797 67.9922 46.3984C67.7461 46.6172 67.443 46.7949 67.083 46.9316C66.7275 47.0684 66.306 47.1367 65.8184 47.1367ZM71.7969 36.5V47H70.5254V36.5H71.7969ZM75.4512 39.6035V47H74.1797V39.6035H75.4512ZM74.084 37.6416C74.084 37.4365 74.1455 37.2633 74.2686 37.1221C74.3962 36.9808 74.583 36.9102 74.8291 36.9102C75.0706 36.9102 75.2552 36.9808 75.3828 37.1221C75.515 37.2633 75.5811 37.4365 75.5811 37.6416C75.5811 37.8376 75.515 38.0062 75.3828 38.1475C75.2552 38.2842 75.0706 38.3525 74.8291 38.3525C74.583 38.3525 74.3962 38.2842 74.2686 38.1475C74.1455 38.0062 74.084 37.8376 74.084 37.6416ZM78.9961 41.1826V47H77.7314V39.6035H78.9277L78.9961 41.1826ZM78.6953 43.0215L78.1689 43.001C78.1735 42.4951 78.2487 42.028 78.3945 41.5996C78.5404 41.1667 78.7454 40.7907 79.0098 40.4717C79.2741 40.1527 79.5885 39.9066 79.9531 39.7334C80.3223 39.5557 80.7301 39.4668 81.1768 39.4668C81.5413 39.4668 81.8695 39.5169 82.1611 39.6172C82.4528 39.7129 82.7012 39.8678 82.9062 40.082C83.1159 40.2962 83.2754 40.5742 83.3848 40.916C83.4941 41.2533 83.5488 41.6657 83.5488 42.1533V47H82.2773V42.1396C82.2773 41.7523 82.2204 41.4424 82.1064 41.21C81.9925 40.973 81.8262 40.8021 81.6074 40.6973C81.3887 40.5879 81.1198 40.5332 80.8008 40.5332C80.4863 40.5332 80.1992 40.5993 79.9395 40.7314C79.6842 40.8636 79.4632 41.0459 79.2764 41.2783C79.0941 41.5107 78.9505 41.7773 78.8457 42.0781C78.7454 42.3743 78.6953 42.6888 78.6953 43.0215ZM88.7891 47.1367C88.2741 47.1367 87.807 47.0501 87.3877 46.877C86.973 46.6992 86.6152 46.4508 86.3145 46.1318C86.0182 45.8128 85.7904 45.4346 85.6309 44.9971C85.4714 44.5596 85.3916 44.0811 85.3916 43.5615V43.2744C85.3916 42.6729 85.4805 42.1374 85.6582 41.668C85.8359 41.194 86.0775 40.793 86.3828 40.4648C86.6882 40.1367 87.0345 39.8883 87.4219 39.7197C87.8092 39.5511 88.2103 39.4668 88.625 39.4668C89.1536 39.4668 89.6094 39.5579 89.9922 39.7402C90.3796 39.9225 90.6963 40.1777 90.9424 40.5059C91.1885 40.8294 91.3708 41.2122 91.4893 41.6543C91.6077 42.0918 91.667 42.5703 91.667 43.0898V43.6572H86.1436V42.625H90.4023V42.5293C90.3841 42.2012 90.3158 41.8822 90.1973 41.5723C90.0833 41.2624 89.901 41.0072 89.6504 40.8066C89.3997 40.6061 89.0579 40.5059 88.625 40.5059C88.3379 40.5059 88.0736 40.5674 87.832 40.6904C87.5905 40.8089 87.3831 40.9867 87.21 41.2236C87.0368 41.4606 86.9023 41.75 86.8066 42.0918C86.7109 42.4336 86.6631 42.8278 86.6631 43.2744V43.5615C86.6631 43.9124 86.7109 44.2428 86.8066 44.5527C86.9069 44.8581 87.0505 45.127 87.2373 45.3594C87.4287 45.5918 87.6589 45.7741 87.9277 45.9062C88.2012 46.0384 88.5111 46.1045 88.8574 46.1045C89.304 46.1045 89.6823 46.0133 89.9922 45.8311C90.3021 45.6488 90.5732 45.4049 90.8057 45.0996L91.5713 45.708C91.4118 45.9495 91.209 46.1797 90.9629 46.3984C90.7168 46.6172 90.4137 46.7949 90.0537 46.9316C89.6982 47.0684 89.2767 47.1367 88.7891 47.1367ZM97.7002 45.0381C97.7002 44.8558 97.6592 44.6872 97.5771 44.5322C97.4997 44.3727 97.3379 44.2292 97.0918 44.1016C96.8503 43.9694 96.4857 43.8555 95.998 43.7598C95.5879 43.6732 95.2165 43.5706 94.8838 43.4521C94.5557 43.3337 94.2754 43.1901 94.043 43.0215C93.8151 42.8529 93.6396 42.6546 93.5166 42.4268C93.3936 42.1989 93.332 41.9323 93.332 41.627C93.332 41.3353 93.3958 41.0596 93.5234 40.7998C93.6556 40.54 93.8402 40.3099 94.0771 40.1094C94.3187 39.9089 94.6081 39.7516 94.9453 39.6377C95.2826 39.5238 95.6585 39.4668 96.0732 39.4668C96.6657 39.4668 97.1715 39.5716 97.5908 39.7812C98.0101 39.9909 98.3314 40.2712 98.5547 40.6221C98.778 40.9684 98.8896 41.3535 98.8896 41.7773H97.625C97.625 41.5723 97.5635 41.374 97.4404 41.1826C97.3219 40.9867 97.1465 40.8249 96.9141 40.6973C96.6862 40.5697 96.4059 40.5059 96.0732 40.5059C95.7223 40.5059 95.4375 40.5605 95.2188 40.6699C95.0046 40.7747 94.8473 40.9092 94.7471 41.0732C94.6514 41.2373 94.6035 41.4105 94.6035 41.5928C94.6035 41.7295 94.6263 41.8525 94.6719 41.9619C94.722 42.0667 94.8086 42.1647 94.9316 42.2559C95.0547 42.3424 95.2279 42.4245 95.4512 42.502C95.6745 42.5794 95.9593 42.6569 96.3057 42.7344C96.9118 42.8711 97.4108 43.0352 97.8027 43.2266C98.1947 43.418 98.4863 43.6527 98.6777 43.9307C98.8691 44.2087 98.9648 44.5459 98.9648 44.9424C98.9648 45.266 98.8965 45.5622 98.7598 45.8311C98.6276 46.0999 98.4339 46.3324 98.1787 46.5283C97.9281 46.7197 97.6273 46.8701 97.2764 46.9795C96.93 47.0843 96.5404 47.1367 96.1074 47.1367C95.4557 47.1367 94.9043 47.0205 94.4531 46.7881C94.002 46.5557 93.6602 46.2549 93.4277 45.8857C93.1953 45.5166 93.0791 45.127 93.0791 44.7168H94.3506C94.3688 45.0632 94.4691 45.3389 94.6514 45.5439C94.8337 45.7445 95.057 45.888 95.3213 45.9746C95.5856 46.0566 95.8477 46.0977 96.1074 46.0977C96.4538 46.0977 96.7432 46.0521 96.9756 45.9609C97.2126 45.8698 97.3926 45.7445 97.5156 45.585C97.6387 45.4255 97.7002 45.2432 97.7002 45.0381ZM105.183 45.0381C105.183 44.8558 105.142 44.6872 105.06 44.5322C104.982 44.3727 104.82 44.2292 104.574 44.1016C104.333 43.9694 103.968 43.8555 103.48 43.7598C103.07 43.6732 102.699 43.5706 102.366 43.4521C102.038 43.3337 101.758 43.1901 101.525 43.0215C101.298 42.8529 101.122 42.6546 100.999 42.4268C100.876 42.1989 100.814 41.9323 100.814 41.627C100.814 41.3353 100.878 41.0596 101.006 40.7998C101.138 40.54 101.323 40.3099 101.56 40.1094C101.801 39.9089 102.09 39.7516 102.428 39.6377C102.765 39.5238 103.141 39.4668 103.556 39.4668C104.148 39.4668 104.654 39.5716 105.073 39.7812C105.493 39.9909 105.814 40.2712 106.037 40.6221C106.26 40.9684 106.372 41.3535 106.372 41.7773H105.107C105.107 41.5723 105.046 41.374 104.923 41.1826C104.804 40.9867 104.629 40.8249 104.396 40.6973C104.169 40.5697 103.888 40.5059 103.556 40.5059C103.205 40.5059 102.92 40.5605 102.701 40.6699C102.487 40.7747 102.33 40.9092 102.229 41.0732C102.134 41.2373 102.086 41.4105 102.086 41.5928C102.086 41.7295 102.109 41.8525 102.154 41.9619C102.204 42.0667 102.291 42.1647 102.414 42.2559C102.537 42.3424 102.71 42.4245 102.934 42.502C103.157 42.5794 103.442 42.6569 103.788 42.7344C104.394 42.8711 104.893 43.0352 105.285 43.2266C105.677 43.418 105.969 43.6527 106.16 43.9307C106.352 44.2087 106.447 44.5459 106.447 44.9424C106.447 45.266 106.379 45.5622 106.242 45.8311C106.11 46.0999 105.916 46.3324 105.661 46.5283C105.41 46.7197 105.11 46.8701 104.759 46.9795C104.412 47.0843 104.023 47.1367 103.59 47.1367C102.938 47.1367 102.387 47.0205 101.936 46.7881C101.484 46.5557 101.143 46.2549 100.91 45.8857C100.678 45.5166 100.562 45.127 100.562 44.7168H101.833C101.851 45.0632 101.951 45.3389 102.134 45.5439C102.316 45.7445 102.539 45.888 102.804 45.9746C103.068 46.0566 103.33 46.0977 103.59 46.0977C103.936 46.0977 104.226 46.0521 104.458 45.9609C104.695 45.8698 104.875 45.7445 104.998 45.585C105.121 45.4255 105.183 45.2432 105.183 45.0381Z" fill="#42474E"/>
<path d="M301.368 113.489L304.301 105.047H305.729L302.045 115H301.026L301.368 113.489ZM298.627 105.047L301.532 113.489L301.895 115H300.876L297.198 105.047H298.627ZM311.175 113.735V109.928C311.175 109.636 311.116 109.383 310.997 109.169C310.883 108.95 310.71 108.782 310.478 108.663C310.245 108.545 309.958 108.485 309.616 108.485C309.297 108.485 309.017 108.54 308.775 108.649C308.538 108.759 308.352 108.902 308.215 109.08C308.083 109.258 308.017 109.449 308.017 109.654H306.752C306.752 109.39 306.82 109.128 306.957 108.868C307.094 108.608 307.29 108.374 307.545 108.164C307.805 107.95 308.115 107.781 308.475 107.658C308.839 107.531 309.245 107.467 309.691 107.467C310.229 107.467 310.703 107.558 311.113 107.74C311.528 107.923 311.852 108.198 312.084 108.567C312.321 108.932 312.439 109.39 312.439 109.941V113.387C312.439 113.633 312.46 113.895 312.501 114.173C312.547 114.451 312.613 114.69 312.699 114.891V115H311.38C311.316 114.854 311.266 114.66 311.229 114.419C311.193 114.173 311.175 113.945 311.175 113.735ZM311.394 110.516L311.407 111.404H310.129C309.769 111.404 309.448 111.434 309.165 111.493C308.882 111.548 308.646 111.632 308.454 111.746C308.263 111.86 308.117 112.004 308.017 112.177C307.916 112.345 307.866 112.544 307.866 112.771C307.866 113.004 307.919 113.216 308.023 113.407C308.128 113.599 308.285 113.751 308.495 113.865C308.709 113.975 308.971 114.029 309.281 114.029C309.669 114.029 310.01 113.947 310.307 113.783C310.603 113.619 310.838 113.419 311.011 113.182C311.188 112.945 311.284 112.715 311.298 112.491L311.838 113.1C311.806 113.291 311.719 113.503 311.578 113.735C311.437 113.968 311.248 114.191 311.011 114.405C310.778 114.615 310.5 114.79 310.177 114.932C309.858 115.068 309.498 115.137 309.097 115.137C308.595 115.137 308.156 115.039 307.777 114.843C307.404 114.647 307.112 114.385 306.902 114.057C306.697 113.724 306.595 113.353 306.595 112.942C306.595 112.546 306.672 112.197 306.827 111.896C306.982 111.591 307.205 111.338 307.497 111.138C307.789 110.933 308.14 110.778 308.55 110.673C308.96 110.568 309.418 110.516 309.924 110.516H311.394ZM316.053 104.5V115H314.781V104.5H316.053ZM319.707 107.604V115H318.436V107.604H319.707ZM318.34 105.642C318.34 105.437 318.401 105.263 318.524 105.122C318.652 104.981 318.839 104.91 319.085 104.91C319.326 104.91 319.511 104.981 319.639 105.122C319.771 105.263 319.837 105.437 319.837 105.642C319.837 105.838 319.771 106.006 319.639 106.147C319.511 106.284 319.326 106.353 319.085 106.353C318.839 106.353 318.652 106.284 318.524 106.147C318.401 106.006 318.34 105.838 318.34 105.642ZM326.649 113.564V104.5H327.921V115H326.759L326.649 113.564ZM321.673 111.384V111.24C321.673 110.675 321.741 110.162 321.878 109.702C322.019 109.237 322.217 108.839 322.473 108.506C322.732 108.173 323.04 107.918 323.396 107.74C323.756 107.558 324.157 107.467 324.599 107.467C325.063 107.467 325.469 107.549 325.815 107.713C326.166 107.872 326.463 108.107 326.704 108.417C326.95 108.722 327.144 109.091 327.285 109.524C327.426 109.957 327.524 110.447 327.579 110.994V111.623C327.529 112.165 327.431 112.653 327.285 113.086C327.144 113.519 326.95 113.888 326.704 114.193C326.463 114.499 326.166 114.733 325.815 114.897C325.465 115.057 325.054 115.137 324.585 115.137C324.152 115.137 323.756 115.043 323.396 114.856C323.04 114.67 322.732 114.408 322.473 114.07C322.217 113.733 322.019 113.337 321.878 112.881C321.741 112.421 321.673 111.922 321.673 111.384ZM322.944 111.24V111.384C322.944 111.753 322.981 112.099 323.054 112.423C323.131 112.746 323.25 113.031 323.409 113.277C323.569 113.523 323.771 113.717 324.018 113.858C324.264 113.995 324.558 114.063 324.899 114.063C325.319 114.063 325.663 113.975 325.932 113.797C326.205 113.619 326.424 113.384 326.588 113.093C326.752 112.801 326.88 112.484 326.971 112.143V110.495C326.916 110.244 326.836 110.003 326.731 109.771C326.631 109.534 326.499 109.324 326.335 109.142C326.175 108.955 325.977 108.807 325.74 108.697C325.508 108.588 325.232 108.533 324.913 108.533C324.567 108.533 324.268 108.606 324.018 108.752C323.771 108.893 323.569 109.089 323.409 109.34C323.25 109.586 323.131 109.873 323.054 110.201C322.981 110.525 322.944 110.871 322.944 111.24ZM331.514 107.604V115H330.242V107.604H331.514ZM330.146 105.642C330.146 105.437 330.208 105.263 330.331 105.122C330.459 104.981 330.646 104.91 330.892 104.91C331.133 104.91 331.318 104.981 331.445 105.122C331.577 105.263 331.644 105.437 331.644 105.642C331.644 105.838 331.577 106.006 331.445 106.147C331.318 106.284 331.133 106.353 330.892 106.353C330.646 106.353 330.459 106.284 330.331 106.147C330.208 106.006 330.146 105.838 330.146 105.642ZM336.891 107.604V108.574H332.892V107.604H336.891ZM334.245 105.806H335.51V113.168C335.51 113.419 335.549 113.608 335.626 113.735C335.703 113.863 335.804 113.947 335.927 113.988C336.05 114.029 336.182 114.05 336.323 114.05C336.428 114.05 336.537 114.041 336.651 114.022C336.77 114 336.859 113.981 336.918 113.968L336.925 115C336.825 115.032 336.692 115.062 336.528 115.089C336.369 115.121 336.175 115.137 335.947 115.137C335.637 115.137 335.353 115.075 335.093 114.952C334.833 114.829 334.626 114.624 334.471 114.337C334.32 114.045 334.245 113.653 334.245 113.161V105.806ZM340.702 114.234L342.76 107.604H344.113L341.146 116.142C341.078 116.324 340.987 116.52 340.873 116.729C340.764 116.944 340.622 117.146 340.449 117.338C340.276 117.529 340.066 117.684 339.82 117.803C339.579 117.926 339.289 117.987 338.952 117.987C338.852 117.987 338.724 117.974 338.569 117.946C338.414 117.919 338.305 117.896 338.241 117.878L338.234 116.853C338.271 116.857 338.328 116.862 338.405 116.866C338.487 116.875 338.544 116.88 338.576 116.88C338.863 116.88 339.107 116.841 339.308 116.764C339.508 116.691 339.677 116.565 339.813 116.388C339.955 116.215 340.076 115.975 340.176 115.67L340.702 114.234ZM339.191 107.604L341.112 113.346L341.44 114.679L340.531 115.144L337.811 107.604H339.191Z" fill="#42474E"/>
<path d="M283.826 191.097H281.167V190.023H283.826C284.341 190.023 284.758 189.941 285.077 189.777C285.396 189.613 285.629 189.385 285.774 189.094C285.925 188.802 286 188.469 286 188.096C286 187.754 285.925 187.433 285.774 187.132C285.629 186.831 285.396 186.59 285.077 186.407C284.758 186.22 284.341 186.127 283.826 186.127H281.475V195H280.155V185.047H283.826C284.578 185.047 285.214 185.177 285.733 185.437C286.253 185.696 286.647 186.056 286.916 186.517C287.185 186.972 287.319 187.494 287.319 188.082C287.319 188.72 287.185 189.265 286.916 189.716C286.647 190.167 286.253 190.511 285.733 190.748C285.214 190.98 284.578 191.097 283.826 191.097ZM290.311 188.766V195H289.046V187.604H290.276L290.311 188.766ZM292.621 187.562L292.614 188.738C292.509 188.715 292.409 188.702 292.313 188.697C292.222 188.688 292.118 188.684 291.999 188.684C291.707 188.684 291.45 188.729 291.227 188.82C291.003 188.911 290.814 189.039 290.659 189.203C290.504 189.367 290.381 189.563 290.29 189.791C290.203 190.014 290.146 190.26 290.119 190.529L289.764 190.734C289.764 190.288 289.807 189.868 289.894 189.477C289.985 189.085 290.124 188.738 290.311 188.438C290.497 188.132 290.734 187.895 291.021 187.727C291.313 187.553 291.66 187.467 292.061 187.467C292.152 187.467 292.257 187.478 292.375 187.501C292.493 187.519 292.576 187.54 292.621 187.562ZM296.973 195.137C296.458 195.137 295.991 195.05 295.571 194.877C295.157 194.699 294.799 194.451 294.498 194.132C294.202 193.813 293.974 193.435 293.814 192.997C293.655 192.56 293.575 192.081 293.575 191.562V191.274C293.575 190.673 293.664 190.137 293.842 189.668C294.02 189.194 294.261 188.793 294.566 188.465C294.872 188.137 295.218 187.888 295.605 187.72C295.993 187.551 296.394 187.467 296.809 187.467C297.337 187.467 297.793 187.558 298.176 187.74C298.563 187.923 298.88 188.178 299.126 188.506C299.372 188.829 299.554 189.212 299.673 189.654C299.791 190.092 299.851 190.57 299.851 191.09V191.657H294.327V190.625H298.586V190.529C298.568 190.201 298.499 189.882 298.381 189.572C298.267 189.262 298.085 189.007 297.834 188.807C297.583 188.606 297.242 188.506 296.809 188.506C296.521 188.506 296.257 188.567 296.016 188.69C295.774 188.809 295.567 188.987 295.394 189.224C295.22 189.461 295.086 189.75 294.99 190.092C294.895 190.434 294.847 190.828 294.847 191.274V191.562C294.847 191.912 294.895 192.243 294.99 192.553C295.09 192.858 295.234 193.127 295.421 193.359C295.612 193.592 295.842 193.774 296.111 193.906C296.385 194.038 296.695 194.104 297.041 194.104C297.488 194.104 297.866 194.013 298.176 193.831C298.486 193.649 298.757 193.405 298.989 193.1L299.755 193.708C299.595 193.95 299.393 194.18 299.146 194.398C298.9 194.617 298.597 194.795 298.237 194.932C297.882 195.068 297.46 195.137 296.973 195.137ZM304.537 194.098C304.838 194.098 305.116 194.036 305.371 193.913C305.626 193.79 305.836 193.621 306 193.407C306.164 193.188 306.257 192.94 306.28 192.662H307.483C307.461 193.1 307.312 193.507 307.039 193.886C306.77 194.259 306.417 194.562 305.979 194.795C305.542 195.023 305.061 195.137 304.537 195.137C303.981 195.137 303.496 195.039 303.081 194.843C302.671 194.647 302.329 194.378 302.056 194.036C301.787 193.694 301.584 193.302 301.447 192.86C301.315 192.414 301.249 191.942 301.249 191.445V191.158C301.249 190.661 301.315 190.192 301.447 189.75C301.584 189.303 301.787 188.909 302.056 188.567C302.329 188.226 302.671 187.957 303.081 187.761C303.496 187.565 303.981 187.467 304.537 187.467C305.116 187.467 305.622 187.585 306.055 187.822C306.488 188.055 306.827 188.374 307.073 188.779C307.324 189.18 307.461 189.636 307.483 190.146H306.28C306.257 189.841 306.171 189.565 306.021 189.319C305.875 189.073 305.674 188.877 305.419 188.731C305.168 188.581 304.874 188.506 304.537 188.506C304.15 188.506 303.824 188.583 303.56 188.738C303.3 188.889 303.092 189.094 302.938 189.354C302.787 189.609 302.678 189.894 302.609 190.208C302.546 190.518 302.514 190.835 302.514 191.158V191.445C302.514 191.769 302.546 192.088 302.609 192.402C302.673 192.717 302.78 193.002 302.931 193.257C303.086 193.512 303.293 193.717 303.553 193.872C303.817 194.022 304.145 194.098 304.537 194.098ZM310.529 187.604V195H309.258V187.604H310.529ZM309.162 185.642C309.162 185.437 309.224 185.263 309.347 185.122C309.474 184.981 309.661 184.91 309.907 184.91C310.149 184.91 310.333 184.981 310.461 185.122C310.593 185.263 310.659 185.437 310.659 185.642C310.659 185.838 310.593 186.006 310.461 186.147C310.333 186.284 310.149 186.353 309.907 186.353C309.661 186.353 309.474 186.284 309.347 186.147C309.224 186.006 309.162 185.838 309.162 185.642ZM317.116 193.038C317.116 192.856 317.075 192.687 316.993 192.532C316.916 192.373 316.754 192.229 316.508 192.102C316.266 191.969 315.902 191.855 315.414 191.76C315.004 191.673 314.632 191.571 314.3 191.452C313.972 191.334 313.691 191.19 313.459 191.021C313.231 190.853 313.056 190.655 312.933 190.427C312.81 190.199 312.748 189.932 312.748 189.627C312.748 189.335 312.812 189.06 312.939 188.8C313.072 188.54 313.256 188.31 313.493 188.109C313.735 187.909 314.024 187.752 314.361 187.638C314.699 187.524 315.075 187.467 315.489 187.467C316.082 187.467 316.588 187.572 317.007 187.781C317.426 187.991 317.747 188.271 317.971 188.622C318.194 188.968 318.306 189.354 318.306 189.777H317.041C317.041 189.572 316.979 189.374 316.856 189.183C316.738 188.987 316.562 188.825 316.33 188.697C316.102 188.57 315.822 188.506 315.489 188.506C315.138 188.506 314.854 188.561 314.635 188.67C314.421 188.775 314.263 188.909 314.163 189.073C314.067 189.237 314.02 189.41 314.02 189.593C314.02 189.729 314.042 189.853 314.088 189.962C314.138 190.067 314.225 190.165 314.348 190.256C314.471 190.342 314.644 190.424 314.867 190.502C315.09 190.579 315.375 190.657 315.722 190.734C316.328 190.871 316.827 191.035 317.219 191.227C317.611 191.418 317.902 191.653 318.094 191.931C318.285 192.209 318.381 192.546 318.381 192.942C318.381 193.266 318.312 193.562 318.176 193.831C318.044 194.1 317.85 194.332 317.595 194.528C317.344 194.72 317.043 194.87 316.692 194.979C316.346 195.084 315.956 195.137 315.523 195.137C314.872 195.137 314.32 195.021 313.869 194.788C313.418 194.556 313.076 194.255 312.844 193.886C312.611 193.517 312.495 193.127 312.495 192.717H313.767C313.785 193.063 313.885 193.339 314.067 193.544C314.25 193.744 314.473 193.888 314.737 193.975C315.002 194.057 315.264 194.098 315.523 194.098C315.87 194.098 316.159 194.052 316.392 193.961C316.629 193.87 316.809 193.744 316.932 193.585C317.055 193.425 317.116 193.243 317.116 193.038ZM321.666 187.604V195H320.395V187.604H321.666ZM320.299 185.642C320.299 185.437 320.36 185.263 320.483 185.122C320.611 184.981 320.798 184.91 321.044 184.91C321.285 184.91 321.47 184.981 321.598 185.122C321.73 185.263 321.796 185.437 321.796 185.642C321.796 185.838 321.73 186.006 321.598 186.147C321.47 186.284 321.285 186.353 321.044 186.353C320.798 186.353 320.611 186.284 320.483 186.147C320.36 186.006 320.299 185.838 320.299 185.642ZM323.611 191.384V191.227C323.611 190.693 323.689 190.199 323.844 189.743C323.999 189.283 324.222 188.884 324.514 188.547C324.805 188.205 325.159 187.941 325.573 187.754C325.988 187.562 326.453 187.467 326.968 187.467C327.487 187.467 327.954 187.562 328.369 187.754C328.788 187.941 329.144 188.205 329.436 188.547C329.732 188.884 329.957 189.283 330.112 189.743C330.267 190.199 330.345 190.693 330.345 191.227V191.384C330.345 191.917 330.267 192.411 330.112 192.867C329.957 193.323 329.732 193.722 329.436 194.063C329.144 194.401 328.791 194.665 328.376 194.856C327.966 195.043 327.501 195.137 326.981 195.137C326.462 195.137 325.995 195.043 325.58 194.856C325.165 194.665 324.81 194.401 324.514 194.063C324.222 193.722 323.999 193.323 323.844 192.867C323.689 192.411 323.611 191.917 323.611 191.384ZM324.876 191.227V191.384C324.876 191.753 324.919 192.102 325.006 192.43C325.092 192.753 325.222 193.04 325.396 193.291C325.573 193.542 325.794 193.74 326.059 193.886C326.323 194.027 326.631 194.098 326.981 194.098C327.328 194.098 327.631 194.027 327.891 193.886C328.155 193.74 328.374 193.542 328.547 193.291C328.72 193.04 328.85 192.753 328.937 192.43C329.028 192.102 329.073 191.753 329.073 191.384V191.227C329.073 190.862 329.028 190.518 328.937 190.194C328.85 189.866 328.718 189.577 328.54 189.326C328.367 189.071 328.148 188.87 327.884 188.725C327.624 188.579 327.319 188.506 326.968 188.506C326.621 188.506 326.316 188.579 326.052 188.725C325.792 188.87 325.573 189.071 325.396 189.326C325.222 189.577 325.092 189.866 325.006 190.194C324.919 190.518 324.876 190.862 324.876 191.227ZM333.445 189.183V195H332.181V187.604H333.377L333.445 189.183ZM333.145 191.021L332.618 191.001C332.623 190.495 332.698 190.028 332.844 189.6C332.99 189.167 333.195 188.791 333.459 188.472C333.723 188.153 334.038 187.907 334.402 187.733C334.771 187.556 335.179 187.467 335.626 187.467C335.991 187.467 336.319 187.517 336.61 187.617C336.902 187.713 337.15 187.868 337.355 188.082C337.565 188.296 337.725 188.574 337.834 188.916C337.943 189.253 337.998 189.666 337.998 190.153V195H336.727V190.14C336.727 189.752 336.67 189.442 336.556 189.21C336.442 188.973 336.275 188.802 336.057 188.697C335.838 188.588 335.569 188.533 335.25 188.533C334.936 188.533 334.648 188.599 334.389 188.731C334.133 188.864 333.912 189.046 333.726 189.278C333.543 189.511 333.4 189.777 333.295 190.078C333.195 190.374 333.145 190.689 333.145 191.021Z" fill="#42474E"/>
<path d="M177.515 39.2013C177.741 39.1169 177.99 39.1169 178.215 39.2013L236.729 61.0664C236.95 61.149 237.135 61.3072 237.251 61.513L268.416 116.932C268.528 117.132 268.568 117.365 268.529 117.591L257.702 180.632C257.663 180.86 257.545 181.068 257.37 181.22L209.647 222.332C209.465 222.488 209.234 222.574 208.994 222.574H146.737C146.497 222.574 146.265 222.488 146.084 222.332L98.3611 181.22C98.1852 181.068 98.0675 180.86 98.0282 180.632L87.2012 117.591C87.1623 117.365 87.2025 117.132 87.3151 116.932L118.48 61.513C118.596 61.3072 118.78 61.149 119.002 61.0664L177.515 39.2013Z" stroke="#C9C9C9" stroke-width="2"/>
<path d="M177.515 58.4565C177.741 58.3724 177.989 58.3724 178.214 58.4565L224.749 75.8173C224.971 75.8998 225.155 76.0578 225.271 76.2634L250.061 120.273C250.173 120.474 250.214 120.707 250.175 120.934L241.562 170.999C241.523 171.228 241.405 171.436 241.229 171.588L203.272 204.233C203.091 204.389 202.86 204.475 202.62 204.475H153.11C152.87 204.475 152.639 204.389 152.458 204.233L114.501 171.588C114.325 171.436 114.207 171.228 114.168 170.999L105.555 120.934C105.516 120.707 105.556 120.474 105.669 120.273L104.801 119.784L105.669 120.273L130.459 76.2635C130.574 76.0578 130.759 75.8998 130.98 75.8173L177.515 58.4565Z" stroke="#C9C9C9" stroke-width="2"/>
<path d="M177.513 76.476C177.74 76.3907 177.99 76.3907 178.217 76.476L178.568 75.54L178.217 76.476L213.166 89.616C213.387 89.6992 213.572 89.8579 213.687 90.0642L232.321 123.403C232.432 123.602 232.472 123.834 232.434 124.059L225.958 161.996C225.919 162.224 225.802 162.432 225.627 162.583L197.109 187.302C196.927 187.46 196.694 187.546 196.454 187.546H159.275C159.035 187.546 158.802 187.46 158.621 187.302L130.102 162.583C129.927 162.432 129.81 162.224 129.771 161.996L123.295 124.059C123.257 123.834 123.297 123.602 123.408 123.403L142.042 90.0642C142.157 89.858 142.342 89.6992 142.563 89.616L177.513 76.476Z" stroke="#C9C9C9" stroke-width="2"/>
<path d="M145.706 153.264L145.051 154.02L145.706 153.264C145.531 153.112 145.414 152.905 145.375 152.676L141.039 127.295C141.001 127.07 141.041 126.838 141.152 126.639L153.624 104.341C153.739 104.135 153.924 103.976 154.145 103.893L177.515 95.1125C177.741 95.0273 177.991 95.0273 178.218 95.1125L201.588 103.893C201.809 103.976 201.994 104.135 202.109 104.341L214.58 126.639C214.692 126.838 214.732 127.07 214.693 127.295L210.358 152.676C210.319 152.905 210.202 153.112 210.027 153.264L190.949 169.789C190.767 169.946 190.535 170.033 190.294 170.033H165.439C165.198 170.033 164.966 169.946 164.784 169.789L145.706 153.264Z" stroke="#C9C9C9" stroke-width="2"/>
<path d="M177.514 111.885C177.74 111.801 177.989 111.801 178.215 111.885L191.205 116.745C191.426 116.827 191.611 116.986 191.726 117.191L198.67 129.552C198.782 129.752 198.823 129.985 198.784 130.211L196.369 144.289C196.329 144.517 196.212 144.725 196.036 144.877L185.423 154.029C185.242 154.186 185.01 154.272 184.77 154.272H170.959C170.719 154.272 170.487 154.186 170.306 154.029L159.693 144.877C159.517 144.725 159.4 144.517 159.36 144.289L156.945 130.211C156.907 129.985 156.947 129.752 157.059 129.552L164.003 117.191C164.118 116.986 164.303 116.827 164.524 116.745L177.514 111.885Z" stroke="#C9C9C9" stroke-width="2"/>
</svg>
