<svg width="85" height="24" viewBox="0 0 85 24" fill="none" xmlns="http://www.w3.org/2000/svg">
<path d="M7.875 13.2969H9.82812C9.76562 14.0417 9.55729 14.7057 9.20312 15.2891C8.84896 15.8672 8.35156 16.3229 7.71094 16.6562C7.07031 16.9896 6.29167 17.1562 5.375 17.1562C4.67188 17.1562 4.03906 17.0312 3.47656 16.7812C2.91406 16.526 2.43229 16.1667 2.03125 15.7031C1.63021 15.2344 1.32292 14.6693 1.10938 14.0078C0.901042 13.3464 0.796875 12.6068 0.796875 11.7891V10.8438C0.796875 10.026 0.903646 9.28646 1.11719 8.625C1.33594 7.96354 1.64844 7.39844 2.05469 6.92969C2.46094 6.45573 2.94792 6.09375 3.51562 5.84375C4.08854 5.59375 4.73177 5.46875 5.44531 5.46875C6.35156 5.46875 7.11719 5.63542 7.74219 5.96875C8.36719 6.30208 8.85156 6.76302 9.19531 7.35156C9.54427 7.9401 9.75781 8.61458 9.83594 9.375H7.88281C7.83073 8.88542 7.71615 8.46615 7.53906 8.11719C7.36719 7.76823 7.11198 7.5026 6.77344 7.32031C6.4349 7.13281 5.99219 7.03906 5.44531 7.03906C4.9974 7.03906 4.60677 7.1224 4.27344 7.28906C3.9401 7.45573 3.66146 7.70052 3.4375 8.02344C3.21354 8.34635 3.04427 8.74479 2.92969 9.21875C2.82031 9.6875 2.76562 10.224 2.76562 10.8281V11.7891C2.76562 12.362 2.8151 12.8828 2.91406 13.3516C3.01823 13.8151 3.17448 14.2135 3.38281 14.5469C3.59635 14.8802 3.86719 15.138 4.19531 15.3203C4.52344 15.5026 4.91667 15.5938 5.375 15.5938C5.93229 15.5938 6.38281 15.5052 6.72656 15.3281C7.07552 15.151 7.33854 14.8932 7.51562 14.5547C7.69792 14.2109 7.81771 13.7917 7.875 13.2969ZM13.5875 5V17H11.6969V5H13.5875ZM19.5266 17.1562C18.9016 17.1562 18.3365 17.0547 17.8313 16.8516C17.3313 16.6432 16.9042 16.3542 16.55 15.9844C16.201 15.6146 15.9328 15.1797 15.7453 14.6797C15.5578 14.1797 15.4641 13.6406 15.4641 13.0625V12.75C15.4641 12.0885 15.5604 11.4896 15.7531 10.9531C15.9458 10.4167 16.2141 9.95833 16.5578 9.57812C16.9016 9.19271 17.3078 8.89844 17.7766 8.69531C18.2453 8.49219 18.7531 8.39062 19.3 8.39062C19.9042 8.39062 20.4328 8.49219 20.8859 8.69531C21.3391 8.89844 21.7141 9.1849 22.0109 9.55469C22.313 9.91927 22.537 10.3542 22.6828 10.8594C22.8339 11.3646 22.9094 11.9219 22.9094 12.5312V13.3359H16.3781V11.9844H21.05V11.8359C21.0396 11.4974 20.9719 11.1797 20.8469 10.8828C20.7271 10.5859 20.5422 10.3464 20.2922 10.1641C20.0422 9.98177 19.7089 9.89062 19.2922 9.89062C18.9797 9.89062 18.701 9.95833 18.4563 10.0938C18.2167 10.224 18.0161 10.4141 17.8547 10.6641C17.6932 10.9141 17.5682 11.2161 17.4797 11.5703C17.3964 11.9193 17.3547 12.3125 17.3547 12.75V13.0625C17.3547 13.4323 17.4042 13.776 17.5031 14.0938C17.6073 14.4062 17.7583 14.6797 17.9563 14.9141C18.1542 15.1484 18.3938 15.3333 18.675 15.4688C18.9563 15.599 19.2766 15.6641 19.6359 15.6641C20.0891 15.6641 20.4927 15.5729 20.8469 15.3906C21.201 15.2083 21.5083 14.9505 21.7688 14.6172L22.7609 15.5781C22.5786 15.8438 22.3417 16.099 22.05 16.3438C21.7583 16.5833 21.4016 16.7786 20.9797 16.9297C20.563 17.0807 20.0786 17.1562 19.5266 17.1562ZM29.2938 15.3047V11.2734C29.2938 10.9714 29.2391 10.7109 29.1297 10.4922C29.0203 10.2734 28.8536 10.1042 28.6297 9.98438C28.4109 9.86458 28.1349 9.80469 27.8016 9.80469C27.4943 9.80469 27.2286 9.85677 27.0047 9.96094C26.7807 10.0651 26.6063 10.2057 26.4813 10.3828C26.3563 10.5599 26.2938 10.7604 26.2938 10.9844H24.4188C24.4188 10.651 24.4995 10.3281 24.6609 10.0156C24.8224 9.70312 25.0568 9.42448 25.3641 9.17969C25.6714 8.9349 26.0385 8.74219 26.4656 8.60156C26.8927 8.46094 27.3719 8.39062 27.9031 8.39062C28.5385 8.39062 29.101 8.4974 29.5906 8.71094C30.0854 8.92448 30.4734 9.2474 30.7547 9.67969C31.0411 10.1068 31.1844 10.6432 31.1844 11.2891V15.0469C31.1844 15.4323 31.2104 15.7786 31.2625 16.0859C31.3198 16.388 31.4005 16.651 31.5047 16.875V17H29.575C29.4865 16.7969 29.4161 16.5391 29.3641 16.2266C29.3172 15.9089 29.2938 15.6016 29.2938 15.3047ZM29.5672 11.8594L29.5828 13.0234H28.2313C27.8823 13.0234 27.575 13.0573 27.3094 13.125C27.0438 13.1875 26.8224 13.2812 26.6453 13.4062C26.4682 13.5312 26.3354 13.6823 26.2469 13.8594C26.1583 14.0365 26.1141 14.237 26.1141 14.4609C26.1141 14.6849 26.1661 14.8906 26.2703 15.0781C26.3745 15.2604 26.5255 15.4036 26.7234 15.5078C26.9266 15.612 27.1714 15.6641 27.4578 15.6641C27.8432 15.6641 28.1792 15.5859 28.4656 15.4297C28.7573 15.2682 28.9865 15.0729 29.1531 14.8438C29.3198 14.6094 29.4083 14.388 29.4188 14.1797L30.0281 15.0156C29.9656 15.2292 29.8589 15.4583 29.7078 15.7031C29.5568 15.9479 29.3589 16.1823 29.1141 16.4062C28.8745 16.625 28.5854 16.8047 28.2469 16.9453C27.9135 17.0859 27.5281 17.1562 27.0906 17.1562C26.5385 17.1562 26.0464 17.0469 25.6141 16.8281C25.1818 16.6042 24.8432 16.3047 24.5984 15.9297C24.3536 15.5495 24.2313 15.1198 24.2313 14.6406C24.2313 14.1927 24.3146 13.7969 24.4813 13.4531C24.6531 13.1042 24.9031 12.8125 25.2313 12.5781C25.5646 12.3438 25.9708 12.1667 26.45 12.0469C26.9292 11.9219 27.476 11.8594 28.0906 11.8594H29.5672ZM35.1937 10.1562V17H33.3109V8.54688H35.1078L35.1937 10.1562ZM37.7797 8.49219L37.7641 10.2422C37.6495 10.2214 37.5245 10.2057 37.3891 10.1953C37.2589 10.1849 37.1286 10.1797 36.9984 10.1797C36.6755 10.1797 36.3917 10.2266 36.1469 10.3203C35.9021 10.4089 35.6964 10.5391 35.5297 10.7109C35.3682 10.8776 35.2432 11.0807 35.1547 11.3203C35.0661 11.5599 35.0141 11.8281 34.9984 12.125L34.5687 12.1562C34.5687 11.625 34.6208 11.1328 34.725 10.6797C34.8292 10.2266 34.9854 9.82812 35.1937 9.48438C35.4073 9.14062 35.6729 8.8724 35.9906 8.67969C36.3135 8.48698 36.6859 8.39062 37.1078 8.39062C37.2224 8.39062 37.3448 8.40104 37.475 8.42188C37.6104 8.44271 37.712 8.46615 37.7797 8.49219ZM47.8609 7.14062L44.4625 17H42.4078L46.6891 5.625H48.0016L47.8609 7.14062ZM50.7047 17L47.2984 7.14062L47.15 5.625H48.4703L52.7672 17H50.7047ZM50.5406 12.7812V14.3359H44.3531V12.7812H50.5406ZM56.0187 5V17H54.1281V5H56.0187ZM60.2469 5V17H58.3563V5H60.2469Z" fill="#043365"/>
<path d="M0 18.5625H61.3406V19.3438H0V18.5625Z" fill="#043365"/>
<path d="M81.25 7.8075L80.1925 6.75L76 10.9425L71.8075 6.75L70.75 7.8075L74.9425 12L70.75 16.1925L71.8075 17.25L76 13.0575L80.1925 17.25L81.25 16.1925L77.0575 12L81.25 7.8075Z" fill="#043365"/>
</svg>
