<svg width="16" height="16" viewBox="0 0 16 16" fill="none" xmlns="http://www.w3.org/2000/svg">
<path d="M4.42941 1.42871C3.93686 1.42871 3.46449 1.62437 3.11621 1.97266C2.76793 2.32094 2.57227 2.79331 2.57227 3.28585V12.7144C2.57227 13.207 2.76793 13.6793 3.11621 14.0276C3.46449 14.3759 3.93686 14.5716 4.42941 14.5716H8.52084C8.28768 14.3112 8.08715 14.0234 7.92369 13.7144H4.42941C4.18895 13.7144 3.95654 13.6278 3.77477 13.4703C3.593 13.3129 3.47405 13.0953 3.43969 12.8573H7.58369C7.50632 12.5772 7.45769 12.29 7.43855 12.0001H3.42941V3.28585C3.42941 2.73385 3.87741 2.28585 4.42941 2.28585H11.5723C12.1243 2.28585 12.5723 2.73385 12.5723 3.28585V7.51443C12.8667 7.57418 13.1541 7.66498 13.4294 7.78528V3.28585C13.4294 2.79331 13.2337 2.32094 12.8855 1.97266C12.5372 1.62437 12.0648 1.42871 11.5723 1.42871H4.42941ZM5.28655 3.42871C4.89227 3.42871 4.57227 3.74871 4.57227 4.143V5.28585C4.57227 5.68014 4.89227 6.00014 5.28655 6.00014H10.7151C11.1094 6.00014 11.4294 5.68014 11.4294 5.28585V4.143C11.4294 3.74871 11.1094 3.42871 10.7151 3.42871H5.28655ZM5.42941 5.143V4.28585H10.5723V5.143H5.42941ZM15.4294 11.7144C15.4294 12.6995 15.0381 13.6443 14.3415 14.3408C13.645 15.0374 12.7002 15.4287 11.7151 15.4287C10.73 15.4287 9.78529 15.0374 9.08873 14.3408C8.39216 13.6443 8.00084 12.6995 8.00084 11.7144C8.00084 10.7293 8.39216 9.78459 9.08873 9.08803C9.78529 8.39147 10.73 8.00014 11.7151 8.00014C12.7002 8.00014 13.645 8.39147 14.3415 9.08803C15.0381 9.78459 15.4294 10.7293 15.4294 11.7144ZM12.0008 9.42871C12.0008 9.35294 11.9707 9.28026 11.9172 9.22668C11.8636 9.1731 11.7909 9.143 11.7151 9.143C11.6393 9.143 11.5667 9.1731 11.5131 9.22668C11.4595 9.28026 11.4294 9.35294 11.4294 9.42871V11.4287H9.42941C9.35363 11.4287 9.28096 11.4588 9.22738 11.5124C9.1738 11.566 9.14369 11.6386 9.14369 11.7144C9.14369 11.7902 9.1738 11.8629 9.22738 11.9165C9.28096 11.97 9.35363 12.0001 9.42941 12.0001H11.4294V14.0001C11.4294 14.0759 11.4595 14.1486 11.5131 14.2022C11.5667 14.2558 11.6393 14.2859 11.7151 14.2859C11.7909 14.2859 11.8636 14.2558 11.9172 14.2022C11.9707 14.1486 12.0008 14.0759 12.0008 14.0001V12.0001H14.0008C14.0766 12.0001 14.1493 11.97 14.2029 11.9165C14.2564 11.8629 14.2866 11.7902 14.2866 11.7144C14.2866 11.6386 14.2564 11.566 14.2029 11.5124C14.1493 11.4588 14.0766 11.4287 14.0008 11.4287H12.0008V9.42871Z" fill="#72777F"/>
</svg>
