<svg width="24" height="24" viewBox="0 0 24 24" fill="none" xmlns="http://www.w3.org/2000/svg">
<circle cx="12" cy="12" r="12" fill="#DEEBFF"/>
<path d="M8 9C8 8.73478 8.10536 8.48043 8.29289 8.29289C8.48043 8.10536 8.73478 8 9 8H10.5C10.7652 8 11.0196 8.10536 11.2071 8.29289C11.3946 8.48043 11.5 8.73478 11.5 9V10.5C11.5 10.7652 11.3946 11.0196 11.2071 11.2071C11.0196 11.3946 10.7652 11.5 10.5 11.5H9C8.73478 11.5 8.48043 11.3946 8.29289 11.2071C8.10536 11.0196 8 10.7652 8 10.5V9ZM10.5 9H9V10.5H10.5V9ZM9 12.5C8.73478 12.5 8.48043 12.6054 8.29289 12.7929C8.10536 12.9804 8 13.2348 8 13.5V15C8 15.2652 8.10536 15.5196 8.29289 15.7071C8.48043 15.8946 8.73478 16 9 16H10.5C10.7652 16 11.0196 15.8946 11.2071 15.7071C11.3946 15.5196 11.5 15.2652 11.5 15V13.5C11.5 13.2348 11.3946 12.9804 11.2071 12.7929C11.0196 12.6054 10.7652 12.5 10.5 12.5H9ZM9 13.5H10.5V15H9V13.5ZM12.5 9C12.5 8.73478 12.6054 8.48043 12.7929 8.29289C12.9804 8.10536 13.2348 8 13.5 8H15C15.2652 8 15.5196 8.10536 15.7071 8.29289C15.8946 8.48043 16 8.73478 16 9V10.5C16 10.7652 15.8946 11.0196 15.7071 11.2071C15.5196 11.3946 15.2652 11.5 15 11.5H13.5C13.2348 11.5 12.9804 11.3946 12.7929 11.2071C12.6054 11.0196 12.5 10.7652 12.5 10.5V9ZM15 9H13.5V10.5H15V9ZM13.5 12.5C13.2348 12.5 12.9804 12.6054 12.7929 12.7929C12.6054 12.9804 12.5 13.2348 12.5 13.5V15C12.5 15.2652 12.6054 15.5196 12.7929 15.7071C12.9804 15.8946 13.2348 16 13.5 16H15C15.2652 16 15.5196 15.8946 15.7071 15.7071C15.8946 15.5196 16 15.2652 16 15V13.5C16 13.2348 15.8946 12.9804 15.7071 12.7929C15.5196 12.6054 15.2652 12.5 15 12.5H13.5ZM13.5 13.5H15V15H13.5V13.5ZM6 8.5C6 7.83696 6.26339 7.20107 6.73223 6.73223C7.20107 6.26339 7.83696 6 8.5 6H15.5C16.163 6 16.7989 6.26339 17.2678 6.73223C17.7366 7.20107 18 7.83696 18 8.5V15.5C18 16.163 17.7366 16.7989 17.2678 17.2678C16.7989 17.7366 16.163 18 15.5 18H8.5C7.83696 18 7.20107 17.7366 6.73223 17.2678C6.26339 16.7989 6 16.163 6 15.5V8.5ZM8.5 7C8.10218 7 7.72064 7.15804 7.43934 7.43934C7.15804 7.72064 7 8.10218 7 8.5V15.5C7 15.8978 7.15804 16.2794 7.43934 16.5607C7.72064 16.842 8.10218 17 8.5 17H15.5C15.8978 17 16.2794 16.842 16.5607 16.5607C16.842 16.2794 17 15.8978 17 15.5V8.5C17 8.10218 16.842 7.72064 16.5607 7.43934C16.2794 7.15804 15.8978 7 15.5 7H8.5Z" fill="#043365"/>
</svg>
