<svg width="30" height="30" viewBox="0 0 30 30" fill="none" xmlns="http://www.w3.org/2000/svg">
<rect x="8" y="8" width="14" height="14" rx="7" fill="white"/>
<path d="M18.7923 12.0833C18.8697 12.0833 18.9439 12.1141 18.9986 12.1688C19.0533 12.2235 19.084 12.2976 19.084 12.375V17.625C19.084 17.7024 19.0533 17.7765 18.9986 17.8312C18.9439 17.8859 18.8697 17.9167 18.7923 17.9167H11.209C11.1316 17.9167 11.0574 17.8859 11.0027 17.8312C10.948 17.7765 10.9173 17.7024 10.9173 17.625V12.375C10.9173 12.2976 10.948 12.2235 11.0027 12.1688C11.0574 12.1141 11.1316 12.0833 11.209 12.0833H18.7923ZM11.209 11.5C10.9769 11.5 10.7544 11.5922 10.5903 11.7563C10.4262 11.9204 10.334 12.1429 10.334 12.375V17.625C10.334 17.8571 10.4262 18.0796 10.5903 18.2437C10.7544 18.4078 10.9769 18.5 11.209 18.5H18.7923C19.0244 18.5 19.2469 18.4078 19.411 18.2437C19.5751 18.0796 19.6673 17.8571 19.6673 17.625V12.375C19.6673 12.1429 19.5751 11.9204 19.411 11.7563C19.2469 11.5922 19.0244 11.5 18.7923 11.5H11.209Z" fill="#008CE6"/>
<path d="M12.084 13.5417C12.084 13.4643 12.1147 13.3901 12.1694 13.3354C12.2241 13.2807 12.2983 13.25 12.3757 13.25H17.6257C17.703 13.25 17.7772 13.2807 17.8319 13.3354C17.8866 13.3901 17.9173 13.4643 17.9173 13.5417C17.9173 13.619 17.8866 13.6932 17.8319 13.7479C17.7772 13.8026 17.703 13.8333 17.6257 13.8333H12.3757C12.2983 13.8333 12.2241 13.8026 12.1694 13.7479C12.1147 13.6932 12.084 13.619 12.084 13.5417ZM12.084 15C12.084 14.9226 12.1147 14.8485 12.1694 14.7938C12.2241 14.7391 12.2983 14.7083 12.3757 14.7083H17.6257C17.703 14.7083 17.7772 14.7391 17.8319 14.7938C17.8866 14.8485 17.9173 14.9226 17.9173 15C17.9173 15.0774 17.8866 15.1515 17.8319 15.2062C17.7772 15.2609 17.703 15.2917 17.6257 15.2917H12.3757C12.2983 15.2917 12.2241 15.2609 12.1694 15.2062C12.1147 15.1515 12.084 15.0774 12.084 15ZM12.084 16.4583C12.084 16.381 12.1147 16.3068 12.1694 16.2521C12.2241 16.1974 12.2983 16.1667 12.3757 16.1667H15.8757C15.953 16.1667 16.0272 16.1974 16.0819 16.2521C16.1366 16.3068 16.1673 16.381 16.1673 16.4583C16.1673 16.5357 16.1366 16.6099 16.0819 16.6646C16.0272 16.7193 15.953 16.75 15.8757 16.75H12.3757C12.2983 16.75 12.2241 16.7193 12.1694 16.6646C12.1147 16.6099 12.084 16.5357 12.084 16.4583Z" fill="#008CE6"/>
</svg>
