<svg width="12" height="12" viewBox="0 0 12 12" fill="none" xmlns="http://www.w3.org/2000/svg">
<path d="M9.79232 3.08333C9.86967 3.08333 9.94386 3.11406 9.99856 3.16876C10.0533 3.22346 10.084 3.29765 10.084 3.375V8.625C10.084 8.70235 10.0533 8.77654 9.99856 8.83124C9.94386 8.88594 9.86967 8.91667 9.79232 8.91667H2.20898C2.13163 8.91667 2.05744 8.88594 2.00274 8.83124C1.94805 8.77654 1.91732 8.70235 1.91732 8.625V3.375C1.91732 3.29765 1.94805 3.22346 2.00274 3.16876C2.05744 3.11406 2.13163 3.08333 2.20898 3.08333H9.79232ZM2.20898 2.5C1.97692 2.5 1.75436 2.59219 1.59027 2.75628C1.42617 2.92038 1.33398 3.14294 1.33398 3.375L1.33398 8.625C1.33398 8.85706 1.42617 9.07962 1.59027 9.24372C1.75436 9.40781 1.97692 9.5 2.20898 9.5H9.79232C10.0244 9.5 10.2469 9.40781 10.411 9.24372C10.5751 9.07962 10.6673 8.85706 10.6673 8.625V3.375C10.6673 3.14294 10.5751 2.92038 10.411 2.75628C10.2469 2.59219 10.0244 2.5 9.79232 2.5H2.20898Z" fill="white"/>
<path d="M3.08398 4.54167C3.08398 4.46431 3.11471 4.39013 3.16941 4.33543C3.22411 4.28073 3.2983 4.25 3.37565 4.25H8.62565C8.70301 4.25 8.77719 4.28073 8.83189 4.33543C8.88659 4.39013 8.91732 4.46431 8.91732 4.54167C8.91732 4.61902 8.88659 4.69321 8.83189 4.74791C8.77719 4.8026 8.70301 4.83333 8.62565 4.83333H3.37565C3.2983 4.83333 3.22411 4.8026 3.16941 4.74791C3.11471 4.69321 3.08398 4.61902 3.08398 4.54167ZM3.08398 6C3.08398 5.92265 3.11471 5.84846 3.16941 5.79376C3.22411 5.73906 3.2983 5.70833 3.37565 5.70833H8.62565C8.70301 5.70833 8.77719 5.73906 8.83189 5.79376C8.88659 5.84846 8.91732 5.92265 8.91732 6C8.91732 6.07735 8.88659 6.15154 8.83189 6.20624C8.77719 6.26094 8.70301 6.29167 8.62565 6.29167H3.37565C3.2983 6.29167 3.22411 6.26094 3.16941 6.20624C3.11471 6.15154 3.08398 6.07735 3.08398 6ZM3.08398 7.45833C3.08398 7.38098 3.11471 7.30679 3.16941 7.25209C3.22411 7.1974 3.2983 7.16667 3.37565 7.16667H6.87565C6.95301 7.16667 7.02719 7.1974 7.08189 7.25209C7.13659 7.30679 7.16732 7.38098 7.16732 7.45833C7.16732 7.53569 7.13659 7.60987 7.08189 7.66457C7.02719 7.71927 6.95301 7.75 6.87565 7.75H3.37565C3.2983 7.75 3.22411 7.71927 3.16941 7.66457C3.11471 7.60987 3.08398 7.53569 3.08398 7.45833Z" fill="white"/>
</svg>
