<svg width="25" height="24" viewBox="0 0 25 24" fill="none" xmlns="http://www.w3.org/2000/svg">
<path d="M11.2452 9H13.2897V7H11.2452M12.2675 20C7.75934 20 4.08943 16.41 4.08943 12C4.08943 7.59 7.75934 4 12.2675 4C16.7756 4 20.4455 7.59 20.4455 12C20.4455 16.41 16.7756 20 12.2675 20ZM12.2675 2C10.925 2 9.59574 2.25866 8.35548 2.7612C7.11522 3.26375 5.98829 4.00035 5.03904 4.92893C3.12194 6.8043 2.04492 9.34784 2.04492 12C2.04492 14.6522 3.12194 17.1957 5.03904 19.0711C5.98829 19.9997 7.11522 20.7362 8.35548 21.2388C9.59574 21.7413 10.925 22 12.2675 22C14.9787 22 17.5788 20.9464 19.4959 19.0711C21.413 17.1957 22.49 14.6522 22.49 12C22.49 10.6868 22.2256 9.38642 21.7119 8.17317C21.1982 6.95991 20.4452 5.85752 19.4959 4.92893C18.5467 4.00035 17.4198 3.26375 16.1795 2.7612C14.9392 2.25866 13.6099 2 12.2675 2ZM11.2452 17H13.2897V11H11.2452V17Z" fill="#043365"/>
</svg>
