<svg width="16" height="16" viewBox="0 0 16 16" fill="none" xmlns="http://www.w3.org/2000/svg">
<path d="M14.5 13.7913L10.724 10.0153C11.6314 8.92601 12.0839 7.52877 11.9873 6.1143C11.8908 4.69983 11.2526 3.37704 10.2056 2.42111C9.15861 1.46517 7.78337 0.949686 6.36598 0.981892C4.94858 1.0141 3.59817 1.59151 2.59567 2.59402C1.59316 3.59653 1.01575 4.94694 0.98354 6.36433C0.951334 7.78172 1.46682 9.15696 2.42275 10.204C3.37869 11.251 4.70148 11.8891 6.11595 11.9857C7.53042 12.0822 8.92765 11.6297 10.017 10.7223L13.793 14.4983L14.5 13.7913ZM2 6.49835C2 5.60833 2.26392 4.7383 2.75838 3.99828C3.25285 3.25826 3.95565 2.68149 4.77792 2.34089C5.60019 2.0003 6.50499 1.91118 7.3779 2.08482C8.25082 2.25845 9.05264 2.68703 9.68198 3.31637C10.3113 3.9457 10.7399 4.74753 10.9135 5.62044C11.0872 6.49336 10.998 7.39816 10.6575 8.22042C10.3169 9.04269 9.74008 9.7455 9.00006 10.24C8.26004 10.7344 7.39001 10.9983 6.5 10.9983C5.30693 10.997 4.16311 10.5225 3.31948 9.67887C2.47585 8.83524 2.00132 7.69142 2 6.49835Z" fill="#72777F"/>
<rect x="6" y="3" width="1" height="5" rx="0.5" fill="#72777F"/>
<circle cx="6.5" cy="9.5" r="0.5" fill="#72777F"/>
</svg>
