<svg width="24" height="24" viewBox="0 0 24 24" fill="none" xmlns="http://www.w3.org/2000/svg">
<path d="M14.6922 2.55834L14.6924 2.55855L19.9422 7.80836C20.0592 7.92554 20.125 8.08439 20.125 8.25V20.25C20.125 20.6147 19.9801 20.9644 19.7223 21.2223C19.4644 21.4801 19.1147 21.625 18.75 21.625H5.25C4.88533 21.625 4.53559 21.4801 4.27773 21.2223C4.01987 20.9644 3.875 20.6147 3.875 20.25V3.75C3.875 3.38533 4.01987 3.03559 4.27773 2.77773C4.53559 2.51987 4.88533 2.375 5.25 2.375H14.25C14.25 2.375 14.25 2.375 14.25 2.375C14.3321 2.37501 14.4135 2.3912 14.4893 2.42266C14.5652 2.45411 14.6341 2.50022 14.6922 2.55834ZM15.3536 4.9902L14.5 4.13664V5.34375V7.5V8H15H17.1562H18.3634L17.5098 7.14645L15.3536 4.9902ZM5.125 19.875V20.375H5.625H18.375H18.875V19.875V9.75V9.25H18.375H13.875C13.7092 9.25 13.5503 9.18415 13.4331 9.06694C13.3158 8.94973 13.25 8.79076 13.25 8.625V4.125V3.625H12.75H5.625H5.125V4.125V19.875Z" fill="#72777F" stroke="#008CE6"/>
<mask id="path-2-inside-1_5412_35303" fill="white">
<path d="M15.6279 15.9997L15.0522 15.5075C15.0795 15.3405 15.0936 15.17 15.0936 14.9995C15.0936 14.829 15.0795 14.6584 15.0522 14.4915L15.6279 13.9993C15.6714 13.9621 15.7024 13.9126 15.717 13.8573C15.7316 13.8021 15.7291 13.7437 15.7097 13.6899L15.7018 13.667C15.5433 13.2241 15.306 12.8135 15.0013 12.455L14.9855 12.4366C14.9485 12.3931 14.8992 12.3619 14.8442 12.347C14.7891 12.3321 14.7308 12.3342 14.677 12.3531L13.9624 12.6071C13.6987 12.3909 13.4043 12.2204 13.0861 12.1008L12.9481 11.3538C12.9377 11.2975 12.9105 11.2458 12.87 11.2055C12.8295 11.1651 12.7776 11.1381 12.7214 11.1279L12.6977 11.1235C12.2397 11.0409 11.7581 11.0409 11.3002 11.1235L11.2765 11.1279C11.2202 11.1381 11.1684 11.1651 11.1279 11.2055C11.0874 11.2458 11.0601 11.2975 11.0497 11.3538L10.9108 12.1043C10.5952 12.2239 10.3013 12.3943 10.0407 12.6088L9.3209 12.3531C9.26708 12.334 9.20874 12.3318 9.15364 12.3467C9.09854 12.3617 9.04928 12.393 9.0124 12.4366L8.99658 12.455C8.69226 12.8137 8.45498 13.2243 8.2961 13.667L8.28819 13.6899C8.24863 13.7998 8.28115 13.9228 8.36992 13.9993L8.95264 14.4967C8.92539 14.662 8.91221 14.8307 8.91221 14.9986C8.91221 15.1673 8.92539 15.3361 8.95264 15.5004L8.36992 15.9979C8.3265 16.0351 8.29542 16.0846 8.28082 16.1398C8.26622 16.1951 8.26879 16.2535 8.28819 16.3073L8.2961 16.3301C8.45518 16.7731 8.69072 17.1818 8.99658 17.5421L9.0124 17.5606C9.04937 17.6041 9.09863 17.6353 9.1537 17.6502C9.20877 17.6651 9.26706 17.663 9.3209 17.6441L10.0407 17.3883C10.3026 17.6037 10.5953 17.7742 10.9108 17.8928L11.0497 18.6434C11.0601 18.6996 11.0874 18.7513 11.1279 18.7917C11.1684 18.832 11.2202 18.8591 11.2765 18.8693L11.3002 18.8737C11.7623 18.9567 12.2355 18.9567 12.6977 18.8737L12.7214 18.8693C12.7776 18.8591 12.8295 18.832 12.87 18.7917C12.9105 18.7513 12.9377 18.6996 12.9481 18.6434L13.0861 17.8963C13.4042 17.7771 13.7003 17.6061 13.9624 17.3901L14.677 17.6441C14.7308 17.6631 14.7891 17.6653 14.8442 17.6504C14.8993 17.6355 14.9486 17.6042 14.9855 17.5606L15.0013 17.5421C15.3071 17.1809 15.5427 16.7731 15.7018 16.3301L15.7097 16.3073C15.7492 16.1992 15.7167 16.0761 15.6279 15.9997ZM14.4282 14.5952C14.4502 14.7279 14.4616 14.8641 14.4616 15.0003C14.4616 15.1366 14.4502 15.2728 14.4282 15.4055L14.3702 15.758L15.0268 16.3196C14.9272 16.5489 14.8016 16.7659 14.6523 16.9665L13.8367 16.6773L13.5607 16.9041C13.3507 17.0763 13.1169 17.2117 12.8638 17.3066L12.5289 17.4323L12.3716 18.2848C12.1234 18.3129 11.8727 18.3129 11.6245 18.2848L11.4672 17.4305L11.135 17.3031C10.8845 17.2082 10.6516 17.0728 10.4433 16.9014L10.1673 16.6738L9.34639 16.9656C9.19697 16.7643 9.07217 16.5472 8.97197 16.3187L9.63555 15.7518L9.57842 15.4002C9.55733 15.2693 9.5459 15.1339 9.5459 15.0003C9.5459 14.8659 9.55645 14.7314 9.57842 14.6004L9.63555 14.2489L8.97197 13.682C9.07129 13.4526 9.19697 13.2364 9.34639 13.0351L10.1673 13.3269L10.4433 13.0993C10.6516 12.9279 10.8845 12.7925 11.135 12.6976L11.4681 12.5719L11.6254 11.7176C11.8724 11.6895 12.1246 11.6895 12.3725 11.7176L12.5298 12.5702L12.8647 12.6958C13.1169 12.7908 13.3516 12.9261 13.5616 13.0984L13.8376 13.3251L14.6532 13.036C14.8026 13.2373 14.9274 13.4543 15.0276 13.6829L14.3711 14.2445L14.4282 14.5952ZM11.9998 13.3656C11.1455 13.3656 10.4529 14.0582 10.4529 14.9125C10.4529 15.7667 11.1455 16.4593 11.9998 16.4593C12.8541 16.4593 13.5467 15.7667 13.5467 14.9125C13.5467 14.0582 12.8541 13.3656 11.9998 13.3656ZM12.6959 15.6085C12.6046 15.7001 12.4961 15.7727 12.3766 15.8222C12.2572 15.8717 12.1291 15.897 11.9998 15.8968C11.737 15.8968 11.49 15.794 11.3037 15.6085C11.2122 15.5172 11.1395 15.4087 11.0901 15.2893C11.0406 15.1698 11.0152 15.0418 11.0154 14.9125C11.0154 14.6497 11.1183 14.4027 11.3037 14.2164C11.49 14.03 11.737 13.9281 11.9998 13.9281C12.2626 13.9281 12.5096 14.03 12.6959 14.2164C12.7875 14.3077 12.8601 14.4162 12.9095 14.5356C12.959 14.6551 12.9844 14.7831 12.9842 14.9125C12.9842 15.1752 12.8813 15.4222 12.6959 15.6085Z"/>
</mask>
<path d="M15.6279 15.9997L15.0522 15.5075C15.0795 15.3405 15.0936 15.17 15.0936 14.9995C15.0936 14.829 15.0795 14.6584 15.0522 14.4915L15.6279 13.9993C15.6714 13.9621 15.7024 13.9126 15.717 13.8573C15.7316 13.8021 15.7291 13.7437 15.7097 13.6899L15.7018 13.667C15.5433 13.2241 15.306 12.8135 15.0013 12.455L14.9855 12.4366C14.9485 12.3931 14.8992 12.3619 14.8442 12.347C14.7891 12.3321 14.7308 12.3342 14.677 12.3531L13.9624 12.6071C13.6987 12.3909 13.4043 12.2204 13.0861 12.1008L12.9481 11.3538C12.9377 11.2975 12.9105 11.2458 12.87 11.2055C12.8295 11.1651 12.7776 11.1381 12.7214 11.1279L12.6977 11.1235C12.2397 11.0409 11.7581 11.0409 11.3002 11.1235L11.2765 11.1279C11.2202 11.1381 11.1684 11.1651 11.1279 11.2055C11.0874 11.2458 11.0601 11.2975 11.0497 11.3538L10.9108 12.1043C10.5952 12.2239 10.3013 12.3943 10.0407 12.6088L9.3209 12.3531C9.26708 12.334 9.20874 12.3318 9.15364 12.3467C9.09854 12.3617 9.04928 12.393 9.0124 12.4366L8.99658 12.455C8.69226 12.8137 8.45498 13.2243 8.2961 13.667L8.28819 13.6899C8.24863 13.7998 8.28115 13.9228 8.36992 13.9993L8.95264 14.4967C8.92539 14.662 8.91221 14.8307 8.91221 14.9986C8.91221 15.1673 8.92539 15.3361 8.95264 15.5004L8.36992 15.9979C8.3265 16.0351 8.29542 16.0846 8.28082 16.1398C8.26622 16.1951 8.26879 16.2535 8.28819 16.3073L8.2961 16.3301C8.45518 16.7731 8.69072 17.1818 8.99658 17.5421L9.0124 17.5606C9.04937 17.6041 9.09863 17.6353 9.1537 17.6502C9.20877 17.6651 9.26706 17.663 9.3209 17.6441L10.0407 17.3883C10.3026 17.6037 10.5953 17.7742 10.9108 17.8928L11.0497 18.6434C11.0601 18.6996 11.0874 18.7513 11.1279 18.7917C11.1684 18.832 11.2202 18.8591 11.2765 18.8693L11.3002 18.8737C11.7623 18.9567 12.2355 18.9567 12.6977 18.8737L12.7214 18.8693C12.7776 18.8591 12.8295 18.832 12.87 18.7917C12.9105 18.7513 12.9377 18.6996 12.9481 18.6434L13.0861 17.8963C13.4042 17.7771 13.7003 17.6061 13.9624 17.3901L14.677 17.6441C14.7308 17.6631 14.7891 17.6653 14.8442 17.6504C14.8993 17.6355 14.9486 17.6042 14.9855 17.5606L15.0013 17.5421C15.3071 17.1809 15.5427 16.7731 15.7018 16.3301L15.7097 16.3073C15.7492 16.1992 15.7167 16.0761 15.6279 15.9997ZM14.4282 14.5952C14.4502 14.7279 14.4616 14.8641 14.4616 15.0003C14.4616 15.1366 14.4502 15.2728 14.4282 15.4055L14.3702 15.758L15.0268 16.3196C14.9272 16.5489 14.8016 16.7659 14.6523 16.9665L13.8367 16.6773L13.5607 16.9041C13.3507 17.0763 13.1169 17.2117 12.8638 17.3066L12.5289 17.4323L12.3716 18.2848C12.1234 18.3129 11.8727 18.3129 11.6245 18.2848L11.4672 17.4305L11.135 17.3031C10.8845 17.2082 10.6516 17.0728 10.4433 16.9014L10.1673 16.6738L9.34639 16.9656C9.19697 16.7643 9.07217 16.5472 8.97197 16.3187L9.63555 15.7518L9.57842 15.4002C9.55733 15.2693 9.5459 15.1339 9.5459 15.0003C9.5459 14.8659 9.55645 14.7314 9.57842 14.6004L9.63555 14.2489L8.97197 13.682C9.07129 13.4526 9.19697 13.2364 9.34639 13.0351L10.1673 13.3269L10.4433 13.0993C10.6516 12.9279 10.8845 12.7925 11.135 12.6976L11.4681 12.5719L11.6254 11.7176C11.8724 11.6895 12.1246 11.6895 12.3725 11.7176L12.5298 12.5702L12.8647 12.6958C13.1169 12.7908 13.3516 12.9261 13.5616 13.0984L13.8376 13.3251L14.6532 13.036C14.8026 13.2373 14.9274 13.4543 15.0276 13.6829L14.3711 14.2445L14.4282 14.5952ZM11.9998 13.3656C11.1455 13.3656 10.4529 14.0582 10.4529 14.9125C10.4529 15.7667 11.1455 16.4593 11.9998 16.4593C12.8541 16.4593 13.5467 15.7667 13.5467 14.9125C13.5467 14.0582 12.8541 13.3656 11.9998 13.3656ZM12.6959 15.6085C12.6046 15.7001 12.4961 15.7727 12.3766 15.8222C12.2572 15.8717 12.1291 15.897 11.9998 15.8968C11.737 15.8968 11.49 15.794 11.3037 15.6085C11.2122 15.5172 11.1395 15.4087 11.0901 15.2893C11.0406 15.1698 11.0152 15.0418 11.0154 14.9125C11.0154 14.6497 11.1183 14.4027 11.3037 14.2164C11.49 14.03 11.737 13.9281 11.9998 13.9281C12.2626 13.9281 12.5096 14.03 12.6959 14.2164C12.7875 14.3077 12.8601 14.4162 12.9095 14.5356C12.959 14.6551 12.9844 14.7831 12.9842 14.9125C12.9842 15.1752 12.8813 15.4222 12.6959 15.6085Z" fill="#72777F" stroke="#008CE6" stroke-width="2" mask="url(#path-2-inside-1_5412_35303)"/>
</svg>
