<svg width="28" height="28" viewBox="0 0 28 28" fill="none" xmlns="http://www.w3.org/2000/svg">
<path d="M12.2493 18.083C12.2493 18.5147 12.1327 18.8997 11.9227 19.2497C11.526 18.5613 10.7793 18.083 9.91602 18.083C9.05268 18.083 8.30602 18.5613 7.90935 19.2497C7.71102 18.8997 7.58268 18.5147 7.58268 18.083C7.58268 16.7997 8.63268 15.7497 9.91602 15.7497C11.1993 15.7497 12.2493 16.7997 12.2493 18.083ZM26.8327 17.4997V20.9997C26.8327 21.6413 26.3077 22.1663 25.666 22.1663H24.4994V23.333C24.4994 24.628 23.461 25.6663 22.166 25.6663H5.83268C5.21384 25.6663 4.62035 25.4205 4.18277 24.9829C3.74518 24.5453 3.49935 23.9518 3.49935 23.333V22.1663H2.33268C1.69102 22.1663 1.16602 21.6413 1.16602 20.9997V17.4997C1.16602 16.858 1.69102 16.333 2.33268 16.333H3.49935C3.49935 11.818 7.15102 8.16634 11.666 8.16634H12.8327V6.68467C12.1327 6.28801 11.666 5.52967 11.666 4.66634C11.666 3.38301 12.716 2.33301 13.9993 2.33301C15.2827 2.33301 16.3327 3.38301 16.3327 4.66634C16.3327 5.52967 15.866 6.28801 15.166 6.68467V8.16634H16.3327C20.8477 8.16634 24.4994 11.818 24.4994 16.333H25.666C26.3077 16.333 26.8327 16.858 26.8327 17.4997ZM24.4994 18.6663H22.166V16.333C22.166 13.113 19.5527 10.4997 16.3327 10.4997H11.666C8.44602 10.4997 5.83268 13.113 5.83268 16.333V18.6663H3.49935V19.833H5.83268V23.333H22.166V19.833H24.4994V18.6663ZM18.0827 15.7497C16.7993 15.7497 15.7493 16.7997 15.7493 18.083C15.7493 18.5147 15.8777 18.8997 16.076 19.2497C16.4727 18.5613 17.2194 18.083 18.0827 18.083C18.946 18.083 19.6927 18.5613 20.0893 19.2497C20.2993 18.8997 20.416 18.5147 20.416 18.083C20.416 17.4642 20.1702 16.8707 19.7326 16.4331C19.295 15.9955 18.7015 15.7497 18.0827 15.7497Z" fill="#021428"/>
</svg>
