<svg width="20" height="20" viewBox="0 0 20 20" fill="none" xmlns="http://www.w3.org/2000/svg">
<path d="M20 10C20 15.5228 15.5228 20 10 20C4.47715 20 0 15.5228 0 10C0 4.47715 4.47715 0 10 0C15.5228 0 20 4.47715 20 10ZM2.85165 10C2.85165 13.9479 6.05207 17.1484 10 17.1484C13.9479 17.1484 17.1484 13.9479 17.1484 10C17.1484 6.05207 13.9479 2.85165 10 2.85165C6.05207 2.85165 2.85165 6.05207 2.85165 10Z" fill="#D9D9D9"/>
<path d="M10 0C11.5605 1.86086e-08 13.0993 0.365201 14.4934 1.06639C15.8875 1.76758 17.0981 2.78529 18.0285 4.03812C18.9588 5.29095 19.583 6.74412 19.8512 8.28139C20.1194 9.81866 20.0241 11.3974 19.5729 12.8912L16.8431 12.0667C17.1656 10.9989 17.2337 9.87037 17.042 8.77148C16.8503 7.67258 16.4041 6.63381 15.739 5.73824C15.074 4.84267 14.2086 4.11517 13.212 3.61394C12.2155 3.11271 11.1155 2.85165 10 2.85165V0Z" fill="#BA1A1A"/>
</svg>
