<svg width="12" height="12" viewBox="0 0 12 12" fill="none" xmlns="http://www.w3.org/2000/svg">
<path d="M8.11717 8.11717L7.83477 8.40037L8.40036 8.96597L8.68357 8.68357L8.11717 8.11717ZM10.8004 6.00037L11.0836 6.28357L11.366 6.00037L11.0836 5.71717L10.8004 6.00037ZM8.68357 3.31717L8.40036 3.03477L7.83477 3.60037L8.11717 3.88357L8.68357 3.31717ZM3.31717 8.68357L3.60037 8.96597L4.16597 8.40037L3.88357 8.11717L3.31717 8.68357ZM1.20037 6.00037L0.917166 5.71717L0.634766 6.00037L0.917166 6.28357L1.20037 6.00037ZM3.88357 3.88357L4.16597 3.60037L3.60037 3.03477L3.31717 3.31717L3.88357 3.88357ZM8.68357 8.68357L11.0836 6.28357L10.5172 5.71717L8.11717 8.11717L8.68357 8.68357ZM11.0836 5.71717L8.68357 3.31717L8.11717 3.88357L10.5172 6.28357L11.0836 5.71717ZM3.88357 8.11717L1.48357 5.71717L0.917166 6.28357L3.31717 8.68357L3.88357 8.11717ZM1.48357 6.28357L3.88357 3.88357L3.31717 3.31717L0.917166 5.71717L1.48357 6.28357ZM6.40596 1.13477L4.80596 10.7348L5.59477 10.866L7.19477 1.26597L6.40596 1.13477Z" fill="#008CE6"/>
</svg>
