<svg width="28" height="28" viewBox="0 0 28 28" fill="none" xmlns="http://www.w3.org/2000/svg">
<rect x="7" y="7" width="14" height="14" rx="7" fill="white"/>
<path d="M16.1172 16.1172L15.8348 16.4004L16.4004 16.966L16.6836 16.6836L16.1172 16.1172ZM18.8004 14.0004L19.0836 14.2836L19.366 14.0004L19.0836 13.7172L18.8004 14.0004ZM16.6836 11.3172L16.4004 11.0348L15.8348 11.6004L16.1172 11.8836L16.6836 11.3172ZM11.3172 16.6836L11.6004 16.966L12.166 16.4004L11.8836 16.1172L11.3172 16.6836ZM9.20037 14.0004L8.91717 13.7172L8.63477 14.0004L8.91717 14.2836L9.20037 14.0004ZM11.8836 11.8836L12.166 11.6004L11.6004 11.0348L11.3172 11.3172L11.8836 11.8836ZM16.6836 16.6836L19.0836 14.2836L18.5172 13.7172L16.1172 16.1172L16.6836 16.6836ZM19.0836 13.7172L16.6836 11.3172L16.1172 11.8836L18.5172 14.2836L19.0836 13.7172ZM11.8836 16.1172L9.48357 13.7172L8.91717 14.2836L11.3172 16.6836L11.8836 16.1172ZM9.48357 14.2836L11.8836 11.8836L11.3172 11.3172L8.91717 13.7172L9.48357 14.2836ZM14.406 9.13477L12.806 18.7348L13.5948 18.866L15.1948 9.26597L14.406 9.13477Z" fill="#008CE6"/>
</svg>
