<svg width="23" height="25" viewBox="0 0 23 25" fill="none" xmlns="http://www.w3.org/2000/svg">
<path d="M3.75 0.5C2.88805 0.5 2.0614 0.84241 1.4519 1.4519C0.84241 2.0614 0.5 2.88805 0.5 3.75V20.25C0.5 21.112 0.84241 21.9386 1.4519 22.5481C2.0614 23.1576 2.88805 23.5 3.75 23.5H10.91C10.502 23.0443 10.1511 22.5406 9.865 22H3.75C3.32919 22 2.92248 21.8483 2.60439 21.5729C2.28629 21.2974 2.07812 20.9165 2.018 20.5H9.27C9.1346 20.0099 9.04949 19.5073 9.016 19H2V3.75C2 2.784 2.784 2 3.75 2H16.25C17.216 2 18 2.784 18 3.75V11.15C18.5153 11.2546 19.0181 11.4135 19.5 11.624V3.75C19.5 2.88805 19.1576 2.0614 18.5481 1.4519C17.9386 0.84241 17.112 0.5 16.25 0.5H3.75ZM5.25 4C4.56 4 4 4.56 4 5.25V7.25C4 7.94 4.56 8.5 5.25 8.5H14.75C15.44 8.5 16 7.94 16 7.25V5.25C16 4.56 15.44 4 14.75 4H5.25ZM5.5 7V5.5H14.5V7H5.5ZM23 18.5C23 20.2239 22.3152 21.8772 21.0962 23.0962C19.8772 24.3152 18.2239 25 16.5 25C14.7761 25 13.1228 24.3152 11.9038 23.0962C10.6848 21.8772 10 20.2239 10 18.5C10 16.7761 10.6848 15.1228 11.9038 13.9038C13.1228 12.6848 14.7761 12 16.5 12C18.2239 12 19.8772 12.6848 21.0962 13.9038C22.3152 15.1228 23 16.7761 23 18.5ZM17 14.5C17 14.3674 16.9473 14.2402 16.8536 14.1464C16.7598 14.0527 16.6326 14 16.5 14C16.3674 14 16.2402 14.0527 16.1464 14.1464C16.0527 14.2402 16 14.3674 16 14.5V18H12.5C12.3674 18 12.2402 18.0527 12.1464 18.1464C12.0527 18.2402 12 18.3674 12 18.5C12 18.6326 12.0527 18.7598 12.1464 18.8536C12.2402 18.9473 12.3674 19 12.5 19H16V22.5C16 22.6326 16.0527 22.7598 16.1464 22.8536C16.2402 22.9473 16.3674 23 16.5 23C16.6326 23 16.7598 22.9473 16.8536 22.8536C16.9473 22.7598 17 22.6326 17 22.5V19H20.5C20.6326 19 20.7598 18.9473 20.8536 18.8536C20.9473 18.7598 21 18.6326 21 18.5C21 18.3674 20.9473 18.2402 20.8536 18.1464C20.7598 18.0527 20.6326 18 20.5 18H17V14.5Z" fill="#021428"/>
</svg>
