<svg width="20" height="20" viewBox="0 0 20 20" fill="none" xmlns="http://www.w3.org/2000/svg">
<mask id="mask0_816_4899" style="mask-type:alpha" maskUnits="userSpaceOnUse" x="0" y="0" width="20" height="20">
<rect width="20" height="20" fill="#D9D9D9"/>
</mask>
<g mask="url(#mask0_816_4899)">
<path d="M12 5.83333V15.3333H11.3333V10.8333V10.3333H10.8333H9.16667H8.66667V10.8333V15.3333H8V5.83333V5.37327L7.54152 5.33506C6.72147 5.26672 5.88697 5.16415 5.03795 5.02721C4.36685 4.91897 3.72281 4.78946 3.10567 4.63887L3.27979 3.94238C4.24446 4.17683 5.25847 4.35112 6.32133 4.46586C7.56086 4.59967 8.78711 4.66667 10 4.66667C11.2129 4.66667 12.4391 4.59967 13.6787 4.46586C14.7415 4.35112 15.7555 4.17683 16.7202 3.94238L16.8943 4.63887C16.2772 4.78946 15.6331 4.91897 14.9621 5.02721C14.113 5.16415 13.2785 5.26672 12.4585 5.33506L12 5.37327V5.83333ZM10.8235 0.843136L11.1771 0.489583L10.8235 0.843137C11.0569 1.07651 11.1667 1.342 11.1667 1.66667C11.1667 1.99134 11.0569 2.25683 10.8235 2.4902L11.1771 2.84375L10.8235 2.4902C10.5902 2.72357 10.3247 2.83333 10 2.83333C9.67533 2.83333 9.40984 2.72357 9.17647 2.4902C8.9431 2.25683 8.83333 1.99134 8.83333 1.66667C8.83333 1.342 8.9431 1.07651 9.17647 0.843137C9.40984 0.609768 9.67533 0.5 10 0.5C10.3247 0.5 10.5902 0.609768 10.8235 0.843136ZM6.66667 19.5C6.55647 19.5 6.4878 19.4682 6.42647 19.4069C6.36514 19.3455 6.33333 19.2769 6.33333 19.1667C6.33333 19.0565 6.36514 18.9878 6.42647 18.9265C6.4878 18.8651 6.55647 18.8333 6.66667 18.8333C6.77686 18.8333 6.84554 18.8651 6.90686 18.9265C6.96819 18.9878 7 19.0565 7 19.1667C7 19.2769 6.96819 19.3455 6.90686 19.4069C6.84554 19.4682 6.77686 19.5 6.66667 19.5ZM10 19.5C9.88981 19.5 9.82113 19.4682 9.7598 19.4069C9.69848 19.3455 9.66667 19.2769 9.66667 19.1667C9.66667 19.0565 9.69848 18.9878 9.75981 18.9265C9.82113 18.8651 9.88981 18.8333 10 18.8333C10.1102 18.8333 10.1789 18.8651 10.2402 18.9265C10.3015 18.9878 10.3333 19.0565 10.3333 19.1667C10.3333 19.2769 10.3015 19.3455 10.2402 19.4069C10.1789 19.4682 10.1102 19.5 10 19.5ZM13.3333 19.5C13.2231 19.5 13.1545 19.4682 13.0931 19.4069C13.0318 19.3455 13 19.2769 13 19.1667C13 19.0565 13.0318 18.9878 13.0931 18.9265C13.1545 18.8651 13.2231 18.8333 13.3333 18.8333C13.4435 18.8333 13.5122 18.8651 13.5735 18.9265C13.6349 18.9878 13.6667 19.0565 13.6667 19.1667C13.6667 19.2769 13.6349 19.3455 13.5735 19.4069C13.5122 19.4682 13.4435 19.5 13.3333 19.5Z" stroke="#424242"/>
</g>
</svg>
