<svg width="24" height="18" viewBox="0 0 24 18" fill="none" xmlns="http://www.w3.org/2000/svg">
<path d="M15.4931 2.25586H8.50591C8.23766 2.25586 8.02051 2.47284 8.02051 2.74314V2.74498V4.34841H15.9804V2.74498C15.9804 2.47468 15.765 2.25586 15.4968 2.25586C15.495 2.25586 15.495 2.25586 15.4931 2.25586Z" fill="#BC3618"/>
<path d="M16.3154 3.23633H7.684C7.29714 3.23633 6.98145 3.5526 6.98145 3.94243V3.94427V4.50142H17.0198V3.94427C17.0198 3.55444 16.7059 3.23633 16.319 3.23633C16.3172 3.23633 16.3172 3.23633 16.3154 3.23633Z" fill="#D13816"/>
<path d="M17.3282 4.24023H6.6713C6.28444 4.24023 5.96875 4.55651 5.96875 4.94633V4.94817V15.0321C5.96875 15.4238 6.28444 15.7419 6.67495 15.7438H17.3246C17.7133 15.7438 18.029 15.4256 18.0308 15.0321V4.94817C18.0308 4.55835 17.7169 4.24207 17.3282 4.24023Z" fill="#E15A18"/>
<path d="M9.52705 5.2793C8.788 5.2793 8.18763 5.88426 8.18946 6.62897C8.19128 7.37369 8.78982 7.97865 9.52887 7.97681C10.2679 7.97681 10.8665 7.37185 10.8665 6.62714C10.8683 5.88426 10.2679 5.2793 9.52705 5.2793ZM9.52705 7.5024C9.04712 7.5024 8.65661 7.11074 8.65661 6.6253C8.65661 6.14169 9.0453 5.74819 9.52705 5.74819C10.007 5.74819 10.3975 6.13985 10.3975 6.6253C10.3975 7.11074 10.0088 7.5024 9.52705 7.5024C9.52887 7.5024 9.52887 7.5024 9.52705 7.5024Z" fill="#F7B192"/>
<path d="M10.0308 7.83203H9.03809V10.5682H10.0308V7.83203Z" fill="#F7B192"/>
<path d="M15.8887 6.64655C15.8887 5.90184 15.2883 5.29688 14.5493 5.29688C13.8102 5.29688 13.2098 5.90184 13.2098 6.64655C13.2098 7.20555 13.5511 7.7057 14.0675 7.90613V8.83288L9.03831 10.5062H9.02919V12.2218C8.34488 12.5013 8.01642 13.2865 8.29379 13.976C8.57116 14.6656 9.35036 14.9965 10.0347 14.717C10.719 14.4375 11.0474 13.6524 10.7701 12.9628C10.6369 12.63 10.3759 12.3671 10.0493 12.2273V11.1645L15.0511 9.49853L15.0401 9.4783H15.0511V7.89326C15.5566 7.69099 15.8887 7.19635 15.8887 6.64655ZM10.3978 13.4777C10.3978 13.9613 10.0091 14.3548 9.52737 14.3548C9.04561 14.3548 8.65693 13.9631 8.65693 13.4777C8.65693 12.9941 9.04561 12.6006 9.52737 12.6006C10.0091 12.6024 10.3978 12.9941 10.3978 13.4777ZM14.5493 7.51998C14.0693 7.51998 13.6788 7.12832 13.6788 6.64288C13.6788 6.15927 14.0675 5.76577 14.5493 5.76577C15.0292 5.76577 15.4197 6.15743 15.4197 6.64288C15.4197 7.12832 15.0292 7.51998 14.5493 7.51998Z" fill="#FCDACB"/>
</svg>
