<?xml version="1.0" encoding="utf-8"?>
<!-- Generator: Adobe Illustrator 26.0.3, SVG Export Plug-In . SVG Version: 6.00 Build 0)  -->
<svg version="1.0" id="Layer_1" xmlns="http://www.w3.org/2000/svg" xmlns:xlink="http://www.w3.org/1999/xlink" x="0px" y="0px"
	 viewBox="0 0 1247.7 955" style="enable-background:new 0 0 1247.7 955;" xml:space="preserve">
<style type="text/css">
	.st0{fill:#315DA8;}
	.st1{fill:#416BB3;}
	.st2{fill:#6389C6;}
	.st3{fill:#A0B9E1;}
	.st4{fill:#AFC4E7;}
	.st5{fill:#7296CE;}
	.st6{fill:#8BA9D9;}
</style>
<path class="st0" d="M510.8,741.7l98.7,98.8h160.2c19.4,0,35.2-15.8,35.2-35.2v-370L510.8,729.5c-3.4,3.2-3.5,8.6-0.3,12
	C510.6,741.6,510.7,741.7,510.8,741.7z"/>
<path class="st1" d="M259.6,330.4v160.2l98.7,98.7c3.3,3.4,8.6,3.5,12,0.2c0.1-0.1,0.1-0.1,0.2-0.2L664.8,295h-370
	C275.3,295.1,259.5,310.9,259.6,330.4z"/>
<path class="st2" d="M629.9,151L392.4,514.5c-8,12.3-6.4,28.6,4,39l152.2,152.2c10.4,10.4,26.7,12,39,4l363.5-237.7
	c23.1-15.2,37-41,37-68.6V149.9c0-19.9-16.2-36.1-36.1-36.1H698.7C671,113.8,645.2,127.8,629.9,151z"/>
<path class="st3" d="M313,790.5V662h-53.5v179.2h181.9v-50.7H313z"/>
<path class="st4" d="M805.8,383c50,0,90.5-40.5,90.5-90.5S855.8,202,805.8,202c-50,0-90.5,40.5-90.5,90.5
	C715.3,342.5,755.8,383,805.8,383C805.8,383,805.8,383,805.8,383z"/>
<path class="st5" d="M643.8,413.8L450.3,607.3l44.6,44.6l193.5-193.5L643.8,413.8z"/>
<path class="st6" d="M456.4,690.5l38.5-38.4l-44.6-44.6l-38.5,38.4L456.4,690.5z"/>
</svg>
