<svg width="17" height="17" viewBox="0 0 17 17" fill="none" xmlns="http://www.w3.org/2000/svg">
<g clip-path="url(#clip0_1011_1877)">
<path d="M11.7924 7.15654C12.9835 7.15518 14.133 7.59984 15.02 8.40504V0.780498C15.0202 0.689008 15.0026 0.598382 14.9681 0.513816C14.9336 0.42925 14.883 0.352409 14.8192 0.287699C14.7553 0.222989 14.6795 0.171684 14.596 0.136726C14.5126 0.101768 14.4231 0.0838455 14.3328 0.0839852H0.6869C0.306645 0.0839852 0 0.39496 0 0.780498V12.1148C0 12.5007 0.306645 12.8117 0.6869 12.8117H7.0061C6.96981 12.5659 6.95162 12.3177 6.95168 12.0692C6.94924 9.3574 9.11878 7.15654 11.7924 7.15654Z" fill="#00947D"/>
<path d="M4.57733 1.36133H1.23633V3.50635H4.57803V1.36133H4.57733Z" fill="#1FC1A7"/>
<path d="M9.17046 1.36133H5.8291V3.50635H9.17046V1.36133Z" fill="#61DDC9"/>
<path d="M4.57733 4.75977H1.23633V6.90514H4.57803V4.75977H4.57733Z" fill="#9BFDEC"/>
<path d="M4.57733 8.1582H1.23633V10.2725H4.57803V8.1582H4.57733Z" fill="#00B99D"/>
<path d="M9.17046 4.75977H5.8291V6.90514H9.17046V4.75977Z" fill="#04BCA1"/>
<path d="M13.774 1.36133H10.4326V3.50635H13.7743L13.774 1.36133Z" fill="#1DC0A7"/>
<path d="M15.0194 12.1144V8.40706C14.1328 7.60118 12.983 7.15631 11.7918 7.15821C9.11813 7.15821 6.94824 9.35659 6.94824 12.0709C6.94824 12.3239 6.96743 12.5699 7.00301 12.8134H14.3325C14.5149 12.8125 14.6896 12.7385 14.8183 12.6075C14.947 12.4765 15.0195 12.2992 15.0194 12.1144Z" fill="#00BA9D"/>
<path d="M15.0203 8.4082V12.118C15.0204 12.3027 14.9481 12.4798 14.8193 12.6105C14.6905 12.7412 14.5157 12.8147 14.3334 12.8149H7.00391C7.35555 15.1747 9.36637 16.9847 11.7927 16.9847C14.4688 16.9826 16.6362 14.7842 16.6362 12.0699C16.637 11.3787 16.4934 10.695 16.2149 10.064C15.9364 9.43289 15.5293 8.86861 15.0203 8.4082Z" fill="#27CFB2"/>
<path d="M14.2804 9.65039L11.2454 12.7262L9.68633 11.1448L8.75488 12.0919L10.3139 13.6736L11.3047 14.6786L12.2365 13.7316L15.2715 10.6554L14.2804 9.65039Z" fill="#C5FDF4"/>
</g>
<defs>
<clipPath id="clip0_1011_1877">
<rect width="17" height="17" fill="white"/>
</clipPath>
</defs>
</svg>
