<svg width="332" height="308" viewBox="0 0 332 308" fill="none" xmlns="http://www.w3.org/2000/svg">
<path d="M274.127 77.2041C314.626 124.529 280.374 139.326 233.049 179.824C213.006 196.976 209.351 226.896 196.825 251.9C179.775 285.934 142.053 304.827 118.707 277.546C78.2084 230.221 30.2332 159.105 77.5578 118.607C124.882 78.1082 233.629 29.8795 274.127 77.2041Z" fill="#F3F9FF"/>
<path d="M68 201.905L106.737 202.357L139.52 230.871L102.73 252.132L68 209.95V201.905Z" fill="#40B4D3"/>
<path d="M139.52 300.775H98.2643L95.8809 205.54H139.52V300.775Z" fill="#40B4D3"/>
<path d="M98.2644 300.775L68 293.688V201.905L100.814 205.841L98.2644 300.775Z" fill="#1B89B0"/>
<path d="M126.557 194.296L117.696 204.226L134.507 297.196L141.998 300.775L126.557 194.296Z" fill="#1B89B0"/>
<path d="M167.282 81.481C167.282 81.481 159.68 86.7784 155.665 87.1031L149.125 89.0668L154.105 121.057L148.776 132.167L156.774 134.21L170.639 129.324L175.794 113.416L177.568 99.1946L167.282 81.4889V81.481Z" fill="#E3B396"/>
<path d="M154.367 117.399C154.367 117.399 159.205 124.154 167.25 123.995L161.319 139.492L148.974 150.839L142.022 169.685L111.797 162.051L129.328 134.202L146.361 113.701L154.374 117.399H154.367Z" fill="#EBEBEB"/>
<path d="M195.345 280.678C199.635 280.678 203.113 279.944 203.113 279.039C203.113 278.134 199.635 277.4 195.345 277.4C191.055 277.4 187.577 278.134 187.577 279.039C187.577 279.944 191.055 280.678 195.345 280.678Z" fill="#184254"/>
<path d="M187.854 299.263V304.156C187.854 304.156 194.703 307.775 203.762 307.68C209.812 307.617 214.183 307.458 216.416 307.371C217.39 307.332 218.166 306.532 218.158 305.558C218.15 303.99 217.968 301.876 217.128 301.424C215.758 300.688 187.854 299.271 187.854 299.271V299.263Z" fill="#D3D3D3"/>
<path d="M188.194 288.929L187.854 299.255C187.854 299.255 193.191 302.438 201.703 302.589C210.223 302.739 215.26 303.222 217.318 302.201C219.377 301.171 209.337 295.351 207.872 294.615C206.407 293.878 200.484 286.783 200.484 286.783L197.886 283.165L190.736 285.413L188.194 288.937V288.929Z" fill="#6B4F47"/>
<path d="M189.857 277.819V288.391H191.861L192.985 293.87H193.618C193.618 293.87 193.325 287.995 194.695 286.918C196.065 285.841 199.296 285.104 200.468 286.767L200.808 277.812H189.841L189.857 277.819Z" fill="#E3B396"/>
<path d="M203.113 279.039C202.123 260.137 212.187 206.941 215.545 193.036C218.308 181.594 214.08 176.352 211.934 174.515C211.324 173.993 210.556 173.692 209.756 173.628L177.694 171.102C177.591 171.102 177.496 171.086 177.393 171.086H155.079L149.069 197.708C148.459 200.401 150.795 202.839 153.511 202.349L185.922 196.489C188.574 196.006 190.863 198.334 190.396 200.987C188.028 214.543 187.719 275.84 187.719 279.023C187.719 279.023 196.398 276.354 203.113 279.023" fill="#22324D"/>
<path d="M167.86 189.141C167.86 189.141 179.714 196.18 181.353 201.826L181.828 197.233L175.802 184.176L167.868 189.141H167.86Z" fill="#CE896A"/>
<path d="M142.275 281.098C146.565 281.098 150.043 280.364 150.043 279.459C150.043 278.554 146.565 277.82 142.275 277.82C137.985 277.82 134.507 278.554 134.507 279.459C134.507 280.364 137.985 281.098 142.275 281.098Z" fill="#184254"/>
<path d="M162.689 82.4391L166.118 83.3418L155.222 90.0012L149.996 88.0137L156.6 83.516C156.6 83.516 160.266 81.8056 162.689 82.4391Z" fill="#938F71"/>
<path d="M183.34 118.325C183.34 118.325 191.528 118.531 193.46 125.484C195.392 132.436 180.569 140.719 180.569 140.719L175.287 123.837L180.664 117.945L183.34 118.333V118.325Z" fill="#938F71"/>
<path d="M195.226 104.492C195.226 104.492 194.592 114.525 192.7 117.186C191.362 119.054 191.449 126.902 191.631 131.399C191.71 133.292 193.056 136.111 193.056 136.111L178.835 130.299L180.371 127.678L184.631 120.432C184.631 120.432 183.998 119.498 183.364 118.207L183.918 118.041L189.873 116.22L180.822 107.09C183.649 104.532 193.579 98.6802 193.579 98.6802C193.579 98.6802 196.723 101.238 195.234 104.484L195.226 104.492Z" fill="#E3B396"/>
<path d="M184.504 174.792C184.504 174.792 179.072 172.789 177.552 166.232C176.016 159.676 166.347 138.676 166.347 138.676C166.347 138.676 162.016 144.9 158.136 145.114C154.24 145.336 142.133 160.785 146.9 169.899L143.352 168.782C143.352 168.782 137.231 156.897 151.231 147.228C165.231 137.56 164.724 120.725 164.724 120.725L179.587 105.989L180.806 107.208C180.521 107.462 180.308 107.675 180.189 107.858C178.748 109.877 183.649 111.389 183.649 111.389C181.06 112.529 182.208 115.99 183.348 118.326L182.248 118.674C182.248 118.674 177.885 123.394 180.355 127.804C181.06 129.079 182.358 130.346 184.504 131.447C188.163 133.323 190.324 132.848 191.615 131.518C193.318 129.776 193.468 126.537 193.468 125.484C193.5 125.532 193.5 125.587 193.516 125.634L193.563 126.252V126.268L196.81 166.232C196.81 166.232 198.1 175.901 184.504 174.792Z" fill="#C8CA83"/>
<path d="M189.873 116.228L183.918 118.049L183.364 118.215C182.224 115.887 181.076 112.427 183.665 111.279C183.665 111.279 178.764 109.758 180.205 107.747C180.323 107.565 180.537 107.359 180.822 107.098L189.873 116.228Z" fill="#E3B396"/>
<path d="M172.5 64.7336C172.5 64.7336 165.888 63.0549 164.581 68.6057C163.275 74.1565 162.198 78.8759 166.126 80.5071C166.126 80.5071 164.542 87.1824 164.914 89.6134C165.286 92.0443 167.432 103.106 172.571 106.234C177.71 109.362 183.071 108.99 186.199 105.91C189.327 102.829 192.922 98.5375 195.02 97.8803C197.118 97.223 200.666 92.1077 200.903 90.9199C201.141 89.7322 204.087 88.8295 204.087 88.8295L211.174 76.3579L201.743 61.8908L183.768 56.4746L173.45 63.8071L172.5 64.7415V64.7336Z" fill="#E3B396"/>
<path d="M178.858 95.2432C178.858 95.2432 184.591 96.9456 187.276 101.222C187.276 101.222 185.019 95.9717 178.858 95.2432Z" fill="#CE896A"/>
<path d="M88.303 169.099V183.273L100.347 176.661L101.266 167.975L88.303 169.099Z" fill="#E2DCD9"/>
<path d="M165.397 84.0312C165.397 84.0312 163.314 102.426 175.287 107.565C175.287 107.565 162.119 104.303 165.397 84.0312Z" fill="#CE957C"/>
<path d="M134.507 297.196V302.089C134.507 302.089 141.357 305.708 150.415 305.613C156.465 305.55 160.836 305.391 163.069 305.304C164.043 305.265 164.819 304.465 164.811 303.491C164.803 301.923 164.621 299.809 163.782 299.358C162.412 298.621 134.507 297.204 134.507 297.204V297.196Z" fill="#D3D3D3"/>
<path d="M134.856 286.871L134.515 297.196C134.515 297.196 139.852 300.379 148.365 300.53C156.885 300.68 161.921 301.163 163.98 300.142C166.039 299.113 155.998 293.292 154.533 292.556C153.068 291.82 147.145 284.725 147.145 284.725L144.548 281.106L137.397 283.355L134.856 286.879V286.871Z" fill="#6B4F47"/>
<path d="M136.519 275.76V286.332H138.522L139.646 291.811H140.28C140.28 291.811 139.987 285.936 141.357 284.859C142.727 283.782 145.957 283.045 147.129 284.708L147.47 275.752H136.503L136.519 275.76Z" fill="#E3B396"/>
<path d="M150.043 279.759C151.54 263.487 153.543 179.433 153.543 179.433L115.978 172.322L88.295 174.072V178.197C88.295 178.197 84.803 199.522 96.5223 204.384C108.242 209.246 126.573 205.508 126.573 205.508C126.573 205.508 129.273 266.591 134.507 279.435C134.507 279.435 142.22 277.075 150.035 279.767L150.043 279.759Z" fill="#22324D"/>
<path d="M159.759 180.491C160.649 175.257 159.979 170.778 158.263 170.486C156.547 170.194 154.435 174.201 153.545 179.435C152.655 184.669 153.324 189.148 155.04 189.44C156.756 189.732 158.869 185.725 159.759 180.491Z" fill="#3A3F29"/>
<path d="M155.008 172.726C155.008 172.726 176 179.488 179.175 186.789C182.343 194.082 184.52 198.263 181.353 201.834C181.353 201.834 181.844 191.572 175.089 190.115C168.335 188.658 159.324 189.711 157.653 184.279L152.815 182.845" fill="#E3B396"/>
<path d="M162.689 82.4391C162.689 82.4391 151.183 81.4017 154.493 99.0837C157.811 116.758 163.386 124.589 163.386 124.589L159.094 127.994L155.966 123.021C155.966 123.021 148.879 138.399 144.366 140.418C139.852 142.437 134.61 145.391 131.751 149.255C128.893 153.119 124.664 160.301 124.664 160.301C124.664 160.301 138.704 163.413 144.025 166.692C149.346 169.97 157.795 170.564 157.795 170.564C157.795 170.564 157.209 171.593 156.481 173.216C155.38 175.679 153.971 179.496 153.836 183.13C153.765 185.031 153.416 187.604 154.28 189.18L153.369 186.836C153.369 186.836 152.632 173.153 128.885 181.499C128.885 181.499 100.862 181.396 96.2926 173.153L94.503 170.667C94.503 170.667 87.9465 172.654 85.0642 167.887C85.0642 167.887 88.8413 158.543 89.1343 154.869C89.4273 151.195 102.849 106.677 115.764 98.8303C115.764 98.8303 128.481 82.9063 153.424 84.6087C153.424 84.6087 159.229 80.4515 162.689 82.4391Z" fill="#C8CA83"/>
<path d="M189.873 86.1451L185.787 81.7583L189.263 78.4009L194.719 82.4947C194.98 82.6927 194.98 83.0569 194.751 83.2866C193.009 85.0524 192.359 88.101 192.359 88.101C191.433 89.6689 191.718 94.9505 190.91 95.188C190.103 95.4256 186.357 94.8238 186.642 93.4143C186.927 92.0048 186.682 91.403 185.914 91.3238C185.146 91.2446 185.391 92.4878 185.391 92.4878C183.016 89.5105 186.199 88.3781 186.199 88.3781" fill="#DAA082"/>
<path d="M181.21 75.471L180.197 71.9473C180.197 71.9473 189.818 72.3036 191.892 78.0049C193.967 83.7141 188.123 84.0229 188.123 84.0229L181.21 75.471Z" fill="#DAA082"/>
<path d="M193.563 77.807C193.563 77.807 193.523 79.2957 192.201 79.1294C192.201 79.1294 186.135 72.6125 180.189 71.9474C180.189 71.9474 186.294 70.3399 193.563 77.807Z" fill="#5C3A2C"/>
<path d="M181.21 75.471C181.21 75.471 186.888 73.1667 189.263 78.4008C189.263 78.4008 189.049 82.3046 186.88 82.0275C184.71 81.7503 181.733 79.7945 181.21 75.471Z" fill="#F2F2F2"/>
<path d="M183.752 74.9722C183.752 74.9722 182.564 79.1056 185.241 79.1452C187.917 79.1848 188.717 77.4031 188.717 77.4031C188.717 77.4031 187.6 75.0672 183.752 74.9722Z" fill="#5C3A2C"/>
<path d="M196.572 84.7039L199.122 83.7695L203.691 85.9075L204.079 88.8373C204.079 88.8373 201.727 89.5817 201.228 90.3419C200.729 91.102 196.564 84.7118 196.564 84.7118L196.572 84.7039Z" fill="#DAA082"/>
<path d="M199.937 82.5103C199.937 82.5103 198.647 82.7953 199.09 83.8406C199.09 83.8406 203.121 85.3688 204.087 88.8371C204.087 88.8371 204.855 87.6256 204.245 85.9785C203.635 84.3315 199.937 82.5182 199.937 82.5182V82.5103Z" fill="#5C3A2C"/>
<path d="M194.014 87.1826C194.014 87.1826 195.582 83.1125 199.328 85.2109C203.073 87.3093 201.299 90.4846 199.732 90.8488C198.164 91.2131 195.828 90.2866 194.014 87.1826Z" fill="#F2F2F2"/>
<path d="M196.731 84.6564C196.731 84.6564 195.804 89.0908 198.417 89.0591C201.03 89.0274 201.323 87.1903 201.323 87.1903C201.323 87.1903 200.626 84.1021 196.731 84.6564Z" fill="#5C3A2C"/>
<path d="M189.857 278.516C189.857 278.516 195.733 277.21 200.801 278.334L200.777 278.865C200.777 278.865 195.234 277.724 189.849 278.96V278.516H189.857Z" fill="#CE896A"/>
<path d="M136.518 279.039C136.518 279.039 140.707 277.78 147.359 279.039L147.343 279.459C147.343 279.459 142.924 278.334 136.518 279.38V279.031V279.039Z" fill="#CE896A"/>
<path d="M154.208 183.249C154.208 183.249 155.285 176.226 157.209 173.486L156.481 173.225C156.481 173.225 153.852 178.752 153.836 183.139L154.208 183.249Z" fill="#CE957C"/>
<path d="M180.506 127.448C180.506 127.448 186.864 134.091 191.615 131.066L191.631 131.399C191.631 131.399 189.873 134.321 184.33 131.359C184.33 131.359 181.48 130.029 180.347 127.804C180.347 127.804 180.308 127.772 180.506 127.448Z" fill="#CE957C"/>
<path d="M179.951 108.618C179.951 108.618 190.174 105.039 193.571 98.688C193.571 98.688 190.894 105.569 179.951 108.618Z" fill="#CE957C"/>
<path d="M182.358 107.842C182.358 107.842 183.958 107.549 185.858 109.061C185.858 109.061 184.631 107.279 182.358 107.842Z" fill="#CE957C"/>
<path d="M191.995 101.222C191.995 101.222 194.038 102.37 193.579 105.783C193.579 105.783 194.893 101.745 191.995 101.222Z" fill="#CE957C"/>
<path d="M189.873 103.653C189.873 103.653 193.048 105.308 191.995 109.061C191.995 109.061 194.181 105.403 189.873 103.653Z" fill="#CE957C"/>
<path d="M186.761 105.997C186.761 105.997 189.374 105.981 189.722 109.782C189.722 109.782 190.316 105.458 186.761 105.997Z" fill="#CE957C"/>
<path d="M181.567 200.694C181.567 200.694 182.952 195.729 179.658 191.334C179.658 191.334 183.966 194.406 181.567 200.694Z" fill="#CE896A"/>
<path d="M149.125 89.0591C149.125 89.0591 142.663 109.956 155.966 123.021C155.966 123.021 138.047 109.481 149.125 89.0591Z" fill="#938F71"/>
<path d="M124.664 160.302C124.664 160.302 115.139 154.292 100.537 155.733C100.537 155.733 112.684 152.138 124.664 160.302Z" fill="#938F71"/>
<path d="M130.247 98.688C130.247 98.688 131.965 103.384 130.247 108.618C128.529 113.852 112.842 148.962 109.92 151.956C109.92 151.956 135.766 112.07 130.247 98.688Z" fill="#938F71"/>
<path d="M178.249 155.835C178.249 155.835 177.298 147.236 180.117 136.974C180.117 136.974 175.952 147.315 178.249 155.835Z" fill="#938F71"/>
<path d="M177.077 108.103L174.638 107.351L165.413 120.052L177.853 108.253L177.077 108.103Z" fill="#938F71"/>
<path d="M189.873 197.883C189.873 197.883 192.993 186.781 204.475 184.176C204.475 184.176 190.269 185.91 189.873 197.883Z" fill="#041226"/>
<path d="M126.573 205.5C126.573 205.5 128.79 195.183 139.511 192.997C139.511 192.997 125.979 194.217 126.573 205.5Z" fill="#041226"/>
<path d="M153.195 188.459L153.511 202.356L169.427 199.332L153.195 188.459Z" fill="#041226"/>
<path d="M178.858 95.2432C178.858 95.2432 185.66 95.2036 187.276 101.222C187.276 101.222 185.264 96.2171 178.858 95.2432Z" fill="#D29D7B"/>
<path d="M178.858 95.2432L187.276 101.222C187.276 101.222 184.694 96.9615 178.858 95.2432Z" fill="#D29D7B"/>
<path d="M172.5 73.8556C172.5 73.8556 173.83 74.7663 176.475 72.1928C179.12 69.6193 179.587 66.729 183.055 66.5152C185.684 66.3489 186.753 63.5537 187.117 62.1997C187.236 61.7562 187.632 61.4553 188.084 61.4632C189.24 61.4712 191.362 61.6612 192.526 62.8252C194.189 64.4881 196.667 67.6792 200.325 68.7561C203.984 69.8331 206.739 75.0513 206.85 77.3635C206.961 79.6757 206.565 84.4585 206.565 84.4585L211.593 74.9721L209.748 64.5594L200.056 60.6872L181.646 56.4746L175.588 60.8218C175.588 60.8218 170.085 73.531 172.5 73.8556Z" fill="#DAA082"/>
<path d="M173.229 66.2619C173.229 66.2619 171.692 70.4745 171.795 72.5808C171.898 74.6871 173.617 74.5921 177.156 69.4214C180.704 64.2506 183.095 67.125 184.148 65.3038C185.201 63.4825 187.023 60.9011 187.023 60.9011C187.023 60.9011 191.33 60.3231 192.581 61.5742C193.832 62.8253 196.129 66.4678 200.626 67.323C200.626 67.323 207.048 71.4406 207.713 74.6C208.379 77.7595 206.565 84.4665 206.565 84.4665L209.06 80.5389C209.06 80.5389 219.979 81.014 216.725 67.7031C216.725 67.7031 212.322 49.1184 191.148 51.5177C191.148 51.5177 185.684 47.4001 179.65 49.6965C173.617 51.9928 167.242 65.3988 167.242 65.3988C167.242 65.3988 170.837 63.3954 173.229 66.2698V66.2619Z" fill="#5C3A2C"/>
<path d="M159.632 125.326C160.559 125.326 161.311 124.575 161.311 123.647C161.311 122.72 160.559 121.969 159.632 121.969C158.705 121.969 157.954 122.72 157.954 123.647C157.954 124.575 158.705 125.326 159.632 125.326Z" fill="#E8E7E5"/>
<path d="M155.222 89.9934C155.222 89.9934 159.767 120.456 162.792 123.639C162.792 123.639 151.358 103.661 154.264 89.6133L155.23 89.9934H155.222Z" fill="#CE957C"/>
<path d="M168.889 67.9723C168.889 67.9723 161.501 70.1103 166.767 78.0446C166.767 78.0446 170.061 77.9654 169.728 74.9168C169.396 71.8761 169.578 71.2664 170.275 70.0707C170.972 68.875 169.839 68.4236 168.889 67.9644V67.9723Z" fill="#DAA082"/>
<path d="M166.347 138.676C166.347 138.676 168.113 122.467 175.287 117.399C175.287 117.399 166.213 124.178 166.347 138.676Z" fill="#938F71"/>
<path d="M180.347 121.644C180.347 121.644 174.931 127.179 184.108 134.202C184.108 134.202 174.218 129.158 180.347 121.644Z" fill="#938F71"/>
<path d="M187.759 52.9907C187.759 52.9907 177.718 52.6818 172.841 65.3514C172.841 65.3514 174.408 49.1581 187.759 52.9907Z" fill="#774335"/>
<path d="M191.876 59.0012C191.876 59.0012 188.495 54.4877 180.537 61.0442C180.537 61.0442 185.375 52.1122 191.876 59.0012Z" fill="#774335"/>
<path d="M195.083 61.7722C195.083 61.7722 209.289 65.2246 211.752 77.0627C211.752 77.0627 210.73 59.7371 195.083 61.7722Z" fill="#774335"/>
<path d="M194.925 57.8209C194.925 57.8209 201.149 52.761 207.808 57.2033C207.808 57.2033 200.618 49.7203 194.925 57.8209Z" fill="#774335"/>
<path d="M196.271 58.9057C196.271 58.9057 205.29 56.9974 210.778 63.7122C210.778 63.7122 205.377 53.9488 196.271 58.9057Z" fill="#774335"/>
<path d="M310.554 294.304C310.555 295.828 310.015 297.304 309.03 298.467C308.045 299.631 306.679 300.407 305.176 300.658C286.669 303.781 267.769 303.781 249.262 300.658C247.765 300.401 246.407 299.621 245.43 298.458C244.452 297.295 243.918 295.823 243.922 294.304V232.517H310.584L310.554 294.304Z" fill="#C5C5C5"/>
<path opacity="0.3" d="M243.884 233.63V242.304C247.896 243.791 261.07 244.882 277.219 244.882C293.367 244.882 306.564 243.791 310.553 242.304V233.63H243.884Z" fill="black"/>
<path d="M311.805 240.244C311.805 242.204 296.67 243.791 277.219 243.791C257.767 243.791 242.633 242.204 242.633 240.244L242 232.54H312.476L311.805 240.244Z" fill="#C5C5C5"/>
<path d="M277.219 236.079C296.67 236.079 312.438 234.494 312.438 232.539C312.438 230.585 296.67 229 277.219 229C257.768 229 242 230.585 242 232.539C242 234.494 257.768 236.079 277.219 236.079Z" fill="#C5C5C5"/>
<path opacity="0.3" d="M277.219 236.079C296.67 236.079 312.438 234.494 312.438 232.539C312.438 230.585 296.67 229 277.219 229C257.768 229 242 230.585 242 232.539C242 234.494 257.768 236.079 277.219 236.079Z" fill="black"/>
<path opacity="0.2" d="M252.824 289.956C252.139 289.954 251.482 289.681 250.998 289.196C250.513 288.712 250.24 288.055 250.238 287.37V251.945C250.24 251.26 250.513 250.604 250.998 250.119C251.482 249.634 252.139 249.361 252.824 249.359C253.509 249.363 254.164 249.637 254.648 250.121C255.132 250.605 255.406 251.261 255.41 251.945V287.37C255.406 288.055 255.132 288.71 254.648 289.194C254.164 289.678 253.509 289.952 252.824 289.956Z" fill="black"/>
<path opacity="0.2" d="M301.621 289.956C300.936 289.954 300.279 289.681 299.795 289.196C299.31 288.712 299.037 288.055 299.035 287.37V251.945C299.037 251.26 299.31 250.604 299.795 250.119C300.279 249.634 300.936 249.361 301.621 249.359C302.306 249.363 302.961 249.637 303.445 250.121C303.929 250.605 304.203 251.261 304.207 251.945V287.37C304.203 288.055 303.929 288.71 303.445 289.194C302.961 289.678 302.306 289.952 301.621 289.956Z" fill="black"/>
<path opacity="0.2" d="M285.35 289.956C284.666 289.952 284.01 289.678 283.526 289.194C283.042 288.71 282.768 288.055 282.764 287.37V251.945C282.768 251.261 283.042 250.605 283.526 250.121C284.01 249.637 284.666 249.363 285.35 249.359C286.036 249.361 286.692 249.634 287.177 250.119C287.661 250.604 287.934 251.26 287.936 251.945V287.37C287.934 288.055 287.661 288.712 287.177 289.196C286.692 289.681 286.036 289.954 285.35 289.956Z" fill="black"/>
<path opacity="0.2" d="M269.087 289.956C268.403 289.952 267.747 289.678 267.263 289.194C266.779 288.71 266.505 288.055 266.501 287.37V251.945C266.505 251.261 266.779 250.605 267.263 250.121C267.747 249.637 268.403 249.363 269.087 249.359C269.773 249.361 270.429 249.634 270.914 250.119C271.398 250.604 271.671 251.26 271.673 251.945V287.37C271.671 288.055 271.398 288.712 270.914 289.196C270.429 289.681 269.773 289.954 269.087 289.956Z" fill="black"/>
<path d="M118 34.7538C118 30.1963 115.616 26.0751 111.768 23.1147C111.895 22.5127 111.96 21.8992 111.962 21.2839C111.962 15.2072 105.784 10.268 98.095 10.1278C95.7579 4.24587 88.8086 0 80.5662 0C74.0065 0 68.2493 2.71113 64.985 6.78561C64.1614 6.67292 63.3311 6.61566 62.4998 6.61421C54.6625 6.61421 48.3054 11.6158 48.3054 17.7859C48.3047 18.8307 48.4893 19.8673 48.8507 20.8476C43.8569 23.4731 40.5615 27.9449 40.5615 33.0243C40.5615 37.9168 43.6154 42.2406 48.3054 44.8972V45.053C48.3054 51.044 54.2885 55.9598 61.8143 56.2091C65.9589 60.2602 72.316 62.8545 79.4444 62.8545C84.125 62.8949 88.7344 61.7076 92.813 59.4111C93.4545 59.483 94.0995 59.5194 94.7451 59.5201C102.582 59.5201 108.94 54.5186 108.94 48.3484V48.2394C114.424 45.2789 118 40.3475 118 34.7538Z" fill="#DCE9F5"/>
<path d="M121.292 69.7536C121.292 70.7742 122.476 71.6 123.933 71.6C125.39 71.6 126.574 70.7742 126.574 69.7536C126.574 68.733 125.39 67.9072 123.933 67.9072C122.476 67.9072 121.292 68.733 121.292 69.7536Z" fill="#E5F0FB"/>
<path d="M103 65.3443C103 68.297 106.436 70.6887 110.674 70.6887C114.912 70.6887 118.324 68.3126 118.324 65.3443C118.324 62.3761 114.888 60 110.65 60C106.412 60 103 62.4151 103 65.3443Z" fill="#C7E1FB"/>
<path d="M79.6702 11.2808C87.2505 11.2808 91.9404 14.8411 91.9404 21.1748C91.9404 29.7445 83.2305 30.8429 83.2305 37.4572H75.7126C75.7126 28.7551 82.6696 28.2409 82.6696 22.8186C82.6696 20.4815 81.1972 19.3674 78.712 19.3674C75.9385 19.3674 74.4661 21.0034 74.4116 24.4001H66.6677C66.7223 16.0876 71.5836 11.2808 79.6702 11.2808ZM84.2044 46.6267C84.2044 47.9098 83.6946 49.1404 82.7873 50.0476C81.88 50.9549 80.6495 51.4646 79.3664 51.4646C78.0833 51.4646 76.8527 50.9549 75.9454 50.0476C75.0381 49.1404 74.5284 47.9098 74.5284 46.6267C74.5284 45.3436 75.0381 44.113 75.9454 43.2057C76.8527 42.2984 78.0833 41.7887 79.3664 41.7887C80.6495 41.7887 81.88 42.2984 82.7873 43.2057C83.6946 44.113 84.2044 45.3436 84.2044 46.6267Z" fill="#409CF9"/>
<path d="M150 84.4998C150 84.4998 84.4906 71.6917 61.6661 188.325C40.7754 295.092 0 300.5 0 300.5C0 300.5 13.1783 297.922 21.5 297C27.037 296.386 24.7444 300.981 31.7281 300.5C40.2853 299.91 42.7575 303.669 50.5 304C59.1045 304.367 62 304 72.5 303C80.3109 308.994 92.0022 305.228 98.063 297C101.601 292.196 102.914 284.212 104.5 278.5C108.803 263.004 61.6661 110 150 84.4998Z" fill="#DC433E"/>
<path d="M70.8436 179.024C70.8436 179.024 67.8033 257.908 30 284.445C30 284.445 76.9953 264.766 70.8436 179.024Z" fill="#C73632"/>
<path d="M69.57 274.603C69.57 274.603 87.7008 233.614 83.0004 187.873C78.3005 142.124 105.702 109.454 120.431 98.3891C120.431 98.3891 67.3215 118.618 86.7316 182.907C106.142 247.195 69.5696 274.611 69.5696 274.611L69.57 274.603Z" fill="#C73632"/>
<path d="M145.253 88.6402C143.394 91.7811 140.234 99.7614 142.465 106.556C137.605 103.612 126.442 98.3657 121 102.456C123.831 98.1341 129.996 88.5223 137.5 89.5C140.979 85.5146 143.046 82.8291 148 84.2944V85.26L147.915 85.1754L145.253 88.6402Z" fill="#DC433E"/>
<path d="M138.958 91.0913C138.139 92.6105 137.321 95.0948 137.404 97.7791C138.121 101.33 140.644 104.735 142.465 106.556C138.749 104.115 137.499 100.819 137.404 97.7791C136.94 95.4817 137.232 93.1229 138.958 91.0913Z" fill="#C73632"/>
</svg>
