<svg width="17" height="16" viewBox="0 0 17 16" fill="none" xmlns="http://www.w3.org/2000/svg">
<g clip-path="url(#clip0_1617_2414)">
<path d="M8.4484 13.6895C11.8827 13.6895 14.6668 10.9054 14.6668 7.47111C14.6668 4.03677 11.8827 1.25269 8.4484 1.25269C5.01406 1.25269 2.22998 4.03677 2.22998 7.47111C2.22998 10.9054 5.01406 13.6895 8.4484 13.6895Z" fill="#FFD21E"/>
<path d="M14.6668 7.47108C14.6668 4.03674 11.8827 1.25265 8.44838 1.25265C5.01404 1.25265 2.22996 4.03674 2.22996 7.47108C2.22996 10.9054 5.01404 13.6895 8.44838 13.6895C11.8827 13.6895 14.6668 10.9054 14.6668 7.47108ZM1.51416 7.47108C1.51416 3.64142 4.61871 0.536865 8.44838 0.536865C12.278 0.536865 15.3826 3.64142 15.3826 7.47108C15.3826 11.3007 12.278 14.4053 8.44838 14.4053C4.61871 14.4053 1.51416 11.3007 1.51416 7.47108Z" fill="#FF9D0B"/>
<path d="M10.4689 5.77855C10.697 5.85908 10.7877 6.32792 11.0181 6.20541C11.4544 5.97343 11.62 5.43166 11.388 4.99535C11.1561 4.55906 10.6143 4.39343 10.178 4.62542C9.74168 4.8574 9.57605 5.39917 9.80803 5.83548C9.91753 6.04141 10.2651 5.70656 10.4689 5.77855Z" fill="#3A3B45"/>
<path d="M6.25351 5.77855C6.02546 5.85908 5.93473 6.32792 5.70436 6.20541C5.26805 5.97343 5.10241 5.43166 5.3344 4.99535C5.56639 4.55906 6.10815 4.39343 6.54446 4.62542C6.98077 4.8574 7.1464 5.39917 6.91442 5.83548C6.80492 6.04141 6.45737 5.70656 6.25351 5.77855Z" fill="#3A3B45"/>
<path d="M8.40371 10.0727C10.1625 10.0727 10.73 8.50463 10.73 7.69938C10.73 7.28088 10.4487 7.4126 9.99811 7.63568C9.58172 7.84182 9.02077 8.12597 8.40371 8.12597C7.11892 8.12597 6.07739 6.89414 6.07739 7.69938C6.07739 8.50463 6.64492 10.0727 8.40371 10.0727Z" fill="#3A3B45"/>
<mask id="mask0_1617_2414" style="mask-type:alpha" maskUnits="userSpaceOnUse" x="6" y="7" width="5" height="4">
<path d="M8.40371 10.0727C10.1625 10.0727 10.73 8.50463 10.73 7.69938C10.73 7.28088 10.4487 7.4126 9.99811 7.63568C9.58172 7.84182 9.02077 8.12597 8.40371 8.12597C7.11892 8.12597 6.07739 6.89414 6.07739 7.69938C6.07739 8.50463 6.64492 10.0727 8.40371 10.0727Z" fill="white"/>
</mask>
<g mask="url(#mask0_1617_2414)">
<path d="M8.4485 11.9C9.30563 11.9 10.0005 11.2052 10.0005 10.348C10.0005 9.68039 9.57894 9.11123 8.9875 8.89218C8.96572 8.88411 8.94373 8.87652 8.92152 8.86941C8.77239 8.82174 8.61345 9.33432 8.4485 9.33432C8.29437 9.33432 8.14548 8.81849 8.00494 8.86032C7.36391 9.05115 6.89648 9.64499 6.89648 10.348C6.89648 11.2052 7.59134 11.9 8.4485 11.9Z" fill="#F94040"/>
</g>
<path d="M12.6536 6.62117C12.9748 6.62117 13.2352 6.36078 13.2352 6.03959C13.2352 5.71839 12.9748 5.45801 12.6536 5.45801C12.3324 5.45801 12.072 5.71839 12.072 6.03959C12.072 6.36078 12.3324 6.62117 12.6536 6.62117Z" fill="#FF9D0B"/>
<path d="M4.33256 6.62117C4.65375 6.62117 4.91413 6.36078 4.91413 6.03959C4.91413 5.71839 4.65375 5.45801 4.33256 5.45801C4.01134 5.45801 3.75098 5.71839 3.75098 6.03959C3.75098 6.36078 4.01134 6.62117 4.33256 6.62117Z" fill="#FF9D0B"/>
<path d="M3.13573 8.58936C2.84602 8.58936 2.58708 8.70836 2.40652 8.92417C2.29486 9.05784 2.17819 9.27329 2.1687 9.59593C2.0472 9.56104 1.93034 9.54153 1.82119 9.54153C1.54382 9.54153 1.29329 9.64783 1.11613 9.84091C0.888512 10.0888 0.787407 10.3933 0.831428 10.6981C0.852364 10.8432 0.900859 10.9733 0.973333 11.0937C0.820512 11.2174 0.707954 11.3895 0.653554 11.5966C0.610964 11.7589 0.567301 12.0969 0.79528 12.4451C0.780786 12.4679 0.767186 12.4915 0.75448 12.5156C0.617407 12.7758 0.608638 13.0698 0.729607 13.3436C0.913028 13.7586 1.36881 14.0855 2.25388 14.4365C2.8045 14.6548 3.30824 14.7944 3.31271 14.7956C4.04067 14.9844 4.69902 15.0803 5.26896 15.0803C6.31652 15.0803 7.06649 14.7595 7.49811 14.1267C8.19279 13.1078 8.09347 12.1758 7.19462 11.2775C6.69714 10.7804 6.36645 10.0474 6.29755 9.88655C6.15869 9.41019 5.79149 8.88068 5.1811 8.88068C5.12974 8.88068 5.07767 8.8848 5.02649 8.89285C4.75914 8.9349 4.52544 9.0888 4.35848 9.32036C4.17828 9.09631 4.00327 8.91808 3.8449 8.81751C3.60619 8.66612 3.36765 8.58936 3.13573 8.58936ZM3.13573 9.30514C3.227 9.30514 3.33848 9.34398 3.46142 9.422C3.84311 9.66411 4.57966 10.9302 4.84933 11.4226C4.9397 11.5876 5.09413 11.6574 5.23318 11.6574C5.50911 11.6574 5.72456 11.3831 5.25841 11.0345C4.55747 10.51 4.80334 9.65266 5.13797 9.59987C5.15265 9.59754 5.16714 9.59647 5.1811 9.59647C5.48531 9.59647 5.61952 10.1208 5.61952 10.1208C5.61952 10.1208 6.01285 11.1086 6.68855 11.7837C7.36426 12.4591 7.39915 13.0011 6.90669 13.7234C6.57081 14.2158 5.92785 14.3645 5.26896 14.3645C4.58556 14.3645 3.88499 14.2045 3.49237 14.1027C3.47305 14.0977 1.08535 13.4233 1.38778 12.8492C1.4386 12.7527 1.52234 12.7141 1.62774 12.7141C2.05364 12.7141 2.8283 13.3479 3.16132 13.3479C3.23576 13.3479 3.2882 13.3163 3.30967 13.2389C3.45158 12.7298 1.1521 12.5158 1.3459 11.7784C1.38008 11.6479 1.47278 11.595 1.60305 11.5951C2.16584 11.5951 3.42849 12.5849 3.69315 12.5849C3.71338 12.5849 3.72787 12.579 3.73574 12.5665C3.86834 12.3524 3.79569 12.203 2.86105 11.6374C1.92641 11.0715 1.27039 10.7312 1.64349 10.325C1.68644 10.2781 1.74728 10.2573 1.82119 10.2573C2.38863 10.2575 3.7293 11.4776 3.7293 11.4776C3.7293 11.4776 4.09113 11.8539 4.30999 11.8539C4.36027 11.8539 4.40304 11.834 4.43203 11.785C4.58717 11.5234 2.99096 10.3137 2.90095 9.81461C2.83993 9.4764 2.94372 9.30514 3.13573 9.30514Z" fill="#FF9D0B"/>
<path d="M6.90686 13.7234C7.39932 13.0012 7.36443 12.4591 6.68872 11.7838C6.01301 11.1086 5.61969 10.1208 5.61969 10.1208C5.61969 10.1208 5.47277 9.54712 5.13814 9.59991C4.80351 9.6527 4.55781 10.51 5.25875 11.0345C5.95969 11.5588 5.11917 11.9151 4.8495 11.4227C4.57983 10.9302 3.84346 9.66415 3.46158 9.42204C3.07989 9.17992 2.81111 9.31556 2.90112 9.81465C2.99113 10.3137 4.58752 11.5234 4.43219 11.7852C4.27687 12.0468 3.72947 11.4776 3.72947 11.4776C3.72947 11.4776 2.01658 9.91879 1.64365 10.325C1.27072 10.7312 1.92657 11.0716 2.86121 11.6374C3.79604 12.2031 3.86851 12.3525 3.73591 12.5665C3.60313 12.7805 1.53986 11.041 1.34606 11.7784C1.15244 12.5159 3.45174 12.7299 3.30984 13.239C3.16793 13.7483 1.69017 12.2754 1.38793 12.8492C1.08551 13.4233 3.47321 14.0978 3.49254 14.1028C4.2638 14.3028 6.22256 14.7268 6.90686 13.7234Z" fill="#FFD21E"/>
<path d="M13.8505 8.58936C14.1402 8.58936 14.3991 8.70836 14.5797 8.92417C14.6913 9.05784 14.808 9.27329 14.8175 9.59593C14.939 9.56104 15.0559 9.54153 15.165 9.54153C15.4424 9.54153 15.6929 9.64783 15.8701 9.84091C16.0977 10.0888 16.1988 10.3933 16.1548 10.6981C16.1338 10.8432 16.0853 10.9733 16.0129 11.0937C16.1657 11.2174 16.2782 11.3895 16.3326 11.5966C16.3752 11.7589 16.4189 12.0969 16.1909 12.4451C16.2054 12.4679 16.219 12.4915 16.2317 12.5156C16.3688 12.7758 16.3776 13.0698 16.2566 13.3436C16.0732 13.7586 15.6174 14.0855 14.7323 14.4365C14.1817 14.6548 13.678 14.7944 13.6735 14.7956C12.9455 14.9844 12.2872 15.0803 11.7172 15.0803C10.6697 15.0803 9.91971 14.7595 9.48809 14.1267C8.79341 13.1078 8.89273 12.1758 9.79158 11.2775C10.2891 10.7804 10.6198 10.0474 10.6886 9.88655C10.8275 9.41019 11.1947 8.88068 11.8051 8.88068C11.8565 8.88068 11.9085 8.8848 11.9597 8.89285C12.2271 8.9349 12.4608 9.0888 12.6277 9.32036C12.8079 9.09631 12.9829 8.91808 13.1413 8.81751C13.38 8.66612 13.6186 8.58936 13.8505 8.58936ZM13.8505 9.30514C13.7592 9.30514 13.6477 9.34398 13.5248 9.422C13.1431 9.66411 12.4065 10.9302 12.1369 11.4226C12.0465 11.5876 11.8921 11.6574 11.753 11.6574C11.4771 11.6574 11.2616 11.3831 11.7278 11.0345C12.4287 10.51 12.1829 9.65266 11.8482 9.59987C11.8336 9.59754 11.8191 9.59647 11.8051 9.59647C11.5009 9.59647 11.3667 10.1208 11.3667 10.1208C11.3667 10.1208 10.9734 11.1086 10.2976 11.7837C9.62194 12.4591 9.58705 13.0011 10.0795 13.7234C10.4154 14.2158 11.0583 14.3645 11.7172 14.3645C12.4006 14.3645 13.1012 14.2045 13.4938 14.1027C13.5132 14.0977 15.9008 13.4233 15.5984 12.8492C15.5476 12.7527 15.4639 12.7141 15.3585 12.7141C14.9326 12.7141 14.1579 13.3479 13.8249 13.3479C13.7504 13.3479 13.698 13.3163 13.6765 13.2389C13.5346 12.7298 15.8341 12.5158 15.6403 11.7784C15.6061 11.6479 15.5134 11.595 15.3832 11.5951C14.8204 11.5951 13.5577 12.5849 13.293 12.5849C13.2728 12.5849 13.2583 12.579 13.2505 12.5665C13.1179 12.3524 13.1905 12.203 14.1252 11.6374C15.0598 11.0715 15.7158 10.7312 15.3427 10.325C15.2998 10.2781 15.2389 10.2573 15.165 10.2573C14.5976 10.2575 13.2569 11.4776 13.2569 11.4776C13.2569 11.4776 12.8951 11.8539 12.6762 11.8539C12.6259 11.8539 12.5832 11.834 12.5542 11.785C12.399 11.5234 13.9952 10.3137 14.0852 9.81461C14.1463 9.4764 14.0425 9.30514 13.8505 9.30514Z" fill="#FF9D0B"/>
<path d="M10.0795 13.7234C9.58705 13.0012 9.62194 12.4591 10.2976 11.7838C10.9734 11.1086 11.3667 10.1208 11.3667 10.1208C11.3667 10.1208 11.5136 9.54712 11.8482 9.59991C12.1829 9.6527 12.4286 10.51 11.7276 11.0345C11.0267 11.5588 11.8672 11.9151 12.1369 11.4227C12.4065 10.9302 13.1429 9.66415 13.5248 9.42204C13.9065 9.17992 14.1753 9.31556 14.0852 9.81465C13.9952 10.3137 12.3988 11.5234 12.5542 11.7852C12.7095 12.0468 13.2569 11.4776 13.2569 11.4776C13.2569 11.4776 14.9698 9.91879 15.3427 10.325C15.7156 10.7312 15.0598 11.0716 14.1252 11.6374C13.1903 12.2031 13.1179 12.3525 13.2505 12.5665C13.3832 12.7805 15.4465 11.041 15.6403 11.7784C15.8339 12.5159 13.5346 12.7299 13.6765 13.239C13.8184 13.7483 15.2962 12.2754 15.5984 12.8492C15.9008 13.4233 13.5132 14.0978 13.4938 14.1028C12.7226 14.3028 10.7638 14.7268 10.0795 13.7234Z" fill="#FFD21E"/>
</g>
<defs>
<clipPath id="clip0_1617_2414">
<rect width="17" height="15.7474" fill="white"/>
</clipPath>
</defs>
</svg>
