<svg width="20" height="20" viewBox="0 0 20 20" fill="none" xmlns="http://www.w3.org/2000/svg">
<g clip-path="url(#clip0_816_4890)">
<path d="M18.0794 8.95854H13.8152C13.3964 7.24154 11.8492 5.96607 9.9926 5.96607C8.14354 5.96607 6.60013 7.23779 6.18126 8.95476H1.9209C1.95109 8.68305 2.14731 8.45664 2.41524 8.39625L3.64543 8.09437C3.86428 8.04531 4.0341 7.88305 4.11713 7.67551C4.15863 7.54344 4.21525 7.41135 4.27183 7.28682C4.36617 7.07927 4.36617 6.83778 4.24919 6.65286L3.58126 5.56984C3.42655 5.30568 3.46428 4.97363 3.68315 4.76231L4.88315 3.56229C5.09447 3.34722 5.43032 3.30947 5.68692 3.46795L6.76617 4.13211C6.9624 4.24531 7.20014 4.25287 7.40768 4.15853C7.53221 4.10194 7.65675 4.04532 7.78882 4.00004C7.99636 3.92079 8.15862 3.75097 8.21146 3.53212L8.51334 2.29437C8.58126 2.00005 8.84541 1.79248 9.15107 1.79248H10.8417C11.1473 1.79248 11.4114 2.00005 11.4831 2.29437L11.7775 3.53212C11.8341 3.75097 11.9964 3.92079 12.2115 3.99627C12.3435 4.04532 12.4681 4.10194 12.5926 4.15853C12.8001 4.25287 13.0379 4.24531 13.2341 4.13211L14.3133 3.46795C14.57 3.30947 14.902 3.34722 15.1171 3.56229L16.3171 4.76231C16.5284 4.97363 16.5662 5.30568 16.4114 5.56606L15.7511 6.64533C15.6303 6.83778 15.6266 7.07174 15.7209 7.27928C15.7813 7.40382 15.8341 7.53588 15.8832 7.67551C15.9662 7.88305 16.136 8.04531 16.3549 8.09437L17.5851 8.39625C17.853 8.45664 18.0492 8.68305 18.0794 8.95854Z" fill="#043365"/>
<path d="M19.0566 9.7776C19.0566 9.91722 18.9434 10.0304 18.8037 10.0304H16.0905C16.179 11.0862 15.8058 12.0966 16.6905 12.9814L17.2452 13.5399H17.249C17.3924 13.4418 17.5585 13.3889 17.7396 13.3889C18.2339 13.3889 18.6339 13.7889 18.6339 14.2833C18.6339 14.77 18.2339 15.17 17.7396 15.17C17.2528 15.17 16.8528 14.77 16.8528 14.2833C16.8528 14.1587 16.8792 14.0418 16.9245 13.9361C16.9245 13.9323 16.9245 13.9323 16.9245 13.9323L16.332 13.3399C15.2614 12.2692 15.6784 11.0312 15.5849 10.0304H13.7018V15.2078C13.7018 15.438 13.8905 15.6229 14.1207 15.6229H15.1169C15.2377 15.2719 15.5698 15.0191 15.9585 15.0191C16.449 15.0191 16.8528 15.4191 16.8528 15.9135C16.8528 16.4002 16.449 16.8002 15.9585 16.8002C15.5434 16.8002 15.1924 16.5134 15.0943 16.1323H14.1207C13.6113 16.1323 13.1962 15.7172 13.1962 15.2078V10.0304H11.3735V15.9474C11.7434 16.0569 12.0113 16.4002 12.0113 16.804C12.0113 17.2908 11.6113 17.6908 11.1169 17.6908C10.6302 17.6908 10.2302 17.2908 10.2302 16.804C10.2302 16.3965 10.5018 16.0531 10.8679 15.9436V10.0304H9.10185V14.37C9.10185 14.8606 8.91317 15.3172 8.566 15.6644L7.29808 16.9323C7.35467 17.0493 7.38865 17.1814 7.38865 17.321C7.38865 17.8078 6.98865 18.2078 6.49431 18.2078C6.00752 18.2078 5.60752 17.8078 5.60752 17.321C5.60752 16.8267 6.00752 16.4267 6.49431 16.4267C6.66412 16.4267 6.82261 16.4757 6.95467 16.5587L8.20751 15.3059C8.46035 15.0568 8.5962 14.7248 8.5962 14.37V10.0304H6.71694V12.2606C6.71694 12.7512 6.5245 13.2116 6.1811 13.555L5.16978 14.5663C5.22261 14.6795 5.24903 14.804 5.24903 14.9361C5.24903 15.4229 4.84903 15.8229 4.35469 15.8229C3.86788 15.8229 3.46788 15.4229 3.46788 14.9361C3.46788 14.4417 3.86788 14.0417 4.35469 14.0417C4.52826 14.0417 4.6943 14.0946 4.83392 14.1851L5.8226 13.1965C6.07167 12.9474 6.20751 12.6153 6.20751 12.2606V10.0304H4.41506V11.6116C4.41506 12.1059 4.01128 12.5097 3.51695 12.5097H2.95846C2.84148 12.8644 2.50185 13.121 2.1094 13.121C1.61884 13.121 1.21884 12.721 1.21884 12.2342C1.21884 11.7399 1.61884 11.3399 2.1094 11.3399C2.52071 11.3399 2.87168 11.6229 2.97355 12.004H3.51694C3.73204 12.004 3.90941 11.8266 3.90941 11.6115V10.0304H1.1962C1.05656 10.0304 0.943359 9.91721 0.943359 9.77381C0.943356 9.7059 0.969774 9.64551 1.01883 9.60023C1.03016 9.58892 1.04147 9.57759 1.05656 9.56628C1.09431 9.53608 1.14337 9.521 1.1962 9.521C2.13753 9.52124 17.8631 9.52462 18.8037 9.52477C18.9434 9.52478 19.0566 9.63798 19.0566 9.7776Z" fill="#043365"/>
</g>
<defs>
<clipPath id="clip0_816_4890">
<rect width="20" height="20" fill="white"/>
</clipPath>
</defs>
</svg>
