<svg width="20" height="20" viewBox="0 0 20 20" fill="none" xmlns="http://www.w3.org/2000/svg">
<mask id="mask0_816_4923" style="mask-type:alpha" maskUnits="userSpaceOnUse" x="0" y="0" width="20" height="20">
<rect width="20" height="20" fill="#D9D9D9"/>
</mask>
<g mask="url(#mask0_816_4923)">
<path d="M6.50865 10.6358C6.03833 10.6358 5.63571 10.4739 5.30079 10.1499C4.96587 9.82591 4.79841 9.43646 4.79841 8.98152C4.79841 8.52658 4.96587 8.13713 5.30079 7.81315C5.63571 7.48918 6.03833 7.3272 6.50865 7.3272C6.97896 7.3272 7.38158 7.48918 7.71651 7.81315C8.05143 8.13713 8.21889 8.52658 8.21889 8.98152C8.21889 9.43646 8.05143 9.82591 7.71651 10.1499C7.38158 10.4739 6.97896 10.6358 6.50865 10.6358ZM6.50865 13.9445C5.08345 13.9445 3.87203 13.462 2.87439 12.497C1.87675 11.5319 1.37793 10.3601 1.37793 8.98152C1.37793 7.60292 1.87675 6.43111 2.87439 5.46609C3.87203 4.50106 5.08345 4.01855 6.50865 4.01855C7.46353 4.01855 8.32934 4.24602 9.10607 4.70096C9.88281 5.1559 10.4992 5.75559 10.9553 6.50004H18.4803L21.0457 8.98152L17.1976 12.7037L15.4874 11.463L13.7772 12.7037L11.96 11.463H10.9553C10.4992 12.2074 9.88281 12.8071 9.10607 13.2621C8.32934 13.717 7.46353 13.9445 6.50865 13.9445ZM6.50865 12.2902C7.30676 12.2902 8.00867 12.0558 8.61438 11.5871C9.22009 11.1183 9.62271 10.5256 9.82224 9.80868H12.4945L13.7344 10.6565L15.4874 9.3951L17.0052 10.5324L18.6086 8.98152L17.7535 8.15436H9.82224C9.62271 7.43748 9.22009 6.84469 8.61438 6.37596C8.00867 5.90724 7.30676 5.67288 6.50865 5.67288C5.56802 5.67288 4.76278 5.99685 4.09293 6.64479C3.42309 7.29273 3.08817 8.07164 3.08817 8.98152C3.08817 9.89139 3.42309 10.6703 4.09293 11.3182C4.76278 11.9662 5.56802 12.2902 6.50865 12.2902Z" fill="#424242"/>
</g>
</svg>
