<svg width="400" height="400" viewBox="0 0 400 400" fill="none" xmlns="http://www.w3.org/2000/svg">
<path d="M171.469 400C170.297 399.336 169.661 398.186 168.882 398.08C149.223 395.405 130.446 389.776 112.737 380.88C102.895 375.936 93.3885 370.321 82.3674 364.259C121.956 334.816 160.424 306.206 199.874 276.866C199.874 293.649 199.874 309.028 199.874 325.658C208.198 324.628 216.021 324.167 223.622 322.619C243.405 318.59 261.395 310.215 276.93 297.39C298.723 279.397 313.697 256.691 319.836 228.905C322.188 218.259 324.075 207.152 323.721 196.335C322.847 169.645 314.343 145.156 298.035 123.79C295.514 120.487 296.241 119.481 298.953 117.513C318.343 103.441 337.659 89.2668 357.74 74.582C362.148 81.1048 366.907 87.492 370.974 94.2931C382.048 112.813 390.872 132.313 395.25 153.591C396.299 158.685 397.061 163.838 398.044 168.946C398.215 169.836 398.829 170.64 399.62 171.242C400 189.688 400 208.375 399.625 227.292C398.843 228.197 398.164 228.835 398.068 229.553C395.358 249.712 389.265 268.845 380.4 287.092C373.392 301.518 364.615 314.751 354.528 327.309C343.801 340.663 331.295 351.877 317.707 362.021C305.131 371.409 291.501 379.031 276.972 384.999C261.727 391.261 246.033 395.898 229.647 398.073C228.696 398.199 227.879 399.334 227 400C208.646 400 190.292 400 171.469 400Z" fill="#0194E2"/>
<path d="M228.531 0C229.453 0.656211 229.833 1.81883 230.369 1.89631C264.695 6.85342 289.217 17.8455 316.968 36.2537C278.136 65.1365 239.661 93.754 200.167 123.13C200.167 106.375 200.167 90.8954 200.167 74.0931C190.226 75.4847 180.855 75.9317 171.959 78.2227C153.752 82.9117 137.059 91.0968 122.419 103.102C102.967 119.054 89.8916 139.332 82.0464 163.092C77.7591 176.077 75.5903 189.523 76.129 203.108C77.198 230.07 85.549 254.768 102.059 276.265C105.102 280.227 102.963 281.064 100.603 282.791C81.4587 296.8 62.3096 310.801 42.451 325.325C38.8134 320.237 34.7788 315.209 31.4083 309.77C17.5742 287.445 7.20624 263.72 2.95436 237.588C2.44483 234.456 1.43565 231.406 0.329027 228.659C-5.63264e-06 210.312 -5.72205e-06 191.625 0.323869 172.807C1.0865 172.012 1.8234 171.389 1.92041 170.679C4.32353 153.084 9.41812 136.321 16.4074 119.988C26.0179 97.5278 39.6152 77.81 56.3626 60.2529C69.3971 46.5882 84.4538 35.4117 100.852 25.9748C122.445 13.5482 145.522 5.60208 170.127 1.92106C170.831 1.81567 171.379 0.663882 172 3.03984e-06C190.688 1.03984e-06 209.375 1e-06 228.531 0Z" fill="#43C9ED"/>
</svg>
