<svg width="20" height="20" viewBox="0 0 20 20" fill="none" xmlns="http://www.w3.org/2000/svg">
<mask id="mask0_816_4921" style="mask-type:alpha" maskUnits="userSpaceOnUse" x="0" y="0" width="20" height="20">
<rect width="20" height="20" fill="#D9D9D9"/>
</mask>
<g mask="url(#mask0_816_4921)">
<path d="M10.0002 10.0002C9.0835 10.0002 8.29877 9.67377 7.646 9.021C6.99322 8.36822 6.66683 7.5835 6.66683 6.66683C6.66683 5.75016 6.99322 4.96544 7.646 4.31266C8.29877 3.65989 9.0835 3.3335 10.0002 3.3335C10.9168 3.3335 11.7016 3.65989 12.3543 4.31266C13.0071 4.96544 13.3335 5.75016 13.3335 6.66683C13.3335 7.5835 13.0071 8.36822 12.3543 9.021C11.7016 9.67377 10.9168 10.0002 10.0002 10.0002ZM3.3335 16.6668V14.3335C3.3335 13.8613 3.45502 13.4272 3.69808 13.0314C3.94113 12.6356 4.26405 12.3335 4.66683 12.1252C5.52794 11.6946 6.40294 11.3717 7.29183 11.1564C8.18072 10.9411 9.0835 10.8335 10.0002 10.8335C10.9168 10.8335 11.8196 10.9411 12.7085 11.1564C13.5974 11.3717 14.4724 11.6946 15.3335 12.1252C15.7363 12.3335 16.0592 12.6356 16.3022 13.0314C16.5453 13.4272 16.6668 13.8613 16.6668 14.3335V16.6668H3.3335ZM5.00016 15.0002H15.0002V14.3335C15.0002 14.1807 14.962 14.0418 14.8856 13.9168C14.8092 13.7918 14.7085 13.6946 14.5835 13.6252C13.8335 13.2502 13.0766 12.9689 12.3127 12.7814C11.5488 12.5939 10.7779 12.5002 10.0002 12.5002C9.22238 12.5002 8.45155 12.5939 7.68766 12.7814C6.92377 12.9689 6.16683 13.2502 5.41683 13.6252C5.29183 13.6946 5.19113 13.7918 5.11475 13.9168C5.03836 14.0418 5.00016 14.1807 5.00016 14.3335V15.0002ZM10.0002 8.3335C10.4585 8.3335 10.8509 8.1703 11.1772 7.84391C11.5036 7.51752 11.6668 7.12516 11.6668 6.66683C11.6668 6.2085 11.5036 5.81613 11.1772 5.48975C10.8509 5.16336 10.4585 5.00016 10.0002 5.00016C9.54183 5.00016 9.14947 5.16336 8.82308 5.48975C8.49669 5.81613 8.3335 6.2085 8.3335 6.66683C8.3335 7.12516 8.49669 7.51752 8.82308 7.84391C9.14947 8.1703 9.54183 8.3335 10.0002 8.3335Z" fill="#424242"/>
</g>
</svg>
