<svg width="20" height="20" viewBox="0 0 20 20" fill="none" xmlns="http://www.w3.org/2000/svg">
<mask id="mask0_816_4896" style="mask-type:alpha" maskUnits="userSpaceOnUse" x="0" y="0" width="20" height="20">
<rect width="20" height="20" fill="#D9D9D9"/>
</mask>
<g mask="url(#mask0_816_4896)">
<path d="M10.0002 18.3332C8.06961 17.8471 6.47586 16.7394 5.21891 15.0103C3.96197 13.2811 3.3335 11.3609 3.3335 9.24984V4.1665L10.0002 1.6665L16.6668 4.1665V9.24984C16.6668 11.3609 16.0384 13.2811 14.7814 15.0103C13.5245 16.7394 11.9307 17.8471 10.0002 18.3332ZM10.0002 16.5832C11.3474 16.1665 12.4724 15.3436 13.3752 14.1144C14.2779 12.8853 14.8057 11.5137 14.9585 9.99984H10.0002V3.43734L5.00016 5.31234V9.62484C5.00016 9.72206 5.01405 9.84706 5.04183 9.99984H10.0002V16.5832Z" fill="#424242"/>
</g>
</svg>
