<svg width="20" height="20" viewBox="0 0 20 20" fill="none" xmlns="http://www.w3.org/2000/svg">
<g id="settings_account_box">
<mask id="mask0_2504_3714" style="mask-type:alpha" maskUnits="userSpaceOnUse" x="0" y="0" width="20" height="20">
<rect id="Bounding box" width="20" height="20" fill="#D9D9D9"/>
</mask>
<g mask="url(#mask0_2504_3714)">
<path id="settings_account_box_2" d="M12.0833 19.1665C11.7361 19.1665 11.441 19.045 11.1979 18.8019C10.9549 18.5589 10.8333 18.2637 10.8333 17.9165V12.0832C10.8333 11.7359 10.9549 11.4408 11.1979 11.1978C11.441 10.9547 11.7361 10.8332 12.0833 10.8332H17.9167C18.2639 10.8332 18.559 10.9547 18.8021 11.1978C19.0451 11.4408 19.1667 11.7359 19.1667 12.0832V17.9165C19.1667 18.2637 19.0451 18.5589 18.8021 18.8019C18.559 19.045 18.2639 19.1665 17.9167 19.1665H12.0833ZM12.0833 17.9165H17.9167V17.2498C17.5694 16.8193 17.1458 16.4755 16.6458 16.2186C16.1458 15.9616 15.5972 15.8332 15 15.8332C14.4028 15.8332 13.8542 15.9616 13.3542 16.2186C12.8542 16.4755 12.4306 16.8193 12.0833 17.2498V17.9165ZM15 14.9998C15.3472 14.9998 15.6424 14.8783 15.8854 14.6353C16.1285 14.3922 16.25 14.0971 16.25 13.7498C16.25 13.4026 16.1285 13.1075 15.8854 12.8644C15.6424 12.6214 15.3472 12.4998 15 12.4998C14.6528 12.4998 14.3576 12.6214 14.1146 12.8644C13.8715 13.1075 13.75 13.4026 13.75 13.7498C13.75 14.0971 13.8715 14.3922 14.1146 14.6353C14.3576 14.8783 14.6528 14.9998 15 14.9998ZM10.0417 7.08317C9.23611 7.08317 8.54861 7.36789 7.97917 7.93734C7.40972 8.50678 7.125 9.19428 7.125 9.99984C7.125 10.6665 7.3125 11.2498 7.6875 11.7498C8.0625 12.2498 8.55556 12.5971 9.16667 12.7915V10.9165C9.05556 10.8054 8.96528 10.663 8.89583 10.4894C8.82639 10.3158 8.79167 10.1526 8.79167 9.99984C8.79167 9.65262 8.9132 9.35748 9.15625 9.11442C9.39931 8.87136 9.69445 8.74984 10.0417 8.74984C10.2361 8.74984 10.4097 8.78803 10.5625 8.86442C10.7153 8.94081 10.8472 9.0415 10.9583 9.1665H12.8333C12.6528 8.55539 12.309 8.05539 11.8021 7.6665C11.2951 7.27762 10.7083 7.08317 10.0417 7.08317ZM7.70833 18.3332L7.375 15.6665C7.19445 15.5971 7.02431 15.5137 6.86458 15.4165C6.70486 15.3193 6.54861 15.2151 6.39583 15.104L3.91667 16.1457L1.625 12.1873L3.77083 10.5623C3.75694 10.4651 3.75 10.3714 3.75 10.2811V9.71859C3.75 9.62831 3.75694 9.53456 3.77083 9.43734L1.625 7.81234L3.91667 3.854L6.39583 4.89567C6.54861 4.78456 6.70833 4.68039 6.875 4.58317C7.04167 4.48595 7.20833 4.40262 7.375 4.33317L7.70833 1.6665H12.2917L12.625 4.33317C12.8056 4.40262 12.9757 4.48595 13.1354 4.58317C13.2951 4.68039 13.4514 4.78456 13.6042 4.89567L16.0833 3.854L18.375 7.81234L16.6042 9.1665H14.5C14.4861 9.09706 14.4722 9.02414 14.4583 8.94775C14.4444 8.87137 14.4236 8.79845 14.3958 8.729L16.1875 7.37484L15.375 5.95817L13.3125 6.83317C13.0069 6.51373 12.6701 6.24637 12.3021 6.03109C11.934 5.81581 11.5347 5.65262 11.1042 5.5415L10.8333 3.33317H9.1875L8.89583 5.5415C8.46528 5.65262 8.06597 5.81581 7.69792 6.03109C7.32986 6.24637 6.99306 6.50678 6.6875 6.81234L4.625 5.95817L3.8125 7.37484L5.60417 8.70817C5.53472 8.9165 5.48611 9.12484 5.45833 9.33317C5.43056 9.5415 5.41667 9.76373 5.41667 9.99984C5.41667 10.2221 5.43056 10.4373 5.45833 10.6457C5.48611 10.854 5.53472 11.0623 5.60417 11.2707L3.8125 12.6248L4.625 14.0415L6.6875 13.1665C7.02083 13.5137 7.39583 13.8054 7.8125 14.0415C8.22917 14.2776 8.68056 14.4304 9.16667 14.4998V18.3332H7.70833Z" fill="#043365"/>
</g>
</g>
</svg>
